G75*
G70*
%OFA0B0*%
%FSLAX24Y24*%
%IPPOS*%
%LPD*%
%AMOC8*
5,1,8,0,0,1.08239X$1,22.5*
%
%ADD10C,0.0000*%
%ADD11C,0.0060*%
%ADD12C,0.0070*%
%ADD13C,0.0080*%
%ADD14C,0.0150*%
%ADD15C,0.0100*%
%ADD16C,0.0050*%
%ADD17C,0.0040*%
%ADD18C,0.0240*%
D10*
X001600Y004500D02*
X017900Y004500D01*
X017973Y004502D01*
X018046Y004508D01*
X018119Y004517D01*
X018191Y004531D01*
X018262Y004548D01*
X018333Y004569D01*
X018402Y004593D01*
X018469Y004621D01*
X018536Y004653D01*
X018600Y004688D01*
X018662Y004726D01*
X018723Y004767D01*
X018781Y004812D01*
X018837Y004860D01*
X018890Y004910D01*
X018940Y004963D01*
X018988Y005019D01*
X019033Y005077D01*
X019074Y005138D01*
X019112Y005200D01*
X019147Y005264D01*
X019179Y005331D01*
X019207Y005398D01*
X019231Y005467D01*
X019252Y005538D01*
X019269Y005609D01*
X019283Y005681D01*
X019292Y005754D01*
X019298Y005827D01*
X019300Y005900D01*
X019300Y018400D01*
X019301Y018445D01*
X019297Y018491D01*
X019290Y018536D01*
X019280Y018580D01*
X019266Y018623D01*
X019249Y018665D01*
X019228Y018706D01*
X019205Y018745D01*
X019178Y018782D01*
X019148Y018816D01*
X019116Y018848D01*
X019082Y018878D01*
X019045Y018905D01*
X019006Y018928D01*
X018965Y018949D01*
X018923Y018966D01*
X018880Y018980D01*
X018836Y018990D01*
X018791Y018997D01*
X018745Y019001D01*
X018700Y019000D01*
X001600Y019000D01*
X001527Y018998D01*
X001454Y018992D01*
X001381Y018983D01*
X001309Y018969D01*
X001238Y018952D01*
X001167Y018931D01*
X001098Y018907D01*
X001031Y018879D01*
X000964Y018847D01*
X000900Y018812D01*
X000838Y018774D01*
X000777Y018733D01*
X000719Y018688D01*
X000663Y018640D01*
X000610Y018590D01*
X000560Y018537D01*
X000512Y018481D01*
X000467Y018423D01*
X000426Y018362D01*
X000388Y018300D01*
X000353Y018236D01*
X000321Y018169D01*
X000293Y018102D01*
X000269Y018033D01*
X000248Y017962D01*
X000231Y017891D01*
X000217Y017819D01*
X000208Y017746D01*
X000202Y017673D01*
X000200Y017600D01*
X000200Y005900D01*
X000202Y005827D01*
X000208Y005754D01*
X000217Y005681D01*
X000231Y005609D01*
X000248Y005538D01*
X000269Y005467D01*
X000293Y005398D01*
X000321Y005331D01*
X000353Y005264D01*
X000388Y005200D01*
X000426Y005138D01*
X000467Y005077D01*
X000512Y005019D01*
X000560Y004963D01*
X000610Y004910D01*
X000663Y004860D01*
X000719Y004812D01*
X000777Y004767D01*
X000838Y004726D01*
X000900Y004688D01*
X000964Y004653D01*
X001031Y004621D01*
X001098Y004593D01*
X001167Y004569D01*
X001238Y004548D01*
X001309Y004531D01*
X001381Y004517D01*
X001454Y004508D01*
X001527Y004502D01*
X001600Y004500D01*
X001070Y017500D02*
X001072Y017550D01*
X001078Y017600D01*
X001088Y017649D01*
X001102Y017697D01*
X001119Y017744D01*
X001140Y017789D01*
X001165Y017833D01*
X001193Y017874D01*
X001225Y017913D01*
X001259Y017950D01*
X001296Y017984D01*
X001336Y018014D01*
X001378Y018041D01*
X001422Y018065D01*
X001468Y018086D01*
X001515Y018102D01*
X001563Y018115D01*
X001613Y018124D01*
X001662Y018129D01*
X001713Y018130D01*
X001763Y018127D01*
X001812Y018120D01*
X001861Y018109D01*
X001909Y018094D01*
X001955Y018076D01*
X002000Y018054D01*
X002043Y018028D01*
X002084Y017999D01*
X002123Y017967D01*
X002159Y017932D01*
X002191Y017894D01*
X002221Y017854D01*
X002248Y017811D01*
X002271Y017767D01*
X002290Y017721D01*
X002306Y017673D01*
X002318Y017624D01*
X002326Y017575D01*
X002330Y017525D01*
X002330Y017475D01*
X002326Y017425D01*
X002318Y017376D01*
X002306Y017327D01*
X002290Y017279D01*
X002271Y017233D01*
X002248Y017189D01*
X002221Y017146D01*
X002191Y017106D01*
X002159Y017068D01*
X002123Y017033D01*
X002084Y017001D01*
X002043Y016972D01*
X002000Y016946D01*
X001955Y016924D01*
X001909Y016906D01*
X001861Y016891D01*
X001812Y016880D01*
X001763Y016873D01*
X001713Y016870D01*
X001662Y016871D01*
X001613Y016876D01*
X001563Y016885D01*
X001515Y016898D01*
X001468Y016914D01*
X001422Y016935D01*
X001378Y016959D01*
X001336Y016986D01*
X001296Y017016D01*
X001259Y017050D01*
X001225Y017087D01*
X001193Y017126D01*
X001165Y017167D01*
X001140Y017211D01*
X001119Y017256D01*
X001102Y017303D01*
X001088Y017351D01*
X001078Y017400D01*
X001072Y017450D01*
X001070Y017500D01*
X017847Y017000D02*
X017849Y017042D01*
X017855Y017084D01*
X017865Y017126D01*
X017878Y017166D01*
X017896Y017205D01*
X017917Y017242D01*
X017941Y017276D01*
X017969Y017309D01*
X017999Y017339D01*
X018032Y017365D01*
X018067Y017389D01*
X018105Y017409D01*
X018144Y017425D01*
X018184Y017438D01*
X018226Y017447D01*
X018268Y017452D01*
X018311Y017453D01*
X018353Y017450D01*
X018395Y017443D01*
X018436Y017432D01*
X018476Y017417D01*
X018514Y017399D01*
X018551Y017377D01*
X018585Y017352D01*
X018617Y017324D01*
X018645Y017293D01*
X018671Y017259D01*
X018694Y017223D01*
X018713Y017186D01*
X018729Y017146D01*
X018741Y017105D01*
X018749Y017064D01*
X018753Y017021D01*
X018753Y016979D01*
X018749Y016936D01*
X018741Y016895D01*
X018729Y016854D01*
X018713Y016814D01*
X018694Y016777D01*
X018671Y016741D01*
X018645Y016707D01*
X018617Y016676D01*
X018585Y016648D01*
X018551Y016623D01*
X018514Y016601D01*
X018476Y016583D01*
X018436Y016568D01*
X018395Y016557D01*
X018353Y016550D01*
X018311Y016547D01*
X018268Y016548D01*
X018226Y016553D01*
X018184Y016562D01*
X018144Y016575D01*
X018105Y016591D01*
X018067Y016611D01*
X018032Y016635D01*
X017999Y016661D01*
X017969Y016691D01*
X017941Y016724D01*
X017917Y016758D01*
X017896Y016795D01*
X017878Y016834D01*
X017865Y016874D01*
X017855Y016916D01*
X017849Y016958D01*
X017847Y017000D01*
D11*
X017838Y018480D02*
X017968Y018480D01*
X018033Y018545D01*
X017838Y018480D02*
X017773Y018545D01*
X017773Y018805D01*
X017838Y018870D01*
X017968Y018870D01*
X018033Y018805D01*
X017619Y018805D02*
X017619Y018545D01*
X017554Y018480D01*
X017359Y018480D01*
X017359Y018870D01*
X017554Y018870D01*
X017619Y018805D01*
X017205Y018870D02*
X017205Y018610D01*
X017074Y018480D01*
X016944Y018610D01*
X016944Y018870D01*
X016790Y018870D02*
X016530Y018870D01*
X016530Y018675D01*
X016660Y018740D01*
X016725Y018740D01*
X016790Y018675D01*
X016790Y018545D01*
X016725Y018480D01*
X016595Y018480D01*
X016530Y018545D01*
X015000Y017950D02*
X015000Y017450D01*
X014750Y017200D01*
X014250Y017200D01*
X014000Y017450D01*
X013750Y017200D01*
X013250Y017200D01*
X013000Y017450D01*
X013000Y017950D01*
X013250Y018200D01*
X013750Y018200D01*
X014000Y017950D01*
X014250Y018200D01*
X014750Y018200D01*
X015000Y017950D01*
X014000Y017950D02*
X014000Y017450D01*
X013400Y014850D02*
X013402Y014894D01*
X013408Y014938D01*
X013418Y014981D01*
X013431Y015023D01*
X013448Y015064D01*
X013469Y015103D01*
X013493Y015140D01*
X013520Y015175D01*
X013550Y015207D01*
X013583Y015237D01*
X013619Y015263D01*
X013656Y015287D01*
X013696Y015306D01*
X013737Y015323D01*
X013780Y015335D01*
X013823Y015344D01*
X013867Y015349D01*
X013911Y015350D01*
X013955Y015347D01*
X013999Y015340D01*
X014042Y015329D01*
X014084Y015315D01*
X014124Y015297D01*
X014163Y015275D01*
X014199Y015251D01*
X014233Y015223D01*
X014265Y015192D01*
X014294Y015158D01*
X014320Y015122D01*
X014342Y015084D01*
X014361Y015044D01*
X014376Y015002D01*
X014388Y014960D01*
X014396Y014916D01*
X014400Y014872D01*
X014400Y014828D01*
X014396Y014784D01*
X014388Y014740D01*
X014376Y014698D01*
X014361Y014656D01*
X014342Y014616D01*
X014320Y014578D01*
X014294Y014542D01*
X014265Y014508D01*
X014233Y014477D01*
X014199Y014449D01*
X014163Y014425D01*
X014124Y014403D01*
X014084Y014385D01*
X014042Y014371D01*
X013999Y014360D01*
X013955Y014353D01*
X013911Y014350D01*
X013867Y014351D01*
X013823Y014356D01*
X013780Y014365D01*
X013737Y014377D01*
X013696Y014394D01*
X013656Y014413D01*
X013619Y014437D01*
X013583Y014463D01*
X013550Y014493D01*
X013520Y014525D01*
X013493Y014560D01*
X013469Y014597D01*
X013448Y014636D01*
X013431Y014677D01*
X013418Y014719D01*
X013408Y014762D01*
X013402Y014806D01*
X013400Y014850D01*
X012400Y014850D02*
X012402Y014894D01*
X012408Y014938D01*
X012418Y014981D01*
X012431Y015023D01*
X012448Y015064D01*
X012469Y015103D01*
X012493Y015140D01*
X012520Y015175D01*
X012550Y015207D01*
X012583Y015237D01*
X012619Y015263D01*
X012656Y015287D01*
X012696Y015306D01*
X012737Y015323D01*
X012780Y015335D01*
X012823Y015344D01*
X012867Y015349D01*
X012911Y015350D01*
X012955Y015347D01*
X012999Y015340D01*
X013042Y015329D01*
X013084Y015315D01*
X013124Y015297D01*
X013163Y015275D01*
X013199Y015251D01*
X013233Y015223D01*
X013265Y015192D01*
X013294Y015158D01*
X013320Y015122D01*
X013342Y015084D01*
X013361Y015044D01*
X013376Y015002D01*
X013388Y014960D01*
X013396Y014916D01*
X013400Y014872D01*
X013400Y014828D01*
X013396Y014784D01*
X013388Y014740D01*
X013376Y014698D01*
X013361Y014656D01*
X013342Y014616D01*
X013320Y014578D01*
X013294Y014542D01*
X013265Y014508D01*
X013233Y014477D01*
X013199Y014449D01*
X013163Y014425D01*
X013124Y014403D01*
X013084Y014385D01*
X013042Y014371D01*
X012999Y014360D01*
X012955Y014353D01*
X012911Y014350D01*
X012867Y014351D01*
X012823Y014356D01*
X012780Y014365D01*
X012737Y014377D01*
X012696Y014394D01*
X012656Y014413D01*
X012619Y014437D01*
X012583Y014463D01*
X012550Y014493D01*
X012520Y014525D01*
X012493Y014560D01*
X012469Y014597D01*
X012448Y014636D01*
X012431Y014677D01*
X012418Y014719D01*
X012408Y014762D01*
X012402Y014806D01*
X012400Y014850D01*
X011263Y014470D02*
X011263Y014177D01*
X011116Y014030D01*
X010970Y014177D01*
X010970Y014470D01*
X010803Y014470D02*
X010509Y014470D01*
X010509Y014250D01*
X010656Y014324D01*
X010729Y014324D01*
X010803Y014250D01*
X010803Y014103D01*
X010729Y014030D01*
X010583Y014030D01*
X010509Y014103D01*
X008363Y014103D02*
X008290Y014030D01*
X008070Y014030D01*
X008070Y014470D01*
X008290Y014470D01*
X008363Y014397D01*
X008363Y014103D01*
X007903Y014030D02*
X007903Y014470D01*
X007609Y014470D02*
X007609Y014030D01*
X007442Y014103D02*
X007442Y014250D01*
X007296Y014250D01*
X007442Y014103D02*
X007369Y014030D01*
X007222Y014030D01*
X007149Y014103D01*
X007149Y014397D01*
X007222Y014470D01*
X007369Y014470D01*
X007442Y014397D01*
X007609Y014470D02*
X007903Y014030D01*
X005750Y016200D02*
X006000Y016450D01*
X006000Y016950D01*
X005750Y017200D01*
X005250Y017200D01*
X005000Y016950D01*
X004750Y017200D01*
X004250Y017200D01*
X004000Y016950D01*
X003750Y017200D01*
X003250Y017200D01*
X003000Y016950D01*
X003000Y016450D01*
X003250Y016200D01*
X003750Y016200D01*
X004000Y016450D01*
X004000Y016950D01*
X003750Y017200D02*
X003250Y017200D01*
X003000Y017450D01*
X003000Y017950D01*
X003250Y018200D01*
X003750Y018200D01*
X004000Y017950D01*
X004250Y018200D01*
X004750Y018200D01*
X005000Y017950D01*
X005250Y018200D01*
X005750Y018200D01*
X006000Y017950D01*
X006000Y017450D01*
X005750Y017200D01*
X005250Y017200D01*
X005000Y017450D01*
X004750Y017200D01*
X004250Y017200D01*
X004000Y017450D01*
X003750Y017200D01*
X004000Y017450D02*
X004000Y017950D01*
X005000Y017950D02*
X005000Y017450D01*
X005000Y016950D02*
X005000Y016450D01*
X004750Y016200D01*
X004250Y016200D01*
X004000Y016450D01*
X005000Y016450D02*
X005250Y016200D01*
X005750Y016200D01*
X004750Y013850D02*
X004750Y013700D01*
X004700Y013650D01*
X004700Y011750D01*
X004750Y011700D01*
X004750Y011550D01*
X004748Y011533D01*
X004744Y011516D01*
X004737Y011500D01*
X004727Y011486D01*
X004714Y011473D01*
X004700Y011463D01*
X004684Y011456D01*
X004667Y011452D01*
X004650Y011450D01*
X003950Y011450D02*
X003933Y011452D01*
X003916Y011456D01*
X003900Y011463D01*
X003886Y011473D01*
X003873Y011486D01*
X003863Y011500D01*
X003856Y011516D01*
X003852Y011533D01*
X003850Y011550D01*
X003850Y011700D01*
X003900Y011750D01*
X003900Y013650D01*
X003850Y013700D01*
X003850Y013850D01*
X003852Y013867D01*
X003856Y013884D01*
X003863Y013900D01*
X003873Y013914D01*
X003886Y013927D01*
X003900Y013937D01*
X003916Y013944D01*
X003933Y013948D01*
X003950Y013950D01*
X004650Y013950D02*
X004667Y013948D01*
X004684Y013944D01*
X004700Y013937D01*
X004714Y013927D01*
X004727Y013914D01*
X004737Y013900D01*
X004744Y013884D01*
X004748Y013867D01*
X004750Y013850D01*
X002850Y013750D02*
X002850Y013250D01*
X002600Y013000D01*
X001100Y013000D01*
X000850Y012750D01*
X000850Y012250D01*
X001100Y012000D01*
X002600Y012000D01*
X002850Y011750D01*
X002850Y011250D01*
X002600Y011000D01*
X001100Y011000D01*
X000850Y010750D01*
X000850Y010250D01*
X001100Y010000D01*
X002600Y010000D01*
X002850Y009750D01*
X002850Y009250D01*
X002600Y009000D01*
X001100Y009000D01*
X000850Y008750D01*
X000850Y008250D01*
X001100Y008000D01*
X002600Y008000D01*
X002850Y007750D01*
X002850Y007250D01*
X002600Y007000D01*
X002850Y006750D01*
X002850Y006250D01*
X002600Y006000D01*
X001100Y006000D01*
X000850Y006250D01*
X000850Y006750D01*
X001100Y007000D01*
X002600Y007000D01*
X003250Y006200D02*
X003750Y006200D01*
X004000Y005950D01*
X004250Y006200D01*
X004750Y006200D01*
X005000Y005950D01*
X005250Y006200D01*
X005750Y006200D01*
X006000Y005950D01*
X006250Y006200D01*
X006750Y006200D01*
X007000Y005950D01*
X007250Y006200D01*
X007750Y006200D01*
X008000Y005950D01*
X008000Y005450D01*
X007750Y005200D01*
X007250Y005200D01*
X007000Y005450D01*
X007000Y005950D01*
X007000Y005450D01*
X006750Y005200D01*
X006250Y005200D01*
X006000Y005450D01*
X005750Y005200D01*
X005250Y005200D01*
X005000Y005450D01*
X005000Y005950D01*
X005000Y005450D02*
X004750Y005200D01*
X004250Y005200D01*
X004000Y005450D01*
X003750Y005200D01*
X003250Y005200D01*
X003000Y005450D01*
X003000Y005950D01*
X003250Y006200D01*
X004000Y005950D02*
X004000Y005450D01*
X004466Y005070D02*
X004613Y005070D01*
X004540Y005070D02*
X004540Y004630D01*
X004613Y004630D02*
X004466Y004630D01*
X004773Y004630D02*
X005067Y004924D01*
X005067Y004997D01*
X004993Y005070D01*
X004846Y005070D01*
X004773Y004997D01*
X004773Y004630D02*
X005067Y004630D01*
X005233Y004703D02*
X005307Y004630D01*
X005454Y004630D01*
X005527Y004703D01*
X005233Y004703D02*
X005233Y004997D01*
X005307Y005070D01*
X005454Y005070D01*
X005527Y004997D01*
X006000Y005450D02*
X006000Y005950D01*
X008000Y005950D02*
X008000Y005450D01*
X008250Y005200D01*
X008750Y005200D01*
X009000Y005450D01*
X009000Y005950D01*
X008750Y006200D01*
X008250Y006200D01*
X008000Y005950D01*
X009000Y005950D02*
X009250Y006200D01*
X009750Y006200D01*
X010000Y005950D01*
X010250Y006200D01*
X010750Y006200D01*
X011000Y005950D01*
X011250Y006200D01*
X011750Y006200D01*
X012000Y005950D01*
X012250Y006200D01*
X012750Y006200D01*
X013000Y005950D01*
X013000Y005450D01*
X012750Y005200D01*
X012250Y005200D01*
X012000Y005450D01*
X011750Y005200D01*
X011250Y005200D01*
X011000Y005450D01*
X011000Y005950D01*
X011000Y005450D01*
X010750Y005200D01*
X010250Y005200D01*
X010000Y005450D01*
X009750Y005200D01*
X009250Y005200D01*
X009000Y005450D01*
X009096Y005070D02*
X009243Y005070D01*
X009170Y005070D02*
X009170Y004630D01*
X009243Y004630D02*
X009096Y004630D01*
X009403Y004630D02*
X009403Y005070D01*
X009623Y005070D01*
X009697Y004997D01*
X009697Y004850D01*
X009623Y004777D01*
X009403Y004777D01*
X009550Y004777D02*
X009697Y004630D01*
X010000Y005450D02*
X010000Y005950D01*
X011554Y004997D02*
X011554Y004703D01*
X011627Y004630D01*
X011774Y004630D01*
X011847Y004703D01*
X012014Y004703D02*
X012088Y004630D01*
X012234Y004630D01*
X012308Y004703D01*
X012475Y004703D02*
X012548Y004630D01*
X012695Y004630D01*
X012768Y004703D01*
X012768Y004777D01*
X012695Y004850D01*
X012621Y004850D01*
X012695Y004850D02*
X012768Y004924D01*
X012768Y004997D01*
X012695Y005070D01*
X012548Y005070D01*
X012475Y004997D01*
X012308Y004997D02*
X012234Y005070D01*
X012088Y005070D01*
X012014Y004997D01*
X012014Y004703D01*
X011847Y004997D02*
X011774Y005070D01*
X011627Y005070D01*
X011554Y004997D01*
X012000Y005450D02*
X012000Y005950D01*
X013000Y005950D02*
X013250Y006200D01*
X013750Y006200D01*
X014000Y005950D01*
X014250Y006200D01*
X014750Y006200D01*
X015000Y005950D01*
X015250Y006200D01*
X015750Y006200D01*
X016000Y005950D01*
X016000Y005450D01*
X015750Y005200D01*
X015250Y005200D01*
X015000Y005450D01*
X014750Y005200D01*
X014250Y005200D01*
X014000Y005450D01*
X013750Y005200D01*
X013250Y005200D01*
X013000Y005450D01*
X013008Y005070D02*
X013155Y005070D01*
X013229Y004997D01*
X012935Y004703D01*
X013008Y004630D01*
X013155Y004630D01*
X013229Y004703D01*
X013229Y004997D01*
X013395Y004997D02*
X013395Y004703D01*
X013689Y004997D01*
X013689Y004703D01*
X013616Y004630D01*
X013469Y004630D01*
X013395Y004703D01*
X013395Y004997D02*
X013469Y005070D01*
X013616Y005070D01*
X013689Y004997D01*
X013856Y004997D02*
X013929Y005070D01*
X014076Y005070D01*
X014149Y004997D01*
X013856Y004703D01*
X013929Y004630D01*
X014076Y004630D01*
X014149Y004703D01*
X014149Y004997D01*
X013856Y004997D02*
X013856Y004703D01*
X014316Y004630D02*
X014610Y005070D01*
X014777Y004997D02*
X014777Y004924D01*
X014850Y004850D01*
X014997Y004850D01*
X015070Y004777D01*
X015070Y004703D01*
X014997Y004630D01*
X014850Y004630D01*
X014777Y004703D01*
X014777Y004997D02*
X014850Y005070D01*
X014997Y005070D01*
X015070Y004997D01*
X015237Y005070D02*
X015457Y005070D01*
X015531Y004997D01*
X015531Y004850D01*
X015457Y004777D01*
X015237Y004777D01*
X015237Y004630D02*
X015237Y005070D01*
X015000Y005450D02*
X015000Y005950D01*
X015697Y005070D02*
X015844Y005070D01*
X015771Y005070D02*
X015771Y004630D01*
X015844Y004630D02*
X015697Y004630D01*
X016004Y004850D02*
X016298Y004850D01*
X016151Y004997D02*
X016151Y004703D01*
X016465Y004703D02*
X016538Y004630D01*
X016685Y004630D01*
X016758Y004703D01*
X016758Y005070D01*
X016750Y005200D02*
X016250Y005200D01*
X016000Y005450D01*
X016000Y005950D02*
X016250Y006200D01*
X016750Y006200D01*
X017000Y005950D01*
X017250Y006200D01*
X017750Y006200D01*
X018000Y005950D01*
X018250Y006200D01*
X018750Y006200D01*
X019000Y005950D01*
X019000Y005450D01*
X018750Y005200D01*
X018250Y005200D01*
X018000Y005450D01*
X017750Y005200D01*
X017250Y005200D01*
X017000Y005450D01*
X016750Y005200D01*
X016465Y005070D02*
X016465Y004703D01*
X016925Y004630D02*
X016925Y004924D01*
X017072Y005070D01*
X017219Y004924D01*
X017219Y004630D01*
X017385Y004630D02*
X017385Y005070D01*
X017606Y005070D01*
X017679Y004997D01*
X017679Y004850D01*
X017606Y004777D01*
X017385Y004777D01*
X017532Y004777D02*
X017679Y004630D01*
X017993Y004630D02*
X017993Y005070D01*
X018139Y005070D02*
X017846Y005070D01*
X018000Y005450D02*
X018000Y005950D01*
X017000Y005950D02*
X017000Y005450D01*
X016925Y004850D02*
X017219Y004850D01*
X014000Y005450D02*
X014000Y005950D01*
X013008Y005070D02*
X012935Y004997D01*
X012935Y004703D01*
X007234Y011330D02*
X006940Y011330D01*
X007234Y011624D01*
X007234Y011697D01*
X007161Y011770D01*
X007014Y011770D01*
X006940Y011697D01*
X006774Y011770D02*
X006774Y011477D01*
X006627Y011330D01*
X006480Y011477D01*
X006480Y011770D01*
X004750Y009850D02*
X004750Y009700D01*
X004700Y009650D01*
X004700Y007750D01*
X004750Y007700D01*
X004750Y007550D01*
X004748Y007533D01*
X004744Y007516D01*
X004737Y007500D01*
X004727Y007486D01*
X004714Y007473D01*
X004700Y007463D01*
X004684Y007456D01*
X004667Y007452D01*
X004650Y007450D01*
X003950Y007450D02*
X003933Y007452D01*
X003916Y007456D01*
X003900Y007463D01*
X003886Y007473D01*
X003873Y007486D01*
X003863Y007500D01*
X003856Y007516D01*
X003852Y007533D01*
X003850Y007550D01*
X003850Y007700D01*
X003900Y007750D01*
X003900Y009650D01*
X003850Y009700D01*
X003850Y009850D01*
X003852Y009867D01*
X003856Y009884D01*
X003863Y009900D01*
X003873Y009914D01*
X003886Y009927D01*
X003900Y009937D01*
X003916Y009944D01*
X003933Y009948D01*
X003950Y009950D01*
X004650Y009950D02*
X004667Y009948D01*
X004684Y009944D01*
X004700Y009937D01*
X004714Y009927D01*
X004727Y009914D01*
X004737Y009900D01*
X004744Y009884D01*
X004748Y009867D01*
X004750Y009850D01*
X002850Y010250D02*
X002600Y010000D01*
X002850Y010250D02*
X002850Y010750D01*
X002600Y011000D01*
X002600Y012000D02*
X002850Y012250D01*
X002850Y012750D01*
X002600Y013000D01*
X002850Y013750D02*
X002600Y014000D01*
X001100Y014000D01*
X000850Y013750D01*
X000850Y013250D01*
X001100Y013000D01*
X001100Y012000D02*
X000850Y011750D01*
X000850Y011250D01*
X001100Y011000D01*
X001100Y010000D02*
X000850Y009750D01*
X000850Y009250D01*
X001100Y009000D01*
X001100Y008000D02*
X000850Y007750D01*
X000850Y007250D01*
X001100Y007000D01*
X002600Y008000D02*
X002850Y008250D01*
X002850Y008750D01*
X002600Y009000D01*
D12*
X006386Y012223D02*
X006474Y012135D01*
X006651Y012135D01*
X006740Y012223D01*
X006740Y012312D01*
X006651Y012400D01*
X006474Y012400D01*
X006386Y012489D01*
X006386Y012577D01*
X006474Y012665D01*
X006651Y012665D01*
X006740Y012577D01*
X006938Y012489D02*
X007027Y012489D01*
X007115Y012400D01*
X007204Y012489D01*
X007292Y012400D01*
X007292Y012135D01*
X007115Y012135D02*
X007115Y012400D01*
X006938Y012489D02*
X006938Y012135D01*
X007491Y012223D02*
X007579Y012135D01*
X007845Y012135D01*
X007845Y012400D01*
X007756Y012489D01*
X007579Y012489D01*
X007579Y012312D02*
X007845Y012312D01*
X008043Y012312D02*
X008220Y012489D01*
X008309Y012489D01*
X008504Y012489D02*
X008681Y012489D01*
X008592Y012577D02*
X008592Y012223D01*
X008681Y012135D01*
X008872Y012135D02*
X008872Y012665D01*
X009049Y012489D01*
X009226Y012665D01*
X009226Y012135D01*
X009425Y012223D02*
X009513Y012312D01*
X009778Y012312D01*
X009778Y012400D02*
X009690Y012489D01*
X009513Y012489D01*
X009425Y012223D02*
X009513Y012135D01*
X009778Y012135D01*
X009778Y012400D01*
X009977Y012489D02*
X010154Y012489D01*
X010065Y012577D02*
X010065Y012223D01*
X010154Y012135D01*
X010345Y012135D02*
X010345Y012489D01*
X010345Y012312D02*
X010522Y012489D01*
X010611Y012489D01*
X010806Y012489D02*
X010894Y012489D01*
X010894Y012135D01*
X010806Y012135D02*
X010983Y012135D01*
X011174Y012135D02*
X011528Y012489D01*
X011174Y012489D02*
X011528Y012135D01*
X010894Y012665D02*
X010894Y012754D01*
X012279Y012577D02*
X012279Y012489D01*
X012367Y012400D01*
X012544Y012400D01*
X012633Y012312D01*
X012633Y012223D01*
X012544Y012135D01*
X012367Y012135D01*
X012279Y012223D01*
X012279Y012577D02*
X012367Y012665D01*
X012544Y012665D01*
X012633Y012577D01*
X012832Y012665D02*
X013097Y012665D01*
X013185Y012577D01*
X013185Y012223D01*
X013097Y012135D01*
X012832Y012135D01*
X012832Y012665D01*
X008043Y012489D02*
X008043Y012135D01*
X007579Y012312D02*
X007491Y012223D01*
X002752Y015860D02*
X003006Y016240D01*
X002591Y016114D02*
X002338Y015860D01*
X002177Y015860D02*
X002177Y016050D01*
X002114Y016114D01*
X002050Y016050D01*
X002050Y015860D01*
X001923Y015860D02*
X001923Y016114D01*
X001987Y016114D01*
X002050Y016050D01*
X001780Y015923D02*
X001780Y015860D01*
X001716Y015860D01*
X001716Y015923D01*
X001780Y015923D01*
X001567Y015860D02*
X001440Y015860D01*
X001503Y015860D02*
X001503Y016240D01*
X001440Y016240D01*
X001279Y016114D02*
X001026Y015860D01*
X000876Y015860D02*
X000749Y015860D01*
X000813Y015860D02*
X000813Y016114D01*
X000749Y016114D01*
X000813Y016240D02*
X000813Y016304D01*
X001026Y016114D02*
X001279Y015860D01*
X001164Y015565D02*
X001164Y015185D01*
X001164Y015312D02*
X001354Y015439D01*
X001509Y015439D02*
X001572Y015439D01*
X001572Y015185D01*
X001509Y015185D02*
X001636Y015185D01*
X001849Y015248D02*
X001912Y015185D01*
X001849Y015248D02*
X001849Y015502D01*
X001785Y015439D02*
X001912Y015439D01*
X002061Y015502D02*
X002061Y015248D01*
X002315Y015502D01*
X002315Y015248D01*
X002252Y015185D01*
X002125Y015185D01*
X002061Y015248D01*
X002061Y015502D02*
X002125Y015565D01*
X002252Y015565D01*
X002315Y015502D01*
X002476Y015375D02*
X002729Y015375D01*
X002666Y015185D02*
X002666Y015565D01*
X002476Y015375D01*
X002591Y015860D02*
X002338Y016114D01*
X001572Y015629D02*
X001572Y015565D01*
X001354Y015185D02*
X001164Y015312D01*
X001003Y015375D02*
X001003Y015185D01*
X000876Y015185D02*
X000876Y015375D01*
X000940Y015439D01*
X001003Y015375D01*
X000876Y015375D02*
X000813Y015439D01*
X000749Y015439D01*
X000749Y015185D01*
X000589Y015248D02*
X000525Y015312D01*
X000398Y015312D01*
X000335Y015375D01*
X000398Y015439D01*
X000589Y015439D01*
X000589Y015248D02*
X000525Y015185D01*
X000335Y015185D01*
X000335Y015733D02*
X000335Y016114D01*
X000525Y016114D01*
X000589Y016050D01*
X000589Y015923D01*
X000525Y015860D01*
X000335Y015860D01*
D13*
X000478Y014610D02*
X000638Y014610D01*
X000692Y014557D01*
X000692Y014450D01*
X000638Y014397D01*
X000478Y014397D01*
X000585Y014397D02*
X000692Y014290D01*
X000846Y014290D02*
X001060Y014290D01*
X001215Y014290D02*
X001375Y014290D01*
X001428Y014343D01*
X001428Y014557D01*
X001375Y014610D01*
X001215Y014610D01*
X001215Y014290D01*
X000953Y014450D02*
X000846Y014450D01*
X000846Y014610D02*
X000846Y014290D01*
X000846Y014610D02*
X001060Y014610D01*
X000478Y014610D02*
X000478Y014290D01*
X000710Y013804D02*
X000710Y013590D01*
X000710Y013697D02*
X000390Y013697D01*
X000496Y013590D01*
X000443Y013435D02*
X000390Y013382D01*
X000390Y013222D01*
X000710Y013222D01*
X000603Y013222D02*
X000603Y013382D01*
X000550Y013435D01*
X000443Y013435D01*
X000603Y013328D02*
X000710Y013435D01*
X000710Y012804D02*
X000710Y012590D01*
X000710Y012697D02*
X000390Y012697D01*
X000496Y012590D01*
X000496Y012435D02*
X000550Y012382D01*
X000550Y012222D01*
X000550Y012382D02*
X000603Y012435D01*
X000657Y012435D01*
X000710Y012382D01*
X000710Y012222D01*
X000390Y012222D01*
X000390Y012382D01*
X000443Y012435D01*
X000496Y012435D01*
X000496Y011804D02*
X000443Y011804D01*
X000390Y011750D01*
X000390Y011643D01*
X000443Y011590D01*
X000443Y011435D02*
X000550Y011435D01*
X000603Y011382D01*
X000603Y011222D01*
X000603Y011328D02*
X000710Y011435D01*
X000710Y011590D02*
X000496Y011804D01*
X000710Y011804D02*
X000710Y011590D01*
X000443Y011435D02*
X000390Y011382D01*
X000390Y011222D01*
X000710Y011222D01*
X000710Y010804D02*
X000710Y010590D01*
X000496Y010804D01*
X000443Y010804D01*
X000390Y010750D01*
X000390Y010643D01*
X000443Y010590D01*
X000443Y010435D02*
X000496Y010435D01*
X000550Y010382D01*
X000550Y010222D01*
X000550Y010382D02*
X000603Y010435D01*
X000657Y010435D01*
X000710Y010382D01*
X000710Y010222D01*
X000390Y010222D01*
X000390Y010382D01*
X000443Y010435D01*
X000443Y009804D02*
X000390Y009750D01*
X000390Y009643D01*
X000443Y009590D01*
X000657Y009590D01*
X000443Y009804D01*
X000657Y009804D01*
X000710Y009750D01*
X000710Y009643D01*
X000657Y009590D01*
X000710Y009435D02*
X000496Y009435D01*
X000390Y009328D01*
X000496Y009222D01*
X000710Y009222D01*
X000550Y009222D02*
X000550Y009435D01*
X000496Y008804D02*
X000443Y008804D01*
X000390Y008750D01*
X000390Y008643D01*
X000443Y008590D01*
X000496Y008435D02*
X000390Y008328D01*
X000496Y008222D01*
X000710Y008222D01*
X000550Y008222D02*
X000550Y008435D01*
X000496Y008435D02*
X000710Y008435D01*
X000710Y008590D02*
X000496Y008804D01*
X000710Y008804D02*
X000710Y008590D01*
X000710Y007804D02*
X000550Y007643D01*
X000603Y007590D02*
X000390Y007804D01*
X000390Y007590D02*
X000710Y007590D01*
X000657Y007435D02*
X000710Y007382D01*
X000710Y007275D01*
X000657Y007222D01*
X000443Y007222D01*
X000390Y007275D01*
X000390Y007382D01*
X000443Y007435D01*
X000390Y006804D02*
X000390Y006590D01*
X000710Y006590D01*
X000710Y006804D01*
X000550Y006697D02*
X000550Y006590D01*
X000657Y006435D02*
X000443Y006435D01*
X000390Y006382D01*
X000390Y006275D01*
X000443Y006222D01*
X000657Y006222D01*
X000710Y006275D01*
X000710Y006382D01*
X000657Y006435D01*
X003006Y006512D02*
X003096Y006318D01*
X003167Y006292D01*
X003264Y006337D01*
X003290Y006408D01*
X003244Y006505D01*
X003148Y006460D01*
X003199Y006602D02*
X003128Y006628D01*
X003032Y006582D01*
X003006Y006512D01*
X003317Y006716D02*
X003452Y006425D01*
X003646Y006516D02*
X003317Y006716D01*
X003511Y006806D02*
X003646Y006516D01*
X003786Y006581D02*
X003931Y006649D01*
X003957Y006720D01*
X003867Y006913D01*
X003796Y006939D01*
X003651Y006871D01*
X003786Y006581D01*
X004056Y006512D02*
X004082Y006582D01*
X004178Y006628D01*
X004249Y006602D01*
X004272Y006553D01*
X004246Y006482D01*
X004317Y006457D01*
X004340Y006408D01*
X004314Y006337D01*
X004217Y006292D01*
X004146Y006318D01*
X004198Y006460D02*
X004246Y006482D01*
X004457Y006522D02*
X004367Y006716D01*
X004561Y006806D02*
X004651Y006612D01*
X004599Y006470D01*
X004457Y006522D01*
X004814Y006629D02*
X004885Y006604D01*
X004981Y006649D01*
X005007Y006720D01*
X004985Y006768D01*
X004914Y006794D01*
X004865Y006771D01*
X004914Y006794D02*
X004940Y006865D01*
X004917Y006913D01*
X004846Y006939D01*
X004749Y006894D01*
X004723Y006823D01*
X005082Y006582D02*
X005056Y006512D01*
X005078Y006463D01*
X005149Y006437D01*
X005246Y006482D01*
X005317Y006457D01*
X005340Y006408D01*
X005314Y006337D01*
X005217Y006292D01*
X005146Y006318D01*
X005082Y006582D02*
X005178Y006628D01*
X005249Y006602D01*
X005367Y006716D02*
X005512Y006783D01*
X005583Y006757D01*
X005673Y006564D01*
X005648Y006493D01*
X005502Y006425D01*
X005367Y006716D01*
X005746Y006774D02*
X005798Y006916D01*
X005940Y006865D01*
X006030Y006671D01*
X006082Y006582D02*
X006056Y006512D01*
X006078Y006463D01*
X006149Y006437D01*
X006246Y006482D01*
X006317Y006457D01*
X006340Y006408D01*
X006314Y006337D01*
X006217Y006292D01*
X006146Y006318D01*
X006082Y006582D02*
X006178Y006628D01*
X006249Y006602D01*
X006390Y006667D02*
X006480Y006474D01*
X006551Y006448D01*
X006648Y006493D01*
X006673Y006564D01*
X006836Y006581D02*
X007030Y006671D01*
X007082Y006582D02*
X007056Y006512D01*
X007146Y006318D01*
X007217Y006292D01*
X007314Y006337D01*
X007340Y006408D01*
X007480Y006474D02*
X007551Y006448D01*
X007648Y006493D01*
X007673Y006564D01*
X007651Y006612D01*
X007580Y006638D01*
X007483Y006593D01*
X007412Y006619D01*
X007390Y006667D01*
X007415Y006738D01*
X007512Y006783D01*
X007583Y006757D01*
X007723Y006823D02*
X007749Y006894D01*
X007846Y006939D01*
X007917Y006913D01*
X007940Y006865D01*
X007836Y006581D01*
X008030Y006671D01*
X008082Y006582D02*
X008056Y006512D01*
X008082Y006582D02*
X008178Y006628D01*
X008249Y006602D01*
X008272Y006553D01*
X008246Y006482D01*
X008317Y006457D01*
X008340Y006408D01*
X008314Y006337D01*
X008217Y006292D01*
X008146Y006318D01*
X008198Y006460D02*
X008246Y006482D01*
X008457Y006522D02*
X008367Y006716D01*
X008561Y006806D02*
X008651Y006612D01*
X008599Y006470D01*
X008457Y006522D01*
X008814Y006629D02*
X008885Y006604D01*
X008981Y006649D01*
X009007Y006720D01*
X008985Y006768D01*
X008914Y006794D01*
X008865Y006771D01*
X008914Y006794D02*
X008940Y006865D01*
X008917Y006913D01*
X008846Y006939D01*
X008749Y006894D01*
X008723Y006823D01*
X009082Y006582D02*
X009056Y006512D01*
X009146Y006318D01*
X009217Y006292D01*
X009314Y006337D01*
X009340Y006408D01*
X009294Y006505D01*
X009198Y006460D01*
X009249Y006602D02*
X009178Y006628D01*
X009082Y006582D01*
X009367Y006716D02*
X009502Y006425D01*
X009696Y006516D02*
X009367Y006716D01*
X009561Y006806D02*
X009696Y006516D01*
X009836Y006581D02*
X009981Y006649D01*
X010007Y006720D01*
X009917Y006913D01*
X009846Y006939D01*
X009701Y006871D01*
X009836Y006581D01*
X010256Y006664D02*
X010353Y006709D01*
X010304Y006686D02*
X010440Y006396D01*
X010488Y006419D02*
X010391Y006373D01*
X010614Y006477D02*
X010478Y006767D01*
X010623Y006835D01*
X010694Y006809D01*
X010740Y006713D01*
X010714Y006642D01*
X010569Y006574D01*
X010665Y006619D02*
X010807Y006567D01*
X011100Y006638D02*
X011294Y006728D01*
X011197Y006683D02*
X011332Y006393D01*
X011569Y006503D02*
X011628Y006884D01*
X011434Y006793D02*
X011763Y006593D01*
X012100Y006638D02*
X012245Y006705D01*
X012316Y006680D01*
X012361Y006583D01*
X012336Y006512D01*
X012190Y006444D01*
X012236Y006348D02*
X012100Y006638D01*
X012287Y006489D02*
X012429Y006438D01*
X012569Y006503D02*
X012628Y006884D01*
X012434Y006793D02*
X012763Y006593D01*
X013123Y006589D02*
X013213Y006396D01*
X013284Y006370D01*
X013381Y006415D01*
X013406Y006486D01*
X013547Y006552D02*
X013618Y006526D01*
X013714Y006571D01*
X013740Y006642D01*
X013718Y006690D01*
X013647Y006716D01*
X013550Y006671D01*
X013479Y006697D01*
X013457Y006745D01*
X013482Y006816D01*
X013579Y006861D01*
X013650Y006835D01*
X013316Y006680D02*
X013245Y006705D01*
X013149Y006660D01*
X013123Y006589D01*
X014056Y006512D02*
X014146Y006318D01*
X014217Y006292D01*
X014314Y006337D01*
X014340Y006408D01*
X014249Y006602D01*
X014178Y006628D01*
X014082Y006582D01*
X014056Y006512D01*
X014367Y006716D02*
X014480Y006474D01*
X014551Y006448D01*
X014648Y006493D01*
X014673Y006564D01*
X014561Y006806D01*
X014701Y006871D02*
X014894Y006961D01*
X014798Y006916D02*
X014933Y006626D01*
X015156Y006664D02*
X015253Y006709D01*
X015204Y006686D02*
X015340Y006396D01*
X015388Y006419D02*
X015291Y006373D01*
X015514Y006477D02*
X015378Y006767D01*
X015707Y006567D01*
X015572Y006858D01*
X015982Y006582D02*
X015956Y006512D01*
X016046Y006318D01*
X016117Y006292D01*
X016214Y006337D01*
X016240Y006408D01*
X016402Y006425D02*
X016267Y006716D01*
X016149Y006602D02*
X016078Y006628D01*
X015982Y006582D01*
X016402Y006425D02*
X016596Y006516D01*
X016736Y006581D02*
X016601Y006871D01*
X016717Y006749D02*
X016930Y006671D01*
X017100Y006638D02*
X017168Y006493D01*
X017242Y006586D01*
X017290Y006609D01*
X017361Y006583D01*
X017406Y006486D01*
X017381Y006415D01*
X017284Y006370D01*
X017213Y006396D01*
X017100Y006638D02*
X017294Y006728D01*
X017434Y006793D02*
X017524Y006600D01*
X017666Y006548D01*
X017718Y006690D01*
X017628Y006884D01*
X018082Y006582D02*
X018056Y006512D01*
X018146Y006318D01*
X018217Y006292D01*
X018314Y006337D01*
X018340Y006408D01*
X018294Y006505D01*
X018198Y006460D01*
X018249Y006602D02*
X018178Y006628D01*
X018082Y006582D01*
X018367Y006716D02*
X018696Y006516D01*
X018561Y006806D01*
X018701Y006871D02*
X018846Y006939D01*
X018917Y006913D01*
X019007Y006720D01*
X018981Y006649D01*
X018836Y006581D01*
X018701Y006871D01*
X018367Y006716D02*
X018502Y006425D01*
X019200Y007100D02*
X005200Y007100D01*
X005200Y013900D01*
X019200Y013900D01*
X019200Y011000D01*
X018700Y011000D01*
X018700Y010000D01*
X019200Y010000D01*
X019200Y007100D01*
X016794Y006961D02*
X016691Y006678D01*
X014204Y013990D02*
X013990Y013990D01*
X014097Y013990D02*
X014097Y014310D01*
X013990Y014204D01*
X013835Y014257D02*
X013835Y014043D01*
X013782Y013990D01*
X013622Y013990D01*
X013622Y014310D01*
X013782Y014310D01*
X013835Y014257D01*
X013204Y014257D02*
X013204Y014204D01*
X013150Y014150D01*
X013204Y014097D01*
X013204Y014043D01*
X013150Y013990D01*
X013043Y013990D01*
X012990Y014043D01*
X013097Y014150D02*
X013150Y014150D01*
X013204Y014257D02*
X013150Y014310D01*
X013043Y014310D01*
X012990Y014257D01*
X012835Y014257D02*
X012835Y014150D01*
X012782Y014097D01*
X012622Y014097D01*
X012728Y014097D02*
X012835Y013990D01*
X012622Y013990D02*
X012622Y014310D01*
X012782Y014310D01*
X012835Y014257D01*
X014500Y015350D02*
X014750Y015350D01*
X014500Y015850D01*
X015000Y015850D01*
X014750Y015350D01*
X015000Y015350D01*
X014747Y016790D02*
X014854Y016897D01*
X014854Y017110D01*
X014640Y017110D02*
X014640Y016897D01*
X014747Y016790D01*
X014485Y016843D02*
X014432Y016790D01*
X014325Y016790D01*
X014272Y016843D01*
X014272Y016950D02*
X014378Y017004D01*
X014432Y017004D01*
X014485Y016950D01*
X014485Y016843D01*
X014485Y017110D02*
X014272Y017110D01*
X014272Y016950D01*
X013938Y016843D02*
X013884Y016790D01*
X013724Y016790D01*
X013724Y017110D01*
X013884Y017110D01*
X013938Y017057D01*
X013938Y016843D01*
X013569Y016790D02*
X013569Y017110D01*
X013356Y017110D02*
X013569Y016790D01*
X013356Y016790D02*
X013356Y017110D01*
X013201Y017057D02*
X013148Y017110D01*
X013041Y017110D01*
X012988Y017057D01*
X012988Y016843D01*
X013041Y016790D01*
X013148Y016790D01*
X013201Y016843D01*
X013201Y016950D01*
X013094Y016950D01*
X005944Y016111D02*
X005751Y016021D01*
X005848Y016066D02*
X005983Y015776D01*
X005746Y015666D02*
X005656Y015859D01*
X005514Y015911D01*
X005462Y015769D01*
X005552Y015575D01*
X005485Y015720D02*
X005678Y015811D01*
X005367Y015607D02*
X005390Y015558D01*
X005364Y015487D01*
X005219Y015420D01*
X005083Y015710D01*
X005228Y015778D01*
X005299Y015752D01*
X005322Y015703D01*
X005296Y015632D01*
X005151Y015565D01*
X005296Y015632D02*
X005367Y015607D01*
X005031Y015799D02*
X005057Y015870D01*
X004967Y016063D01*
X004896Y016089D01*
X004751Y016021D01*
X004886Y015731D01*
X005031Y015799D01*
X004746Y015666D02*
X004611Y015956D01*
X004417Y015866D02*
X004746Y015666D01*
X004552Y015575D02*
X004417Y015866D01*
X004299Y015752D02*
X004228Y015778D01*
X004132Y015732D01*
X004106Y015662D01*
X004196Y015468D01*
X004267Y015442D01*
X004364Y015487D01*
X004390Y015558D01*
X004344Y015655D01*
X004248Y015610D01*
X004080Y015821D02*
X003944Y016111D01*
X003893Y015970D01*
X003751Y016021D01*
X003886Y015731D01*
X003723Y015714D02*
X003698Y015643D01*
X003601Y015598D01*
X003530Y015624D01*
X003440Y015817D01*
X003465Y015888D01*
X003562Y015933D01*
X003633Y015907D01*
X003678Y015811D02*
X003582Y015766D01*
X003678Y015811D02*
X003723Y015714D01*
X003344Y015655D02*
X003319Y015584D01*
X003174Y015516D01*
X003219Y015420D02*
X003083Y015710D01*
X003228Y015778D01*
X003299Y015752D01*
X003344Y015655D01*
X003147Y014610D02*
X002934Y014610D01*
X002934Y014290D01*
X003147Y014290D01*
X003040Y014450D02*
X002934Y014450D01*
X002779Y014450D02*
X002779Y014557D01*
X002725Y014610D01*
X002565Y014610D01*
X002565Y014290D01*
X002565Y014397D02*
X002725Y014397D01*
X002779Y014450D01*
X002672Y014397D02*
X002779Y014290D01*
X002426Y014290D02*
X002320Y014290D01*
X002373Y014290D02*
X002373Y014610D01*
X002320Y014610D02*
X002426Y014610D01*
X002165Y014610D02*
X002165Y014290D01*
X002058Y014397D01*
X001951Y014290D01*
X001951Y014610D01*
X002990Y013747D02*
X003096Y013640D01*
X002990Y013747D02*
X003310Y013747D01*
X003310Y013640D02*
X003310Y013854D01*
X003257Y013485D02*
X003150Y013485D01*
X003150Y013378D01*
X003043Y013272D02*
X003257Y013272D01*
X003310Y013325D01*
X003310Y013432D01*
X003257Y013485D01*
X003043Y013485D02*
X002990Y013432D01*
X002990Y013325D01*
X003043Y013272D01*
X004140Y012950D02*
X004140Y012843D01*
X004193Y012790D01*
X004193Y012635D02*
X004300Y012635D01*
X004353Y012582D01*
X004353Y012422D01*
X004353Y012528D02*
X004460Y012635D01*
X004460Y012790D02*
X004246Y013004D01*
X004193Y013004D01*
X004140Y012950D01*
X004460Y013004D02*
X004460Y012790D01*
X004193Y012635D02*
X004140Y012582D01*
X004140Y012422D01*
X004460Y012422D01*
X003310Y011854D02*
X003310Y011640D01*
X003096Y011854D01*
X003043Y011854D01*
X002990Y011800D01*
X002990Y011693D01*
X003043Y011640D01*
X003043Y011485D02*
X002990Y011432D01*
X002990Y011325D01*
X003043Y011272D01*
X003257Y011272D01*
X003310Y011325D01*
X003310Y011432D01*
X003257Y011485D01*
X003150Y011485D01*
X003150Y011378D01*
X003310Y009854D02*
X003310Y009640D01*
X003310Y009747D02*
X002990Y009747D01*
X003096Y009640D01*
X003096Y009485D02*
X003310Y009485D01*
X003150Y009485D02*
X003150Y009272D01*
X003096Y009272D02*
X002990Y009378D01*
X003096Y009485D01*
X003096Y009272D02*
X003310Y009272D01*
X003257Y008854D02*
X003310Y008800D01*
X003310Y008693D01*
X003257Y008640D01*
X003150Y008747D02*
X003150Y008800D01*
X003203Y008854D01*
X003257Y008854D01*
X003150Y008800D02*
X003096Y008854D01*
X003043Y008854D01*
X002990Y008800D01*
X002990Y008693D01*
X003043Y008640D01*
X003096Y008485D02*
X003310Y008485D01*
X003150Y008485D02*
X003150Y008272D01*
X003096Y008272D02*
X002990Y008378D01*
X003096Y008485D01*
X003096Y008272D02*
X003310Y008272D01*
X003310Y007747D02*
X002990Y007747D01*
X002990Y007640D02*
X002990Y007854D01*
X003310Y007485D02*
X003310Y007272D01*
X002990Y007272D01*
X004140Y008322D02*
X004140Y008482D01*
X004193Y008535D01*
X004300Y008535D01*
X004353Y008482D01*
X004353Y008322D01*
X004353Y008428D02*
X004460Y008535D01*
X004460Y008690D02*
X004460Y008904D01*
X004460Y008797D02*
X004140Y008797D01*
X004246Y008690D01*
X004140Y008322D02*
X004460Y008322D01*
X005746Y006774D02*
X005836Y006581D01*
X005769Y006726D02*
X005962Y006816D01*
X006390Y006667D02*
X006415Y006738D01*
X006512Y006783D01*
X006583Y006757D01*
X006701Y006871D02*
X006836Y006581D01*
X007082Y006582D02*
X007178Y006628D01*
X007249Y006602D01*
X005167Y018242D02*
X005096Y018268D01*
X005167Y018242D02*
X005264Y018287D01*
X005290Y018358D01*
X005267Y018407D01*
X005196Y018432D01*
X005148Y018410D01*
X005196Y018432D02*
X005222Y018503D01*
X005199Y018552D01*
X005128Y018578D01*
X005032Y018532D01*
X005006Y018462D01*
X004931Y018599D02*
X004957Y018670D01*
X004867Y018863D01*
X004796Y018889D01*
X004651Y018821D01*
X004786Y018531D01*
X004931Y018599D01*
X004646Y018466D02*
X004511Y018756D01*
X004317Y018666D02*
X004646Y018466D01*
X004452Y018375D02*
X004317Y018666D01*
X004199Y018552D02*
X004128Y018578D01*
X004032Y018532D01*
X004006Y018462D01*
X004096Y018268D01*
X004167Y018242D01*
X004264Y018287D01*
X004290Y018358D01*
X004244Y018455D01*
X004148Y018410D01*
X003831Y018599D02*
X003696Y018889D01*
X003619Y018676D01*
X003812Y018766D01*
X003546Y018466D02*
X003352Y018375D01*
X003449Y018420D02*
X003314Y018711D01*
X003262Y018569D01*
X003122Y018503D02*
X003212Y018310D01*
X003144Y018455D02*
X002951Y018365D01*
X002928Y018413D02*
X002980Y018555D01*
X003122Y018503D01*
X002928Y018413D02*
X003019Y018220D01*
X005317Y018666D02*
X005407Y018472D01*
X005549Y018420D01*
X005601Y018562D01*
X005511Y018756D01*
X005673Y018773D02*
X005699Y018844D01*
X005796Y018889D01*
X005867Y018863D01*
X005890Y018815D01*
X005864Y018744D01*
X005935Y018718D01*
X005957Y018670D01*
X005931Y018599D01*
X005835Y018554D01*
X005764Y018579D01*
X005815Y018721D02*
X005864Y018744D01*
D14*
X007000Y006300D02*
X007000Y004600D01*
X008000Y004600D02*
X008000Y006300D01*
X011000Y006300D02*
X011000Y004600D01*
D15*
X003300Y010500D02*
X003300Y010550D01*
X003150Y010650D02*
X003150Y010400D01*
X003000Y010300D02*
X003000Y010750D01*
X003000Y012300D02*
X003000Y012750D01*
X003150Y012650D02*
X003150Y012400D01*
X003300Y012500D02*
X003300Y012550D01*
X003250Y014150D02*
X000400Y014150D01*
X000400Y014750D02*
X003250Y014750D01*
X001100Y011000D02*
X000250Y011000D01*
X000250Y009000D01*
X001100Y009000D01*
X009700Y014000D02*
X007400Y018700D01*
X019875Y018457D02*
X019875Y014559D01*
D16*
X018319Y012874D02*
X015681Y012874D01*
X015090Y012874D02*
X014736Y012874D01*
X014322Y012481D02*
X014322Y008347D01*
X014324Y008321D01*
X014329Y008296D01*
X014337Y008272D01*
X014348Y008249D01*
X014363Y008227D01*
X014380Y008208D01*
X014399Y008191D01*
X014421Y008176D01*
X014444Y008165D01*
X014468Y008157D01*
X014493Y008152D01*
X014519Y008150D01*
X014834Y008150D01*
X015267Y008150D02*
X015326Y008150D01*
X015956Y008150D02*
X018319Y008150D01*
X018338Y008544D02*
X018312Y008546D01*
X018287Y008551D01*
X018263Y008559D01*
X018240Y008570D01*
X018218Y008585D01*
X018199Y008602D01*
X018182Y008621D01*
X018167Y008643D01*
X018156Y008666D01*
X018148Y008690D01*
X018143Y008715D01*
X018141Y008741D01*
X018141Y012284D01*
X018143Y012310D01*
X018148Y012335D01*
X018156Y012359D01*
X018167Y012383D01*
X018182Y012404D01*
X018199Y012423D01*
X018218Y012440D01*
X018240Y012455D01*
X018263Y012466D01*
X018287Y012474D01*
X018312Y012479D01*
X018338Y012481D01*
X012318Y016310D02*
X012318Y017570D01*
X006082Y017570D01*
X006082Y016310D01*
X012318Y016310D01*
X009969Y015707D02*
X006031Y015707D01*
X006031Y018266D01*
X009969Y018266D01*
X009969Y018935D01*
X006031Y018935D01*
X006031Y018266D01*
X009969Y018266D02*
X009969Y015707D01*
D17*
X017876Y010501D02*
X018009Y010501D01*
X017943Y010567D02*
X017943Y010434D01*
X017943Y009681D02*
X017943Y009548D01*
X018009Y011812D02*
X018009Y011845D01*
X018043Y011845D01*
X018043Y011812D01*
X018009Y011812D01*
D18*
X013900Y015250D02*
X013900Y015450D01*
X012900Y015450D02*
X012900Y015250D01*
M02*
