G75*
G70*
%OFA0B0*%
%FSLAX24Y24*%
%IPPOS*%
%LPD*%
%AMOC8*
5,1,8,0,0,1.08239X$1,22.5*
%
%ADD10C,0.0000*%
%ADD11C,0.0060*%
%ADD12C,0.1033*%
%ADD13R,0.1033X0.1033*%
%ADD14C,0.0860*%
%ADD15R,0.0640X0.0640*%
%ADD16OC8,0.0640*%
%ADD17C,0.1122*%
%ADD18OC8,0.0560*%
%ADD19C,0.0620*%
%ADD20C,0.0396*%
%ADD21C,0.0160*%
%ADD22C,0.0320*%
%ADD23C,0.0100*%
D10*
X001600Y004500D02*
X017900Y004500D01*
X017973Y004502D01*
X018046Y004508D01*
X018119Y004517D01*
X018191Y004531D01*
X018262Y004548D01*
X018333Y004569D01*
X018402Y004593D01*
X018469Y004621D01*
X018536Y004653D01*
X018600Y004688D01*
X018662Y004726D01*
X018723Y004767D01*
X018781Y004812D01*
X018837Y004860D01*
X018890Y004910D01*
X018940Y004963D01*
X018988Y005019D01*
X019033Y005077D01*
X019074Y005138D01*
X019112Y005200D01*
X019147Y005264D01*
X019179Y005331D01*
X019207Y005398D01*
X019231Y005467D01*
X019252Y005538D01*
X019269Y005609D01*
X019283Y005681D01*
X019292Y005754D01*
X019298Y005827D01*
X019300Y005900D01*
X019300Y018400D01*
X019301Y018445D01*
X019297Y018491D01*
X019290Y018536D01*
X019280Y018580D01*
X019266Y018623D01*
X019249Y018665D01*
X019228Y018706D01*
X019205Y018745D01*
X019178Y018782D01*
X019148Y018816D01*
X019116Y018848D01*
X019082Y018878D01*
X019045Y018905D01*
X019006Y018928D01*
X018965Y018949D01*
X018923Y018966D01*
X018880Y018980D01*
X018836Y018990D01*
X018791Y018997D01*
X018745Y019001D01*
X018700Y019000D01*
X001600Y019000D01*
X001527Y018998D01*
X001454Y018992D01*
X001381Y018983D01*
X001309Y018969D01*
X001238Y018952D01*
X001167Y018931D01*
X001098Y018907D01*
X001031Y018879D01*
X000964Y018847D01*
X000900Y018812D01*
X000838Y018774D01*
X000777Y018733D01*
X000719Y018688D01*
X000663Y018640D01*
X000610Y018590D01*
X000560Y018537D01*
X000512Y018481D01*
X000467Y018423D01*
X000426Y018362D01*
X000388Y018300D01*
X000353Y018236D01*
X000321Y018169D01*
X000293Y018102D01*
X000269Y018033D01*
X000248Y017962D01*
X000231Y017891D01*
X000217Y017819D01*
X000208Y017746D01*
X000202Y017673D01*
X000200Y017600D01*
X000200Y005900D01*
X000202Y005827D01*
X000208Y005754D01*
X000217Y005681D01*
X000231Y005609D01*
X000248Y005538D01*
X000269Y005467D01*
X000293Y005398D01*
X000321Y005331D01*
X000353Y005264D01*
X000388Y005200D01*
X000426Y005138D01*
X000467Y005077D01*
X000512Y005019D01*
X000560Y004963D01*
X000610Y004910D01*
X000663Y004860D01*
X000719Y004812D01*
X000777Y004767D01*
X000838Y004726D01*
X000900Y004688D01*
X000964Y004653D01*
X001031Y004621D01*
X001098Y004593D01*
X001167Y004569D01*
X001238Y004548D01*
X001309Y004531D01*
X001381Y004517D01*
X001454Y004508D01*
X001527Y004502D01*
X001600Y004500D01*
X001070Y017500D02*
X001072Y017550D01*
X001078Y017600D01*
X001088Y017649D01*
X001102Y017697D01*
X001119Y017744D01*
X001140Y017789D01*
X001165Y017833D01*
X001193Y017874D01*
X001225Y017913D01*
X001259Y017950D01*
X001296Y017984D01*
X001336Y018014D01*
X001378Y018041D01*
X001422Y018065D01*
X001468Y018086D01*
X001515Y018102D01*
X001563Y018115D01*
X001613Y018124D01*
X001662Y018129D01*
X001713Y018130D01*
X001763Y018127D01*
X001812Y018120D01*
X001861Y018109D01*
X001909Y018094D01*
X001955Y018076D01*
X002000Y018054D01*
X002043Y018028D01*
X002084Y017999D01*
X002123Y017967D01*
X002159Y017932D01*
X002191Y017894D01*
X002221Y017854D01*
X002248Y017811D01*
X002271Y017767D01*
X002290Y017721D01*
X002306Y017673D01*
X002318Y017624D01*
X002326Y017575D01*
X002330Y017525D01*
X002330Y017475D01*
X002326Y017425D01*
X002318Y017376D01*
X002306Y017327D01*
X002290Y017279D01*
X002271Y017233D01*
X002248Y017189D01*
X002221Y017146D01*
X002191Y017106D01*
X002159Y017068D01*
X002123Y017033D01*
X002084Y017001D01*
X002043Y016972D01*
X002000Y016946D01*
X001955Y016924D01*
X001909Y016906D01*
X001861Y016891D01*
X001812Y016880D01*
X001763Y016873D01*
X001713Y016870D01*
X001662Y016871D01*
X001613Y016876D01*
X001563Y016885D01*
X001515Y016898D01*
X001468Y016914D01*
X001422Y016935D01*
X001378Y016959D01*
X001336Y016986D01*
X001296Y017016D01*
X001259Y017050D01*
X001225Y017087D01*
X001193Y017126D01*
X001165Y017167D01*
X001140Y017211D01*
X001119Y017256D01*
X001102Y017303D01*
X001088Y017351D01*
X001078Y017400D01*
X001072Y017450D01*
X001070Y017500D01*
X017847Y017000D02*
X017849Y017042D01*
X017855Y017084D01*
X017865Y017126D01*
X017878Y017166D01*
X017896Y017205D01*
X017917Y017242D01*
X017941Y017276D01*
X017969Y017309D01*
X017999Y017339D01*
X018032Y017365D01*
X018067Y017389D01*
X018105Y017409D01*
X018144Y017425D01*
X018184Y017438D01*
X018226Y017447D01*
X018268Y017452D01*
X018311Y017453D01*
X018353Y017450D01*
X018395Y017443D01*
X018436Y017432D01*
X018476Y017417D01*
X018514Y017399D01*
X018551Y017377D01*
X018585Y017352D01*
X018617Y017324D01*
X018645Y017293D01*
X018671Y017259D01*
X018694Y017223D01*
X018713Y017186D01*
X018729Y017146D01*
X018741Y017105D01*
X018749Y017064D01*
X018753Y017021D01*
X018753Y016979D01*
X018749Y016936D01*
X018741Y016895D01*
X018729Y016854D01*
X018713Y016814D01*
X018694Y016777D01*
X018671Y016741D01*
X018645Y016707D01*
X018617Y016676D01*
X018585Y016648D01*
X018551Y016623D01*
X018514Y016601D01*
X018476Y016583D01*
X018436Y016568D01*
X018395Y016557D01*
X018353Y016550D01*
X018311Y016547D01*
X018268Y016548D01*
X018226Y016553D01*
X018184Y016562D01*
X018144Y016575D01*
X018105Y016591D01*
X018067Y016611D01*
X018032Y016635D01*
X017999Y016661D01*
X017969Y016691D01*
X017941Y016724D01*
X017917Y016758D01*
X017896Y016795D01*
X017878Y016834D01*
X017865Y016874D01*
X017855Y016916D01*
X017849Y016958D01*
X017847Y017000D01*
D11*
X013812Y018330D02*
X013585Y018557D01*
X013585Y018614D01*
X013641Y018670D01*
X013755Y018670D01*
X013812Y018614D01*
X013812Y018330D02*
X013585Y018330D01*
X013443Y018387D02*
X013216Y018614D01*
X013216Y018387D01*
X013273Y018330D01*
X013387Y018330D01*
X013443Y018387D01*
X013443Y018614D01*
X013387Y018670D01*
X013273Y018670D01*
X013216Y018614D01*
X013075Y018557D02*
X012962Y018670D01*
X012962Y018330D01*
X013075Y018330D02*
X012848Y018330D01*
X012707Y018500D02*
X012480Y018500D01*
X012338Y018500D02*
X012111Y018500D01*
X011970Y018387D02*
X011913Y018330D01*
X011800Y018330D01*
X011743Y018387D01*
X011743Y018614D01*
X011970Y018387D01*
X011970Y018614D01*
X011913Y018670D01*
X011800Y018670D01*
X011743Y018614D01*
X011602Y018614D02*
X011602Y018557D01*
X011545Y018500D01*
X011375Y018500D01*
X011375Y018387D02*
X011375Y018614D01*
X011432Y018670D01*
X011545Y018670D01*
X011602Y018614D01*
X011602Y018387D02*
X011545Y018330D01*
X011432Y018330D01*
X011375Y018387D01*
X011233Y018500D02*
X011007Y018500D01*
X010865Y018614D02*
X010808Y018670D01*
X010695Y018670D01*
X010638Y018614D01*
X010638Y018557D01*
X010865Y018330D01*
X010638Y018330D01*
X010497Y018387D02*
X010440Y018330D01*
X010327Y018330D01*
X010270Y018387D01*
X010270Y018443D01*
X010327Y018500D01*
X010497Y018500D01*
X010497Y018387D01*
X010497Y018500D02*
X010383Y018614D01*
X010270Y018670D01*
X012536Y018670D02*
X012536Y018330D01*
X012707Y018500D02*
X012536Y018670D01*
D12*
X011540Y015050D03*
X009980Y015050D03*
X008420Y015050D03*
D13*
X006860Y015050D03*
D14*
X007016Y017400D03*
X008984Y017400D03*
D15*
X005500Y016700D03*
X003500Y017700D03*
X001350Y013500D03*
X006500Y005700D03*
X007500Y005700D03*
X010500Y005700D03*
X011500Y005700D03*
X014500Y017700D03*
D16*
X013500Y017700D03*
X005500Y017700D03*
X004500Y017700D03*
X004500Y016700D03*
X003500Y016700D03*
X002350Y013500D03*
X002350Y012500D03*
X002350Y011500D03*
X002350Y010500D03*
X002350Y009500D03*
X002350Y008500D03*
X001350Y008500D03*
X001350Y009500D03*
X001350Y010500D03*
X001350Y011500D03*
X001350Y012500D03*
X001350Y007500D03*
X001350Y006500D03*
X002350Y006500D03*
X002350Y007500D03*
X003500Y005700D03*
X004500Y005700D03*
X005500Y005700D03*
X008500Y005700D03*
X009500Y005700D03*
X012500Y005700D03*
X013500Y005700D03*
X014500Y005700D03*
X015500Y005700D03*
X016500Y005700D03*
X017500Y005700D03*
X018500Y005700D03*
D17*
X018694Y014559D03*
X015820Y014953D03*
X015820Y017000D03*
X015820Y018339D03*
X018694Y018457D03*
D18*
X013900Y015850D03*
X012900Y015850D03*
X012900Y014850D03*
X013900Y014850D03*
X004300Y014200D03*
X004300Y011200D03*
X004300Y010200D03*
X004300Y007200D03*
D19*
X005700Y007500D03*
X006700Y007500D03*
X007700Y007500D03*
X008700Y007500D03*
X009700Y007500D03*
X010700Y007500D03*
X011700Y007500D03*
X012700Y007500D03*
X013700Y007500D03*
X014700Y007500D03*
X015700Y007500D03*
X016700Y007500D03*
X017700Y007500D03*
X018700Y007500D03*
X012700Y009500D03*
X012700Y010500D03*
X011700Y010500D03*
X011700Y009500D03*
X010700Y009500D03*
X010700Y010500D03*
X009700Y010500D03*
X008700Y010500D03*
X008700Y009500D03*
X009700Y009500D03*
X007700Y009500D03*
X007700Y010500D03*
X006700Y010500D03*
X006700Y009500D03*
X005700Y009500D03*
X005700Y008500D03*
X005700Y010500D03*
X005700Y011500D03*
X005700Y012500D03*
X005700Y013500D03*
X006700Y013500D03*
X007700Y013500D03*
X008700Y013500D03*
X009700Y013500D03*
X010700Y013500D03*
X011700Y013500D03*
X012700Y013500D03*
X013700Y013500D03*
X014700Y013500D03*
X015700Y013500D03*
X016700Y013500D03*
X017700Y013500D03*
X018700Y013500D03*
D20*
X018100Y012500D03*
X016600Y014200D03*
X016800Y014900D03*
X015200Y013150D03*
X012200Y013050D03*
X014400Y009400D03*
X015650Y008550D03*
X017650Y009000D03*
X008450Y006950D03*
X004300Y015100D03*
D21*
X004300Y014200D01*
X004300Y012263D01*
X004579Y011984D01*
X005047Y011498D01*
X005700Y011500D01*
X007700Y011500D01*
X008200Y011000D01*
X008200Y007200D01*
X008450Y006950D01*
X008500Y006500D01*
X008500Y005700D01*
X009500Y005700D02*
X009500Y005000D01*
X006800Y005000D01*
X005700Y010500D02*
X005200Y010500D01*
X004300Y010700D01*
X003250Y010500D01*
X002350Y010500D01*
X005700Y010500D02*
X005800Y010600D01*
X005900Y010600D01*
X011700Y016500D02*
X009700Y018600D01*
X006600Y018600D01*
X005500Y017700D01*
X004600Y017800D02*
X004500Y017700D01*
X004500Y016700D01*
X011700Y016500D02*
X012700Y016500D01*
X016200Y013900D02*
X016200Y013300D01*
X016400Y013100D01*
X016400Y012800D01*
X016200Y012600D01*
X015700Y012000D01*
X015700Y009400D01*
X017224Y007876D01*
X017174Y006118D01*
X017500Y005792D01*
X017500Y005700D01*
X018500Y005700D02*
X018500Y006700D01*
X018200Y007000D01*
X018200Y007900D01*
X018400Y008100D01*
X018400Y008850D01*
X018150Y009100D01*
X017750Y009600D01*
X017750Y011600D01*
X018100Y012050D01*
X018100Y012500D01*
X017500Y012900D02*
X018700Y012900D01*
X019000Y012500D01*
X019000Y007800D01*
X018700Y007500D01*
X017500Y012900D02*
X017200Y013200D01*
X017200Y014500D01*
X016800Y014900D01*
X016600Y014200D02*
X016200Y013900D01*
X017900Y014100D02*
X018700Y013500D01*
X017900Y014100D02*
X017900Y015500D01*
D22*
X016000Y012900D03*
X014650Y012200D03*
X013310Y011690D03*
X013500Y010900D03*
X012500Y011400D03*
X010800Y011800D03*
X010000Y011400D03*
X009100Y011100D03*
X011000Y008650D03*
X010200Y008200D03*
X009200Y008300D03*
X009950Y006150D03*
X012950Y008500D03*
X013550Y009200D03*
X013950Y006100D03*
X017750Y009600D03*
X017850Y008450D03*
X017600Y012200D03*
X012700Y016500D03*
X003700Y011100D03*
X003200Y010100D03*
X003700Y009800D03*
X003500Y008600D03*
X003600Y007100D03*
X003100Y007000D03*
X002200Y005300D03*
D23*
X002200Y005400D01*
X003600Y006800D01*
X003600Y007100D01*
X003831Y006864D02*
X004000Y006864D01*
X003880Y006913D02*
X003900Y006963D01*
X004114Y006750D01*
X004486Y006750D01*
X004613Y006876D01*
X005280Y006209D01*
X005280Y006173D01*
X005010Y005903D01*
X005010Y005497D01*
X005297Y005210D01*
X005703Y005210D01*
X005990Y005497D01*
X005990Y005899D01*
X006010Y005879D01*
X006010Y005310D01*
X006110Y005210D01*
X006890Y005210D01*
X006990Y005310D01*
X006990Y006090D01*
X006890Y006190D01*
X006420Y006190D01*
X006420Y007101D01*
X006428Y007093D01*
X006605Y007020D01*
X006795Y007020D01*
X006972Y007093D01*
X007107Y007228D01*
X007180Y007405D01*
X007180Y007595D01*
X007107Y007772D01*
X006972Y007907D01*
X006795Y007980D01*
X006605Y007980D01*
X006428Y007907D01*
X006420Y007899D01*
X006420Y009101D01*
X006428Y009093D01*
X006605Y009020D01*
X006795Y009020D01*
X006972Y009093D01*
X007107Y009228D01*
X007180Y009405D01*
X007180Y009595D01*
X007107Y009772D01*
X006972Y009907D01*
X006795Y009980D01*
X006605Y009980D01*
X006428Y009907D01*
X006420Y009899D01*
X006420Y010101D01*
X006428Y010093D01*
X006605Y010020D01*
X006795Y010020D01*
X006972Y010093D01*
X007107Y010228D01*
X007180Y010405D01*
X007180Y010595D01*
X007107Y010772D01*
X006972Y010907D01*
X006795Y010980D01*
X006605Y010980D01*
X006428Y010907D01*
X006366Y010845D01*
X006291Y010920D01*
X006045Y011166D01*
X006107Y011228D01*
X006116Y011250D01*
X007596Y011250D01*
X007917Y010930D01*
X007795Y010980D01*
X007605Y010980D01*
X007428Y010907D01*
X007293Y010772D01*
X007220Y010595D01*
X007220Y010405D01*
X007293Y010228D01*
X007428Y010093D01*
X007605Y010020D01*
X007795Y010020D01*
X007950Y010084D01*
X007950Y009916D01*
X007795Y009980D01*
X007605Y009980D01*
X007428Y009907D01*
X007293Y009772D01*
X007220Y009595D01*
X007220Y009405D01*
X007293Y009228D01*
X007428Y009093D01*
X007605Y009020D01*
X007795Y009020D01*
X007950Y009084D01*
X007950Y007916D01*
X007795Y007980D01*
X007605Y007980D01*
X007428Y007907D01*
X007293Y007772D01*
X007220Y007595D01*
X007220Y007405D01*
X007280Y007260D01*
X007280Y006190D01*
X007110Y006190D01*
X007010Y006090D01*
X007010Y005310D01*
X007110Y005210D01*
X007890Y005210D01*
X007990Y005310D01*
X007990Y006090D01*
X007890Y006190D01*
X007720Y006190D01*
X007720Y007020D01*
X007795Y007020D01*
X007972Y007093D01*
X007973Y007094D01*
X007988Y007058D01*
X008082Y006965D01*
X008082Y006877D01*
X008138Y006741D01*
X008232Y006647D01*
X008250Y006486D01*
X008250Y006143D01*
X008010Y005903D01*
X008010Y005497D01*
X008297Y005210D01*
X008703Y005210D01*
X008990Y005497D01*
X008990Y005903D01*
X008750Y006143D01*
X008750Y006465D01*
X008754Y006478D01*
X008750Y006514D01*
X008750Y006550D01*
X008745Y006563D01*
X008728Y006708D01*
X008762Y006741D01*
X008818Y006877D01*
X008818Y007023D01*
X008816Y007028D01*
X008972Y007093D01*
X009107Y007228D01*
X009180Y007405D01*
X009180Y007595D01*
X009107Y007772D01*
X008972Y007907D01*
X008795Y007980D01*
X008605Y007980D01*
X008450Y007916D01*
X008450Y009084D01*
X008605Y009020D01*
X008795Y009020D01*
X008972Y009093D01*
X008980Y009101D01*
X008980Y008547D01*
X008920Y008487D01*
X008870Y008366D01*
X008870Y008234D01*
X008920Y008113D01*
X009013Y008020D01*
X009134Y007970D01*
X009266Y007970D01*
X009387Y008020D01*
X009480Y008113D01*
X009530Y008234D01*
X009530Y008366D01*
X009480Y008487D01*
X009420Y008547D01*
X009420Y009101D01*
X009428Y009093D01*
X009605Y009020D01*
X009727Y009020D01*
X009727Y009020D01*
X009709Y009020D01*
X009655Y008967D01*
X009595Y008921D01*
X009593Y008904D01*
X009580Y008891D01*
X009580Y008816D01*
X009569Y008741D01*
X009580Y008727D01*
X009580Y008123D01*
X009569Y008109D01*
X009580Y008034D01*
X009580Y007970D01*
X009428Y007907D01*
X009293Y007772D01*
X009220Y007595D01*
X009220Y007405D01*
X009293Y007228D01*
X009428Y007093D01*
X009605Y007020D01*
X009795Y007020D01*
X009972Y007093D01*
X009980Y007101D01*
X009980Y006491D01*
X009969Y006480D01*
X009884Y006480D01*
X009763Y006430D01*
X009670Y006337D01*
X009620Y006216D01*
X009620Y006170D01*
X009550Y006170D01*
X009550Y005750D01*
X009970Y005750D01*
X009970Y005820D01*
X010010Y005820D01*
X010010Y005310D01*
X010110Y005210D01*
X010890Y005210D01*
X010990Y005310D01*
X010990Y006090D01*
X010890Y006190D01*
X010301Y006190D01*
X010420Y006309D01*
X010420Y007101D01*
X010428Y007093D01*
X010605Y007020D01*
X010795Y007020D01*
X010972Y007093D01*
X011107Y007228D01*
X011180Y007405D01*
X011180Y007595D01*
X011107Y007772D01*
X010972Y007907D01*
X010795Y007980D01*
X010605Y007980D01*
X010428Y007907D01*
X010398Y007877D01*
X010356Y007908D01*
X010387Y007920D01*
X010480Y008013D01*
X010507Y008080D01*
X012509Y008080D01*
X012580Y008009D01*
X012609Y007980D01*
X012605Y007980D01*
X012428Y007907D01*
X012293Y007772D01*
X012220Y007595D01*
X012220Y007405D01*
X012293Y007228D01*
X012428Y007093D01*
X012605Y007020D01*
X012795Y007020D01*
X012972Y007093D01*
X013107Y007228D01*
X013180Y007405D01*
X013180Y007595D01*
X013107Y007772D01*
X012999Y007880D01*
X013237Y007880D01*
X013261Y007865D01*
X013325Y007880D01*
X013391Y007880D01*
X013411Y007900D01*
X013424Y007903D01*
X013293Y007772D01*
X013220Y007595D01*
X013220Y007405D01*
X013293Y007228D01*
X013428Y007093D01*
X013605Y007020D01*
X013731Y007020D01*
X012834Y006059D01*
X012703Y006190D01*
X012297Y006190D01*
X012010Y005903D01*
X012010Y005497D01*
X012297Y005210D01*
X012703Y005210D01*
X012990Y005497D01*
X012990Y005579D01*
X013010Y005599D01*
X013010Y005497D01*
X013297Y005210D01*
X013703Y005210D01*
X013990Y005497D01*
X013990Y005770D01*
X014010Y005770D01*
X014010Y005497D01*
X014297Y005210D01*
X014703Y005210D01*
X014990Y005497D01*
X014990Y005903D01*
X014703Y006190D01*
X014297Y006190D01*
X014278Y006171D01*
X014230Y006287D01*
X014170Y006347D01*
X014170Y006559D01*
X014391Y006780D01*
X015191Y006780D01*
X015291Y006880D01*
X015291Y006880D01*
X015420Y007009D01*
X015420Y007101D01*
X015428Y007093D01*
X015605Y007020D01*
X015795Y007020D01*
X015972Y007093D01*
X016107Y007228D01*
X016180Y007405D01*
X016180Y007595D01*
X016107Y007772D01*
X015972Y007907D01*
X015860Y007953D01*
X016078Y008130D01*
X016091Y008130D01*
X016148Y008186D01*
X016209Y008237D01*
X016211Y008250D01*
X016220Y008259D01*
X016220Y008339D01*
X016228Y008418D01*
X016220Y008428D01*
X016220Y008526D01*
X016766Y007980D01*
X016605Y007980D01*
X016428Y007907D01*
X016293Y007772D01*
X016220Y007595D01*
X016220Y007405D01*
X016293Y007228D01*
X016428Y007093D01*
X016605Y007020D01*
X016795Y007020D01*
X016951Y007085D01*
X016925Y006171D01*
X016924Y006168D01*
X016924Y006122D01*
X016923Y006075D01*
X016924Y006072D01*
X016924Y006068D01*
X016942Y006026D01*
X016958Y005982D01*
X016961Y005980D01*
X016962Y005976D01*
X016995Y005944D01*
X017022Y005915D01*
X017010Y005903D01*
X017010Y005497D01*
X017297Y005210D01*
X017703Y005210D01*
X017990Y005497D01*
X017990Y005903D01*
X017703Y006190D01*
X017456Y006190D01*
X017427Y006219D01*
X017452Y007083D01*
X017605Y007020D01*
X017795Y007020D01*
X017972Y007093D01*
X018107Y007228D01*
X018180Y007405D01*
X018180Y007595D01*
X018107Y007772D01*
X017972Y007907D01*
X017795Y007980D01*
X017605Y007980D01*
X017474Y007926D01*
X017456Y007968D01*
X017440Y008012D01*
X017437Y008014D01*
X017436Y008018D01*
X017403Y008050D01*
X017372Y008084D01*
X017368Y008085D01*
X015950Y009504D01*
X015950Y011909D01*
X016385Y012431D01*
X016542Y012588D01*
X016612Y012658D01*
X016650Y012750D01*
X016650Y013020D01*
X016795Y013020D01*
X016972Y013093D01*
X016973Y013094D01*
X016988Y013058D01*
X017288Y012758D01*
X017358Y012688D01*
X017450Y012650D01*
X018575Y012650D01*
X018750Y012417D01*
X018750Y007980D01*
X018605Y007980D01*
X018428Y007907D01*
X018293Y007772D01*
X018220Y007595D01*
X018220Y007405D01*
X018293Y007228D01*
X018428Y007093D01*
X018605Y007020D01*
X018795Y007020D01*
X018972Y007093D01*
X019050Y007171D01*
X019050Y005900D01*
X019040Y005750D01*
X018962Y005460D01*
X018812Y005200D01*
X018600Y004988D01*
X018340Y004838D01*
X018050Y004760D01*
X017900Y004750D01*
X001600Y004750D01*
X001450Y004760D01*
X001160Y004838D01*
X000900Y004988D01*
X000688Y005200D01*
X000538Y005460D01*
X000460Y005750D01*
X000450Y005900D01*
X000450Y017600D01*
X000460Y017750D01*
X000538Y018040D01*
X000688Y018300D01*
X000900Y018512D01*
X001160Y018662D01*
X001450Y018740D01*
X001600Y018750D01*
X006389Y018750D01*
X005703Y018189D01*
X005703Y018190D01*
X005297Y018190D01*
X005010Y017903D01*
X005010Y017497D01*
X005297Y017210D01*
X005703Y017210D01*
X005990Y017497D01*
X005990Y017778D01*
X006689Y018350D01*
X009593Y018350D01*
X011487Y016361D01*
X011488Y016358D01*
X011521Y016325D01*
X011553Y016292D01*
X011556Y016290D01*
X011558Y016288D01*
X011602Y016270D01*
X011644Y016251D01*
X011647Y016251D01*
X011650Y016250D01*
X011697Y016250D01*
X011744Y016249D01*
X011747Y016250D01*
X012483Y016250D01*
X012513Y016220D01*
X012598Y016185D01*
X012450Y016036D01*
X012450Y015664D01*
X012714Y015400D01*
X013086Y015400D01*
X013350Y015664D01*
X013350Y016036D01*
X013086Y016300D01*
X012967Y016300D01*
X012980Y016313D01*
X013030Y016434D01*
X013030Y016566D01*
X012980Y016687D01*
X012887Y016780D01*
X012766Y016830D01*
X012634Y016830D01*
X012513Y016780D01*
X012483Y016750D01*
X011807Y016750D01*
X010493Y018130D01*
X010523Y018130D01*
X010539Y018146D01*
X010555Y018130D01*
X010948Y018130D01*
X011065Y018247D01*
X011065Y018300D01*
X011179Y018300D01*
X011292Y018187D01*
X011349Y018130D01*
X011628Y018130D01*
X011672Y018175D01*
X011717Y018130D01*
X011996Y018130D01*
X012053Y018187D01*
X012166Y018300D01*
X012336Y018300D01*
X012336Y018247D01*
X012454Y018130D01*
X012619Y018130D01*
X012692Y018203D01*
X012765Y018130D01*
X013158Y018130D01*
X013174Y018146D01*
X013190Y018130D01*
X013265Y018130D01*
X013030Y017895D01*
X013030Y017750D01*
X013450Y017750D01*
X013450Y017650D01*
X013550Y017650D01*
X013550Y017750D01*
X013970Y017750D01*
X013970Y017895D01*
X013735Y018130D01*
X013894Y018130D01*
X014012Y018247D01*
X014012Y018413D01*
X013953Y018472D01*
X014012Y018531D01*
X014012Y018696D01*
X013958Y018750D01*
X015199Y018750D01*
X015089Y018484D01*
X015089Y018193D01*
X015200Y017924D01*
X015406Y017719D01*
X015551Y017658D01*
X015505Y017639D01*
X015424Y017592D01*
X015350Y017536D01*
X015284Y017470D01*
X015227Y017396D01*
X015181Y017315D01*
X015145Y017229D01*
X015121Y017139D01*
X015109Y017050D01*
X015770Y017050D01*
X015770Y016950D01*
X015870Y016950D01*
X015870Y017050D01*
X016530Y017050D01*
X016519Y017139D01*
X016494Y017229D01*
X016459Y017315D01*
X016412Y017396D01*
X016355Y017470D01*
X016290Y017536D01*
X016216Y017592D01*
X016135Y017639D01*
X016088Y017658D01*
X016234Y017719D01*
X016439Y017924D01*
X016551Y018193D01*
X016551Y018484D01*
X016441Y018750D01*
X018024Y018750D01*
X017963Y018602D01*
X017963Y018311D01*
X018074Y018043D01*
X018280Y017837D01*
X018548Y017726D01*
X018839Y017726D01*
X019050Y017813D01*
X019050Y015203D01*
X018839Y015290D01*
X018548Y015290D01*
X018280Y015179D01*
X018074Y014973D01*
X017963Y014704D01*
X017963Y014414D01*
X018074Y014145D01*
X018280Y013939D01*
X018434Y013875D01*
X018400Y013851D01*
X018349Y013800D01*
X018307Y013741D01*
X018274Y013677D01*
X018251Y013608D01*
X018241Y013545D01*
X018655Y013545D01*
X018655Y013828D01*
X018745Y013828D01*
X018745Y013545D01*
X019050Y013545D01*
X019050Y013455D01*
X018745Y013455D01*
X018745Y013545D01*
X018655Y013545D01*
X018655Y013455D01*
X018241Y013455D01*
X018251Y013392D01*
X018274Y013323D01*
X018307Y013259D01*
X018349Y013200D01*
X018399Y013150D01*
X018029Y013150D01*
X018107Y013228D01*
X018180Y013405D01*
X018180Y013595D01*
X018107Y013772D01*
X017972Y013907D01*
X017795Y013980D01*
X017605Y013980D01*
X017450Y013916D01*
X017450Y014550D01*
X017412Y014642D01*
X017342Y014712D01*
X017168Y014885D01*
X017168Y014973D01*
X017112Y015109D01*
X017009Y015212D01*
X016873Y015268D01*
X016727Y015268D01*
X016591Y015212D01*
X016509Y015129D01*
X016494Y015182D01*
X016459Y015268D01*
X016412Y015349D01*
X016355Y015423D01*
X016290Y015488D01*
X016216Y015545D01*
X016135Y015592D01*
X016049Y015627D01*
X015959Y015652D01*
X015870Y015663D01*
X015870Y015003D01*
X016444Y015003D01*
X016432Y014973D01*
X016432Y014903D01*
X015870Y014903D01*
X015870Y015003D01*
X015770Y015003D01*
X015770Y015663D01*
X015681Y015652D01*
X015591Y015627D01*
X015505Y015592D01*
X015424Y015545D01*
X015350Y015488D01*
X015284Y015423D01*
X015227Y015349D01*
X015181Y015268D01*
X015145Y015182D01*
X015121Y015092D01*
X015109Y015003D01*
X015770Y015003D01*
X015770Y014903D01*
X015870Y014903D01*
X015870Y014242D01*
X015959Y014254D01*
X016049Y014278D01*
X016135Y014314D01*
X016216Y014360D01*
X016290Y014417D01*
X016355Y014483D01*
X016412Y014557D01*
X016459Y014638D01*
X016484Y014700D01*
X016488Y014691D01*
X016591Y014588D01*
X016639Y014568D01*
X016527Y014568D01*
X016391Y014512D01*
X016288Y014409D01*
X016232Y014273D01*
X016232Y014236D01*
X016075Y014119D01*
X016058Y014112D01*
X016036Y014089D01*
X016010Y014070D01*
X016001Y014054D01*
X015988Y014042D01*
X015976Y014012D01*
X015960Y013985D01*
X015957Y013967D01*
X015950Y013950D01*
X015950Y013918D01*
X015950Y013916D01*
X015795Y013980D01*
X015605Y013980D01*
X015428Y013907D01*
X015293Y013772D01*
X015220Y013595D01*
X015220Y013405D01*
X015293Y013228D01*
X015428Y013093D01*
X015605Y013020D01*
X015693Y013020D01*
X015670Y012966D01*
X015670Y012867D01*
X015241Y012402D01*
X015180Y012341D01*
X015180Y012336D01*
X015177Y012332D01*
X015180Y012246D01*
X015180Y009209D01*
X015309Y009080D01*
X015780Y008609D01*
X015780Y008455D01*
X015122Y007920D01*
X015109Y007920D01*
X015052Y007864D01*
X015032Y007847D01*
X014972Y007907D01*
X014795Y007980D01*
X014605Y007980D01*
X014428Y007907D01*
X014420Y007899D01*
X014420Y008409D01*
X015120Y009109D01*
X015120Y011923D01*
X015129Y011934D01*
X015120Y012012D01*
X015120Y012091D01*
X015110Y012101D01*
X015109Y012115D01*
X015047Y012164D01*
X014991Y012220D01*
X014980Y012220D01*
X014980Y012266D01*
X014930Y012387D01*
X014837Y012480D01*
X014716Y012530D01*
X014584Y012530D01*
X014463Y012480D01*
X014370Y012387D01*
X014320Y012266D01*
X014320Y012134D01*
X014370Y012013D01*
X014463Y011920D01*
X014584Y011870D01*
X014680Y011870D01*
X014680Y009291D01*
X014109Y008720D01*
X013980Y008591D01*
X013980Y007899D01*
X013972Y007907D01*
X013795Y007980D01*
X013605Y007980D01*
X013442Y007913D01*
X013473Y007962D01*
X013520Y008009D01*
X013520Y008037D01*
X013723Y008362D01*
X013770Y008409D01*
X013770Y008437D01*
X013785Y008461D01*
X013770Y008525D01*
X013770Y008953D01*
X013830Y009013D01*
X013880Y009134D01*
X013880Y009266D01*
X013830Y009387D01*
X013737Y009480D01*
X013616Y009530D01*
X013484Y009530D01*
X013363Y009480D01*
X013270Y009387D01*
X013220Y009266D01*
X013220Y009134D01*
X013270Y009013D01*
X013330Y008953D01*
X013330Y008563D01*
X013280Y008483D01*
X013280Y008566D01*
X013230Y008687D01*
X013137Y008780D01*
X013016Y008830D01*
X012884Y008830D01*
X012763Y008780D01*
X012703Y008720D01*
X011328Y008720D01*
X011280Y008837D01*
X011187Y008930D01*
X011066Y008980D01*
X010934Y008980D01*
X010813Y008930D01*
X010720Y008837D01*
X010670Y008716D01*
X010670Y008584D01*
X010697Y008520D01*
X010436Y008520D01*
X010383Y008538D01*
X010348Y008520D01*
X010309Y008520D01*
X010303Y008514D01*
X010266Y008530D01*
X010134Y008530D01*
X010020Y008483D01*
X010020Y008690D01*
X010273Y008880D01*
X010291Y008880D01*
X010345Y008933D01*
X010405Y008979D01*
X010407Y008996D01*
X010420Y009009D01*
X010420Y009084D01*
X010422Y009099D01*
X010428Y009093D01*
X010605Y009020D01*
X010795Y009020D01*
X010972Y009093D01*
X011107Y009228D01*
X011180Y009405D01*
X011180Y009595D01*
X011107Y009772D01*
X011045Y009834D01*
X011291Y010080D01*
X011380Y010169D01*
X011400Y010149D01*
X011459Y010107D01*
X011523Y010074D01*
X011592Y010051D01*
X011655Y010041D01*
X011655Y010455D01*
X011745Y010455D01*
X011745Y010545D01*
X011655Y010545D01*
X011655Y010959D01*
X011592Y010949D01*
X011523Y010926D01*
X011459Y010893D01*
X011420Y010865D01*
X011420Y011009D01*
X012291Y011880D01*
X012420Y012009D01*
X012420Y012749D01*
X012512Y012841D01*
X012568Y012977D01*
X012568Y013035D01*
X012605Y013020D01*
X012795Y013020D01*
X012972Y013093D01*
X013107Y013228D01*
X013180Y013405D01*
X013180Y013595D01*
X013107Y013772D01*
X012972Y013907D01*
X012795Y013980D01*
X012605Y013980D01*
X012428Y013907D01*
X012293Y013772D01*
X012220Y013595D01*
X012220Y013418D01*
X012180Y013418D01*
X012180Y013595D01*
X012107Y013772D01*
X011972Y013907D01*
X011795Y013980D01*
X011605Y013980D01*
X011428Y013907D01*
X011293Y013772D01*
X011220Y013595D01*
X011220Y013405D01*
X011293Y013228D01*
X011428Y013093D01*
X011605Y013020D01*
X011795Y013020D01*
X011832Y013035D01*
X011832Y012977D01*
X011888Y012841D01*
X011980Y012749D01*
X011980Y012191D01*
X010980Y011191D01*
X010980Y010899D01*
X010972Y010907D01*
X010795Y010980D01*
X010605Y010980D01*
X010428Y010907D01*
X010293Y010772D01*
X010220Y010595D01*
X010220Y010405D01*
X010293Y010228D01*
X010305Y010216D01*
X010180Y010091D01*
X010109Y010020D01*
X009984Y009895D01*
X009972Y009907D01*
X009795Y009980D01*
X009605Y009980D01*
X009428Y009907D01*
X009420Y009899D01*
X009420Y010101D01*
X009428Y010093D01*
X009605Y010020D01*
X009795Y010020D01*
X009972Y010093D01*
X010107Y010228D01*
X010180Y010405D01*
X010180Y010595D01*
X010107Y010772D01*
X009972Y010907D01*
X009795Y010980D01*
X009791Y010980D01*
X009897Y011086D01*
X009934Y011070D01*
X010066Y011070D01*
X010187Y011120D01*
X010280Y011213D01*
X010330Y011334D01*
X010330Y011466D01*
X010280Y011587D01*
X010187Y011680D01*
X010066Y011730D01*
X009934Y011730D01*
X009813Y011680D01*
X009720Y011587D01*
X009681Y011492D01*
X009680Y011491D01*
X009408Y011219D01*
X009380Y011287D01*
X009287Y011380D01*
X009166Y011430D01*
X009034Y011430D01*
X009029Y011428D01*
X008920Y011510D01*
X008920Y013072D01*
X008972Y013093D01*
X009107Y013228D01*
X009180Y013405D01*
X009180Y013595D01*
X009107Y013772D01*
X008972Y013907D01*
X008795Y013980D01*
X008605Y013980D01*
X008428Y013907D01*
X008293Y013772D01*
X008220Y013595D01*
X008220Y013405D01*
X008293Y013228D01*
X008428Y013093D01*
X008480Y013072D01*
X008480Y011473D01*
X008469Y011459D01*
X008480Y011384D01*
X008480Y011309D01*
X008493Y011296D01*
X008495Y011279D01*
X008555Y011233D01*
X008609Y011180D01*
X008627Y011180D01*
X008770Y011073D01*
X008770Y011034D01*
X008793Y010980D01*
X008605Y010980D01*
X008450Y010916D01*
X008450Y011050D01*
X008412Y011142D01*
X007912Y011642D01*
X007842Y011712D01*
X007750Y011750D01*
X006116Y011750D01*
X006107Y011772D01*
X005972Y011907D01*
X005795Y011980D01*
X005605Y011980D01*
X005428Y011907D01*
X005293Y011772D01*
X005284Y011749D01*
X005153Y011749D01*
X004792Y012123D01*
X004791Y012125D01*
X004758Y012159D01*
X004725Y012193D01*
X004723Y012194D01*
X004550Y012367D01*
X004550Y013814D01*
X004750Y014014D01*
X004750Y014386D01*
X004550Y014586D01*
X004550Y014829D01*
X004612Y014891D01*
X004668Y015027D01*
X004668Y015173D01*
X004612Y015309D01*
X004509Y015412D01*
X004373Y015468D01*
X004227Y015468D01*
X004091Y015412D01*
X003988Y015309D01*
X003932Y015173D01*
X003932Y015027D01*
X003988Y014891D01*
X004050Y014829D01*
X004050Y014586D01*
X003850Y014386D01*
X003850Y014014D01*
X004050Y013814D01*
X004050Y012213D01*
X004088Y012121D01*
X004401Y011809D01*
X004835Y011359D01*
X004836Y011356D01*
X004869Y011323D01*
X004902Y011289D01*
X004904Y011288D01*
X004906Y011286D01*
X004950Y011268D01*
X004993Y011249D01*
X004996Y011249D01*
X004998Y011248D01*
X005045Y011248D01*
X005092Y011247D01*
X005095Y011248D01*
X005284Y011249D01*
X005293Y011228D01*
X005301Y011220D01*
X004750Y011220D01*
X004750Y011386D01*
X004486Y011650D01*
X004114Y011650D01*
X003920Y011456D01*
X003920Y013791D01*
X003791Y013920D01*
X003220Y014491D01*
X003220Y016287D01*
X003297Y016210D01*
X003703Y016210D01*
X003990Y016497D01*
X003990Y016903D01*
X003703Y017190D01*
X003601Y017190D01*
X003621Y017210D01*
X003890Y017210D01*
X003990Y017310D01*
X003990Y018090D01*
X003890Y018190D01*
X003110Y018190D01*
X003010Y018090D01*
X003010Y017310D01*
X003054Y017265D01*
X002909Y017120D01*
X002780Y016991D01*
X002780Y014309D01*
X003480Y013609D01*
X003480Y011347D01*
X003420Y011287D01*
X003370Y011166D01*
X003370Y011034D01*
X003420Y010913D01*
X003513Y010820D01*
X003634Y010770D01*
X003766Y010770D01*
X003887Y010820D01*
X003965Y010898D01*
X004114Y010750D01*
X004486Y010750D01*
X004516Y010780D01*
X005335Y010780D01*
X005307Y010741D01*
X005274Y010677D01*
X005251Y010608D01*
X005241Y010545D01*
X005655Y010545D01*
X005655Y010780D01*
X005745Y010780D01*
X005745Y010545D01*
X005655Y010545D01*
X005655Y010455D01*
X005745Y010455D01*
X005980Y010455D01*
X005980Y010545D01*
X005745Y010545D01*
X005745Y010455D01*
X005745Y010041D01*
X005808Y010051D01*
X005877Y010074D01*
X005941Y010107D01*
X005980Y010135D01*
X005980Y009899D01*
X005972Y009907D01*
X005795Y009980D01*
X005605Y009980D01*
X005428Y009907D01*
X005293Y009772D01*
X005220Y009595D01*
X005220Y009405D01*
X005293Y009228D01*
X005428Y009093D01*
X005605Y009020D01*
X005795Y009020D01*
X005972Y009093D01*
X005980Y009101D01*
X005980Y008899D01*
X005972Y008907D01*
X005795Y008980D01*
X005605Y008980D01*
X005428Y008907D01*
X005293Y008772D01*
X005272Y008720D01*
X004986Y008720D01*
X003988Y009634D01*
X004030Y009734D01*
X004030Y009834D01*
X004114Y009750D01*
X004486Y009750D01*
X004750Y010014D01*
X004750Y010386D01*
X004486Y010650D01*
X004114Y010650D01*
X003850Y010386D01*
X003850Y010095D01*
X003766Y010130D01*
X003634Y010130D01*
X003530Y010087D01*
X003530Y010166D01*
X003480Y010287D01*
X003387Y010380D01*
X003266Y010430D01*
X003134Y010430D01*
X003013Y010380D01*
X002920Y010287D01*
X002893Y010220D01*
X002735Y010220D01*
X002820Y010305D01*
X002820Y010450D01*
X002400Y010450D01*
X002400Y010550D01*
X002300Y010550D01*
X002300Y010970D01*
X002155Y010970D01*
X001880Y010695D01*
X001880Y010550D01*
X002300Y010550D01*
X002300Y010450D01*
X001880Y010450D01*
X001880Y010305D01*
X001965Y010220D01*
X001763Y010220D01*
X001840Y010297D01*
X001840Y010703D01*
X001553Y010990D01*
X001147Y010990D01*
X000860Y010703D01*
X000860Y010297D01*
X001147Y010010D01*
X001549Y010010D01*
X001529Y009990D01*
X001147Y009990D01*
X000860Y009703D01*
X000860Y009297D01*
X001147Y009010D01*
X001553Y009010D01*
X001840Y009297D01*
X001840Y009679D01*
X001860Y009699D01*
X001860Y009297D01*
X002147Y009010D01*
X002553Y009010D01*
X002840Y009297D01*
X002840Y009703D01*
X002763Y009780D01*
X003110Y009780D01*
X003134Y009770D01*
X003266Y009770D01*
X003370Y009813D01*
X003370Y009734D01*
X003420Y009613D01*
X003480Y009553D01*
X003480Y009509D01*
X003484Y009505D01*
X003484Y009499D01*
X003548Y009441D01*
X003609Y009380D01*
X003614Y009380D01*
X004748Y008341D01*
X004809Y008280D01*
X004814Y008280D01*
X004819Y008276D01*
X004905Y008280D01*
X005272Y008280D01*
X005293Y008228D01*
X005428Y008093D01*
X005605Y008020D01*
X005795Y008020D01*
X005972Y008093D01*
X005980Y008101D01*
X005980Y007899D01*
X005972Y007907D01*
X005795Y007980D01*
X005605Y007980D01*
X005428Y007907D01*
X005293Y007772D01*
X005220Y007595D01*
X005220Y007405D01*
X005293Y007228D01*
X005428Y007093D01*
X005605Y007020D01*
X005795Y007020D01*
X005972Y007093D01*
X005980Y007101D01*
X005980Y005913D01*
X005720Y006173D01*
X005720Y006391D01*
X005591Y006520D01*
X004750Y007361D01*
X004750Y007386D01*
X004486Y007650D01*
X004114Y007650D01*
X003850Y007386D01*
X003850Y007317D01*
X003787Y007380D01*
X003666Y007430D01*
X003534Y007430D01*
X003413Y007380D01*
X003320Y007287D01*
X003320Y007286D01*
X003320Y008109D01*
X003481Y008270D01*
X003566Y008270D01*
X003687Y008320D01*
X003780Y008413D01*
X003830Y008534D01*
X003830Y008666D01*
X003780Y008787D01*
X003687Y008880D01*
X003566Y008930D01*
X003434Y008930D01*
X003313Y008880D01*
X003220Y008787D01*
X003170Y008666D01*
X003170Y008581D01*
X003009Y008420D01*
X002880Y008291D01*
X002880Y007247D01*
X002820Y007187D01*
X002770Y007066D01*
X002770Y006934D01*
X002820Y006813D01*
X002913Y006720D01*
X003034Y006670D01*
X003159Y006670D01*
X002820Y006331D01*
X002820Y006450D01*
X002400Y006450D01*
X002400Y006550D01*
X002300Y006550D01*
X002300Y006970D01*
X002155Y006970D01*
X001880Y006695D01*
X001880Y006550D01*
X002300Y006550D01*
X002300Y006450D01*
X002400Y006450D01*
X002400Y006030D01*
X002519Y006030D01*
X002109Y005620D01*
X002109Y005620D01*
X002108Y005619D01*
X002013Y005580D01*
X001920Y005487D01*
X001870Y005366D01*
X001870Y005234D01*
X001920Y005113D01*
X002013Y005020D01*
X002134Y004970D01*
X002266Y004970D01*
X002387Y005020D01*
X002480Y005113D01*
X002530Y005234D01*
X002530Y005366D01*
X002514Y005403D01*
X003691Y006580D01*
X003691Y006580D01*
X003820Y006709D01*
X003820Y006853D01*
X003880Y006913D01*
X003900Y006963D02*
X003901Y006963D01*
X003820Y006766D02*
X004098Y006766D01*
X003778Y006667D02*
X004822Y006667D01*
X004920Y006569D02*
X003680Y006569D01*
X003581Y006470D02*
X005019Y006470D01*
X005117Y006372D02*
X003483Y006372D01*
X003384Y006273D02*
X005216Y006273D01*
X005280Y006175D02*
X004718Y006175D01*
X004703Y006190D02*
X004297Y006190D01*
X004010Y005903D01*
X004010Y005497D01*
X004297Y005210D01*
X004703Y005210D01*
X004990Y005497D01*
X004990Y005903D01*
X004703Y006190D01*
X004817Y006076D02*
X005183Y006076D01*
X005085Y005978D02*
X004915Y005978D01*
X004990Y005879D02*
X005010Y005879D01*
X005010Y005781D02*
X004990Y005781D01*
X004990Y005682D02*
X005010Y005682D01*
X005010Y005584D02*
X004990Y005584D01*
X004978Y005485D02*
X005022Y005485D01*
X005121Y005387D02*
X004879Y005387D01*
X004781Y005288D02*
X005219Y005288D01*
X005500Y005700D02*
X005500Y006300D01*
X004600Y007200D01*
X004300Y007200D01*
X004600Y006864D02*
X004625Y006864D01*
X004723Y006766D02*
X004502Y006766D01*
X004952Y007160D02*
X005362Y007160D01*
X005281Y007258D02*
X004853Y007258D01*
X004755Y007357D02*
X005240Y007357D01*
X005220Y007455D02*
X004681Y007455D01*
X004583Y007554D02*
X005220Y007554D01*
X005243Y007652D02*
X003320Y007652D01*
X003320Y007554D02*
X004017Y007554D01*
X003919Y007455D02*
X003320Y007455D01*
X003320Y007357D02*
X003390Y007357D01*
X003320Y007751D02*
X005284Y007751D01*
X005370Y007849D02*
X003320Y007849D01*
X003320Y007948D02*
X005526Y007948D01*
X005542Y008046D02*
X003320Y008046D01*
X003356Y008145D02*
X005377Y008145D01*
X005287Y008243D02*
X003454Y008243D01*
X003708Y008342D02*
X004747Y008342D01*
X004640Y008440D02*
X003791Y008440D01*
X003830Y008539D02*
X004532Y008539D01*
X004425Y008637D02*
X003830Y008637D01*
X003801Y008736D02*
X004318Y008736D01*
X004210Y008834D02*
X003733Y008834D01*
X003995Y009031D02*
X002574Y009031D01*
X002553Y008990D02*
X002147Y008990D01*
X001860Y008703D01*
X001860Y008297D01*
X002147Y008010D01*
X002553Y008010D01*
X002840Y008297D01*
X002840Y008703D01*
X002553Y008990D01*
X002610Y008933D02*
X004103Y008933D01*
X003888Y009130D02*
X002672Y009130D01*
X002771Y009228D02*
X003780Y009228D01*
X003673Y009327D02*
X002840Y009327D01*
X002840Y009425D02*
X003564Y009425D01*
X003480Y009524D02*
X002840Y009524D01*
X002840Y009622D02*
X003417Y009622D01*
X003376Y009721D02*
X002822Y009721D01*
X003100Y010000D02*
X001850Y010000D01*
X001350Y009500D01*
X001840Y009524D02*
X001860Y009524D01*
X001860Y009622D02*
X001840Y009622D01*
X001840Y009425D02*
X001860Y009425D01*
X001860Y009327D02*
X001840Y009327D01*
X001771Y009228D02*
X001929Y009228D01*
X002028Y009130D02*
X001672Y009130D01*
X001574Y009031D02*
X002126Y009031D01*
X002090Y008933D02*
X001610Y008933D01*
X001553Y008990D02*
X001147Y008990D01*
X000860Y008703D01*
X000860Y008297D01*
X001147Y008010D01*
X001553Y008010D01*
X001840Y008297D01*
X001840Y008703D01*
X001553Y008990D01*
X001709Y008834D02*
X001991Y008834D01*
X001893Y008736D02*
X001807Y008736D01*
X001840Y008637D02*
X001860Y008637D01*
X001860Y008539D02*
X001840Y008539D01*
X001840Y008440D02*
X001860Y008440D01*
X001860Y008342D02*
X001840Y008342D01*
X001786Y008243D02*
X001914Y008243D01*
X002013Y008145D02*
X001687Y008145D01*
X001589Y008046D02*
X002111Y008046D01*
X002147Y007990D02*
X001860Y007703D01*
X001860Y007297D01*
X002147Y007010D01*
X002553Y007010D01*
X002840Y007297D01*
X002840Y007703D01*
X002553Y007990D01*
X002147Y007990D01*
X002105Y007948D02*
X001595Y007948D01*
X001553Y007990D02*
X001147Y007990D01*
X000860Y007703D01*
X000860Y007297D01*
X001147Y007010D01*
X001553Y007010D01*
X001840Y007297D01*
X001840Y007703D01*
X001553Y007990D01*
X001694Y007849D02*
X002006Y007849D01*
X001908Y007751D02*
X001792Y007751D01*
X001840Y007652D02*
X001860Y007652D01*
X001860Y007554D02*
X001840Y007554D01*
X001840Y007455D02*
X001860Y007455D01*
X001860Y007357D02*
X001840Y007357D01*
X001801Y007258D02*
X001899Y007258D01*
X001998Y007160D02*
X001702Y007160D01*
X001604Y007061D02*
X002096Y007061D01*
X002148Y006963D02*
X001580Y006963D01*
X001553Y006990D02*
X001147Y006990D01*
X000860Y006703D01*
X000860Y006297D01*
X001147Y006010D01*
X001553Y006010D01*
X001840Y006297D01*
X001840Y006703D01*
X001553Y006990D01*
X001679Y006864D02*
X002049Y006864D01*
X001951Y006766D02*
X001777Y006766D01*
X001840Y006667D02*
X001880Y006667D01*
X001880Y006569D02*
X001840Y006569D01*
X001840Y006470D02*
X002300Y006470D01*
X002300Y006450D02*
X001880Y006450D01*
X001880Y006305D01*
X002155Y006030D01*
X002300Y006030D01*
X002300Y006450D01*
X002300Y006372D02*
X002400Y006372D01*
X002400Y006470D02*
X002959Y006470D01*
X003057Y006569D02*
X002820Y006569D01*
X002820Y006550D02*
X002820Y006695D01*
X002545Y006970D01*
X002400Y006970D01*
X002400Y006550D01*
X002820Y006550D01*
X002820Y006667D02*
X003156Y006667D01*
X002868Y006766D02*
X002749Y006766D01*
X002799Y006864D02*
X002651Y006864D01*
X002552Y006963D02*
X002770Y006963D01*
X002770Y007061D02*
X002604Y007061D01*
X002702Y007160D02*
X002809Y007160D01*
X002801Y007258D02*
X002880Y007258D01*
X002880Y007357D02*
X002840Y007357D01*
X002840Y007455D02*
X002880Y007455D01*
X002880Y007554D02*
X002840Y007554D01*
X002840Y007652D02*
X002880Y007652D01*
X002880Y007751D02*
X002792Y007751D01*
X002880Y007849D02*
X002694Y007849D01*
X002595Y007948D02*
X002880Y007948D01*
X002880Y008046D02*
X002589Y008046D01*
X002687Y008145D02*
X002880Y008145D01*
X002880Y008243D02*
X002786Y008243D01*
X002840Y008342D02*
X002930Y008342D01*
X002840Y008440D02*
X003029Y008440D01*
X003127Y008539D02*
X002840Y008539D01*
X002840Y008637D02*
X003170Y008637D01*
X003199Y008736D02*
X002807Y008736D01*
X002709Y008834D02*
X003267Y008834D01*
X003500Y008600D02*
X003100Y008200D01*
X003100Y007000D01*
X002400Y006963D02*
X002300Y006963D01*
X002300Y006864D02*
X002400Y006864D01*
X002400Y006766D02*
X002300Y006766D01*
X002300Y006667D02*
X002400Y006667D01*
X002400Y006569D02*
X002300Y006569D01*
X002300Y006273D02*
X002400Y006273D01*
X002400Y006175D02*
X002300Y006175D01*
X002300Y006076D02*
X002400Y006076D01*
X002466Y005978D02*
X000450Y005978D01*
X000450Y006076D02*
X001081Y006076D01*
X000983Y006175D02*
X000450Y006175D01*
X000450Y006273D02*
X000884Y006273D01*
X000860Y006372D02*
X000450Y006372D01*
X000450Y006470D02*
X000860Y006470D01*
X000860Y006569D02*
X000450Y006569D01*
X000450Y006667D02*
X000860Y006667D01*
X000923Y006766D02*
X000450Y006766D01*
X000450Y006864D02*
X001021Y006864D01*
X001120Y006963D02*
X000450Y006963D01*
X000450Y007061D02*
X001096Y007061D01*
X000998Y007160D02*
X000450Y007160D01*
X000450Y007258D02*
X000899Y007258D01*
X000860Y007357D02*
X000450Y007357D01*
X000450Y007455D02*
X000860Y007455D01*
X000860Y007554D02*
X000450Y007554D01*
X000450Y007652D02*
X000860Y007652D01*
X000908Y007751D02*
X000450Y007751D01*
X000450Y007849D02*
X001006Y007849D01*
X001105Y007948D02*
X000450Y007948D01*
X000450Y008046D02*
X001111Y008046D01*
X001013Y008145D02*
X000450Y008145D01*
X000450Y008243D02*
X000914Y008243D01*
X000860Y008342D02*
X000450Y008342D01*
X000450Y008440D02*
X000860Y008440D01*
X000860Y008539D02*
X000450Y008539D01*
X000450Y008637D02*
X000860Y008637D01*
X000893Y008736D02*
X000450Y008736D01*
X000450Y008834D02*
X000991Y008834D01*
X001090Y008933D02*
X000450Y008933D01*
X000450Y009031D02*
X001126Y009031D01*
X001028Y009130D02*
X000450Y009130D01*
X000450Y009228D02*
X000929Y009228D01*
X000860Y009327D02*
X000450Y009327D01*
X000450Y009425D02*
X000860Y009425D01*
X000860Y009524D02*
X000450Y009524D01*
X000450Y009622D02*
X000860Y009622D01*
X000878Y009721D02*
X000450Y009721D01*
X000450Y009819D02*
X000976Y009819D01*
X001075Y009918D02*
X000450Y009918D01*
X000450Y010016D02*
X001141Y010016D01*
X001043Y010115D02*
X000450Y010115D01*
X000450Y010213D02*
X000944Y010213D01*
X000860Y010312D02*
X000450Y010312D01*
X000450Y010410D02*
X000860Y010410D01*
X000860Y010509D02*
X000450Y010509D01*
X000450Y010607D02*
X000860Y010607D01*
X000863Y010706D02*
X000450Y010706D01*
X000450Y010804D02*
X000961Y010804D01*
X001060Y010903D02*
X000450Y010903D01*
X000450Y011001D02*
X003384Y011001D01*
X003370Y011100D02*
X002642Y011100D01*
X002553Y011010D02*
X002840Y011297D01*
X002840Y011703D01*
X002553Y011990D01*
X002147Y011990D01*
X001860Y011703D01*
X001860Y011297D01*
X002147Y011010D01*
X002553Y011010D01*
X002545Y010970D02*
X002400Y010970D01*
X002400Y010550D01*
X002820Y010550D01*
X002820Y010695D01*
X002545Y010970D01*
X002612Y010903D02*
X003431Y010903D01*
X003552Y010804D02*
X002711Y010804D01*
X002809Y010706D02*
X005288Y010706D01*
X005251Y010607D02*
X004529Y010607D01*
X004628Y010509D02*
X005655Y010509D01*
X005655Y010455D02*
X005241Y010455D01*
X005251Y010392D01*
X005274Y010323D01*
X005307Y010259D01*
X005349Y010200D01*
X005400Y010149D01*
X005459Y010107D01*
X005523Y010074D01*
X005592Y010051D01*
X005655Y010041D01*
X005655Y010455D01*
X005655Y010410D02*
X005745Y010410D01*
X005745Y010312D02*
X005655Y010312D01*
X005655Y010213D02*
X005745Y010213D01*
X005745Y010115D02*
X005655Y010115D01*
X005448Y010115D02*
X004750Y010115D01*
X004750Y010213D02*
X005340Y010213D01*
X005280Y010312D02*
X004750Y010312D01*
X004726Y010410D02*
X005249Y010410D01*
X005655Y010607D02*
X005745Y010607D01*
X005745Y010509D02*
X005980Y010509D01*
X006200Y010700D02*
X006200Y006000D01*
X006500Y005700D01*
X006990Y005682D02*
X007010Y005682D01*
X007010Y005584D02*
X006990Y005584D01*
X006990Y005485D02*
X007010Y005485D01*
X007010Y005387D02*
X006990Y005387D01*
X006968Y005288D02*
X007032Y005288D01*
X007010Y005781D02*
X006990Y005781D01*
X006990Y005879D02*
X007010Y005879D01*
X007010Y005978D02*
X006990Y005978D01*
X006990Y006076D02*
X007010Y006076D01*
X007094Y006175D02*
X006906Y006175D01*
X007280Y006273D02*
X006420Y006273D01*
X006420Y006372D02*
X007280Y006372D01*
X007280Y006470D02*
X006420Y006470D01*
X006420Y006569D02*
X007280Y006569D01*
X007280Y006667D02*
X006420Y006667D01*
X006420Y006766D02*
X007280Y006766D01*
X007280Y006864D02*
X006420Y006864D01*
X006420Y006963D02*
X007280Y006963D01*
X007280Y007061D02*
X006894Y007061D01*
X007038Y007160D02*
X007280Y007160D01*
X007280Y007258D02*
X007119Y007258D01*
X007160Y007357D02*
X007240Y007357D01*
X007220Y007455D02*
X007180Y007455D01*
X007180Y007554D02*
X007220Y007554D01*
X007243Y007652D02*
X007157Y007652D01*
X007116Y007751D02*
X007284Y007751D01*
X007370Y007849D02*
X007030Y007849D01*
X006874Y007948D02*
X007526Y007948D01*
X007874Y007948D02*
X007950Y007948D01*
X007950Y008046D02*
X006420Y008046D01*
X006420Y007948D02*
X006526Y007948D01*
X006420Y008145D02*
X007950Y008145D01*
X007950Y008243D02*
X006420Y008243D01*
X006420Y008342D02*
X007950Y008342D01*
X007950Y008440D02*
X006420Y008440D01*
X006420Y008539D02*
X007950Y008539D01*
X007950Y008637D02*
X006420Y008637D01*
X006420Y008736D02*
X007950Y008736D01*
X007950Y008834D02*
X006420Y008834D01*
X006420Y008933D02*
X007950Y008933D01*
X007950Y009031D02*
X007822Y009031D01*
X007578Y009031D02*
X006822Y009031D01*
X007008Y009130D02*
X007392Y009130D01*
X007293Y009228D02*
X007107Y009228D01*
X007148Y009327D02*
X007252Y009327D01*
X007220Y009425D02*
X007180Y009425D01*
X007180Y009524D02*
X007220Y009524D01*
X007231Y009622D02*
X007169Y009622D01*
X007128Y009721D02*
X007272Y009721D01*
X007340Y009819D02*
X007060Y009819D01*
X006946Y009918D02*
X007454Y009918D01*
X007407Y010115D02*
X006993Y010115D01*
X007092Y010213D02*
X007308Y010213D01*
X007259Y010312D02*
X007141Y010312D01*
X007180Y010410D02*
X007220Y010410D01*
X007220Y010509D02*
X007180Y010509D01*
X007175Y010607D02*
X007225Y010607D01*
X007266Y010706D02*
X007134Y010706D01*
X007075Y010804D02*
X007325Y010804D01*
X007424Y010903D02*
X006976Y010903D01*
X006424Y010903D02*
X006309Y010903D01*
X006210Y011001D02*
X007845Y011001D01*
X007747Y011100D02*
X006112Y011100D01*
X006077Y011198D02*
X007648Y011198D01*
X008060Y011494D02*
X008480Y011494D01*
X008480Y011592D02*
X007962Y011592D01*
X007863Y011691D02*
X008480Y011691D01*
X008480Y011789D02*
X006090Y011789D01*
X005991Y011888D02*
X008480Y011888D01*
X008480Y011986D02*
X004924Y011986D01*
X004829Y012085D02*
X005449Y012085D01*
X005428Y012093D02*
X005605Y012020D01*
X005795Y012020D01*
X005972Y012093D01*
X006107Y012228D01*
X006180Y012405D01*
X006180Y012595D01*
X006171Y012616D01*
X006267Y012680D01*
X006291Y012680D01*
X006340Y012729D01*
X006398Y012767D01*
X006403Y012792D01*
X006420Y012809D01*
X006420Y012878D01*
X006434Y012946D01*
X006420Y012967D01*
X006420Y013101D01*
X006428Y013093D01*
X006605Y013020D01*
X006795Y013020D01*
X006972Y013093D01*
X007107Y013228D01*
X007180Y013405D01*
X007180Y013595D01*
X007107Y013772D01*
X006972Y013907D01*
X006795Y013980D01*
X006605Y013980D01*
X006428Y013907D01*
X006420Y013899D01*
X006420Y013933D01*
X006434Y013954D01*
X006420Y014022D01*
X006420Y014091D01*
X006403Y014108D01*
X006398Y014133D01*
X006340Y014171D01*
X006291Y014220D01*
X006267Y014220D01*
X005820Y014518D01*
X005820Y016210D01*
X005890Y016210D01*
X005990Y016310D01*
X005990Y017090D01*
X005890Y017190D01*
X005110Y017190D01*
X005010Y017090D01*
X005010Y016310D01*
X005110Y016210D01*
X005380Y016210D01*
X005380Y014467D01*
X005366Y014446D01*
X005380Y014378D01*
X005380Y014309D01*
X005397Y014292D01*
X005402Y014267D01*
X005460Y014229D01*
X005509Y014180D01*
X005533Y014180D01*
X005896Y013939D01*
X005795Y013980D01*
X005605Y013980D01*
X005428Y013907D01*
X005293Y013772D01*
X005220Y013595D01*
X005220Y013405D01*
X005293Y013228D01*
X005428Y013093D01*
X005605Y013020D01*
X005795Y013020D01*
X005972Y013093D01*
X005980Y013101D01*
X005980Y013018D01*
X005874Y012947D01*
X005795Y012980D01*
X005605Y012980D01*
X005428Y012907D01*
X005293Y012772D01*
X005220Y012595D01*
X005220Y012405D01*
X005293Y012228D01*
X005428Y012093D01*
X005338Y012183D02*
X004735Y012183D01*
X004635Y012282D02*
X005271Y012282D01*
X005230Y012380D02*
X004550Y012380D01*
X004550Y012479D02*
X005220Y012479D01*
X005220Y012577D02*
X004550Y012577D01*
X004550Y012676D02*
X005253Y012676D01*
X005295Y012774D02*
X004550Y012774D01*
X004550Y012873D02*
X005394Y012873D01*
X005583Y012971D02*
X004550Y012971D01*
X004550Y013070D02*
X005485Y013070D01*
X005353Y013168D02*
X004550Y013168D01*
X004550Y013267D02*
X005277Y013267D01*
X005236Y013365D02*
X004550Y013365D01*
X004550Y013464D02*
X005220Y013464D01*
X005220Y013562D02*
X004550Y013562D01*
X004550Y013661D02*
X005247Y013661D01*
X005288Y013759D02*
X004550Y013759D01*
X004594Y013858D02*
X005379Y013858D01*
X005547Y013956D02*
X004692Y013956D01*
X004750Y014055D02*
X005722Y014055D01*
X005853Y013956D02*
X005869Y013956D01*
X006200Y014000D02*
X005600Y014400D01*
X005600Y016600D01*
X005500Y016700D01*
X005990Y016714D02*
X011151Y016714D01*
X011245Y016616D02*
X005990Y016616D01*
X005990Y016517D02*
X011339Y016517D01*
X011432Y016419D02*
X005990Y016419D01*
X005990Y016320D02*
X011526Y016320D01*
X011748Y016813D02*
X012592Y016813D01*
X012808Y016813D02*
X015134Y016813D01*
X015145Y016771D02*
X015121Y016861D01*
X015109Y016950D01*
X015770Y016950D01*
X015770Y016289D01*
X015681Y016301D01*
X015591Y016325D01*
X015505Y016361D01*
X015424Y016408D01*
X015350Y016464D01*
X015284Y016530D01*
X015227Y016604D01*
X015181Y016685D01*
X015145Y016771D01*
X015169Y016714D02*
X012953Y016714D01*
X013009Y016616D02*
X015221Y016616D01*
X015297Y016517D02*
X013030Y016517D01*
X013023Y016419D02*
X015409Y016419D01*
X015610Y016320D02*
X012983Y016320D01*
X013165Y016222D02*
X013635Y016222D01*
X013714Y016300D02*
X013450Y016036D01*
X013450Y015664D01*
X013714Y015400D01*
X014086Y015400D01*
X014350Y015664D01*
X014350Y016036D01*
X014086Y016300D01*
X013714Y016300D01*
X013537Y016123D02*
X013263Y016123D01*
X013350Y016025D02*
X013450Y016025D01*
X013450Y015926D02*
X013350Y015926D01*
X013350Y015828D02*
X013450Y015828D01*
X013450Y015729D02*
X013350Y015729D01*
X013317Y015631D02*
X013483Y015631D01*
X013582Y015532D02*
X013218Y015532D01*
X013120Y015434D02*
X013680Y015434D01*
X013714Y015300D02*
X013450Y015036D01*
X013450Y014664D01*
X013714Y014400D01*
X014086Y014400D01*
X014350Y014664D01*
X014350Y015036D01*
X014086Y015300D01*
X013714Y015300D01*
X013650Y015237D02*
X013150Y015237D01*
X013086Y015300D02*
X012714Y015300D01*
X012450Y015036D01*
X012450Y014664D01*
X012680Y014434D01*
X012680Y014209D01*
X012809Y014080D01*
X013241Y013647D01*
X013220Y013595D01*
X013220Y013405D01*
X013293Y013228D01*
X013428Y013093D01*
X013605Y013020D01*
X013669Y013020D01*
X013780Y012909D01*
X013780Y011535D01*
X013503Y011230D01*
X013434Y011230D01*
X013313Y011180D01*
X013220Y011087D01*
X013170Y010966D01*
X013170Y010834D01*
X013220Y010713D01*
X013313Y010620D01*
X013434Y010570D01*
X013566Y010570D01*
X013687Y010620D01*
X013780Y010713D01*
X013830Y010834D01*
X013830Y010936D01*
X014159Y011298D01*
X014220Y011359D01*
X014220Y011365D01*
X014224Y011369D01*
X014220Y011455D01*
X014220Y013091D01*
X014095Y013216D01*
X014107Y013228D01*
X014180Y013405D01*
X014180Y013595D01*
X014107Y013772D01*
X013972Y013907D01*
X013795Y013980D01*
X013605Y013980D01*
X013553Y013959D01*
X013120Y014391D01*
X013120Y014434D01*
X013350Y014664D01*
X013350Y015036D01*
X013086Y015300D01*
X013248Y015138D02*
X013552Y015138D01*
X013453Y015040D02*
X013347Y015040D01*
X013350Y014941D02*
X013450Y014941D01*
X013450Y014843D02*
X013350Y014843D01*
X013350Y014744D02*
X013450Y014744D01*
X013468Y014646D02*
X013332Y014646D01*
X013233Y014547D02*
X013567Y014547D01*
X013665Y014449D02*
X013135Y014449D01*
X013161Y014350D02*
X015442Y014350D01*
X015424Y014360D02*
X015505Y014314D01*
X015591Y014278D01*
X015681Y014254D01*
X015770Y014242D01*
X015770Y014903D01*
X015109Y014903D01*
X015121Y014814D01*
X015145Y014724D01*
X015181Y014638D01*
X015227Y014557D01*
X015284Y014483D01*
X015350Y014417D01*
X015424Y014360D01*
X015318Y014449D02*
X014135Y014449D01*
X014233Y014547D02*
X015235Y014547D01*
X015177Y014646D02*
X014332Y014646D01*
X014350Y014744D02*
X015140Y014744D01*
X015117Y014843D02*
X014350Y014843D01*
X014350Y014941D02*
X015770Y014941D01*
X015770Y014843D02*
X015870Y014843D01*
X015870Y014941D02*
X016432Y014941D01*
X016506Y015138D02*
X016517Y015138D01*
X016472Y015237D02*
X016651Y015237D01*
X016420Y015335D02*
X019050Y015335D01*
X019050Y015237D02*
X018968Y015237D01*
X019050Y015434D02*
X016344Y015434D01*
X016233Y015532D02*
X019050Y015532D01*
X019050Y015631D02*
X016037Y015631D01*
X015870Y015631D02*
X015770Y015631D01*
X015770Y015532D02*
X015870Y015532D01*
X015870Y015434D02*
X015770Y015434D01*
X015770Y015335D02*
X015870Y015335D01*
X015870Y015237D02*
X015770Y015237D01*
X015770Y015138D02*
X015870Y015138D01*
X015870Y015040D02*
X015770Y015040D01*
X015770Y014744D02*
X015870Y014744D01*
X015870Y014646D02*
X015770Y014646D01*
X015770Y014547D02*
X015870Y014547D01*
X015870Y014449D02*
X015770Y014449D01*
X015770Y014350D02*
X015870Y014350D01*
X015870Y014252D02*
X015770Y014252D01*
X015699Y014252D02*
X013260Y014252D01*
X013358Y014153D02*
X016121Y014153D01*
X016232Y014252D02*
X015941Y014252D01*
X016001Y014055D02*
X013457Y014055D01*
X013853Y013956D02*
X014547Y013956D01*
X014605Y013980D02*
X014428Y013907D01*
X014293Y013772D01*
X014220Y013595D01*
X014220Y013405D01*
X014293Y013228D01*
X014428Y013093D01*
X014605Y013020D01*
X014795Y013020D01*
X014972Y013093D01*
X015107Y013228D01*
X015180Y013405D01*
X015180Y013595D01*
X015107Y013772D01*
X014972Y013907D01*
X014795Y013980D01*
X014605Y013980D01*
X014853Y013956D02*
X015547Y013956D01*
X015379Y013858D02*
X015021Y013858D01*
X015112Y013759D02*
X015288Y013759D01*
X015247Y013661D02*
X015153Y013661D01*
X015180Y013562D02*
X015220Y013562D01*
X015220Y013464D02*
X015180Y013464D01*
X015164Y013365D02*
X015236Y013365D01*
X015277Y013267D02*
X015123Y013267D01*
X015047Y013168D02*
X015353Y013168D01*
X015485Y013070D02*
X014915Y013070D01*
X014485Y013070D02*
X014220Y013070D01*
X014220Y012971D02*
X015672Y012971D01*
X015670Y012873D02*
X014220Y012873D01*
X014220Y012774D02*
X015584Y012774D01*
X015493Y012676D02*
X014220Y012676D01*
X014220Y012577D02*
X015402Y012577D01*
X015312Y012479D02*
X014838Y012479D01*
X014933Y012380D02*
X015219Y012380D01*
X015179Y012282D02*
X014973Y012282D01*
X015028Y012183D02*
X015180Y012183D01*
X015180Y012085D02*
X015120Y012085D01*
X015123Y011986D02*
X015180Y011986D01*
X015180Y011888D02*
X015120Y011888D01*
X015120Y011789D02*
X015180Y011789D01*
X015180Y011691D02*
X015120Y011691D01*
X015120Y011592D02*
X015180Y011592D01*
X015180Y011494D02*
X015120Y011494D01*
X015120Y011395D02*
X015180Y011395D01*
X015180Y011297D02*
X015120Y011297D01*
X015120Y011198D02*
X015180Y011198D01*
X015180Y011100D02*
X015120Y011100D01*
X015120Y011001D02*
X015180Y011001D01*
X015180Y010903D02*
X015120Y010903D01*
X015120Y010804D02*
X015180Y010804D01*
X015180Y010706D02*
X015120Y010706D01*
X015120Y010607D02*
X015180Y010607D01*
X015180Y010509D02*
X015120Y010509D01*
X015120Y010410D02*
X015180Y010410D01*
X015180Y010312D02*
X015120Y010312D01*
X015120Y010213D02*
X015180Y010213D01*
X015180Y010115D02*
X015120Y010115D01*
X015120Y010016D02*
X015180Y010016D01*
X015180Y009918D02*
X015120Y009918D01*
X015120Y009819D02*
X015180Y009819D01*
X015180Y009721D02*
X015120Y009721D01*
X015120Y009622D02*
X015180Y009622D01*
X015180Y009524D02*
X015120Y009524D01*
X015120Y009425D02*
X015180Y009425D01*
X015180Y009327D02*
X015120Y009327D01*
X015120Y009228D02*
X015180Y009228D01*
X015120Y009130D02*
X015259Y009130D01*
X015358Y009031D02*
X015042Y009031D01*
X014944Y008933D02*
X015456Y008933D01*
X015555Y008834D02*
X014845Y008834D01*
X014747Y008736D02*
X015653Y008736D01*
X015752Y008637D02*
X014648Y008637D01*
X014550Y008539D02*
X015780Y008539D01*
X015762Y008440D02*
X014451Y008440D01*
X014420Y008342D02*
X015641Y008342D01*
X015519Y008243D02*
X014420Y008243D01*
X014420Y008145D02*
X015398Y008145D01*
X015277Y008046D02*
X014420Y008046D01*
X014420Y007948D02*
X014526Y007948D01*
X014874Y007948D02*
X015156Y007948D01*
X015035Y007849D02*
X015030Y007849D01*
X015200Y007700D02*
X016000Y008350D01*
X016000Y008700D01*
X015400Y009300D01*
X015400Y012250D01*
X016000Y012900D01*
X016432Y012479D02*
X017412Y012479D01*
X017413Y012480D02*
X017320Y012387D01*
X017270Y012266D01*
X017270Y012181D01*
X017180Y012091D01*
X017180Y009209D01*
X017292Y009097D01*
X017282Y009073D01*
X017282Y008927D01*
X017338Y008791D01*
X017441Y008688D01*
X017577Y008632D01*
X017723Y008632D01*
X017859Y008688D01*
X017962Y008791D01*
X018018Y008927D01*
X018018Y009073D01*
X017962Y009209D01*
X017859Y009312D01*
X017723Y009368D01*
X017643Y009368D01*
X017620Y009391D01*
X017620Y011870D01*
X017666Y011870D01*
X017787Y011920D01*
X017880Y012013D01*
X017930Y012134D01*
X017930Y012266D01*
X017880Y012387D01*
X017787Y012480D01*
X017666Y012530D01*
X017534Y012530D01*
X017413Y012480D01*
X017317Y012380D02*
X016342Y012380D01*
X016260Y012282D02*
X017277Y012282D01*
X017270Y012183D02*
X016178Y012183D01*
X016096Y012085D02*
X017180Y012085D01*
X017180Y011986D02*
X016014Y011986D01*
X015950Y011888D02*
X017180Y011888D01*
X017180Y011789D02*
X015950Y011789D01*
X015950Y011691D02*
X017180Y011691D01*
X017180Y011592D02*
X015950Y011592D01*
X015950Y011494D02*
X017180Y011494D01*
X017180Y011395D02*
X015950Y011395D01*
X015950Y011297D02*
X017180Y011297D01*
X017180Y011198D02*
X015950Y011198D01*
X015950Y011100D02*
X017180Y011100D01*
X017180Y011001D02*
X015950Y011001D01*
X015950Y010903D02*
X017180Y010903D01*
X017180Y010804D02*
X015950Y010804D01*
X015950Y010706D02*
X017180Y010706D01*
X017180Y010607D02*
X015950Y010607D01*
X015950Y010509D02*
X017180Y010509D01*
X017180Y010410D02*
X015950Y010410D01*
X015950Y010312D02*
X017180Y010312D01*
X017180Y010213D02*
X015950Y010213D01*
X015950Y010115D02*
X017180Y010115D01*
X017180Y010016D02*
X015950Y010016D01*
X015950Y009918D02*
X017180Y009918D01*
X017180Y009819D02*
X015950Y009819D01*
X015950Y009721D02*
X017180Y009721D01*
X017180Y009622D02*
X015950Y009622D01*
X015950Y009524D02*
X017180Y009524D01*
X017180Y009425D02*
X016029Y009425D01*
X016127Y009327D02*
X017180Y009327D01*
X017180Y009228D02*
X016226Y009228D01*
X016324Y009130D02*
X017259Y009130D01*
X017282Y009031D02*
X016423Y009031D01*
X016521Y008933D02*
X017282Y008933D01*
X017320Y008834D02*
X016620Y008834D01*
X016718Y008736D02*
X017394Y008736D01*
X017564Y008637D02*
X016817Y008637D01*
X016915Y008539D02*
X018750Y008539D01*
X018750Y008637D02*
X017736Y008637D01*
X017906Y008736D02*
X018750Y008736D01*
X018750Y008834D02*
X017980Y008834D01*
X018018Y008933D02*
X018750Y008933D01*
X018750Y009031D02*
X018018Y009031D01*
X017995Y009130D02*
X018750Y009130D01*
X018750Y009228D02*
X017943Y009228D01*
X017824Y009327D02*
X018750Y009327D01*
X018750Y009425D02*
X017620Y009425D01*
X017620Y009524D02*
X018750Y009524D01*
X018750Y009622D02*
X017620Y009622D01*
X017620Y009721D02*
X018750Y009721D01*
X018750Y009819D02*
X017620Y009819D01*
X017620Y009918D02*
X018750Y009918D01*
X018750Y010016D02*
X017620Y010016D01*
X017620Y010115D02*
X018750Y010115D01*
X018750Y010213D02*
X017620Y010213D01*
X017620Y010312D02*
X018750Y010312D01*
X018750Y010410D02*
X017620Y010410D01*
X017620Y010509D02*
X018750Y010509D01*
X018750Y010607D02*
X017620Y010607D01*
X017620Y010706D02*
X018750Y010706D01*
X018750Y010804D02*
X017620Y010804D01*
X017620Y010903D02*
X018750Y010903D01*
X018750Y011001D02*
X017620Y011001D01*
X017620Y011100D02*
X018750Y011100D01*
X018750Y011198D02*
X017620Y011198D01*
X017620Y011297D02*
X018750Y011297D01*
X018750Y011395D02*
X017620Y011395D01*
X017620Y011494D02*
X018750Y011494D01*
X018750Y011592D02*
X017620Y011592D01*
X017620Y011691D02*
X018750Y011691D01*
X018750Y011789D02*
X017620Y011789D01*
X017708Y011888D02*
X018750Y011888D01*
X018750Y011986D02*
X017853Y011986D01*
X017909Y012085D02*
X018750Y012085D01*
X018750Y012183D02*
X017930Y012183D01*
X017923Y012282D02*
X018750Y012282D01*
X018750Y012380D02*
X017883Y012380D01*
X017788Y012479D02*
X018704Y012479D01*
X018630Y012577D02*
X016531Y012577D01*
X016619Y012676D02*
X017389Y012676D01*
X017272Y012774D02*
X016650Y012774D01*
X016650Y012873D02*
X017174Y012873D01*
X017075Y012971D02*
X016650Y012971D01*
X016915Y013070D02*
X016983Y013070D01*
X017600Y012200D02*
X017400Y012000D01*
X017400Y009300D01*
X017675Y009025D01*
X017650Y009000D01*
X017014Y008440D02*
X018750Y008440D01*
X018750Y008342D02*
X017112Y008342D01*
X017211Y008243D02*
X018750Y008243D01*
X018750Y008145D02*
X017309Y008145D01*
X017408Y008046D02*
X018750Y008046D01*
X018526Y007948D02*
X017874Y007948D01*
X018030Y007849D02*
X018370Y007849D01*
X018284Y007751D02*
X018116Y007751D01*
X018157Y007652D02*
X018243Y007652D01*
X018220Y007554D02*
X018180Y007554D01*
X018180Y007455D02*
X018220Y007455D01*
X018240Y007357D02*
X018160Y007357D01*
X018119Y007258D02*
X018281Y007258D01*
X018362Y007160D02*
X018038Y007160D01*
X017894Y007061D02*
X018506Y007061D01*
X018894Y007061D02*
X019050Y007061D01*
X019050Y006963D02*
X017448Y006963D01*
X017451Y007061D02*
X017506Y007061D01*
X017445Y006864D02*
X019050Y006864D01*
X019050Y006766D02*
X017443Y006766D01*
X017440Y006667D02*
X019050Y006667D01*
X019050Y006569D02*
X017437Y006569D01*
X017434Y006470D02*
X019050Y006470D01*
X019050Y006372D02*
X017431Y006372D01*
X017429Y006273D02*
X019050Y006273D01*
X019050Y006175D02*
X017718Y006175D01*
X017817Y006076D02*
X018211Y006076D01*
X018305Y006170D02*
X018030Y005895D01*
X018030Y005750D01*
X018450Y005750D01*
X018450Y006170D01*
X018305Y006170D01*
X018450Y006076D02*
X018550Y006076D01*
X018550Y006170D02*
X018695Y006170D01*
X018970Y005895D01*
X018970Y005750D01*
X018550Y005750D01*
X018550Y005650D01*
X018970Y005650D01*
X018970Y005505D01*
X018695Y005230D01*
X018550Y005230D01*
X018550Y005650D01*
X018450Y005650D01*
X018450Y005230D01*
X018305Y005230D01*
X018030Y005505D01*
X018030Y005650D01*
X018450Y005650D01*
X018450Y005750D01*
X018550Y005750D01*
X018550Y006170D01*
X018550Y005978D02*
X018450Y005978D01*
X018450Y005879D02*
X018550Y005879D01*
X018550Y005781D02*
X018450Y005781D01*
X018450Y005682D02*
X017990Y005682D01*
X017990Y005584D02*
X018030Y005584D01*
X018050Y005485D02*
X017978Y005485D01*
X017879Y005387D02*
X018149Y005387D01*
X018247Y005288D02*
X017781Y005288D01*
X017990Y005781D02*
X018030Y005781D01*
X018030Y005879D02*
X017990Y005879D01*
X017915Y005978D02*
X018113Y005978D01*
X018450Y005584D02*
X018550Y005584D01*
X018550Y005682D02*
X019022Y005682D01*
X019042Y005781D02*
X018970Y005781D01*
X018970Y005879D02*
X019049Y005879D01*
X019050Y005978D02*
X018887Y005978D01*
X018789Y006076D02*
X019050Y006076D01*
X018996Y005584D02*
X018970Y005584D01*
X018969Y005485D02*
X018950Y005485D01*
X018920Y005387D02*
X018851Y005387D01*
X018863Y005288D02*
X018753Y005288D01*
X018802Y005190D02*
X002511Y005190D01*
X002530Y005288D02*
X003247Y005288D01*
X003305Y005230D02*
X003450Y005230D01*
X003450Y005650D01*
X003550Y005650D01*
X003550Y005750D01*
X003970Y005750D01*
X003970Y005895D01*
X003695Y006170D01*
X003550Y006170D01*
X003550Y005750D01*
X003450Y005750D01*
X003450Y006170D01*
X003305Y006170D01*
X003030Y005895D01*
X003030Y005750D01*
X003450Y005750D01*
X003450Y005650D01*
X003030Y005650D01*
X003030Y005505D01*
X003305Y005230D01*
X003450Y005288D02*
X003550Y005288D01*
X003550Y005230D02*
X003695Y005230D01*
X003970Y005505D01*
X003970Y005650D01*
X003550Y005650D01*
X003550Y005230D01*
X003550Y005387D02*
X003450Y005387D01*
X003450Y005485D02*
X003550Y005485D01*
X003550Y005584D02*
X003450Y005584D01*
X003450Y005682D02*
X002793Y005682D01*
X002695Y005584D02*
X003030Y005584D01*
X003050Y005485D02*
X002596Y005485D01*
X002521Y005387D02*
X003149Y005387D01*
X003030Y005781D02*
X002892Y005781D01*
X002990Y005879D02*
X003030Y005879D01*
X003089Y005978D02*
X003113Y005978D01*
X003187Y006076D02*
X003211Y006076D01*
X003286Y006175D02*
X004282Y006175D01*
X004183Y006076D02*
X003789Y006076D01*
X003887Y005978D02*
X004085Y005978D01*
X004010Y005879D02*
X003970Y005879D01*
X003970Y005781D02*
X004010Y005781D01*
X004010Y005682D02*
X003550Y005682D01*
X003550Y005781D02*
X003450Y005781D01*
X003450Y005879D02*
X003550Y005879D01*
X003550Y005978D02*
X003450Y005978D01*
X003450Y006076D02*
X003550Y006076D01*
X003970Y005584D02*
X004010Y005584D01*
X004022Y005485D02*
X003950Y005485D01*
X003851Y005387D02*
X004121Y005387D01*
X004219Y005288D02*
X003753Y005288D01*
X002860Y006372D02*
X002820Y006372D01*
X002368Y005879D02*
X000451Y005879D01*
X000458Y005781D02*
X002269Y005781D01*
X002171Y005682D02*
X000478Y005682D01*
X000504Y005584D02*
X002022Y005584D01*
X001919Y005485D02*
X000531Y005485D01*
X000580Y005387D02*
X001879Y005387D01*
X001870Y005288D02*
X000637Y005288D01*
X000698Y005190D02*
X001889Y005190D01*
X001942Y005091D02*
X000797Y005091D01*
X000895Y004993D02*
X002080Y004993D01*
X002320Y004993D02*
X018605Y004993D01*
X018703Y005091D02*
X002458Y005091D01*
X002109Y006076D02*
X001619Y006076D01*
X001717Y006175D02*
X002011Y006175D01*
X001912Y006273D02*
X001816Y006273D01*
X001840Y006372D02*
X001880Y006372D01*
X001062Y004894D02*
X018438Y004894D01*
X018183Y004796D02*
X001317Y004796D01*
X003810Y007357D02*
X003850Y007357D01*
X005050Y007061D02*
X005506Y007061D01*
X005247Y006864D02*
X005980Y006864D01*
X005980Y006766D02*
X005346Y006766D01*
X005444Y006667D02*
X005980Y006667D01*
X005980Y006569D02*
X005543Y006569D01*
X005641Y006470D02*
X005980Y006470D01*
X005980Y006372D02*
X005720Y006372D01*
X005720Y006273D02*
X005980Y006273D01*
X005980Y006175D02*
X005720Y006175D01*
X005817Y006076D02*
X005980Y006076D01*
X005980Y005978D02*
X005915Y005978D01*
X005990Y005879D02*
X006010Y005879D01*
X006010Y005781D02*
X005990Y005781D01*
X005990Y005682D02*
X006010Y005682D01*
X006010Y005584D02*
X005990Y005584D01*
X005978Y005485D02*
X006010Y005485D01*
X006010Y005387D02*
X005879Y005387D01*
X005781Y005288D02*
X006032Y005288D01*
X007500Y005700D02*
X007500Y007300D01*
X007700Y007500D01*
X007894Y007061D02*
X007987Y007061D01*
X008082Y006963D02*
X007720Y006963D01*
X007720Y006864D02*
X008087Y006864D01*
X008128Y006766D02*
X007720Y006766D01*
X007720Y006667D02*
X008212Y006667D01*
X008241Y006569D02*
X007720Y006569D01*
X007720Y006470D02*
X008250Y006470D01*
X008250Y006372D02*
X007720Y006372D01*
X007720Y006273D02*
X008250Y006273D01*
X008250Y006175D02*
X007906Y006175D01*
X007990Y006076D02*
X008183Y006076D01*
X008085Y005978D02*
X007990Y005978D01*
X007990Y005879D02*
X008010Y005879D01*
X008010Y005781D02*
X007990Y005781D01*
X007990Y005682D02*
X008010Y005682D01*
X008010Y005584D02*
X007990Y005584D01*
X007990Y005485D02*
X008022Y005485D01*
X007990Y005387D02*
X008121Y005387D01*
X008219Y005288D02*
X007968Y005288D01*
X008781Y005288D02*
X009247Y005288D01*
X009305Y005230D02*
X009450Y005230D01*
X009450Y005650D01*
X009550Y005650D01*
X009550Y005750D01*
X009450Y005750D01*
X009450Y006170D01*
X009305Y006170D01*
X009030Y005895D01*
X009030Y005750D01*
X009450Y005750D01*
X009450Y005650D01*
X009030Y005650D01*
X009030Y005505D01*
X009305Y005230D01*
X009450Y005288D02*
X009550Y005288D01*
X009550Y005230D02*
X009695Y005230D01*
X009970Y005505D01*
X009970Y005650D01*
X009550Y005650D01*
X009550Y005230D01*
X009550Y005387D02*
X009450Y005387D01*
X009450Y005485D02*
X009550Y005485D01*
X009550Y005584D02*
X009450Y005584D01*
X009450Y005682D02*
X008990Y005682D01*
X008990Y005584D02*
X009030Y005584D01*
X009050Y005485D02*
X008978Y005485D01*
X008879Y005387D02*
X009149Y005387D01*
X009030Y005781D02*
X008990Y005781D01*
X008990Y005879D02*
X009030Y005879D01*
X009113Y005978D02*
X008915Y005978D01*
X008817Y006076D02*
X009211Y006076D01*
X009450Y006076D02*
X009550Y006076D01*
X009550Y005978D02*
X009450Y005978D01*
X009450Y005879D02*
X009550Y005879D01*
X009550Y005781D02*
X009450Y005781D01*
X009550Y005682D02*
X010010Y005682D01*
X010010Y005584D02*
X009970Y005584D01*
X009950Y005485D02*
X010010Y005485D01*
X010010Y005387D02*
X009851Y005387D01*
X009753Y005288D02*
X010032Y005288D01*
X010010Y005781D02*
X009970Y005781D01*
X009950Y006150D02*
X010200Y006400D01*
X010200Y007750D01*
X009800Y008050D01*
X009800Y008800D01*
X010200Y009100D01*
X010200Y009800D01*
X010400Y010000D01*
X010900Y010000D01*
X011200Y010300D01*
X011200Y011100D01*
X012200Y012100D01*
X012200Y013050D01*
X011955Y012774D02*
X011020Y012774D01*
X011020Y012676D02*
X011980Y012676D01*
X011980Y012577D02*
X011020Y012577D01*
X011020Y012479D02*
X011980Y012479D01*
X011980Y012380D02*
X011020Y012380D01*
X011020Y012282D02*
X011980Y012282D01*
X011972Y012183D02*
X011020Y012183D01*
X011020Y012085D02*
X011873Y012085D01*
X011775Y011986D02*
X011080Y011986D01*
X011080Y011987D02*
X011020Y012047D01*
X011020Y013141D01*
X011107Y013228D01*
X011180Y013405D01*
X011180Y013595D01*
X011107Y013772D01*
X010972Y013907D01*
X010795Y013980D01*
X010605Y013980D01*
X010428Y013907D01*
X010293Y013772D01*
X010220Y013595D01*
X010220Y013405D01*
X010293Y013228D01*
X010428Y013093D01*
X010580Y013030D01*
X010580Y012047D01*
X010520Y011987D01*
X010470Y011866D01*
X010470Y011734D01*
X010520Y011613D01*
X010613Y011520D01*
X010734Y011470D01*
X010866Y011470D01*
X010987Y011520D01*
X011080Y011613D01*
X011130Y011734D01*
X011130Y011866D01*
X011080Y011987D01*
X011121Y011888D02*
X011676Y011888D01*
X011578Y011789D02*
X011130Y011789D01*
X011112Y011691D02*
X011479Y011691D01*
X011381Y011592D02*
X011059Y011592D01*
X010922Y011494D02*
X011282Y011494D01*
X011184Y011395D02*
X010330Y011395D01*
X010318Y011494D02*
X010678Y011494D01*
X010541Y011592D02*
X010275Y011592D01*
X010161Y011691D02*
X010488Y011691D01*
X010470Y011789D02*
X008920Y011789D01*
X008920Y011691D02*
X009839Y011691D01*
X009725Y011592D02*
X008920Y011592D01*
X008942Y011494D02*
X009682Y011494D01*
X009584Y011395D02*
X009250Y011395D01*
X009370Y011297D02*
X009485Y011297D01*
X009900Y011400D02*
X010000Y011400D01*
X009900Y011400D02*
X009200Y010700D01*
X009200Y008300D01*
X008901Y008440D02*
X008450Y008440D01*
X008450Y008342D02*
X008870Y008342D01*
X008870Y008243D02*
X008450Y008243D01*
X008450Y008145D02*
X008907Y008145D01*
X008987Y008046D02*
X008450Y008046D01*
X008450Y007948D02*
X008526Y007948D01*
X008874Y007948D02*
X009526Y007948D01*
X009578Y008046D02*
X009413Y008046D01*
X009493Y008145D02*
X009580Y008145D01*
X009580Y008243D02*
X009530Y008243D01*
X009530Y008342D02*
X009580Y008342D01*
X009580Y008440D02*
X009499Y008440D01*
X009428Y008539D02*
X009580Y008539D01*
X009580Y008637D02*
X009420Y008637D01*
X009420Y008736D02*
X009573Y008736D01*
X009580Y008834D02*
X009420Y008834D01*
X009420Y008933D02*
X009610Y008933D01*
X009578Y009031D02*
X009420Y009031D01*
X008980Y009031D02*
X008822Y009031D01*
X008980Y008933D02*
X008450Y008933D01*
X008450Y009031D02*
X008578Y009031D01*
X008450Y008834D02*
X008980Y008834D01*
X008980Y008736D02*
X008450Y008736D01*
X008450Y008637D02*
X008980Y008637D01*
X008972Y008539D02*
X008450Y008539D01*
X009030Y007849D02*
X009370Y007849D01*
X009284Y007751D02*
X009116Y007751D01*
X009157Y007652D02*
X009243Y007652D01*
X009220Y007554D02*
X009180Y007554D01*
X009180Y007455D02*
X009220Y007455D01*
X009240Y007357D02*
X009160Y007357D01*
X009119Y007258D02*
X009281Y007258D01*
X009362Y007160D02*
X009038Y007160D01*
X008894Y007061D02*
X009506Y007061D01*
X009894Y007061D02*
X009980Y007061D01*
X009980Y006963D02*
X008818Y006963D01*
X008813Y006864D02*
X009980Y006864D01*
X009980Y006766D02*
X008772Y006766D01*
X008733Y006667D02*
X009980Y006667D01*
X009980Y006569D02*
X008744Y006569D01*
X008752Y006470D02*
X009860Y006470D01*
X009705Y006372D02*
X008750Y006372D01*
X008750Y006273D02*
X009644Y006273D01*
X009620Y006175D02*
X008750Y006175D01*
X010384Y006273D02*
X013034Y006273D01*
X013126Y006372D02*
X010420Y006372D01*
X010420Y006470D02*
X013218Y006470D01*
X013310Y006569D02*
X010420Y006569D01*
X010420Y006667D02*
X013402Y006667D01*
X013494Y006766D02*
X010420Y006766D01*
X010420Y006864D02*
X013585Y006864D01*
X013677Y006963D02*
X010420Y006963D01*
X010420Y007061D02*
X010506Y007061D01*
X010894Y007061D02*
X011506Y007061D01*
X011428Y007093D02*
X011605Y007020D01*
X011795Y007020D01*
X011972Y007093D01*
X012107Y007228D01*
X012180Y007405D01*
X012180Y007595D01*
X012107Y007772D01*
X011972Y007907D01*
X011795Y007980D01*
X011605Y007980D01*
X011428Y007907D01*
X011293Y007772D01*
X011220Y007595D01*
X011220Y007405D01*
X011293Y007228D01*
X011428Y007093D01*
X011362Y007160D02*
X011038Y007160D01*
X011119Y007258D02*
X011281Y007258D01*
X011240Y007357D02*
X011160Y007357D01*
X011180Y007455D02*
X011220Y007455D01*
X011220Y007554D02*
X011180Y007554D01*
X011157Y007652D02*
X011243Y007652D01*
X011284Y007751D02*
X011116Y007751D01*
X011030Y007849D02*
X011370Y007849D01*
X011526Y007948D02*
X010874Y007948D01*
X010526Y007948D02*
X010414Y007948D01*
X010493Y008046D02*
X012543Y008046D01*
X012526Y007948D02*
X011874Y007948D01*
X012030Y007849D02*
X012370Y007849D01*
X012284Y007751D02*
X012116Y007751D01*
X012157Y007652D02*
X012243Y007652D01*
X012220Y007554D02*
X012180Y007554D01*
X012180Y007455D02*
X012220Y007455D01*
X012240Y007357D02*
X012160Y007357D01*
X012119Y007258D02*
X012281Y007258D01*
X012362Y007160D02*
X012038Y007160D01*
X011894Y007061D02*
X012506Y007061D01*
X012894Y007061D02*
X013506Y007061D01*
X013362Y007160D02*
X013038Y007160D01*
X013119Y007258D02*
X013281Y007258D01*
X013240Y007357D02*
X013160Y007357D01*
X013180Y007455D02*
X013220Y007455D01*
X013220Y007554D02*
X013180Y007554D01*
X013157Y007652D02*
X013243Y007652D01*
X013284Y007751D02*
X013116Y007751D01*
X013030Y007849D02*
X013370Y007849D01*
X013464Y007948D02*
X013526Y007948D01*
X013526Y008046D02*
X013980Y008046D01*
X013980Y007948D02*
X013874Y007948D01*
X013980Y008145D02*
X013587Y008145D01*
X013649Y008243D02*
X013980Y008243D01*
X013980Y008342D02*
X013710Y008342D01*
X013772Y008440D02*
X013980Y008440D01*
X013980Y008539D02*
X013770Y008539D01*
X013770Y008637D02*
X014026Y008637D01*
X014124Y008736D02*
X013770Y008736D01*
X013770Y008834D02*
X014223Y008834D01*
X014321Y008933D02*
X013770Y008933D01*
X013837Y009031D02*
X014420Y009031D01*
X014518Y009130D02*
X013878Y009130D01*
X013880Y009228D02*
X014617Y009228D01*
X014680Y009327D02*
X013855Y009327D01*
X013792Y009425D02*
X014680Y009425D01*
X014680Y009524D02*
X013631Y009524D01*
X013469Y009524D02*
X013180Y009524D01*
X013180Y009595D02*
X013107Y009772D01*
X012972Y009907D01*
X012795Y009980D01*
X012605Y009980D01*
X012428Y009907D01*
X012293Y009772D01*
X012220Y009595D01*
X012220Y009405D01*
X012293Y009228D01*
X012428Y009093D01*
X012605Y009020D01*
X012795Y009020D01*
X012972Y009093D01*
X013107Y009228D01*
X013180Y009405D01*
X013180Y009595D01*
X013169Y009622D02*
X014680Y009622D01*
X014680Y009721D02*
X013128Y009721D01*
X013060Y009819D02*
X014680Y009819D01*
X014680Y009918D02*
X012946Y009918D01*
X012972Y010093D02*
X013107Y010228D01*
X013180Y010405D01*
X013180Y010595D01*
X013107Y010772D01*
X012972Y010907D01*
X012795Y010980D01*
X012605Y010980D01*
X012428Y010907D01*
X012293Y010772D01*
X012220Y010595D01*
X012220Y010405D01*
X012293Y010228D01*
X012428Y010093D01*
X012605Y010020D01*
X012795Y010020D01*
X012972Y010093D01*
X012993Y010115D02*
X014680Y010115D01*
X014680Y010213D02*
X013092Y010213D01*
X013141Y010312D02*
X014680Y010312D01*
X014680Y010410D02*
X013180Y010410D01*
X013180Y010509D02*
X014680Y010509D01*
X014680Y010607D02*
X013655Y010607D01*
X013772Y010706D02*
X014680Y010706D01*
X014680Y010804D02*
X013817Y010804D01*
X013830Y010903D02*
X014680Y010903D01*
X014680Y011001D02*
X013889Y011001D01*
X013979Y011100D02*
X014680Y011100D01*
X014680Y011198D02*
X014068Y011198D01*
X014158Y011297D02*
X014680Y011297D01*
X014680Y011395D02*
X014223Y011395D01*
X014220Y011494D02*
X014680Y011494D01*
X014680Y011592D02*
X014220Y011592D01*
X014220Y011691D02*
X014680Y011691D01*
X014680Y011789D02*
X014220Y011789D01*
X014220Y011888D02*
X014542Y011888D01*
X014397Y011986D02*
X014220Y011986D01*
X014220Y012085D02*
X014341Y012085D01*
X014320Y012183D02*
X014220Y012183D01*
X014220Y012282D02*
X014327Y012282D01*
X014367Y012380D02*
X014220Y012380D01*
X014220Y012479D02*
X014462Y012479D01*
X014650Y012200D02*
X014900Y012000D01*
X014900Y009200D01*
X014200Y008500D01*
X014200Y007200D01*
X012800Y005700D01*
X012500Y005700D01*
X012010Y005682D02*
X011990Y005682D01*
X011990Y005584D02*
X012010Y005584D01*
X012022Y005485D02*
X011990Y005485D01*
X011990Y005387D02*
X012121Y005387D01*
X012219Y005288D02*
X011968Y005288D01*
X011990Y005310D02*
X011890Y005210D01*
X011110Y005210D01*
X011010Y005310D01*
X011010Y006090D01*
X011110Y006190D01*
X011890Y006190D01*
X011990Y006090D01*
X011990Y005310D01*
X011990Y005781D02*
X012010Y005781D01*
X012010Y005879D02*
X011990Y005879D01*
X011990Y005978D02*
X012085Y005978D01*
X011990Y006076D02*
X012183Y006076D01*
X012282Y006175D02*
X011906Y006175D01*
X011094Y006175D02*
X010906Y006175D01*
X010990Y006076D02*
X011010Y006076D01*
X011010Y005978D02*
X010990Y005978D01*
X010990Y005879D02*
X011010Y005879D01*
X011010Y005781D02*
X010990Y005781D01*
X010990Y005682D02*
X011010Y005682D01*
X011010Y005584D02*
X010990Y005584D01*
X010990Y005485D02*
X011010Y005485D01*
X011010Y005387D02*
X010990Y005387D01*
X010968Y005288D02*
X011032Y005288D01*
X012781Y005288D02*
X013219Y005288D01*
X013121Y005387D02*
X012879Y005387D01*
X012978Y005485D02*
X013022Y005485D01*
X013010Y005584D02*
X012995Y005584D01*
X012850Y006076D02*
X012817Y006076D01*
X012718Y006175D02*
X012942Y006175D01*
X013781Y005288D02*
X014219Y005288D01*
X014121Y005387D02*
X013879Y005387D01*
X013978Y005485D02*
X014022Y005485D01*
X014010Y005584D02*
X013990Y005584D01*
X013990Y005682D02*
X014010Y005682D01*
X013950Y006100D02*
X013950Y006650D01*
X014300Y007000D01*
X015100Y007000D01*
X015200Y007100D01*
X015200Y007700D01*
X015420Y007061D02*
X015506Y007061D01*
X015374Y006963D02*
X016948Y006963D01*
X016951Y007061D02*
X016894Y007061D01*
X016945Y006864D02*
X015275Y006864D01*
X015894Y007061D02*
X016506Y007061D01*
X016362Y007160D02*
X016038Y007160D01*
X016119Y007258D02*
X016281Y007258D01*
X016240Y007357D02*
X016160Y007357D01*
X016180Y007455D02*
X016220Y007455D01*
X016220Y007554D02*
X016180Y007554D01*
X016157Y007652D02*
X016243Y007652D01*
X016284Y007751D02*
X016116Y007751D01*
X016030Y007849D02*
X016370Y007849D01*
X016526Y007948D02*
X015874Y007948D01*
X015975Y008046D02*
X016700Y008046D01*
X016602Y008145D02*
X016106Y008145D01*
X016210Y008243D02*
X016503Y008243D01*
X016405Y008342D02*
X016220Y008342D01*
X016220Y008440D02*
X016306Y008440D01*
X017465Y007948D02*
X017526Y007948D01*
X016942Y006766D02*
X014377Y006766D01*
X014278Y006667D02*
X016940Y006667D01*
X016937Y006569D02*
X014180Y006569D01*
X014170Y006470D02*
X016934Y006470D01*
X016931Y006372D02*
X014170Y006372D01*
X014236Y006273D02*
X016928Y006273D01*
X016926Y006175D02*
X016718Y006175D01*
X016703Y006190D02*
X016297Y006190D01*
X016010Y005903D01*
X016010Y005497D01*
X016297Y005210D01*
X016703Y005210D01*
X016990Y005497D01*
X016990Y005903D01*
X016703Y006190D01*
X016817Y006076D02*
X016923Y006076D01*
X016915Y005978D02*
X016962Y005978D01*
X016990Y005879D02*
X017010Y005879D01*
X017010Y005781D02*
X016990Y005781D01*
X016990Y005682D02*
X017010Y005682D01*
X017010Y005584D02*
X016990Y005584D01*
X016978Y005485D02*
X017022Y005485D01*
X017121Y005387D02*
X016879Y005387D01*
X016781Y005288D02*
X017219Y005288D01*
X016219Y005288D02*
X015781Y005288D01*
X015703Y005210D02*
X015990Y005497D01*
X015990Y005903D01*
X015703Y006190D01*
X015297Y006190D01*
X015010Y005903D01*
X015010Y005497D01*
X015297Y005210D01*
X015703Y005210D01*
X015879Y005387D02*
X016121Y005387D01*
X016022Y005485D02*
X015978Y005485D01*
X015990Y005584D02*
X016010Y005584D01*
X016010Y005682D02*
X015990Y005682D01*
X015990Y005781D02*
X016010Y005781D01*
X016010Y005879D02*
X015990Y005879D01*
X015915Y005978D02*
X016085Y005978D01*
X016183Y006076D02*
X015817Y006076D01*
X015718Y006175D02*
X016282Y006175D01*
X015282Y006175D02*
X014718Y006175D01*
X014817Y006076D02*
X015183Y006076D01*
X015085Y005978D02*
X014915Y005978D01*
X014990Y005879D02*
X015010Y005879D01*
X015010Y005781D02*
X014990Y005781D01*
X014990Y005682D02*
X015010Y005682D01*
X015010Y005584D02*
X014990Y005584D01*
X014978Y005485D02*
X015022Y005485D01*
X015121Y005387D02*
X014879Y005387D01*
X014781Y005288D02*
X015219Y005288D01*
X014282Y006175D02*
X014276Y006175D01*
X013300Y008100D02*
X012800Y008100D01*
X012600Y008300D01*
X010400Y008300D01*
X010200Y008200D01*
X010020Y008539D02*
X010689Y008539D01*
X010670Y008637D02*
X010020Y008637D01*
X010081Y008736D02*
X010678Y008736D01*
X010719Y008834D02*
X010212Y008834D01*
X010344Y008933D02*
X010820Y008933D01*
X010822Y009031D02*
X011578Y009031D01*
X011605Y009020D02*
X011428Y009093D01*
X011293Y009228D01*
X011220Y009405D01*
X011220Y009595D01*
X011293Y009772D01*
X011428Y009907D01*
X011605Y009980D01*
X011795Y009980D01*
X011972Y009907D01*
X012107Y009772D01*
X012180Y009595D01*
X012180Y009405D01*
X012107Y009228D01*
X011972Y009093D01*
X011795Y009020D01*
X011605Y009020D01*
X011822Y009031D02*
X012578Y009031D01*
X012392Y009130D02*
X012008Y009130D01*
X012107Y009228D02*
X012293Y009228D01*
X012252Y009327D02*
X012148Y009327D01*
X012180Y009425D02*
X012220Y009425D01*
X012220Y009524D02*
X012180Y009524D01*
X012169Y009622D02*
X012231Y009622D01*
X012272Y009721D02*
X012128Y009721D01*
X012060Y009819D02*
X012340Y009819D01*
X012454Y009918D02*
X011946Y009918D01*
X011877Y010074D02*
X011941Y010107D01*
X012000Y010149D01*
X012051Y010200D01*
X012093Y010259D01*
X012126Y010323D01*
X012149Y010392D01*
X012159Y010455D01*
X011745Y010455D01*
X011745Y010041D01*
X011808Y010051D01*
X011877Y010074D01*
X011952Y010115D02*
X012407Y010115D01*
X012308Y010213D02*
X012060Y010213D01*
X012120Y010312D02*
X012259Y010312D01*
X012220Y010410D02*
X012151Y010410D01*
X012220Y010509D02*
X011745Y010509D01*
X011745Y010545D02*
X012159Y010545D01*
X012149Y010608D01*
X012126Y010677D01*
X012093Y010741D01*
X012051Y010800D01*
X012000Y010851D01*
X011941Y010893D01*
X011877Y010926D01*
X011808Y010949D01*
X011745Y010959D01*
X011745Y010545D01*
X011745Y010607D02*
X011655Y010607D01*
X011655Y010545D02*
X011420Y010545D01*
X011420Y010455D01*
X011655Y010455D01*
X011655Y010545D01*
X011655Y010509D02*
X011420Y010509D01*
X011655Y010410D02*
X011745Y010410D01*
X011745Y010312D02*
X011655Y010312D01*
X011655Y010213D02*
X011745Y010213D01*
X011745Y010115D02*
X011655Y010115D01*
X011448Y010115D02*
X011326Y010115D01*
X011227Y010016D02*
X014680Y010016D01*
X013550Y009200D02*
X013550Y008500D01*
X013300Y008100D01*
X013280Y008539D02*
X013315Y008539D01*
X013330Y008637D02*
X013250Y008637D01*
X013181Y008736D02*
X013330Y008736D01*
X013330Y008834D02*
X011281Y008834D01*
X011322Y008736D02*
X012719Y008736D01*
X012822Y009031D02*
X013263Y009031D01*
X013222Y009130D02*
X013008Y009130D01*
X013107Y009228D02*
X013220Y009228D01*
X013245Y009327D02*
X013148Y009327D01*
X013180Y009425D02*
X013308Y009425D01*
X013330Y008933D02*
X011180Y008933D01*
X011008Y009130D02*
X011392Y009130D01*
X011293Y009228D02*
X011107Y009228D01*
X011148Y009327D02*
X011252Y009327D01*
X011220Y009425D02*
X011180Y009425D01*
X011180Y009524D02*
X011220Y009524D01*
X011231Y009622D02*
X011169Y009622D01*
X011128Y009721D02*
X011272Y009721D01*
X011340Y009819D02*
X011060Y009819D01*
X011129Y009918D02*
X011454Y009918D01*
X012149Y010607D02*
X012225Y010607D01*
X012266Y010706D02*
X012112Y010706D01*
X012047Y010804D02*
X012325Y010804D01*
X012424Y010903D02*
X011923Y010903D01*
X011745Y010903D02*
X011655Y010903D01*
X011655Y010804D02*
X011745Y010804D01*
X011745Y010706D02*
X011655Y010706D01*
X011477Y010903D02*
X011420Y010903D01*
X011420Y011001D02*
X013185Y011001D01*
X013170Y010903D02*
X012976Y010903D01*
X013075Y010804D02*
X013183Y010804D01*
X013228Y010706D02*
X013134Y010706D01*
X013175Y010607D02*
X013345Y010607D01*
X013500Y010900D02*
X014000Y011450D01*
X014000Y013000D01*
X013700Y013300D01*
X013700Y013500D01*
X012900Y014300D01*
X012900Y014850D01*
X012450Y014843D02*
X012197Y014843D01*
X012227Y014913D02*
X012122Y014661D01*
X011929Y014468D01*
X011677Y014363D01*
X011403Y014363D01*
X011151Y014468D01*
X010958Y014661D01*
X010853Y014913D01*
X010853Y015187D01*
X010958Y015439D01*
X011151Y015632D01*
X011403Y015737D01*
X011677Y015737D01*
X011929Y015632D01*
X012122Y015439D01*
X012227Y015187D01*
X012227Y014913D01*
X012227Y014941D02*
X012450Y014941D01*
X012453Y015040D02*
X012227Y015040D01*
X012227Y015138D02*
X012552Y015138D01*
X012650Y015237D02*
X012206Y015237D01*
X012165Y015335D02*
X015219Y015335D01*
X015168Y015237D02*
X014150Y015237D01*
X014248Y015138D02*
X015133Y015138D01*
X015114Y015040D02*
X014347Y015040D01*
X014120Y015434D02*
X015295Y015434D01*
X015407Y015532D02*
X014218Y015532D01*
X014317Y015631D02*
X015602Y015631D01*
X015770Y016320D02*
X015870Y016320D01*
X015870Y016289D02*
X015959Y016301D01*
X016049Y016325D01*
X016135Y016361D01*
X016216Y016408D01*
X016290Y016464D01*
X016355Y016530D01*
X016412Y016604D01*
X016459Y016685D01*
X016494Y016771D01*
X016519Y016861D01*
X016530Y016950D01*
X015870Y016950D01*
X015870Y016289D01*
X015870Y016419D02*
X015770Y016419D01*
X015770Y016517D02*
X015870Y016517D01*
X015870Y016616D02*
X015770Y016616D01*
X015770Y016714D02*
X015870Y016714D01*
X015870Y016813D02*
X015770Y016813D01*
X015770Y016911D02*
X015870Y016911D01*
X015870Y017010D02*
X017597Y017010D01*
X017597Y017108D02*
X016523Y017108D01*
X016500Y017207D02*
X017625Y017207D01*
X017597Y017140D02*
X017597Y016860D01*
X017704Y016602D01*
X017902Y016404D01*
X018160Y016297D01*
X018440Y016297D01*
X018698Y016404D01*
X018896Y016602D01*
X019003Y016860D01*
X019003Y017140D01*
X018896Y017398D01*
X018698Y017596D01*
X018440Y017703D01*
X018160Y017703D01*
X017902Y017596D01*
X017704Y017398D01*
X017597Y017140D01*
X017666Y017305D02*
X016463Y017305D01*
X016406Y017404D02*
X017710Y017404D01*
X017808Y017502D02*
X016323Y017502D01*
X016202Y017601D02*
X017913Y017601D01*
X018151Y017699D02*
X016186Y017699D01*
X016312Y017798D02*
X018375Y017798D01*
X018449Y017699D02*
X019050Y017699D01*
X019050Y017601D02*
X018687Y017601D01*
X018792Y017502D02*
X019050Y017502D01*
X019050Y017404D02*
X018890Y017404D01*
X018934Y017305D02*
X019050Y017305D01*
X019050Y017207D02*
X018975Y017207D01*
X019003Y017108D02*
X019050Y017108D01*
X019050Y017010D02*
X019003Y017010D01*
X019003Y016911D02*
X019050Y016911D01*
X019050Y016813D02*
X018983Y016813D01*
X018942Y016714D02*
X019050Y016714D01*
X019050Y016616D02*
X018901Y016616D01*
X018811Y016517D02*
X019050Y016517D01*
X019050Y016419D02*
X018712Y016419D01*
X018495Y016320D02*
X019050Y016320D01*
X019050Y016222D02*
X014165Y016222D01*
X014263Y016123D02*
X019050Y016123D01*
X019050Y016025D02*
X014350Y016025D01*
X014350Y015926D02*
X019050Y015926D01*
X019050Y015828D02*
X014350Y015828D01*
X014350Y015729D02*
X019050Y015729D01*
X018419Y015237D02*
X016949Y015237D01*
X017083Y015138D02*
X018239Y015138D01*
X018140Y015040D02*
X017141Y015040D01*
X017168Y014941D02*
X018061Y014941D01*
X018020Y014843D02*
X017211Y014843D01*
X017310Y014744D02*
X017979Y014744D01*
X017963Y014646D02*
X017408Y014646D01*
X017450Y014547D02*
X017963Y014547D01*
X017963Y014449D02*
X017450Y014449D01*
X017450Y014350D02*
X017989Y014350D01*
X018030Y014252D02*
X017450Y014252D01*
X017450Y014153D02*
X018071Y014153D01*
X018164Y014055D02*
X017450Y014055D01*
X017450Y013956D02*
X017547Y013956D01*
X017853Y013956D02*
X018263Y013956D01*
X018409Y013858D02*
X018021Y013858D01*
X018112Y013759D02*
X018320Y013759D01*
X018268Y013661D02*
X018153Y013661D01*
X018180Y013562D02*
X018244Y013562D01*
X018180Y013464D02*
X018655Y013464D01*
X018655Y013455D02*
X018655Y013150D01*
X018668Y013150D01*
X018686Y013155D01*
X018718Y013150D01*
X018745Y013150D01*
X018745Y013455D01*
X018655Y013455D01*
X018655Y013365D02*
X018745Y013365D01*
X018745Y013267D02*
X018655Y013267D01*
X018655Y013168D02*
X018745Y013168D01*
X018745Y013464D02*
X019050Y013464D01*
X018745Y013562D02*
X018655Y013562D01*
X018655Y013661D02*
X018745Y013661D01*
X018745Y013759D02*
X018655Y013759D01*
X018260Y013365D02*
X018164Y013365D01*
X018123Y013267D02*
X018303Y013267D01*
X018381Y013168D02*
X018047Y013168D01*
X016476Y014547D02*
X016405Y014547D01*
X016462Y014646D02*
X016534Y014646D01*
X016328Y014449D02*
X016321Y014449D01*
X016264Y014350D02*
X016198Y014350D01*
X015953Y013956D02*
X015853Y013956D01*
X014379Y013858D02*
X014021Y013858D01*
X014112Y013759D02*
X014288Y013759D01*
X014247Y013661D02*
X014153Y013661D01*
X014180Y013562D02*
X014220Y013562D01*
X014220Y013464D02*
X014180Y013464D01*
X014164Y013365D02*
X014236Y013365D01*
X014277Y013267D02*
X014123Y013267D01*
X014143Y013168D02*
X014353Y013168D01*
X013780Y012873D02*
X012525Y012873D01*
X012566Y012971D02*
X013718Y012971D01*
X013780Y012774D02*
X012445Y012774D01*
X012420Y012676D02*
X013780Y012676D01*
X013780Y012577D02*
X012420Y012577D01*
X012420Y012479D02*
X013780Y012479D01*
X013780Y012380D02*
X012420Y012380D01*
X012420Y012282D02*
X013780Y012282D01*
X013780Y012183D02*
X012420Y012183D01*
X012420Y012085D02*
X013780Y012085D01*
X013780Y011986D02*
X013458Y011986D01*
X013497Y011970D02*
X013375Y012020D01*
X013244Y012020D01*
X013123Y011970D01*
X013063Y011910D01*
X012699Y011910D01*
X012570Y011781D01*
X012519Y011730D01*
X012434Y011730D01*
X012313Y011680D01*
X012220Y011587D01*
X012170Y011466D01*
X012170Y011334D01*
X012220Y011213D01*
X012313Y011120D01*
X012434Y011070D01*
X012566Y011070D01*
X012687Y011120D01*
X012780Y011213D01*
X012830Y011334D01*
X012830Y011419D01*
X012881Y011470D01*
X013038Y011470D01*
X013128Y011380D01*
X013196Y011380D01*
X013244Y011360D01*
X013375Y011360D01*
X013497Y011410D01*
X013590Y011503D01*
X013640Y011625D01*
X013640Y011756D01*
X013590Y011877D01*
X013497Y011970D01*
X013579Y011888D02*
X013780Y011888D01*
X013780Y011789D02*
X013626Y011789D01*
X013640Y011691D02*
X013780Y011691D01*
X013780Y011592D02*
X013626Y011592D01*
X013580Y011494D02*
X013742Y011494D01*
X013653Y011395D02*
X013459Y011395D01*
X013563Y011297D02*
X012814Y011297D01*
X012830Y011395D02*
X013113Y011395D01*
X013357Y011198D02*
X012765Y011198D01*
X012637Y011100D02*
X013233Y011100D01*
X013220Y011600D02*
X013310Y011690D01*
X012790Y011690D01*
X012500Y011400D01*
X012339Y011691D02*
X012102Y011691D01*
X012200Y011789D02*
X012578Y011789D01*
X012570Y011781D02*
X012570Y011781D01*
X012676Y011888D02*
X012299Y011888D01*
X012397Y011986D02*
X013161Y011986D01*
X012225Y011592D02*
X012003Y011592D01*
X011905Y011494D02*
X012182Y011494D01*
X012170Y011395D02*
X011806Y011395D01*
X011708Y011297D02*
X012186Y011297D01*
X012235Y011198D02*
X011609Y011198D01*
X011511Y011100D02*
X012363Y011100D01*
X011085Y011297D02*
X010314Y011297D01*
X010265Y011198D02*
X010987Y011198D01*
X010980Y011100D02*
X010137Y011100D01*
X009976Y010903D02*
X010424Y010903D01*
X010325Y010804D02*
X010075Y010804D01*
X010134Y010706D02*
X010266Y010706D01*
X010225Y010607D02*
X010175Y010607D01*
X010180Y010509D02*
X010220Y010509D01*
X010220Y010410D02*
X010180Y010410D01*
X010141Y010312D02*
X010259Y010312D01*
X010302Y010213D02*
X010092Y010213D01*
X009993Y010115D02*
X010203Y010115D01*
X010105Y010016D02*
X009420Y010016D01*
X009420Y009918D02*
X009454Y009918D01*
X009946Y009918D02*
X010006Y009918D01*
X010420Y009031D02*
X010578Y009031D01*
X011000Y008650D02*
X011150Y008500D01*
X012950Y008500D01*
X010980Y010903D02*
X010976Y010903D01*
X010980Y011001D02*
X009812Y011001D01*
X009100Y011100D02*
X008700Y011400D01*
X008700Y013500D01*
X009047Y013168D02*
X009353Y013168D01*
X009293Y013228D02*
X009220Y013405D01*
X009220Y013595D01*
X009293Y013772D01*
X009428Y013907D01*
X009605Y013980D01*
X009795Y013980D01*
X009972Y013907D01*
X010107Y013772D01*
X010180Y013595D01*
X010180Y013405D01*
X010107Y013228D01*
X009972Y013093D01*
X009795Y013020D01*
X009605Y013020D01*
X009428Y013093D01*
X009293Y013228D01*
X009277Y013267D02*
X009123Y013267D01*
X009164Y013365D02*
X009236Y013365D01*
X009220Y013464D02*
X009180Y013464D01*
X009180Y013562D02*
X009220Y013562D01*
X009247Y013661D02*
X009153Y013661D01*
X009112Y013759D02*
X009288Y013759D01*
X009379Y013858D02*
X009021Y013858D01*
X008853Y013956D02*
X009547Y013956D01*
X009853Y013956D02*
X010547Y013956D01*
X010379Y013858D02*
X010021Y013858D01*
X010112Y013759D02*
X010288Y013759D01*
X010247Y013661D02*
X010153Y013661D01*
X010180Y013562D02*
X010220Y013562D01*
X010220Y013464D02*
X010180Y013464D01*
X010164Y013365D02*
X010236Y013365D01*
X010277Y013267D02*
X010123Y013267D01*
X010047Y013168D02*
X010353Y013168D01*
X010485Y013070D02*
X009915Y013070D01*
X009485Y013070D02*
X008920Y013070D01*
X008920Y012971D02*
X010580Y012971D01*
X010580Y012873D02*
X008920Y012873D01*
X008920Y012774D02*
X010580Y012774D01*
X010580Y012676D02*
X008920Y012676D01*
X008920Y012577D02*
X010580Y012577D01*
X010580Y012479D02*
X008920Y012479D01*
X008920Y012380D02*
X010580Y012380D01*
X010580Y012282D02*
X008920Y012282D01*
X008920Y012183D02*
X010580Y012183D01*
X010580Y012085D02*
X008920Y012085D01*
X008920Y011986D02*
X010520Y011986D01*
X010479Y011888D02*
X008920Y011888D01*
X008480Y012085D02*
X005951Y012085D01*
X006062Y012183D02*
X008480Y012183D01*
X008480Y012282D02*
X006129Y012282D01*
X006170Y012380D02*
X008480Y012380D01*
X008480Y012479D02*
X006180Y012479D01*
X006180Y012577D02*
X008480Y012577D01*
X008480Y012676D02*
X006260Y012676D01*
X006399Y012774D02*
X008480Y012774D01*
X008480Y012873D02*
X006420Y012873D01*
X006420Y012971D02*
X008480Y012971D01*
X008480Y013070D02*
X007915Y013070D01*
X007972Y013093D02*
X008107Y013228D01*
X008180Y013405D01*
X008180Y013595D01*
X008107Y013772D01*
X007972Y013907D01*
X007795Y013980D01*
X007605Y013980D01*
X007428Y013907D01*
X007293Y013772D01*
X007220Y013595D01*
X007220Y013405D01*
X007293Y013228D01*
X007428Y013093D01*
X007605Y013020D01*
X007795Y013020D01*
X007972Y013093D01*
X008047Y013168D02*
X008353Y013168D01*
X008277Y013267D02*
X008123Y013267D01*
X008164Y013365D02*
X008236Y013365D01*
X008220Y013464D02*
X008180Y013464D01*
X008180Y013562D02*
X008220Y013562D01*
X008247Y013661D02*
X008153Y013661D01*
X008112Y013759D02*
X008288Y013759D01*
X008379Y013858D02*
X008021Y013858D01*
X007853Y013956D02*
X008547Y013956D01*
X008470Y014384D02*
X008550Y014395D01*
X008635Y014417D01*
X008716Y014451D01*
X008791Y014494D01*
X008861Y014548D01*
X008922Y014609D01*
X008976Y014679D01*
X009019Y014754D01*
X009053Y014835D01*
X009075Y014920D01*
X009086Y015000D01*
X008470Y015000D01*
X008470Y015100D01*
X009086Y015100D01*
X009075Y015180D01*
X009053Y015265D01*
X009019Y015346D01*
X008976Y015421D01*
X008922Y015491D01*
X008861Y015552D01*
X008791Y015606D01*
X008716Y015649D01*
X008635Y015683D01*
X008550Y015705D01*
X008470Y015716D01*
X008470Y015100D01*
X008370Y015100D01*
X008370Y015716D01*
X008290Y015705D01*
X008205Y015683D01*
X008124Y015649D01*
X008049Y015606D01*
X007979Y015552D01*
X007918Y015491D01*
X007864Y015421D01*
X007821Y015346D01*
X007787Y015265D01*
X007765Y015180D01*
X007754Y015100D01*
X008370Y015100D01*
X008370Y015000D01*
X008470Y015000D01*
X008470Y014384D01*
X008470Y014449D02*
X008370Y014449D01*
X008370Y014384D02*
X008370Y015000D01*
X007754Y015000D01*
X007765Y014920D01*
X007787Y014835D01*
X007821Y014754D01*
X007864Y014679D01*
X007918Y014609D01*
X007979Y014548D01*
X008049Y014494D01*
X008124Y014451D01*
X008205Y014417D01*
X008290Y014395D01*
X008370Y014384D01*
X008370Y014547D02*
X008470Y014547D01*
X008470Y014646D02*
X008370Y014646D01*
X008370Y014744D02*
X008470Y014744D01*
X008470Y014843D02*
X008370Y014843D01*
X008370Y014941D02*
X008470Y014941D01*
X008470Y015040D02*
X009293Y015040D01*
X009293Y015138D02*
X009081Y015138D01*
X009060Y015237D02*
X009314Y015237D01*
X009293Y015187D02*
X009293Y014913D01*
X009398Y014661D01*
X009591Y014468D01*
X009843Y014363D01*
X010117Y014363D01*
X010369Y014468D01*
X010562Y014661D01*
X010667Y014913D01*
X010667Y015187D01*
X010562Y015439D01*
X010369Y015632D01*
X010117Y015737D01*
X009843Y015737D01*
X009591Y015632D01*
X009398Y015439D01*
X009293Y015187D01*
X009355Y015335D02*
X009024Y015335D01*
X008966Y015434D02*
X009396Y015434D01*
X009491Y015532D02*
X008881Y015532D01*
X008748Y015631D02*
X009589Y015631D01*
X009825Y015729D02*
X005820Y015729D01*
X005820Y015631D02*
X006207Y015631D01*
X006203Y015625D02*
X006223Y015659D01*
X006251Y015687D01*
X006285Y015707D01*
X006324Y015717D01*
X006810Y015717D01*
X006810Y015100D01*
X006910Y015100D01*
X007527Y015100D01*
X007527Y015586D01*
X007517Y015625D01*
X007497Y015659D01*
X007469Y015687D01*
X007435Y015707D01*
X007396Y015717D01*
X006910Y015717D01*
X006910Y015100D01*
X006910Y015000D01*
X007527Y015000D01*
X007527Y014514D01*
X007517Y014475D01*
X007497Y014441D01*
X007469Y014413D01*
X007435Y014393D01*
X007396Y014383D01*
X006910Y014383D01*
X006910Y015000D01*
X006810Y015000D01*
X006810Y014383D01*
X006324Y014383D01*
X006285Y014393D01*
X006251Y014413D01*
X006223Y014441D01*
X006203Y014475D01*
X006193Y014514D01*
X006193Y015000D01*
X006810Y015000D01*
X006810Y015100D01*
X006193Y015100D01*
X006193Y015586D01*
X006203Y015625D01*
X006193Y015532D02*
X005820Y015532D01*
X005820Y015434D02*
X006193Y015434D01*
X006193Y015335D02*
X005820Y015335D01*
X005820Y015237D02*
X006193Y015237D01*
X006193Y015138D02*
X005820Y015138D01*
X005820Y015040D02*
X006810Y015040D01*
X006810Y015138D02*
X006910Y015138D01*
X006910Y015040D02*
X008370Y015040D01*
X008370Y015138D02*
X008470Y015138D01*
X008470Y015237D02*
X008370Y015237D01*
X008370Y015335D02*
X008470Y015335D01*
X008470Y015434D02*
X008370Y015434D01*
X008370Y015532D02*
X008470Y015532D01*
X008470Y015631D02*
X008370Y015631D01*
X008092Y015631D02*
X007513Y015631D01*
X007527Y015532D02*
X007959Y015532D01*
X007874Y015434D02*
X007527Y015434D01*
X007527Y015335D02*
X007816Y015335D01*
X007780Y015237D02*
X007527Y015237D01*
X007527Y015138D02*
X007759Y015138D01*
X007762Y014941D02*
X007527Y014941D01*
X007527Y014843D02*
X007785Y014843D01*
X007827Y014744D02*
X007527Y014744D01*
X007527Y014646D02*
X007890Y014646D01*
X007980Y014547D02*
X007527Y014547D01*
X007501Y014449D02*
X008130Y014449D01*
X008710Y014449D02*
X009638Y014449D01*
X009512Y014547D02*
X008860Y014547D01*
X008950Y014646D02*
X009413Y014646D01*
X009363Y014744D02*
X009013Y014744D01*
X009055Y014843D02*
X009323Y014843D01*
X009293Y014941D02*
X009078Y014941D01*
X010135Y015729D02*
X011385Y015729D01*
X011695Y015729D02*
X012450Y015729D01*
X012450Y015828D02*
X005820Y015828D01*
X005820Y015926D02*
X012450Y015926D01*
X012450Y016025D02*
X005820Y016025D01*
X005820Y016123D02*
X012537Y016123D01*
X012512Y016222D02*
X005902Y016222D01*
X005380Y016123D02*
X003220Y016123D01*
X003220Y016025D02*
X005380Y016025D01*
X005380Y015926D02*
X003220Y015926D01*
X003220Y015828D02*
X005380Y015828D01*
X005380Y015729D02*
X003220Y015729D01*
X003220Y015631D02*
X005380Y015631D01*
X005380Y015532D02*
X003220Y015532D01*
X003220Y015434D02*
X004143Y015434D01*
X004014Y015335D02*
X003220Y015335D01*
X003220Y015237D02*
X003958Y015237D01*
X003932Y015138D02*
X003220Y015138D01*
X003220Y015040D02*
X003932Y015040D01*
X003967Y014941D02*
X003220Y014941D01*
X003220Y014843D02*
X004037Y014843D01*
X004050Y014744D02*
X003220Y014744D01*
X003220Y014646D02*
X004050Y014646D01*
X004011Y014547D02*
X003220Y014547D01*
X003263Y014449D02*
X003912Y014449D01*
X003850Y014350D02*
X003361Y014350D01*
X003460Y014252D02*
X003850Y014252D01*
X003850Y014153D02*
X003558Y014153D01*
X003657Y014055D02*
X003850Y014055D01*
X003908Y013956D02*
X003755Y013956D01*
X003854Y013858D02*
X004006Y013858D01*
X004050Y013759D02*
X003920Y013759D01*
X003920Y013661D02*
X004050Y013661D01*
X004050Y013562D02*
X003920Y013562D01*
X003920Y013464D02*
X004050Y013464D01*
X004050Y013365D02*
X003920Y013365D01*
X003920Y013267D02*
X004050Y013267D01*
X004050Y013168D02*
X003920Y013168D01*
X003920Y013070D02*
X004050Y013070D01*
X004050Y012971D02*
X003920Y012971D01*
X003920Y012873D02*
X004050Y012873D01*
X004050Y012774D02*
X003920Y012774D01*
X003920Y012676D02*
X004050Y012676D01*
X004050Y012577D02*
X003920Y012577D01*
X003920Y012479D02*
X004050Y012479D01*
X004050Y012380D02*
X003920Y012380D01*
X003920Y012282D02*
X004050Y012282D01*
X004063Y012183D02*
X003920Y012183D01*
X003920Y012085D02*
X004125Y012085D01*
X004224Y011986D02*
X003920Y011986D01*
X003920Y011888D02*
X004322Y011888D01*
X004420Y011789D02*
X003920Y011789D01*
X003920Y011691D02*
X004515Y011691D01*
X004544Y011592D02*
X004610Y011592D01*
X004643Y011494D02*
X004705Y011494D01*
X004741Y011395D02*
X004800Y011395D01*
X004750Y011297D02*
X004894Y011297D01*
X004600Y011000D02*
X005900Y011000D01*
X006200Y010700D01*
X005745Y010706D02*
X005655Y010706D01*
X005952Y010115D02*
X005980Y010115D01*
X005980Y010016D02*
X004750Y010016D01*
X004654Y009918D02*
X005454Y009918D01*
X005340Y009819D02*
X004555Y009819D01*
X004216Y009425D02*
X005220Y009425D01*
X005220Y009524D02*
X004109Y009524D01*
X004002Y009622D02*
X005231Y009622D01*
X005272Y009721D02*
X004024Y009721D01*
X004030Y009819D02*
X004045Y009819D01*
X003700Y009800D02*
X003700Y009600D01*
X004900Y008500D01*
X005700Y008500D01*
X005355Y008834D02*
X004861Y008834D01*
X004754Y008933D02*
X005490Y008933D01*
X005578Y009031D02*
X004646Y009031D01*
X004539Y009130D02*
X005392Y009130D01*
X005293Y009228D02*
X004431Y009228D01*
X004324Y009327D02*
X005252Y009327D01*
X005278Y008736D02*
X004969Y008736D01*
X005822Y009031D02*
X005980Y009031D01*
X005980Y008933D02*
X005910Y008933D01*
X006420Y009031D02*
X006578Y009031D01*
X006454Y009918D02*
X006420Y009918D01*
X006420Y010016D02*
X007950Y010016D01*
X007946Y009918D02*
X007950Y009918D01*
X008450Y011001D02*
X008784Y011001D01*
X008734Y011100D02*
X008429Y011100D01*
X008356Y011198D02*
X008591Y011198D01*
X008492Y011297D02*
X008257Y011297D01*
X008159Y011395D02*
X008478Y011395D01*
X007485Y013070D02*
X006915Y013070D01*
X007047Y013168D02*
X007353Y013168D01*
X007277Y013267D02*
X007123Y013267D01*
X007164Y013365D02*
X007236Y013365D01*
X007220Y013464D02*
X007180Y013464D01*
X007180Y013562D02*
X007220Y013562D01*
X007247Y013661D02*
X007153Y013661D01*
X007112Y013759D02*
X007288Y013759D01*
X007379Y013858D02*
X007021Y013858D01*
X006853Y013956D02*
X007547Y013956D01*
X006910Y014449D02*
X006810Y014449D01*
X006810Y014547D02*
X006910Y014547D01*
X006910Y014646D02*
X006810Y014646D01*
X006810Y014744D02*
X006910Y014744D01*
X006910Y014843D02*
X006810Y014843D01*
X006810Y014941D02*
X006910Y014941D01*
X006910Y015237D02*
X006810Y015237D01*
X006810Y015335D02*
X006910Y015335D01*
X006910Y015434D02*
X006810Y015434D01*
X006810Y015532D02*
X006910Y015532D01*
X006910Y015631D02*
X006810Y015631D01*
X006193Y014941D02*
X005820Y014941D01*
X005820Y014843D02*
X006193Y014843D01*
X006193Y014744D02*
X005820Y014744D01*
X005820Y014646D02*
X006193Y014646D01*
X006193Y014547D02*
X005820Y014547D01*
X005924Y014449D02*
X006219Y014449D01*
X006072Y014350D02*
X012680Y014350D01*
X012680Y014252D02*
X006219Y014252D01*
X006367Y014153D02*
X012736Y014153D01*
X012834Y014055D02*
X006420Y014055D01*
X006433Y013956D02*
X006547Y013956D01*
X006200Y014000D02*
X006200Y012900D01*
X005600Y012500D01*
X005700Y012500D01*
X005817Y012971D02*
X005910Y012971D01*
X005915Y013070D02*
X005980Y013070D01*
X006420Y013070D02*
X006485Y013070D01*
X005574Y014153D02*
X004750Y014153D01*
X004750Y014252D02*
X005426Y014252D01*
X005380Y014350D02*
X004750Y014350D01*
X004688Y014449D02*
X005368Y014449D01*
X005380Y014547D02*
X004589Y014547D01*
X004550Y014646D02*
X005380Y014646D01*
X005380Y014744D02*
X004550Y014744D01*
X004563Y014843D02*
X005380Y014843D01*
X005380Y014941D02*
X004633Y014941D01*
X004668Y015040D02*
X005380Y015040D01*
X005380Y015138D02*
X004668Y015138D01*
X004642Y015237D02*
X005380Y015237D01*
X005380Y015335D02*
X004586Y015335D01*
X004457Y015434D02*
X005380Y015434D01*
X005098Y016222D02*
X003714Y016222D01*
X003813Y016320D02*
X004215Y016320D01*
X004305Y016230D02*
X004450Y016230D01*
X004450Y016650D01*
X004550Y016650D01*
X004550Y016750D01*
X004970Y016750D01*
X004970Y016895D01*
X004695Y017170D01*
X004550Y017170D01*
X004550Y016750D01*
X004450Y016750D01*
X004450Y017170D01*
X004305Y017170D01*
X004030Y016895D01*
X004030Y016750D01*
X004450Y016750D01*
X004450Y016650D01*
X004030Y016650D01*
X004030Y016505D01*
X004305Y016230D01*
X004450Y016320D02*
X004550Y016320D01*
X004550Y016230D02*
X004695Y016230D01*
X004970Y016505D01*
X004970Y016650D01*
X004550Y016650D01*
X004550Y016230D01*
X004550Y016419D02*
X004450Y016419D01*
X004450Y016517D02*
X004550Y016517D01*
X004550Y016616D02*
X004450Y016616D01*
X004450Y016714D02*
X003990Y016714D01*
X003990Y016616D02*
X004030Y016616D01*
X004030Y016517D02*
X003990Y016517D01*
X003911Y016419D02*
X004117Y016419D01*
X004030Y016813D02*
X003990Y016813D01*
X003982Y016911D02*
X004046Y016911D01*
X004145Y017010D02*
X003883Y017010D01*
X003785Y017108D02*
X004243Y017108D01*
X004305Y017230D02*
X004450Y017230D01*
X004450Y017650D01*
X004550Y017650D01*
X004550Y017750D01*
X004970Y017750D01*
X004970Y017895D01*
X004695Y018170D01*
X004550Y018170D01*
X004550Y017750D01*
X004450Y017750D01*
X004450Y018170D01*
X004305Y018170D01*
X004030Y017895D01*
X004030Y017750D01*
X004450Y017750D01*
X004450Y017650D01*
X004030Y017650D01*
X004030Y017505D01*
X004305Y017230D01*
X004230Y017305D02*
X003985Y017305D01*
X003990Y017404D02*
X004132Y017404D01*
X004033Y017502D02*
X003990Y017502D01*
X003990Y017601D02*
X004030Y017601D01*
X003990Y017699D02*
X004450Y017699D01*
X004450Y017601D02*
X004550Y017601D01*
X004550Y017650D02*
X004550Y017230D01*
X004695Y017230D01*
X004970Y017505D01*
X004970Y017650D01*
X004550Y017650D01*
X004550Y017699D02*
X005010Y017699D01*
X005010Y017601D02*
X004970Y017601D01*
X004967Y017502D02*
X005010Y017502D01*
X005104Y017404D02*
X004868Y017404D01*
X004770Y017305D02*
X005202Y017305D01*
X005028Y017108D02*
X004757Y017108D01*
X004855Y017010D02*
X005010Y017010D01*
X005010Y016911D02*
X004954Y016911D01*
X004970Y016813D02*
X005010Y016813D01*
X005010Y016714D02*
X004550Y016714D01*
X004550Y016813D02*
X004450Y016813D01*
X004450Y016911D02*
X004550Y016911D01*
X004550Y017010D02*
X004450Y017010D01*
X004450Y017108D02*
X004550Y017108D01*
X004550Y017305D02*
X004450Y017305D01*
X004450Y017404D02*
X004550Y017404D01*
X004550Y017502D02*
X004450Y017502D01*
X004450Y017798D02*
X004550Y017798D01*
X004550Y017896D02*
X004450Y017896D01*
X004450Y017995D02*
X004550Y017995D01*
X004550Y018093D02*
X004450Y018093D01*
X004228Y018093D02*
X003987Y018093D01*
X003990Y017995D02*
X004130Y017995D01*
X004031Y017896D02*
X003990Y017896D01*
X003990Y017798D02*
X004030Y017798D01*
X003500Y017700D02*
X003500Y017400D01*
X003000Y016900D01*
X003000Y014400D01*
X003700Y013700D01*
X003700Y011100D01*
X003383Y011198D02*
X002741Y011198D01*
X002839Y011297D02*
X003430Y011297D01*
X003480Y011395D02*
X002840Y011395D01*
X002840Y011494D02*
X003480Y011494D01*
X003480Y011592D02*
X002840Y011592D01*
X002840Y011691D02*
X003480Y011691D01*
X003480Y011789D02*
X002754Y011789D01*
X002655Y011888D02*
X003480Y011888D01*
X003480Y011986D02*
X002557Y011986D01*
X002545Y012030D02*
X002820Y012305D01*
X002820Y012450D01*
X002400Y012450D01*
X002400Y012550D01*
X002300Y012550D01*
X002300Y012970D01*
X002155Y012970D01*
X001880Y012695D01*
X001880Y012550D01*
X002300Y012550D01*
X002300Y012450D01*
X001880Y012450D01*
X001880Y012305D01*
X002155Y012030D01*
X002300Y012030D01*
X002300Y012450D01*
X002400Y012450D01*
X002400Y012030D01*
X002545Y012030D01*
X002599Y012085D02*
X003480Y012085D01*
X003480Y012183D02*
X002698Y012183D01*
X002796Y012282D02*
X003480Y012282D01*
X003480Y012380D02*
X002820Y012380D01*
X002820Y012550D02*
X002820Y012695D01*
X002545Y012970D01*
X002400Y012970D01*
X002400Y012550D01*
X002820Y012550D01*
X002820Y012577D02*
X003480Y012577D01*
X003480Y012479D02*
X002400Y012479D01*
X002400Y012577D02*
X002300Y012577D01*
X002300Y012479D02*
X001840Y012479D01*
X001840Y012577D02*
X001880Y012577D01*
X001880Y012676D02*
X001840Y012676D01*
X001840Y012703D02*
X001553Y012990D01*
X001147Y012990D01*
X000860Y012703D01*
X000860Y012297D01*
X001147Y012010D01*
X001553Y012010D01*
X001840Y012297D01*
X001840Y012703D01*
X001769Y012774D02*
X001959Y012774D01*
X002058Y012873D02*
X001670Y012873D01*
X001572Y012971D02*
X003480Y012971D01*
X003480Y012873D02*
X002642Y012873D01*
X002741Y012774D02*
X003480Y012774D01*
X003480Y012676D02*
X002820Y012676D01*
X002400Y012676D02*
X002300Y012676D01*
X002300Y012774D02*
X002400Y012774D01*
X002400Y012873D02*
X002300Y012873D01*
X002147Y013010D02*
X002553Y013010D01*
X002840Y013297D01*
X002840Y013703D01*
X002553Y013990D01*
X002147Y013990D01*
X001860Y013703D01*
X001860Y013297D01*
X002147Y013010D01*
X002088Y013070D02*
X001800Y013070D01*
X001840Y013110D02*
X001840Y013890D01*
X001740Y013990D01*
X000960Y013990D01*
X000860Y013890D01*
X000860Y013110D01*
X000960Y013010D01*
X001740Y013010D01*
X001840Y013110D01*
X001840Y013168D02*
X001989Y013168D01*
X001891Y013267D02*
X001840Y013267D01*
X001840Y013365D02*
X001860Y013365D01*
X001860Y013464D02*
X001840Y013464D01*
X001840Y013562D02*
X001860Y013562D01*
X001860Y013661D02*
X001840Y013661D01*
X001840Y013759D02*
X001916Y013759D01*
X001840Y013858D02*
X002015Y013858D01*
X002113Y013956D02*
X001774Y013956D01*
X002587Y013956D02*
X003133Y013956D01*
X003231Y013858D02*
X002685Y013858D01*
X002784Y013759D02*
X003330Y013759D01*
X003428Y013661D02*
X002840Y013661D01*
X002840Y013562D02*
X003480Y013562D01*
X003480Y013464D02*
X002840Y013464D01*
X002840Y013365D02*
X003480Y013365D01*
X003480Y013267D02*
X002809Y013267D01*
X002711Y013168D02*
X003480Y013168D01*
X003480Y013070D02*
X002612Y013070D01*
X002400Y012380D02*
X002300Y012380D01*
X002300Y012282D02*
X002400Y012282D01*
X002400Y012183D02*
X002300Y012183D01*
X002300Y012085D02*
X002400Y012085D01*
X002143Y011986D02*
X001557Y011986D01*
X001553Y011990D02*
X001147Y011990D01*
X000860Y011703D01*
X000860Y011297D01*
X001147Y011010D01*
X001553Y011010D01*
X001840Y011297D01*
X001840Y011703D01*
X001553Y011990D01*
X001627Y012085D02*
X002101Y012085D01*
X002002Y012183D02*
X001726Y012183D01*
X001824Y012282D02*
X001904Y012282D01*
X001880Y012380D02*
X001840Y012380D01*
X001655Y011888D02*
X002045Y011888D01*
X001946Y011789D02*
X001754Y011789D01*
X001840Y011691D02*
X001860Y011691D01*
X001860Y011592D02*
X001840Y011592D01*
X001840Y011494D02*
X001860Y011494D01*
X001860Y011395D02*
X001840Y011395D01*
X001839Y011297D02*
X001861Y011297D01*
X001959Y011198D02*
X001741Y011198D01*
X001642Y011100D02*
X002058Y011100D01*
X002088Y010903D02*
X001640Y010903D01*
X001739Y010804D02*
X001989Y010804D01*
X001891Y010706D02*
X001837Y010706D01*
X001840Y010607D02*
X001880Y010607D01*
X001840Y010509D02*
X002300Y010509D01*
X002300Y010607D02*
X002400Y010607D01*
X002400Y010509D02*
X003972Y010509D01*
X004071Y010607D02*
X002820Y010607D01*
X002820Y010410D02*
X003086Y010410D01*
X002945Y010312D02*
X002820Y010312D01*
X003100Y010000D02*
X003200Y010100D01*
X003314Y010410D02*
X003874Y010410D01*
X003850Y010312D02*
X003455Y010312D01*
X003510Y010213D02*
X003850Y010213D01*
X003850Y010115D02*
X003803Y010115D01*
X003597Y010115D02*
X003530Y010115D01*
X003848Y010804D02*
X004060Y010804D01*
X004300Y011200D02*
X004400Y011200D01*
X004600Y011000D01*
X003957Y011494D02*
X003920Y011494D01*
X003920Y011592D02*
X004056Y011592D01*
X005019Y011888D02*
X005409Y011888D01*
X005310Y011789D02*
X005114Y011789D01*
X005946Y009918D02*
X005980Y009918D01*
X005980Y008046D02*
X005858Y008046D01*
X005874Y007948D02*
X005980Y007948D01*
X005980Y007061D02*
X005894Y007061D01*
X005980Y006963D02*
X005149Y006963D01*
X006420Y007061D02*
X006506Y007061D01*
X002400Y010706D02*
X002300Y010706D01*
X002300Y010804D02*
X002400Y010804D01*
X002400Y010903D02*
X002300Y010903D01*
X001880Y010410D02*
X001840Y010410D01*
X001840Y010312D02*
X001880Y010312D01*
X001058Y011100D02*
X000450Y011100D01*
X000450Y011198D02*
X000959Y011198D01*
X000861Y011297D02*
X000450Y011297D01*
X000450Y011395D02*
X000860Y011395D01*
X000860Y011494D02*
X000450Y011494D01*
X000450Y011592D02*
X000860Y011592D01*
X000860Y011691D02*
X000450Y011691D01*
X000450Y011789D02*
X000946Y011789D01*
X001045Y011888D02*
X000450Y011888D01*
X000450Y011986D02*
X001143Y011986D01*
X001073Y012085D02*
X000450Y012085D01*
X000450Y012183D02*
X000974Y012183D01*
X000876Y012282D02*
X000450Y012282D01*
X000450Y012380D02*
X000860Y012380D01*
X000860Y012479D02*
X000450Y012479D01*
X000450Y012577D02*
X000860Y012577D01*
X000860Y012676D02*
X000450Y012676D01*
X000450Y012774D02*
X000931Y012774D01*
X001030Y012873D02*
X000450Y012873D01*
X000450Y012971D02*
X001128Y012971D01*
X000900Y013070D02*
X000450Y013070D01*
X000450Y013168D02*
X000860Y013168D01*
X000860Y013267D02*
X000450Y013267D01*
X000450Y013365D02*
X000860Y013365D01*
X000860Y013464D02*
X000450Y013464D01*
X000450Y013562D02*
X000860Y013562D01*
X000860Y013661D02*
X000450Y013661D01*
X000450Y013759D02*
X000860Y013759D01*
X000860Y013858D02*
X000450Y013858D01*
X000450Y013956D02*
X000926Y013956D01*
X000450Y014055D02*
X003034Y014055D01*
X002936Y014153D02*
X000450Y014153D01*
X000450Y014252D02*
X002837Y014252D01*
X002780Y014350D02*
X000450Y014350D01*
X000450Y014449D02*
X002780Y014449D01*
X002780Y014547D02*
X000450Y014547D01*
X000450Y014646D02*
X002780Y014646D01*
X002780Y014744D02*
X000450Y014744D01*
X000450Y014843D02*
X002780Y014843D01*
X002780Y014941D02*
X000450Y014941D01*
X000450Y015040D02*
X002780Y015040D01*
X002780Y015138D02*
X000450Y015138D01*
X000450Y015237D02*
X002780Y015237D01*
X002780Y015335D02*
X000450Y015335D01*
X000450Y015434D02*
X002780Y015434D01*
X002780Y015532D02*
X000450Y015532D01*
X000450Y015631D02*
X002780Y015631D01*
X002780Y015729D02*
X000450Y015729D01*
X000450Y015828D02*
X002780Y015828D01*
X002780Y015926D02*
X000450Y015926D01*
X000450Y016025D02*
X002780Y016025D01*
X002780Y016123D02*
X000450Y016123D01*
X000450Y016222D02*
X002780Y016222D01*
X002780Y016320D02*
X000450Y016320D01*
X000450Y016419D02*
X002780Y016419D01*
X002780Y016517D02*
X000450Y016517D01*
X000450Y016616D02*
X001382Y016616D01*
X001534Y016560D02*
X001613Y016560D01*
X001866Y016560D01*
X002177Y016673D01*
X002177Y016673D01*
X002431Y016886D01*
X002431Y016886D01*
X002431Y016886D01*
X002597Y017174D01*
X002654Y017500D01*
X002597Y017826D01*
X002597Y017826D01*
X002431Y018114D01*
X002177Y018327D01*
X001866Y018440D01*
X001534Y018440D01*
X001223Y018327D01*
X000969Y018114D01*
X000803Y017826D01*
X000745Y017500D01*
X000803Y017174D01*
X000803Y017174D01*
X000969Y016886D01*
X001223Y016673D01*
X001534Y016560D01*
X001223Y016673D02*
X001223Y016673D01*
X001174Y016714D02*
X000450Y016714D01*
X000450Y016813D02*
X001057Y016813D01*
X000969Y016886D02*
X000969Y016886D01*
X000955Y016911D02*
X000450Y016911D01*
X000450Y017010D02*
X000898Y017010D01*
X000841Y017108D02*
X000450Y017108D01*
X000450Y017207D02*
X000797Y017207D01*
X000780Y017305D02*
X000450Y017305D01*
X000450Y017404D02*
X000763Y017404D01*
X000745Y017500D02*
X000745Y017500D01*
X000746Y017502D02*
X000450Y017502D01*
X000450Y017601D02*
X000763Y017601D01*
X000781Y017699D02*
X000456Y017699D01*
X000473Y017798D02*
X000798Y017798D01*
X000803Y017826D02*
X000803Y017826D01*
X000843Y017896D02*
X000499Y017896D01*
X000525Y017995D02*
X000900Y017995D01*
X000957Y018093D02*
X000568Y018093D01*
X000625Y018192D02*
X001062Y018192D01*
X000969Y018114D02*
X000969Y018114D01*
X001179Y018290D02*
X000682Y018290D01*
X000776Y018389D02*
X001393Y018389D01*
X001534Y018440D02*
X001534Y018440D01*
X001240Y018684D02*
X006308Y018684D01*
X006188Y018586D02*
X001027Y018586D01*
X000875Y018487D02*
X006067Y018487D01*
X005947Y018389D02*
X002007Y018389D01*
X002177Y018327D02*
X002177Y018327D01*
X002221Y018290D02*
X005826Y018290D01*
X005706Y018192D02*
X002338Y018192D01*
X002431Y018114D02*
X002431Y018114D01*
X002443Y018093D02*
X003013Y018093D01*
X003010Y017995D02*
X002500Y017995D01*
X002557Y017896D02*
X003010Y017896D01*
X003010Y017798D02*
X002602Y017798D01*
X002619Y017699D02*
X003010Y017699D01*
X003010Y017601D02*
X002637Y017601D01*
X002654Y017502D02*
X003010Y017502D01*
X003010Y017404D02*
X002637Y017404D01*
X002654Y017500D02*
X002654Y017500D01*
X002620Y017305D02*
X003015Y017305D01*
X002995Y017207D02*
X002603Y017207D01*
X002597Y017174D02*
X002597Y017174D01*
X002559Y017108D02*
X002897Y017108D01*
X002798Y017010D02*
X002502Y017010D01*
X002445Y016911D02*
X002780Y016911D01*
X002780Y016813D02*
X002343Y016813D01*
X002226Y016714D02*
X002780Y016714D01*
X002780Y016616D02*
X002018Y016616D01*
X003220Y016222D02*
X003286Y016222D01*
X003618Y017207D02*
X006469Y017207D01*
X006478Y017177D02*
X006450Y017264D01*
X006436Y017352D01*
X006967Y017352D01*
X006967Y017448D01*
X006436Y017448D01*
X006450Y017536D01*
X006478Y017623D01*
X006520Y017704D01*
X006573Y017778D01*
X006638Y017842D01*
X006712Y017896D01*
X006793Y017938D01*
X006880Y017966D01*
X006967Y017980D01*
X006967Y017448D01*
X007064Y017448D01*
X007595Y017448D01*
X007581Y017536D01*
X007553Y017623D01*
X007512Y017704D01*
X007458Y017778D01*
X007394Y017842D01*
X007320Y017896D01*
X008632Y017896D01*
X008644Y017909D02*
X008476Y017740D01*
X008384Y017519D01*
X008384Y017281D01*
X008476Y017060D01*
X008644Y016891D01*
X008865Y016800D01*
X009104Y016800D01*
X009324Y016891D01*
X009493Y017060D01*
X009584Y017281D01*
X009584Y017519D01*
X009493Y017740D01*
X009324Y017909D01*
X009104Y018000D01*
X008865Y018000D01*
X008644Y017909D01*
X008533Y017798D02*
X007438Y017798D01*
X007514Y017699D02*
X008459Y017699D01*
X008418Y017601D02*
X007560Y017601D01*
X007587Y017502D02*
X008384Y017502D01*
X008384Y017404D02*
X007064Y017404D01*
X007064Y017448D02*
X007064Y017352D01*
X007595Y017352D01*
X007581Y017264D01*
X007553Y017177D01*
X007512Y017096D01*
X007458Y017022D01*
X007394Y016958D01*
X007320Y016904D01*
X007238Y016862D01*
X007152Y016834D01*
X007064Y016820D01*
X007064Y017352D01*
X006967Y017352D01*
X006967Y016820D01*
X006880Y016834D01*
X006793Y016862D01*
X006712Y016904D01*
X006638Y016958D01*
X006573Y017022D01*
X006520Y017096D01*
X006478Y017177D01*
X006514Y017108D02*
X005972Y017108D01*
X005990Y017010D02*
X006586Y017010D01*
X006702Y016911D02*
X005990Y016911D01*
X005990Y016813D02*
X008835Y016813D01*
X008625Y016911D02*
X007329Y016911D01*
X007446Y017010D02*
X008526Y017010D01*
X008456Y017108D02*
X007518Y017108D01*
X007563Y017207D02*
X008415Y017207D01*
X008384Y017305D02*
X007588Y017305D01*
X007064Y017305D02*
X006967Y017305D01*
X006967Y017207D02*
X007064Y017207D01*
X007064Y017108D02*
X006967Y017108D01*
X006967Y017010D02*
X007064Y017010D01*
X007064Y016911D02*
X006967Y016911D01*
X006444Y017305D02*
X005798Y017305D01*
X005896Y017404D02*
X006967Y017404D01*
X006967Y017502D02*
X007064Y017502D01*
X007064Y017448D02*
X007064Y017980D01*
X007152Y017966D01*
X007238Y017938D01*
X007320Y017896D01*
X007064Y017896D02*
X006967Y017896D01*
X006967Y017798D02*
X007064Y017798D01*
X007064Y017699D02*
X006967Y017699D01*
X006967Y017601D02*
X007064Y017601D01*
X006712Y017896D02*
X006134Y017896D01*
X006014Y017798D02*
X006593Y017798D01*
X006517Y017699D02*
X005990Y017699D01*
X005990Y017601D02*
X006471Y017601D01*
X006445Y017502D02*
X005990Y017502D01*
X006255Y017995D02*
X008852Y017995D01*
X009117Y017995D02*
X009931Y017995D01*
X009838Y018093D02*
X006375Y018093D01*
X006496Y018192D02*
X009744Y018192D01*
X009650Y018290D02*
X006616Y018290D01*
X005200Y018093D02*
X004772Y018093D01*
X004870Y017995D02*
X005102Y017995D01*
X005010Y017896D02*
X004969Y017896D01*
X004970Y017798D02*
X005010Y017798D01*
X004970Y016616D02*
X005010Y016616D01*
X005010Y016517D02*
X004970Y016517D01*
X005010Y016419D02*
X004883Y016419D01*
X004785Y016320D02*
X005010Y016320D01*
X009134Y016813D02*
X011057Y016813D01*
X010963Y016911D02*
X009344Y016911D01*
X009442Y017010D02*
X010869Y017010D01*
X010776Y017108D02*
X009513Y017108D01*
X009554Y017207D02*
X010682Y017207D01*
X010588Y017305D02*
X009584Y017305D01*
X009584Y017404D02*
X010494Y017404D01*
X010400Y017502D02*
X009584Y017502D01*
X009551Y017601D02*
X010307Y017601D01*
X010213Y017699D02*
X009510Y017699D01*
X009435Y017798D02*
X010119Y017798D01*
X010025Y017896D02*
X009337Y017896D01*
X010528Y018093D02*
X013228Y018093D01*
X013130Y017995D02*
X010622Y017995D01*
X010716Y017896D02*
X013031Y017896D01*
X013030Y017798D02*
X010809Y017798D01*
X010903Y017699D02*
X013450Y017699D01*
X013450Y017650D02*
X013030Y017650D01*
X013030Y017505D01*
X013305Y017230D01*
X013450Y017230D01*
X013450Y017650D01*
X013450Y017601D02*
X013550Y017601D01*
X013550Y017650D02*
X013550Y017230D01*
X013695Y017230D01*
X013970Y017505D01*
X013970Y017650D01*
X013550Y017650D01*
X013550Y017699D02*
X014010Y017699D01*
X014010Y017601D02*
X013970Y017601D01*
X013967Y017502D02*
X014010Y017502D01*
X014010Y017404D02*
X013868Y017404D01*
X013770Y017305D02*
X014015Y017305D01*
X014010Y017310D02*
X014110Y017210D01*
X014890Y017210D01*
X014990Y017310D01*
X014990Y018090D01*
X014890Y018190D01*
X014110Y018190D01*
X014010Y018090D01*
X014010Y017310D01*
X013550Y017305D02*
X013450Y017305D01*
X013450Y017404D02*
X013550Y017404D01*
X013550Y017502D02*
X013450Y017502D01*
X013230Y017305D02*
X011279Y017305D01*
X011372Y017207D02*
X015139Y017207D01*
X015117Y017108D02*
X011466Y017108D01*
X011560Y017010D02*
X015770Y017010D01*
X015316Y017502D02*
X014990Y017502D01*
X014990Y017404D02*
X015233Y017404D01*
X015176Y017305D02*
X014985Y017305D01*
X014990Y017601D02*
X015438Y017601D01*
X015453Y017699D02*
X014990Y017699D01*
X014990Y017798D02*
X015327Y017798D01*
X015228Y017896D02*
X014990Y017896D01*
X014990Y017995D02*
X015171Y017995D01*
X015130Y018093D02*
X014987Y018093D01*
X015089Y018192D02*
X013956Y018192D01*
X014012Y018290D02*
X015089Y018290D01*
X015089Y018389D02*
X014012Y018389D01*
X013968Y018487D02*
X015090Y018487D01*
X015131Y018586D02*
X014012Y018586D01*
X014012Y018684D02*
X015172Y018684D01*
X016468Y018684D02*
X017997Y018684D01*
X017963Y018586D02*
X016509Y018586D01*
X016549Y018487D02*
X017963Y018487D01*
X017963Y018389D02*
X016551Y018389D01*
X016551Y018290D02*
X017971Y018290D01*
X018012Y018192D02*
X016550Y018192D01*
X016509Y018093D02*
X018053Y018093D01*
X018122Y017995D02*
X016468Y017995D01*
X016411Y017896D02*
X018221Y017896D01*
X019013Y017798D02*
X019050Y017798D01*
X017597Y016911D02*
X016525Y016911D01*
X016506Y016813D02*
X017617Y016813D01*
X017658Y016714D02*
X016471Y016714D01*
X016419Y016616D02*
X017699Y016616D01*
X017789Y016517D02*
X016342Y016517D01*
X016230Y016419D02*
X017888Y016419D01*
X018105Y016320D02*
X016029Y016320D01*
X015114Y016911D02*
X011654Y016911D01*
X011185Y017404D02*
X013132Y017404D01*
X013033Y017502D02*
X011091Y017502D01*
X010997Y017601D02*
X013030Y017601D01*
X012704Y018192D02*
X012681Y018192D01*
X012392Y018192D02*
X012058Y018192D01*
X012156Y018290D02*
X012336Y018290D01*
X011287Y018192D02*
X011009Y018192D01*
X011065Y018290D02*
X011189Y018290D01*
X013772Y018093D02*
X014013Y018093D01*
X014010Y017995D02*
X013870Y017995D01*
X013969Y017896D02*
X014010Y017896D01*
X014010Y017798D02*
X013970Y017798D01*
X012483Y015631D02*
X011931Y015631D01*
X012029Y015532D02*
X012582Y015532D01*
X012680Y015434D02*
X012124Y015434D01*
X012157Y014744D02*
X012450Y014744D01*
X012468Y014646D02*
X012107Y014646D01*
X012008Y014547D02*
X012567Y014547D01*
X012665Y014449D02*
X011882Y014449D01*
X011853Y013956D02*
X012547Y013956D01*
X012379Y013858D02*
X012021Y013858D01*
X012112Y013759D02*
X012288Y013759D01*
X012247Y013661D02*
X012153Y013661D01*
X012180Y013562D02*
X012220Y013562D01*
X012220Y013464D02*
X012180Y013464D01*
X011834Y012971D02*
X011020Y012971D01*
X011020Y012873D02*
X011875Y012873D01*
X011485Y013070D02*
X011020Y013070D01*
X011047Y013168D02*
X011353Y013168D01*
X011277Y013267D02*
X011123Y013267D01*
X011164Y013365D02*
X011236Y013365D01*
X011220Y013464D02*
X011180Y013464D01*
X011180Y013562D02*
X011220Y013562D01*
X011247Y013661D02*
X011153Y013661D01*
X011112Y013759D02*
X011288Y013759D01*
X011379Y013858D02*
X011021Y013858D01*
X010853Y013956D02*
X011547Y013956D01*
X011198Y014449D02*
X010322Y014449D01*
X010448Y014547D02*
X011072Y014547D01*
X010973Y014646D02*
X010547Y014646D01*
X010597Y014744D02*
X010923Y014744D01*
X010883Y014843D02*
X010637Y014843D01*
X010667Y014941D02*
X010853Y014941D01*
X010853Y015040D02*
X010667Y015040D01*
X010667Y015138D02*
X010853Y015138D01*
X010874Y015237D02*
X010646Y015237D01*
X010605Y015335D02*
X010915Y015335D01*
X010956Y015434D02*
X010564Y015434D01*
X010469Y015532D02*
X011051Y015532D01*
X011149Y015631D02*
X010371Y015631D01*
X010700Y013500D02*
X010800Y013400D01*
X010800Y011800D01*
X012915Y013070D02*
X013485Y013070D01*
X013353Y013168D02*
X013047Y013168D01*
X013123Y013267D02*
X013277Y013267D01*
X013236Y013365D02*
X013164Y013365D01*
X013180Y013464D02*
X013220Y013464D01*
X013220Y013562D02*
X013180Y013562D01*
X013153Y013661D02*
X013228Y013661D01*
X013130Y013759D02*
X013112Y013759D01*
X013031Y013858D02*
X013021Y013858D01*
X012933Y013956D02*
X012853Y013956D01*
X019038Y007160D02*
X019050Y007160D01*
X018550Y005485D02*
X018450Y005485D01*
X018450Y005387D02*
X018550Y005387D01*
X018550Y005288D02*
X018450Y005288D01*
M02*
