%
M48
M72
T01C0.0130
T02C0.0200
T03C0.0400
T04C0.1260
%
T01
X3063Y3250
X3688Y3750
X4375Y4750
X5063Y4500
X5625Y4813
X4938Y5813
X5563Y5938
X5563Y6563
X5625Y6938
X6063Y7250
X6500Y7313
X6000Y7813
X5000Y7875
X4063Y7313
X4063Y6875
X4313Y6313
X3125Y6250
X2750Y6063
X2375Y6563
X2125Y6250
X2188Y5500
X2625Y5063
X3125Y5000
X2563Y4500
X2500Y4125
X1663Y3888
X938Y4438
X1000Y4813
X1000Y5188
X1188Y6938
X1500Y7313
X1938Y7250
X3063Y7875
X4063Y10125
X4875Y11188
X5625Y11375
X6000Y11688
X6188Y10688
X6563Y10688
X7188Y11000
X8000Y11500
X9000Y12125
X9125Y13625
X9900Y13575
X10600Y14375
X11400Y14300
X12000Y13875
X12875Y13375
X13350Y13300
X13375Y13775
X11975Y12675
X11175Y11950
X11000Y12375
X11950Y11575
X11000Y10875
X13000Y11175
X12950Y11950
X13000Y10250
X10000Y7750
X9888Y7075
X9888Y6760
X10400Y6760
X10400Y7075
X10912Y7075
X10912Y6760
X10912Y6130
X10912Y5815
X10400Y5815
X10400Y6130
X9888Y6130
X9888Y5815
X9888Y5185
X9888Y4870
X10400Y4870
X10400Y5185
X10912Y5185
X10912Y4870
X10912Y4240
X10912Y3925
X10400Y3925
X10400Y4240
X9888Y4240
X9888Y3925
X9938Y3500
X8188Y3713
X7813Y4125
X7063Y3375
X8000Y2813
X7813Y4938
X7813Y5563
X7188Y6250
X6813Y6250
X6750Y5625
X7813Y6438
X7188Y7313
X8063Y7750
X8838Y7325
X9238Y7325
X9000Y5425
X11688Y5625
X12563Y6625
X13410Y6390
X13688Y5188
X12063Y4313
X8000Y513
X5425Y3763
X3000Y10938
T02
X100Y50
X0Y200
X0Y600
X0Y1000
X0Y1400
X0Y1800
X0Y2200
X0Y2600
X500Y50
X900Y50
X1300Y50
X1700Y50
X2100Y50
X2500Y50
X11500Y50
X11900Y50
X12300Y50
X12700Y50
X13100Y50
X13500Y50
X13900Y50
X14000Y200
X14000Y600
X14000Y1000
X14000Y1400
X14000Y1800
X14000Y2200
X14000Y2600
X14000Y12350
X14000Y12750
X14000Y13150
X14000Y13550
X14000Y13950
X14000Y14350
X14000Y14750
X13900Y14900
X13500Y14900
X13100Y14900
X12700Y14900
X12300Y14900
X11900Y14900
X11500Y14900
X2500Y14900
X2100Y14900
X1700Y14900
X1300Y14900
X900Y14900
X500Y14900
X100Y14900
X0Y14750
X0Y14350
X0Y13950
X0Y13550
X0Y13150
X0Y12750
X0Y12350
T03
X1500Y12500
X2500Y12500
X3500Y12500
X3500Y13500
X2500Y13500
X1500Y13500
X4500Y13500
X5500Y13500
X6500Y13500
X7500Y13500
X7500Y12500
X6500Y12500
X5500Y12500
X4500Y12500
X4500Y9500
X5500Y9500
X6500Y9500
X7500Y9500
X7500Y8500
X6500Y8500
X5500Y8500
X4500Y8500
X3500Y8500
X2500Y8500
X1500Y8500
X500Y8500
X500Y9500
X1500Y9500
X2500Y9500
X3500Y9500
X8500Y9500
X9500Y9500
X10500Y9500
X11500Y9500
X11500Y8500
X10500Y8500
X9500Y8500
X8500Y8500
X12500Y8500
X13500Y8500
X13500Y9500
X12500Y9500
X8500Y12500
X8500Y13500
X8500Y2500
X8500Y1500
X9500Y1500
X9500Y2500
X10500Y2500
X10500Y1500
X11500Y1500
X11500Y2500
X12500Y2500
X12500Y1500
X13500Y1500
X13500Y2500
X7500Y2500
X7500Y1500
X6500Y1500
X6500Y2500
X5500Y2500
X5500Y1500
X4500Y1500
X4500Y2500
X3500Y2500
X3500Y1500
X2500Y1500
X2500Y2500
X1500Y2500
X1500Y1500
X500Y1500
X500Y2500
T04
X-1476Y1378
X1280Y-1378
X12697Y-1378
X15453Y1378
X15453Y13583
X12697Y16339
X1280Y16339
X-1476Y13583
M30
