G75*
G70*
%OFA0B0*%
%FSLAX24Y24*%
%IPPOS*%
%LPD*%
%AMOC8*
5,1,8,0,0,1.08239X$1,22.5*
%
%ADD10C,0.0000*%
%ADD11C,0.0090*%
%ADD12C,0.0060*%
%ADD13C,0.0070*%
%ADD14C,0.0100*%
%ADD15C,0.0080*%
D10*
X001600Y004500D02*
X017900Y004500D01*
X017973Y004502D01*
X018046Y004508D01*
X018119Y004517D01*
X018191Y004531D01*
X018262Y004548D01*
X018333Y004569D01*
X018402Y004593D01*
X018469Y004621D01*
X018536Y004653D01*
X018600Y004688D01*
X018662Y004726D01*
X018723Y004767D01*
X018781Y004812D01*
X018837Y004860D01*
X018890Y004910D01*
X018940Y004963D01*
X018988Y005019D01*
X019033Y005077D01*
X019074Y005138D01*
X019112Y005200D01*
X019147Y005264D01*
X019179Y005331D01*
X019207Y005398D01*
X019231Y005467D01*
X019252Y005538D01*
X019269Y005609D01*
X019283Y005681D01*
X019292Y005754D01*
X019298Y005827D01*
X019300Y005900D01*
X019300Y017600D01*
X017847Y017000D02*
X017849Y017042D01*
X017855Y017084D01*
X017865Y017126D01*
X017878Y017166D01*
X017896Y017205D01*
X017917Y017242D01*
X017941Y017276D01*
X017969Y017309D01*
X017999Y017339D01*
X018032Y017365D01*
X018067Y017389D01*
X018105Y017409D01*
X018144Y017425D01*
X018184Y017438D01*
X018226Y017447D01*
X018268Y017452D01*
X018311Y017453D01*
X018353Y017450D01*
X018395Y017443D01*
X018436Y017432D01*
X018476Y017417D01*
X018514Y017399D01*
X018551Y017377D01*
X018585Y017352D01*
X018617Y017324D01*
X018645Y017293D01*
X018671Y017259D01*
X018694Y017223D01*
X018713Y017186D01*
X018729Y017146D01*
X018741Y017105D01*
X018749Y017064D01*
X018753Y017021D01*
X018753Y016979D01*
X018749Y016936D01*
X018741Y016895D01*
X018729Y016854D01*
X018713Y016814D01*
X018694Y016777D01*
X018671Y016741D01*
X018645Y016707D01*
X018617Y016676D01*
X018585Y016648D01*
X018551Y016623D01*
X018514Y016601D01*
X018476Y016583D01*
X018436Y016568D01*
X018395Y016557D01*
X018353Y016550D01*
X018311Y016547D01*
X018268Y016548D01*
X018226Y016553D01*
X018184Y016562D01*
X018144Y016575D01*
X018105Y016591D01*
X018067Y016611D01*
X018032Y016635D01*
X017999Y016661D01*
X017969Y016691D01*
X017941Y016724D01*
X017917Y016758D01*
X017896Y016795D01*
X017878Y016834D01*
X017865Y016874D01*
X017855Y016916D01*
X017849Y016958D01*
X017847Y017000D01*
X019300Y017600D02*
X019298Y017673D01*
X019292Y017746D01*
X019283Y017819D01*
X019269Y017891D01*
X019252Y017962D01*
X019231Y018033D01*
X019207Y018102D01*
X019179Y018169D01*
X019147Y018236D01*
X019112Y018300D01*
X019074Y018362D01*
X019033Y018423D01*
X018988Y018481D01*
X018940Y018537D01*
X018890Y018590D01*
X018837Y018640D01*
X018781Y018688D01*
X018723Y018733D01*
X018662Y018774D01*
X018600Y018812D01*
X018536Y018847D01*
X018469Y018879D01*
X018402Y018907D01*
X018333Y018931D01*
X018262Y018952D01*
X018191Y018969D01*
X018119Y018983D01*
X018046Y018992D01*
X017973Y018998D01*
X017900Y019000D01*
X001600Y019000D01*
X001527Y018998D01*
X001454Y018992D01*
X001381Y018983D01*
X001309Y018969D01*
X001238Y018952D01*
X001167Y018931D01*
X001098Y018907D01*
X001031Y018879D01*
X000964Y018847D01*
X000900Y018812D01*
X000838Y018774D01*
X000777Y018733D01*
X000719Y018688D01*
X000663Y018640D01*
X000610Y018590D01*
X000560Y018537D01*
X000512Y018481D01*
X000467Y018423D01*
X000426Y018362D01*
X000388Y018300D01*
X000353Y018236D01*
X000321Y018169D01*
X000293Y018102D01*
X000269Y018033D01*
X000248Y017962D01*
X000231Y017891D01*
X000217Y017819D01*
X000208Y017746D01*
X000202Y017673D01*
X000200Y017600D01*
X000200Y005900D01*
X000202Y005827D01*
X000208Y005754D01*
X000217Y005681D01*
X000231Y005609D01*
X000248Y005538D01*
X000269Y005467D01*
X000293Y005398D01*
X000321Y005331D01*
X000353Y005264D01*
X000388Y005200D01*
X000426Y005138D01*
X000467Y005077D01*
X000512Y005019D01*
X000560Y004963D01*
X000610Y004910D01*
X000663Y004860D01*
X000719Y004812D01*
X000777Y004767D01*
X000838Y004726D01*
X000900Y004688D01*
X000964Y004653D01*
X001031Y004621D01*
X001098Y004593D01*
X001167Y004569D01*
X001238Y004548D01*
X001309Y004531D01*
X001381Y004517D01*
X001454Y004508D01*
X001527Y004502D01*
X001600Y004500D01*
X001070Y017500D02*
X001072Y017550D01*
X001078Y017600D01*
X001088Y017649D01*
X001102Y017697D01*
X001119Y017744D01*
X001140Y017789D01*
X001165Y017833D01*
X001193Y017874D01*
X001225Y017913D01*
X001259Y017950D01*
X001296Y017984D01*
X001336Y018014D01*
X001378Y018041D01*
X001422Y018065D01*
X001468Y018086D01*
X001515Y018102D01*
X001563Y018115D01*
X001613Y018124D01*
X001662Y018129D01*
X001713Y018130D01*
X001763Y018127D01*
X001812Y018120D01*
X001861Y018109D01*
X001909Y018094D01*
X001955Y018076D01*
X002000Y018054D01*
X002043Y018028D01*
X002084Y017999D01*
X002123Y017967D01*
X002159Y017932D01*
X002191Y017894D01*
X002221Y017854D01*
X002248Y017811D01*
X002271Y017767D01*
X002290Y017721D01*
X002306Y017673D01*
X002318Y017624D01*
X002326Y017575D01*
X002330Y017525D01*
X002330Y017475D01*
X002326Y017425D01*
X002318Y017376D01*
X002306Y017327D01*
X002290Y017279D01*
X002271Y017233D01*
X002248Y017189D01*
X002221Y017146D01*
X002191Y017106D01*
X002159Y017068D01*
X002123Y017033D01*
X002084Y017001D01*
X002043Y016972D01*
X002000Y016946D01*
X001955Y016924D01*
X001909Y016906D01*
X001861Y016891D01*
X001812Y016880D01*
X001763Y016873D01*
X001713Y016870D01*
X001662Y016871D01*
X001613Y016876D01*
X001563Y016885D01*
X001515Y016898D01*
X001468Y016914D01*
X001422Y016935D01*
X001378Y016959D01*
X001336Y016986D01*
X001296Y017016D01*
X001259Y017050D01*
X001225Y017087D01*
X001193Y017126D01*
X001165Y017167D01*
X001140Y017211D01*
X001119Y017256D01*
X001102Y017303D01*
X001088Y017351D01*
X001078Y017400D01*
X001072Y017450D01*
X001070Y017500D01*
D11*
X007195Y012671D02*
X007195Y012130D01*
X007330Y011995D01*
X007735Y011995D01*
X007735Y012806D01*
X007330Y012806D01*
X007195Y012671D01*
X008023Y012671D02*
X008159Y012806D01*
X008429Y012806D01*
X008564Y012671D01*
X008564Y012535D01*
X008429Y012400D01*
X008159Y012400D01*
X008023Y012265D01*
X008023Y012130D01*
X008159Y011995D01*
X008429Y011995D01*
X008564Y012130D01*
X009681Y011995D02*
X010221Y012535D01*
X010639Y012535D02*
X010639Y011995D01*
X010774Y011995D02*
X010504Y011995D01*
X010221Y011995D02*
X009681Y012535D01*
X010639Y012535D02*
X010774Y012535D01*
X011059Y012535D02*
X011194Y012535D01*
X011464Y012265D01*
X011464Y011995D02*
X011464Y012535D01*
X011747Y012535D02*
X012017Y012535D01*
X011882Y012671D02*
X011882Y012130D01*
X011747Y011995D01*
X012305Y011995D02*
X012710Y011995D01*
X012846Y012130D01*
X012710Y012265D01*
X012305Y012265D01*
X012305Y012400D02*
X012305Y011995D01*
X012305Y012400D02*
X012440Y012535D01*
X012710Y012535D01*
X013134Y012806D02*
X013134Y011995D01*
X013674Y011995D02*
X013674Y012806D01*
X013404Y012535D01*
X013134Y012806D01*
X013957Y012535D02*
X014227Y012535D01*
X014092Y012671D02*
X014092Y012130D01*
X013957Y011995D01*
X014512Y012535D02*
X014647Y012535D01*
X014917Y012265D01*
X014917Y011995D02*
X014917Y012535D01*
X015206Y012400D02*
X015206Y011995D01*
X015611Y011995D01*
X015746Y012130D01*
X015611Y012265D01*
X015206Y012265D01*
X015206Y012400D02*
X015341Y012535D01*
X015611Y012535D01*
X016034Y012400D02*
X016034Y011995D01*
X016305Y011995D02*
X016305Y012400D01*
X016169Y012535D01*
X016034Y012400D01*
X016305Y012400D02*
X016440Y012535D01*
X016575Y012535D01*
X016575Y011995D01*
X016863Y012130D02*
X016998Y011995D01*
X017268Y011995D01*
X017403Y012130D01*
X017268Y012400D02*
X016998Y012400D01*
X016863Y012265D01*
X016863Y012130D01*
X017268Y012400D02*
X017403Y012535D01*
X017403Y012671D01*
X017268Y012806D01*
X016998Y012806D01*
X016863Y012671D01*
X010639Y012806D02*
X010639Y012941D01*
D12*
X010663Y014030D02*
X010516Y014177D01*
X010516Y014470D01*
X010810Y014470D02*
X010810Y014177D01*
X010663Y014030D01*
X010976Y014103D02*
X011050Y014030D01*
X011197Y014030D01*
X011270Y014103D01*
X011270Y014250D02*
X011123Y014324D01*
X011050Y014324D01*
X010976Y014250D01*
X010976Y014103D01*
X011270Y014250D02*
X011270Y014470D01*
X010976Y014470D01*
X008370Y014297D02*
X008370Y014003D01*
X008297Y013930D01*
X008150Y013930D01*
X008076Y014003D01*
X008076Y014150D01*
X008223Y014150D01*
X008076Y014297D02*
X008150Y014370D01*
X008297Y014370D01*
X008370Y014297D01*
X007910Y014370D02*
X007910Y013930D01*
X007616Y013930D02*
X007616Y014370D01*
X007449Y014370D02*
X007229Y014370D01*
X007156Y014297D01*
X007156Y014003D01*
X007229Y013930D01*
X007449Y013930D01*
X007449Y014370D01*
X007910Y014370D02*
X007616Y013930D01*
X008870Y009145D02*
X009163Y009145D01*
X009016Y009145D02*
X009016Y008705D01*
X008703Y008778D02*
X008703Y008925D01*
X008629Y008999D01*
X008483Y008999D01*
X008409Y008925D01*
X008409Y008852D01*
X008703Y008852D01*
X008703Y008778D02*
X008629Y008705D01*
X008483Y008705D01*
X008242Y008778D02*
X008242Y008925D01*
X008169Y008999D01*
X008022Y008999D01*
X007949Y008925D01*
X007949Y008852D01*
X008242Y008852D01*
X008242Y008778D02*
X008169Y008705D01*
X008022Y008705D01*
X007782Y008705D02*
X007782Y008999D01*
X007562Y008999D01*
X007488Y008925D01*
X007488Y008705D01*
X007322Y008705D02*
X007101Y008705D01*
X007028Y008778D01*
X007101Y008852D01*
X007248Y008852D01*
X007322Y008925D01*
X007248Y008999D01*
X007028Y008999D01*
X006861Y008999D02*
X006861Y008778D01*
X006788Y008705D01*
X006568Y008705D01*
X006568Y008632D02*
X006641Y008558D01*
X006714Y008558D01*
X006568Y008632D02*
X006568Y008999D01*
X009790Y008925D02*
X009790Y008705D01*
X009790Y008925D02*
X009864Y008999D01*
X010084Y008999D01*
X010084Y008705D01*
X010251Y008778D02*
X010251Y008925D01*
X010324Y008999D01*
X010471Y008999D01*
X010544Y008925D01*
X010544Y008778D01*
X010471Y008705D01*
X010324Y008705D01*
X010251Y008778D01*
X010468Y008469D02*
X010468Y008175D01*
X010468Y008028D02*
X010468Y007955D01*
X010634Y007955D02*
X010855Y007955D01*
X010928Y008028D01*
X010928Y008175D01*
X010855Y008249D01*
X010634Y008249D01*
X010634Y007882D01*
X010708Y007808D01*
X010781Y007808D01*
X011095Y007955D02*
X011095Y008175D01*
X011168Y008249D01*
X011388Y008249D01*
X011388Y007955D01*
X011549Y007955D02*
X011695Y007955D01*
X011622Y007955D02*
X011622Y008249D01*
X011695Y008249D01*
X011622Y008395D02*
X011622Y008469D01*
X011632Y008705D02*
X011852Y008705D01*
X011925Y008778D01*
X011925Y008925D01*
X011852Y008999D01*
X011632Y008999D01*
X011465Y008925D02*
X011465Y008778D01*
X011392Y008705D01*
X011245Y008705D01*
X011172Y008852D02*
X011465Y008852D01*
X011465Y008925D02*
X011392Y008999D01*
X011245Y008999D01*
X011172Y008925D01*
X011172Y008852D01*
X011859Y008249D02*
X011932Y008249D01*
X012079Y008102D01*
X012079Y007955D02*
X012079Y008249D01*
X012246Y008175D02*
X012246Y008102D01*
X012539Y008102D01*
X012539Y008175D02*
X012466Y008249D01*
X012319Y008249D01*
X012246Y008175D01*
X012319Y007955D02*
X012466Y007955D01*
X012539Y008028D01*
X012539Y008175D01*
X012706Y008249D02*
X012926Y008249D01*
X013000Y008175D01*
X013000Y008028D01*
X012926Y007955D01*
X012706Y007955D01*
X012706Y008395D01*
X012770Y008705D02*
X012770Y008999D01*
X012770Y008852D02*
X012623Y008999D01*
X012549Y008999D01*
X012312Y008999D02*
X012166Y008999D01*
X012092Y008925D01*
X012092Y008705D01*
X012312Y008705D01*
X012386Y008778D01*
X012312Y008852D01*
X012092Y008852D01*
X012936Y009145D02*
X013230Y009145D01*
X013083Y009145D02*
X013083Y008705D01*
X013233Y008395D02*
X013233Y007955D01*
X013160Y007955D02*
X013307Y007955D01*
X013473Y008028D02*
X013473Y008175D01*
X013547Y008249D01*
X013694Y008249D01*
X013767Y008175D01*
X013767Y008028D01*
X013694Y007955D01*
X013547Y007955D01*
X013473Y008028D01*
X013307Y008395D02*
X013233Y008395D01*
X013857Y008778D02*
X013857Y008852D01*
X013931Y008925D01*
X014151Y008925D01*
X014318Y008852D02*
X014318Y008778D01*
X014391Y008705D01*
X014538Y008705D01*
X014611Y008778D01*
X014538Y008925D02*
X014391Y008925D01*
X014318Y008852D01*
X014318Y009072D02*
X014391Y009145D01*
X014538Y009145D01*
X014611Y009072D01*
X014611Y008999D01*
X014538Y008925D01*
X014778Y008778D02*
X014778Y009145D01*
X015072Y009145D02*
X015072Y008778D01*
X014998Y008705D01*
X014851Y008705D01*
X014778Y008778D01*
X015238Y008852D02*
X015238Y009145D01*
X015238Y008852D02*
X015385Y008705D01*
X015532Y008852D01*
X015532Y009145D01*
X016152Y008999D02*
X016299Y008999D01*
X016226Y009072D02*
X016226Y008778D01*
X016152Y008705D01*
X016466Y008705D02*
X016466Y008999D01*
X016466Y008705D02*
X016686Y008705D01*
X016760Y008778D01*
X016760Y008999D01*
X016926Y009072D02*
X017000Y009145D01*
X017147Y009145D01*
X017220Y009072D01*
X017220Y008778D01*
X017147Y008705D01*
X017000Y008705D01*
X016926Y008778D01*
X017000Y008395D02*
X016926Y008322D01*
X016926Y008249D01*
X017000Y008175D01*
X017220Y008175D01*
X017220Y007955D02*
X017000Y007955D01*
X016926Y008028D01*
X016926Y008102D01*
X017000Y008175D01*
X017000Y008395D02*
X017220Y008395D01*
X017220Y007955D01*
X016760Y008028D02*
X016760Y008175D01*
X016686Y008249D01*
X016539Y008249D01*
X016466Y008175D01*
X016466Y008102D01*
X016760Y008102D01*
X016760Y008028D02*
X016686Y007955D01*
X016539Y007955D01*
X016226Y007955D02*
X016226Y008322D01*
X016152Y008395D01*
X016152Y008175D02*
X016299Y008175D01*
X015992Y008175D02*
X015992Y008028D01*
X015919Y007955D01*
X015772Y007955D01*
X015699Y008028D01*
X015699Y008175D01*
X015772Y008249D01*
X015919Y008249D01*
X015992Y008175D01*
X015532Y008102D02*
X015385Y008249D01*
X015312Y008249D01*
X015148Y008175D02*
X015148Y008028D01*
X015075Y007955D01*
X014928Y007955D01*
X014855Y008102D02*
X015148Y008102D01*
X015148Y008175D02*
X015075Y008249D01*
X014928Y008249D01*
X014855Y008175D01*
X014855Y008102D01*
X014227Y008028D02*
X014154Y007955D01*
X014007Y007955D01*
X013934Y008028D01*
X013934Y008102D01*
X014007Y008175D01*
X014154Y008175D01*
X014227Y008249D01*
X014227Y008322D01*
X014154Y008395D01*
X014007Y008395D01*
X013934Y008322D01*
X013931Y008705D02*
X013857Y008778D01*
X013931Y008705D02*
X014151Y008705D01*
X014151Y009145D01*
X013931Y009145D01*
X013857Y009072D01*
X013857Y008999D01*
X013931Y008925D01*
X015532Y008249D02*
X015532Y007955D01*
X015674Y005070D02*
X015601Y004997D01*
X015894Y004703D01*
X015821Y004630D01*
X015674Y004630D01*
X015601Y004703D01*
X015601Y004997D01*
X015674Y005070D02*
X015821Y005070D01*
X015894Y004997D01*
X015894Y004703D01*
X016061Y004703D02*
X016134Y004630D01*
X016281Y004630D01*
X016355Y004703D01*
X016061Y004997D01*
X016061Y004703D01*
X016355Y004703D02*
X016355Y004997D01*
X016281Y005070D01*
X016134Y005070D01*
X016061Y004997D01*
X016521Y004997D02*
X016521Y004703D01*
X016595Y004630D01*
X016742Y004630D01*
X016815Y004703D01*
X016521Y004997D01*
X016595Y005070D01*
X016742Y005070D01*
X016815Y004997D01*
X016815Y004703D01*
X016982Y004703D02*
X017055Y004630D01*
X017202Y004630D01*
X017275Y004703D01*
X017442Y004703D02*
X017516Y004630D01*
X017662Y004630D01*
X017736Y004703D01*
X017736Y004997D01*
X017662Y005070D01*
X017516Y005070D01*
X017442Y004997D01*
X017275Y004997D02*
X017202Y005070D01*
X017055Y005070D01*
X016982Y004997D01*
X016982Y004924D01*
X017055Y004850D01*
X016982Y004777D01*
X016982Y004703D01*
X017055Y004850D02*
X017129Y004850D01*
X017903Y004703D02*
X017976Y004630D01*
X018123Y004630D01*
X018196Y004703D01*
X018196Y004997D01*
X018123Y005070D01*
X017976Y005070D01*
X017903Y004997D01*
X015434Y004630D02*
X015140Y005070D01*
X014973Y004997D02*
X014973Y004924D01*
X014900Y004850D01*
X014753Y004850D01*
X014680Y004777D01*
X014680Y004703D01*
X014753Y004630D01*
X014900Y004630D01*
X014973Y004703D01*
X014973Y004997D02*
X014900Y005070D01*
X014753Y005070D01*
X014680Y004997D01*
X014513Y005070D02*
X014293Y005070D01*
X014219Y004997D01*
X014219Y004850D01*
X014293Y004777D01*
X014513Y004777D01*
X014513Y004630D02*
X014513Y005070D01*
X014053Y005070D02*
X013906Y005070D01*
X013979Y005070D02*
X013979Y004630D01*
X013906Y004630D02*
X014053Y004630D01*
X013746Y004850D02*
X013452Y004850D01*
X013599Y004997D02*
X013599Y004703D01*
X013285Y004703D02*
X013285Y005070D01*
X012992Y005070D02*
X012992Y004703D01*
X013065Y004630D01*
X013212Y004630D01*
X013285Y004703D01*
X012825Y004630D02*
X012825Y004924D01*
X012678Y005070D01*
X012531Y004924D01*
X012531Y004630D01*
X012365Y004630D02*
X012365Y005070D01*
X012144Y005070D01*
X012071Y004997D01*
X012071Y004850D01*
X012144Y004777D01*
X012365Y004777D01*
X012218Y004777D02*
X012071Y004630D01*
X011757Y004630D02*
X011757Y005070D01*
X011611Y005070D02*
X011904Y005070D01*
X012531Y004850D02*
X012825Y004850D01*
X009804Y004630D02*
X009657Y004630D01*
X009730Y004630D02*
X009730Y005070D01*
X009657Y005070D02*
X009804Y005070D01*
X009497Y005070D02*
X009277Y005070D01*
X009203Y004997D01*
X009203Y004850D01*
X009277Y004777D01*
X009497Y004777D01*
X009497Y004630D02*
X009497Y005070D01*
X009350Y004777D02*
X009203Y004630D01*
X006484Y004630D02*
X006337Y004630D01*
X006410Y004630D02*
X006410Y005070D01*
X006337Y005070D02*
X006484Y005070D01*
X006177Y004997D02*
X006104Y005070D01*
X005957Y005070D01*
X005883Y004997D01*
X005883Y004924D01*
X006177Y004630D01*
X005883Y004630D01*
X005717Y004703D02*
X005643Y004630D01*
X005496Y004630D01*
X005423Y004703D01*
X005717Y004703D02*
X005717Y004997D01*
X005643Y005070D01*
X005496Y005070D01*
X005423Y004997D01*
D13*
X014394Y010890D02*
X014648Y010510D01*
X014809Y010510D02*
X015062Y010764D01*
X015223Y010700D02*
X015223Y010510D01*
X015350Y010510D02*
X015350Y010700D01*
X015286Y010764D01*
X015223Y010700D01*
X015350Y010700D02*
X015413Y010764D01*
X015477Y010764D01*
X015477Y010510D01*
X015620Y010510D02*
X015620Y010573D01*
X015684Y010573D01*
X015684Y010510D01*
X015620Y010510D01*
X015833Y010510D02*
X015960Y010510D01*
X015897Y010510D02*
X015897Y010890D01*
X015960Y010890D01*
X016121Y010764D02*
X016374Y010510D01*
X016524Y010510D02*
X016651Y010510D01*
X016587Y010510D02*
X016587Y010764D01*
X016651Y010764D01*
X016587Y010890D02*
X016587Y010954D01*
X016374Y010764D02*
X016121Y010510D01*
X016236Y010215D02*
X016236Y009835D01*
X016236Y009962D02*
X016046Y010089D01*
X015891Y010089D02*
X015828Y010089D01*
X015828Y009835D01*
X015891Y009835D02*
X015764Y009835D01*
X015551Y009898D02*
X015551Y010152D01*
X015615Y010089D02*
X015488Y010089D01*
X015339Y010152D02*
X015275Y010215D01*
X015148Y010215D01*
X015085Y010152D01*
X015339Y009898D01*
X015275Y009835D01*
X015148Y009835D01*
X015085Y009898D01*
X015085Y010152D01*
X014924Y010152D02*
X014861Y010215D01*
X014734Y010215D01*
X014671Y010152D01*
X014671Y010089D01*
X014734Y010025D01*
X014671Y009962D01*
X014671Y009898D01*
X014734Y009835D01*
X014861Y009835D01*
X014924Y009898D01*
X014797Y010025D02*
X014734Y010025D01*
X015062Y010510D02*
X014809Y010764D01*
X015339Y010152D02*
X015339Y009898D01*
X015488Y009835D02*
X015551Y009898D01*
X015828Y010215D02*
X015828Y010279D01*
X016046Y009835D02*
X016236Y009962D01*
X016397Y010025D02*
X016397Y009835D01*
X016524Y009835D02*
X016524Y010025D01*
X016460Y010089D01*
X016397Y010025D01*
X016524Y010025D02*
X016587Y010089D01*
X016651Y010089D01*
X016651Y009835D01*
X016811Y009898D02*
X016875Y009962D01*
X017002Y009962D01*
X017065Y010025D01*
X017002Y010089D01*
X016811Y010089D01*
X016811Y009898D02*
X016875Y009835D01*
X017065Y009835D01*
X017065Y010383D02*
X017065Y010764D01*
X016875Y010764D01*
X016811Y010700D01*
X016811Y010573D01*
X016875Y010510D01*
X017065Y010510D01*
D14*
X011000Y005200D02*
X011000Y004600D01*
X008000Y004600D02*
X008000Y005200D01*
X009800Y014000D02*
X007600Y018700D01*
X006300Y018900D02*
X010200Y018900D01*
X010200Y015700D01*
X006300Y015700D01*
X006300Y018900D01*
D15*
X006068Y018432D02*
X005972Y018478D01*
X005901Y018452D01*
X005878Y018403D01*
X005904Y018332D01*
X005833Y018307D01*
X005810Y018258D01*
X005836Y018187D01*
X005933Y018142D01*
X006004Y018168D01*
X005952Y018310D02*
X005904Y018332D01*
X006094Y018362D02*
X006068Y018432D01*
X005783Y018566D02*
X005693Y018372D01*
X005551Y018320D01*
X005499Y018462D01*
X005589Y018656D01*
X005427Y018673D02*
X005401Y018744D01*
X005304Y018789D01*
X005233Y018763D01*
X005210Y018715D01*
X005236Y018644D01*
X005165Y018618D01*
X005143Y018570D01*
X005169Y018499D01*
X005265Y018454D01*
X005336Y018479D01*
X005285Y018621D02*
X005236Y018644D01*
X005068Y018432D02*
X005094Y018362D01*
X005004Y018168D01*
X004933Y018142D01*
X004836Y018187D01*
X004810Y018258D01*
X004856Y018355D01*
X004952Y018310D01*
X004901Y018452D02*
X004972Y018478D01*
X005068Y018432D01*
X004783Y018566D02*
X004648Y018275D01*
X004454Y018366D02*
X004783Y018566D01*
X004589Y018656D02*
X004454Y018366D01*
X004314Y018431D02*
X004169Y018499D01*
X004143Y018570D01*
X004233Y018763D01*
X004304Y018789D01*
X004449Y018721D01*
X004314Y018431D01*
X004072Y018313D02*
X004020Y018455D01*
X003878Y018403D01*
X003788Y018210D01*
X003648Y018275D02*
X003454Y018366D01*
X003551Y018320D02*
X003686Y018611D01*
X003738Y018469D01*
X003856Y018355D02*
X004049Y018265D01*
X004072Y018313D02*
X003981Y018120D01*
X003381Y018576D02*
X003304Y018789D01*
X003169Y018499D01*
X003188Y018666D02*
X003381Y018576D01*
X003256Y016211D02*
X003120Y015921D01*
X003314Y015831D02*
X003449Y016121D01*
X003307Y016070D01*
X003256Y016211D01*
X003567Y016007D02*
X003638Y016033D01*
X003735Y015988D01*
X003760Y015917D01*
X003670Y015724D01*
X003599Y015698D01*
X003502Y015743D01*
X003477Y015814D01*
X003522Y015911D01*
X003618Y015866D01*
X003856Y015755D02*
X003881Y015684D01*
X004026Y015616D01*
X003981Y015520D02*
X004117Y015810D01*
X003972Y015878D01*
X003901Y015852D01*
X003856Y015755D01*
X004169Y015899D02*
X004143Y015970D01*
X004233Y016163D01*
X004304Y016189D01*
X004449Y016121D01*
X004314Y015831D01*
X004169Y015899D01*
X004454Y015766D02*
X004589Y016056D01*
X004783Y015966D02*
X004454Y015766D01*
X004648Y015675D02*
X004783Y015966D01*
X004901Y015852D02*
X004972Y015878D01*
X005068Y015832D01*
X005094Y015762D01*
X005004Y015568D01*
X004933Y015542D01*
X004836Y015587D01*
X004810Y015658D01*
X004856Y015755D01*
X004952Y015710D01*
X005217Y015876D02*
X005352Y016166D01*
X005449Y016121D02*
X005256Y016211D01*
X005544Y015959D02*
X005454Y015766D01*
X005522Y015911D02*
X005715Y015820D01*
X005738Y015869D02*
X005686Y016011D01*
X005544Y015959D01*
X005738Y015869D02*
X005648Y015675D01*
X005810Y015658D02*
X005836Y015587D01*
X005981Y015520D01*
X006117Y015810D01*
X005972Y015878D01*
X005901Y015852D01*
X005878Y015803D01*
X005904Y015732D01*
X006049Y015665D01*
X005904Y015732D02*
X005833Y015707D01*
X005810Y015658D01*
X012543Y017170D02*
X012569Y017099D01*
X012714Y017031D01*
X012849Y017321D01*
X012704Y017389D01*
X012633Y017363D01*
X012543Y017170D01*
X012854Y016966D02*
X012989Y017256D01*
X013183Y017166D02*
X012854Y016966D01*
X013048Y016875D02*
X013183Y017166D01*
X013301Y017052D02*
X013372Y017078D01*
X013468Y017032D01*
X013494Y016962D01*
X013404Y016768D01*
X013333Y016742D01*
X013236Y016787D01*
X013210Y016858D01*
X013256Y016955D01*
X013352Y016910D01*
X013784Y016998D02*
X013732Y017140D01*
X013822Y017334D01*
X014016Y017243D02*
X013926Y017050D01*
X013784Y016998D01*
X014044Y016936D02*
X014069Y016865D01*
X014166Y016820D01*
X014237Y016846D01*
X014282Y016943D02*
X014208Y017036D01*
X014160Y017059D01*
X014089Y017033D01*
X014044Y016936D01*
X014282Y016943D02*
X014350Y017088D01*
X014156Y017178D01*
X009399Y007021D02*
X009254Y007089D01*
X009183Y007063D01*
X009093Y006870D01*
X009119Y006799D01*
X009264Y006731D01*
X009399Y007021D01*
X009539Y006956D02*
X009404Y006666D01*
X009733Y006866D01*
X009598Y006575D01*
X009760Y006558D02*
X009786Y006487D01*
X009883Y006442D01*
X009954Y006468D01*
X010044Y006662D01*
X010018Y006732D01*
X009922Y006778D01*
X009851Y006752D01*
X009806Y006655D02*
X009902Y006610D01*
X009806Y006655D02*
X009760Y006558D01*
X010293Y006467D02*
X010435Y006519D01*
X010386Y006542D02*
X010531Y006474D01*
X010486Y006377D02*
X010622Y006667D01*
X010477Y006735D01*
X010406Y006709D01*
X010360Y006613D01*
X010386Y006542D01*
X010612Y006319D02*
X010709Y006273D01*
X010660Y006296D02*
X010796Y006586D01*
X010844Y006564D02*
X010747Y006609D01*
X011137Y006493D02*
X011466Y006693D01*
X011606Y006628D02*
X011800Y006538D01*
X011703Y006583D02*
X011568Y006293D01*
X011331Y006403D02*
X011272Y006784D01*
X012137Y006493D02*
X012466Y006693D01*
X012584Y006580D02*
X012539Y006483D01*
X012564Y006412D01*
X012710Y006344D01*
X012664Y006248D02*
X012800Y006538D01*
X012655Y006605D01*
X012584Y006580D01*
X012613Y006389D02*
X012471Y006338D01*
X012331Y006403D02*
X012272Y006784D01*
X013210Y006542D02*
X013236Y006471D01*
X013332Y006426D01*
X013403Y006452D01*
X013400Y006571D02*
X013303Y006616D01*
X013232Y006590D01*
X013210Y006542D01*
X013400Y006571D02*
X013471Y006597D01*
X013493Y006645D01*
X013468Y006716D01*
X013371Y006761D01*
X013300Y006735D01*
X013634Y006580D02*
X013705Y006605D01*
X013801Y006560D01*
X013827Y006489D01*
X013737Y006296D01*
X013666Y006270D01*
X013569Y006315D01*
X013544Y006386D01*
X014167Y006526D02*
X014302Y006816D01*
X014399Y006771D02*
X014206Y006861D01*
X014539Y006706D02*
X014427Y006464D01*
X014452Y006393D01*
X014549Y006348D01*
X014620Y006374D01*
X014733Y006616D01*
X014851Y006502D02*
X014922Y006528D01*
X015018Y006482D01*
X015044Y006412D01*
X014954Y006218D01*
X014883Y006192D01*
X014786Y006237D01*
X014760Y006308D01*
X014851Y006502D01*
X015243Y006467D02*
X015378Y006758D01*
X015572Y006667D02*
X015243Y006467D01*
X015436Y006377D02*
X015572Y006667D01*
X015697Y006609D02*
X015794Y006564D01*
X015746Y006586D02*
X015610Y006296D01*
X015562Y006319D02*
X015659Y006273D01*
X015970Y006571D02*
X016183Y006649D01*
X016209Y006578D02*
X016106Y006861D01*
X016299Y006771D02*
X016164Y006481D01*
X016304Y006416D02*
X016498Y006325D01*
X016633Y006616D01*
X016751Y006502D02*
X016822Y006528D01*
X016918Y006482D01*
X016944Y006412D01*
X016854Y006218D01*
X016783Y006192D01*
X016686Y006237D01*
X016660Y006308D01*
X017282Y006590D02*
X017372Y006784D01*
X017282Y006590D02*
X017334Y006448D01*
X017476Y006500D01*
X017566Y006693D01*
X017706Y006628D02*
X017900Y006538D01*
X017832Y006393D01*
X017758Y006486D01*
X017710Y006509D01*
X017639Y006483D01*
X017594Y006386D01*
X017619Y006315D01*
X017716Y006270D01*
X017787Y006296D01*
X018119Y006549D02*
X018093Y006620D01*
X018183Y006813D01*
X018254Y006839D01*
X018399Y006771D01*
X018264Y006481D01*
X018119Y006549D01*
X018404Y006416D02*
X018539Y006706D01*
X018733Y006616D02*
X018404Y006416D01*
X018598Y006325D02*
X018733Y006616D01*
X018851Y006502D02*
X018922Y006528D01*
X019018Y006482D01*
X019044Y006412D01*
X018954Y006218D01*
X018883Y006192D01*
X018786Y006237D01*
X018760Y006308D01*
X018806Y006405D01*
X018902Y006360D01*
X009044Y006512D02*
X009018Y006582D01*
X008922Y006628D01*
X008851Y006602D01*
X008828Y006553D01*
X008854Y006482D01*
X008783Y006457D01*
X008760Y006408D01*
X008786Y006337D01*
X008883Y006292D01*
X008954Y006318D01*
X008902Y006460D02*
X008854Y006482D01*
X008643Y006522D02*
X008733Y006716D01*
X008539Y006806D02*
X008449Y006612D01*
X008501Y006470D01*
X008643Y006522D01*
X008286Y006629D02*
X008215Y006604D01*
X008119Y006649D01*
X008093Y006720D01*
X008115Y006768D01*
X008186Y006794D01*
X008235Y006771D01*
X008186Y006794D02*
X008160Y006865D01*
X008183Y006913D01*
X008254Y006939D01*
X008351Y006894D01*
X008377Y006823D01*
X008018Y006582D02*
X008044Y006512D01*
X007954Y006318D01*
X007883Y006292D01*
X007786Y006337D01*
X007760Y006408D01*
X007806Y006505D01*
X007902Y006460D01*
X007851Y006602D02*
X007922Y006628D01*
X008018Y006582D01*
X007733Y006716D02*
X007404Y006516D01*
X007539Y006806D01*
X007399Y006871D02*
X007264Y006581D01*
X007119Y006649D01*
X007093Y006720D01*
X007183Y006913D01*
X007254Y006939D01*
X007399Y006871D01*
X007733Y006716D02*
X007598Y006425D01*
X007044Y006512D02*
X007018Y006582D01*
X006922Y006628D01*
X006851Y006602D01*
X006828Y006553D01*
X006854Y006482D01*
X006783Y006457D01*
X006760Y006408D01*
X006786Y006337D01*
X006883Y006292D01*
X006954Y006318D01*
X006902Y006460D02*
X006854Y006482D01*
X006643Y006522D02*
X006733Y006716D01*
X006539Y006806D02*
X006449Y006612D01*
X006501Y006470D01*
X006643Y006522D01*
X006286Y006629D02*
X006215Y006604D01*
X006119Y006649D01*
X006093Y006720D01*
X006115Y006768D01*
X006186Y006794D01*
X006235Y006771D01*
X006186Y006794D02*
X006160Y006865D01*
X006183Y006913D01*
X006254Y006939D01*
X006351Y006894D01*
X006377Y006823D01*
X006018Y006582D02*
X006044Y006512D01*
X006022Y006463D01*
X005951Y006437D01*
X005854Y006482D01*
X005783Y006457D01*
X005760Y006408D01*
X005786Y006337D01*
X005883Y006292D01*
X005954Y006318D01*
X006018Y006582D02*
X005922Y006628D01*
X005851Y006602D01*
X005733Y006716D02*
X005588Y006783D01*
X005517Y006757D01*
X005427Y006564D01*
X005452Y006493D01*
X005598Y006425D01*
X005733Y006716D01*
X005354Y006774D02*
X005264Y006581D01*
X005331Y006726D02*
X005138Y006816D01*
X005160Y006865D02*
X005070Y006671D01*
X005018Y006582D02*
X005044Y006512D01*
X005022Y006463D01*
X004951Y006437D01*
X004854Y006482D01*
X004783Y006457D01*
X004760Y006408D01*
X004786Y006337D01*
X004883Y006292D01*
X004954Y006318D01*
X005018Y006582D02*
X004922Y006628D01*
X004851Y006602D01*
X004710Y006667D02*
X004685Y006738D01*
X004588Y006783D01*
X004517Y006757D01*
X004399Y006871D02*
X004264Y006581D01*
X004070Y006671D01*
X004427Y006564D02*
X004452Y006493D01*
X004549Y006448D01*
X004620Y006474D01*
X004710Y006667D01*
X005160Y006865D02*
X005302Y006916D01*
X005354Y006774D01*
M02*
