%
M48
M72
T01C0.0160
T02C0.0236
T03C0.0320
T04C0.0380
T05C0.0394
T06C0.0400
T07C0.0689
T08C0.0748
T09C0.0906
T10C0.1260
%
T01
X2200Y5300
X3100Y7000
X3600Y7100
X3500Y8600
X3700Y9800
X3200Y10100
X3700Y11100
X9100Y11100
X10000Y11400
X10800Y11800
X12500Y11400
X13310Y11690
X13500Y10900
X14650Y12200
X16000Y12900
X17600Y12200
X17750Y9600
X17850Y8450
X13950Y6100
X12950Y8500
X13550Y9200
X11000Y8650
X10200Y8200
X9200Y8300
X9950Y6150
X12700Y16500
T02
X15200Y13150
X16600Y14200
X16800Y14900
X18100Y12500
X17650Y9000
X15650Y8550
X14400Y9400
X12200Y13050
X8450Y6950
X4300Y15100
T03
X4300Y14200
X4300Y11200
X4300Y10200
X4300Y7200
X12900Y14850
X13900Y14850
X13900Y15850
X12900Y15850
T04
X12700Y13500
X11700Y13500
X10700Y13500
X9700Y13500
X8700Y13500
X7700Y13500
X6700Y13500
X5700Y13500
X5700Y12500
X5700Y11500
X5700Y10500
X5700Y9500
X5700Y8500
X6700Y9500
X6700Y10500
X7700Y10500
X7700Y9500
X8700Y9500
X9700Y9500
X9700Y10500
X8700Y10500
X10700Y10500
X10700Y9500
X11700Y9500
X11700Y10500
X12700Y10500
X12700Y9500
X12700Y7500
X11700Y7500
X10700Y7500
X9700Y7500
X8700Y7500
X7700Y7500
X6700Y7500
X5700Y7500
X13700Y7500
X14700Y7500
X15700Y7500
X16700Y7500
X17700Y7500
X18700Y7500
X18700Y13500
X17700Y13500
X16700Y13500
X15700Y13500
X14700Y13500
X13700Y13500
T05
X8984Y17400
X7016Y17400
T06
X5500Y17700
X5500Y16700
X4500Y16700
X4500Y17700
X3500Y17700
X3500Y16700
X2350Y13500
X2350Y12500
X2350Y11500
X2350Y10500
X2350Y9500
X2350Y8500
X1350Y8500
X1350Y9500
X1350Y10500
X1350Y11500
X1350Y12500
X1350Y13500
X1350Y7500
X1350Y6500
X2350Y6500
X2350Y7500
X3500Y5700
X4500Y5700
X5500Y5700
X6500Y5700
X7500Y5700
X8500Y5700
X9500Y5700
X10500Y5700
X11500Y5700
X12500Y5700
X13500Y5700
X14500Y5700
X15500Y5700
X16500Y5700
X17500Y5700
X18500Y5700
X14500Y17700
X13500Y17700
T07
X11540Y15050
X9980Y15050
X8420Y15050
X6860Y15050
T08
X15820Y14953
X15820Y17000
X15820Y18339
X18694Y18457
X18694Y14559
T09
X18300Y17000
T10
X1700Y17500
M30
