G75*
%MOIN*%
%OFA0B0*%
%FSLAX25Y25*%
%IPPOS*%
%LPD*%
%AMOC8*
5,1,8,0,0,1.08239X$1,22.5*
%
%ADD10C,0.01100*%
%ADD11C,0.00900*%
%ADD12C,0.01000*%
%ADD13C,0.00500*%
%ADD14C,0.00600*%
%ADD15C,0.03000*%
%ADD16C,0.01600*%
%ADD17R,0.02000X0.03000*%
%ADD18R,0.04000X0.03000*%
%ADD19C,0.00800*%
D10*
X0133537Y0294383D02*
X0137474Y0298320D01*
X0140787Y0298320D02*
X0140787Y0294383D01*
X0141771Y0294383D02*
X0139803Y0294383D01*
X0137474Y0294383D02*
X0133537Y0298320D01*
X0140787Y0298320D02*
X0141771Y0298320D01*
X0140787Y0300288D02*
X0140787Y0301273D01*
X0144190Y0298320D02*
X0145174Y0298320D01*
X0147142Y0296352D01*
X0147142Y0298320D02*
X0147142Y0294383D01*
X0149471Y0294383D02*
X0150455Y0295367D01*
X0150455Y0299304D01*
X0151439Y0298320D02*
X0149471Y0298320D01*
X0153948Y0297336D02*
X0153948Y0294383D01*
X0156901Y0294383D01*
X0157885Y0295367D01*
X0156901Y0296352D01*
X0153948Y0296352D01*
X0153948Y0297336D02*
X0154932Y0298320D01*
X0156901Y0298320D01*
X0160394Y0300288D02*
X0160394Y0294383D01*
X0164330Y0294383D02*
X0164330Y0300288D01*
X0162362Y0298320D01*
X0160394Y0300288D01*
X0166659Y0298320D02*
X0168627Y0298320D01*
X0167643Y0299304D02*
X0167643Y0295367D01*
X0166659Y0294383D01*
X0171046Y0298320D02*
X0172030Y0298320D01*
X0173999Y0296352D01*
X0173999Y0298320D02*
X0173999Y0294383D01*
X0176507Y0294383D02*
X0176507Y0297336D01*
X0177492Y0298320D01*
X0179460Y0298320D01*
X0179460Y0296352D02*
X0176507Y0296352D01*
X0176507Y0294383D02*
X0179460Y0294383D01*
X0180444Y0295367D01*
X0179460Y0296352D01*
X0182953Y0297336D02*
X0182953Y0294383D01*
X0184921Y0294383D02*
X0184921Y0297336D01*
X0183937Y0298320D01*
X0182953Y0297336D01*
X0184921Y0297336D02*
X0185905Y0298320D01*
X0186890Y0298320D01*
X0186890Y0294383D01*
X0189398Y0295367D02*
X0189398Y0296352D01*
X0190383Y0297336D01*
X0192351Y0297336D01*
X0193335Y0298320D01*
X0193335Y0299304D01*
X0192351Y0300288D01*
X0190383Y0300288D01*
X0189398Y0299304D01*
X0189398Y0295367D02*
X0190383Y0294383D01*
X0192351Y0294383D01*
X0193335Y0295367D01*
D11*
X0192807Y0290888D02*
X0192807Y0287485D01*
X0191105Y0285783D01*
X0189404Y0287485D01*
X0189404Y0290888D01*
X0187282Y0289186D02*
X0185580Y0290888D01*
X0185580Y0285783D01*
X0183879Y0285783D02*
X0187282Y0285783D01*
D12*
X0178232Y0258333D02*
X0173232Y0258333D01*
X0173232Y0230333D02*
X0178232Y0230333D01*
X0178232Y0205333D02*
X0173232Y0205333D01*
X0143732Y0205833D02*
X0143732Y0200833D01*
X0184732Y0176333D02*
X0186732Y0172333D01*
X0188732Y0176333D01*
X0184732Y0176333D01*
X0184732Y0172333D02*
X0186732Y0172333D01*
X0188732Y0172333D01*
X0193732Y0172333D02*
X0195732Y0172333D01*
X0197732Y0176333D01*
X0193732Y0176333D01*
X0195732Y0172333D01*
X0197732Y0172333D01*
X0205232Y0163333D02*
X0210232Y0163333D01*
X0216232Y0160333D02*
X0221232Y0160333D01*
X0233732Y0149833D02*
X0233732Y0144833D01*
X0253732Y0145833D02*
X0253732Y0150833D01*
X0256232Y0160333D02*
X0261232Y0160333D01*
X0267232Y0160333D02*
X0272232Y0160333D01*
X0277232Y0163333D02*
X0282232Y0163333D01*
X0286232Y0163333D02*
X0291232Y0163333D01*
X0285732Y0152333D02*
X0285732Y0147333D01*
X0303232Y0141333D02*
X0308232Y0141333D01*
X0278232Y0128333D02*
X0273232Y0128333D01*
X0260732Y0130333D02*
X0260732Y0134333D01*
X0256732Y0132333D01*
X0260732Y0130333D01*
X0256732Y0130333D02*
X0256732Y0132333D01*
X0256732Y0134333D01*
X0260732Y0115333D02*
X0262732Y0115333D01*
X0260732Y0111333D01*
X0264732Y0111333D01*
X0262732Y0115333D01*
X0264732Y0115333D01*
X0257232Y0113333D02*
X0252232Y0113333D01*
X0258732Y0099333D02*
X0258732Y0094333D01*
X0193732Y0109833D02*
X0193732Y0114833D01*
X0194732Y0120333D02*
X0194732Y0125333D01*
X0177732Y0146833D02*
X0177732Y0151833D01*
X0163232Y0154333D02*
X0158232Y0154333D01*
X0154232Y0154333D02*
X0149232Y0154333D01*
X0143232Y0153833D02*
X0138232Y0153833D01*
X0127232Y0103333D02*
X0122232Y0103333D01*
X0226732Y0182333D02*
X0234732Y0182333D01*
X0230732Y0186333D02*
X0230732Y0178333D01*
X0243732Y0175833D02*
X0243732Y0180833D01*
X0256232Y0178333D02*
X0261232Y0178333D01*
X0267232Y0176333D02*
X0272232Y0176333D01*
X0272732Y0250833D02*
X0272732Y0255833D01*
X0235732Y0295333D02*
X0226732Y0295333D01*
D13*
X0100129Y0076353D02*
X0100129Y0040133D01*
X0100130Y0040133D02*
X0100132Y0039998D01*
X0100138Y0039863D01*
X0100147Y0039729D01*
X0100161Y0039595D01*
X0100178Y0039461D01*
X0100199Y0039327D01*
X0100224Y0039195D01*
X0100253Y0039063D01*
X0100285Y0038932D01*
X0100321Y0038802D01*
X0100361Y0038673D01*
X0100405Y0038546D01*
X0100452Y0038419D01*
X0100503Y0038294D01*
X0100557Y0038171D01*
X0100615Y0038049D01*
X0100676Y0037928D01*
X0100741Y0037810D01*
X0100809Y0037694D01*
X0100880Y0037579D01*
X0100954Y0037467D01*
X0101032Y0037356D01*
X0101113Y0037248D01*
X0101197Y0037143D01*
X0101284Y0037039D01*
X0101374Y0036939D01*
X0101466Y0036841D01*
X0101562Y0036745D01*
X0101660Y0036653D01*
X0101760Y0036563D01*
X0101864Y0036476D01*
X0101969Y0036392D01*
X0102077Y0036311D01*
X0102188Y0036233D01*
X0102300Y0036159D01*
X0102415Y0036088D01*
X0102531Y0036020D01*
X0102649Y0035955D01*
X0102770Y0035894D01*
X0102892Y0035836D01*
X0103015Y0035782D01*
X0103140Y0035731D01*
X0103267Y0035684D01*
X0103394Y0035640D01*
X0103523Y0035600D01*
X0103653Y0035564D01*
X0103784Y0035532D01*
X0103916Y0035503D01*
X0104048Y0035478D01*
X0104182Y0035457D01*
X0104316Y0035440D01*
X0104450Y0035426D01*
X0104584Y0035417D01*
X0104719Y0035411D01*
X0104854Y0035409D01*
X0115090Y0040133D02*
X0115090Y0076353D01*
X0118633Y0076353D02*
X0118633Y0040133D01*
X0115091Y0040133D02*
X0115093Y0039998D01*
X0115099Y0039863D01*
X0115108Y0039729D01*
X0115122Y0039595D01*
X0115139Y0039461D01*
X0115160Y0039327D01*
X0115185Y0039195D01*
X0115214Y0039063D01*
X0115246Y0038932D01*
X0115282Y0038802D01*
X0115322Y0038673D01*
X0115366Y0038546D01*
X0115413Y0038419D01*
X0115464Y0038294D01*
X0115518Y0038171D01*
X0115576Y0038049D01*
X0115637Y0037928D01*
X0115702Y0037810D01*
X0115770Y0037694D01*
X0115841Y0037579D01*
X0115915Y0037467D01*
X0115993Y0037356D01*
X0116074Y0037248D01*
X0116158Y0037143D01*
X0116245Y0037039D01*
X0116335Y0036939D01*
X0116427Y0036841D01*
X0116523Y0036745D01*
X0116621Y0036653D01*
X0116721Y0036563D01*
X0116825Y0036476D01*
X0116930Y0036392D01*
X0117038Y0036311D01*
X0117149Y0036233D01*
X0117261Y0036159D01*
X0117376Y0036088D01*
X0117492Y0036020D01*
X0117610Y0035955D01*
X0117731Y0035894D01*
X0117853Y0035836D01*
X0117976Y0035782D01*
X0118101Y0035731D01*
X0118228Y0035684D01*
X0118355Y0035640D01*
X0118484Y0035600D01*
X0118614Y0035564D01*
X0118745Y0035532D01*
X0118877Y0035503D01*
X0119009Y0035478D01*
X0119143Y0035457D01*
X0119277Y0035440D01*
X0119411Y0035426D01*
X0119545Y0035417D01*
X0119680Y0035411D01*
X0119815Y0035409D01*
X0124381Y0033833D02*
X0124381Y0037770D01*
X0123358Y0035409D02*
X0123223Y0035411D01*
X0123088Y0035417D01*
X0122954Y0035426D01*
X0122820Y0035440D01*
X0122686Y0035457D01*
X0122552Y0035478D01*
X0122420Y0035503D01*
X0122288Y0035532D01*
X0122157Y0035564D01*
X0122027Y0035600D01*
X0121898Y0035640D01*
X0121771Y0035684D01*
X0121644Y0035731D01*
X0121519Y0035782D01*
X0121396Y0035836D01*
X0121274Y0035894D01*
X0121153Y0035955D01*
X0121035Y0036020D01*
X0120919Y0036088D01*
X0120804Y0036159D01*
X0120692Y0036233D01*
X0120581Y0036311D01*
X0120473Y0036392D01*
X0120368Y0036476D01*
X0120264Y0036563D01*
X0120164Y0036653D01*
X0120066Y0036745D01*
X0119970Y0036841D01*
X0119878Y0036939D01*
X0119788Y0037039D01*
X0119701Y0037143D01*
X0119617Y0037248D01*
X0119536Y0037356D01*
X0119458Y0037467D01*
X0119384Y0037579D01*
X0119313Y0037694D01*
X0119245Y0037810D01*
X0119180Y0037928D01*
X0119119Y0038049D01*
X0119061Y0038171D01*
X0119007Y0038294D01*
X0118956Y0038419D01*
X0118909Y0038546D01*
X0118865Y0038673D01*
X0118825Y0038802D01*
X0118789Y0038932D01*
X0118757Y0039063D01*
X0118728Y0039195D01*
X0118703Y0039327D01*
X0118682Y0039461D01*
X0118665Y0039595D01*
X0118651Y0039729D01*
X0118642Y0039863D01*
X0118636Y0039998D01*
X0118634Y0040133D01*
X0124381Y0037771D02*
X0124491Y0037759D01*
X0124602Y0037751D01*
X0124713Y0037747D01*
X0124823Y0037746D01*
X0124934Y0037750D01*
X0125045Y0037757D01*
X0125155Y0037769D01*
X0125265Y0037784D01*
X0125374Y0037803D01*
X0125482Y0037826D01*
X0125590Y0037852D01*
X0125696Y0037883D01*
X0125802Y0037917D01*
X0125906Y0037954D01*
X0126009Y0037996D01*
X0126110Y0038040D01*
X0126210Y0038089D01*
X0126308Y0038141D01*
X0126404Y0038196D01*
X0126498Y0038254D01*
X0126590Y0038316D01*
X0126680Y0038381D01*
X0126767Y0038449D01*
X0126852Y0038520D01*
X0126935Y0038594D01*
X0127014Y0038671D01*
X0127092Y0038750D01*
X0127166Y0038832D01*
X0127237Y0038917D01*
X0127306Y0039004D01*
X0127371Y0039094D01*
X0127433Y0039186D01*
X0127492Y0039279D01*
X0127548Y0039375D01*
X0127600Y0039473D01*
X0127649Y0039572D01*
X0127694Y0039673D01*
X0127736Y0039776D01*
X0127774Y0039880D01*
X0127808Y0039985D01*
X0127839Y0040092D01*
X0127866Y0040199D01*
X0127889Y0040308D01*
X0127909Y0040417D01*
X0127924Y0040526D01*
X0127925Y0040526D02*
X0127925Y0078715D01*
X0122964Y0081472D02*
X0122830Y0081458D01*
X0122695Y0081441D01*
X0122561Y0081421D01*
X0122428Y0081396D01*
X0122296Y0081368D01*
X0122164Y0081335D01*
X0122034Y0081299D01*
X0121904Y0081260D01*
X0121776Y0081216D01*
X0121649Y0081169D01*
X0121524Y0081119D01*
X0121399Y0081065D01*
X0121277Y0081007D01*
X0121156Y0080946D01*
X0121037Y0080881D01*
X0120920Y0080813D01*
X0120805Y0080742D01*
X0120692Y0080667D01*
X0120581Y0080590D01*
X0120472Y0080509D01*
X0120366Y0080425D01*
X0120262Y0080338D01*
X0120161Y0080248D01*
X0120062Y0080155D01*
X0119966Y0080060D01*
X0119873Y0079962D01*
X0119783Y0079861D01*
X0119695Y0079757D01*
X0119611Y0079652D01*
X0119530Y0079543D01*
X0119451Y0079433D01*
X0119376Y0079320D01*
X0119304Y0079206D01*
X0119236Y0079089D01*
X0119171Y0078970D01*
X0119109Y0078850D01*
X0119050Y0078727D01*
X0118996Y0078604D01*
X0118944Y0078478D01*
X0118897Y0078352D01*
X0118853Y0078223D01*
X0118812Y0078094D01*
X0118776Y0077964D01*
X0118743Y0077833D01*
X0118714Y0077700D01*
X0118689Y0077567D01*
X0118667Y0077434D01*
X0118649Y0077299D01*
X0118635Y0077165D01*
X0118625Y0077030D01*
X0118619Y0076894D01*
X0118617Y0076759D01*
X0118619Y0076624D01*
X0118624Y0076488D01*
X0118633Y0076353D01*
X0115090Y0076353D02*
X0115081Y0076488D01*
X0115076Y0076624D01*
X0115074Y0076759D01*
X0115076Y0076894D01*
X0115082Y0077030D01*
X0115092Y0077165D01*
X0115106Y0077299D01*
X0115124Y0077434D01*
X0115146Y0077567D01*
X0115171Y0077700D01*
X0115200Y0077833D01*
X0115233Y0077964D01*
X0115269Y0078094D01*
X0115310Y0078223D01*
X0115354Y0078352D01*
X0115401Y0078478D01*
X0115453Y0078604D01*
X0115507Y0078727D01*
X0115566Y0078850D01*
X0115628Y0078970D01*
X0115693Y0079089D01*
X0115761Y0079206D01*
X0115833Y0079320D01*
X0115908Y0079433D01*
X0115987Y0079543D01*
X0116068Y0079652D01*
X0116152Y0079757D01*
X0116240Y0079861D01*
X0116330Y0079962D01*
X0116423Y0080060D01*
X0116519Y0080155D01*
X0116618Y0080248D01*
X0116719Y0080338D01*
X0116823Y0080425D01*
X0116929Y0080509D01*
X0117038Y0080590D01*
X0117149Y0080667D01*
X0117262Y0080742D01*
X0117377Y0080813D01*
X0117494Y0080881D01*
X0117613Y0080946D01*
X0117734Y0081007D01*
X0117856Y0081065D01*
X0117981Y0081119D01*
X0118106Y0081169D01*
X0118233Y0081216D01*
X0118361Y0081260D01*
X0118491Y0081299D01*
X0118621Y0081335D01*
X0118753Y0081368D01*
X0118885Y0081396D01*
X0119018Y0081421D01*
X0119152Y0081441D01*
X0119287Y0081458D01*
X0119421Y0081472D01*
X0121626Y0085014D02*
X0121783Y0085012D01*
X0121940Y0085006D01*
X0122097Y0084996D01*
X0122253Y0084983D01*
X0122409Y0084965D01*
X0122565Y0084944D01*
X0122720Y0084918D01*
X0122874Y0084889D01*
X0123028Y0084856D01*
X0123180Y0084819D01*
X0123332Y0084779D01*
X0123483Y0084734D01*
X0123632Y0084686D01*
X0123780Y0084634D01*
X0123927Y0084579D01*
X0124073Y0084519D01*
X0124217Y0084457D01*
X0124359Y0084390D01*
X0124500Y0084320D01*
X0124639Y0084247D01*
X0124776Y0084170D01*
X0124911Y0084090D01*
X0125043Y0084006D01*
X0125174Y0083919D01*
X0125303Y0083829D01*
X0125429Y0083736D01*
X0125553Y0083640D01*
X0125675Y0083540D01*
X0125794Y0083438D01*
X0125910Y0083332D01*
X0126024Y0083224D01*
X0126135Y0083113D01*
X0126243Y0082999D01*
X0126349Y0082883D01*
X0126451Y0082764D01*
X0126551Y0082642D01*
X0126647Y0082518D01*
X0126740Y0082392D01*
X0126830Y0082263D01*
X0126917Y0082132D01*
X0127001Y0082000D01*
X0127081Y0081865D01*
X0127158Y0081728D01*
X0127231Y0081589D01*
X0127301Y0081448D01*
X0127368Y0081306D01*
X0127430Y0081162D01*
X0127490Y0081016D01*
X0127545Y0080869D01*
X0127597Y0080721D01*
X0127645Y0080572D01*
X0127690Y0080421D01*
X0127730Y0080269D01*
X0127767Y0080117D01*
X0127800Y0079963D01*
X0127829Y0079809D01*
X0127855Y0079654D01*
X0127876Y0079498D01*
X0127894Y0079342D01*
X0127907Y0079186D01*
X0127917Y0079029D01*
X0127923Y0078872D01*
X0127925Y0078715D01*
X0121626Y0085014D02*
X0121626Y0088951D01*
X0181074Y0088951D01*
X0181074Y0033833D01*
X0124381Y0033833D01*
X0100129Y0076353D02*
X0100120Y0076488D01*
X0100115Y0076624D01*
X0100113Y0076759D01*
X0100115Y0076894D01*
X0100121Y0077030D01*
X0100131Y0077165D01*
X0100145Y0077299D01*
X0100163Y0077434D01*
X0100185Y0077567D01*
X0100210Y0077700D01*
X0100239Y0077833D01*
X0100272Y0077964D01*
X0100308Y0078094D01*
X0100349Y0078223D01*
X0100393Y0078352D01*
X0100440Y0078478D01*
X0100492Y0078604D01*
X0100546Y0078727D01*
X0100605Y0078850D01*
X0100667Y0078970D01*
X0100732Y0079089D01*
X0100800Y0079206D01*
X0100872Y0079320D01*
X0100947Y0079433D01*
X0101026Y0079543D01*
X0101107Y0079652D01*
X0101191Y0079757D01*
X0101279Y0079861D01*
X0101369Y0079962D01*
X0101462Y0080060D01*
X0101558Y0080155D01*
X0101657Y0080248D01*
X0101758Y0080338D01*
X0101862Y0080425D01*
X0101968Y0080509D01*
X0102077Y0080590D01*
X0102188Y0080667D01*
X0102301Y0080742D01*
X0102416Y0080813D01*
X0102533Y0080881D01*
X0102652Y0080946D01*
X0102773Y0081007D01*
X0102895Y0081065D01*
X0103020Y0081119D01*
X0103145Y0081169D01*
X0103272Y0081216D01*
X0103400Y0081260D01*
X0103530Y0081299D01*
X0103660Y0081335D01*
X0103792Y0081368D01*
X0103924Y0081396D01*
X0104057Y0081421D01*
X0104191Y0081441D01*
X0104326Y0081458D01*
X0104460Y0081472D01*
X0124077Y0092883D02*
X0124077Y0095586D01*
X0125428Y0094234D01*
X0123627Y0094234D01*
X0126573Y0093334D02*
X0127024Y0092883D01*
X0127924Y0092883D01*
X0128375Y0093334D01*
X0128375Y0095135D01*
X0127924Y0095586D01*
X0127024Y0095586D01*
X0126573Y0095135D01*
X0140137Y0132991D02*
X0140139Y0133054D01*
X0140145Y0133116D01*
X0140155Y0133178D01*
X0140168Y0133240D01*
X0140186Y0133300D01*
X0140207Y0133359D01*
X0140232Y0133417D01*
X0140261Y0133473D01*
X0140293Y0133527D01*
X0140328Y0133579D01*
X0140366Y0133628D01*
X0140408Y0133676D01*
X0140452Y0133720D01*
X0140500Y0133762D01*
X0140549Y0133800D01*
X0140601Y0133835D01*
X0140655Y0133867D01*
X0140711Y0133896D01*
X0140769Y0133921D01*
X0140828Y0133942D01*
X0140888Y0133960D01*
X0140950Y0133973D01*
X0141012Y0133983D01*
X0141074Y0133989D01*
X0141137Y0133991D01*
X0141200Y0133989D01*
X0141262Y0133983D01*
X0141324Y0133973D01*
X0141386Y0133960D01*
X0141446Y0133942D01*
X0141505Y0133921D01*
X0141563Y0133896D01*
X0141619Y0133867D01*
X0141673Y0133835D01*
X0141725Y0133800D01*
X0141774Y0133762D01*
X0141822Y0133720D01*
X0141866Y0133676D01*
X0141908Y0133628D01*
X0141946Y0133579D01*
X0141981Y0133527D01*
X0142013Y0133473D01*
X0142042Y0133417D01*
X0142067Y0133359D01*
X0142088Y0133300D01*
X0142106Y0133240D01*
X0142119Y0133178D01*
X0142129Y0133116D01*
X0142135Y0133054D01*
X0142137Y0132991D01*
X0142135Y0132928D01*
X0142129Y0132866D01*
X0142119Y0132804D01*
X0142106Y0132742D01*
X0142088Y0132682D01*
X0142067Y0132623D01*
X0142042Y0132565D01*
X0142013Y0132509D01*
X0141981Y0132455D01*
X0141946Y0132403D01*
X0141908Y0132354D01*
X0141866Y0132306D01*
X0141822Y0132262D01*
X0141774Y0132220D01*
X0141725Y0132182D01*
X0141673Y0132147D01*
X0141619Y0132115D01*
X0141563Y0132086D01*
X0141505Y0132061D01*
X0141446Y0132040D01*
X0141386Y0132022D01*
X0141324Y0132009D01*
X0141262Y0131999D01*
X0141200Y0131993D01*
X0141137Y0131991D01*
X0141074Y0131993D01*
X0141012Y0131999D01*
X0140950Y0132009D01*
X0140888Y0132022D01*
X0140828Y0132040D01*
X0140769Y0132061D01*
X0140711Y0132086D01*
X0140655Y0132115D01*
X0140601Y0132147D01*
X0140549Y0132182D01*
X0140500Y0132220D01*
X0140452Y0132262D01*
X0140408Y0132306D01*
X0140366Y0132354D01*
X0140328Y0132403D01*
X0140293Y0132455D01*
X0140261Y0132509D01*
X0140232Y0132565D01*
X0140207Y0132623D01*
X0140186Y0132682D01*
X0140168Y0132742D01*
X0140155Y0132804D01*
X0140145Y0132866D01*
X0140139Y0132928D01*
X0140137Y0132991D01*
X0133713Y0135820D02*
X0132812Y0135820D01*
X0133263Y0135820D02*
X0133263Y0138523D01*
X0133713Y0138523D02*
X0132812Y0138523D01*
X0131749Y0138072D02*
X0131749Y0136271D01*
X0131299Y0135820D01*
X0130398Y0135820D01*
X0129947Y0136271D01*
X0128802Y0135820D02*
X0127001Y0135820D01*
X0127902Y0135820D02*
X0127902Y0138523D01*
X0128802Y0137622D01*
X0129947Y0138072D02*
X0130398Y0138523D01*
X0131299Y0138523D01*
X0131749Y0138072D01*
X0133932Y0145083D02*
X0133482Y0145534D01*
X0133482Y0146434D01*
X0133932Y0146885D01*
X0133932Y0148030D02*
X0133482Y0148480D01*
X0133482Y0149381D01*
X0133932Y0149831D01*
X0134383Y0149831D01*
X0134833Y0149381D01*
X0134833Y0148931D01*
X0134833Y0149381D02*
X0135283Y0149831D01*
X0135734Y0149831D01*
X0136184Y0149381D01*
X0136184Y0148480D01*
X0135734Y0148030D01*
X0135734Y0146885D02*
X0136184Y0146434D01*
X0136184Y0145534D01*
X0135734Y0145083D01*
X0133932Y0145083D01*
X0144982Y0153534D02*
X0144982Y0154434D01*
X0145432Y0154885D01*
X0144982Y0156030D02*
X0144982Y0157831D01*
X0144982Y0156931D02*
X0147684Y0156931D01*
X0146783Y0156030D01*
X0147234Y0154885D02*
X0147684Y0154434D01*
X0147684Y0153534D01*
X0147234Y0153083D01*
X0145432Y0153083D01*
X0144982Y0153534D01*
X0131982Y0160392D02*
X0131081Y0160392D01*
X0131531Y0160392D02*
X0131531Y0163095D01*
X0131081Y0163095D02*
X0131982Y0163095D01*
X0130017Y0162644D02*
X0130017Y0160843D01*
X0129567Y0160392D01*
X0128666Y0160392D01*
X0128216Y0160843D01*
X0127071Y0161744D02*
X0125269Y0161744D01*
X0125720Y0163095D02*
X0127071Y0161744D01*
X0128216Y0162644D02*
X0128666Y0163095D01*
X0129567Y0163095D01*
X0130017Y0162644D01*
X0125720Y0163095D02*
X0125720Y0160392D01*
X0166482Y0159980D02*
X0166482Y0160881D01*
X0166932Y0161331D01*
X0167383Y0161331D01*
X0167833Y0160881D01*
X0167833Y0159530D01*
X0166932Y0159530D01*
X0166482Y0159980D01*
X0167833Y0159530D02*
X0168734Y0160431D01*
X0169184Y0161331D01*
X0168734Y0158385D02*
X0169184Y0157934D01*
X0169184Y0157034D01*
X0168734Y0156583D01*
X0166932Y0156583D01*
X0166482Y0157034D01*
X0166482Y0157934D01*
X0166932Y0158385D01*
X0175791Y0166083D02*
X0175791Y0166984D01*
X0175791Y0166534D02*
X0178493Y0166534D01*
X0178493Y0166984D02*
X0178493Y0166083D01*
X0178043Y0168048D02*
X0176241Y0168048D01*
X0175791Y0168498D01*
X0175791Y0169399D01*
X0176241Y0169849D01*
X0176241Y0170994D02*
X0175791Y0171445D01*
X0175791Y0172345D01*
X0176241Y0172796D01*
X0176692Y0172796D01*
X0177142Y0172345D01*
X0177142Y0171895D01*
X0177142Y0172345D02*
X0177592Y0172796D01*
X0178043Y0172796D01*
X0178493Y0172345D01*
X0178493Y0171445D01*
X0178043Y0170994D01*
X0178043Y0169849D02*
X0178493Y0169399D01*
X0178493Y0168498D01*
X0178043Y0168048D01*
X0184064Y0185520D02*
X0185866Y0185520D01*
X0184064Y0187322D01*
X0184064Y0187772D01*
X0184515Y0188223D01*
X0185416Y0188223D01*
X0185866Y0187772D01*
X0187011Y0187772D02*
X0187461Y0188223D01*
X0188813Y0188223D01*
X0188813Y0185520D01*
X0187461Y0185520D01*
X0187011Y0185971D01*
X0187011Y0187772D01*
X0193064Y0185520D02*
X0194866Y0185520D01*
X0193965Y0185520D02*
X0193965Y0188223D01*
X0194866Y0187322D01*
X0196011Y0187772D02*
X0196011Y0185971D01*
X0196461Y0185520D01*
X0197813Y0185520D01*
X0197813Y0188223D01*
X0196461Y0188223D01*
X0196011Y0187772D01*
X0182236Y0195026D02*
X0182236Y0281640D01*
X0164482Y0288534D02*
X0164031Y0288083D01*
X0163581Y0288083D01*
X0163131Y0288534D01*
X0163131Y0290786D01*
X0163581Y0290786D02*
X0162680Y0290786D01*
X0161535Y0289434D02*
X0159734Y0289434D01*
X0160184Y0288083D02*
X0160184Y0290786D01*
X0161535Y0289434D01*
X0168732Y0260438D02*
X0170534Y0260438D01*
X0170984Y0259988D01*
X0170984Y0259087D01*
X0170534Y0258637D01*
X0170083Y0258637D01*
X0169633Y0259087D01*
X0169633Y0260438D01*
X0168732Y0260438D02*
X0168282Y0259988D01*
X0168282Y0259087D01*
X0168732Y0258637D01*
X0168282Y0257492D02*
X0169183Y0256591D01*
X0169183Y0257041D02*
X0169183Y0255690D01*
X0168282Y0255690D02*
X0170984Y0255690D01*
X0170984Y0257041D01*
X0170534Y0257492D01*
X0169633Y0257492D01*
X0169183Y0257041D01*
X0169183Y0231438D02*
X0168732Y0231438D01*
X0168282Y0230988D01*
X0168282Y0230087D01*
X0168732Y0229637D01*
X0169183Y0229637D01*
X0169633Y0230087D01*
X0169633Y0230988D01*
X0169183Y0231438D01*
X0169633Y0230988D02*
X0170083Y0231438D01*
X0170534Y0231438D01*
X0170984Y0230988D01*
X0170984Y0230087D01*
X0170534Y0229637D01*
X0170083Y0229637D01*
X0169633Y0230087D01*
X0169633Y0228492D02*
X0169183Y0228041D01*
X0169183Y0226690D01*
X0169183Y0227591D02*
X0168282Y0228492D01*
X0169633Y0228492D02*
X0170534Y0228492D01*
X0170984Y0228041D01*
X0170984Y0226690D01*
X0168282Y0226690D01*
X0168932Y0207331D02*
X0168482Y0206881D01*
X0168482Y0205980D01*
X0168932Y0205530D01*
X0169383Y0205530D01*
X0169833Y0205980D01*
X0169833Y0206881D01*
X0169383Y0207331D01*
X0168932Y0207331D01*
X0169833Y0206881D02*
X0170283Y0207331D01*
X0170734Y0207331D01*
X0171184Y0206881D01*
X0171184Y0205980D01*
X0170734Y0205530D01*
X0170283Y0205530D01*
X0169833Y0205980D01*
X0170734Y0204385D02*
X0171184Y0203934D01*
X0171184Y0203034D01*
X0170734Y0202583D01*
X0168932Y0202583D01*
X0168482Y0203034D01*
X0168482Y0203934D01*
X0168932Y0204385D01*
X0135482Y0203534D02*
X0135031Y0203083D01*
X0134131Y0203083D01*
X0133680Y0203534D01*
X0132535Y0203083D02*
X0130734Y0203083D01*
X0131635Y0203083D02*
X0131635Y0205786D01*
X0132535Y0204885D01*
X0133680Y0205335D02*
X0134131Y0205786D01*
X0135031Y0205786D01*
X0135482Y0205335D01*
X0135482Y0203534D01*
X0129589Y0203534D02*
X0129138Y0203083D01*
X0128238Y0203083D01*
X0127787Y0203534D01*
X0127787Y0203984D01*
X0128238Y0204434D01*
X0129589Y0204434D01*
X0129589Y0203534D01*
X0129589Y0204434D02*
X0128688Y0205335D01*
X0127787Y0205786D01*
X0203627Y0154635D02*
X0203627Y0154185D01*
X0204077Y0153734D01*
X0203627Y0153284D01*
X0203627Y0152834D01*
X0204077Y0152383D01*
X0204978Y0152383D01*
X0205428Y0152834D01*
X0206573Y0152834D02*
X0207024Y0152383D01*
X0208375Y0152383D01*
X0208375Y0155086D01*
X0207024Y0155086D01*
X0206573Y0154635D01*
X0206573Y0154185D01*
X0207024Y0153734D01*
X0208375Y0153734D01*
X0207024Y0153734D02*
X0206573Y0153284D01*
X0206573Y0152834D01*
X0205428Y0154635D02*
X0204978Y0155086D01*
X0204077Y0155086D01*
X0203627Y0154635D01*
X0204077Y0153734D02*
X0204528Y0153734D01*
X0209520Y0155086D02*
X0211321Y0155086D01*
X0211321Y0152383D01*
X0211321Y0153734D02*
X0210421Y0153734D01*
X0215287Y0151335D02*
X0215287Y0150885D01*
X0217089Y0149083D01*
X0215287Y0149083D01*
X0215287Y0151335D02*
X0215738Y0151786D01*
X0216638Y0151786D01*
X0217089Y0151335D01*
X0219135Y0151786D02*
X0219135Y0149083D01*
X0220035Y0149083D02*
X0218234Y0149083D01*
X0220035Y0150885D02*
X0219135Y0151786D01*
X0221180Y0151335D02*
X0221631Y0151786D01*
X0222531Y0151786D01*
X0222982Y0151335D01*
X0222982Y0149534D01*
X0222531Y0149083D01*
X0221631Y0149083D01*
X0221180Y0149534D01*
X0229734Y0142786D02*
X0231535Y0142786D01*
X0231535Y0141434D01*
X0230635Y0141885D01*
X0230184Y0141885D01*
X0229734Y0141434D01*
X0229734Y0140534D01*
X0230184Y0140083D01*
X0231085Y0140083D01*
X0231535Y0140534D01*
X0232680Y0140534D02*
X0233131Y0140083D01*
X0234031Y0140083D01*
X0234482Y0140534D01*
X0234482Y0142335D01*
X0234031Y0142786D01*
X0233131Y0142786D01*
X0232680Y0142335D01*
X0251734Y0142434D02*
X0251734Y0141534D01*
X0252184Y0141083D01*
X0253085Y0141083D01*
X0253535Y0141534D01*
X0253535Y0142434D02*
X0252635Y0142885D01*
X0252184Y0142885D01*
X0251734Y0142434D01*
X0251734Y0143786D02*
X0253535Y0143786D01*
X0253535Y0142434D01*
X0254680Y0142434D02*
X0255131Y0141984D01*
X0256482Y0141984D01*
X0256482Y0141083D02*
X0256482Y0143786D01*
X0255131Y0143786D01*
X0254680Y0143335D01*
X0254680Y0142434D01*
X0255581Y0141984D02*
X0254680Y0141083D01*
X0258747Y0139149D02*
X0260098Y0137797D01*
X0258296Y0137797D01*
X0258747Y0136446D02*
X0258747Y0139149D01*
X0261243Y0138698D02*
X0261243Y0136897D01*
X0261693Y0136446D01*
X0263044Y0136446D01*
X0263044Y0139149D01*
X0261693Y0139149D01*
X0261243Y0138698D01*
X0273734Y0137984D02*
X0274184Y0138434D01*
X0275535Y0138434D01*
X0275535Y0137534D01*
X0275085Y0137083D01*
X0274184Y0137083D01*
X0273734Y0137534D01*
X0273734Y0137984D01*
X0274635Y0139335D02*
X0273734Y0139786D01*
X0274635Y0139335D02*
X0275535Y0138434D01*
X0276680Y0138434D02*
X0277131Y0137984D01*
X0278482Y0137984D01*
X0278482Y0137083D02*
X0278482Y0139786D01*
X0277131Y0139786D01*
X0276680Y0139335D01*
X0276680Y0138434D01*
X0277581Y0137984D02*
X0276680Y0137083D01*
X0281627Y0142383D02*
X0283428Y0142383D01*
X0282528Y0142383D02*
X0282528Y0145086D01*
X0283428Y0144185D01*
X0284573Y0144185D02*
X0285024Y0143734D01*
X0286375Y0143734D01*
X0286375Y0142383D02*
X0285024Y0142383D01*
X0284573Y0142834D01*
X0284573Y0143284D01*
X0285024Y0143734D01*
X0284573Y0144185D02*
X0284573Y0144635D01*
X0285024Y0145086D01*
X0286375Y0145086D01*
X0286375Y0142383D01*
X0288421Y0143734D02*
X0289321Y0143734D01*
X0289321Y0142383D02*
X0289321Y0145086D01*
X0287520Y0145086D01*
X0271482Y0150083D02*
X0271482Y0152786D01*
X0270131Y0152786D01*
X0269680Y0152335D01*
X0269680Y0151434D01*
X0270131Y0150984D01*
X0271482Y0150984D01*
X0270581Y0150984D02*
X0269680Y0150083D01*
X0268535Y0150083D02*
X0266734Y0150083D01*
X0267635Y0150083D02*
X0267635Y0152786D01*
X0268535Y0151885D01*
X0264734Y0158583D02*
X0262932Y0158583D01*
X0262482Y0159034D01*
X0262482Y0159934D01*
X0262932Y0160385D01*
X0262482Y0161530D02*
X0262482Y0163331D01*
X0262482Y0162431D02*
X0265184Y0162431D01*
X0264283Y0161530D01*
X0264734Y0160385D02*
X0265184Y0159934D01*
X0265184Y0159034D01*
X0264734Y0158583D01*
X0265184Y0164476D02*
X0263833Y0164476D01*
X0264283Y0165377D01*
X0264283Y0165828D01*
X0263833Y0166278D01*
X0262932Y0166278D01*
X0262482Y0165828D01*
X0262482Y0164927D01*
X0262932Y0164476D01*
X0265184Y0164476D02*
X0265184Y0166278D01*
X0264734Y0173583D02*
X0262932Y0173583D01*
X0262482Y0174034D01*
X0262482Y0174934D01*
X0262932Y0175385D01*
X0262482Y0176530D02*
X0262482Y0178331D01*
X0262482Y0177431D02*
X0265184Y0177431D01*
X0264283Y0176530D01*
X0264734Y0175385D02*
X0265184Y0174934D01*
X0265184Y0174034D01*
X0264734Y0173583D01*
X0263833Y0179476D02*
X0263833Y0181278D01*
X0265184Y0180828D02*
X0263833Y0179476D01*
X0262482Y0180828D02*
X0265184Y0180828D01*
X0274282Y0178438D02*
X0274282Y0176637D01*
X0276083Y0178438D01*
X0276534Y0178438D01*
X0276984Y0177988D01*
X0276984Y0177087D01*
X0276534Y0176637D01*
X0276534Y0175492D02*
X0275633Y0175492D01*
X0275183Y0175041D01*
X0275183Y0173690D01*
X0275183Y0174591D02*
X0274282Y0175492D01*
X0274282Y0173690D02*
X0276984Y0173690D01*
X0276984Y0175041D01*
X0276534Y0175492D01*
X0279627Y0174135D02*
X0279627Y0173685D01*
X0280077Y0173234D01*
X0279627Y0172784D01*
X0279627Y0172334D01*
X0280077Y0171883D01*
X0280978Y0171883D01*
X0281428Y0172334D01*
X0282573Y0171883D02*
X0283474Y0172784D01*
X0283024Y0172784D02*
X0284375Y0172784D01*
X0284375Y0171883D02*
X0284375Y0174586D01*
X0283024Y0174586D01*
X0282573Y0174135D01*
X0282573Y0173234D01*
X0283024Y0172784D01*
X0281428Y0174135D02*
X0280978Y0174586D01*
X0280077Y0174586D01*
X0279627Y0174135D01*
X0280077Y0173234D02*
X0280528Y0173234D01*
X0293482Y0171881D02*
X0296184Y0171881D01*
X0294833Y0170530D01*
X0294833Y0172331D01*
X0294833Y0169385D02*
X0294383Y0168934D01*
X0294383Y0167583D01*
X0294383Y0168484D02*
X0293482Y0169385D01*
X0294833Y0169385D02*
X0295734Y0169385D01*
X0296184Y0168934D01*
X0296184Y0167583D01*
X0293482Y0167583D01*
X0303077Y0133586D02*
X0303978Y0133586D01*
X0304428Y0133135D01*
X0305573Y0133135D02*
X0305573Y0132685D01*
X0306024Y0132234D01*
X0307375Y0132234D01*
X0307375Y0130883D02*
X0307375Y0133586D01*
X0306024Y0133586D01*
X0305573Y0133135D01*
X0306024Y0132234D02*
X0305573Y0131784D01*
X0305573Y0131334D01*
X0306024Y0130883D01*
X0307375Y0130883D01*
X0309421Y0132234D02*
X0310321Y0132234D01*
X0310321Y0130883D02*
X0310321Y0133586D01*
X0308520Y0133586D01*
X0304428Y0130883D02*
X0302627Y0132685D01*
X0302627Y0133135D01*
X0303077Y0133586D01*
X0302627Y0130883D02*
X0304428Y0130883D01*
X0269547Y0118319D02*
X0269097Y0118769D01*
X0268646Y0118769D01*
X0268196Y0118319D01*
X0267746Y0118769D01*
X0267295Y0118769D01*
X0266845Y0118319D01*
X0266845Y0117418D01*
X0267295Y0116968D01*
X0267295Y0115823D02*
X0269097Y0115823D01*
X0269547Y0115372D01*
X0269547Y0114021D01*
X0266845Y0114021D01*
X0266845Y0115372D01*
X0267295Y0115823D01*
X0269097Y0116968D02*
X0269547Y0117418D01*
X0269547Y0118319D01*
X0268196Y0118319D02*
X0268196Y0117868D01*
X0252184Y0122034D02*
X0251734Y0121583D01*
X0249932Y0121583D01*
X0249482Y0122034D01*
X0249482Y0122934D01*
X0249932Y0123385D01*
X0249482Y0124530D02*
X0249482Y0126331D01*
X0249482Y0125431D02*
X0252184Y0125431D01*
X0251283Y0124530D01*
X0251734Y0123385D02*
X0252184Y0122934D01*
X0252184Y0122034D01*
X0251283Y0127476D02*
X0252184Y0128377D01*
X0249482Y0128377D01*
X0249482Y0127476D02*
X0249482Y0129278D01*
X0214982Y0128583D02*
X0214081Y0128583D01*
X0214531Y0128583D02*
X0214531Y0131286D01*
X0214081Y0131286D02*
X0214982Y0131286D01*
X0213017Y0130835D02*
X0213017Y0129034D01*
X0212567Y0128583D01*
X0211666Y0128583D01*
X0211216Y0129034D01*
X0210071Y0129034D02*
X0209621Y0128583D01*
X0208720Y0128583D01*
X0208269Y0129034D01*
X0208269Y0129934D01*
X0208720Y0130385D01*
X0209170Y0130385D01*
X0210071Y0129934D01*
X0210071Y0131286D01*
X0208269Y0131286D01*
X0211216Y0130835D02*
X0211666Y0131286D01*
X0212567Y0131286D01*
X0213017Y0130835D01*
X0201031Y0132191D02*
X0201031Y0135709D01*
X0201029Y0135767D01*
X0201023Y0135824D01*
X0201014Y0135881D01*
X0201001Y0135937D01*
X0200984Y0135992D01*
X0200964Y0136046D01*
X0200940Y0136098D01*
X0200913Y0136149D01*
X0200883Y0136198D01*
X0200849Y0136245D01*
X0200813Y0136289D01*
X0200773Y0136331D01*
X0200731Y0136371D01*
X0200687Y0136407D01*
X0200640Y0136441D01*
X0200591Y0136471D01*
X0200540Y0136498D01*
X0200488Y0136522D01*
X0200434Y0136542D01*
X0200379Y0136559D01*
X0200323Y0136572D01*
X0200266Y0136581D01*
X0200209Y0136587D01*
X0200151Y0136589D01*
X0189678Y0136589D01*
X0189608Y0136587D01*
X0189539Y0136581D01*
X0189469Y0136571D01*
X0189401Y0136558D01*
X0189333Y0136540D01*
X0189267Y0136519D01*
X0189202Y0136494D01*
X0189138Y0136466D01*
X0189076Y0136434D01*
X0189016Y0136398D01*
X0188958Y0136359D01*
X0188902Y0136317D01*
X0188848Y0136272D01*
X0188798Y0136224D01*
X0188750Y0136174D01*
X0188705Y0136120D01*
X0188663Y0136064D01*
X0188624Y0136006D01*
X0188588Y0135946D01*
X0188556Y0135884D01*
X0188528Y0135820D01*
X0188503Y0135755D01*
X0188482Y0135689D01*
X0188464Y0135621D01*
X0188451Y0135553D01*
X0188441Y0135483D01*
X0188435Y0135414D01*
X0188433Y0135344D01*
X0188433Y0132191D01*
X0188435Y0132126D01*
X0188441Y0132062D01*
X0188450Y0131998D01*
X0188463Y0131934D01*
X0188480Y0131872D01*
X0188500Y0131810D01*
X0188524Y0131750D01*
X0188551Y0131691D01*
X0188582Y0131635D01*
X0188616Y0131579D01*
X0188653Y0131526D01*
X0188693Y0131476D01*
X0188736Y0131427D01*
X0188782Y0131381D01*
X0188831Y0131338D01*
X0188881Y0131298D01*
X0188934Y0131261D01*
X0188990Y0131227D01*
X0189046Y0131196D01*
X0189105Y0131169D01*
X0189165Y0131145D01*
X0189227Y0131125D01*
X0189289Y0131108D01*
X0189353Y0131095D01*
X0189417Y0131086D01*
X0189481Y0131080D01*
X0189546Y0131078D01*
X0189546Y0131077D02*
X0199918Y0131077D01*
X0199918Y0131078D02*
X0199983Y0131080D01*
X0200047Y0131086D01*
X0200111Y0131095D01*
X0200175Y0131108D01*
X0200237Y0131125D01*
X0200299Y0131145D01*
X0200359Y0131169D01*
X0200418Y0131196D01*
X0200475Y0131227D01*
X0200530Y0131261D01*
X0200583Y0131298D01*
X0200633Y0131338D01*
X0200682Y0131381D01*
X0200728Y0131427D01*
X0200771Y0131476D01*
X0200811Y0131526D01*
X0200848Y0131579D01*
X0200882Y0131635D01*
X0200913Y0131691D01*
X0200940Y0131750D01*
X0200964Y0131810D01*
X0200984Y0131872D01*
X0201001Y0131934D01*
X0201014Y0131998D01*
X0201023Y0132062D01*
X0201029Y0132126D01*
X0201031Y0132191D01*
X0199850Y0133046D02*
X0199850Y0134227D01*
X0199849Y0134227D02*
X0199860Y0134287D01*
X0199866Y0134347D01*
X0199869Y0134408D01*
X0199868Y0134468D01*
X0199864Y0134529D01*
X0199855Y0134589D01*
X0199844Y0134648D01*
X0199828Y0134707D01*
X0199809Y0134764D01*
X0199787Y0134821D01*
X0199762Y0134876D01*
X0199733Y0134929D01*
X0199701Y0134980D01*
X0199665Y0135030D01*
X0199627Y0135077D01*
X0199587Y0135122D01*
X0199543Y0135164D01*
X0199497Y0135204D01*
X0199449Y0135240D01*
X0199399Y0135274D01*
X0199346Y0135305D01*
X0199292Y0135332D01*
X0199237Y0135356D01*
X0199180Y0135377D01*
X0199121Y0135394D01*
X0199062Y0135408D01*
X0199063Y0135408D02*
X0190795Y0135408D01*
X0190726Y0135406D01*
X0190658Y0135400D01*
X0190590Y0135390D01*
X0190522Y0135376D01*
X0190456Y0135358D01*
X0190391Y0135337D01*
X0190327Y0135311D01*
X0190265Y0135282D01*
X0190204Y0135250D01*
X0190146Y0135214D01*
X0190090Y0135174D01*
X0190036Y0135132D01*
X0189985Y0135086D01*
X0189936Y0135037D01*
X0189890Y0134986D01*
X0189848Y0134932D01*
X0189808Y0134876D01*
X0189772Y0134818D01*
X0189740Y0134757D01*
X0189711Y0134695D01*
X0189685Y0134631D01*
X0189664Y0134566D01*
X0189646Y0134500D01*
X0189632Y0134432D01*
X0189622Y0134364D01*
X0189616Y0134296D01*
X0189614Y0134227D01*
X0189614Y0133440D01*
X0189616Y0133374D01*
X0189621Y0133308D01*
X0189631Y0133242D01*
X0189644Y0133177D01*
X0189660Y0133113D01*
X0189680Y0133050D01*
X0189704Y0132988D01*
X0189731Y0132928D01*
X0189761Y0132869D01*
X0189795Y0132812D01*
X0189832Y0132757D01*
X0189872Y0132704D01*
X0189914Y0132653D01*
X0189960Y0132605D01*
X0190008Y0132559D01*
X0190059Y0132517D01*
X0190112Y0132477D01*
X0190167Y0132440D01*
X0190224Y0132406D01*
X0190283Y0132376D01*
X0190343Y0132349D01*
X0190405Y0132325D01*
X0190468Y0132305D01*
X0190532Y0132289D01*
X0190597Y0132276D01*
X0190663Y0132266D01*
X0190729Y0132261D01*
X0190795Y0132259D01*
X0198669Y0132259D01*
X0198669Y0132258D02*
X0198729Y0132248D01*
X0198789Y0132242D01*
X0198850Y0132239D01*
X0198910Y0132240D01*
X0198971Y0132244D01*
X0199031Y0132253D01*
X0199090Y0132264D01*
X0199149Y0132280D01*
X0199207Y0132299D01*
X0199263Y0132321D01*
X0199318Y0132347D01*
X0199371Y0132376D01*
X0199423Y0132408D01*
X0199472Y0132443D01*
X0199520Y0132481D01*
X0199564Y0132522D01*
X0199607Y0132565D01*
X0199646Y0132611D01*
X0199683Y0132659D01*
X0199717Y0132710D01*
X0199747Y0132762D01*
X0199775Y0132816D01*
X0199799Y0132872D01*
X0199820Y0132929D01*
X0199837Y0132987D01*
X0199851Y0133046D01*
X0196636Y0138422D02*
X0196636Y0139773D01*
X0195735Y0140674D01*
X0195735Y0141124D01*
X0194590Y0140674D02*
X0194140Y0141124D01*
X0193239Y0141124D01*
X0192789Y0140674D01*
X0192789Y0140223D01*
X0194590Y0138422D01*
X0192789Y0138422D01*
X0196636Y0139773D02*
X0197537Y0140674D01*
X0197537Y0141124D01*
X0185375Y0142334D02*
X0184924Y0141883D01*
X0184024Y0141883D01*
X0183573Y0142334D01*
X0182428Y0141883D02*
X0180627Y0143685D01*
X0180627Y0144135D01*
X0181077Y0144586D01*
X0181978Y0144586D01*
X0182428Y0144135D01*
X0183573Y0144135D02*
X0184024Y0144586D01*
X0184924Y0144586D01*
X0185375Y0144135D01*
X0185375Y0142334D01*
X0182428Y0141883D02*
X0180627Y0141883D01*
X0193077Y0119086D02*
X0192627Y0118635D01*
X0194428Y0116834D01*
X0193978Y0116383D01*
X0193077Y0116383D01*
X0192627Y0116834D01*
X0192627Y0118635D01*
X0193077Y0119086D02*
X0193978Y0119086D01*
X0194428Y0118635D01*
X0194428Y0116834D01*
X0195573Y0116383D02*
X0197375Y0116383D01*
X0196474Y0116383D02*
X0196474Y0119086D01*
X0197375Y0118185D01*
X0198520Y0118635D02*
X0198970Y0119086D01*
X0199871Y0119086D01*
X0200321Y0118635D01*
X0200321Y0116834D01*
X0199871Y0116383D01*
X0198970Y0116383D01*
X0198520Y0116834D01*
X0195924Y0108586D02*
X0196375Y0108135D01*
X0196375Y0106334D01*
X0195924Y0105883D01*
X0195024Y0105883D01*
X0194573Y0106334D01*
X0193428Y0106334D02*
X0192978Y0105883D01*
X0192077Y0105883D01*
X0191627Y0106334D01*
X0191627Y0108135D01*
X0192077Y0108586D01*
X0192978Y0108586D01*
X0193428Y0108135D01*
X0193428Y0107685D01*
X0192978Y0107234D01*
X0191627Y0107234D01*
X0194573Y0108135D02*
X0195024Y0108586D01*
X0195924Y0108586D01*
X0190813Y0089435D02*
X0190813Y0088985D01*
X0189912Y0088084D01*
X0189912Y0086733D01*
X0189912Y0088084D02*
X0189011Y0088985D01*
X0189011Y0089435D01*
X0187866Y0088534D02*
X0186965Y0089435D01*
X0186965Y0086733D01*
X0187866Y0086733D02*
X0186064Y0086733D01*
X0186672Y0065398D02*
X0186222Y0064498D01*
X0185321Y0063597D01*
X0185321Y0064948D01*
X0184871Y0065398D01*
X0184420Y0065398D01*
X0183970Y0064948D01*
X0183970Y0064047D01*
X0184420Y0063597D01*
X0185321Y0063597D01*
X0186672Y0062452D02*
X0186672Y0061551D01*
X0186672Y0062001D02*
X0184420Y0062001D01*
X0183970Y0061551D01*
X0183970Y0061101D01*
X0184420Y0060650D01*
X0266734Y0098835D02*
X0268535Y0097034D01*
X0268535Y0096583D01*
X0269680Y0096583D02*
X0270581Y0097484D01*
X0270131Y0097484D02*
X0271482Y0097484D01*
X0271482Y0096583D02*
X0271482Y0099286D01*
X0270131Y0099286D01*
X0269680Y0098835D01*
X0269680Y0097934D01*
X0270131Y0097484D01*
X0268535Y0099286D02*
X0266734Y0099286D01*
X0266734Y0098835D01*
X0287677Y0073302D02*
X0289645Y0069365D01*
X0291614Y0073302D01*
X0287677Y0073302D01*
X0287677Y0069365D02*
X0291614Y0069365D01*
X0291106Y0066206D02*
X0290656Y0065306D01*
X0289755Y0064405D01*
X0289755Y0065756D01*
X0289305Y0066206D01*
X0288854Y0066206D01*
X0288404Y0065756D01*
X0288404Y0064855D01*
X0288854Y0064405D01*
X0289755Y0064405D01*
X0288854Y0063260D02*
X0290656Y0063260D01*
X0291106Y0062810D01*
X0291106Y0061458D01*
X0288404Y0061458D01*
X0288404Y0062810D01*
X0288854Y0063260D01*
X0234482Y0173583D02*
X0233581Y0173583D01*
X0234031Y0173583D02*
X0234031Y0176286D01*
X0233581Y0176286D02*
X0234482Y0176286D01*
X0232517Y0175835D02*
X0232517Y0174034D01*
X0232067Y0173583D01*
X0231166Y0173583D01*
X0230716Y0174034D01*
X0229571Y0173583D02*
X0227769Y0175385D01*
X0227769Y0175835D01*
X0228220Y0176286D01*
X0229121Y0176286D01*
X0229571Y0175835D01*
X0230716Y0175835D02*
X0231166Y0176286D01*
X0232067Y0176286D01*
X0232517Y0175835D01*
X0229571Y0173583D02*
X0227769Y0173583D01*
X0240627Y0183334D02*
X0241077Y0182883D01*
X0241978Y0182883D01*
X0242428Y0183334D01*
X0243573Y0182883D02*
X0245375Y0182883D01*
X0244474Y0182883D02*
X0244474Y0185586D01*
X0245375Y0184685D01*
X0246520Y0185135D02*
X0246970Y0185586D01*
X0247871Y0185586D01*
X0248321Y0185135D01*
X0248321Y0183334D01*
X0247871Y0182883D01*
X0246970Y0182883D01*
X0246520Y0183334D01*
X0242428Y0185135D02*
X0241978Y0185586D01*
X0241077Y0185586D01*
X0240627Y0185135D01*
X0240627Y0184685D01*
X0241077Y0184234D01*
X0240627Y0183784D01*
X0240627Y0183334D01*
X0241077Y0184234D02*
X0241528Y0184234D01*
X0238031Y0188583D02*
X0237581Y0188583D01*
X0237131Y0189034D01*
X0237131Y0191286D01*
X0237581Y0191286D02*
X0236680Y0191286D01*
X0235535Y0191286D02*
X0233734Y0191286D01*
X0233734Y0190835D01*
X0235535Y0189034D01*
X0235535Y0188583D01*
X0238031Y0188583D02*
X0238482Y0189034D01*
X0245228Y0195026D02*
X0245228Y0281640D01*
X0269734Y0248786D02*
X0269734Y0248335D01*
X0271535Y0246534D01*
X0271535Y0246083D01*
X0272680Y0246534D02*
X0273131Y0246083D01*
X0274031Y0246083D01*
X0274482Y0246534D01*
X0274482Y0248335D01*
X0274031Y0248786D01*
X0273131Y0248786D01*
X0272680Y0248335D01*
X0271535Y0248786D02*
X0269734Y0248786D01*
X0289502Y0235664D02*
X0291303Y0235664D01*
X0291303Y0234312D01*
X0290403Y0234763D01*
X0289952Y0234763D01*
X0289502Y0234312D01*
X0289502Y0233412D01*
X0289952Y0232961D01*
X0290853Y0232961D01*
X0291303Y0233412D01*
X0292448Y0233412D02*
X0292899Y0232961D01*
X0294250Y0232961D01*
X0294250Y0235664D01*
X0292899Y0235664D01*
X0292448Y0235213D01*
X0292448Y0233412D01*
X0296763Y0232451D02*
X0296763Y0236388D01*
X0296763Y0234420D02*
X0300700Y0232451D01*
X0300700Y0236388D01*
X0296763Y0234420D01*
X0296978Y0265883D02*
X0296077Y0265883D01*
X0295627Y0266334D01*
X0295627Y0267234D01*
X0296077Y0267685D01*
X0296528Y0267685D01*
X0297428Y0267234D01*
X0297428Y0268586D01*
X0295627Y0268586D01*
X0297428Y0266334D02*
X0296978Y0265883D01*
X0299024Y0266334D02*
X0299474Y0265883D01*
X0299924Y0265883D01*
X0300375Y0266334D01*
X0299024Y0266334D02*
X0299024Y0268586D01*
X0299474Y0268586D02*
X0298573Y0268586D01*
X0174362Y0238333D02*
X0174374Y0239299D01*
X0174409Y0240265D01*
X0174469Y0241229D01*
X0174552Y0242192D01*
X0174658Y0243152D01*
X0174788Y0244110D01*
X0174942Y0245064D01*
X0175118Y0246014D01*
X0175319Y0246959D01*
X0175542Y0247899D01*
X0175788Y0248833D01*
X0176057Y0249762D01*
X0176349Y0250683D01*
X0176663Y0251596D01*
X0177000Y0252502D01*
X0177359Y0253399D01*
X0177740Y0254287D01*
X0178142Y0255166D01*
X0178566Y0256034D01*
X0179011Y0256892D01*
X0179477Y0257738D01*
X0179963Y0258573D01*
X0180470Y0259396D01*
X0180997Y0260206D01*
X0181544Y0261003D01*
X0182110Y0261786D01*
X0182695Y0262555D01*
X0183299Y0263309D01*
X0183921Y0264048D01*
X0184561Y0264772D01*
X0185218Y0265480D01*
X0185893Y0266172D01*
X0186585Y0266847D01*
X0187293Y0267504D01*
X0188017Y0268144D01*
X0188756Y0268766D01*
X0189510Y0269370D01*
X0190279Y0269955D01*
X0191062Y0270521D01*
X0191859Y0271068D01*
X0192669Y0271595D01*
X0193492Y0272102D01*
X0194327Y0272588D01*
X0195173Y0273054D01*
X0196031Y0273499D01*
X0196899Y0273923D01*
X0197778Y0274325D01*
X0198666Y0274706D01*
X0199563Y0275065D01*
X0200469Y0275402D01*
X0201382Y0275716D01*
X0202303Y0276008D01*
X0203232Y0276277D01*
X0204166Y0276523D01*
X0205106Y0276746D01*
X0206051Y0276947D01*
X0207001Y0277123D01*
X0207955Y0277277D01*
X0208913Y0277407D01*
X0209873Y0277513D01*
X0210836Y0277596D01*
X0211800Y0277656D01*
X0212766Y0277691D01*
X0213732Y0277703D01*
X0214698Y0277691D01*
X0215664Y0277656D01*
X0216628Y0277596D01*
X0217591Y0277513D01*
X0218551Y0277407D01*
X0219509Y0277277D01*
X0220463Y0277123D01*
X0221413Y0276947D01*
X0222358Y0276746D01*
X0223298Y0276523D01*
X0224232Y0276277D01*
X0225161Y0276008D01*
X0226082Y0275716D01*
X0226995Y0275402D01*
X0227901Y0275065D01*
X0228798Y0274706D01*
X0229686Y0274325D01*
X0230565Y0273923D01*
X0231433Y0273499D01*
X0232291Y0273054D01*
X0233137Y0272588D01*
X0233972Y0272102D01*
X0234795Y0271595D01*
X0235605Y0271068D01*
X0236402Y0270521D01*
X0237185Y0269955D01*
X0237954Y0269370D01*
X0238708Y0268766D01*
X0239447Y0268144D01*
X0240171Y0267504D01*
X0240879Y0266847D01*
X0241571Y0266172D01*
X0242246Y0265480D01*
X0242903Y0264772D01*
X0243543Y0264048D01*
X0244165Y0263309D01*
X0244769Y0262555D01*
X0245354Y0261786D01*
X0245920Y0261003D01*
X0246467Y0260206D01*
X0246994Y0259396D01*
X0247501Y0258573D01*
X0247987Y0257738D01*
X0248453Y0256892D01*
X0248898Y0256034D01*
X0249322Y0255166D01*
X0249724Y0254287D01*
X0250105Y0253399D01*
X0250464Y0252502D01*
X0250801Y0251596D01*
X0251115Y0250683D01*
X0251407Y0249762D01*
X0251676Y0248833D01*
X0251922Y0247899D01*
X0252145Y0246959D01*
X0252346Y0246014D01*
X0252522Y0245064D01*
X0252676Y0244110D01*
X0252806Y0243152D01*
X0252912Y0242192D01*
X0252995Y0241229D01*
X0253055Y0240265D01*
X0253090Y0239299D01*
X0253102Y0238333D01*
X0253090Y0237367D01*
X0253055Y0236401D01*
X0252995Y0235437D01*
X0252912Y0234474D01*
X0252806Y0233514D01*
X0252676Y0232556D01*
X0252522Y0231602D01*
X0252346Y0230652D01*
X0252145Y0229707D01*
X0251922Y0228767D01*
X0251676Y0227833D01*
X0251407Y0226904D01*
X0251115Y0225983D01*
X0250801Y0225070D01*
X0250464Y0224164D01*
X0250105Y0223267D01*
X0249724Y0222379D01*
X0249322Y0221500D01*
X0248898Y0220632D01*
X0248453Y0219774D01*
X0247987Y0218928D01*
X0247501Y0218093D01*
X0246994Y0217270D01*
X0246467Y0216460D01*
X0245920Y0215663D01*
X0245354Y0214880D01*
X0244769Y0214111D01*
X0244165Y0213357D01*
X0243543Y0212618D01*
X0242903Y0211894D01*
X0242246Y0211186D01*
X0241571Y0210494D01*
X0240879Y0209819D01*
X0240171Y0209162D01*
X0239447Y0208522D01*
X0238708Y0207900D01*
X0237954Y0207296D01*
X0237185Y0206711D01*
X0236402Y0206145D01*
X0235605Y0205598D01*
X0234795Y0205071D01*
X0233972Y0204564D01*
X0233137Y0204078D01*
X0232291Y0203612D01*
X0231433Y0203167D01*
X0230565Y0202743D01*
X0229686Y0202341D01*
X0228798Y0201960D01*
X0227901Y0201601D01*
X0226995Y0201264D01*
X0226082Y0200950D01*
X0225161Y0200658D01*
X0224232Y0200389D01*
X0223298Y0200143D01*
X0222358Y0199920D01*
X0221413Y0199719D01*
X0220463Y0199543D01*
X0219509Y0199389D01*
X0218551Y0199259D01*
X0217591Y0199153D01*
X0216628Y0199070D01*
X0215664Y0199010D01*
X0214698Y0198975D01*
X0213732Y0198963D01*
X0212766Y0198975D01*
X0211800Y0199010D01*
X0210836Y0199070D01*
X0209873Y0199153D01*
X0208913Y0199259D01*
X0207955Y0199389D01*
X0207001Y0199543D01*
X0206051Y0199719D01*
X0205106Y0199920D01*
X0204166Y0200143D01*
X0203232Y0200389D01*
X0202303Y0200658D01*
X0201382Y0200950D01*
X0200469Y0201264D01*
X0199563Y0201601D01*
X0198666Y0201960D01*
X0197778Y0202341D01*
X0196899Y0202743D01*
X0196031Y0203167D01*
X0195173Y0203612D01*
X0194327Y0204078D01*
X0193492Y0204564D01*
X0192669Y0205071D01*
X0191859Y0205598D01*
X0191062Y0206145D01*
X0190279Y0206711D01*
X0189510Y0207296D01*
X0188756Y0207900D01*
X0188017Y0208522D01*
X0187293Y0209162D01*
X0186585Y0209819D01*
X0185893Y0210494D01*
X0185218Y0211186D01*
X0184561Y0211894D01*
X0183921Y0212618D01*
X0183299Y0213357D01*
X0182695Y0214111D01*
X0182110Y0214880D01*
X0181544Y0215663D01*
X0180997Y0216460D01*
X0180470Y0217270D01*
X0179963Y0218093D01*
X0179477Y0218928D01*
X0179011Y0219774D01*
X0178566Y0220632D01*
X0178142Y0221500D01*
X0177740Y0222379D01*
X0177359Y0223267D01*
X0177000Y0224164D01*
X0176663Y0225070D01*
X0176349Y0225983D01*
X0176057Y0226904D01*
X0175788Y0227833D01*
X0175542Y0228767D01*
X0175319Y0229707D01*
X0175118Y0230652D01*
X0174942Y0231602D01*
X0174788Y0232556D01*
X0174658Y0233514D01*
X0174552Y0234474D01*
X0174469Y0235437D01*
X0174409Y0236401D01*
X0174374Y0237367D01*
X0174362Y0238333D01*
D14*
X0130444Y0238333D02*
X0130444Y0228333D01*
X0130444Y0218333D01*
X0130444Y0208333D01*
X0120444Y0208333D01*
X0120444Y0218333D01*
X0120444Y0228333D01*
X0130444Y0228333D01*
X0120444Y0228333D02*
X0120444Y0238333D01*
X0120444Y0248333D01*
X0130444Y0248333D01*
X0130444Y0238333D01*
X0120444Y0238333D01*
X0120444Y0248333D02*
X0120444Y0258333D01*
X0130444Y0258333D01*
X0130444Y0248333D01*
X0130444Y0258333D02*
X0130444Y0268333D01*
X0130444Y0278333D01*
X0120444Y0278333D01*
X0120444Y0268333D01*
X0120444Y0258333D01*
X0120444Y0268333D02*
X0130444Y0268333D01*
X0130444Y0278333D02*
X0130444Y0288333D01*
X0120444Y0288333D01*
X0120444Y0278333D01*
X0120444Y0218333D02*
X0130444Y0218333D01*
X0121330Y0185715D02*
X0121330Y0170951D01*
X0142688Y0173215D02*
X0142690Y0173286D01*
X0142696Y0173357D01*
X0142706Y0173428D01*
X0142720Y0173497D01*
X0142737Y0173566D01*
X0142759Y0173634D01*
X0142784Y0173701D01*
X0142813Y0173766D01*
X0142845Y0173829D01*
X0142881Y0173891D01*
X0142920Y0173950D01*
X0142963Y0174007D01*
X0143008Y0174062D01*
X0143057Y0174114D01*
X0143108Y0174163D01*
X0143162Y0174209D01*
X0143219Y0174253D01*
X0143277Y0174293D01*
X0143338Y0174329D01*
X0143401Y0174363D01*
X0143466Y0174392D01*
X0143532Y0174418D01*
X0143600Y0174441D01*
X0143668Y0174459D01*
X0143738Y0174474D01*
X0143808Y0174485D01*
X0143879Y0174492D01*
X0143950Y0174495D01*
X0144021Y0174494D01*
X0144092Y0174489D01*
X0144163Y0174480D01*
X0144233Y0174467D01*
X0144302Y0174451D01*
X0144370Y0174430D01*
X0144437Y0174406D01*
X0144503Y0174378D01*
X0144566Y0174346D01*
X0144628Y0174311D01*
X0144688Y0174273D01*
X0144746Y0174231D01*
X0144801Y0174187D01*
X0144854Y0174139D01*
X0144904Y0174088D01*
X0144951Y0174035D01*
X0144995Y0173979D01*
X0145036Y0173921D01*
X0145074Y0173860D01*
X0145108Y0173798D01*
X0145138Y0173733D01*
X0145165Y0173668D01*
X0145189Y0173600D01*
X0145208Y0173532D01*
X0145224Y0173463D01*
X0145236Y0173392D01*
X0145244Y0173322D01*
X0145248Y0173251D01*
X0145248Y0173179D01*
X0145244Y0173108D01*
X0145236Y0173038D01*
X0145224Y0172967D01*
X0145208Y0172898D01*
X0145189Y0172830D01*
X0145165Y0172762D01*
X0145138Y0172697D01*
X0145108Y0172632D01*
X0145074Y0172570D01*
X0145036Y0172509D01*
X0144995Y0172451D01*
X0144951Y0172395D01*
X0144904Y0172342D01*
X0144854Y0172291D01*
X0144801Y0172243D01*
X0144746Y0172199D01*
X0144688Y0172157D01*
X0144628Y0172119D01*
X0144566Y0172084D01*
X0144503Y0172052D01*
X0144437Y0172024D01*
X0144370Y0172000D01*
X0144302Y0171979D01*
X0144233Y0171963D01*
X0144163Y0171950D01*
X0144092Y0171941D01*
X0144021Y0171936D01*
X0143950Y0171935D01*
X0143879Y0171938D01*
X0143808Y0171945D01*
X0143738Y0171956D01*
X0143668Y0171971D01*
X0143600Y0171989D01*
X0143532Y0172012D01*
X0143466Y0172038D01*
X0143401Y0172067D01*
X0143338Y0172101D01*
X0143277Y0172137D01*
X0143219Y0172177D01*
X0143162Y0172221D01*
X0143108Y0172267D01*
X0143057Y0172316D01*
X0143008Y0172368D01*
X0142963Y0172423D01*
X0142920Y0172480D01*
X0142881Y0172539D01*
X0142845Y0172601D01*
X0142813Y0172664D01*
X0142784Y0172729D01*
X0142759Y0172796D01*
X0142737Y0172864D01*
X0142720Y0172933D01*
X0142706Y0173002D01*
X0142696Y0173073D01*
X0142690Y0173144D01*
X0142688Y0173215D01*
X0146133Y0170951D02*
X0146133Y0185715D01*
X0149330Y0185715D02*
X0149330Y0170951D01*
X0170688Y0173215D02*
X0170690Y0173286D01*
X0170696Y0173357D01*
X0170706Y0173428D01*
X0170720Y0173497D01*
X0170737Y0173566D01*
X0170759Y0173634D01*
X0170784Y0173701D01*
X0170813Y0173766D01*
X0170845Y0173829D01*
X0170881Y0173891D01*
X0170920Y0173950D01*
X0170963Y0174007D01*
X0171008Y0174062D01*
X0171057Y0174114D01*
X0171108Y0174163D01*
X0171162Y0174209D01*
X0171219Y0174253D01*
X0171277Y0174293D01*
X0171338Y0174329D01*
X0171401Y0174363D01*
X0171466Y0174392D01*
X0171532Y0174418D01*
X0171600Y0174441D01*
X0171668Y0174459D01*
X0171738Y0174474D01*
X0171808Y0174485D01*
X0171879Y0174492D01*
X0171950Y0174495D01*
X0172021Y0174494D01*
X0172092Y0174489D01*
X0172163Y0174480D01*
X0172233Y0174467D01*
X0172302Y0174451D01*
X0172370Y0174430D01*
X0172437Y0174406D01*
X0172503Y0174378D01*
X0172566Y0174346D01*
X0172628Y0174311D01*
X0172688Y0174273D01*
X0172746Y0174231D01*
X0172801Y0174187D01*
X0172854Y0174139D01*
X0172904Y0174088D01*
X0172951Y0174035D01*
X0172995Y0173979D01*
X0173036Y0173921D01*
X0173074Y0173860D01*
X0173108Y0173798D01*
X0173138Y0173733D01*
X0173165Y0173668D01*
X0173189Y0173600D01*
X0173208Y0173532D01*
X0173224Y0173463D01*
X0173236Y0173392D01*
X0173244Y0173322D01*
X0173248Y0173251D01*
X0173248Y0173179D01*
X0173244Y0173108D01*
X0173236Y0173038D01*
X0173224Y0172967D01*
X0173208Y0172898D01*
X0173189Y0172830D01*
X0173165Y0172762D01*
X0173138Y0172697D01*
X0173108Y0172632D01*
X0173074Y0172570D01*
X0173036Y0172509D01*
X0172995Y0172451D01*
X0172951Y0172395D01*
X0172904Y0172342D01*
X0172854Y0172291D01*
X0172801Y0172243D01*
X0172746Y0172199D01*
X0172688Y0172157D01*
X0172628Y0172119D01*
X0172566Y0172084D01*
X0172503Y0172052D01*
X0172437Y0172024D01*
X0172370Y0172000D01*
X0172302Y0171979D01*
X0172233Y0171963D01*
X0172163Y0171950D01*
X0172092Y0171941D01*
X0172021Y0171936D01*
X0171950Y0171935D01*
X0171879Y0171938D01*
X0171808Y0171945D01*
X0171738Y0171956D01*
X0171668Y0171971D01*
X0171600Y0171989D01*
X0171532Y0172012D01*
X0171466Y0172038D01*
X0171401Y0172067D01*
X0171338Y0172101D01*
X0171277Y0172137D01*
X0171219Y0172177D01*
X0171162Y0172221D01*
X0171108Y0172267D01*
X0171057Y0172316D01*
X0171008Y0172368D01*
X0170963Y0172423D01*
X0170920Y0172480D01*
X0170881Y0172539D01*
X0170845Y0172601D01*
X0170813Y0172664D01*
X0170784Y0172729D01*
X0170759Y0172796D01*
X0170737Y0172864D01*
X0170720Y0172933D01*
X0170706Y0173002D01*
X0170696Y0173073D01*
X0170690Y0173144D01*
X0170688Y0173215D01*
X0174133Y0170951D02*
X0174133Y0185715D01*
X0231633Y0172633D02*
X0245830Y0172633D01*
X0245830Y0154034D02*
X0231633Y0154034D01*
X0241432Y0127533D02*
X0242932Y0127533D01*
X0242932Y0126033D01*
X0217832Y0125733D02*
X0216332Y0124233D01*
X0214532Y0126033D02*
X0214532Y0127533D01*
X0216032Y0127533D01*
X0214532Y0100633D02*
X0214532Y0099133D01*
X0216032Y0099133D01*
X0241432Y0099133D02*
X0242932Y0099133D01*
X0242932Y0100633D01*
X0303232Y0236333D02*
X0313232Y0236333D01*
X0313232Y0246333D01*
X0313232Y0256333D01*
X0313232Y0266333D01*
X0303232Y0266333D01*
X0303232Y0256333D01*
X0303232Y0246333D01*
X0313232Y0246333D01*
X0303232Y0246333D02*
X0303232Y0236333D01*
X0303232Y0256333D02*
X0313232Y0256333D01*
D15*
X0315732Y0251333D02*
X0334482Y0251333D01*
X0334482Y0241333D02*
X0315732Y0241333D01*
X0315732Y0261333D02*
X0334482Y0261333D01*
X0117944Y0263333D02*
X0094322Y0263333D01*
X0094322Y0253333D02*
X0117944Y0253333D01*
X0117944Y0243333D02*
X0094322Y0243333D01*
X0094322Y0233333D02*
X0117944Y0233333D01*
X0117944Y0223333D02*
X0094322Y0223333D01*
X0094322Y0213333D02*
X0117944Y0213333D01*
X0117944Y0273333D02*
X0094322Y0273333D01*
X0094322Y0283333D02*
X0117944Y0283333D01*
D16*
X0133732Y0283333D02*
X0162669Y0283333D01*
X0162669Y0273333D02*
X0133732Y0273333D01*
X0133732Y0263333D02*
X0162669Y0263333D01*
X0162669Y0253333D02*
X0133732Y0253333D01*
X0133732Y0243333D02*
X0162669Y0243333D01*
X0162669Y0233333D02*
X0133732Y0233333D01*
X0133732Y0223333D02*
X0162669Y0223333D01*
X0162669Y0213333D02*
X0133732Y0213333D01*
X0288763Y0241333D02*
X0300732Y0241333D01*
X0300732Y0251333D02*
X0288763Y0251333D01*
X0288763Y0261333D02*
X0300732Y0261333D01*
D17*
X0314232Y0261333D03*
X0314232Y0251333D03*
X0314232Y0241333D03*
X0119444Y0243333D03*
X0119444Y0253333D03*
X0119444Y0263333D03*
X0119444Y0273333D03*
X0119444Y0283333D03*
X0119444Y0233333D03*
X0119444Y0223333D03*
X0119444Y0213333D03*
D18*
X0132444Y0213333D03*
X0132444Y0223333D03*
X0132444Y0233333D03*
X0132444Y0243333D03*
X0132444Y0253333D03*
X0132444Y0263333D03*
X0132444Y0273333D03*
X0132444Y0283333D03*
X0301232Y0261333D03*
X0301232Y0251333D03*
X0301232Y0241333D03*
D19*
X0234267Y0156233D02*
X0234269Y0156280D01*
X0234275Y0156327D01*
X0234285Y0156374D01*
X0234298Y0156419D01*
X0234316Y0156463D01*
X0234337Y0156505D01*
X0234361Y0156546D01*
X0234389Y0156584D01*
X0234420Y0156620D01*
X0234454Y0156653D01*
X0234490Y0156683D01*
X0234529Y0156710D01*
X0234570Y0156734D01*
X0234613Y0156754D01*
X0234657Y0156770D01*
X0234703Y0156783D01*
X0234749Y0156792D01*
X0234797Y0156797D01*
X0234844Y0156798D01*
X0234891Y0156795D01*
X0234938Y0156788D01*
X0234984Y0156777D01*
X0235029Y0156763D01*
X0235073Y0156744D01*
X0235114Y0156722D01*
X0235154Y0156697D01*
X0235192Y0156668D01*
X0235227Y0156637D01*
X0235260Y0156602D01*
X0235289Y0156565D01*
X0235315Y0156526D01*
X0235338Y0156484D01*
X0235357Y0156441D01*
X0235373Y0156396D01*
X0235385Y0156350D01*
X0235393Y0156304D01*
X0235397Y0156257D01*
X0235397Y0156209D01*
X0235393Y0156162D01*
X0235385Y0156116D01*
X0235373Y0156070D01*
X0235357Y0156025D01*
X0235338Y0155982D01*
X0235315Y0155940D01*
X0235289Y0155901D01*
X0235260Y0155864D01*
X0235227Y0155829D01*
X0235192Y0155798D01*
X0235154Y0155769D01*
X0235115Y0155744D01*
X0235073Y0155722D01*
X0235029Y0155703D01*
X0234984Y0155689D01*
X0234938Y0155678D01*
X0234891Y0155671D01*
X0234844Y0155668D01*
X0234797Y0155669D01*
X0234749Y0155674D01*
X0234703Y0155683D01*
X0234657Y0155696D01*
X0234613Y0155712D01*
X0234570Y0155732D01*
X0234529Y0155756D01*
X0234490Y0155783D01*
X0234454Y0155813D01*
X0234420Y0155846D01*
X0234389Y0155882D01*
X0234361Y0155920D01*
X0234337Y0155961D01*
X0234316Y0156003D01*
X0234298Y0156047D01*
X0234285Y0156092D01*
X0234275Y0156139D01*
X0234269Y0156186D01*
X0234267Y0156233D01*
X0175854Y0137644D02*
X0175854Y0098274D01*
X0136484Y0098274D01*
X0136484Y0133707D01*
X0140421Y0137644D01*
X0175854Y0137644D01*
M02*
