G75*
%MOIN*%
%OFA0B0*%
%FSLAX25Y25*%
%IPPOS*%
%LPD*%
%AMOC8*
5,1,8,0,0,1.08239X$1,22.5*
%
%ADD10C,0.00000*%
%ADD11C,0.02600*%
%ADD12R,0.14773X0.07687*%
%ADD13R,0.04537X0.04931*%
%ADD14R,0.04498X0.03317*%
%ADD15C,0.07500*%
%ADD16R,0.04700X0.08000*%
%ADD17C,0.13198*%
D10*
X0000000Y-0019685D02*
X0000000Y0000984D01*
X-0020669Y0000984D01*
X-0020830Y0000978D01*
X-0020992Y0000977D01*
X-0021153Y0000980D01*
X-0021314Y0000986D01*
X-0021475Y0000997D01*
X-0021635Y0001011D01*
X-0021795Y0001029D01*
X-0021955Y0001052D01*
X-0022114Y0001078D01*
X-0022272Y0001108D01*
X-0022430Y0001141D01*
X-0022587Y0001179D01*
X-0022742Y0001221D01*
X-0022897Y0001266D01*
X-0023051Y0001315D01*
X-0023203Y0001368D01*
X-0023354Y0001424D01*
X-0023504Y0001484D01*
X-0023652Y0001548D01*
X-0023798Y0001615D01*
X-0023943Y0001686D01*
X-0024086Y0001761D01*
X-0024227Y0001839D01*
X-0024366Y0001920D01*
X-0024503Y0002005D01*
X-0024638Y0002093D01*
X-0024771Y0002184D01*
X-0024901Y0002279D01*
X-0025030Y0002376D01*
X-0025155Y0002477D01*
X-0025279Y0002581D01*
X-0025399Y0002688D01*
X-0025518Y0002798D01*
X-0025633Y0002910D01*
X-0025745Y0003025D01*
X-0025855Y0003144D01*
X-0025962Y0003264D01*
X-0026066Y0003388D01*
X-0026167Y0003513D01*
X-0026264Y0003642D01*
X-0026359Y0003772D01*
X-0026450Y0003905D01*
X-0026538Y0004040D01*
X-0026623Y0004177D01*
X-0026704Y0004316D01*
X-0026782Y0004457D01*
X-0026857Y0004600D01*
X-0026928Y0004745D01*
X-0026995Y0004891D01*
X-0027059Y0005039D01*
X-0027119Y0005189D01*
X-0027175Y0005340D01*
X-0027228Y0005492D01*
X-0027277Y0005646D01*
X-0027322Y0005801D01*
X-0027364Y0005956D01*
X-0027402Y0006113D01*
X-0027435Y0006271D01*
X-0027465Y0006429D01*
X-0027491Y0006588D01*
X-0027514Y0006748D01*
X-0027532Y0006908D01*
X-0027546Y0007068D01*
X-0027557Y0007229D01*
X-0027563Y0007390D01*
X-0027566Y0007551D01*
X-0027565Y0007713D01*
X-0027559Y0007874D01*
X-0027559Y0019685D01*
X-0027560Y0019685D02*
X-0027563Y0019849D01*
X-0027562Y0020012D01*
X-0027557Y0020176D01*
X-0027548Y0020339D01*
X-0027535Y0020502D01*
X-0027518Y0020665D01*
X-0027497Y0020827D01*
X-0027473Y0020988D01*
X-0027444Y0021149D01*
X-0027411Y0021310D01*
X-0027375Y0021469D01*
X-0027334Y0021627D01*
X-0027290Y0021785D01*
X-0027242Y0021941D01*
X-0027190Y0022096D01*
X-0027134Y0022250D01*
X-0027075Y0022402D01*
X-0027012Y0022553D01*
X-0026945Y0022702D01*
X-0026874Y0022850D01*
X-0026800Y0022995D01*
X-0026723Y0023139D01*
X-0026642Y0023281D01*
X-0026557Y0023421D01*
X-0026469Y0023559D01*
X-0026378Y0023695D01*
X-0026284Y0023828D01*
X-0026186Y0023959D01*
X-0026085Y0024088D01*
X-0025981Y0024214D01*
X-0025874Y0024338D01*
X-0025764Y0024459D01*
X-0025651Y0024577D01*
X-0025535Y0024692D01*
X-0025416Y0024805D01*
X-0025295Y0024914D01*
X-0025171Y0025021D01*
X-0025044Y0025125D01*
X-0024915Y0025225D01*
X-0024784Y0025322D01*
X-0024650Y0025416D01*
X-0024514Y0025507D01*
X-0024376Y0025594D01*
X-0024236Y0025678D01*
X-0024093Y0025759D01*
X-0023949Y0025836D01*
X-0023803Y0025909D01*
X-0023655Y0025979D01*
X-0023506Y0026045D01*
X-0023355Y0026108D01*
X-0023202Y0026167D01*
X-0023048Y0026222D01*
X-0022893Y0026273D01*
X-0022737Y0026321D01*
X-0022579Y0026365D01*
X-0022420Y0026405D01*
X-0022261Y0026440D01*
X-0022101Y0026473D01*
X-0021940Y0026501D01*
X-0021778Y0026525D01*
X-0021616Y0026545D01*
X-0021453Y0026561D01*
X-0021290Y0026574D01*
X-0021127Y0026582D01*
X-0020963Y0026586D01*
X-0020800Y0026587D01*
X-0020636Y0026583D01*
X-0020473Y0026575D01*
X-0020472Y0026575D02*
X0000000Y0026575D01*
X0000000Y0123031D01*
X-0020669Y0123031D01*
X-0020669Y0123032D02*
X-0020830Y0123026D01*
X-0020992Y0123025D01*
X-0021153Y0123028D01*
X-0021314Y0123034D01*
X-0021475Y0123045D01*
X-0021635Y0123059D01*
X-0021795Y0123077D01*
X-0021955Y0123100D01*
X-0022114Y0123126D01*
X-0022272Y0123156D01*
X-0022430Y0123189D01*
X-0022587Y0123227D01*
X-0022742Y0123269D01*
X-0022897Y0123314D01*
X-0023051Y0123363D01*
X-0023203Y0123416D01*
X-0023354Y0123472D01*
X-0023504Y0123532D01*
X-0023652Y0123596D01*
X-0023798Y0123663D01*
X-0023943Y0123734D01*
X-0024086Y0123809D01*
X-0024227Y0123887D01*
X-0024366Y0123968D01*
X-0024503Y0124053D01*
X-0024638Y0124141D01*
X-0024771Y0124232D01*
X-0024901Y0124327D01*
X-0025030Y0124424D01*
X-0025155Y0124525D01*
X-0025279Y0124629D01*
X-0025399Y0124736D01*
X-0025518Y0124846D01*
X-0025633Y0124958D01*
X-0025745Y0125073D01*
X-0025855Y0125192D01*
X-0025962Y0125312D01*
X-0026066Y0125436D01*
X-0026167Y0125561D01*
X-0026264Y0125690D01*
X-0026359Y0125820D01*
X-0026450Y0125953D01*
X-0026538Y0126088D01*
X-0026623Y0126225D01*
X-0026704Y0126364D01*
X-0026782Y0126505D01*
X-0026857Y0126648D01*
X-0026928Y0126793D01*
X-0026995Y0126939D01*
X-0027059Y0127087D01*
X-0027119Y0127237D01*
X-0027175Y0127388D01*
X-0027228Y0127540D01*
X-0027277Y0127694D01*
X-0027322Y0127849D01*
X-0027364Y0128004D01*
X-0027402Y0128161D01*
X-0027435Y0128319D01*
X-0027465Y0128477D01*
X-0027491Y0128636D01*
X-0027514Y0128796D01*
X-0027532Y0128956D01*
X-0027546Y0129116D01*
X-0027557Y0129277D01*
X-0027563Y0129438D01*
X-0027566Y0129599D01*
X-0027565Y0129761D01*
X-0027559Y0129922D01*
X-0027559Y0129921D02*
X-0027559Y0141732D01*
X-0027560Y0141732D02*
X-0027563Y0141896D01*
X-0027562Y0142059D01*
X-0027557Y0142223D01*
X-0027548Y0142386D01*
X-0027535Y0142549D01*
X-0027518Y0142712D01*
X-0027497Y0142874D01*
X-0027473Y0143035D01*
X-0027444Y0143196D01*
X-0027411Y0143357D01*
X-0027375Y0143516D01*
X-0027334Y0143674D01*
X-0027290Y0143832D01*
X-0027242Y0143988D01*
X-0027190Y0144143D01*
X-0027134Y0144297D01*
X-0027075Y0144449D01*
X-0027012Y0144600D01*
X-0026945Y0144749D01*
X-0026874Y0144897D01*
X-0026800Y0145042D01*
X-0026723Y0145186D01*
X-0026642Y0145328D01*
X-0026557Y0145468D01*
X-0026469Y0145606D01*
X-0026378Y0145742D01*
X-0026284Y0145875D01*
X-0026186Y0146006D01*
X-0026085Y0146135D01*
X-0025981Y0146261D01*
X-0025874Y0146385D01*
X-0025764Y0146506D01*
X-0025651Y0146624D01*
X-0025535Y0146739D01*
X-0025416Y0146852D01*
X-0025295Y0146961D01*
X-0025171Y0147068D01*
X-0025044Y0147172D01*
X-0024915Y0147272D01*
X-0024784Y0147369D01*
X-0024650Y0147463D01*
X-0024514Y0147554D01*
X-0024376Y0147641D01*
X-0024236Y0147725D01*
X-0024093Y0147806D01*
X-0023949Y0147883D01*
X-0023803Y0147956D01*
X-0023655Y0148026D01*
X-0023506Y0148092D01*
X-0023355Y0148155D01*
X-0023202Y0148214D01*
X-0023048Y0148269D01*
X-0022893Y0148320D01*
X-0022737Y0148368D01*
X-0022579Y0148412D01*
X-0022420Y0148452D01*
X-0022261Y0148487D01*
X-0022101Y0148520D01*
X-0021940Y0148548D01*
X-0021778Y0148572D01*
X-0021616Y0148592D01*
X-0021453Y0148608D01*
X-0021290Y0148621D01*
X-0021127Y0148629D01*
X-0020963Y0148633D01*
X-0020800Y0148634D01*
X-0020636Y0148630D01*
X-0020473Y0148622D01*
X-0020472Y0148622D02*
X0000000Y0148622D01*
X0000000Y0169291D01*
X-0000003Y0169455D01*
X-0000002Y0169618D01*
X0000003Y0169782D01*
X0000012Y0169945D01*
X0000025Y0170108D01*
X0000042Y0170271D01*
X0000063Y0170433D01*
X0000087Y0170594D01*
X0000116Y0170755D01*
X0000149Y0170916D01*
X0000185Y0171075D01*
X0000226Y0171233D01*
X0000270Y0171391D01*
X0000318Y0171547D01*
X0000370Y0171702D01*
X0000426Y0171856D01*
X0000485Y0172008D01*
X0000548Y0172159D01*
X0000615Y0172308D01*
X0000686Y0172456D01*
X0000760Y0172601D01*
X0000837Y0172745D01*
X0000918Y0172887D01*
X0001003Y0173027D01*
X0001091Y0173165D01*
X0001182Y0173301D01*
X0001276Y0173434D01*
X0001374Y0173565D01*
X0001475Y0173694D01*
X0001579Y0173820D01*
X0001686Y0173944D01*
X0001796Y0174065D01*
X0001909Y0174183D01*
X0002025Y0174298D01*
X0002144Y0174411D01*
X0002265Y0174520D01*
X0002389Y0174627D01*
X0002516Y0174731D01*
X0002645Y0174831D01*
X0002776Y0174928D01*
X0002910Y0175022D01*
X0003046Y0175113D01*
X0003184Y0175200D01*
X0003324Y0175284D01*
X0003467Y0175365D01*
X0003611Y0175442D01*
X0003757Y0175515D01*
X0003905Y0175585D01*
X0004054Y0175651D01*
X0004205Y0175714D01*
X0004358Y0175773D01*
X0004512Y0175828D01*
X0004667Y0175879D01*
X0004823Y0175927D01*
X0004981Y0175971D01*
X0005140Y0176011D01*
X0005299Y0176046D01*
X0005459Y0176079D01*
X0005620Y0176107D01*
X0005782Y0176131D01*
X0005944Y0176151D01*
X0006107Y0176167D01*
X0006270Y0176180D01*
X0006433Y0176188D01*
X0006597Y0176192D01*
X0006760Y0176193D01*
X0006924Y0176189D01*
X0007087Y0176181D01*
X0018701Y0176181D01*
X0018700Y0176181D02*
X0018861Y0176187D01*
X0019023Y0176188D01*
X0019184Y0176185D01*
X0019345Y0176179D01*
X0019506Y0176168D01*
X0019666Y0176154D01*
X0019826Y0176136D01*
X0019986Y0176113D01*
X0020145Y0176087D01*
X0020303Y0176057D01*
X0020461Y0176024D01*
X0020618Y0175986D01*
X0020773Y0175944D01*
X0020928Y0175899D01*
X0021082Y0175850D01*
X0021234Y0175797D01*
X0021385Y0175741D01*
X0021535Y0175681D01*
X0021683Y0175617D01*
X0021829Y0175550D01*
X0021974Y0175479D01*
X0022117Y0175404D01*
X0022258Y0175326D01*
X0022397Y0175245D01*
X0022534Y0175160D01*
X0022669Y0175072D01*
X0022802Y0174981D01*
X0022932Y0174886D01*
X0023061Y0174789D01*
X0023186Y0174688D01*
X0023310Y0174584D01*
X0023430Y0174477D01*
X0023549Y0174367D01*
X0023664Y0174255D01*
X0023776Y0174140D01*
X0023886Y0174021D01*
X0023993Y0173901D01*
X0024097Y0173777D01*
X0024198Y0173652D01*
X0024295Y0173523D01*
X0024390Y0173393D01*
X0024481Y0173260D01*
X0024569Y0173125D01*
X0024654Y0172988D01*
X0024735Y0172849D01*
X0024813Y0172708D01*
X0024888Y0172565D01*
X0024959Y0172420D01*
X0025026Y0172274D01*
X0025090Y0172126D01*
X0025150Y0171976D01*
X0025206Y0171825D01*
X0025259Y0171673D01*
X0025308Y0171519D01*
X0025353Y0171364D01*
X0025395Y0171209D01*
X0025433Y0171052D01*
X0025466Y0170894D01*
X0025496Y0170736D01*
X0025522Y0170577D01*
X0025545Y0170417D01*
X0025563Y0170257D01*
X0025577Y0170097D01*
X0025588Y0169936D01*
X0025594Y0169775D01*
X0025597Y0169614D01*
X0025596Y0169452D01*
X0025590Y0169291D01*
X0025591Y0169291D02*
X0025591Y0148622D01*
X0114173Y0148622D01*
X0114173Y0169291D01*
X0114170Y0169455D01*
X0114171Y0169618D01*
X0114176Y0169782D01*
X0114185Y0169945D01*
X0114198Y0170108D01*
X0114215Y0170271D01*
X0114236Y0170433D01*
X0114260Y0170594D01*
X0114289Y0170755D01*
X0114322Y0170916D01*
X0114358Y0171075D01*
X0114399Y0171233D01*
X0114443Y0171391D01*
X0114491Y0171547D01*
X0114543Y0171702D01*
X0114599Y0171856D01*
X0114658Y0172008D01*
X0114721Y0172159D01*
X0114788Y0172308D01*
X0114859Y0172456D01*
X0114933Y0172601D01*
X0115010Y0172745D01*
X0115091Y0172887D01*
X0115176Y0173027D01*
X0115264Y0173165D01*
X0115355Y0173301D01*
X0115449Y0173434D01*
X0115547Y0173565D01*
X0115648Y0173694D01*
X0115752Y0173820D01*
X0115859Y0173944D01*
X0115969Y0174065D01*
X0116082Y0174183D01*
X0116198Y0174298D01*
X0116317Y0174411D01*
X0116438Y0174520D01*
X0116562Y0174627D01*
X0116689Y0174731D01*
X0116818Y0174831D01*
X0116949Y0174928D01*
X0117083Y0175022D01*
X0117219Y0175113D01*
X0117357Y0175200D01*
X0117497Y0175284D01*
X0117640Y0175365D01*
X0117784Y0175442D01*
X0117930Y0175515D01*
X0118078Y0175585D01*
X0118227Y0175651D01*
X0118378Y0175714D01*
X0118531Y0175773D01*
X0118685Y0175828D01*
X0118840Y0175879D01*
X0118996Y0175927D01*
X0119154Y0175971D01*
X0119313Y0176011D01*
X0119472Y0176046D01*
X0119632Y0176079D01*
X0119793Y0176107D01*
X0119955Y0176131D01*
X0120117Y0176151D01*
X0120280Y0176167D01*
X0120443Y0176180D01*
X0120606Y0176188D01*
X0120770Y0176192D01*
X0120933Y0176193D01*
X0121097Y0176189D01*
X0121260Y0176181D01*
X0132874Y0176181D01*
X0133035Y0176187D01*
X0133197Y0176188D01*
X0133358Y0176185D01*
X0133519Y0176179D01*
X0133680Y0176168D01*
X0133840Y0176154D01*
X0134000Y0176136D01*
X0134160Y0176113D01*
X0134319Y0176087D01*
X0134477Y0176057D01*
X0134635Y0176024D01*
X0134792Y0175986D01*
X0134947Y0175944D01*
X0135102Y0175899D01*
X0135256Y0175850D01*
X0135408Y0175797D01*
X0135559Y0175741D01*
X0135709Y0175681D01*
X0135857Y0175617D01*
X0136003Y0175550D01*
X0136148Y0175479D01*
X0136291Y0175404D01*
X0136432Y0175326D01*
X0136571Y0175245D01*
X0136708Y0175160D01*
X0136843Y0175072D01*
X0136976Y0174981D01*
X0137106Y0174886D01*
X0137235Y0174789D01*
X0137360Y0174688D01*
X0137484Y0174584D01*
X0137604Y0174477D01*
X0137723Y0174367D01*
X0137838Y0174255D01*
X0137950Y0174140D01*
X0138060Y0174021D01*
X0138167Y0173901D01*
X0138271Y0173777D01*
X0138372Y0173652D01*
X0138469Y0173523D01*
X0138564Y0173393D01*
X0138655Y0173260D01*
X0138743Y0173125D01*
X0138828Y0172988D01*
X0138909Y0172849D01*
X0138987Y0172708D01*
X0139062Y0172565D01*
X0139133Y0172420D01*
X0139200Y0172274D01*
X0139264Y0172126D01*
X0139324Y0171976D01*
X0139380Y0171825D01*
X0139433Y0171673D01*
X0139482Y0171519D01*
X0139527Y0171364D01*
X0139569Y0171209D01*
X0139607Y0171052D01*
X0139640Y0170894D01*
X0139670Y0170736D01*
X0139696Y0170577D01*
X0139719Y0170417D01*
X0139737Y0170257D01*
X0139751Y0170097D01*
X0139762Y0169936D01*
X0139768Y0169775D01*
X0139771Y0169614D01*
X0139770Y0169452D01*
X0139764Y0169291D01*
X0139764Y0148622D01*
X0160433Y0148622D01*
X0160594Y0148628D01*
X0160756Y0148629D01*
X0160917Y0148626D01*
X0161078Y0148620D01*
X0161239Y0148609D01*
X0161399Y0148595D01*
X0161559Y0148577D01*
X0161719Y0148554D01*
X0161878Y0148528D01*
X0162036Y0148498D01*
X0162194Y0148465D01*
X0162351Y0148427D01*
X0162506Y0148385D01*
X0162661Y0148340D01*
X0162815Y0148291D01*
X0162967Y0148238D01*
X0163118Y0148182D01*
X0163268Y0148122D01*
X0163416Y0148058D01*
X0163562Y0147991D01*
X0163707Y0147920D01*
X0163850Y0147845D01*
X0163991Y0147767D01*
X0164130Y0147686D01*
X0164267Y0147601D01*
X0164402Y0147513D01*
X0164535Y0147422D01*
X0164665Y0147327D01*
X0164794Y0147230D01*
X0164919Y0147129D01*
X0165043Y0147025D01*
X0165163Y0146918D01*
X0165282Y0146808D01*
X0165397Y0146696D01*
X0165509Y0146581D01*
X0165619Y0146462D01*
X0165726Y0146342D01*
X0165830Y0146218D01*
X0165931Y0146093D01*
X0166028Y0145964D01*
X0166123Y0145834D01*
X0166214Y0145701D01*
X0166302Y0145566D01*
X0166387Y0145429D01*
X0166468Y0145290D01*
X0166546Y0145149D01*
X0166621Y0145006D01*
X0166692Y0144861D01*
X0166759Y0144715D01*
X0166823Y0144567D01*
X0166883Y0144417D01*
X0166939Y0144266D01*
X0166992Y0144114D01*
X0167041Y0143960D01*
X0167086Y0143805D01*
X0167128Y0143650D01*
X0167166Y0143493D01*
X0167199Y0143335D01*
X0167229Y0143177D01*
X0167255Y0143018D01*
X0167278Y0142858D01*
X0167296Y0142698D01*
X0167310Y0142538D01*
X0167321Y0142377D01*
X0167327Y0142216D01*
X0167330Y0142055D01*
X0167329Y0141893D01*
X0167323Y0141732D01*
X0167323Y0129921D01*
X0167323Y0129922D02*
X0167329Y0129761D01*
X0167330Y0129599D01*
X0167327Y0129438D01*
X0167321Y0129277D01*
X0167310Y0129116D01*
X0167296Y0128956D01*
X0167278Y0128796D01*
X0167255Y0128636D01*
X0167229Y0128477D01*
X0167199Y0128319D01*
X0167166Y0128161D01*
X0167128Y0128004D01*
X0167086Y0127849D01*
X0167041Y0127694D01*
X0166992Y0127540D01*
X0166939Y0127388D01*
X0166883Y0127237D01*
X0166823Y0127087D01*
X0166759Y0126939D01*
X0166692Y0126793D01*
X0166621Y0126648D01*
X0166546Y0126505D01*
X0166468Y0126364D01*
X0166387Y0126225D01*
X0166302Y0126088D01*
X0166214Y0125953D01*
X0166123Y0125820D01*
X0166028Y0125690D01*
X0165931Y0125561D01*
X0165830Y0125436D01*
X0165726Y0125312D01*
X0165619Y0125192D01*
X0165509Y0125073D01*
X0165397Y0124958D01*
X0165282Y0124846D01*
X0165163Y0124736D01*
X0165043Y0124629D01*
X0164919Y0124525D01*
X0164794Y0124424D01*
X0164665Y0124327D01*
X0164535Y0124232D01*
X0164402Y0124141D01*
X0164267Y0124053D01*
X0164130Y0123968D01*
X0163991Y0123887D01*
X0163850Y0123809D01*
X0163707Y0123734D01*
X0163562Y0123663D01*
X0163416Y0123596D01*
X0163268Y0123532D01*
X0163118Y0123472D01*
X0162967Y0123416D01*
X0162815Y0123363D01*
X0162661Y0123314D01*
X0162506Y0123269D01*
X0162351Y0123227D01*
X0162194Y0123189D01*
X0162036Y0123156D01*
X0161878Y0123126D01*
X0161719Y0123100D01*
X0161559Y0123077D01*
X0161399Y0123059D01*
X0161239Y0123045D01*
X0161078Y0123034D01*
X0160917Y0123028D01*
X0160756Y0123025D01*
X0160594Y0123026D01*
X0160433Y0123032D01*
X0160433Y0123031D02*
X0140000Y0123031D01*
X0140000Y0026575D01*
X0160433Y0026575D01*
X0160594Y0026581D01*
X0160756Y0026582D01*
X0160917Y0026579D01*
X0161078Y0026573D01*
X0161239Y0026562D01*
X0161399Y0026548D01*
X0161559Y0026530D01*
X0161719Y0026507D01*
X0161878Y0026481D01*
X0162036Y0026451D01*
X0162194Y0026418D01*
X0162351Y0026380D01*
X0162506Y0026338D01*
X0162661Y0026293D01*
X0162815Y0026244D01*
X0162967Y0026191D01*
X0163118Y0026135D01*
X0163268Y0026075D01*
X0163416Y0026011D01*
X0163562Y0025944D01*
X0163707Y0025873D01*
X0163850Y0025798D01*
X0163991Y0025720D01*
X0164130Y0025639D01*
X0164267Y0025554D01*
X0164402Y0025466D01*
X0164535Y0025375D01*
X0164665Y0025280D01*
X0164794Y0025183D01*
X0164919Y0025082D01*
X0165043Y0024978D01*
X0165163Y0024871D01*
X0165282Y0024761D01*
X0165397Y0024649D01*
X0165509Y0024534D01*
X0165619Y0024415D01*
X0165726Y0024295D01*
X0165830Y0024171D01*
X0165931Y0024046D01*
X0166028Y0023917D01*
X0166123Y0023787D01*
X0166214Y0023654D01*
X0166302Y0023519D01*
X0166387Y0023382D01*
X0166468Y0023243D01*
X0166546Y0023102D01*
X0166621Y0022959D01*
X0166692Y0022814D01*
X0166759Y0022668D01*
X0166823Y0022520D01*
X0166883Y0022370D01*
X0166939Y0022219D01*
X0166992Y0022067D01*
X0167041Y0021913D01*
X0167086Y0021758D01*
X0167128Y0021603D01*
X0167166Y0021446D01*
X0167199Y0021288D01*
X0167229Y0021130D01*
X0167255Y0020971D01*
X0167278Y0020811D01*
X0167296Y0020651D01*
X0167310Y0020491D01*
X0167321Y0020330D01*
X0167327Y0020169D01*
X0167330Y0020008D01*
X0167329Y0019846D01*
X0167323Y0019685D01*
X0167323Y0007874D01*
X0167329Y0007713D01*
X0167330Y0007551D01*
X0167327Y0007390D01*
X0167321Y0007229D01*
X0167310Y0007068D01*
X0167296Y0006908D01*
X0167278Y0006748D01*
X0167255Y0006588D01*
X0167229Y0006429D01*
X0167199Y0006271D01*
X0167166Y0006113D01*
X0167128Y0005956D01*
X0167086Y0005801D01*
X0167041Y0005646D01*
X0166992Y0005492D01*
X0166939Y0005340D01*
X0166883Y0005189D01*
X0166823Y0005039D01*
X0166759Y0004891D01*
X0166692Y0004745D01*
X0166621Y0004600D01*
X0166546Y0004457D01*
X0166468Y0004316D01*
X0166387Y0004177D01*
X0166302Y0004040D01*
X0166214Y0003905D01*
X0166123Y0003772D01*
X0166028Y0003642D01*
X0165931Y0003513D01*
X0165830Y0003388D01*
X0165726Y0003264D01*
X0165619Y0003144D01*
X0165509Y0003025D01*
X0165397Y0002910D01*
X0165282Y0002798D01*
X0165163Y0002688D01*
X0165043Y0002581D01*
X0164919Y0002477D01*
X0164794Y0002376D01*
X0164665Y0002279D01*
X0164535Y0002184D01*
X0164402Y0002093D01*
X0164267Y0002005D01*
X0164130Y0001920D01*
X0163991Y0001839D01*
X0163850Y0001761D01*
X0163707Y0001686D01*
X0163562Y0001615D01*
X0163416Y0001548D01*
X0163268Y0001484D01*
X0163118Y0001424D01*
X0162967Y0001368D01*
X0162815Y0001315D01*
X0162661Y0001266D01*
X0162506Y0001221D01*
X0162351Y0001179D01*
X0162194Y0001141D01*
X0162036Y0001108D01*
X0161878Y0001078D01*
X0161719Y0001052D01*
X0161559Y0001029D01*
X0161399Y0001011D01*
X0161239Y0000997D01*
X0161078Y0000986D01*
X0160917Y0000980D01*
X0160756Y0000977D01*
X0160594Y0000978D01*
X0160433Y0000984D01*
X0139764Y0000984D01*
X0139764Y-0019685D01*
X0139770Y-0019846D01*
X0139771Y-0020008D01*
X0139768Y-0020169D01*
X0139762Y-0020330D01*
X0139751Y-0020491D01*
X0139737Y-0020651D01*
X0139719Y-0020811D01*
X0139696Y-0020971D01*
X0139670Y-0021130D01*
X0139640Y-0021288D01*
X0139607Y-0021446D01*
X0139569Y-0021603D01*
X0139527Y-0021758D01*
X0139482Y-0021913D01*
X0139433Y-0022067D01*
X0139380Y-0022219D01*
X0139324Y-0022370D01*
X0139264Y-0022520D01*
X0139200Y-0022668D01*
X0139133Y-0022814D01*
X0139062Y-0022959D01*
X0138987Y-0023102D01*
X0138909Y-0023243D01*
X0138828Y-0023382D01*
X0138743Y-0023519D01*
X0138655Y-0023654D01*
X0138564Y-0023787D01*
X0138469Y-0023917D01*
X0138372Y-0024046D01*
X0138271Y-0024171D01*
X0138167Y-0024295D01*
X0138060Y-0024415D01*
X0137950Y-0024534D01*
X0137838Y-0024649D01*
X0137723Y-0024761D01*
X0137604Y-0024871D01*
X0137484Y-0024978D01*
X0137360Y-0025082D01*
X0137235Y-0025183D01*
X0137106Y-0025280D01*
X0136976Y-0025375D01*
X0136843Y-0025466D01*
X0136708Y-0025554D01*
X0136571Y-0025639D01*
X0136432Y-0025720D01*
X0136291Y-0025798D01*
X0136148Y-0025873D01*
X0136003Y-0025944D01*
X0135857Y-0026011D01*
X0135709Y-0026075D01*
X0135559Y-0026135D01*
X0135408Y-0026191D01*
X0135256Y-0026244D01*
X0135102Y-0026293D01*
X0134947Y-0026338D01*
X0134792Y-0026380D01*
X0134635Y-0026418D01*
X0134477Y-0026451D01*
X0134319Y-0026481D01*
X0134160Y-0026507D01*
X0134000Y-0026530D01*
X0133840Y-0026548D01*
X0133680Y-0026562D01*
X0133519Y-0026573D01*
X0133358Y-0026579D01*
X0133197Y-0026582D01*
X0133035Y-0026581D01*
X0132874Y-0026575D01*
X0121063Y-0026575D01*
X0120902Y-0026581D01*
X0120740Y-0026582D01*
X0120579Y-0026579D01*
X0120418Y-0026573D01*
X0120257Y-0026562D01*
X0120097Y-0026548D01*
X0119937Y-0026530D01*
X0119777Y-0026507D01*
X0119618Y-0026481D01*
X0119460Y-0026451D01*
X0119302Y-0026418D01*
X0119145Y-0026380D01*
X0118990Y-0026338D01*
X0118835Y-0026293D01*
X0118681Y-0026244D01*
X0118529Y-0026191D01*
X0118378Y-0026135D01*
X0118228Y-0026075D01*
X0118080Y-0026011D01*
X0117934Y-0025944D01*
X0117789Y-0025873D01*
X0117646Y-0025798D01*
X0117505Y-0025720D01*
X0117366Y-0025639D01*
X0117229Y-0025554D01*
X0117094Y-0025466D01*
X0116961Y-0025375D01*
X0116831Y-0025280D01*
X0116702Y-0025183D01*
X0116577Y-0025082D01*
X0116453Y-0024978D01*
X0116333Y-0024871D01*
X0116214Y-0024761D01*
X0116099Y-0024649D01*
X0115987Y-0024534D01*
X0115877Y-0024415D01*
X0115770Y-0024295D01*
X0115666Y-0024171D01*
X0115565Y-0024046D01*
X0115468Y-0023917D01*
X0115373Y-0023787D01*
X0115282Y-0023654D01*
X0115194Y-0023519D01*
X0115109Y-0023382D01*
X0115028Y-0023243D01*
X0114950Y-0023102D01*
X0114875Y-0022959D01*
X0114804Y-0022814D01*
X0114737Y-0022668D01*
X0114673Y-0022520D01*
X0114613Y-0022370D01*
X0114557Y-0022219D01*
X0114504Y-0022067D01*
X0114455Y-0021913D01*
X0114410Y-0021758D01*
X0114368Y-0021603D01*
X0114330Y-0021446D01*
X0114297Y-0021288D01*
X0114267Y-0021130D01*
X0114241Y-0020971D01*
X0114218Y-0020811D01*
X0114200Y-0020651D01*
X0114186Y-0020491D01*
X0114175Y-0020330D01*
X0114169Y-0020169D01*
X0114166Y-0020008D01*
X0114167Y-0019846D01*
X0114173Y-0019685D01*
X0114173Y0000984D01*
X0025591Y0000984D01*
X0025591Y-0019685D01*
X0025590Y-0019685D02*
X0025596Y-0019846D01*
X0025597Y-0020008D01*
X0025594Y-0020169D01*
X0025588Y-0020330D01*
X0025577Y-0020491D01*
X0025563Y-0020651D01*
X0025545Y-0020811D01*
X0025522Y-0020971D01*
X0025496Y-0021130D01*
X0025466Y-0021288D01*
X0025433Y-0021446D01*
X0025395Y-0021603D01*
X0025353Y-0021758D01*
X0025308Y-0021913D01*
X0025259Y-0022067D01*
X0025206Y-0022219D01*
X0025150Y-0022370D01*
X0025090Y-0022520D01*
X0025026Y-0022668D01*
X0024959Y-0022814D01*
X0024888Y-0022959D01*
X0024813Y-0023102D01*
X0024735Y-0023243D01*
X0024654Y-0023382D01*
X0024569Y-0023519D01*
X0024481Y-0023654D01*
X0024390Y-0023787D01*
X0024295Y-0023917D01*
X0024198Y-0024046D01*
X0024097Y-0024171D01*
X0023993Y-0024295D01*
X0023886Y-0024415D01*
X0023776Y-0024534D01*
X0023664Y-0024649D01*
X0023549Y-0024761D01*
X0023430Y-0024871D01*
X0023310Y-0024978D01*
X0023186Y-0025082D01*
X0023061Y-0025183D01*
X0022932Y-0025280D01*
X0022802Y-0025375D01*
X0022669Y-0025466D01*
X0022534Y-0025554D01*
X0022397Y-0025639D01*
X0022258Y-0025720D01*
X0022117Y-0025798D01*
X0021974Y-0025873D01*
X0021829Y-0025944D01*
X0021683Y-0026011D01*
X0021535Y-0026075D01*
X0021385Y-0026135D01*
X0021234Y-0026191D01*
X0021082Y-0026244D01*
X0020928Y-0026293D01*
X0020773Y-0026338D01*
X0020618Y-0026380D01*
X0020461Y-0026418D01*
X0020303Y-0026451D01*
X0020145Y-0026481D01*
X0019986Y-0026507D01*
X0019826Y-0026530D01*
X0019666Y-0026548D01*
X0019506Y-0026562D01*
X0019345Y-0026573D01*
X0019184Y-0026579D01*
X0019023Y-0026582D01*
X0018861Y-0026581D01*
X0018700Y-0026575D01*
X0018701Y-0026575D02*
X0006890Y-0026575D01*
X0006729Y-0026581D01*
X0006567Y-0026582D01*
X0006406Y-0026579D01*
X0006245Y-0026573D01*
X0006084Y-0026562D01*
X0005924Y-0026548D01*
X0005764Y-0026530D01*
X0005604Y-0026507D01*
X0005445Y-0026481D01*
X0005287Y-0026451D01*
X0005129Y-0026418D01*
X0004972Y-0026380D01*
X0004817Y-0026338D01*
X0004662Y-0026293D01*
X0004508Y-0026244D01*
X0004356Y-0026191D01*
X0004205Y-0026135D01*
X0004055Y-0026075D01*
X0003907Y-0026011D01*
X0003761Y-0025944D01*
X0003616Y-0025873D01*
X0003473Y-0025798D01*
X0003332Y-0025720D01*
X0003193Y-0025639D01*
X0003056Y-0025554D01*
X0002921Y-0025466D01*
X0002788Y-0025375D01*
X0002658Y-0025280D01*
X0002529Y-0025183D01*
X0002404Y-0025082D01*
X0002280Y-0024978D01*
X0002160Y-0024871D01*
X0002041Y-0024761D01*
X0001926Y-0024649D01*
X0001814Y-0024534D01*
X0001704Y-0024415D01*
X0001597Y-0024295D01*
X0001493Y-0024171D01*
X0001392Y-0024046D01*
X0001295Y-0023917D01*
X0001200Y-0023787D01*
X0001109Y-0023654D01*
X0001021Y-0023519D01*
X0000936Y-0023382D01*
X0000855Y-0023243D01*
X0000777Y-0023102D01*
X0000702Y-0022959D01*
X0000631Y-0022814D01*
X0000564Y-0022668D01*
X0000500Y-0022520D01*
X0000440Y-0022370D01*
X0000384Y-0022219D01*
X0000331Y-0022067D01*
X0000282Y-0021913D01*
X0000237Y-0021758D01*
X0000195Y-0021603D01*
X0000157Y-0021446D01*
X0000124Y-0021288D01*
X0000094Y-0021130D01*
X0000068Y-0020971D01*
X0000045Y-0020811D01*
X0000027Y-0020651D01*
X0000013Y-0020491D01*
X0000002Y-0020330D01*
X-0000004Y-0020169D01*
X-0000007Y-0020008D01*
X-0000006Y-0019846D01*
X0000000Y-0019685D01*
X0006496Y-0013780D02*
X0006498Y-0013622D01*
X0006504Y-0013464D01*
X0006514Y-0013306D01*
X0006528Y-0013148D01*
X0006546Y-0012991D01*
X0006567Y-0012834D01*
X0006593Y-0012678D01*
X0006623Y-0012522D01*
X0006656Y-0012367D01*
X0006694Y-0012214D01*
X0006735Y-0012061D01*
X0006780Y-0011909D01*
X0006829Y-0011758D01*
X0006882Y-0011609D01*
X0006938Y-0011461D01*
X0006998Y-0011315D01*
X0007062Y-0011170D01*
X0007130Y-0011027D01*
X0007201Y-0010885D01*
X0007275Y-0010745D01*
X0007353Y-0010608D01*
X0007435Y-0010472D01*
X0007519Y-0010338D01*
X0007608Y-0010207D01*
X0007699Y-0010078D01*
X0007794Y-0009951D01*
X0007891Y-0009826D01*
X0007992Y-0009704D01*
X0008096Y-0009585D01*
X0008203Y-0009468D01*
X0008313Y-0009354D01*
X0008426Y-0009243D01*
X0008541Y-0009134D01*
X0008659Y-0009029D01*
X0008780Y-0008927D01*
X0008903Y-0008827D01*
X0009029Y-0008731D01*
X0009157Y-0008638D01*
X0009287Y-0008548D01*
X0009420Y-0008462D01*
X0009555Y-0008378D01*
X0009691Y-0008299D01*
X0009830Y-0008222D01*
X0009971Y-0008150D01*
X0010113Y-0008080D01*
X0010257Y-0008015D01*
X0010403Y-0007953D01*
X0010550Y-0007895D01*
X0010699Y-0007840D01*
X0010849Y-0007789D01*
X0011000Y-0007742D01*
X0011152Y-0007699D01*
X0011305Y-0007660D01*
X0011460Y-0007624D01*
X0011615Y-0007593D01*
X0011771Y-0007565D01*
X0011927Y-0007541D01*
X0012084Y-0007521D01*
X0012242Y-0007505D01*
X0012399Y-0007493D01*
X0012558Y-0007485D01*
X0012716Y-0007481D01*
X0012874Y-0007481D01*
X0013032Y-0007485D01*
X0013191Y-0007493D01*
X0013348Y-0007505D01*
X0013506Y-0007521D01*
X0013663Y-0007541D01*
X0013819Y-0007565D01*
X0013975Y-0007593D01*
X0014130Y-0007624D01*
X0014285Y-0007660D01*
X0014438Y-0007699D01*
X0014590Y-0007742D01*
X0014741Y-0007789D01*
X0014891Y-0007840D01*
X0015040Y-0007895D01*
X0015187Y-0007953D01*
X0015333Y-0008015D01*
X0015477Y-0008080D01*
X0015619Y-0008150D01*
X0015760Y-0008222D01*
X0015899Y-0008299D01*
X0016035Y-0008378D01*
X0016170Y-0008462D01*
X0016303Y-0008548D01*
X0016433Y-0008638D01*
X0016561Y-0008731D01*
X0016687Y-0008827D01*
X0016810Y-0008927D01*
X0016931Y-0009029D01*
X0017049Y-0009134D01*
X0017164Y-0009243D01*
X0017277Y-0009354D01*
X0017387Y-0009468D01*
X0017494Y-0009585D01*
X0017598Y-0009704D01*
X0017699Y-0009826D01*
X0017796Y-0009951D01*
X0017891Y-0010078D01*
X0017982Y-0010207D01*
X0018071Y-0010338D01*
X0018155Y-0010472D01*
X0018237Y-0010608D01*
X0018315Y-0010745D01*
X0018389Y-0010885D01*
X0018460Y-0011027D01*
X0018528Y-0011170D01*
X0018592Y-0011315D01*
X0018652Y-0011461D01*
X0018708Y-0011609D01*
X0018761Y-0011758D01*
X0018810Y-0011909D01*
X0018855Y-0012061D01*
X0018896Y-0012214D01*
X0018934Y-0012367D01*
X0018967Y-0012522D01*
X0018997Y-0012678D01*
X0019023Y-0012834D01*
X0019044Y-0012991D01*
X0019062Y-0013148D01*
X0019076Y-0013306D01*
X0019086Y-0013464D01*
X0019092Y-0013622D01*
X0019094Y-0013780D01*
X0019092Y-0013938D01*
X0019086Y-0014096D01*
X0019076Y-0014254D01*
X0019062Y-0014412D01*
X0019044Y-0014569D01*
X0019023Y-0014726D01*
X0018997Y-0014882D01*
X0018967Y-0015038D01*
X0018934Y-0015193D01*
X0018896Y-0015346D01*
X0018855Y-0015499D01*
X0018810Y-0015651D01*
X0018761Y-0015802D01*
X0018708Y-0015951D01*
X0018652Y-0016099D01*
X0018592Y-0016245D01*
X0018528Y-0016390D01*
X0018460Y-0016533D01*
X0018389Y-0016675D01*
X0018315Y-0016815D01*
X0018237Y-0016952D01*
X0018155Y-0017088D01*
X0018071Y-0017222D01*
X0017982Y-0017353D01*
X0017891Y-0017482D01*
X0017796Y-0017609D01*
X0017699Y-0017734D01*
X0017598Y-0017856D01*
X0017494Y-0017975D01*
X0017387Y-0018092D01*
X0017277Y-0018206D01*
X0017164Y-0018317D01*
X0017049Y-0018426D01*
X0016931Y-0018531D01*
X0016810Y-0018633D01*
X0016687Y-0018733D01*
X0016561Y-0018829D01*
X0016433Y-0018922D01*
X0016303Y-0019012D01*
X0016170Y-0019098D01*
X0016035Y-0019182D01*
X0015899Y-0019261D01*
X0015760Y-0019338D01*
X0015619Y-0019410D01*
X0015477Y-0019480D01*
X0015333Y-0019545D01*
X0015187Y-0019607D01*
X0015040Y-0019665D01*
X0014891Y-0019720D01*
X0014741Y-0019771D01*
X0014590Y-0019818D01*
X0014438Y-0019861D01*
X0014285Y-0019900D01*
X0014130Y-0019936D01*
X0013975Y-0019967D01*
X0013819Y-0019995D01*
X0013663Y-0020019D01*
X0013506Y-0020039D01*
X0013348Y-0020055D01*
X0013191Y-0020067D01*
X0013032Y-0020075D01*
X0012874Y-0020079D01*
X0012716Y-0020079D01*
X0012558Y-0020075D01*
X0012399Y-0020067D01*
X0012242Y-0020055D01*
X0012084Y-0020039D01*
X0011927Y-0020019D01*
X0011771Y-0019995D01*
X0011615Y-0019967D01*
X0011460Y-0019936D01*
X0011305Y-0019900D01*
X0011152Y-0019861D01*
X0011000Y-0019818D01*
X0010849Y-0019771D01*
X0010699Y-0019720D01*
X0010550Y-0019665D01*
X0010403Y-0019607D01*
X0010257Y-0019545D01*
X0010113Y-0019480D01*
X0009971Y-0019410D01*
X0009830Y-0019338D01*
X0009691Y-0019261D01*
X0009555Y-0019182D01*
X0009420Y-0019098D01*
X0009287Y-0019012D01*
X0009157Y-0018922D01*
X0009029Y-0018829D01*
X0008903Y-0018733D01*
X0008780Y-0018633D01*
X0008659Y-0018531D01*
X0008541Y-0018426D01*
X0008426Y-0018317D01*
X0008313Y-0018206D01*
X0008203Y-0018092D01*
X0008096Y-0017975D01*
X0007992Y-0017856D01*
X0007891Y-0017734D01*
X0007794Y-0017609D01*
X0007699Y-0017482D01*
X0007608Y-0017353D01*
X0007519Y-0017222D01*
X0007435Y-0017088D01*
X0007353Y-0016952D01*
X0007275Y-0016815D01*
X0007201Y-0016675D01*
X0007130Y-0016533D01*
X0007062Y-0016390D01*
X0006998Y-0016245D01*
X0006938Y-0016099D01*
X0006882Y-0015951D01*
X0006829Y-0015802D01*
X0006780Y-0015651D01*
X0006735Y-0015499D01*
X0006694Y-0015346D01*
X0006656Y-0015193D01*
X0006623Y-0015038D01*
X0006593Y-0014882D01*
X0006567Y-0014726D01*
X0006546Y-0014569D01*
X0006528Y-0014412D01*
X0006514Y-0014254D01*
X0006504Y-0014096D01*
X0006498Y-0013938D01*
X0006496Y-0013780D01*
X0004000Y0000500D02*
X0004002Y0000563D01*
X0004008Y0000625D01*
X0004018Y0000687D01*
X0004031Y0000749D01*
X0004049Y0000809D01*
X0004070Y0000868D01*
X0004095Y0000926D01*
X0004124Y0000982D01*
X0004156Y0001036D01*
X0004191Y0001088D01*
X0004229Y0001137D01*
X0004271Y0001185D01*
X0004315Y0001229D01*
X0004363Y0001271D01*
X0004412Y0001309D01*
X0004464Y0001344D01*
X0004518Y0001376D01*
X0004574Y0001405D01*
X0004632Y0001430D01*
X0004691Y0001451D01*
X0004751Y0001469D01*
X0004813Y0001482D01*
X0004875Y0001492D01*
X0004937Y0001498D01*
X0005000Y0001500D01*
X0005063Y0001498D01*
X0005125Y0001492D01*
X0005187Y0001482D01*
X0005249Y0001469D01*
X0005309Y0001451D01*
X0005368Y0001430D01*
X0005426Y0001405D01*
X0005482Y0001376D01*
X0005536Y0001344D01*
X0005588Y0001309D01*
X0005637Y0001271D01*
X0005685Y0001229D01*
X0005729Y0001185D01*
X0005771Y0001137D01*
X0005809Y0001088D01*
X0005844Y0001036D01*
X0005876Y0000982D01*
X0005905Y0000926D01*
X0005930Y0000868D01*
X0005951Y0000809D01*
X0005969Y0000749D01*
X0005982Y0000687D01*
X0005992Y0000625D01*
X0005998Y0000563D01*
X0006000Y0000500D01*
X0005998Y0000437D01*
X0005992Y0000375D01*
X0005982Y0000313D01*
X0005969Y0000251D01*
X0005951Y0000191D01*
X0005930Y0000132D01*
X0005905Y0000074D01*
X0005876Y0000018D01*
X0005844Y-0000036D01*
X0005809Y-0000088D01*
X0005771Y-0000137D01*
X0005729Y-0000185D01*
X0005685Y-0000229D01*
X0005637Y-0000271D01*
X0005588Y-0000309D01*
X0005536Y-0000344D01*
X0005482Y-0000376D01*
X0005426Y-0000405D01*
X0005368Y-0000430D01*
X0005309Y-0000451D01*
X0005249Y-0000469D01*
X0005187Y-0000482D01*
X0005125Y-0000492D01*
X0005063Y-0000498D01*
X0005000Y-0000500D01*
X0004937Y-0000498D01*
X0004875Y-0000492D01*
X0004813Y-0000482D01*
X0004751Y-0000469D01*
X0004691Y-0000451D01*
X0004632Y-0000430D01*
X0004574Y-0000405D01*
X0004518Y-0000376D01*
X0004464Y-0000344D01*
X0004412Y-0000309D01*
X0004363Y-0000271D01*
X0004315Y-0000229D01*
X0004271Y-0000185D01*
X0004229Y-0000137D01*
X0004191Y-0000088D01*
X0004156Y-0000036D01*
X0004124Y0000018D01*
X0004095Y0000074D01*
X0004070Y0000132D01*
X0004049Y0000191D01*
X0004031Y0000251D01*
X0004018Y0000313D01*
X0004008Y0000375D01*
X0004002Y0000437D01*
X0004000Y0000500D01*
X0000000Y0000500D02*
X0000002Y0000563D01*
X0000008Y0000625D01*
X0000018Y0000687D01*
X0000031Y0000749D01*
X0000049Y0000809D01*
X0000070Y0000868D01*
X0000095Y0000926D01*
X0000124Y0000982D01*
X0000156Y0001036D01*
X0000191Y0001088D01*
X0000229Y0001137D01*
X0000271Y0001185D01*
X0000315Y0001229D01*
X0000363Y0001271D01*
X0000412Y0001309D01*
X0000464Y0001344D01*
X0000518Y0001376D01*
X0000574Y0001405D01*
X0000632Y0001430D01*
X0000691Y0001451D01*
X0000751Y0001469D01*
X0000813Y0001482D01*
X0000875Y0001492D01*
X0000937Y0001498D01*
X0001000Y0001500D01*
X0001063Y0001498D01*
X0001125Y0001492D01*
X0001187Y0001482D01*
X0001249Y0001469D01*
X0001309Y0001451D01*
X0001368Y0001430D01*
X0001426Y0001405D01*
X0001482Y0001376D01*
X0001536Y0001344D01*
X0001588Y0001309D01*
X0001637Y0001271D01*
X0001685Y0001229D01*
X0001729Y0001185D01*
X0001771Y0001137D01*
X0001809Y0001088D01*
X0001844Y0001036D01*
X0001876Y0000982D01*
X0001905Y0000926D01*
X0001930Y0000868D01*
X0001951Y0000809D01*
X0001969Y0000749D01*
X0001982Y0000687D01*
X0001992Y0000625D01*
X0001998Y0000563D01*
X0002000Y0000500D01*
X0001998Y0000437D01*
X0001992Y0000375D01*
X0001982Y0000313D01*
X0001969Y0000251D01*
X0001951Y0000191D01*
X0001930Y0000132D01*
X0001905Y0000074D01*
X0001876Y0000018D01*
X0001844Y-0000036D01*
X0001809Y-0000088D01*
X0001771Y-0000137D01*
X0001729Y-0000185D01*
X0001685Y-0000229D01*
X0001637Y-0000271D01*
X0001588Y-0000309D01*
X0001536Y-0000344D01*
X0001482Y-0000376D01*
X0001426Y-0000405D01*
X0001368Y-0000430D01*
X0001309Y-0000451D01*
X0001249Y-0000469D01*
X0001187Y-0000482D01*
X0001125Y-0000492D01*
X0001063Y-0000498D01*
X0001000Y-0000500D01*
X0000937Y-0000498D01*
X0000875Y-0000492D01*
X0000813Y-0000482D01*
X0000751Y-0000469D01*
X0000691Y-0000451D01*
X0000632Y-0000430D01*
X0000574Y-0000405D01*
X0000518Y-0000376D01*
X0000464Y-0000344D01*
X0000412Y-0000309D01*
X0000363Y-0000271D01*
X0000315Y-0000229D01*
X0000271Y-0000185D01*
X0000229Y-0000137D01*
X0000191Y-0000088D01*
X0000156Y-0000036D01*
X0000124Y0000018D01*
X0000095Y0000074D01*
X0000070Y0000132D01*
X0000049Y0000191D01*
X0000031Y0000251D01*
X0000018Y0000313D01*
X0000008Y0000375D01*
X0000002Y0000437D01*
X0000000Y0000500D01*
X-0001000Y0002000D02*
X-0000998Y0002063D01*
X-0000992Y0002125D01*
X-0000982Y0002187D01*
X-0000969Y0002249D01*
X-0000951Y0002309D01*
X-0000930Y0002368D01*
X-0000905Y0002426D01*
X-0000876Y0002482D01*
X-0000844Y0002536D01*
X-0000809Y0002588D01*
X-0000771Y0002637D01*
X-0000729Y0002685D01*
X-0000685Y0002729D01*
X-0000637Y0002771D01*
X-0000588Y0002809D01*
X-0000536Y0002844D01*
X-0000482Y0002876D01*
X-0000426Y0002905D01*
X-0000368Y0002930D01*
X-0000309Y0002951D01*
X-0000249Y0002969D01*
X-0000187Y0002982D01*
X-0000125Y0002992D01*
X-0000063Y0002998D01*
X0000000Y0003000D01*
X0000063Y0002998D01*
X0000125Y0002992D01*
X0000187Y0002982D01*
X0000249Y0002969D01*
X0000309Y0002951D01*
X0000368Y0002930D01*
X0000426Y0002905D01*
X0000482Y0002876D01*
X0000536Y0002844D01*
X0000588Y0002809D01*
X0000637Y0002771D01*
X0000685Y0002729D01*
X0000729Y0002685D01*
X0000771Y0002637D01*
X0000809Y0002588D01*
X0000844Y0002536D01*
X0000876Y0002482D01*
X0000905Y0002426D01*
X0000930Y0002368D01*
X0000951Y0002309D01*
X0000969Y0002249D01*
X0000982Y0002187D01*
X0000992Y0002125D01*
X0000998Y0002063D01*
X0001000Y0002000D01*
X0000998Y0001937D01*
X0000992Y0001875D01*
X0000982Y0001813D01*
X0000969Y0001751D01*
X0000951Y0001691D01*
X0000930Y0001632D01*
X0000905Y0001574D01*
X0000876Y0001518D01*
X0000844Y0001464D01*
X0000809Y0001412D01*
X0000771Y0001363D01*
X0000729Y0001315D01*
X0000685Y0001271D01*
X0000637Y0001229D01*
X0000588Y0001191D01*
X0000536Y0001156D01*
X0000482Y0001124D01*
X0000426Y0001095D01*
X0000368Y0001070D01*
X0000309Y0001049D01*
X0000249Y0001031D01*
X0000187Y0001018D01*
X0000125Y0001008D01*
X0000063Y0001002D01*
X0000000Y0001000D01*
X-0000063Y0001002D01*
X-0000125Y0001008D01*
X-0000187Y0001018D01*
X-0000249Y0001031D01*
X-0000309Y0001049D01*
X-0000368Y0001070D01*
X-0000426Y0001095D01*
X-0000482Y0001124D01*
X-0000536Y0001156D01*
X-0000588Y0001191D01*
X-0000637Y0001229D01*
X-0000685Y0001271D01*
X-0000729Y0001315D01*
X-0000771Y0001363D01*
X-0000809Y0001412D01*
X-0000844Y0001464D01*
X-0000876Y0001518D01*
X-0000905Y0001574D01*
X-0000930Y0001632D01*
X-0000951Y0001691D01*
X-0000969Y0001751D01*
X-0000982Y0001813D01*
X-0000992Y0001875D01*
X-0000998Y0001937D01*
X-0001000Y0002000D01*
X-0001000Y0006000D02*
X-0000998Y0006063D01*
X-0000992Y0006125D01*
X-0000982Y0006187D01*
X-0000969Y0006249D01*
X-0000951Y0006309D01*
X-0000930Y0006368D01*
X-0000905Y0006426D01*
X-0000876Y0006482D01*
X-0000844Y0006536D01*
X-0000809Y0006588D01*
X-0000771Y0006637D01*
X-0000729Y0006685D01*
X-0000685Y0006729D01*
X-0000637Y0006771D01*
X-0000588Y0006809D01*
X-0000536Y0006844D01*
X-0000482Y0006876D01*
X-0000426Y0006905D01*
X-0000368Y0006930D01*
X-0000309Y0006951D01*
X-0000249Y0006969D01*
X-0000187Y0006982D01*
X-0000125Y0006992D01*
X-0000063Y0006998D01*
X0000000Y0007000D01*
X0000063Y0006998D01*
X0000125Y0006992D01*
X0000187Y0006982D01*
X0000249Y0006969D01*
X0000309Y0006951D01*
X0000368Y0006930D01*
X0000426Y0006905D01*
X0000482Y0006876D01*
X0000536Y0006844D01*
X0000588Y0006809D01*
X0000637Y0006771D01*
X0000685Y0006729D01*
X0000729Y0006685D01*
X0000771Y0006637D01*
X0000809Y0006588D01*
X0000844Y0006536D01*
X0000876Y0006482D01*
X0000905Y0006426D01*
X0000930Y0006368D01*
X0000951Y0006309D01*
X0000969Y0006249D01*
X0000982Y0006187D01*
X0000992Y0006125D01*
X0000998Y0006063D01*
X0001000Y0006000D01*
X0000998Y0005937D01*
X0000992Y0005875D01*
X0000982Y0005813D01*
X0000969Y0005751D01*
X0000951Y0005691D01*
X0000930Y0005632D01*
X0000905Y0005574D01*
X0000876Y0005518D01*
X0000844Y0005464D01*
X0000809Y0005412D01*
X0000771Y0005363D01*
X0000729Y0005315D01*
X0000685Y0005271D01*
X0000637Y0005229D01*
X0000588Y0005191D01*
X0000536Y0005156D01*
X0000482Y0005124D01*
X0000426Y0005095D01*
X0000368Y0005070D01*
X0000309Y0005049D01*
X0000249Y0005031D01*
X0000187Y0005018D01*
X0000125Y0005008D01*
X0000063Y0005002D01*
X0000000Y0005000D01*
X-0000063Y0005002D01*
X-0000125Y0005008D01*
X-0000187Y0005018D01*
X-0000249Y0005031D01*
X-0000309Y0005049D01*
X-0000368Y0005070D01*
X-0000426Y0005095D01*
X-0000482Y0005124D01*
X-0000536Y0005156D01*
X-0000588Y0005191D01*
X-0000637Y0005229D01*
X-0000685Y0005271D01*
X-0000729Y0005315D01*
X-0000771Y0005363D01*
X-0000809Y0005412D01*
X-0000844Y0005464D01*
X-0000876Y0005518D01*
X-0000905Y0005574D01*
X-0000930Y0005632D01*
X-0000951Y0005691D01*
X-0000969Y0005751D01*
X-0000982Y0005813D01*
X-0000992Y0005875D01*
X-0000998Y0005937D01*
X-0001000Y0006000D01*
X-0001000Y0010000D02*
X-0000998Y0010063D01*
X-0000992Y0010125D01*
X-0000982Y0010187D01*
X-0000969Y0010249D01*
X-0000951Y0010309D01*
X-0000930Y0010368D01*
X-0000905Y0010426D01*
X-0000876Y0010482D01*
X-0000844Y0010536D01*
X-0000809Y0010588D01*
X-0000771Y0010637D01*
X-0000729Y0010685D01*
X-0000685Y0010729D01*
X-0000637Y0010771D01*
X-0000588Y0010809D01*
X-0000536Y0010844D01*
X-0000482Y0010876D01*
X-0000426Y0010905D01*
X-0000368Y0010930D01*
X-0000309Y0010951D01*
X-0000249Y0010969D01*
X-0000187Y0010982D01*
X-0000125Y0010992D01*
X-0000063Y0010998D01*
X0000000Y0011000D01*
X0000063Y0010998D01*
X0000125Y0010992D01*
X0000187Y0010982D01*
X0000249Y0010969D01*
X0000309Y0010951D01*
X0000368Y0010930D01*
X0000426Y0010905D01*
X0000482Y0010876D01*
X0000536Y0010844D01*
X0000588Y0010809D01*
X0000637Y0010771D01*
X0000685Y0010729D01*
X0000729Y0010685D01*
X0000771Y0010637D01*
X0000809Y0010588D01*
X0000844Y0010536D01*
X0000876Y0010482D01*
X0000905Y0010426D01*
X0000930Y0010368D01*
X0000951Y0010309D01*
X0000969Y0010249D01*
X0000982Y0010187D01*
X0000992Y0010125D01*
X0000998Y0010063D01*
X0001000Y0010000D01*
X0000998Y0009937D01*
X0000992Y0009875D01*
X0000982Y0009813D01*
X0000969Y0009751D01*
X0000951Y0009691D01*
X0000930Y0009632D01*
X0000905Y0009574D01*
X0000876Y0009518D01*
X0000844Y0009464D01*
X0000809Y0009412D01*
X0000771Y0009363D01*
X0000729Y0009315D01*
X0000685Y0009271D01*
X0000637Y0009229D01*
X0000588Y0009191D01*
X0000536Y0009156D01*
X0000482Y0009124D01*
X0000426Y0009095D01*
X0000368Y0009070D01*
X0000309Y0009049D01*
X0000249Y0009031D01*
X0000187Y0009018D01*
X0000125Y0009008D01*
X0000063Y0009002D01*
X0000000Y0009000D01*
X-0000063Y0009002D01*
X-0000125Y0009008D01*
X-0000187Y0009018D01*
X-0000249Y0009031D01*
X-0000309Y0009049D01*
X-0000368Y0009070D01*
X-0000426Y0009095D01*
X-0000482Y0009124D01*
X-0000536Y0009156D01*
X-0000588Y0009191D01*
X-0000637Y0009229D01*
X-0000685Y0009271D01*
X-0000729Y0009315D01*
X-0000771Y0009363D01*
X-0000809Y0009412D01*
X-0000844Y0009464D01*
X-0000876Y0009518D01*
X-0000905Y0009574D01*
X-0000930Y0009632D01*
X-0000951Y0009691D01*
X-0000969Y0009751D01*
X-0000982Y0009813D01*
X-0000992Y0009875D01*
X-0000998Y0009937D01*
X-0001000Y0010000D01*
X-0001000Y0014000D02*
X-0000998Y0014063D01*
X-0000992Y0014125D01*
X-0000982Y0014187D01*
X-0000969Y0014249D01*
X-0000951Y0014309D01*
X-0000930Y0014368D01*
X-0000905Y0014426D01*
X-0000876Y0014482D01*
X-0000844Y0014536D01*
X-0000809Y0014588D01*
X-0000771Y0014637D01*
X-0000729Y0014685D01*
X-0000685Y0014729D01*
X-0000637Y0014771D01*
X-0000588Y0014809D01*
X-0000536Y0014844D01*
X-0000482Y0014876D01*
X-0000426Y0014905D01*
X-0000368Y0014930D01*
X-0000309Y0014951D01*
X-0000249Y0014969D01*
X-0000187Y0014982D01*
X-0000125Y0014992D01*
X-0000063Y0014998D01*
X0000000Y0015000D01*
X0000063Y0014998D01*
X0000125Y0014992D01*
X0000187Y0014982D01*
X0000249Y0014969D01*
X0000309Y0014951D01*
X0000368Y0014930D01*
X0000426Y0014905D01*
X0000482Y0014876D01*
X0000536Y0014844D01*
X0000588Y0014809D01*
X0000637Y0014771D01*
X0000685Y0014729D01*
X0000729Y0014685D01*
X0000771Y0014637D01*
X0000809Y0014588D01*
X0000844Y0014536D01*
X0000876Y0014482D01*
X0000905Y0014426D01*
X0000930Y0014368D01*
X0000951Y0014309D01*
X0000969Y0014249D01*
X0000982Y0014187D01*
X0000992Y0014125D01*
X0000998Y0014063D01*
X0001000Y0014000D01*
X0000998Y0013937D01*
X0000992Y0013875D01*
X0000982Y0013813D01*
X0000969Y0013751D01*
X0000951Y0013691D01*
X0000930Y0013632D01*
X0000905Y0013574D01*
X0000876Y0013518D01*
X0000844Y0013464D01*
X0000809Y0013412D01*
X0000771Y0013363D01*
X0000729Y0013315D01*
X0000685Y0013271D01*
X0000637Y0013229D01*
X0000588Y0013191D01*
X0000536Y0013156D01*
X0000482Y0013124D01*
X0000426Y0013095D01*
X0000368Y0013070D01*
X0000309Y0013049D01*
X0000249Y0013031D01*
X0000187Y0013018D01*
X0000125Y0013008D01*
X0000063Y0013002D01*
X0000000Y0013000D01*
X-0000063Y0013002D01*
X-0000125Y0013008D01*
X-0000187Y0013018D01*
X-0000249Y0013031D01*
X-0000309Y0013049D01*
X-0000368Y0013070D01*
X-0000426Y0013095D01*
X-0000482Y0013124D01*
X-0000536Y0013156D01*
X-0000588Y0013191D01*
X-0000637Y0013229D01*
X-0000685Y0013271D01*
X-0000729Y0013315D01*
X-0000771Y0013363D01*
X-0000809Y0013412D01*
X-0000844Y0013464D01*
X-0000876Y0013518D01*
X-0000905Y0013574D01*
X-0000930Y0013632D01*
X-0000951Y0013691D01*
X-0000969Y0013751D01*
X-0000982Y0013813D01*
X-0000992Y0013875D01*
X-0000998Y0013937D01*
X-0001000Y0014000D01*
X-0001000Y0018000D02*
X-0000998Y0018063D01*
X-0000992Y0018125D01*
X-0000982Y0018187D01*
X-0000969Y0018249D01*
X-0000951Y0018309D01*
X-0000930Y0018368D01*
X-0000905Y0018426D01*
X-0000876Y0018482D01*
X-0000844Y0018536D01*
X-0000809Y0018588D01*
X-0000771Y0018637D01*
X-0000729Y0018685D01*
X-0000685Y0018729D01*
X-0000637Y0018771D01*
X-0000588Y0018809D01*
X-0000536Y0018844D01*
X-0000482Y0018876D01*
X-0000426Y0018905D01*
X-0000368Y0018930D01*
X-0000309Y0018951D01*
X-0000249Y0018969D01*
X-0000187Y0018982D01*
X-0000125Y0018992D01*
X-0000063Y0018998D01*
X0000000Y0019000D01*
X0000063Y0018998D01*
X0000125Y0018992D01*
X0000187Y0018982D01*
X0000249Y0018969D01*
X0000309Y0018951D01*
X0000368Y0018930D01*
X0000426Y0018905D01*
X0000482Y0018876D01*
X0000536Y0018844D01*
X0000588Y0018809D01*
X0000637Y0018771D01*
X0000685Y0018729D01*
X0000729Y0018685D01*
X0000771Y0018637D01*
X0000809Y0018588D01*
X0000844Y0018536D01*
X0000876Y0018482D01*
X0000905Y0018426D01*
X0000930Y0018368D01*
X0000951Y0018309D01*
X0000969Y0018249D01*
X0000982Y0018187D01*
X0000992Y0018125D01*
X0000998Y0018063D01*
X0001000Y0018000D01*
X0000998Y0017937D01*
X0000992Y0017875D01*
X0000982Y0017813D01*
X0000969Y0017751D01*
X0000951Y0017691D01*
X0000930Y0017632D01*
X0000905Y0017574D01*
X0000876Y0017518D01*
X0000844Y0017464D01*
X0000809Y0017412D01*
X0000771Y0017363D01*
X0000729Y0017315D01*
X0000685Y0017271D01*
X0000637Y0017229D01*
X0000588Y0017191D01*
X0000536Y0017156D01*
X0000482Y0017124D01*
X0000426Y0017095D01*
X0000368Y0017070D01*
X0000309Y0017049D01*
X0000249Y0017031D01*
X0000187Y0017018D01*
X0000125Y0017008D01*
X0000063Y0017002D01*
X0000000Y0017000D01*
X-0000063Y0017002D01*
X-0000125Y0017008D01*
X-0000187Y0017018D01*
X-0000249Y0017031D01*
X-0000309Y0017049D01*
X-0000368Y0017070D01*
X-0000426Y0017095D01*
X-0000482Y0017124D01*
X-0000536Y0017156D01*
X-0000588Y0017191D01*
X-0000637Y0017229D01*
X-0000685Y0017271D01*
X-0000729Y0017315D01*
X-0000771Y0017363D01*
X-0000809Y0017412D01*
X-0000844Y0017464D01*
X-0000876Y0017518D01*
X-0000905Y0017574D01*
X-0000930Y0017632D01*
X-0000951Y0017691D01*
X-0000969Y0017751D01*
X-0000982Y0017813D01*
X-0000992Y0017875D01*
X-0000998Y0017937D01*
X-0001000Y0018000D01*
X-0001000Y0022000D02*
X-0000998Y0022063D01*
X-0000992Y0022125D01*
X-0000982Y0022187D01*
X-0000969Y0022249D01*
X-0000951Y0022309D01*
X-0000930Y0022368D01*
X-0000905Y0022426D01*
X-0000876Y0022482D01*
X-0000844Y0022536D01*
X-0000809Y0022588D01*
X-0000771Y0022637D01*
X-0000729Y0022685D01*
X-0000685Y0022729D01*
X-0000637Y0022771D01*
X-0000588Y0022809D01*
X-0000536Y0022844D01*
X-0000482Y0022876D01*
X-0000426Y0022905D01*
X-0000368Y0022930D01*
X-0000309Y0022951D01*
X-0000249Y0022969D01*
X-0000187Y0022982D01*
X-0000125Y0022992D01*
X-0000063Y0022998D01*
X0000000Y0023000D01*
X0000063Y0022998D01*
X0000125Y0022992D01*
X0000187Y0022982D01*
X0000249Y0022969D01*
X0000309Y0022951D01*
X0000368Y0022930D01*
X0000426Y0022905D01*
X0000482Y0022876D01*
X0000536Y0022844D01*
X0000588Y0022809D01*
X0000637Y0022771D01*
X0000685Y0022729D01*
X0000729Y0022685D01*
X0000771Y0022637D01*
X0000809Y0022588D01*
X0000844Y0022536D01*
X0000876Y0022482D01*
X0000905Y0022426D01*
X0000930Y0022368D01*
X0000951Y0022309D01*
X0000969Y0022249D01*
X0000982Y0022187D01*
X0000992Y0022125D01*
X0000998Y0022063D01*
X0001000Y0022000D01*
X0000998Y0021937D01*
X0000992Y0021875D01*
X0000982Y0021813D01*
X0000969Y0021751D01*
X0000951Y0021691D01*
X0000930Y0021632D01*
X0000905Y0021574D01*
X0000876Y0021518D01*
X0000844Y0021464D01*
X0000809Y0021412D01*
X0000771Y0021363D01*
X0000729Y0021315D01*
X0000685Y0021271D01*
X0000637Y0021229D01*
X0000588Y0021191D01*
X0000536Y0021156D01*
X0000482Y0021124D01*
X0000426Y0021095D01*
X0000368Y0021070D01*
X0000309Y0021049D01*
X0000249Y0021031D01*
X0000187Y0021018D01*
X0000125Y0021008D01*
X0000063Y0021002D01*
X0000000Y0021000D01*
X-0000063Y0021002D01*
X-0000125Y0021008D01*
X-0000187Y0021018D01*
X-0000249Y0021031D01*
X-0000309Y0021049D01*
X-0000368Y0021070D01*
X-0000426Y0021095D01*
X-0000482Y0021124D01*
X-0000536Y0021156D01*
X-0000588Y0021191D01*
X-0000637Y0021229D01*
X-0000685Y0021271D01*
X-0000729Y0021315D01*
X-0000771Y0021363D01*
X-0000809Y0021412D01*
X-0000844Y0021464D01*
X-0000876Y0021518D01*
X-0000905Y0021574D01*
X-0000930Y0021632D01*
X-0000951Y0021691D01*
X-0000969Y0021751D01*
X-0000982Y0021813D01*
X-0000992Y0021875D01*
X-0000998Y0021937D01*
X-0001000Y0022000D01*
X-0001000Y0026000D02*
X-0000998Y0026063D01*
X-0000992Y0026125D01*
X-0000982Y0026187D01*
X-0000969Y0026249D01*
X-0000951Y0026309D01*
X-0000930Y0026368D01*
X-0000905Y0026426D01*
X-0000876Y0026482D01*
X-0000844Y0026536D01*
X-0000809Y0026588D01*
X-0000771Y0026637D01*
X-0000729Y0026685D01*
X-0000685Y0026729D01*
X-0000637Y0026771D01*
X-0000588Y0026809D01*
X-0000536Y0026844D01*
X-0000482Y0026876D01*
X-0000426Y0026905D01*
X-0000368Y0026930D01*
X-0000309Y0026951D01*
X-0000249Y0026969D01*
X-0000187Y0026982D01*
X-0000125Y0026992D01*
X-0000063Y0026998D01*
X0000000Y0027000D01*
X0000063Y0026998D01*
X0000125Y0026992D01*
X0000187Y0026982D01*
X0000249Y0026969D01*
X0000309Y0026951D01*
X0000368Y0026930D01*
X0000426Y0026905D01*
X0000482Y0026876D01*
X0000536Y0026844D01*
X0000588Y0026809D01*
X0000637Y0026771D01*
X0000685Y0026729D01*
X0000729Y0026685D01*
X0000771Y0026637D01*
X0000809Y0026588D01*
X0000844Y0026536D01*
X0000876Y0026482D01*
X0000905Y0026426D01*
X0000930Y0026368D01*
X0000951Y0026309D01*
X0000969Y0026249D01*
X0000982Y0026187D01*
X0000992Y0026125D01*
X0000998Y0026063D01*
X0001000Y0026000D01*
X0000998Y0025937D01*
X0000992Y0025875D01*
X0000982Y0025813D01*
X0000969Y0025751D01*
X0000951Y0025691D01*
X0000930Y0025632D01*
X0000905Y0025574D01*
X0000876Y0025518D01*
X0000844Y0025464D01*
X0000809Y0025412D01*
X0000771Y0025363D01*
X0000729Y0025315D01*
X0000685Y0025271D01*
X0000637Y0025229D01*
X0000588Y0025191D01*
X0000536Y0025156D01*
X0000482Y0025124D01*
X0000426Y0025095D01*
X0000368Y0025070D01*
X0000309Y0025049D01*
X0000249Y0025031D01*
X0000187Y0025018D01*
X0000125Y0025008D01*
X0000063Y0025002D01*
X0000000Y0025000D01*
X-0000063Y0025002D01*
X-0000125Y0025008D01*
X-0000187Y0025018D01*
X-0000249Y0025031D01*
X-0000309Y0025049D01*
X-0000368Y0025070D01*
X-0000426Y0025095D01*
X-0000482Y0025124D01*
X-0000536Y0025156D01*
X-0000588Y0025191D01*
X-0000637Y0025229D01*
X-0000685Y0025271D01*
X-0000729Y0025315D01*
X-0000771Y0025363D01*
X-0000809Y0025412D01*
X-0000844Y0025464D01*
X-0000876Y0025518D01*
X-0000905Y0025574D01*
X-0000930Y0025632D01*
X-0000951Y0025691D01*
X-0000969Y0025751D01*
X-0000982Y0025813D01*
X-0000992Y0025875D01*
X-0000998Y0025937D01*
X-0001000Y0026000D01*
X-0021063Y0013780D02*
X-0021061Y0013938D01*
X-0021055Y0014096D01*
X-0021045Y0014254D01*
X-0021031Y0014412D01*
X-0021013Y0014569D01*
X-0020992Y0014726D01*
X-0020966Y0014882D01*
X-0020936Y0015038D01*
X-0020903Y0015193D01*
X-0020865Y0015346D01*
X-0020824Y0015499D01*
X-0020779Y0015651D01*
X-0020730Y0015802D01*
X-0020677Y0015951D01*
X-0020621Y0016099D01*
X-0020561Y0016245D01*
X-0020497Y0016390D01*
X-0020429Y0016533D01*
X-0020358Y0016675D01*
X-0020284Y0016815D01*
X-0020206Y0016952D01*
X-0020124Y0017088D01*
X-0020040Y0017222D01*
X-0019951Y0017353D01*
X-0019860Y0017482D01*
X-0019765Y0017609D01*
X-0019668Y0017734D01*
X-0019567Y0017856D01*
X-0019463Y0017975D01*
X-0019356Y0018092D01*
X-0019246Y0018206D01*
X-0019133Y0018317D01*
X-0019018Y0018426D01*
X-0018900Y0018531D01*
X-0018779Y0018633D01*
X-0018656Y0018733D01*
X-0018530Y0018829D01*
X-0018402Y0018922D01*
X-0018272Y0019012D01*
X-0018139Y0019098D01*
X-0018004Y0019182D01*
X-0017868Y0019261D01*
X-0017729Y0019338D01*
X-0017588Y0019410D01*
X-0017446Y0019480D01*
X-0017302Y0019545D01*
X-0017156Y0019607D01*
X-0017009Y0019665D01*
X-0016860Y0019720D01*
X-0016710Y0019771D01*
X-0016559Y0019818D01*
X-0016407Y0019861D01*
X-0016254Y0019900D01*
X-0016099Y0019936D01*
X-0015944Y0019967D01*
X-0015788Y0019995D01*
X-0015632Y0020019D01*
X-0015475Y0020039D01*
X-0015317Y0020055D01*
X-0015160Y0020067D01*
X-0015001Y0020075D01*
X-0014843Y0020079D01*
X-0014685Y0020079D01*
X-0014527Y0020075D01*
X-0014368Y0020067D01*
X-0014211Y0020055D01*
X-0014053Y0020039D01*
X-0013896Y0020019D01*
X-0013740Y0019995D01*
X-0013584Y0019967D01*
X-0013429Y0019936D01*
X-0013274Y0019900D01*
X-0013121Y0019861D01*
X-0012969Y0019818D01*
X-0012818Y0019771D01*
X-0012668Y0019720D01*
X-0012519Y0019665D01*
X-0012372Y0019607D01*
X-0012226Y0019545D01*
X-0012082Y0019480D01*
X-0011940Y0019410D01*
X-0011799Y0019338D01*
X-0011660Y0019261D01*
X-0011524Y0019182D01*
X-0011389Y0019098D01*
X-0011256Y0019012D01*
X-0011126Y0018922D01*
X-0010998Y0018829D01*
X-0010872Y0018733D01*
X-0010749Y0018633D01*
X-0010628Y0018531D01*
X-0010510Y0018426D01*
X-0010395Y0018317D01*
X-0010282Y0018206D01*
X-0010172Y0018092D01*
X-0010065Y0017975D01*
X-0009961Y0017856D01*
X-0009860Y0017734D01*
X-0009763Y0017609D01*
X-0009668Y0017482D01*
X-0009577Y0017353D01*
X-0009488Y0017222D01*
X-0009404Y0017088D01*
X-0009322Y0016952D01*
X-0009244Y0016815D01*
X-0009170Y0016675D01*
X-0009099Y0016533D01*
X-0009031Y0016390D01*
X-0008967Y0016245D01*
X-0008907Y0016099D01*
X-0008851Y0015951D01*
X-0008798Y0015802D01*
X-0008749Y0015651D01*
X-0008704Y0015499D01*
X-0008663Y0015346D01*
X-0008625Y0015193D01*
X-0008592Y0015038D01*
X-0008562Y0014882D01*
X-0008536Y0014726D01*
X-0008515Y0014569D01*
X-0008497Y0014412D01*
X-0008483Y0014254D01*
X-0008473Y0014096D01*
X-0008467Y0013938D01*
X-0008465Y0013780D01*
X-0008467Y0013622D01*
X-0008473Y0013464D01*
X-0008483Y0013306D01*
X-0008497Y0013148D01*
X-0008515Y0012991D01*
X-0008536Y0012834D01*
X-0008562Y0012678D01*
X-0008592Y0012522D01*
X-0008625Y0012367D01*
X-0008663Y0012214D01*
X-0008704Y0012061D01*
X-0008749Y0011909D01*
X-0008798Y0011758D01*
X-0008851Y0011609D01*
X-0008907Y0011461D01*
X-0008967Y0011315D01*
X-0009031Y0011170D01*
X-0009099Y0011027D01*
X-0009170Y0010885D01*
X-0009244Y0010745D01*
X-0009322Y0010608D01*
X-0009404Y0010472D01*
X-0009488Y0010338D01*
X-0009577Y0010207D01*
X-0009668Y0010078D01*
X-0009763Y0009951D01*
X-0009860Y0009826D01*
X-0009961Y0009704D01*
X-0010065Y0009585D01*
X-0010172Y0009468D01*
X-0010282Y0009354D01*
X-0010395Y0009243D01*
X-0010510Y0009134D01*
X-0010628Y0009029D01*
X-0010749Y0008927D01*
X-0010872Y0008827D01*
X-0010998Y0008731D01*
X-0011126Y0008638D01*
X-0011256Y0008548D01*
X-0011389Y0008462D01*
X-0011524Y0008378D01*
X-0011660Y0008299D01*
X-0011799Y0008222D01*
X-0011940Y0008150D01*
X-0012082Y0008080D01*
X-0012226Y0008015D01*
X-0012372Y0007953D01*
X-0012519Y0007895D01*
X-0012668Y0007840D01*
X-0012818Y0007789D01*
X-0012969Y0007742D01*
X-0013121Y0007699D01*
X-0013274Y0007660D01*
X-0013429Y0007624D01*
X-0013584Y0007593D01*
X-0013740Y0007565D01*
X-0013896Y0007541D01*
X-0014053Y0007521D01*
X-0014211Y0007505D01*
X-0014368Y0007493D01*
X-0014527Y0007485D01*
X-0014685Y0007481D01*
X-0014843Y0007481D01*
X-0015001Y0007485D01*
X-0015160Y0007493D01*
X-0015317Y0007505D01*
X-0015475Y0007521D01*
X-0015632Y0007541D01*
X-0015788Y0007565D01*
X-0015944Y0007593D01*
X-0016099Y0007624D01*
X-0016254Y0007660D01*
X-0016407Y0007699D01*
X-0016559Y0007742D01*
X-0016710Y0007789D01*
X-0016860Y0007840D01*
X-0017009Y0007895D01*
X-0017156Y0007953D01*
X-0017302Y0008015D01*
X-0017446Y0008080D01*
X-0017588Y0008150D01*
X-0017729Y0008222D01*
X-0017868Y0008299D01*
X-0018004Y0008378D01*
X-0018139Y0008462D01*
X-0018272Y0008548D01*
X-0018402Y0008638D01*
X-0018530Y0008731D01*
X-0018656Y0008827D01*
X-0018779Y0008927D01*
X-0018900Y0009029D01*
X-0019018Y0009134D01*
X-0019133Y0009243D01*
X-0019246Y0009354D01*
X-0019356Y0009468D01*
X-0019463Y0009585D01*
X-0019567Y0009704D01*
X-0019668Y0009826D01*
X-0019765Y0009951D01*
X-0019860Y0010078D01*
X-0019951Y0010207D01*
X-0020040Y0010338D01*
X-0020124Y0010472D01*
X-0020206Y0010608D01*
X-0020284Y0010745D01*
X-0020358Y0010885D01*
X-0020429Y0011027D01*
X-0020497Y0011170D01*
X-0020561Y0011315D01*
X-0020621Y0011461D01*
X-0020677Y0011609D01*
X-0020730Y0011758D01*
X-0020779Y0011909D01*
X-0020824Y0012061D01*
X-0020865Y0012214D01*
X-0020903Y0012367D01*
X-0020936Y0012522D01*
X-0020966Y0012678D01*
X-0020992Y0012834D01*
X-0021013Y0012991D01*
X-0021031Y0013148D01*
X-0021045Y0013306D01*
X-0021055Y0013464D01*
X-0021061Y0013622D01*
X-0021063Y0013780D01*
X0008000Y0000500D02*
X0008002Y0000563D01*
X0008008Y0000625D01*
X0008018Y0000687D01*
X0008031Y0000749D01*
X0008049Y0000809D01*
X0008070Y0000868D01*
X0008095Y0000926D01*
X0008124Y0000982D01*
X0008156Y0001036D01*
X0008191Y0001088D01*
X0008229Y0001137D01*
X0008271Y0001185D01*
X0008315Y0001229D01*
X0008363Y0001271D01*
X0008412Y0001309D01*
X0008464Y0001344D01*
X0008518Y0001376D01*
X0008574Y0001405D01*
X0008632Y0001430D01*
X0008691Y0001451D01*
X0008751Y0001469D01*
X0008813Y0001482D01*
X0008875Y0001492D01*
X0008937Y0001498D01*
X0009000Y0001500D01*
X0009063Y0001498D01*
X0009125Y0001492D01*
X0009187Y0001482D01*
X0009249Y0001469D01*
X0009309Y0001451D01*
X0009368Y0001430D01*
X0009426Y0001405D01*
X0009482Y0001376D01*
X0009536Y0001344D01*
X0009588Y0001309D01*
X0009637Y0001271D01*
X0009685Y0001229D01*
X0009729Y0001185D01*
X0009771Y0001137D01*
X0009809Y0001088D01*
X0009844Y0001036D01*
X0009876Y0000982D01*
X0009905Y0000926D01*
X0009930Y0000868D01*
X0009951Y0000809D01*
X0009969Y0000749D01*
X0009982Y0000687D01*
X0009992Y0000625D01*
X0009998Y0000563D01*
X0010000Y0000500D01*
X0009998Y0000437D01*
X0009992Y0000375D01*
X0009982Y0000313D01*
X0009969Y0000251D01*
X0009951Y0000191D01*
X0009930Y0000132D01*
X0009905Y0000074D01*
X0009876Y0000018D01*
X0009844Y-0000036D01*
X0009809Y-0000088D01*
X0009771Y-0000137D01*
X0009729Y-0000185D01*
X0009685Y-0000229D01*
X0009637Y-0000271D01*
X0009588Y-0000309D01*
X0009536Y-0000344D01*
X0009482Y-0000376D01*
X0009426Y-0000405D01*
X0009368Y-0000430D01*
X0009309Y-0000451D01*
X0009249Y-0000469D01*
X0009187Y-0000482D01*
X0009125Y-0000492D01*
X0009063Y-0000498D01*
X0009000Y-0000500D01*
X0008937Y-0000498D01*
X0008875Y-0000492D01*
X0008813Y-0000482D01*
X0008751Y-0000469D01*
X0008691Y-0000451D01*
X0008632Y-0000430D01*
X0008574Y-0000405D01*
X0008518Y-0000376D01*
X0008464Y-0000344D01*
X0008412Y-0000309D01*
X0008363Y-0000271D01*
X0008315Y-0000229D01*
X0008271Y-0000185D01*
X0008229Y-0000137D01*
X0008191Y-0000088D01*
X0008156Y-0000036D01*
X0008124Y0000018D01*
X0008095Y0000074D01*
X0008070Y0000132D01*
X0008049Y0000191D01*
X0008031Y0000251D01*
X0008018Y0000313D01*
X0008008Y0000375D01*
X0008002Y0000437D01*
X0008000Y0000500D01*
X0012000Y0000500D02*
X0012002Y0000563D01*
X0012008Y0000625D01*
X0012018Y0000687D01*
X0012031Y0000749D01*
X0012049Y0000809D01*
X0012070Y0000868D01*
X0012095Y0000926D01*
X0012124Y0000982D01*
X0012156Y0001036D01*
X0012191Y0001088D01*
X0012229Y0001137D01*
X0012271Y0001185D01*
X0012315Y0001229D01*
X0012363Y0001271D01*
X0012412Y0001309D01*
X0012464Y0001344D01*
X0012518Y0001376D01*
X0012574Y0001405D01*
X0012632Y0001430D01*
X0012691Y0001451D01*
X0012751Y0001469D01*
X0012813Y0001482D01*
X0012875Y0001492D01*
X0012937Y0001498D01*
X0013000Y0001500D01*
X0013063Y0001498D01*
X0013125Y0001492D01*
X0013187Y0001482D01*
X0013249Y0001469D01*
X0013309Y0001451D01*
X0013368Y0001430D01*
X0013426Y0001405D01*
X0013482Y0001376D01*
X0013536Y0001344D01*
X0013588Y0001309D01*
X0013637Y0001271D01*
X0013685Y0001229D01*
X0013729Y0001185D01*
X0013771Y0001137D01*
X0013809Y0001088D01*
X0013844Y0001036D01*
X0013876Y0000982D01*
X0013905Y0000926D01*
X0013930Y0000868D01*
X0013951Y0000809D01*
X0013969Y0000749D01*
X0013982Y0000687D01*
X0013992Y0000625D01*
X0013998Y0000563D01*
X0014000Y0000500D01*
X0013998Y0000437D01*
X0013992Y0000375D01*
X0013982Y0000313D01*
X0013969Y0000251D01*
X0013951Y0000191D01*
X0013930Y0000132D01*
X0013905Y0000074D01*
X0013876Y0000018D01*
X0013844Y-0000036D01*
X0013809Y-0000088D01*
X0013771Y-0000137D01*
X0013729Y-0000185D01*
X0013685Y-0000229D01*
X0013637Y-0000271D01*
X0013588Y-0000309D01*
X0013536Y-0000344D01*
X0013482Y-0000376D01*
X0013426Y-0000405D01*
X0013368Y-0000430D01*
X0013309Y-0000451D01*
X0013249Y-0000469D01*
X0013187Y-0000482D01*
X0013125Y-0000492D01*
X0013063Y-0000498D01*
X0013000Y-0000500D01*
X0012937Y-0000498D01*
X0012875Y-0000492D01*
X0012813Y-0000482D01*
X0012751Y-0000469D01*
X0012691Y-0000451D01*
X0012632Y-0000430D01*
X0012574Y-0000405D01*
X0012518Y-0000376D01*
X0012464Y-0000344D01*
X0012412Y-0000309D01*
X0012363Y-0000271D01*
X0012315Y-0000229D01*
X0012271Y-0000185D01*
X0012229Y-0000137D01*
X0012191Y-0000088D01*
X0012156Y-0000036D01*
X0012124Y0000018D01*
X0012095Y0000074D01*
X0012070Y0000132D01*
X0012049Y0000191D01*
X0012031Y0000251D01*
X0012018Y0000313D01*
X0012008Y0000375D01*
X0012002Y0000437D01*
X0012000Y0000500D01*
X0016000Y0000500D02*
X0016002Y0000563D01*
X0016008Y0000625D01*
X0016018Y0000687D01*
X0016031Y0000749D01*
X0016049Y0000809D01*
X0016070Y0000868D01*
X0016095Y0000926D01*
X0016124Y0000982D01*
X0016156Y0001036D01*
X0016191Y0001088D01*
X0016229Y0001137D01*
X0016271Y0001185D01*
X0016315Y0001229D01*
X0016363Y0001271D01*
X0016412Y0001309D01*
X0016464Y0001344D01*
X0016518Y0001376D01*
X0016574Y0001405D01*
X0016632Y0001430D01*
X0016691Y0001451D01*
X0016751Y0001469D01*
X0016813Y0001482D01*
X0016875Y0001492D01*
X0016937Y0001498D01*
X0017000Y0001500D01*
X0017063Y0001498D01*
X0017125Y0001492D01*
X0017187Y0001482D01*
X0017249Y0001469D01*
X0017309Y0001451D01*
X0017368Y0001430D01*
X0017426Y0001405D01*
X0017482Y0001376D01*
X0017536Y0001344D01*
X0017588Y0001309D01*
X0017637Y0001271D01*
X0017685Y0001229D01*
X0017729Y0001185D01*
X0017771Y0001137D01*
X0017809Y0001088D01*
X0017844Y0001036D01*
X0017876Y0000982D01*
X0017905Y0000926D01*
X0017930Y0000868D01*
X0017951Y0000809D01*
X0017969Y0000749D01*
X0017982Y0000687D01*
X0017992Y0000625D01*
X0017998Y0000563D01*
X0018000Y0000500D01*
X0017998Y0000437D01*
X0017992Y0000375D01*
X0017982Y0000313D01*
X0017969Y0000251D01*
X0017951Y0000191D01*
X0017930Y0000132D01*
X0017905Y0000074D01*
X0017876Y0000018D01*
X0017844Y-0000036D01*
X0017809Y-0000088D01*
X0017771Y-0000137D01*
X0017729Y-0000185D01*
X0017685Y-0000229D01*
X0017637Y-0000271D01*
X0017588Y-0000309D01*
X0017536Y-0000344D01*
X0017482Y-0000376D01*
X0017426Y-0000405D01*
X0017368Y-0000430D01*
X0017309Y-0000451D01*
X0017249Y-0000469D01*
X0017187Y-0000482D01*
X0017125Y-0000492D01*
X0017063Y-0000498D01*
X0017000Y-0000500D01*
X0016937Y-0000498D01*
X0016875Y-0000492D01*
X0016813Y-0000482D01*
X0016751Y-0000469D01*
X0016691Y-0000451D01*
X0016632Y-0000430D01*
X0016574Y-0000405D01*
X0016518Y-0000376D01*
X0016464Y-0000344D01*
X0016412Y-0000309D01*
X0016363Y-0000271D01*
X0016315Y-0000229D01*
X0016271Y-0000185D01*
X0016229Y-0000137D01*
X0016191Y-0000088D01*
X0016156Y-0000036D01*
X0016124Y0000018D01*
X0016095Y0000074D01*
X0016070Y0000132D01*
X0016049Y0000191D01*
X0016031Y0000251D01*
X0016018Y0000313D01*
X0016008Y0000375D01*
X0016002Y0000437D01*
X0016000Y0000500D01*
X0020000Y0000500D02*
X0020002Y0000563D01*
X0020008Y0000625D01*
X0020018Y0000687D01*
X0020031Y0000749D01*
X0020049Y0000809D01*
X0020070Y0000868D01*
X0020095Y0000926D01*
X0020124Y0000982D01*
X0020156Y0001036D01*
X0020191Y0001088D01*
X0020229Y0001137D01*
X0020271Y0001185D01*
X0020315Y0001229D01*
X0020363Y0001271D01*
X0020412Y0001309D01*
X0020464Y0001344D01*
X0020518Y0001376D01*
X0020574Y0001405D01*
X0020632Y0001430D01*
X0020691Y0001451D01*
X0020751Y0001469D01*
X0020813Y0001482D01*
X0020875Y0001492D01*
X0020937Y0001498D01*
X0021000Y0001500D01*
X0021063Y0001498D01*
X0021125Y0001492D01*
X0021187Y0001482D01*
X0021249Y0001469D01*
X0021309Y0001451D01*
X0021368Y0001430D01*
X0021426Y0001405D01*
X0021482Y0001376D01*
X0021536Y0001344D01*
X0021588Y0001309D01*
X0021637Y0001271D01*
X0021685Y0001229D01*
X0021729Y0001185D01*
X0021771Y0001137D01*
X0021809Y0001088D01*
X0021844Y0001036D01*
X0021876Y0000982D01*
X0021905Y0000926D01*
X0021930Y0000868D01*
X0021951Y0000809D01*
X0021969Y0000749D01*
X0021982Y0000687D01*
X0021992Y0000625D01*
X0021998Y0000563D01*
X0022000Y0000500D01*
X0021998Y0000437D01*
X0021992Y0000375D01*
X0021982Y0000313D01*
X0021969Y0000251D01*
X0021951Y0000191D01*
X0021930Y0000132D01*
X0021905Y0000074D01*
X0021876Y0000018D01*
X0021844Y-0000036D01*
X0021809Y-0000088D01*
X0021771Y-0000137D01*
X0021729Y-0000185D01*
X0021685Y-0000229D01*
X0021637Y-0000271D01*
X0021588Y-0000309D01*
X0021536Y-0000344D01*
X0021482Y-0000376D01*
X0021426Y-0000405D01*
X0021368Y-0000430D01*
X0021309Y-0000451D01*
X0021249Y-0000469D01*
X0021187Y-0000482D01*
X0021125Y-0000492D01*
X0021063Y-0000498D01*
X0021000Y-0000500D01*
X0020937Y-0000498D01*
X0020875Y-0000492D01*
X0020813Y-0000482D01*
X0020751Y-0000469D01*
X0020691Y-0000451D01*
X0020632Y-0000430D01*
X0020574Y-0000405D01*
X0020518Y-0000376D01*
X0020464Y-0000344D01*
X0020412Y-0000309D01*
X0020363Y-0000271D01*
X0020315Y-0000229D01*
X0020271Y-0000185D01*
X0020229Y-0000137D01*
X0020191Y-0000088D01*
X0020156Y-0000036D01*
X0020124Y0000018D01*
X0020095Y0000074D01*
X0020070Y0000132D01*
X0020049Y0000191D01*
X0020031Y0000251D01*
X0020018Y0000313D01*
X0020008Y0000375D01*
X0020002Y0000437D01*
X0020000Y0000500D01*
X0024000Y0000500D02*
X0024002Y0000563D01*
X0024008Y0000625D01*
X0024018Y0000687D01*
X0024031Y0000749D01*
X0024049Y0000809D01*
X0024070Y0000868D01*
X0024095Y0000926D01*
X0024124Y0000982D01*
X0024156Y0001036D01*
X0024191Y0001088D01*
X0024229Y0001137D01*
X0024271Y0001185D01*
X0024315Y0001229D01*
X0024363Y0001271D01*
X0024412Y0001309D01*
X0024464Y0001344D01*
X0024518Y0001376D01*
X0024574Y0001405D01*
X0024632Y0001430D01*
X0024691Y0001451D01*
X0024751Y0001469D01*
X0024813Y0001482D01*
X0024875Y0001492D01*
X0024937Y0001498D01*
X0025000Y0001500D01*
X0025063Y0001498D01*
X0025125Y0001492D01*
X0025187Y0001482D01*
X0025249Y0001469D01*
X0025309Y0001451D01*
X0025368Y0001430D01*
X0025426Y0001405D01*
X0025482Y0001376D01*
X0025536Y0001344D01*
X0025588Y0001309D01*
X0025637Y0001271D01*
X0025685Y0001229D01*
X0025729Y0001185D01*
X0025771Y0001137D01*
X0025809Y0001088D01*
X0025844Y0001036D01*
X0025876Y0000982D01*
X0025905Y0000926D01*
X0025930Y0000868D01*
X0025951Y0000809D01*
X0025969Y0000749D01*
X0025982Y0000687D01*
X0025992Y0000625D01*
X0025998Y0000563D01*
X0026000Y0000500D01*
X0025998Y0000437D01*
X0025992Y0000375D01*
X0025982Y0000313D01*
X0025969Y0000251D01*
X0025951Y0000191D01*
X0025930Y0000132D01*
X0025905Y0000074D01*
X0025876Y0000018D01*
X0025844Y-0000036D01*
X0025809Y-0000088D01*
X0025771Y-0000137D01*
X0025729Y-0000185D01*
X0025685Y-0000229D01*
X0025637Y-0000271D01*
X0025588Y-0000309D01*
X0025536Y-0000344D01*
X0025482Y-0000376D01*
X0025426Y-0000405D01*
X0025368Y-0000430D01*
X0025309Y-0000451D01*
X0025249Y-0000469D01*
X0025187Y-0000482D01*
X0025125Y-0000492D01*
X0025063Y-0000498D01*
X0025000Y-0000500D01*
X0024937Y-0000498D01*
X0024875Y-0000492D01*
X0024813Y-0000482D01*
X0024751Y-0000469D01*
X0024691Y-0000451D01*
X0024632Y-0000430D01*
X0024574Y-0000405D01*
X0024518Y-0000376D01*
X0024464Y-0000344D01*
X0024412Y-0000309D01*
X0024363Y-0000271D01*
X0024315Y-0000229D01*
X0024271Y-0000185D01*
X0024229Y-0000137D01*
X0024191Y-0000088D01*
X0024156Y-0000036D01*
X0024124Y0000018D01*
X0024095Y0000074D01*
X0024070Y0000132D01*
X0024049Y0000191D01*
X0024031Y0000251D01*
X0024018Y0000313D01*
X0024008Y0000375D01*
X0024002Y0000437D01*
X0024000Y0000500D01*
X0114000Y0000500D02*
X0114002Y0000563D01*
X0114008Y0000625D01*
X0114018Y0000687D01*
X0114031Y0000749D01*
X0114049Y0000809D01*
X0114070Y0000868D01*
X0114095Y0000926D01*
X0114124Y0000982D01*
X0114156Y0001036D01*
X0114191Y0001088D01*
X0114229Y0001137D01*
X0114271Y0001185D01*
X0114315Y0001229D01*
X0114363Y0001271D01*
X0114412Y0001309D01*
X0114464Y0001344D01*
X0114518Y0001376D01*
X0114574Y0001405D01*
X0114632Y0001430D01*
X0114691Y0001451D01*
X0114751Y0001469D01*
X0114813Y0001482D01*
X0114875Y0001492D01*
X0114937Y0001498D01*
X0115000Y0001500D01*
X0115063Y0001498D01*
X0115125Y0001492D01*
X0115187Y0001482D01*
X0115249Y0001469D01*
X0115309Y0001451D01*
X0115368Y0001430D01*
X0115426Y0001405D01*
X0115482Y0001376D01*
X0115536Y0001344D01*
X0115588Y0001309D01*
X0115637Y0001271D01*
X0115685Y0001229D01*
X0115729Y0001185D01*
X0115771Y0001137D01*
X0115809Y0001088D01*
X0115844Y0001036D01*
X0115876Y0000982D01*
X0115905Y0000926D01*
X0115930Y0000868D01*
X0115951Y0000809D01*
X0115969Y0000749D01*
X0115982Y0000687D01*
X0115992Y0000625D01*
X0115998Y0000563D01*
X0116000Y0000500D01*
X0115998Y0000437D01*
X0115992Y0000375D01*
X0115982Y0000313D01*
X0115969Y0000251D01*
X0115951Y0000191D01*
X0115930Y0000132D01*
X0115905Y0000074D01*
X0115876Y0000018D01*
X0115844Y-0000036D01*
X0115809Y-0000088D01*
X0115771Y-0000137D01*
X0115729Y-0000185D01*
X0115685Y-0000229D01*
X0115637Y-0000271D01*
X0115588Y-0000309D01*
X0115536Y-0000344D01*
X0115482Y-0000376D01*
X0115426Y-0000405D01*
X0115368Y-0000430D01*
X0115309Y-0000451D01*
X0115249Y-0000469D01*
X0115187Y-0000482D01*
X0115125Y-0000492D01*
X0115063Y-0000498D01*
X0115000Y-0000500D01*
X0114937Y-0000498D01*
X0114875Y-0000492D01*
X0114813Y-0000482D01*
X0114751Y-0000469D01*
X0114691Y-0000451D01*
X0114632Y-0000430D01*
X0114574Y-0000405D01*
X0114518Y-0000376D01*
X0114464Y-0000344D01*
X0114412Y-0000309D01*
X0114363Y-0000271D01*
X0114315Y-0000229D01*
X0114271Y-0000185D01*
X0114229Y-0000137D01*
X0114191Y-0000088D01*
X0114156Y-0000036D01*
X0114124Y0000018D01*
X0114095Y0000074D01*
X0114070Y0000132D01*
X0114049Y0000191D01*
X0114031Y0000251D01*
X0114018Y0000313D01*
X0114008Y0000375D01*
X0114002Y0000437D01*
X0114000Y0000500D01*
X0118000Y0000500D02*
X0118002Y0000563D01*
X0118008Y0000625D01*
X0118018Y0000687D01*
X0118031Y0000749D01*
X0118049Y0000809D01*
X0118070Y0000868D01*
X0118095Y0000926D01*
X0118124Y0000982D01*
X0118156Y0001036D01*
X0118191Y0001088D01*
X0118229Y0001137D01*
X0118271Y0001185D01*
X0118315Y0001229D01*
X0118363Y0001271D01*
X0118412Y0001309D01*
X0118464Y0001344D01*
X0118518Y0001376D01*
X0118574Y0001405D01*
X0118632Y0001430D01*
X0118691Y0001451D01*
X0118751Y0001469D01*
X0118813Y0001482D01*
X0118875Y0001492D01*
X0118937Y0001498D01*
X0119000Y0001500D01*
X0119063Y0001498D01*
X0119125Y0001492D01*
X0119187Y0001482D01*
X0119249Y0001469D01*
X0119309Y0001451D01*
X0119368Y0001430D01*
X0119426Y0001405D01*
X0119482Y0001376D01*
X0119536Y0001344D01*
X0119588Y0001309D01*
X0119637Y0001271D01*
X0119685Y0001229D01*
X0119729Y0001185D01*
X0119771Y0001137D01*
X0119809Y0001088D01*
X0119844Y0001036D01*
X0119876Y0000982D01*
X0119905Y0000926D01*
X0119930Y0000868D01*
X0119951Y0000809D01*
X0119969Y0000749D01*
X0119982Y0000687D01*
X0119992Y0000625D01*
X0119998Y0000563D01*
X0120000Y0000500D01*
X0119998Y0000437D01*
X0119992Y0000375D01*
X0119982Y0000313D01*
X0119969Y0000251D01*
X0119951Y0000191D01*
X0119930Y0000132D01*
X0119905Y0000074D01*
X0119876Y0000018D01*
X0119844Y-0000036D01*
X0119809Y-0000088D01*
X0119771Y-0000137D01*
X0119729Y-0000185D01*
X0119685Y-0000229D01*
X0119637Y-0000271D01*
X0119588Y-0000309D01*
X0119536Y-0000344D01*
X0119482Y-0000376D01*
X0119426Y-0000405D01*
X0119368Y-0000430D01*
X0119309Y-0000451D01*
X0119249Y-0000469D01*
X0119187Y-0000482D01*
X0119125Y-0000492D01*
X0119063Y-0000498D01*
X0119000Y-0000500D01*
X0118937Y-0000498D01*
X0118875Y-0000492D01*
X0118813Y-0000482D01*
X0118751Y-0000469D01*
X0118691Y-0000451D01*
X0118632Y-0000430D01*
X0118574Y-0000405D01*
X0118518Y-0000376D01*
X0118464Y-0000344D01*
X0118412Y-0000309D01*
X0118363Y-0000271D01*
X0118315Y-0000229D01*
X0118271Y-0000185D01*
X0118229Y-0000137D01*
X0118191Y-0000088D01*
X0118156Y-0000036D01*
X0118124Y0000018D01*
X0118095Y0000074D01*
X0118070Y0000132D01*
X0118049Y0000191D01*
X0118031Y0000251D01*
X0118018Y0000313D01*
X0118008Y0000375D01*
X0118002Y0000437D01*
X0118000Y0000500D01*
X0122000Y0000500D02*
X0122002Y0000563D01*
X0122008Y0000625D01*
X0122018Y0000687D01*
X0122031Y0000749D01*
X0122049Y0000809D01*
X0122070Y0000868D01*
X0122095Y0000926D01*
X0122124Y0000982D01*
X0122156Y0001036D01*
X0122191Y0001088D01*
X0122229Y0001137D01*
X0122271Y0001185D01*
X0122315Y0001229D01*
X0122363Y0001271D01*
X0122412Y0001309D01*
X0122464Y0001344D01*
X0122518Y0001376D01*
X0122574Y0001405D01*
X0122632Y0001430D01*
X0122691Y0001451D01*
X0122751Y0001469D01*
X0122813Y0001482D01*
X0122875Y0001492D01*
X0122937Y0001498D01*
X0123000Y0001500D01*
X0123063Y0001498D01*
X0123125Y0001492D01*
X0123187Y0001482D01*
X0123249Y0001469D01*
X0123309Y0001451D01*
X0123368Y0001430D01*
X0123426Y0001405D01*
X0123482Y0001376D01*
X0123536Y0001344D01*
X0123588Y0001309D01*
X0123637Y0001271D01*
X0123685Y0001229D01*
X0123729Y0001185D01*
X0123771Y0001137D01*
X0123809Y0001088D01*
X0123844Y0001036D01*
X0123876Y0000982D01*
X0123905Y0000926D01*
X0123930Y0000868D01*
X0123951Y0000809D01*
X0123969Y0000749D01*
X0123982Y0000687D01*
X0123992Y0000625D01*
X0123998Y0000563D01*
X0124000Y0000500D01*
X0123998Y0000437D01*
X0123992Y0000375D01*
X0123982Y0000313D01*
X0123969Y0000251D01*
X0123951Y0000191D01*
X0123930Y0000132D01*
X0123905Y0000074D01*
X0123876Y0000018D01*
X0123844Y-0000036D01*
X0123809Y-0000088D01*
X0123771Y-0000137D01*
X0123729Y-0000185D01*
X0123685Y-0000229D01*
X0123637Y-0000271D01*
X0123588Y-0000309D01*
X0123536Y-0000344D01*
X0123482Y-0000376D01*
X0123426Y-0000405D01*
X0123368Y-0000430D01*
X0123309Y-0000451D01*
X0123249Y-0000469D01*
X0123187Y-0000482D01*
X0123125Y-0000492D01*
X0123063Y-0000498D01*
X0123000Y-0000500D01*
X0122937Y-0000498D01*
X0122875Y-0000492D01*
X0122813Y-0000482D01*
X0122751Y-0000469D01*
X0122691Y-0000451D01*
X0122632Y-0000430D01*
X0122574Y-0000405D01*
X0122518Y-0000376D01*
X0122464Y-0000344D01*
X0122412Y-0000309D01*
X0122363Y-0000271D01*
X0122315Y-0000229D01*
X0122271Y-0000185D01*
X0122229Y-0000137D01*
X0122191Y-0000088D01*
X0122156Y-0000036D01*
X0122124Y0000018D01*
X0122095Y0000074D01*
X0122070Y0000132D01*
X0122049Y0000191D01*
X0122031Y0000251D01*
X0122018Y0000313D01*
X0122008Y0000375D01*
X0122002Y0000437D01*
X0122000Y0000500D01*
X0126000Y0000500D02*
X0126002Y0000563D01*
X0126008Y0000625D01*
X0126018Y0000687D01*
X0126031Y0000749D01*
X0126049Y0000809D01*
X0126070Y0000868D01*
X0126095Y0000926D01*
X0126124Y0000982D01*
X0126156Y0001036D01*
X0126191Y0001088D01*
X0126229Y0001137D01*
X0126271Y0001185D01*
X0126315Y0001229D01*
X0126363Y0001271D01*
X0126412Y0001309D01*
X0126464Y0001344D01*
X0126518Y0001376D01*
X0126574Y0001405D01*
X0126632Y0001430D01*
X0126691Y0001451D01*
X0126751Y0001469D01*
X0126813Y0001482D01*
X0126875Y0001492D01*
X0126937Y0001498D01*
X0127000Y0001500D01*
X0127063Y0001498D01*
X0127125Y0001492D01*
X0127187Y0001482D01*
X0127249Y0001469D01*
X0127309Y0001451D01*
X0127368Y0001430D01*
X0127426Y0001405D01*
X0127482Y0001376D01*
X0127536Y0001344D01*
X0127588Y0001309D01*
X0127637Y0001271D01*
X0127685Y0001229D01*
X0127729Y0001185D01*
X0127771Y0001137D01*
X0127809Y0001088D01*
X0127844Y0001036D01*
X0127876Y0000982D01*
X0127905Y0000926D01*
X0127930Y0000868D01*
X0127951Y0000809D01*
X0127969Y0000749D01*
X0127982Y0000687D01*
X0127992Y0000625D01*
X0127998Y0000563D01*
X0128000Y0000500D01*
X0127998Y0000437D01*
X0127992Y0000375D01*
X0127982Y0000313D01*
X0127969Y0000251D01*
X0127951Y0000191D01*
X0127930Y0000132D01*
X0127905Y0000074D01*
X0127876Y0000018D01*
X0127844Y-0000036D01*
X0127809Y-0000088D01*
X0127771Y-0000137D01*
X0127729Y-0000185D01*
X0127685Y-0000229D01*
X0127637Y-0000271D01*
X0127588Y-0000309D01*
X0127536Y-0000344D01*
X0127482Y-0000376D01*
X0127426Y-0000405D01*
X0127368Y-0000430D01*
X0127309Y-0000451D01*
X0127249Y-0000469D01*
X0127187Y-0000482D01*
X0127125Y-0000492D01*
X0127063Y-0000498D01*
X0127000Y-0000500D01*
X0126937Y-0000498D01*
X0126875Y-0000492D01*
X0126813Y-0000482D01*
X0126751Y-0000469D01*
X0126691Y-0000451D01*
X0126632Y-0000430D01*
X0126574Y-0000405D01*
X0126518Y-0000376D01*
X0126464Y-0000344D01*
X0126412Y-0000309D01*
X0126363Y-0000271D01*
X0126315Y-0000229D01*
X0126271Y-0000185D01*
X0126229Y-0000137D01*
X0126191Y-0000088D01*
X0126156Y-0000036D01*
X0126124Y0000018D01*
X0126095Y0000074D01*
X0126070Y0000132D01*
X0126049Y0000191D01*
X0126031Y0000251D01*
X0126018Y0000313D01*
X0126008Y0000375D01*
X0126002Y0000437D01*
X0126000Y0000500D01*
X0130000Y0000500D02*
X0130002Y0000563D01*
X0130008Y0000625D01*
X0130018Y0000687D01*
X0130031Y0000749D01*
X0130049Y0000809D01*
X0130070Y0000868D01*
X0130095Y0000926D01*
X0130124Y0000982D01*
X0130156Y0001036D01*
X0130191Y0001088D01*
X0130229Y0001137D01*
X0130271Y0001185D01*
X0130315Y0001229D01*
X0130363Y0001271D01*
X0130412Y0001309D01*
X0130464Y0001344D01*
X0130518Y0001376D01*
X0130574Y0001405D01*
X0130632Y0001430D01*
X0130691Y0001451D01*
X0130751Y0001469D01*
X0130813Y0001482D01*
X0130875Y0001492D01*
X0130937Y0001498D01*
X0131000Y0001500D01*
X0131063Y0001498D01*
X0131125Y0001492D01*
X0131187Y0001482D01*
X0131249Y0001469D01*
X0131309Y0001451D01*
X0131368Y0001430D01*
X0131426Y0001405D01*
X0131482Y0001376D01*
X0131536Y0001344D01*
X0131588Y0001309D01*
X0131637Y0001271D01*
X0131685Y0001229D01*
X0131729Y0001185D01*
X0131771Y0001137D01*
X0131809Y0001088D01*
X0131844Y0001036D01*
X0131876Y0000982D01*
X0131905Y0000926D01*
X0131930Y0000868D01*
X0131951Y0000809D01*
X0131969Y0000749D01*
X0131982Y0000687D01*
X0131992Y0000625D01*
X0131998Y0000563D01*
X0132000Y0000500D01*
X0131998Y0000437D01*
X0131992Y0000375D01*
X0131982Y0000313D01*
X0131969Y0000251D01*
X0131951Y0000191D01*
X0131930Y0000132D01*
X0131905Y0000074D01*
X0131876Y0000018D01*
X0131844Y-0000036D01*
X0131809Y-0000088D01*
X0131771Y-0000137D01*
X0131729Y-0000185D01*
X0131685Y-0000229D01*
X0131637Y-0000271D01*
X0131588Y-0000309D01*
X0131536Y-0000344D01*
X0131482Y-0000376D01*
X0131426Y-0000405D01*
X0131368Y-0000430D01*
X0131309Y-0000451D01*
X0131249Y-0000469D01*
X0131187Y-0000482D01*
X0131125Y-0000492D01*
X0131063Y-0000498D01*
X0131000Y-0000500D01*
X0130937Y-0000498D01*
X0130875Y-0000492D01*
X0130813Y-0000482D01*
X0130751Y-0000469D01*
X0130691Y-0000451D01*
X0130632Y-0000430D01*
X0130574Y-0000405D01*
X0130518Y-0000376D01*
X0130464Y-0000344D01*
X0130412Y-0000309D01*
X0130363Y-0000271D01*
X0130315Y-0000229D01*
X0130271Y-0000185D01*
X0130229Y-0000137D01*
X0130191Y-0000088D01*
X0130156Y-0000036D01*
X0130124Y0000018D01*
X0130095Y0000074D01*
X0130070Y0000132D01*
X0130049Y0000191D01*
X0130031Y0000251D01*
X0130018Y0000313D01*
X0130008Y0000375D01*
X0130002Y0000437D01*
X0130000Y0000500D01*
X0134000Y0000500D02*
X0134002Y0000563D01*
X0134008Y0000625D01*
X0134018Y0000687D01*
X0134031Y0000749D01*
X0134049Y0000809D01*
X0134070Y0000868D01*
X0134095Y0000926D01*
X0134124Y0000982D01*
X0134156Y0001036D01*
X0134191Y0001088D01*
X0134229Y0001137D01*
X0134271Y0001185D01*
X0134315Y0001229D01*
X0134363Y0001271D01*
X0134412Y0001309D01*
X0134464Y0001344D01*
X0134518Y0001376D01*
X0134574Y0001405D01*
X0134632Y0001430D01*
X0134691Y0001451D01*
X0134751Y0001469D01*
X0134813Y0001482D01*
X0134875Y0001492D01*
X0134937Y0001498D01*
X0135000Y0001500D01*
X0135063Y0001498D01*
X0135125Y0001492D01*
X0135187Y0001482D01*
X0135249Y0001469D01*
X0135309Y0001451D01*
X0135368Y0001430D01*
X0135426Y0001405D01*
X0135482Y0001376D01*
X0135536Y0001344D01*
X0135588Y0001309D01*
X0135637Y0001271D01*
X0135685Y0001229D01*
X0135729Y0001185D01*
X0135771Y0001137D01*
X0135809Y0001088D01*
X0135844Y0001036D01*
X0135876Y0000982D01*
X0135905Y0000926D01*
X0135930Y0000868D01*
X0135951Y0000809D01*
X0135969Y0000749D01*
X0135982Y0000687D01*
X0135992Y0000625D01*
X0135998Y0000563D01*
X0136000Y0000500D01*
X0135998Y0000437D01*
X0135992Y0000375D01*
X0135982Y0000313D01*
X0135969Y0000251D01*
X0135951Y0000191D01*
X0135930Y0000132D01*
X0135905Y0000074D01*
X0135876Y0000018D01*
X0135844Y-0000036D01*
X0135809Y-0000088D01*
X0135771Y-0000137D01*
X0135729Y-0000185D01*
X0135685Y-0000229D01*
X0135637Y-0000271D01*
X0135588Y-0000309D01*
X0135536Y-0000344D01*
X0135482Y-0000376D01*
X0135426Y-0000405D01*
X0135368Y-0000430D01*
X0135309Y-0000451D01*
X0135249Y-0000469D01*
X0135187Y-0000482D01*
X0135125Y-0000492D01*
X0135063Y-0000498D01*
X0135000Y-0000500D01*
X0134937Y-0000498D01*
X0134875Y-0000492D01*
X0134813Y-0000482D01*
X0134751Y-0000469D01*
X0134691Y-0000451D01*
X0134632Y-0000430D01*
X0134574Y-0000405D01*
X0134518Y-0000376D01*
X0134464Y-0000344D01*
X0134412Y-0000309D01*
X0134363Y-0000271D01*
X0134315Y-0000229D01*
X0134271Y-0000185D01*
X0134229Y-0000137D01*
X0134191Y-0000088D01*
X0134156Y-0000036D01*
X0134124Y0000018D01*
X0134095Y0000074D01*
X0134070Y0000132D01*
X0134049Y0000191D01*
X0134031Y0000251D01*
X0134018Y0000313D01*
X0134008Y0000375D01*
X0134002Y0000437D01*
X0134000Y0000500D01*
X0138000Y0000500D02*
X0138002Y0000563D01*
X0138008Y0000625D01*
X0138018Y0000687D01*
X0138031Y0000749D01*
X0138049Y0000809D01*
X0138070Y0000868D01*
X0138095Y0000926D01*
X0138124Y0000982D01*
X0138156Y0001036D01*
X0138191Y0001088D01*
X0138229Y0001137D01*
X0138271Y0001185D01*
X0138315Y0001229D01*
X0138363Y0001271D01*
X0138412Y0001309D01*
X0138464Y0001344D01*
X0138518Y0001376D01*
X0138574Y0001405D01*
X0138632Y0001430D01*
X0138691Y0001451D01*
X0138751Y0001469D01*
X0138813Y0001482D01*
X0138875Y0001492D01*
X0138937Y0001498D01*
X0139000Y0001500D01*
X0139063Y0001498D01*
X0139125Y0001492D01*
X0139187Y0001482D01*
X0139249Y0001469D01*
X0139309Y0001451D01*
X0139368Y0001430D01*
X0139426Y0001405D01*
X0139482Y0001376D01*
X0139536Y0001344D01*
X0139588Y0001309D01*
X0139637Y0001271D01*
X0139685Y0001229D01*
X0139729Y0001185D01*
X0139771Y0001137D01*
X0139809Y0001088D01*
X0139844Y0001036D01*
X0139876Y0000982D01*
X0139905Y0000926D01*
X0139930Y0000868D01*
X0139951Y0000809D01*
X0139969Y0000749D01*
X0139982Y0000687D01*
X0139992Y0000625D01*
X0139998Y0000563D01*
X0140000Y0000500D01*
X0139998Y0000437D01*
X0139992Y0000375D01*
X0139982Y0000313D01*
X0139969Y0000251D01*
X0139951Y0000191D01*
X0139930Y0000132D01*
X0139905Y0000074D01*
X0139876Y0000018D01*
X0139844Y-0000036D01*
X0139809Y-0000088D01*
X0139771Y-0000137D01*
X0139729Y-0000185D01*
X0139685Y-0000229D01*
X0139637Y-0000271D01*
X0139588Y-0000309D01*
X0139536Y-0000344D01*
X0139482Y-0000376D01*
X0139426Y-0000405D01*
X0139368Y-0000430D01*
X0139309Y-0000451D01*
X0139249Y-0000469D01*
X0139187Y-0000482D01*
X0139125Y-0000492D01*
X0139063Y-0000498D01*
X0139000Y-0000500D01*
X0138937Y-0000498D01*
X0138875Y-0000492D01*
X0138813Y-0000482D01*
X0138751Y-0000469D01*
X0138691Y-0000451D01*
X0138632Y-0000430D01*
X0138574Y-0000405D01*
X0138518Y-0000376D01*
X0138464Y-0000344D01*
X0138412Y-0000309D01*
X0138363Y-0000271D01*
X0138315Y-0000229D01*
X0138271Y-0000185D01*
X0138229Y-0000137D01*
X0138191Y-0000088D01*
X0138156Y-0000036D01*
X0138124Y0000018D01*
X0138095Y0000074D01*
X0138070Y0000132D01*
X0138049Y0000191D01*
X0138031Y0000251D01*
X0138018Y0000313D01*
X0138008Y0000375D01*
X0138002Y0000437D01*
X0138000Y0000500D01*
X0139000Y0002000D02*
X0139002Y0002063D01*
X0139008Y0002125D01*
X0139018Y0002187D01*
X0139031Y0002249D01*
X0139049Y0002309D01*
X0139070Y0002368D01*
X0139095Y0002426D01*
X0139124Y0002482D01*
X0139156Y0002536D01*
X0139191Y0002588D01*
X0139229Y0002637D01*
X0139271Y0002685D01*
X0139315Y0002729D01*
X0139363Y0002771D01*
X0139412Y0002809D01*
X0139464Y0002844D01*
X0139518Y0002876D01*
X0139574Y0002905D01*
X0139632Y0002930D01*
X0139691Y0002951D01*
X0139751Y0002969D01*
X0139813Y0002982D01*
X0139875Y0002992D01*
X0139937Y0002998D01*
X0140000Y0003000D01*
X0140063Y0002998D01*
X0140125Y0002992D01*
X0140187Y0002982D01*
X0140249Y0002969D01*
X0140309Y0002951D01*
X0140368Y0002930D01*
X0140426Y0002905D01*
X0140482Y0002876D01*
X0140536Y0002844D01*
X0140588Y0002809D01*
X0140637Y0002771D01*
X0140685Y0002729D01*
X0140729Y0002685D01*
X0140771Y0002637D01*
X0140809Y0002588D01*
X0140844Y0002536D01*
X0140876Y0002482D01*
X0140905Y0002426D01*
X0140930Y0002368D01*
X0140951Y0002309D01*
X0140969Y0002249D01*
X0140982Y0002187D01*
X0140992Y0002125D01*
X0140998Y0002063D01*
X0141000Y0002000D01*
X0140998Y0001937D01*
X0140992Y0001875D01*
X0140982Y0001813D01*
X0140969Y0001751D01*
X0140951Y0001691D01*
X0140930Y0001632D01*
X0140905Y0001574D01*
X0140876Y0001518D01*
X0140844Y0001464D01*
X0140809Y0001412D01*
X0140771Y0001363D01*
X0140729Y0001315D01*
X0140685Y0001271D01*
X0140637Y0001229D01*
X0140588Y0001191D01*
X0140536Y0001156D01*
X0140482Y0001124D01*
X0140426Y0001095D01*
X0140368Y0001070D01*
X0140309Y0001049D01*
X0140249Y0001031D01*
X0140187Y0001018D01*
X0140125Y0001008D01*
X0140063Y0001002D01*
X0140000Y0001000D01*
X0139937Y0001002D01*
X0139875Y0001008D01*
X0139813Y0001018D01*
X0139751Y0001031D01*
X0139691Y0001049D01*
X0139632Y0001070D01*
X0139574Y0001095D01*
X0139518Y0001124D01*
X0139464Y0001156D01*
X0139412Y0001191D01*
X0139363Y0001229D01*
X0139315Y0001271D01*
X0139271Y0001315D01*
X0139229Y0001363D01*
X0139191Y0001412D01*
X0139156Y0001464D01*
X0139124Y0001518D01*
X0139095Y0001574D01*
X0139070Y0001632D01*
X0139049Y0001691D01*
X0139031Y0001751D01*
X0139018Y0001813D01*
X0139008Y0001875D01*
X0139002Y0001937D01*
X0139000Y0002000D01*
X0139000Y0006000D02*
X0139002Y0006063D01*
X0139008Y0006125D01*
X0139018Y0006187D01*
X0139031Y0006249D01*
X0139049Y0006309D01*
X0139070Y0006368D01*
X0139095Y0006426D01*
X0139124Y0006482D01*
X0139156Y0006536D01*
X0139191Y0006588D01*
X0139229Y0006637D01*
X0139271Y0006685D01*
X0139315Y0006729D01*
X0139363Y0006771D01*
X0139412Y0006809D01*
X0139464Y0006844D01*
X0139518Y0006876D01*
X0139574Y0006905D01*
X0139632Y0006930D01*
X0139691Y0006951D01*
X0139751Y0006969D01*
X0139813Y0006982D01*
X0139875Y0006992D01*
X0139937Y0006998D01*
X0140000Y0007000D01*
X0140063Y0006998D01*
X0140125Y0006992D01*
X0140187Y0006982D01*
X0140249Y0006969D01*
X0140309Y0006951D01*
X0140368Y0006930D01*
X0140426Y0006905D01*
X0140482Y0006876D01*
X0140536Y0006844D01*
X0140588Y0006809D01*
X0140637Y0006771D01*
X0140685Y0006729D01*
X0140729Y0006685D01*
X0140771Y0006637D01*
X0140809Y0006588D01*
X0140844Y0006536D01*
X0140876Y0006482D01*
X0140905Y0006426D01*
X0140930Y0006368D01*
X0140951Y0006309D01*
X0140969Y0006249D01*
X0140982Y0006187D01*
X0140992Y0006125D01*
X0140998Y0006063D01*
X0141000Y0006000D01*
X0140998Y0005937D01*
X0140992Y0005875D01*
X0140982Y0005813D01*
X0140969Y0005751D01*
X0140951Y0005691D01*
X0140930Y0005632D01*
X0140905Y0005574D01*
X0140876Y0005518D01*
X0140844Y0005464D01*
X0140809Y0005412D01*
X0140771Y0005363D01*
X0140729Y0005315D01*
X0140685Y0005271D01*
X0140637Y0005229D01*
X0140588Y0005191D01*
X0140536Y0005156D01*
X0140482Y0005124D01*
X0140426Y0005095D01*
X0140368Y0005070D01*
X0140309Y0005049D01*
X0140249Y0005031D01*
X0140187Y0005018D01*
X0140125Y0005008D01*
X0140063Y0005002D01*
X0140000Y0005000D01*
X0139937Y0005002D01*
X0139875Y0005008D01*
X0139813Y0005018D01*
X0139751Y0005031D01*
X0139691Y0005049D01*
X0139632Y0005070D01*
X0139574Y0005095D01*
X0139518Y0005124D01*
X0139464Y0005156D01*
X0139412Y0005191D01*
X0139363Y0005229D01*
X0139315Y0005271D01*
X0139271Y0005315D01*
X0139229Y0005363D01*
X0139191Y0005412D01*
X0139156Y0005464D01*
X0139124Y0005518D01*
X0139095Y0005574D01*
X0139070Y0005632D01*
X0139049Y0005691D01*
X0139031Y0005751D01*
X0139018Y0005813D01*
X0139008Y0005875D01*
X0139002Y0005937D01*
X0139000Y0006000D01*
X0139000Y0010000D02*
X0139002Y0010063D01*
X0139008Y0010125D01*
X0139018Y0010187D01*
X0139031Y0010249D01*
X0139049Y0010309D01*
X0139070Y0010368D01*
X0139095Y0010426D01*
X0139124Y0010482D01*
X0139156Y0010536D01*
X0139191Y0010588D01*
X0139229Y0010637D01*
X0139271Y0010685D01*
X0139315Y0010729D01*
X0139363Y0010771D01*
X0139412Y0010809D01*
X0139464Y0010844D01*
X0139518Y0010876D01*
X0139574Y0010905D01*
X0139632Y0010930D01*
X0139691Y0010951D01*
X0139751Y0010969D01*
X0139813Y0010982D01*
X0139875Y0010992D01*
X0139937Y0010998D01*
X0140000Y0011000D01*
X0140063Y0010998D01*
X0140125Y0010992D01*
X0140187Y0010982D01*
X0140249Y0010969D01*
X0140309Y0010951D01*
X0140368Y0010930D01*
X0140426Y0010905D01*
X0140482Y0010876D01*
X0140536Y0010844D01*
X0140588Y0010809D01*
X0140637Y0010771D01*
X0140685Y0010729D01*
X0140729Y0010685D01*
X0140771Y0010637D01*
X0140809Y0010588D01*
X0140844Y0010536D01*
X0140876Y0010482D01*
X0140905Y0010426D01*
X0140930Y0010368D01*
X0140951Y0010309D01*
X0140969Y0010249D01*
X0140982Y0010187D01*
X0140992Y0010125D01*
X0140998Y0010063D01*
X0141000Y0010000D01*
X0140998Y0009937D01*
X0140992Y0009875D01*
X0140982Y0009813D01*
X0140969Y0009751D01*
X0140951Y0009691D01*
X0140930Y0009632D01*
X0140905Y0009574D01*
X0140876Y0009518D01*
X0140844Y0009464D01*
X0140809Y0009412D01*
X0140771Y0009363D01*
X0140729Y0009315D01*
X0140685Y0009271D01*
X0140637Y0009229D01*
X0140588Y0009191D01*
X0140536Y0009156D01*
X0140482Y0009124D01*
X0140426Y0009095D01*
X0140368Y0009070D01*
X0140309Y0009049D01*
X0140249Y0009031D01*
X0140187Y0009018D01*
X0140125Y0009008D01*
X0140063Y0009002D01*
X0140000Y0009000D01*
X0139937Y0009002D01*
X0139875Y0009008D01*
X0139813Y0009018D01*
X0139751Y0009031D01*
X0139691Y0009049D01*
X0139632Y0009070D01*
X0139574Y0009095D01*
X0139518Y0009124D01*
X0139464Y0009156D01*
X0139412Y0009191D01*
X0139363Y0009229D01*
X0139315Y0009271D01*
X0139271Y0009315D01*
X0139229Y0009363D01*
X0139191Y0009412D01*
X0139156Y0009464D01*
X0139124Y0009518D01*
X0139095Y0009574D01*
X0139070Y0009632D01*
X0139049Y0009691D01*
X0139031Y0009751D01*
X0139018Y0009813D01*
X0139008Y0009875D01*
X0139002Y0009937D01*
X0139000Y0010000D01*
X0139000Y0014000D02*
X0139002Y0014063D01*
X0139008Y0014125D01*
X0139018Y0014187D01*
X0139031Y0014249D01*
X0139049Y0014309D01*
X0139070Y0014368D01*
X0139095Y0014426D01*
X0139124Y0014482D01*
X0139156Y0014536D01*
X0139191Y0014588D01*
X0139229Y0014637D01*
X0139271Y0014685D01*
X0139315Y0014729D01*
X0139363Y0014771D01*
X0139412Y0014809D01*
X0139464Y0014844D01*
X0139518Y0014876D01*
X0139574Y0014905D01*
X0139632Y0014930D01*
X0139691Y0014951D01*
X0139751Y0014969D01*
X0139813Y0014982D01*
X0139875Y0014992D01*
X0139937Y0014998D01*
X0140000Y0015000D01*
X0140063Y0014998D01*
X0140125Y0014992D01*
X0140187Y0014982D01*
X0140249Y0014969D01*
X0140309Y0014951D01*
X0140368Y0014930D01*
X0140426Y0014905D01*
X0140482Y0014876D01*
X0140536Y0014844D01*
X0140588Y0014809D01*
X0140637Y0014771D01*
X0140685Y0014729D01*
X0140729Y0014685D01*
X0140771Y0014637D01*
X0140809Y0014588D01*
X0140844Y0014536D01*
X0140876Y0014482D01*
X0140905Y0014426D01*
X0140930Y0014368D01*
X0140951Y0014309D01*
X0140969Y0014249D01*
X0140982Y0014187D01*
X0140992Y0014125D01*
X0140998Y0014063D01*
X0141000Y0014000D01*
X0140998Y0013937D01*
X0140992Y0013875D01*
X0140982Y0013813D01*
X0140969Y0013751D01*
X0140951Y0013691D01*
X0140930Y0013632D01*
X0140905Y0013574D01*
X0140876Y0013518D01*
X0140844Y0013464D01*
X0140809Y0013412D01*
X0140771Y0013363D01*
X0140729Y0013315D01*
X0140685Y0013271D01*
X0140637Y0013229D01*
X0140588Y0013191D01*
X0140536Y0013156D01*
X0140482Y0013124D01*
X0140426Y0013095D01*
X0140368Y0013070D01*
X0140309Y0013049D01*
X0140249Y0013031D01*
X0140187Y0013018D01*
X0140125Y0013008D01*
X0140063Y0013002D01*
X0140000Y0013000D01*
X0139937Y0013002D01*
X0139875Y0013008D01*
X0139813Y0013018D01*
X0139751Y0013031D01*
X0139691Y0013049D01*
X0139632Y0013070D01*
X0139574Y0013095D01*
X0139518Y0013124D01*
X0139464Y0013156D01*
X0139412Y0013191D01*
X0139363Y0013229D01*
X0139315Y0013271D01*
X0139271Y0013315D01*
X0139229Y0013363D01*
X0139191Y0013412D01*
X0139156Y0013464D01*
X0139124Y0013518D01*
X0139095Y0013574D01*
X0139070Y0013632D01*
X0139049Y0013691D01*
X0139031Y0013751D01*
X0139018Y0013813D01*
X0139008Y0013875D01*
X0139002Y0013937D01*
X0139000Y0014000D01*
X0139000Y0018000D02*
X0139002Y0018063D01*
X0139008Y0018125D01*
X0139018Y0018187D01*
X0139031Y0018249D01*
X0139049Y0018309D01*
X0139070Y0018368D01*
X0139095Y0018426D01*
X0139124Y0018482D01*
X0139156Y0018536D01*
X0139191Y0018588D01*
X0139229Y0018637D01*
X0139271Y0018685D01*
X0139315Y0018729D01*
X0139363Y0018771D01*
X0139412Y0018809D01*
X0139464Y0018844D01*
X0139518Y0018876D01*
X0139574Y0018905D01*
X0139632Y0018930D01*
X0139691Y0018951D01*
X0139751Y0018969D01*
X0139813Y0018982D01*
X0139875Y0018992D01*
X0139937Y0018998D01*
X0140000Y0019000D01*
X0140063Y0018998D01*
X0140125Y0018992D01*
X0140187Y0018982D01*
X0140249Y0018969D01*
X0140309Y0018951D01*
X0140368Y0018930D01*
X0140426Y0018905D01*
X0140482Y0018876D01*
X0140536Y0018844D01*
X0140588Y0018809D01*
X0140637Y0018771D01*
X0140685Y0018729D01*
X0140729Y0018685D01*
X0140771Y0018637D01*
X0140809Y0018588D01*
X0140844Y0018536D01*
X0140876Y0018482D01*
X0140905Y0018426D01*
X0140930Y0018368D01*
X0140951Y0018309D01*
X0140969Y0018249D01*
X0140982Y0018187D01*
X0140992Y0018125D01*
X0140998Y0018063D01*
X0141000Y0018000D01*
X0140998Y0017937D01*
X0140992Y0017875D01*
X0140982Y0017813D01*
X0140969Y0017751D01*
X0140951Y0017691D01*
X0140930Y0017632D01*
X0140905Y0017574D01*
X0140876Y0017518D01*
X0140844Y0017464D01*
X0140809Y0017412D01*
X0140771Y0017363D01*
X0140729Y0017315D01*
X0140685Y0017271D01*
X0140637Y0017229D01*
X0140588Y0017191D01*
X0140536Y0017156D01*
X0140482Y0017124D01*
X0140426Y0017095D01*
X0140368Y0017070D01*
X0140309Y0017049D01*
X0140249Y0017031D01*
X0140187Y0017018D01*
X0140125Y0017008D01*
X0140063Y0017002D01*
X0140000Y0017000D01*
X0139937Y0017002D01*
X0139875Y0017008D01*
X0139813Y0017018D01*
X0139751Y0017031D01*
X0139691Y0017049D01*
X0139632Y0017070D01*
X0139574Y0017095D01*
X0139518Y0017124D01*
X0139464Y0017156D01*
X0139412Y0017191D01*
X0139363Y0017229D01*
X0139315Y0017271D01*
X0139271Y0017315D01*
X0139229Y0017363D01*
X0139191Y0017412D01*
X0139156Y0017464D01*
X0139124Y0017518D01*
X0139095Y0017574D01*
X0139070Y0017632D01*
X0139049Y0017691D01*
X0139031Y0017751D01*
X0139018Y0017813D01*
X0139008Y0017875D01*
X0139002Y0017937D01*
X0139000Y0018000D01*
X0139000Y0022000D02*
X0139002Y0022063D01*
X0139008Y0022125D01*
X0139018Y0022187D01*
X0139031Y0022249D01*
X0139049Y0022309D01*
X0139070Y0022368D01*
X0139095Y0022426D01*
X0139124Y0022482D01*
X0139156Y0022536D01*
X0139191Y0022588D01*
X0139229Y0022637D01*
X0139271Y0022685D01*
X0139315Y0022729D01*
X0139363Y0022771D01*
X0139412Y0022809D01*
X0139464Y0022844D01*
X0139518Y0022876D01*
X0139574Y0022905D01*
X0139632Y0022930D01*
X0139691Y0022951D01*
X0139751Y0022969D01*
X0139813Y0022982D01*
X0139875Y0022992D01*
X0139937Y0022998D01*
X0140000Y0023000D01*
X0140063Y0022998D01*
X0140125Y0022992D01*
X0140187Y0022982D01*
X0140249Y0022969D01*
X0140309Y0022951D01*
X0140368Y0022930D01*
X0140426Y0022905D01*
X0140482Y0022876D01*
X0140536Y0022844D01*
X0140588Y0022809D01*
X0140637Y0022771D01*
X0140685Y0022729D01*
X0140729Y0022685D01*
X0140771Y0022637D01*
X0140809Y0022588D01*
X0140844Y0022536D01*
X0140876Y0022482D01*
X0140905Y0022426D01*
X0140930Y0022368D01*
X0140951Y0022309D01*
X0140969Y0022249D01*
X0140982Y0022187D01*
X0140992Y0022125D01*
X0140998Y0022063D01*
X0141000Y0022000D01*
X0140998Y0021937D01*
X0140992Y0021875D01*
X0140982Y0021813D01*
X0140969Y0021751D01*
X0140951Y0021691D01*
X0140930Y0021632D01*
X0140905Y0021574D01*
X0140876Y0021518D01*
X0140844Y0021464D01*
X0140809Y0021412D01*
X0140771Y0021363D01*
X0140729Y0021315D01*
X0140685Y0021271D01*
X0140637Y0021229D01*
X0140588Y0021191D01*
X0140536Y0021156D01*
X0140482Y0021124D01*
X0140426Y0021095D01*
X0140368Y0021070D01*
X0140309Y0021049D01*
X0140249Y0021031D01*
X0140187Y0021018D01*
X0140125Y0021008D01*
X0140063Y0021002D01*
X0140000Y0021000D01*
X0139937Y0021002D01*
X0139875Y0021008D01*
X0139813Y0021018D01*
X0139751Y0021031D01*
X0139691Y0021049D01*
X0139632Y0021070D01*
X0139574Y0021095D01*
X0139518Y0021124D01*
X0139464Y0021156D01*
X0139412Y0021191D01*
X0139363Y0021229D01*
X0139315Y0021271D01*
X0139271Y0021315D01*
X0139229Y0021363D01*
X0139191Y0021412D01*
X0139156Y0021464D01*
X0139124Y0021518D01*
X0139095Y0021574D01*
X0139070Y0021632D01*
X0139049Y0021691D01*
X0139031Y0021751D01*
X0139018Y0021813D01*
X0139008Y0021875D01*
X0139002Y0021937D01*
X0139000Y0022000D01*
X0139000Y0026000D02*
X0139002Y0026063D01*
X0139008Y0026125D01*
X0139018Y0026187D01*
X0139031Y0026249D01*
X0139049Y0026309D01*
X0139070Y0026368D01*
X0139095Y0026426D01*
X0139124Y0026482D01*
X0139156Y0026536D01*
X0139191Y0026588D01*
X0139229Y0026637D01*
X0139271Y0026685D01*
X0139315Y0026729D01*
X0139363Y0026771D01*
X0139412Y0026809D01*
X0139464Y0026844D01*
X0139518Y0026876D01*
X0139574Y0026905D01*
X0139632Y0026930D01*
X0139691Y0026951D01*
X0139751Y0026969D01*
X0139813Y0026982D01*
X0139875Y0026992D01*
X0139937Y0026998D01*
X0140000Y0027000D01*
X0140063Y0026998D01*
X0140125Y0026992D01*
X0140187Y0026982D01*
X0140249Y0026969D01*
X0140309Y0026951D01*
X0140368Y0026930D01*
X0140426Y0026905D01*
X0140482Y0026876D01*
X0140536Y0026844D01*
X0140588Y0026809D01*
X0140637Y0026771D01*
X0140685Y0026729D01*
X0140729Y0026685D01*
X0140771Y0026637D01*
X0140809Y0026588D01*
X0140844Y0026536D01*
X0140876Y0026482D01*
X0140905Y0026426D01*
X0140930Y0026368D01*
X0140951Y0026309D01*
X0140969Y0026249D01*
X0140982Y0026187D01*
X0140992Y0026125D01*
X0140998Y0026063D01*
X0141000Y0026000D01*
X0140998Y0025937D01*
X0140992Y0025875D01*
X0140982Y0025813D01*
X0140969Y0025751D01*
X0140951Y0025691D01*
X0140930Y0025632D01*
X0140905Y0025574D01*
X0140876Y0025518D01*
X0140844Y0025464D01*
X0140809Y0025412D01*
X0140771Y0025363D01*
X0140729Y0025315D01*
X0140685Y0025271D01*
X0140637Y0025229D01*
X0140588Y0025191D01*
X0140536Y0025156D01*
X0140482Y0025124D01*
X0140426Y0025095D01*
X0140368Y0025070D01*
X0140309Y0025049D01*
X0140249Y0025031D01*
X0140187Y0025018D01*
X0140125Y0025008D01*
X0140063Y0025002D01*
X0140000Y0025000D01*
X0139937Y0025002D01*
X0139875Y0025008D01*
X0139813Y0025018D01*
X0139751Y0025031D01*
X0139691Y0025049D01*
X0139632Y0025070D01*
X0139574Y0025095D01*
X0139518Y0025124D01*
X0139464Y0025156D01*
X0139412Y0025191D01*
X0139363Y0025229D01*
X0139315Y0025271D01*
X0139271Y0025315D01*
X0139229Y0025363D01*
X0139191Y0025412D01*
X0139156Y0025464D01*
X0139124Y0025518D01*
X0139095Y0025574D01*
X0139070Y0025632D01*
X0139049Y0025691D01*
X0139031Y0025751D01*
X0139018Y0025813D01*
X0139008Y0025875D01*
X0139002Y0025937D01*
X0139000Y0026000D01*
X0148229Y0013780D02*
X0148231Y0013938D01*
X0148237Y0014096D01*
X0148247Y0014254D01*
X0148261Y0014412D01*
X0148279Y0014569D01*
X0148300Y0014726D01*
X0148326Y0014882D01*
X0148356Y0015038D01*
X0148389Y0015193D01*
X0148427Y0015346D01*
X0148468Y0015499D01*
X0148513Y0015651D01*
X0148562Y0015802D01*
X0148615Y0015951D01*
X0148671Y0016099D01*
X0148731Y0016245D01*
X0148795Y0016390D01*
X0148863Y0016533D01*
X0148934Y0016675D01*
X0149008Y0016815D01*
X0149086Y0016952D01*
X0149168Y0017088D01*
X0149252Y0017222D01*
X0149341Y0017353D01*
X0149432Y0017482D01*
X0149527Y0017609D01*
X0149624Y0017734D01*
X0149725Y0017856D01*
X0149829Y0017975D01*
X0149936Y0018092D01*
X0150046Y0018206D01*
X0150159Y0018317D01*
X0150274Y0018426D01*
X0150392Y0018531D01*
X0150513Y0018633D01*
X0150636Y0018733D01*
X0150762Y0018829D01*
X0150890Y0018922D01*
X0151020Y0019012D01*
X0151153Y0019098D01*
X0151288Y0019182D01*
X0151424Y0019261D01*
X0151563Y0019338D01*
X0151704Y0019410D01*
X0151846Y0019480D01*
X0151990Y0019545D01*
X0152136Y0019607D01*
X0152283Y0019665D01*
X0152432Y0019720D01*
X0152582Y0019771D01*
X0152733Y0019818D01*
X0152885Y0019861D01*
X0153038Y0019900D01*
X0153193Y0019936D01*
X0153348Y0019967D01*
X0153504Y0019995D01*
X0153660Y0020019D01*
X0153817Y0020039D01*
X0153975Y0020055D01*
X0154132Y0020067D01*
X0154291Y0020075D01*
X0154449Y0020079D01*
X0154607Y0020079D01*
X0154765Y0020075D01*
X0154924Y0020067D01*
X0155081Y0020055D01*
X0155239Y0020039D01*
X0155396Y0020019D01*
X0155552Y0019995D01*
X0155708Y0019967D01*
X0155863Y0019936D01*
X0156018Y0019900D01*
X0156171Y0019861D01*
X0156323Y0019818D01*
X0156474Y0019771D01*
X0156624Y0019720D01*
X0156773Y0019665D01*
X0156920Y0019607D01*
X0157066Y0019545D01*
X0157210Y0019480D01*
X0157352Y0019410D01*
X0157493Y0019338D01*
X0157632Y0019261D01*
X0157768Y0019182D01*
X0157903Y0019098D01*
X0158036Y0019012D01*
X0158166Y0018922D01*
X0158294Y0018829D01*
X0158420Y0018733D01*
X0158543Y0018633D01*
X0158664Y0018531D01*
X0158782Y0018426D01*
X0158897Y0018317D01*
X0159010Y0018206D01*
X0159120Y0018092D01*
X0159227Y0017975D01*
X0159331Y0017856D01*
X0159432Y0017734D01*
X0159529Y0017609D01*
X0159624Y0017482D01*
X0159715Y0017353D01*
X0159804Y0017222D01*
X0159888Y0017088D01*
X0159970Y0016952D01*
X0160048Y0016815D01*
X0160122Y0016675D01*
X0160193Y0016533D01*
X0160261Y0016390D01*
X0160325Y0016245D01*
X0160385Y0016099D01*
X0160441Y0015951D01*
X0160494Y0015802D01*
X0160543Y0015651D01*
X0160588Y0015499D01*
X0160629Y0015346D01*
X0160667Y0015193D01*
X0160700Y0015038D01*
X0160730Y0014882D01*
X0160756Y0014726D01*
X0160777Y0014569D01*
X0160795Y0014412D01*
X0160809Y0014254D01*
X0160819Y0014096D01*
X0160825Y0013938D01*
X0160827Y0013780D01*
X0160825Y0013622D01*
X0160819Y0013464D01*
X0160809Y0013306D01*
X0160795Y0013148D01*
X0160777Y0012991D01*
X0160756Y0012834D01*
X0160730Y0012678D01*
X0160700Y0012522D01*
X0160667Y0012367D01*
X0160629Y0012214D01*
X0160588Y0012061D01*
X0160543Y0011909D01*
X0160494Y0011758D01*
X0160441Y0011609D01*
X0160385Y0011461D01*
X0160325Y0011315D01*
X0160261Y0011170D01*
X0160193Y0011027D01*
X0160122Y0010885D01*
X0160048Y0010745D01*
X0159970Y0010608D01*
X0159888Y0010472D01*
X0159804Y0010338D01*
X0159715Y0010207D01*
X0159624Y0010078D01*
X0159529Y0009951D01*
X0159432Y0009826D01*
X0159331Y0009704D01*
X0159227Y0009585D01*
X0159120Y0009468D01*
X0159010Y0009354D01*
X0158897Y0009243D01*
X0158782Y0009134D01*
X0158664Y0009029D01*
X0158543Y0008927D01*
X0158420Y0008827D01*
X0158294Y0008731D01*
X0158166Y0008638D01*
X0158036Y0008548D01*
X0157903Y0008462D01*
X0157768Y0008378D01*
X0157632Y0008299D01*
X0157493Y0008222D01*
X0157352Y0008150D01*
X0157210Y0008080D01*
X0157066Y0008015D01*
X0156920Y0007953D01*
X0156773Y0007895D01*
X0156624Y0007840D01*
X0156474Y0007789D01*
X0156323Y0007742D01*
X0156171Y0007699D01*
X0156018Y0007660D01*
X0155863Y0007624D01*
X0155708Y0007593D01*
X0155552Y0007565D01*
X0155396Y0007541D01*
X0155239Y0007521D01*
X0155081Y0007505D01*
X0154924Y0007493D01*
X0154765Y0007485D01*
X0154607Y0007481D01*
X0154449Y0007481D01*
X0154291Y0007485D01*
X0154132Y0007493D01*
X0153975Y0007505D01*
X0153817Y0007521D01*
X0153660Y0007541D01*
X0153504Y0007565D01*
X0153348Y0007593D01*
X0153193Y0007624D01*
X0153038Y0007660D01*
X0152885Y0007699D01*
X0152733Y0007742D01*
X0152582Y0007789D01*
X0152432Y0007840D01*
X0152283Y0007895D01*
X0152136Y0007953D01*
X0151990Y0008015D01*
X0151846Y0008080D01*
X0151704Y0008150D01*
X0151563Y0008222D01*
X0151424Y0008299D01*
X0151288Y0008378D01*
X0151153Y0008462D01*
X0151020Y0008548D01*
X0150890Y0008638D01*
X0150762Y0008731D01*
X0150636Y0008827D01*
X0150513Y0008927D01*
X0150392Y0009029D01*
X0150274Y0009134D01*
X0150159Y0009243D01*
X0150046Y0009354D01*
X0149936Y0009468D01*
X0149829Y0009585D01*
X0149725Y0009704D01*
X0149624Y0009826D01*
X0149527Y0009951D01*
X0149432Y0010078D01*
X0149341Y0010207D01*
X0149252Y0010338D01*
X0149168Y0010472D01*
X0149086Y0010608D01*
X0149008Y0010745D01*
X0148934Y0010885D01*
X0148863Y0011027D01*
X0148795Y0011170D01*
X0148731Y0011315D01*
X0148671Y0011461D01*
X0148615Y0011609D01*
X0148562Y0011758D01*
X0148513Y0011909D01*
X0148468Y0012061D01*
X0148427Y0012214D01*
X0148389Y0012367D01*
X0148356Y0012522D01*
X0148326Y0012678D01*
X0148300Y0012834D01*
X0148279Y0012991D01*
X0148261Y0013148D01*
X0148247Y0013306D01*
X0148237Y0013464D01*
X0148231Y0013622D01*
X0148229Y0013780D01*
X0120670Y-0013780D02*
X0120672Y-0013622D01*
X0120678Y-0013464D01*
X0120688Y-0013306D01*
X0120702Y-0013148D01*
X0120720Y-0012991D01*
X0120741Y-0012834D01*
X0120767Y-0012678D01*
X0120797Y-0012522D01*
X0120830Y-0012367D01*
X0120868Y-0012214D01*
X0120909Y-0012061D01*
X0120954Y-0011909D01*
X0121003Y-0011758D01*
X0121056Y-0011609D01*
X0121112Y-0011461D01*
X0121172Y-0011315D01*
X0121236Y-0011170D01*
X0121304Y-0011027D01*
X0121375Y-0010885D01*
X0121449Y-0010745D01*
X0121527Y-0010608D01*
X0121609Y-0010472D01*
X0121693Y-0010338D01*
X0121782Y-0010207D01*
X0121873Y-0010078D01*
X0121968Y-0009951D01*
X0122065Y-0009826D01*
X0122166Y-0009704D01*
X0122270Y-0009585D01*
X0122377Y-0009468D01*
X0122487Y-0009354D01*
X0122600Y-0009243D01*
X0122715Y-0009134D01*
X0122833Y-0009029D01*
X0122954Y-0008927D01*
X0123077Y-0008827D01*
X0123203Y-0008731D01*
X0123331Y-0008638D01*
X0123461Y-0008548D01*
X0123594Y-0008462D01*
X0123729Y-0008378D01*
X0123865Y-0008299D01*
X0124004Y-0008222D01*
X0124145Y-0008150D01*
X0124287Y-0008080D01*
X0124431Y-0008015D01*
X0124577Y-0007953D01*
X0124724Y-0007895D01*
X0124873Y-0007840D01*
X0125023Y-0007789D01*
X0125174Y-0007742D01*
X0125326Y-0007699D01*
X0125479Y-0007660D01*
X0125634Y-0007624D01*
X0125789Y-0007593D01*
X0125945Y-0007565D01*
X0126101Y-0007541D01*
X0126258Y-0007521D01*
X0126416Y-0007505D01*
X0126573Y-0007493D01*
X0126732Y-0007485D01*
X0126890Y-0007481D01*
X0127048Y-0007481D01*
X0127206Y-0007485D01*
X0127365Y-0007493D01*
X0127522Y-0007505D01*
X0127680Y-0007521D01*
X0127837Y-0007541D01*
X0127993Y-0007565D01*
X0128149Y-0007593D01*
X0128304Y-0007624D01*
X0128459Y-0007660D01*
X0128612Y-0007699D01*
X0128764Y-0007742D01*
X0128915Y-0007789D01*
X0129065Y-0007840D01*
X0129214Y-0007895D01*
X0129361Y-0007953D01*
X0129507Y-0008015D01*
X0129651Y-0008080D01*
X0129793Y-0008150D01*
X0129934Y-0008222D01*
X0130073Y-0008299D01*
X0130209Y-0008378D01*
X0130344Y-0008462D01*
X0130477Y-0008548D01*
X0130607Y-0008638D01*
X0130735Y-0008731D01*
X0130861Y-0008827D01*
X0130984Y-0008927D01*
X0131105Y-0009029D01*
X0131223Y-0009134D01*
X0131338Y-0009243D01*
X0131451Y-0009354D01*
X0131561Y-0009468D01*
X0131668Y-0009585D01*
X0131772Y-0009704D01*
X0131873Y-0009826D01*
X0131970Y-0009951D01*
X0132065Y-0010078D01*
X0132156Y-0010207D01*
X0132245Y-0010338D01*
X0132329Y-0010472D01*
X0132411Y-0010608D01*
X0132489Y-0010745D01*
X0132563Y-0010885D01*
X0132634Y-0011027D01*
X0132702Y-0011170D01*
X0132766Y-0011315D01*
X0132826Y-0011461D01*
X0132882Y-0011609D01*
X0132935Y-0011758D01*
X0132984Y-0011909D01*
X0133029Y-0012061D01*
X0133070Y-0012214D01*
X0133108Y-0012367D01*
X0133141Y-0012522D01*
X0133171Y-0012678D01*
X0133197Y-0012834D01*
X0133218Y-0012991D01*
X0133236Y-0013148D01*
X0133250Y-0013306D01*
X0133260Y-0013464D01*
X0133266Y-0013622D01*
X0133268Y-0013780D01*
X0133266Y-0013938D01*
X0133260Y-0014096D01*
X0133250Y-0014254D01*
X0133236Y-0014412D01*
X0133218Y-0014569D01*
X0133197Y-0014726D01*
X0133171Y-0014882D01*
X0133141Y-0015038D01*
X0133108Y-0015193D01*
X0133070Y-0015346D01*
X0133029Y-0015499D01*
X0132984Y-0015651D01*
X0132935Y-0015802D01*
X0132882Y-0015951D01*
X0132826Y-0016099D01*
X0132766Y-0016245D01*
X0132702Y-0016390D01*
X0132634Y-0016533D01*
X0132563Y-0016675D01*
X0132489Y-0016815D01*
X0132411Y-0016952D01*
X0132329Y-0017088D01*
X0132245Y-0017222D01*
X0132156Y-0017353D01*
X0132065Y-0017482D01*
X0131970Y-0017609D01*
X0131873Y-0017734D01*
X0131772Y-0017856D01*
X0131668Y-0017975D01*
X0131561Y-0018092D01*
X0131451Y-0018206D01*
X0131338Y-0018317D01*
X0131223Y-0018426D01*
X0131105Y-0018531D01*
X0130984Y-0018633D01*
X0130861Y-0018733D01*
X0130735Y-0018829D01*
X0130607Y-0018922D01*
X0130477Y-0019012D01*
X0130344Y-0019098D01*
X0130209Y-0019182D01*
X0130073Y-0019261D01*
X0129934Y-0019338D01*
X0129793Y-0019410D01*
X0129651Y-0019480D01*
X0129507Y-0019545D01*
X0129361Y-0019607D01*
X0129214Y-0019665D01*
X0129065Y-0019720D01*
X0128915Y-0019771D01*
X0128764Y-0019818D01*
X0128612Y-0019861D01*
X0128459Y-0019900D01*
X0128304Y-0019936D01*
X0128149Y-0019967D01*
X0127993Y-0019995D01*
X0127837Y-0020019D01*
X0127680Y-0020039D01*
X0127522Y-0020055D01*
X0127365Y-0020067D01*
X0127206Y-0020075D01*
X0127048Y-0020079D01*
X0126890Y-0020079D01*
X0126732Y-0020075D01*
X0126573Y-0020067D01*
X0126416Y-0020055D01*
X0126258Y-0020039D01*
X0126101Y-0020019D01*
X0125945Y-0019995D01*
X0125789Y-0019967D01*
X0125634Y-0019936D01*
X0125479Y-0019900D01*
X0125326Y-0019861D01*
X0125174Y-0019818D01*
X0125023Y-0019771D01*
X0124873Y-0019720D01*
X0124724Y-0019665D01*
X0124577Y-0019607D01*
X0124431Y-0019545D01*
X0124287Y-0019480D01*
X0124145Y-0019410D01*
X0124004Y-0019338D01*
X0123865Y-0019261D01*
X0123729Y-0019182D01*
X0123594Y-0019098D01*
X0123461Y-0019012D01*
X0123331Y-0018922D01*
X0123203Y-0018829D01*
X0123077Y-0018733D01*
X0122954Y-0018633D01*
X0122833Y-0018531D01*
X0122715Y-0018426D01*
X0122600Y-0018317D01*
X0122487Y-0018206D01*
X0122377Y-0018092D01*
X0122270Y-0017975D01*
X0122166Y-0017856D01*
X0122065Y-0017734D01*
X0121968Y-0017609D01*
X0121873Y-0017482D01*
X0121782Y-0017353D01*
X0121693Y-0017222D01*
X0121609Y-0017088D01*
X0121527Y-0016952D01*
X0121449Y-0016815D01*
X0121375Y-0016675D01*
X0121304Y-0016533D01*
X0121236Y-0016390D01*
X0121172Y-0016245D01*
X0121112Y-0016099D01*
X0121056Y-0015951D01*
X0121003Y-0015802D01*
X0120954Y-0015651D01*
X0120909Y-0015499D01*
X0120868Y-0015346D01*
X0120830Y-0015193D01*
X0120797Y-0015038D01*
X0120767Y-0014882D01*
X0120741Y-0014726D01*
X0120720Y-0014569D01*
X0120702Y-0014412D01*
X0120688Y-0014254D01*
X0120678Y-0014096D01*
X0120672Y-0013938D01*
X0120670Y-0013780D01*
X0139000Y0123500D02*
X0139002Y0123563D01*
X0139008Y0123625D01*
X0139018Y0123687D01*
X0139031Y0123749D01*
X0139049Y0123809D01*
X0139070Y0123868D01*
X0139095Y0123926D01*
X0139124Y0123982D01*
X0139156Y0124036D01*
X0139191Y0124088D01*
X0139229Y0124137D01*
X0139271Y0124185D01*
X0139315Y0124229D01*
X0139363Y0124271D01*
X0139412Y0124309D01*
X0139464Y0124344D01*
X0139518Y0124376D01*
X0139574Y0124405D01*
X0139632Y0124430D01*
X0139691Y0124451D01*
X0139751Y0124469D01*
X0139813Y0124482D01*
X0139875Y0124492D01*
X0139937Y0124498D01*
X0140000Y0124500D01*
X0140063Y0124498D01*
X0140125Y0124492D01*
X0140187Y0124482D01*
X0140249Y0124469D01*
X0140309Y0124451D01*
X0140368Y0124430D01*
X0140426Y0124405D01*
X0140482Y0124376D01*
X0140536Y0124344D01*
X0140588Y0124309D01*
X0140637Y0124271D01*
X0140685Y0124229D01*
X0140729Y0124185D01*
X0140771Y0124137D01*
X0140809Y0124088D01*
X0140844Y0124036D01*
X0140876Y0123982D01*
X0140905Y0123926D01*
X0140930Y0123868D01*
X0140951Y0123809D01*
X0140969Y0123749D01*
X0140982Y0123687D01*
X0140992Y0123625D01*
X0140998Y0123563D01*
X0141000Y0123500D01*
X0140998Y0123437D01*
X0140992Y0123375D01*
X0140982Y0123313D01*
X0140969Y0123251D01*
X0140951Y0123191D01*
X0140930Y0123132D01*
X0140905Y0123074D01*
X0140876Y0123018D01*
X0140844Y0122964D01*
X0140809Y0122912D01*
X0140771Y0122863D01*
X0140729Y0122815D01*
X0140685Y0122771D01*
X0140637Y0122729D01*
X0140588Y0122691D01*
X0140536Y0122656D01*
X0140482Y0122624D01*
X0140426Y0122595D01*
X0140368Y0122570D01*
X0140309Y0122549D01*
X0140249Y0122531D01*
X0140187Y0122518D01*
X0140125Y0122508D01*
X0140063Y0122502D01*
X0140000Y0122500D01*
X0139937Y0122502D01*
X0139875Y0122508D01*
X0139813Y0122518D01*
X0139751Y0122531D01*
X0139691Y0122549D01*
X0139632Y0122570D01*
X0139574Y0122595D01*
X0139518Y0122624D01*
X0139464Y0122656D01*
X0139412Y0122691D01*
X0139363Y0122729D01*
X0139315Y0122771D01*
X0139271Y0122815D01*
X0139229Y0122863D01*
X0139191Y0122912D01*
X0139156Y0122964D01*
X0139124Y0123018D01*
X0139095Y0123074D01*
X0139070Y0123132D01*
X0139049Y0123191D01*
X0139031Y0123251D01*
X0139018Y0123313D01*
X0139008Y0123375D01*
X0139002Y0123437D01*
X0139000Y0123500D01*
X0139000Y0127500D02*
X0139002Y0127563D01*
X0139008Y0127625D01*
X0139018Y0127687D01*
X0139031Y0127749D01*
X0139049Y0127809D01*
X0139070Y0127868D01*
X0139095Y0127926D01*
X0139124Y0127982D01*
X0139156Y0128036D01*
X0139191Y0128088D01*
X0139229Y0128137D01*
X0139271Y0128185D01*
X0139315Y0128229D01*
X0139363Y0128271D01*
X0139412Y0128309D01*
X0139464Y0128344D01*
X0139518Y0128376D01*
X0139574Y0128405D01*
X0139632Y0128430D01*
X0139691Y0128451D01*
X0139751Y0128469D01*
X0139813Y0128482D01*
X0139875Y0128492D01*
X0139937Y0128498D01*
X0140000Y0128500D01*
X0140063Y0128498D01*
X0140125Y0128492D01*
X0140187Y0128482D01*
X0140249Y0128469D01*
X0140309Y0128451D01*
X0140368Y0128430D01*
X0140426Y0128405D01*
X0140482Y0128376D01*
X0140536Y0128344D01*
X0140588Y0128309D01*
X0140637Y0128271D01*
X0140685Y0128229D01*
X0140729Y0128185D01*
X0140771Y0128137D01*
X0140809Y0128088D01*
X0140844Y0128036D01*
X0140876Y0127982D01*
X0140905Y0127926D01*
X0140930Y0127868D01*
X0140951Y0127809D01*
X0140969Y0127749D01*
X0140982Y0127687D01*
X0140992Y0127625D01*
X0140998Y0127563D01*
X0141000Y0127500D01*
X0140998Y0127437D01*
X0140992Y0127375D01*
X0140982Y0127313D01*
X0140969Y0127251D01*
X0140951Y0127191D01*
X0140930Y0127132D01*
X0140905Y0127074D01*
X0140876Y0127018D01*
X0140844Y0126964D01*
X0140809Y0126912D01*
X0140771Y0126863D01*
X0140729Y0126815D01*
X0140685Y0126771D01*
X0140637Y0126729D01*
X0140588Y0126691D01*
X0140536Y0126656D01*
X0140482Y0126624D01*
X0140426Y0126595D01*
X0140368Y0126570D01*
X0140309Y0126549D01*
X0140249Y0126531D01*
X0140187Y0126518D01*
X0140125Y0126508D01*
X0140063Y0126502D01*
X0140000Y0126500D01*
X0139937Y0126502D01*
X0139875Y0126508D01*
X0139813Y0126518D01*
X0139751Y0126531D01*
X0139691Y0126549D01*
X0139632Y0126570D01*
X0139574Y0126595D01*
X0139518Y0126624D01*
X0139464Y0126656D01*
X0139412Y0126691D01*
X0139363Y0126729D01*
X0139315Y0126771D01*
X0139271Y0126815D01*
X0139229Y0126863D01*
X0139191Y0126912D01*
X0139156Y0126964D01*
X0139124Y0127018D01*
X0139095Y0127074D01*
X0139070Y0127132D01*
X0139049Y0127191D01*
X0139031Y0127251D01*
X0139018Y0127313D01*
X0139008Y0127375D01*
X0139002Y0127437D01*
X0139000Y0127500D01*
X0139000Y0131500D02*
X0139002Y0131563D01*
X0139008Y0131625D01*
X0139018Y0131687D01*
X0139031Y0131749D01*
X0139049Y0131809D01*
X0139070Y0131868D01*
X0139095Y0131926D01*
X0139124Y0131982D01*
X0139156Y0132036D01*
X0139191Y0132088D01*
X0139229Y0132137D01*
X0139271Y0132185D01*
X0139315Y0132229D01*
X0139363Y0132271D01*
X0139412Y0132309D01*
X0139464Y0132344D01*
X0139518Y0132376D01*
X0139574Y0132405D01*
X0139632Y0132430D01*
X0139691Y0132451D01*
X0139751Y0132469D01*
X0139813Y0132482D01*
X0139875Y0132492D01*
X0139937Y0132498D01*
X0140000Y0132500D01*
X0140063Y0132498D01*
X0140125Y0132492D01*
X0140187Y0132482D01*
X0140249Y0132469D01*
X0140309Y0132451D01*
X0140368Y0132430D01*
X0140426Y0132405D01*
X0140482Y0132376D01*
X0140536Y0132344D01*
X0140588Y0132309D01*
X0140637Y0132271D01*
X0140685Y0132229D01*
X0140729Y0132185D01*
X0140771Y0132137D01*
X0140809Y0132088D01*
X0140844Y0132036D01*
X0140876Y0131982D01*
X0140905Y0131926D01*
X0140930Y0131868D01*
X0140951Y0131809D01*
X0140969Y0131749D01*
X0140982Y0131687D01*
X0140992Y0131625D01*
X0140998Y0131563D01*
X0141000Y0131500D01*
X0140998Y0131437D01*
X0140992Y0131375D01*
X0140982Y0131313D01*
X0140969Y0131251D01*
X0140951Y0131191D01*
X0140930Y0131132D01*
X0140905Y0131074D01*
X0140876Y0131018D01*
X0140844Y0130964D01*
X0140809Y0130912D01*
X0140771Y0130863D01*
X0140729Y0130815D01*
X0140685Y0130771D01*
X0140637Y0130729D01*
X0140588Y0130691D01*
X0140536Y0130656D01*
X0140482Y0130624D01*
X0140426Y0130595D01*
X0140368Y0130570D01*
X0140309Y0130549D01*
X0140249Y0130531D01*
X0140187Y0130518D01*
X0140125Y0130508D01*
X0140063Y0130502D01*
X0140000Y0130500D01*
X0139937Y0130502D01*
X0139875Y0130508D01*
X0139813Y0130518D01*
X0139751Y0130531D01*
X0139691Y0130549D01*
X0139632Y0130570D01*
X0139574Y0130595D01*
X0139518Y0130624D01*
X0139464Y0130656D01*
X0139412Y0130691D01*
X0139363Y0130729D01*
X0139315Y0130771D01*
X0139271Y0130815D01*
X0139229Y0130863D01*
X0139191Y0130912D01*
X0139156Y0130964D01*
X0139124Y0131018D01*
X0139095Y0131074D01*
X0139070Y0131132D01*
X0139049Y0131191D01*
X0139031Y0131251D01*
X0139018Y0131313D01*
X0139008Y0131375D01*
X0139002Y0131437D01*
X0139000Y0131500D01*
X0139000Y0135500D02*
X0139002Y0135563D01*
X0139008Y0135625D01*
X0139018Y0135687D01*
X0139031Y0135749D01*
X0139049Y0135809D01*
X0139070Y0135868D01*
X0139095Y0135926D01*
X0139124Y0135982D01*
X0139156Y0136036D01*
X0139191Y0136088D01*
X0139229Y0136137D01*
X0139271Y0136185D01*
X0139315Y0136229D01*
X0139363Y0136271D01*
X0139412Y0136309D01*
X0139464Y0136344D01*
X0139518Y0136376D01*
X0139574Y0136405D01*
X0139632Y0136430D01*
X0139691Y0136451D01*
X0139751Y0136469D01*
X0139813Y0136482D01*
X0139875Y0136492D01*
X0139937Y0136498D01*
X0140000Y0136500D01*
X0140063Y0136498D01*
X0140125Y0136492D01*
X0140187Y0136482D01*
X0140249Y0136469D01*
X0140309Y0136451D01*
X0140368Y0136430D01*
X0140426Y0136405D01*
X0140482Y0136376D01*
X0140536Y0136344D01*
X0140588Y0136309D01*
X0140637Y0136271D01*
X0140685Y0136229D01*
X0140729Y0136185D01*
X0140771Y0136137D01*
X0140809Y0136088D01*
X0140844Y0136036D01*
X0140876Y0135982D01*
X0140905Y0135926D01*
X0140930Y0135868D01*
X0140951Y0135809D01*
X0140969Y0135749D01*
X0140982Y0135687D01*
X0140992Y0135625D01*
X0140998Y0135563D01*
X0141000Y0135500D01*
X0140998Y0135437D01*
X0140992Y0135375D01*
X0140982Y0135313D01*
X0140969Y0135251D01*
X0140951Y0135191D01*
X0140930Y0135132D01*
X0140905Y0135074D01*
X0140876Y0135018D01*
X0140844Y0134964D01*
X0140809Y0134912D01*
X0140771Y0134863D01*
X0140729Y0134815D01*
X0140685Y0134771D01*
X0140637Y0134729D01*
X0140588Y0134691D01*
X0140536Y0134656D01*
X0140482Y0134624D01*
X0140426Y0134595D01*
X0140368Y0134570D01*
X0140309Y0134549D01*
X0140249Y0134531D01*
X0140187Y0134518D01*
X0140125Y0134508D01*
X0140063Y0134502D01*
X0140000Y0134500D01*
X0139937Y0134502D01*
X0139875Y0134508D01*
X0139813Y0134518D01*
X0139751Y0134531D01*
X0139691Y0134549D01*
X0139632Y0134570D01*
X0139574Y0134595D01*
X0139518Y0134624D01*
X0139464Y0134656D01*
X0139412Y0134691D01*
X0139363Y0134729D01*
X0139315Y0134771D01*
X0139271Y0134815D01*
X0139229Y0134863D01*
X0139191Y0134912D01*
X0139156Y0134964D01*
X0139124Y0135018D01*
X0139095Y0135074D01*
X0139070Y0135132D01*
X0139049Y0135191D01*
X0139031Y0135251D01*
X0139018Y0135313D01*
X0139008Y0135375D01*
X0139002Y0135437D01*
X0139000Y0135500D01*
X0139000Y0139500D02*
X0139002Y0139563D01*
X0139008Y0139625D01*
X0139018Y0139687D01*
X0139031Y0139749D01*
X0139049Y0139809D01*
X0139070Y0139868D01*
X0139095Y0139926D01*
X0139124Y0139982D01*
X0139156Y0140036D01*
X0139191Y0140088D01*
X0139229Y0140137D01*
X0139271Y0140185D01*
X0139315Y0140229D01*
X0139363Y0140271D01*
X0139412Y0140309D01*
X0139464Y0140344D01*
X0139518Y0140376D01*
X0139574Y0140405D01*
X0139632Y0140430D01*
X0139691Y0140451D01*
X0139751Y0140469D01*
X0139813Y0140482D01*
X0139875Y0140492D01*
X0139937Y0140498D01*
X0140000Y0140500D01*
X0140063Y0140498D01*
X0140125Y0140492D01*
X0140187Y0140482D01*
X0140249Y0140469D01*
X0140309Y0140451D01*
X0140368Y0140430D01*
X0140426Y0140405D01*
X0140482Y0140376D01*
X0140536Y0140344D01*
X0140588Y0140309D01*
X0140637Y0140271D01*
X0140685Y0140229D01*
X0140729Y0140185D01*
X0140771Y0140137D01*
X0140809Y0140088D01*
X0140844Y0140036D01*
X0140876Y0139982D01*
X0140905Y0139926D01*
X0140930Y0139868D01*
X0140951Y0139809D01*
X0140969Y0139749D01*
X0140982Y0139687D01*
X0140992Y0139625D01*
X0140998Y0139563D01*
X0141000Y0139500D01*
X0140998Y0139437D01*
X0140992Y0139375D01*
X0140982Y0139313D01*
X0140969Y0139251D01*
X0140951Y0139191D01*
X0140930Y0139132D01*
X0140905Y0139074D01*
X0140876Y0139018D01*
X0140844Y0138964D01*
X0140809Y0138912D01*
X0140771Y0138863D01*
X0140729Y0138815D01*
X0140685Y0138771D01*
X0140637Y0138729D01*
X0140588Y0138691D01*
X0140536Y0138656D01*
X0140482Y0138624D01*
X0140426Y0138595D01*
X0140368Y0138570D01*
X0140309Y0138549D01*
X0140249Y0138531D01*
X0140187Y0138518D01*
X0140125Y0138508D01*
X0140063Y0138502D01*
X0140000Y0138500D01*
X0139937Y0138502D01*
X0139875Y0138508D01*
X0139813Y0138518D01*
X0139751Y0138531D01*
X0139691Y0138549D01*
X0139632Y0138570D01*
X0139574Y0138595D01*
X0139518Y0138624D01*
X0139464Y0138656D01*
X0139412Y0138691D01*
X0139363Y0138729D01*
X0139315Y0138771D01*
X0139271Y0138815D01*
X0139229Y0138863D01*
X0139191Y0138912D01*
X0139156Y0138964D01*
X0139124Y0139018D01*
X0139095Y0139074D01*
X0139070Y0139132D01*
X0139049Y0139191D01*
X0139031Y0139251D01*
X0139018Y0139313D01*
X0139008Y0139375D01*
X0139002Y0139437D01*
X0139000Y0139500D01*
X0139000Y0143500D02*
X0139002Y0143563D01*
X0139008Y0143625D01*
X0139018Y0143687D01*
X0139031Y0143749D01*
X0139049Y0143809D01*
X0139070Y0143868D01*
X0139095Y0143926D01*
X0139124Y0143982D01*
X0139156Y0144036D01*
X0139191Y0144088D01*
X0139229Y0144137D01*
X0139271Y0144185D01*
X0139315Y0144229D01*
X0139363Y0144271D01*
X0139412Y0144309D01*
X0139464Y0144344D01*
X0139518Y0144376D01*
X0139574Y0144405D01*
X0139632Y0144430D01*
X0139691Y0144451D01*
X0139751Y0144469D01*
X0139813Y0144482D01*
X0139875Y0144492D01*
X0139937Y0144498D01*
X0140000Y0144500D01*
X0140063Y0144498D01*
X0140125Y0144492D01*
X0140187Y0144482D01*
X0140249Y0144469D01*
X0140309Y0144451D01*
X0140368Y0144430D01*
X0140426Y0144405D01*
X0140482Y0144376D01*
X0140536Y0144344D01*
X0140588Y0144309D01*
X0140637Y0144271D01*
X0140685Y0144229D01*
X0140729Y0144185D01*
X0140771Y0144137D01*
X0140809Y0144088D01*
X0140844Y0144036D01*
X0140876Y0143982D01*
X0140905Y0143926D01*
X0140930Y0143868D01*
X0140951Y0143809D01*
X0140969Y0143749D01*
X0140982Y0143687D01*
X0140992Y0143625D01*
X0140998Y0143563D01*
X0141000Y0143500D01*
X0140998Y0143437D01*
X0140992Y0143375D01*
X0140982Y0143313D01*
X0140969Y0143251D01*
X0140951Y0143191D01*
X0140930Y0143132D01*
X0140905Y0143074D01*
X0140876Y0143018D01*
X0140844Y0142964D01*
X0140809Y0142912D01*
X0140771Y0142863D01*
X0140729Y0142815D01*
X0140685Y0142771D01*
X0140637Y0142729D01*
X0140588Y0142691D01*
X0140536Y0142656D01*
X0140482Y0142624D01*
X0140426Y0142595D01*
X0140368Y0142570D01*
X0140309Y0142549D01*
X0140249Y0142531D01*
X0140187Y0142518D01*
X0140125Y0142508D01*
X0140063Y0142502D01*
X0140000Y0142500D01*
X0139937Y0142502D01*
X0139875Y0142508D01*
X0139813Y0142518D01*
X0139751Y0142531D01*
X0139691Y0142549D01*
X0139632Y0142570D01*
X0139574Y0142595D01*
X0139518Y0142624D01*
X0139464Y0142656D01*
X0139412Y0142691D01*
X0139363Y0142729D01*
X0139315Y0142771D01*
X0139271Y0142815D01*
X0139229Y0142863D01*
X0139191Y0142912D01*
X0139156Y0142964D01*
X0139124Y0143018D01*
X0139095Y0143074D01*
X0139070Y0143132D01*
X0139049Y0143191D01*
X0139031Y0143251D01*
X0139018Y0143313D01*
X0139008Y0143375D01*
X0139002Y0143437D01*
X0139000Y0143500D01*
X0139000Y0147500D02*
X0139002Y0147563D01*
X0139008Y0147625D01*
X0139018Y0147687D01*
X0139031Y0147749D01*
X0139049Y0147809D01*
X0139070Y0147868D01*
X0139095Y0147926D01*
X0139124Y0147982D01*
X0139156Y0148036D01*
X0139191Y0148088D01*
X0139229Y0148137D01*
X0139271Y0148185D01*
X0139315Y0148229D01*
X0139363Y0148271D01*
X0139412Y0148309D01*
X0139464Y0148344D01*
X0139518Y0148376D01*
X0139574Y0148405D01*
X0139632Y0148430D01*
X0139691Y0148451D01*
X0139751Y0148469D01*
X0139813Y0148482D01*
X0139875Y0148492D01*
X0139937Y0148498D01*
X0140000Y0148500D01*
X0140063Y0148498D01*
X0140125Y0148492D01*
X0140187Y0148482D01*
X0140249Y0148469D01*
X0140309Y0148451D01*
X0140368Y0148430D01*
X0140426Y0148405D01*
X0140482Y0148376D01*
X0140536Y0148344D01*
X0140588Y0148309D01*
X0140637Y0148271D01*
X0140685Y0148229D01*
X0140729Y0148185D01*
X0140771Y0148137D01*
X0140809Y0148088D01*
X0140844Y0148036D01*
X0140876Y0147982D01*
X0140905Y0147926D01*
X0140930Y0147868D01*
X0140951Y0147809D01*
X0140969Y0147749D01*
X0140982Y0147687D01*
X0140992Y0147625D01*
X0140998Y0147563D01*
X0141000Y0147500D01*
X0140998Y0147437D01*
X0140992Y0147375D01*
X0140982Y0147313D01*
X0140969Y0147251D01*
X0140951Y0147191D01*
X0140930Y0147132D01*
X0140905Y0147074D01*
X0140876Y0147018D01*
X0140844Y0146964D01*
X0140809Y0146912D01*
X0140771Y0146863D01*
X0140729Y0146815D01*
X0140685Y0146771D01*
X0140637Y0146729D01*
X0140588Y0146691D01*
X0140536Y0146656D01*
X0140482Y0146624D01*
X0140426Y0146595D01*
X0140368Y0146570D01*
X0140309Y0146549D01*
X0140249Y0146531D01*
X0140187Y0146518D01*
X0140125Y0146508D01*
X0140063Y0146502D01*
X0140000Y0146500D01*
X0139937Y0146502D01*
X0139875Y0146508D01*
X0139813Y0146518D01*
X0139751Y0146531D01*
X0139691Y0146549D01*
X0139632Y0146570D01*
X0139574Y0146595D01*
X0139518Y0146624D01*
X0139464Y0146656D01*
X0139412Y0146691D01*
X0139363Y0146729D01*
X0139315Y0146771D01*
X0139271Y0146815D01*
X0139229Y0146863D01*
X0139191Y0146912D01*
X0139156Y0146964D01*
X0139124Y0147018D01*
X0139095Y0147074D01*
X0139070Y0147132D01*
X0139049Y0147191D01*
X0139031Y0147251D01*
X0139018Y0147313D01*
X0139008Y0147375D01*
X0139002Y0147437D01*
X0139000Y0147500D01*
X0138000Y0149000D02*
X0138002Y0149063D01*
X0138008Y0149125D01*
X0138018Y0149187D01*
X0138031Y0149249D01*
X0138049Y0149309D01*
X0138070Y0149368D01*
X0138095Y0149426D01*
X0138124Y0149482D01*
X0138156Y0149536D01*
X0138191Y0149588D01*
X0138229Y0149637D01*
X0138271Y0149685D01*
X0138315Y0149729D01*
X0138363Y0149771D01*
X0138412Y0149809D01*
X0138464Y0149844D01*
X0138518Y0149876D01*
X0138574Y0149905D01*
X0138632Y0149930D01*
X0138691Y0149951D01*
X0138751Y0149969D01*
X0138813Y0149982D01*
X0138875Y0149992D01*
X0138937Y0149998D01*
X0139000Y0150000D01*
X0139063Y0149998D01*
X0139125Y0149992D01*
X0139187Y0149982D01*
X0139249Y0149969D01*
X0139309Y0149951D01*
X0139368Y0149930D01*
X0139426Y0149905D01*
X0139482Y0149876D01*
X0139536Y0149844D01*
X0139588Y0149809D01*
X0139637Y0149771D01*
X0139685Y0149729D01*
X0139729Y0149685D01*
X0139771Y0149637D01*
X0139809Y0149588D01*
X0139844Y0149536D01*
X0139876Y0149482D01*
X0139905Y0149426D01*
X0139930Y0149368D01*
X0139951Y0149309D01*
X0139969Y0149249D01*
X0139982Y0149187D01*
X0139992Y0149125D01*
X0139998Y0149063D01*
X0140000Y0149000D01*
X0139998Y0148937D01*
X0139992Y0148875D01*
X0139982Y0148813D01*
X0139969Y0148751D01*
X0139951Y0148691D01*
X0139930Y0148632D01*
X0139905Y0148574D01*
X0139876Y0148518D01*
X0139844Y0148464D01*
X0139809Y0148412D01*
X0139771Y0148363D01*
X0139729Y0148315D01*
X0139685Y0148271D01*
X0139637Y0148229D01*
X0139588Y0148191D01*
X0139536Y0148156D01*
X0139482Y0148124D01*
X0139426Y0148095D01*
X0139368Y0148070D01*
X0139309Y0148049D01*
X0139249Y0148031D01*
X0139187Y0148018D01*
X0139125Y0148008D01*
X0139063Y0148002D01*
X0139000Y0148000D01*
X0138937Y0148002D01*
X0138875Y0148008D01*
X0138813Y0148018D01*
X0138751Y0148031D01*
X0138691Y0148049D01*
X0138632Y0148070D01*
X0138574Y0148095D01*
X0138518Y0148124D01*
X0138464Y0148156D01*
X0138412Y0148191D01*
X0138363Y0148229D01*
X0138315Y0148271D01*
X0138271Y0148315D01*
X0138229Y0148363D01*
X0138191Y0148412D01*
X0138156Y0148464D01*
X0138124Y0148518D01*
X0138095Y0148574D01*
X0138070Y0148632D01*
X0138049Y0148691D01*
X0138031Y0148751D01*
X0138018Y0148813D01*
X0138008Y0148875D01*
X0138002Y0148937D01*
X0138000Y0149000D01*
X0134000Y0149000D02*
X0134002Y0149063D01*
X0134008Y0149125D01*
X0134018Y0149187D01*
X0134031Y0149249D01*
X0134049Y0149309D01*
X0134070Y0149368D01*
X0134095Y0149426D01*
X0134124Y0149482D01*
X0134156Y0149536D01*
X0134191Y0149588D01*
X0134229Y0149637D01*
X0134271Y0149685D01*
X0134315Y0149729D01*
X0134363Y0149771D01*
X0134412Y0149809D01*
X0134464Y0149844D01*
X0134518Y0149876D01*
X0134574Y0149905D01*
X0134632Y0149930D01*
X0134691Y0149951D01*
X0134751Y0149969D01*
X0134813Y0149982D01*
X0134875Y0149992D01*
X0134937Y0149998D01*
X0135000Y0150000D01*
X0135063Y0149998D01*
X0135125Y0149992D01*
X0135187Y0149982D01*
X0135249Y0149969D01*
X0135309Y0149951D01*
X0135368Y0149930D01*
X0135426Y0149905D01*
X0135482Y0149876D01*
X0135536Y0149844D01*
X0135588Y0149809D01*
X0135637Y0149771D01*
X0135685Y0149729D01*
X0135729Y0149685D01*
X0135771Y0149637D01*
X0135809Y0149588D01*
X0135844Y0149536D01*
X0135876Y0149482D01*
X0135905Y0149426D01*
X0135930Y0149368D01*
X0135951Y0149309D01*
X0135969Y0149249D01*
X0135982Y0149187D01*
X0135992Y0149125D01*
X0135998Y0149063D01*
X0136000Y0149000D01*
X0135998Y0148937D01*
X0135992Y0148875D01*
X0135982Y0148813D01*
X0135969Y0148751D01*
X0135951Y0148691D01*
X0135930Y0148632D01*
X0135905Y0148574D01*
X0135876Y0148518D01*
X0135844Y0148464D01*
X0135809Y0148412D01*
X0135771Y0148363D01*
X0135729Y0148315D01*
X0135685Y0148271D01*
X0135637Y0148229D01*
X0135588Y0148191D01*
X0135536Y0148156D01*
X0135482Y0148124D01*
X0135426Y0148095D01*
X0135368Y0148070D01*
X0135309Y0148049D01*
X0135249Y0148031D01*
X0135187Y0148018D01*
X0135125Y0148008D01*
X0135063Y0148002D01*
X0135000Y0148000D01*
X0134937Y0148002D01*
X0134875Y0148008D01*
X0134813Y0148018D01*
X0134751Y0148031D01*
X0134691Y0148049D01*
X0134632Y0148070D01*
X0134574Y0148095D01*
X0134518Y0148124D01*
X0134464Y0148156D01*
X0134412Y0148191D01*
X0134363Y0148229D01*
X0134315Y0148271D01*
X0134271Y0148315D01*
X0134229Y0148363D01*
X0134191Y0148412D01*
X0134156Y0148464D01*
X0134124Y0148518D01*
X0134095Y0148574D01*
X0134070Y0148632D01*
X0134049Y0148691D01*
X0134031Y0148751D01*
X0134018Y0148813D01*
X0134008Y0148875D01*
X0134002Y0148937D01*
X0134000Y0149000D01*
X0130000Y0149000D02*
X0130002Y0149063D01*
X0130008Y0149125D01*
X0130018Y0149187D01*
X0130031Y0149249D01*
X0130049Y0149309D01*
X0130070Y0149368D01*
X0130095Y0149426D01*
X0130124Y0149482D01*
X0130156Y0149536D01*
X0130191Y0149588D01*
X0130229Y0149637D01*
X0130271Y0149685D01*
X0130315Y0149729D01*
X0130363Y0149771D01*
X0130412Y0149809D01*
X0130464Y0149844D01*
X0130518Y0149876D01*
X0130574Y0149905D01*
X0130632Y0149930D01*
X0130691Y0149951D01*
X0130751Y0149969D01*
X0130813Y0149982D01*
X0130875Y0149992D01*
X0130937Y0149998D01*
X0131000Y0150000D01*
X0131063Y0149998D01*
X0131125Y0149992D01*
X0131187Y0149982D01*
X0131249Y0149969D01*
X0131309Y0149951D01*
X0131368Y0149930D01*
X0131426Y0149905D01*
X0131482Y0149876D01*
X0131536Y0149844D01*
X0131588Y0149809D01*
X0131637Y0149771D01*
X0131685Y0149729D01*
X0131729Y0149685D01*
X0131771Y0149637D01*
X0131809Y0149588D01*
X0131844Y0149536D01*
X0131876Y0149482D01*
X0131905Y0149426D01*
X0131930Y0149368D01*
X0131951Y0149309D01*
X0131969Y0149249D01*
X0131982Y0149187D01*
X0131992Y0149125D01*
X0131998Y0149063D01*
X0132000Y0149000D01*
X0131998Y0148937D01*
X0131992Y0148875D01*
X0131982Y0148813D01*
X0131969Y0148751D01*
X0131951Y0148691D01*
X0131930Y0148632D01*
X0131905Y0148574D01*
X0131876Y0148518D01*
X0131844Y0148464D01*
X0131809Y0148412D01*
X0131771Y0148363D01*
X0131729Y0148315D01*
X0131685Y0148271D01*
X0131637Y0148229D01*
X0131588Y0148191D01*
X0131536Y0148156D01*
X0131482Y0148124D01*
X0131426Y0148095D01*
X0131368Y0148070D01*
X0131309Y0148049D01*
X0131249Y0148031D01*
X0131187Y0148018D01*
X0131125Y0148008D01*
X0131063Y0148002D01*
X0131000Y0148000D01*
X0130937Y0148002D01*
X0130875Y0148008D01*
X0130813Y0148018D01*
X0130751Y0148031D01*
X0130691Y0148049D01*
X0130632Y0148070D01*
X0130574Y0148095D01*
X0130518Y0148124D01*
X0130464Y0148156D01*
X0130412Y0148191D01*
X0130363Y0148229D01*
X0130315Y0148271D01*
X0130271Y0148315D01*
X0130229Y0148363D01*
X0130191Y0148412D01*
X0130156Y0148464D01*
X0130124Y0148518D01*
X0130095Y0148574D01*
X0130070Y0148632D01*
X0130049Y0148691D01*
X0130031Y0148751D01*
X0130018Y0148813D01*
X0130008Y0148875D01*
X0130002Y0148937D01*
X0130000Y0149000D01*
X0126000Y0149000D02*
X0126002Y0149063D01*
X0126008Y0149125D01*
X0126018Y0149187D01*
X0126031Y0149249D01*
X0126049Y0149309D01*
X0126070Y0149368D01*
X0126095Y0149426D01*
X0126124Y0149482D01*
X0126156Y0149536D01*
X0126191Y0149588D01*
X0126229Y0149637D01*
X0126271Y0149685D01*
X0126315Y0149729D01*
X0126363Y0149771D01*
X0126412Y0149809D01*
X0126464Y0149844D01*
X0126518Y0149876D01*
X0126574Y0149905D01*
X0126632Y0149930D01*
X0126691Y0149951D01*
X0126751Y0149969D01*
X0126813Y0149982D01*
X0126875Y0149992D01*
X0126937Y0149998D01*
X0127000Y0150000D01*
X0127063Y0149998D01*
X0127125Y0149992D01*
X0127187Y0149982D01*
X0127249Y0149969D01*
X0127309Y0149951D01*
X0127368Y0149930D01*
X0127426Y0149905D01*
X0127482Y0149876D01*
X0127536Y0149844D01*
X0127588Y0149809D01*
X0127637Y0149771D01*
X0127685Y0149729D01*
X0127729Y0149685D01*
X0127771Y0149637D01*
X0127809Y0149588D01*
X0127844Y0149536D01*
X0127876Y0149482D01*
X0127905Y0149426D01*
X0127930Y0149368D01*
X0127951Y0149309D01*
X0127969Y0149249D01*
X0127982Y0149187D01*
X0127992Y0149125D01*
X0127998Y0149063D01*
X0128000Y0149000D01*
X0127998Y0148937D01*
X0127992Y0148875D01*
X0127982Y0148813D01*
X0127969Y0148751D01*
X0127951Y0148691D01*
X0127930Y0148632D01*
X0127905Y0148574D01*
X0127876Y0148518D01*
X0127844Y0148464D01*
X0127809Y0148412D01*
X0127771Y0148363D01*
X0127729Y0148315D01*
X0127685Y0148271D01*
X0127637Y0148229D01*
X0127588Y0148191D01*
X0127536Y0148156D01*
X0127482Y0148124D01*
X0127426Y0148095D01*
X0127368Y0148070D01*
X0127309Y0148049D01*
X0127249Y0148031D01*
X0127187Y0148018D01*
X0127125Y0148008D01*
X0127063Y0148002D01*
X0127000Y0148000D01*
X0126937Y0148002D01*
X0126875Y0148008D01*
X0126813Y0148018D01*
X0126751Y0148031D01*
X0126691Y0148049D01*
X0126632Y0148070D01*
X0126574Y0148095D01*
X0126518Y0148124D01*
X0126464Y0148156D01*
X0126412Y0148191D01*
X0126363Y0148229D01*
X0126315Y0148271D01*
X0126271Y0148315D01*
X0126229Y0148363D01*
X0126191Y0148412D01*
X0126156Y0148464D01*
X0126124Y0148518D01*
X0126095Y0148574D01*
X0126070Y0148632D01*
X0126049Y0148691D01*
X0126031Y0148751D01*
X0126018Y0148813D01*
X0126008Y0148875D01*
X0126002Y0148937D01*
X0126000Y0149000D01*
X0122000Y0149000D02*
X0122002Y0149063D01*
X0122008Y0149125D01*
X0122018Y0149187D01*
X0122031Y0149249D01*
X0122049Y0149309D01*
X0122070Y0149368D01*
X0122095Y0149426D01*
X0122124Y0149482D01*
X0122156Y0149536D01*
X0122191Y0149588D01*
X0122229Y0149637D01*
X0122271Y0149685D01*
X0122315Y0149729D01*
X0122363Y0149771D01*
X0122412Y0149809D01*
X0122464Y0149844D01*
X0122518Y0149876D01*
X0122574Y0149905D01*
X0122632Y0149930D01*
X0122691Y0149951D01*
X0122751Y0149969D01*
X0122813Y0149982D01*
X0122875Y0149992D01*
X0122937Y0149998D01*
X0123000Y0150000D01*
X0123063Y0149998D01*
X0123125Y0149992D01*
X0123187Y0149982D01*
X0123249Y0149969D01*
X0123309Y0149951D01*
X0123368Y0149930D01*
X0123426Y0149905D01*
X0123482Y0149876D01*
X0123536Y0149844D01*
X0123588Y0149809D01*
X0123637Y0149771D01*
X0123685Y0149729D01*
X0123729Y0149685D01*
X0123771Y0149637D01*
X0123809Y0149588D01*
X0123844Y0149536D01*
X0123876Y0149482D01*
X0123905Y0149426D01*
X0123930Y0149368D01*
X0123951Y0149309D01*
X0123969Y0149249D01*
X0123982Y0149187D01*
X0123992Y0149125D01*
X0123998Y0149063D01*
X0124000Y0149000D01*
X0123998Y0148937D01*
X0123992Y0148875D01*
X0123982Y0148813D01*
X0123969Y0148751D01*
X0123951Y0148691D01*
X0123930Y0148632D01*
X0123905Y0148574D01*
X0123876Y0148518D01*
X0123844Y0148464D01*
X0123809Y0148412D01*
X0123771Y0148363D01*
X0123729Y0148315D01*
X0123685Y0148271D01*
X0123637Y0148229D01*
X0123588Y0148191D01*
X0123536Y0148156D01*
X0123482Y0148124D01*
X0123426Y0148095D01*
X0123368Y0148070D01*
X0123309Y0148049D01*
X0123249Y0148031D01*
X0123187Y0148018D01*
X0123125Y0148008D01*
X0123063Y0148002D01*
X0123000Y0148000D01*
X0122937Y0148002D01*
X0122875Y0148008D01*
X0122813Y0148018D01*
X0122751Y0148031D01*
X0122691Y0148049D01*
X0122632Y0148070D01*
X0122574Y0148095D01*
X0122518Y0148124D01*
X0122464Y0148156D01*
X0122412Y0148191D01*
X0122363Y0148229D01*
X0122315Y0148271D01*
X0122271Y0148315D01*
X0122229Y0148363D01*
X0122191Y0148412D01*
X0122156Y0148464D01*
X0122124Y0148518D01*
X0122095Y0148574D01*
X0122070Y0148632D01*
X0122049Y0148691D01*
X0122031Y0148751D01*
X0122018Y0148813D01*
X0122008Y0148875D01*
X0122002Y0148937D01*
X0122000Y0149000D01*
X0118000Y0149000D02*
X0118002Y0149063D01*
X0118008Y0149125D01*
X0118018Y0149187D01*
X0118031Y0149249D01*
X0118049Y0149309D01*
X0118070Y0149368D01*
X0118095Y0149426D01*
X0118124Y0149482D01*
X0118156Y0149536D01*
X0118191Y0149588D01*
X0118229Y0149637D01*
X0118271Y0149685D01*
X0118315Y0149729D01*
X0118363Y0149771D01*
X0118412Y0149809D01*
X0118464Y0149844D01*
X0118518Y0149876D01*
X0118574Y0149905D01*
X0118632Y0149930D01*
X0118691Y0149951D01*
X0118751Y0149969D01*
X0118813Y0149982D01*
X0118875Y0149992D01*
X0118937Y0149998D01*
X0119000Y0150000D01*
X0119063Y0149998D01*
X0119125Y0149992D01*
X0119187Y0149982D01*
X0119249Y0149969D01*
X0119309Y0149951D01*
X0119368Y0149930D01*
X0119426Y0149905D01*
X0119482Y0149876D01*
X0119536Y0149844D01*
X0119588Y0149809D01*
X0119637Y0149771D01*
X0119685Y0149729D01*
X0119729Y0149685D01*
X0119771Y0149637D01*
X0119809Y0149588D01*
X0119844Y0149536D01*
X0119876Y0149482D01*
X0119905Y0149426D01*
X0119930Y0149368D01*
X0119951Y0149309D01*
X0119969Y0149249D01*
X0119982Y0149187D01*
X0119992Y0149125D01*
X0119998Y0149063D01*
X0120000Y0149000D01*
X0119998Y0148937D01*
X0119992Y0148875D01*
X0119982Y0148813D01*
X0119969Y0148751D01*
X0119951Y0148691D01*
X0119930Y0148632D01*
X0119905Y0148574D01*
X0119876Y0148518D01*
X0119844Y0148464D01*
X0119809Y0148412D01*
X0119771Y0148363D01*
X0119729Y0148315D01*
X0119685Y0148271D01*
X0119637Y0148229D01*
X0119588Y0148191D01*
X0119536Y0148156D01*
X0119482Y0148124D01*
X0119426Y0148095D01*
X0119368Y0148070D01*
X0119309Y0148049D01*
X0119249Y0148031D01*
X0119187Y0148018D01*
X0119125Y0148008D01*
X0119063Y0148002D01*
X0119000Y0148000D01*
X0118937Y0148002D01*
X0118875Y0148008D01*
X0118813Y0148018D01*
X0118751Y0148031D01*
X0118691Y0148049D01*
X0118632Y0148070D01*
X0118574Y0148095D01*
X0118518Y0148124D01*
X0118464Y0148156D01*
X0118412Y0148191D01*
X0118363Y0148229D01*
X0118315Y0148271D01*
X0118271Y0148315D01*
X0118229Y0148363D01*
X0118191Y0148412D01*
X0118156Y0148464D01*
X0118124Y0148518D01*
X0118095Y0148574D01*
X0118070Y0148632D01*
X0118049Y0148691D01*
X0118031Y0148751D01*
X0118018Y0148813D01*
X0118008Y0148875D01*
X0118002Y0148937D01*
X0118000Y0149000D01*
X0114000Y0149000D02*
X0114002Y0149063D01*
X0114008Y0149125D01*
X0114018Y0149187D01*
X0114031Y0149249D01*
X0114049Y0149309D01*
X0114070Y0149368D01*
X0114095Y0149426D01*
X0114124Y0149482D01*
X0114156Y0149536D01*
X0114191Y0149588D01*
X0114229Y0149637D01*
X0114271Y0149685D01*
X0114315Y0149729D01*
X0114363Y0149771D01*
X0114412Y0149809D01*
X0114464Y0149844D01*
X0114518Y0149876D01*
X0114574Y0149905D01*
X0114632Y0149930D01*
X0114691Y0149951D01*
X0114751Y0149969D01*
X0114813Y0149982D01*
X0114875Y0149992D01*
X0114937Y0149998D01*
X0115000Y0150000D01*
X0115063Y0149998D01*
X0115125Y0149992D01*
X0115187Y0149982D01*
X0115249Y0149969D01*
X0115309Y0149951D01*
X0115368Y0149930D01*
X0115426Y0149905D01*
X0115482Y0149876D01*
X0115536Y0149844D01*
X0115588Y0149809D01*
X0115637Y0149771D01*
X0115685Y0149729D01*
X0115729Y0149685D01*
X0115771Y0149637D01*
X0115809Y0149588D01*
X0115844Y0149536D01*
X0115876Y0149482D01*
X0115905Y0149426D01*
X0115930Y0149368D01*
X0115951Y0149309D01*
X0115969Y0149249D01*
X0115982Y0149187D01*
X0115992Y0149125D01*
X0115998Y0149063D01*
X0116000Y0149000D01*
X0115998Y0148937D01*
X0115992Y0148875D01*
X0115982Y0148813D01*
X0115969Y0148751D01*
X0115951Y0148691D01*
X0115930Y0148632D01*
X0115905Y0148574D01*
X0115876Y0148518D01*
X0115844Y0148464D01*
X0115809Y0148412D01*
X0115771Y0148363D01*
X0115729Y0148315D01*
X0115685Y0148271D01*
X0115637Y0148229D01*
X0115588Y0148191D01*
X0115536Y0148156D01*
X0115482Y0148124D01*
X0115426Y0148095D01*
X0115368Y0148070D01*
X0115309Y0148049D01*
X0115249Y0148031D01*
X0115187Y0148018D01*
X0115125Y0148008D01*
X0115063Y0148002D01*
X0115000Y0148000D01*
X0114937Y0148002D01*
X0114875Y0148008D01*
X0114813Y0148018D01*
X0114751Y0148031D01*
X0114691Y0148049D01*
X0114632Y0148070D01*
X0114574Y0148095D01*
X0114518Y0148124D01*
X0114464Y0148156D01*
X0114412Y0148191D01*
X0114363Y0148229D01*
X0114315Y0148271D01*
X0114271Y0148315D01*
X0114229Y0148363D01*
X0114191Y0148412D01*
X0114156Y0148464D01*
X0114124Y0148518D01*
X0114095Y0148574D01*
X0114070Y0148632D01*
X0114049Y0148691D01*
X0114031Y0148751D01*
X0114018Y0148813D01*
X0114008Y0148875D01*
X0114002Y0148937D01*
X0114000Y0149000D01*
X0120670Y0163386D02*
X0120672Y0163544D01*
X0120678Y0163702D01*
X0120688Y0163860D01*
X0120702Y0164018D01*
X0120720Y0164175D01*
X0120741Y0164332D01*
X0120767Y0164488D01*
X0120797Y0164644D01*
X0120830Y0164799D01*
X0120868Y0164952D01*
X0120909Y0165105D01*
X0120954Y0165257D01*
X0121003Y0165408D01*
X0121056Y0165557D01*
X0121112Y0165705D01*
X0121172Y0165851D01*
X0121236Y0165996D01*
X0121304Y0166139D01*
X0121375Y0166281D01*
X0121449Y0166421D01*
X0121527Y0166558D01*
X0121609Y0166694D01*
X0121693Y0166828D01*
X0121782Y0166959D01*
X0121873Y0167088D01*
X0121968Y0167215D01*
X0122065Y0167340D01*
X0122166Y0167462D01*
X0122270Y0167581D01*
X0122377Y0167698D01*
X0122487Y0167812D01*
X0122600Y0167923D01*
X0122715Y0168032D01*
X0122833Y0168137D01*
X0122954Y0168239D01*
X0123077Y0168339D01*
X0123203Y0168435D01*
X0123331Y0168528D01*
X0123461Y0168618D01*
X0123594Y0168704D01*
X0123729Y0168788D01*
X0123865Y0168867D01*
X0124004Y0168944D01*
X0124145Y0169016D01*
X0124287Y0169086D01*
X0124431Y0169151D01*
X0124577Y0169213D01*
X0124724Y0169271D01*
X0124873Y0169326D01*
X0125023Y0169377D01*
X0125174Y0169424D01*
X0125326Y0169467D01*
X0125479Y0169506D01*
X0125634Y0169542D01*
X0125789Y0169573D01*
X0125945Y0169601D01*
X0126101Y0169625D01*
X0126258Y0169645D01*
X0126416Y0169661D01*
X0126573Y0169673D01*
X0126732Y0169681D01*
X0126890Y0169685D01*
X0127048Y0169685D01*
X0127206Y0169681D01*
X0127365Y0169673D01*
X0127522Y0169661D01*
X0127680Y0169645D01*
X0127837Y0169625D01*
X0127993Y0169601D01*
X0128149Y0169573D01*
X0128304Y0169542D01*
X0128459Y0169506D01*
X0128612Y0169467D01*
X0128764Y0169424D01*
X0128915Y0169377D01*
X0129065Y0169326D01*
X0129214Y0169271D01*
X0129361Y0169213D01*
X0129507Y0169151D01*
X0129651Y0169086D01*
X0129793Y0169016D01*
X0129934Y0168944D01*
X0130073Y0168867D01*
X0130209Y0168788D01*
X0130344Y0168704D01*
X0130477Y0168618D01*
X0130607Y0168528D01*
X0130735Y0168435D01*
X0130861Y0168339D01*
X0130984Y0168239D01*
X0131105Y0168137D01*
X0131223Y0168032D01*
X0131338Y0167923D01*
X0131451Y0167812D01*
X0131561Y0167698D01*
X0131668Y0167581D01*
X0131772Y0167462D01*
X0131873Y0167340D01*
X0131970Y0167215D01*
X0132065Y0167088D01*
X0132156Y0166959D01*
X0132245Y0166828D01*
X0132329Y0166694D01*
X0132411Y0166558D01*
X0132489Y0166421D01*
X0132563Y0166281D01*
X0132634Y0166139D01*
X0132702Y0165996D01*
X0132766Y0165851D01*
X0132826Y0165705D01*
X0132882Y0165557D01*
X0132935Y0165408D01*
X0132984Y0165257D01*
X0133029Y0165105D01*
X0133070Y0164952D01*
X0133108Y0164799D01*
X0133141Y0164644D01*
X0133171Y0164488D01*
X0133197Y0164332D01*
X0133218Y0164175D01*
X0133236Y0164018D01*
X0133250Y0163860D01*
X0133260Y0163702D01*
X0133266Y0163544D01*
X0133268Y0163386D01*
X0133266Y0163228D01*
X0133260Y0163070D01*
X0133250Y0162912D01*
X0133236Y0162754D01*
X0133218Y0162597D01*
X0133197Y0162440D01*
X0133171Y0162284D01*
X0133141Y0162128D01*
X0133108Y0161973D01*
X0133070Y0161820D01*
X0133029Y0161667D01*
X0132984Y0161515D01*
X0132935Y0161364D01*
X0132882Y0161215D01*
X0132826Y0161067D01*
X0132766Y0160921D01*
X0132702Y0160776D01*
X0132634Y0160633D01*
X0132563Y0160491D01*
X0132489Y0160351D01*
X0132411Y0160214D01*
X0132329Y0160078D01*
X0132245Y0159944D01*
X0132156Y0159813D01*
X0132065Y0159684D01*
X0131970Y0159557D01*
X0131873Y0159432D01*
X0131772Y0159310D01*
X0131668Y0159191D01*
X0131561Y0159074D01*
X0131451Y0158960D01*
X0131338Y0158849D01*
X0131223Y0158740D01*
X0131105Y0158635D01*
X0130984Y0158533D01*
X0130861Y0158433D01*
X0130735Y0158337D01*
X0130607Y0158244D01*
X0130477Y0158154D01*
X0130344Y0158068D01*
X0130209Y0157984D01*
X0130073Y0157905D01*
X0129934Y0157828D01*
X0129793Y0157756D01*
X0129651Y0157686D01*
X0129507Y0157621D01*
X0129361Y0157559D01*
X0129214Y0157501D01*
X0129065Y0157446D01*
X0128915Y0157395D01*
X0128764Y0157348D01*
X0128612Y0157305D01*
X0128459Y0157266D01*
X0128304Y0157230D01*
X0128149Y0157199D01*
X0127993Y0157171D01*
X0127837Y0157147D01*
X0127680Y0157127D01*
X0127522Y0157111D01*
X0127365Y0157099D01*
X0127206Y0157091D01*
X0127048Y0157087D01*
X0126890Y0157087D01*
X0126732Y0157091D01*
X0126573Y0157099D01*
X0126416Y0157111D01*
X0126258Y0157127D01*
X0126101Y0157147D01*
X0125945Y0157171D01*
X0125789Y0157199D01*
X0125634Y0157230D01*
X0125479Y0157266D01*
X0125326Y0157305D01*
X0125174Y0157348D01*
X0125023Y0157395D01*
X0124873Y0157446D01*
X0124724Y0157501D01*
X0124577Y0157559D01*
X0124431Y0157621D01*
X0124287Y0157686D01*
X0124145Y0157756D01*
X0124004Y0157828D01*
X0123865Y0157905D01*
X0123729Y0157984D01*
X0123594Y0158068D01*
X0123461Y0158154D01*
X0123331Y0158244D01*
X0123203Y0158337D01*
X0123077Y0158433D01*
X0122954Y0158533D01*
X0122833Y0158635D01*
X0122715Y0158740D01*
X0122600Y0158849D01*
X0122487Y0158960D01*
X0122377Y0159074D01*
X0122270Y0159191D01*
X0122166Y0159310D01*
X0122065Y0159432D01*
X0121968Y0159557D01*
X0121873Y0159684D01*
X0121782Y0159813D01*
X0121693Y0159944D01*
X0121609Y0160078D01*
X0121527Y0160214D01*
X0121449Y0160351D01*
X0121375Y0160491D01*
X0121304Y0160633D01*
X0121236Y0160776D01*
X0121172Y0160921D01*
X0121112Y0161067D01*
X0121056Y0161215D01*
X0121003Y0161364D01*
X0120954Y0161515D01*
X0120909Y0161667D01*
X0120868Y0161820D01*
X0120830Y0161973D01*
X0120797Y0162128D01*
X0120767Y0162284D01*
X0120741Y0162440D01*
X0120720Y0162597D01*
X0120702Y0162754D01*
X0120688Y0162912D01*
X0120678Y0163070D01*
X0120672Y0163228D01*
X0120670Y0163386D01*
X0148229Y0135827D02*
X0148231Y0135985D01*
X0148237Y0136143D01*
X0148247Y0136301D01*
X0148261Y0136459D01*
X0148279Y0136616D01*
X0148300Y0136773D01*
X0148326Y0136929D01*
X0148356Y0137085D01*
X0148389Y0137240D01*
X0148427Y0137393D01*
X0148468Y0137546D01*
X0148513Y0137698D01*
X0148562Y0137849D01*
X0148615Y0137998D01*
X0148671Y0138146D01*
X0148731Y0138292D01*
X0148795Y0138437D01*
X0148863Y0138580D01*
X0148934Y0138722D01*
X0149008Y0138862D01*
X0149086Y0138999D01*
X0149168Y0139135D01*
X0149252Y0139269D01*
X0149341Y0139400D01*
X0149432Y0139529D01*
X0149527Y0139656D01*
X0149624Y0139781D01*
X0149725Y0139903D01*
X0149829Y0140022D01*
X0149936Y0140139D01*
X0150046Y0140253D01*
X0150159Y0140364D01*
X0150274Y0140473D01*
X0150392Y0140578D01*
X0150513Y0140680D01*
X0150636Y0140780D01*
X0150762Y0140876D01*
X0150890Y0140969D01*
X0151020Y0141059D01*
X0151153Y0141145D01*
X0151288Y0141229D01*
X0151424Y0141308D01*
X0151563Y0141385D01*
X0151704Y0141457D01*
X0151846Y0141527D01*
X0151990Y0141592D01*
X0152136Y0141654D01*
X0152283Y0141712D01*
X0152432Y0141767D01*
X0152582Y0141818D01*
X0152733Y0141865D01*
X0152885Y0141908D01*
X0153038Y0141947D01*
X0153193Y0141983D01*
X0153348Y0142014D01*
X0153504Y0142042D01*
X0153660Y0142066D01*
X0153817Y0142086D01*
X0153975Y0142102D01*
X0154132Y0142114D01*
X0154291Y0142122D01*
X0154449Y0142126D01*
X0154607Y0142126D01*
X0154765Y0142122D01*
X0154924Y0142114D01*
X0155081Y0142102D01*
X0155239Y0142086D01*
X0155396Y0142066D01*
X0155552Y0142042D01*
X0155708Y0142014D01*
X0155863Y0141983D01*
X0156018Y0141947D01*
X0156171Y0141908D01*
X0156323Y0141865D01*
X0156474Y0141818D01*
X0156624Y0141767D01*
X0156773Y0141712D01*
X0156920Y0141654D01*
X0157066Y0141592D01*
X0157210Y0141527D01*
X0157352Y0141457D01*
X0157493Y0141385D01*
X0157632Y0141308D01*
X0157768Y0141229D01*
X0157903Y0141145D01*
X0158036Y0141059D01*
X0158166Y0140969D01*
X0158294Y0140876D01*
X0158420Y0140780D01*
X0158543Y0140680D01*
X0158664Y0140578D01*
X0158782Y0140473D01*
X0158897Y0140364D01*
X0159010Y0140253D01*
X0159120Y0140139D01*
X0159227Y0140022D01*
X0159331Y0139903D01*
X0159432Y0139781D01*
X0159529Y0139656D01*
X0159624Y0139529D01*
X0159715Y0139400D01*
X0159804Y0139269D01*
X0159888Y0139135D01*
X0159970Y0138999D01*
X0160048Y0138862D01*
X0160122Y0138722D01*
X0160193Y0138580D01*
X0160261Y0138437D01*
X0160325Y0138292D01*
X0160385Y0138146D01*
X0160441Y0137998D01*
X0160494Y0137849D01*
X0160543Y0137698D01*
X0160588Y0137546D01*
X0160629Y0137393D01*
X0160667Y0137240D01*
X0160700Y0137085D01*
X0160730Y0136929D01*
X0160756Y0136773D01*
X0160777Y0136616D01*
X0160795Y0136459D01*
X0160809Y0136301D01*
X0160819Y0136143D01*
X0160825Y0135985D01*
X0160827Y0135827D01*
X0160825Y0135669D01*
X0160819Y0135511D01*
X0160809Y0135353D01*
X0160795Y0135195D01*
X0160777Y0135038D01*
X0160756Y0134881D01*
X0160730Y0134725D01*
X0160700Y0134569D01*
X0160667Y0134414D01*
X0160629Y0134261D01*
X0160588Y0134108D01*
X0160543Y0133956D01*
X0160494Y0133805D01*
X0160441Y0133656D01*
X0160385Y0133508D01*
X0160325Y0133362D01*
X0160261Y0133217D01*
X0160193Y0133074D01*
X0160122Y0132932D01*
X0160048Y0132792D01*
X0159970Y0132655D01*
X0159888Y0132519D01*
X0159804Y0132385D01*
X0159715Y0132254D01*
X0159624Y0132125D01*
X0159529Y0131998D01*
X0159432Y0131873D01*
X0159331Y0131751D01*
X0159227Y0131632D01*
X0159120Y0131515D01*
X0159010Y0131401D01*
X0158897Y0131290D01*
X0158782Y0131181D01*
X0158664Y0131076D01*
X0158543Y0130974D01*
X0158420Y0130874D01*
X0158294Y0130778D01*
X0158166Y0130685D01*
X0158036Y0130595D01*
X0157903Y0130509D01*
X0157768Y0130425D01*
X0157632Y0130346D01*
X0157493Y0130269D01*
X0157352Y0130197D01*
X0157210Y0130127D01*
X0157066Y0130062D01*
X0156920Y0130000D01*
X0156773Y0129942D01*
X0156624Y0129887D01*
X0156474Y0129836D01*
X0156323Y0129789D01*
X0156171Y0129746D01*
X0156018Y0129707D01*
X0155863Y0129671D01*
X0155708Y0129640D01*
X0155552Y0129612D01*
X0155396Y0129588D01*
X0155239Y0129568D01*
X0155081Y0129552D01*
X0154924Y0129540D01*
X0154765Y0129532D01*
X0154607Y0129528D01*
X0154449Y0129528D01*
X0154291Y0129532D01*
X0154132Y0129540D01*
X0153975Y0129552D01*
X0153817Y0129568D01*
X0153660Y0129588D01*
X0153504Y0129612D01*
X0153348Y0129640D01*
X0153193Y0129671D01*
X0153038Y0129707D01*
X0152885Y0129746D01*
X0152733Y0129789D01*
X0152582Y0129836D01*
X0152432Y0129887D01*
X0152283Y0129942D01*
X0152136Y0130000D01*
X0151990Y0130062D01*
X0151846Y0130127D01*
X0151704Y0130197D01*
X0151563Y0130269D01*
X0151424Y0130346D01*
X0151288Y0130425D01*
X0151153Y0130509D01*
X0151020Y0130595D01*
X0150890Y0130685D01*
X0150762Y0130778D01*
X0150636Y0130874D01*
X0150513Y0130974D01*
X0150392Y0131076D01*
X0150274Y0131181D01*
X0150159Y0131290D01*
X0150046Y0131401D01*
X0149936Y0131515D01*
X0149829Y0131632D01*
X0149725Y0131751D01*
X0149624Y0131873D01*
X0149527Y0131998D01*
X0149432Y0132125D01*
X0149341Y0132254D01*
X0149252Y0132385D01*
X0149168Y0132519D01*
X0149086Y0132655D01*
X0149008Y0132792D01*
X0148934Y0132932D01*
X0148863Y0133074D01*
X0148795Y0133217D01*
X0148731Y0133362D01*
X0148671Y0133508D01*
X0148615Y0133656D01*
X0148562Y0133805D01*
X0148513Y0133956D01*
X0148468Y0134108D01*
X0148427Y0134261D01*
X0148389Y0134414D01*
X0148356Y0134569D01*
X0148326Y0134725D01*
X0148300Y0134881D01*
X0148279Y0135038D01*
X0148261Y0135195D01*
X0148247Y0135353D01*
X0148237Y0135511D01*
X0148231Y0135669D01*
X0148229Y0135827D01*
X0024000Y0149000D02*
X0024002Y0149063D01*
X0024008Y0149125D01*
X0024018Y0149187D01*
X0024031Y0149249D01*
X0024049Y0149309D01*
X0024070Y0149368D01*
X0024095Y0149426D01*
X0024124Y0149482D01*
X0024156Y0149536D01*
X0024191Y0149588D01*
X0024229Y0149637D01*
X0024271Y0149685D01*
X0024315Y0149729D01*
X0024363Y0149771D01*
X0024412Y0149809D01*
X0024464Y0149844D01*
X0024518Y0149876D01*
X0024574Y0149905D01*
X0024632Y0149930D01*
X0024691Y0149951D01*
X0024751Y0149969D01*
X0024813Y0149982D01*
X0024875Y0149992D01*
X0024937Y0149998D01*
X0025000Y0150000D01*
X0025063Y0149998D01*
X0025125Y0149992D01*
X0025187Y0149982D01*
X0025249Y0149969D01*
X0025309Y0149951D01*
X0025368Y0149930D01*
X0025426Y0149905D01*
X0025482Y0149876D01*
X0025536Y0149844D01*
X0025588Y0149809D01*
X0025637Y0149771D01*
X0025685Y0149729D01*
X0025729Y0149685D01*
X0025771Y0149637D01*
X0025809Y0149588D01*
X0025844Y0149536D01*
X0025876Y0149482D01*
X0025905Y0149426D01*
X0025930Y0149368D01*
X0025951Y0149309D01*
X0025969Y0149249D01*
X0025982Y0149187D01*
X0025992Y0149125D01*
X0025998Y0149063D01*
X0026000Y0149000D01*
X0025998Y0148937D01*
X0025992Y0148875D01*
X0025982Y0148813D01*
X0025969Y0148751D01*
X0025951Y0148691D01*
X0025930Y0148632D01*
X0025905Y0148574D01*
X0025876Y0148518D01*
X0025844Y0148464D01*
X0025809Y0148412D01*
X0025771Y0148363D01*
X0025729Y0148315D01*
X0025685Y0148271D01*
X0025637Y0148229D01*
X0025588Y0148191D01*
X0025536Y0148156D01*
X0025482Y0148124D01*
X0025426Y0148095D01*
X0025368Y0148070D01*
X0025309Y0148049D01*
X0025249Y0148031D01*
X0025187Y0148018D01*
X0025125Y0148008D01*
X0025063Y0148002D01*
X0025000Y0148000D01*
X0024937Y0148002D01*
X0024875Y0148008D01*
X0024813Y0148018D01*
X0024751Y0148031D01*
X0024691Y0148049D01*
X0024632Y0148070D01*
X0024574Y0148095D01*
X0024518Y0148124D01*
X0024464Y0148156D01*
X0024412Y0148191D01*
X0024363Y0148229D01*
X0024315Y0148271D01*
X0024271Y0148315D01*
X0024229Y0148363D01*
X0024191Y0148412D01*
X0024156Y0148464D01*
X0024124Y0148518D01*
X0024095Y0148574D01*
X0024070Y0148632D01*
X0024049Y0148691D01*
X0024031Y0148751D01*
X0024018Y0148813D01*
X0024008Y0148875D01*
X0024002Y0148937D01*
X0024000Y0149000D01*
X0020000Y0149000D02*
X0020002Y0149063D01*
X0020008Y0149125D01*
X0020018Y0149187D01*
X0020031Y0149249D01*
X0020049Y0149309D01*
X0020070Y0149368D01*
X0020095Y0149426D01*
X0020124Y0149482D01*
X0020156Y0149536D01*
X0020191Y0149588D01*
X0020229Y0149637D01*
X0020271Y0149685D01*
X0020315Y0149729D01*
X0020363Y0149771D01*
X0020412Y0149809D01*
X0020464Y0149844D01*
X0020518Y0149876D01*
X0020574Y0149905D01*
X0020632Y0149930D01*
X0020691Y0149951D01*
X0020751Y0149969D01*
X0020813Y0149982D01*
X0020875Y0149992D01*
X0020937Y0149998D01*
X0021000Y0150000D01*
X0021063Y0149998D01*
X0021125Y0149992D01*
X0021187Y0149982D01*
X0021249Y0149969D01*
X0021309Y0149951D01*
X0021368Y0149930D01*
X0021426Y0149905D01*
X0021482Y0149876D01*
X0021536Y0149844D01*
X0021588Y0149809D01*
X0021637Y0149771D01*
X0021685Y0149729D01*
X0021729Y0149685D01*
X0021771Y0149637D01*
X0021809Y0149588D01*
X0021844Y0149536D01*
X0021876Y0149482D01*
X0021905Y0149426D01*
X0021930Y0149368D01*
X0021951Y0149309D01*
X0021969Y0149249D01*
X0021982Y0149187D01*
X0021992Y0149125D01*
X0021998Y0149063D01*
X0022000Y0149000D01*
X0021998Y0148937D01*
X0021992Y0148875D01*
X0021982Y0148813D01*
X0021969Y0148751D01*
X0021951Y0148691D01*
X0021930Y0148632D01*
X0021905Y0148574D01*
X0021876Y0148518D01*
X0021844Y0148464D01*
X0021809Y0148412D01*
X0021771Y0148363D01*
X0021729Y0148315D01*
X0021685Y0148271D01*
X0021637Y0148229D01*
X0021588Y0148191D01*
X0021536Y0148156D01*
X0021482Y0148124D01*
X0021426Y0148095D01*
X0021368Y0148070D01*
X0021309Y0148049D01*
X0021249Y0148031D01*
X0021187Y0148018D01*
X0021125Y0148008D01*
X0021063Y0148002D01*
X0021000Y0148000D01*
X0020937Y0148002D01*
X0020875Y0148008D01*
X0020813Y0148018D01*
X0020751Y0148031D01*
X0020691Y0148049D01*
X0020632Y0148070D01*
X0020574Y0148095D01*
X0020518Y0148124D01*
X0020464Y0148156D01*
X0020412Y0148191D01*
X0020363Y0148229D01*
X0020315Y0148271D01*
X0020271Y0148315D01*
X0020229Y0148363D01*
X0020191Y0148412D01*
X0020156Y0148464D01*
X0020124Y0148518D01*
X0020095Y0148574D01*
X0020070Y0148632D01*
X0020049Y0148691D01*
X0020031Y0148751D01*
X0020018Y0148813D01*
X0020008Y0148875D01*
X0020002Y0148937D01*
X0020000Y0149000D01*
X0016000Y0149000D02*
X0016002Y0149063D01*
X0016008Y0149125D01*
X0016018Y0149187D01*
X0016031Y0149249D01*
X0016049Y0149309D01*
X0016070Y0149368D01*
X0016095Y0149426D01*
X0016124Y0149482D01*
X0016156Y0149536D01*
X0016191Y0149588D01*
X0016229Y0149637D01*
X0016271Y0149685D01*
X0016315Y0149729D01*
X0016363Y0149771D01*
X0016412Y0149809D01*
X0016464Y0149844D01*
X0016518Y0149876D01*
X0016574Y0149905D01*
X0016632Y0149930D01*
X0016691Y0149951D01*
X0016751Y0149969D01*
X0016813Y0149982D01*
X0016875Y0149992D01*
X0016937Y0149998D01*
X0017000Y0150000D01*
X0017063Y0149998D01*
X0017125Y0149992D01*
X0017187Y0149982D01*
X0017249Y0149969D01*
X0017309Y0149951D01*
X0017368Y0149930D01*
X0017426Y0149905D01*
X0017482Y0149876D01*
X0017536Y0149844D01*
X0017588Y0149809D01*
X0017637Y0149771D01*
X0017685Y0149729D01*
X0017729Y0149685D01*
X0017771Y0149637D01*
X0017809Y0149588D01*
X0017844Y0149536D01*
X0017876Y0149482D01*
X0017905Y0149426D01*
X0017930Y0149368D01*
X0017951Y0149309D01*
X0017969Y0149249D01*
X0017982Y0149187D01*
X0017992Y0149125D01*
X0017998Y0149063D01*
X0018000Y0149000D01*
X0017998Y0148937D01*
X0017992Y0148875D01*
X0017982Y0148813D01*
X0017969Y0148751D01*
X0017951Y0148691D01*
X0017930Y0148632D01*
X0017905Y0148574D01*
X0017876Y0148518D01*
X0017844Y0148464D01*
X0017809Y0148412D01*
X0017771Y0148363D01*
X0017729Y0148315D01*
X0017685Y0148271D01*
X0017637Y0148229D01*
X0017588Y0148191D01*
X0017536Y0148156D01*
X0017482Y0148124D01*
X0017426Y0148095D01*
X0017368Y0148070D01*
X0017309Y0148049D01*
X0017249Y0148031D01*
X0017187Y0148018D01*
X0017125Y0148008D01*
X0017063Y0148002D01*
X0017000Y0148000D01*
X0016937Y0148002D01*
X0016875Y0148008D01*
X0016813Y0148018D01*
X0016751Y0148031D01*
X0016691Y0148049D01*
X0016632Y0148070D01*
X0016574Y0148095D01*
X0016518Y0148124D01*
X0016464Y0148156D01*
X0016412Y0148191D01*
X0016363Y0148229D01*
X0016315Y0148271D01*
X0016271Y0148315D01*
X0016229Y0148363D01*
X0016191Y0148412D01*
X0016156Y0148464D01*
X0016124Y0148518D01*
X0016095Y0148574D01*
X0016070Y0148632D01*
X0016049Y0148691D01*
X0016031Y0148751D01*
X0016018Y0148813D01*
X0016008Y0148875D01*
X0016002Y0148937D01*
X0016000Y0149000D01*
X0012000Y0149000D02*
X0012002Y0149063D01*
X0012008Y0149125D01*
X0012018Y0149187D01*
X0012031Y0149249D01*
X0012049Y0149309D01*
X0012070Y0149368D01*
X0012095Y0149426D01*
X0012124Y0149482D01*
X0012156Y0149536D01*
X0012191Y0149588D01*
X0012229Y0149637D01*
X0012271Y0149685D01*
X0012315Y0149729D01*
X0012363Y0149771D01*
X0012412Y0149809D01*
X0012464Y0149844D01*
X0012518Y0149876D01*
X0012574Y0149905D01*
X0012632Y0149930D01*
X0012691Y0149951D01*
X0012751Y0149969D01*
X0012813Y0149982D01*
X0012875Y0149992D01*
X0012937Y0149998D01*
X0013000Y0150000D01*
X0013063Y0149998D01*
X0013125Y0149992D01*
X0013187Y0149982D01*
X0013249Y0149969D01*
X0013309Y0149951D01*
X0013368Y0149930D01*
X0013426Y0149905D01*
X0013482Y0149876D01*
X0013536Y0149844D01*
X0013588Y0149809D01*
X0013637Y0149771D01*
X0013685Y0149729D01*
X0013729Y0149685D01*
X0013771Y0149637D01*
X0013809Y0149588D01*
X0013844Y0149536D01*
X0013876Y0149482D01*
X0013905Y0149426D01*
X0013930Y0149368D01*
X0013951Y0149309D01*
X0013969Y0149249D01*
X0013982Y0149187D01*
X0013992Y0149125D01*
X0013998Y0149063D01*
X0014000Y0149000D01*
X0013998Y0148937D01*
X0013992Y0148875D01*
X0013982Y0148813D01*
X0013969Y0148751D01*
X0013951Y0148691D01*
X0013930Y0148632D01*
X0013905Y0148574D01*
X0013876Y0148518D01*
X0013844Y0148464D01*
X0013809Y0148412D01*
X0013771Y0148363D01*
X0013729Y0148315D01*
X0013685Y0148271D01*
X0013637Y0148229D01*
X0013588Y0148191D01*
X0013536Y0148156D01*
X0013482Y0148124D01*
X0013426Y0148095D01*
X0013368Y0148070D01*
X0013309Y0148049D01*
X0013249Y0148031D01*
X0013187Y0148018D01*
X0013125Y0148008D01*
X0013063Y0148002D01*
X0013000Y0148000D01*
X0012937Y0148002D01*
X0012875Y0148008D01*
X0012813Y0148018D01*
X0012751Y0148031D01*
X0012691Y0148049D01*
X0012632Y0148070D01*
X0012574Y0148095D01*
X0012518Y0148124D01*
X0012464Y0148156D01*
X0012412Y0148191D01*
X0012363Y0148229D01*
X0012315Y0148271D01*
X0012271Y0148315D01*
X0012229Y0148363D01*
X0012191Y0148412D01*
X0012156Y0148464D01*
X0012124Y0148518D01*
X0012095Y0148574D01*
X0012070Y0148632D01*
X0012049Y0148691D01*
X0012031Y0148751D01*
X0012018Y0148813D01*
X0012008Y0148875D01*
X0012002Y0148937D01*
X0012000Y0149000D01*
X0008000Y0149000D02*
X0008002Y0149063D01*
X0008008Y0149125D01*
X0008018Y0149187D01*
X0008031Y0149249D01*
X0008049Y0149309D01*
X0008070Y0149368D01*
X0008095Y0149426D01*
X0008124Y0149482D01*
X0008156Y0149536D01*
X0008191Y0149588D01*
X0008229Y0149637D01*
X0008271Y0149685D01*
X0008315Y0149729D01*
X0008363Y0149771D01*
X0008412Y0149809D01*
X0008464Y0149844D01*
X0008518Y0149876D01*
X0008574Y0149905D01*
X0008632Y0149930D01*
X0008691Y0149951D01*
X0008751Y0149969D01*
X0008813Y0149982D01*
X0008875Y0149992D01*
X0008937Y0149998D01*
X0009000Y0150000D01*
X0009063Y0149998D01*
X0009125Y0149992D01*
X0009187Y0149982D01*
X0009249Y0149969D01*
X0009309Y0149951D01*
X0009368Y0149930D01*
X0009426Y0149905D01*
X0009482Y0149876D01*
X0009536Y0149844D01*
X0009588Y0149809D01*
X0009637Y0149771D01*
X0009685Y0149729D01*
X0009729Y0149685D01*
X0009771Y0149637D01*
X0009809Y0149588D01*
X0009844Y0149536D01*
X0009876Y0149482D01*
X0009905Y0149426D01*
X0009930Y0149368D01*
X0009951Y0149309D01*
X0009969Y0149249D01*
X0009982Y0149187D01*
X0009992Y0149125D01*
X0009998Y0149063D01*
X0010000Y0149000D01*
X0009998Y0148937D01*
X0009992Y0148875D01*
X0009982Y0148813D01*
X0009969Y0148751D01*
X0009951Y0148691D01*
X0009930Y0148632D01*
X0009905Y0148574D01*
X0009876Y0148518D01*
X0009844Y0148464D01*
X0009809Y0148412D01*
X0009771Y0148363D01*
X0009729Y0148315D01*
X0009685Y0148271D01*
X0009637Y0148229D01*
X0009588Y0148191D01*
X0009536Y0148156D01*
X0009482Y0148124D01*
X0009426Y0148095D01*
X0009368Y0148070D01*
X0009309Y0148049D01*
X0009249Y0148031D01*
X0009187Y0148018D01*
X0009125Y0148008D01*
X0009063Y0148002D01*
X0009000Y0148000D01*
X0008937Y0148002D01*
X0008875Y0148008D01*
X0008813Y0148018D01*
X0008751Y0148031D01*
X0008691Y0148049D01*
X0008632Y0148070D01*
X0008574Y0148095D01*
X0008518Y0148124D01*
X0008464Y0148156D01*
X0008412Y0148191D01*
X0008363Y0148229D01*
X0008315Y0148271D01*
X0008271Y0148315D01*
X0008229Y0148363D01*
X0008191Y0148412D01*
X0008156Y0148464D01*
X0008124Y0148518D01*
X0008095Y0148574D01*
X0008070Y0148632D01*
X0008049Y0148691D01*
X0008031Y0148751D01*
X0008018Y0148813D01*
X0008008Y0148875D01*
X0008002Y0148937D01*
X0008000Y0149000D01*
X0004000Y0149000D02*
X0004002Y0149063D01*
X0004008Y0149125D01*
X0004018Y0149187D01*
X0004031Y0149249D01*
X0004049Y0149309D01*
X0004070Y0149368D01*
X0004095Y0149426D01*
X0004124Y0149482D01*
X0004156Y0149536D01*
X0004191Y0149588D01*
X0004229Y0149637D01*
X0004271Y0149685D01*
X0004315Y0149729D01*
X0004363Y0149771D01*
X0004412Y0149809D01*
X0004464Y0149844D01*
X0004518Y0149876D01*
X0004574Y0149905D01*
X0004632Y0149930D01*
X0004691Y0149951D01*
X0004751Y0149969D01*
X0004813Y0149982D01*
X0004875Y0149992D01*
X0004937Y0149998D01*
X0005000Y0150000D01*
X0005063Y0149998D01*
X0005125Y0149992D01*
X0005187Y0149982D01*
X0005249Y0149969D01*
X0005309Y0149951D01*
X0005368Y0149930D01*
X0005426Y0149905D01*
X0005482Y0149876D01*
X0005536Y0149844D01*
X0005588Y0149809D01*
X0005637Y0149771D01*
X0005685Y0149729D01*
X0005729Y0149685D01*
X0005771Y0149637D01*
X0005809Y0149588D01*
X0005844Y0149536D01*
X0005876Y0149482D01*
X0005905Y0149426D01*
X0005930Y0149368D01*
X0005951Y0149309D01*
X0005969Y0149249D01*
X0005982Y0149187D01*
X0005992Y0149125D01*
X0005998Y0149063D01*
X0006000Y0149000D01*
X0005998Y0148937D01*
X0005992Y0148875D01*
X0005982Y0148813D01*
X0005969Y0148751D01*
X0005951Y0148691D01*
X0005930Y0148632D01*
X0005905Y0148574D01*
X0005876Y0148518D01*
X0005844Y0148464D01*
X0005809Y0148412D01*
X0005771Y0148363D01*
X0005729Y0148315D01*
X0005685Y0148271D01*
X0005637Y0148229D01*
X0005588Y0148191D01*
X0005536Y0148156D01*
X0005482Y0148124D01*
X0005426Y0148095D01*
X0005368Y0148070D01*
X0005309Y0148049D01*
X0005249Y0148031D01*
X0005187Y0148018D01*
X0005125Y0148008D01*
X0005063Y0148002D01*
X0005000Y0148000D01*
X0004937Y0148002D01*
X0004875Y0148008D01*
X0004813Y0148018D01*
X0004751Y0148031D01*
X0004691Y0148049D01*
X0004632Y0148070D01*
X0004574Y0148095D01*
X0004518Y0148124D01*
X0004464Y0148156D01*
X0004412Y0148191D01*
X0004363Y0148229D01*
X0004315Y0148271D01*
X0004271Y0148315D01*
X0004229Y0148363D01*
X0004191Y0148412D01*
X0004156Y0148464D01*
X0004124Y0148518D01*
X0004095Y0148574D01*
X0004070Y0148632D01*
X0004049Y0148691D01*
X0004031Y0148751D01*
X0004018Y0148813D01*
X0004008Y0148875D01*
X0004002Y0148937D01*
X0004000Y0149000D01*
X0000000Y0149000D02*
X0000002Y0149063D01*
X0000008Y0149125D01*
X0000018Y0149187D01*
X0000031Y0149249D01*
X0000049Y0149309D01*
X0000070Y0149368D01*
X0000095Y0149426D01*
X0000124Y0149482D01*
X0000156Y0149536D01*
X0000191Y0149588D01*
X0000229Y0149637D01*
X0000271Y0149685D01*
X0000315Y0149729D01*
X0000363Y0149771D01*
X0000412Y0149809D01*
X0000464Y0149844D01*
X0000518Y0149876D01*
X0000574Y0149905D01*
X0000632Y0149930D01*
X0000691Y0149951D01*
X0000751Y0149969D01*
X0000813Y0149982D01*
X0000875Y0149992D01*
X0000937Y0149998D01*
X0001000Y0150000D01*
X0001063Y0149998D01*
X0001125Y0149992D01*
X0001187Y0149982D01*
X0001249Y0149969D01*
X0001309Y0149951D01*
X0001368Y0149930D01*
X0001426Y0149905D01*
X0001482Y0149876D01*
X0001536Y0149844D01*
X0001588Y0149809D01*
X0001637Y0149771D01*
X0001685Y0149729D01*
X0001729Y0149685D01*
X0001771Y0149637D01*
X0001809Y0149588D01*
X0001844Y0149536D01*
X0001876Y0149482D01*
X0001905Y0149426D01*
X0001930Y0149368D01*
X0001951Y0149309D01*
X0001969Y0149249D01*
X0001982Y0149187D01*
X0001992Y0149125D01*
X0001998Y0149063D01*
X0002000Y0149000D01*
X0001998Y0148937D01*
X0001992Y0148875D01*
X0001982Y0148813D01*
X0001969Y0148751D01*
X0001951Y0148691D01*
X0001930Y0148632D01*
X0001905Y0148574D01*
X0001876Y0148518D01*
X0001844Y0148464D01*
X0001809Y0148412D01*
X0001771Y0148363D01*
X0001729Y0148315D01*
X0001685Y0148271D01*
X0001637Y0148229D01*
X0001588Y0148191D01*
X0001536Y0148156D01*
X0001482Y0148124D01*
X0001426Y0148095D01*
X0001368Y0148070D01*
X0001309Y0148049D01*
X0001249Y0148031D01*
X0001187Y0148018D01*
X0001125Y0148008D01*
X0001063Y0148002D01*
X0001000Y0148000D01*
X0000937Y0148002D01*
X0000875Y0148008D01*
X0000813Y0148018D01*
X0000751Y0148031D01*
X0000691Y0148049D01*
X0000632Y0148070D01*
X0000574Y0148095D01*
X0000518Y0148124D01*
X0000464Y0148156D01*
X0000412Y0148191D01*
X0000363Y0148229D01*
X0000315Y0148271D01*
X0000271Y0148315D01*
X0000229Y0148363D01*
X0000191Y0148412D01*
X0000156Y0148464D01*
X0000124Y0148518D01*
X0000095Y0148574D01*
X0000070Y0148632D01*
X0000049Y0148691D01*
X0000031Y0148751D01*
X0000018Y0148813D01*
X0000008Y0148875D01*
X0000002Y0148937D01*
X0000000Y0149000D01*
X-0001000Y0147500D02*
X-0000998Y0147563D01*
X-0000992Y0147625D01*
X-0000982Y0147687D01*
X-0000969Y0147749D01*
X-0000951Y0147809D01*
X-0000930Y0147868D01*
X-0000905Y0147926D01*
X-0000876Y0147982D01*
X-0000844Y0148036D01*
X-0000809Y0148088D01*
X-0000771Y0148137D01*
X-0000729Y0148185D01*
X-0000685Y0148229D01*
X-0000637Y0148271D01*
X-0000588Y0148309D01*
X-0000536Y0148344D01*
X-0000482Y0148376D01*
X-0000426Y0148405D01*
X-0000368Y0148430D01*
X-0000309Y0148451D01*
X-0000249Y0148469D01*
X-0000187Y0148482D01*
X-0000125Y0148492D01*
X-0000063Y0148498D01*
X0000000Y0148500D01*
X0000063Y0148498D01*
X0000125Y0148492D01*
X0000187Y0148482D01*
X0000249Y0148469D01*
X0000309Y0148451D01*
X0000368Y0148430D01*
X0000426Y0148405D01*
X0000482Y0148376D01*
X0000536Y0148344D01*
X0000588Y0148309D01*
X0000637Y0148271D01*
X0000685Y0148229D01*
X0000729Y0148185D01*
X0000771Y0148137D01*
X0000809Y0148088D01*
X0000844Y0148036D01*
X0000876Y0147982D01*
X0000905Y0147926D01*
X0000930Y0147868D01*
X0000951Y0147809D01*
X0000969Y0147749D01*
X0000982Y0147687D01*
X0000992Y0147625D01*
X0000998Y0147563D01*
X0001000Y0147500D01*
X0000998Y0147437D01*
X0000992Y0147375D01*
X0000982Y0147313D01*
X0000969Y0147251D01*
X0000951Y0147191D01*
X0000930Y0147132D01*
X0000905Y0147074D01*
X0000876Y0147018D01*
X0000844Y0146964D01*
X0000809Y0146912D01*
X0000771Y0146863D01*
X0000729Y0146815D01*
X0000685Y0146771D01*
X0000637Y0146729D01*
X0000588Y0146691D01*
X0000536Y0146656D01*
X0000482Y0146624D01*
X0000426Y0146595D01*
X0000368Y0146570D01*
X0000309Y0146549D01*
X0000249Y0146531D01*
X0000187Y0146518D01*
X0000125Y0146508D01*
X0000063Y0146502D01*
X0000000Y0146500D01*
X-0000063Y0146502D01*
X-0000125Y0146508D01*
X-0000187Y0146518D01*
X-0000249Y0146531D01*
X-0000309Y0146549D01*
X-0000368Y0146570D01*
X-0000426Y0146595D01*
X-0000482Y0146624D01*
X-0000536Y0146656D01*
X-0000588Y0146691D01*
X-0000637Y0146729D01*
X-0000685Y0146771D01*
X-0000729Y0146815D01*
X-0000771Y0146863D01*
X-0000809Y0146912D01*
X-0000844Y0146964D01*
X-0000876Y0147018D01*
X-0000905Y0147074D01*
X-0000930Y0147132D01*
X-0000951Y0147191D01*
X-0000969Y0147251D01*
X-0000982Y0147313D01*
X-0000992Y0147375D01*
X-0000998Y0147437D01*
X-0001000Y0147500D01*
X-0001000Y0143500D02*
X-0000998Y0143563D01*
X-0000992Y0143625D01*
X-0000982Y0143687D01*
X-0000969Y0143749D01*
X-0000951Y0143809D01*
X-0000930Y0143868D01*
X-0000905Y0143926D01*
X-0000876Y0143982D01*
X-0000844Y0144036D01*
X-0000809Y0144088D01*
X-0000771Y0144137D01*
X-0000729Y0144185D01*
X-0000685Y0144229D01*
X-0000637Y0144271D01*
X-0000588Y0144309D01*
X-0000536Y0144344D01*
X-0000482Y0144376D01*
X-0000426Y0144405D01*
X-0000368Y0144430D01*
X-0000309Y0144451D01*
X-0000249Y0144469D01*
X-0000187Y0144482D01*
X-0000125Y0144492D01*
X-0000063Y0144498D01*
X0000000Y0144500D01*
X0000063Y0144498D01*
X0000125Y0144492D01*
X0000187Y0144482D01*
X0000249Y0144469D01*
X0000309Y0144451D01*
X0000368Y0144430D01*
X0000426Y0144405D01*
X0000482Y0144376D01*
X0000536Y0144344D01*
X0000588Y0144309D01*
X0000637Y0144271D01*
X0000685Y0144229D01*
X0000729Y0144185D01*
X0000771Y0144137D01*
X0000809Y0144088D01*
X0000844Y0144036D01*
X0000876Y0143982D01*
X0000905Y0143926D01*
X0000930Y0143868D01*
X0000951Y0143809D01*
X0000969Y0143749D01*
X0000982Y0143687D01*
X0000992Y0143625D01*
X0000998Y0143563D01*
X0001000Y0143500D01*
X0000998Y0143437D01*
X0000992Y0143375D01*
X0000982Y0143313D01*
X0000969Y0143251D01*
X0000951Y0143191D01*
X0000930Y0143132D01*
X0000905Y0143074D01*
X0000876Y0143018D01*
X0000844Y0142964D01*
X0000809Y0142912D01*
X0000771Y0142863D01*
X0000729Y0142815D01*
X0000685Y0142771D01*
X0000637Y0142729D01*
X0000588Y0142691D01*
X0000536Y0142656D01*
X0000482Y0142624D01*
X0000426Y0142595D01*
X0000368Y0142570D01*
X0000309Y0142549D01*
X0000249Y0142531D01*
X0000187Y0142518D01*
X0000125Y0142508D01*
X0000063Y0142502D01*
X0000000Y0142500D01*
X-0000063Y0142502D01*
X-0000125Y0142508D01*
X-0000187Y0142518D01*
X-0000249Y0142531D01*
X-0000309Y0142549D01*
X-0000368Y0142570D01*
X-0000426Y0142595D01*
X-0000482Y0142624D01*
X-0000536Y0142656D01*
X-0000588Y0142691D01*
X-0000637Y0142729D01*
X-0000685Y0142771D01*
X-0000729Y0142815D01*
X-0000771Y0142863D01*
X-0000809Y0142912D01*
X-0000844Y0142964D01*
X-0000876Y0143018D01*
X-0000905Y0143074D01*
X-0000930Y0143132D01*
X-0000951Y0143191D01*
X-0000969Y0143251D01*
X-0000982Y0143313D01*
X-0000992Y0143375D01*
X-0000998Y0143437D01*
X-0001000Y0143500D01*
X-0001000Y0139500D02*
X-0000998Y0139563D01*
X-0000992Y0139625D01*
X-0000982Y0139687D01*
X-0000969Y0139749D01*
X-0000951Y0139809D01*
X-0000930Y0139868D01*
X-0000905Y0139926D01*
X-0000876Y0139982D01*
X-0000844Y0140036D01*
X-0000809Y0140088D01*
X-0000771Y0140137D01*
X-0000729Y0140185D01*
X-0000685Y0140229D01*
X-0000637Y0140271D01*
X-0000588Y0140309D01*
X-0000536Y0140344D01*
X-0000482Y0140376D01*
X-0000426Y0140405D01*
X-0000368Y0140430D01*
X-0000309Y0140451D01*
X-0000249Y0140469D01*
X-0000187Y0140482D01*
X-0000125Y0140492D01*
X-0000063Y0140498D01*
X0000000Y0140500D01*
X0000063Y0140498D01*
X0000125Y0140492D01*
X0000187Y0140482D01*
X0000249Y0140469D01*
X0000309Y0140451D01*
X0000368Y0140430D01*
X0000426Y0140405D01*
X0000482Y0140376D01*
X0000536Y0140344D01*
X0000588Y0140309D01*
X0000637Y0140271D01*
X0000685Y0140229D01*
X0000729Y0140185D01*
X0000771Y0140137D01*
X0000809Y0140088D01*
X0000844Y0140036D01*
X0000876Y0139982D01*
X0000905Y0139926D01*
X0000930Y0139868D01*
X0000951Y0139809D01*
X0000969Y0139749D01*
X0000982Y0139687D01*
X0000992Y0139625D01*
X0000998Y0139563D01*
X0001000Y0139500D01*
X0000998Y0139437D01*
X0000992Y0139375D01*
X0000982Y0139313D01*
X0000969Y0139251D01*
X0000951Y0139191D01*
X0000930Y0139132D01*
X0000905Y0139074D01*
X0000876Y0139018D01*
X0000844Y0138964D01*
X0000809Y0138912D01*
X0000771Y0138863D01*
X0000729Y0138815D01*
X0000685Y0138771D01*
X0000637Y0138729D01*
X0000588Y0138691D01*
X0000536Y0138656D01*
X0000482Y0138624D01*
X0000426Y0138595D01*
X0000368Y0138570D01*
X0000309Y0138549D01*
X0000249Y0138531D01*
X0000187Y0138518D01*
X0000125Y0138508D01*
X0000063Y0138502D01*
X0000000Y0138500D01*
X-0000063Y0138502D01*
X-0000125Y0138508D01*
X-0000187Y0138518D01*
X-0000249Y0138531D01*
X-0000309Y0138549D01*
X-0000368Y0138570D01*
X-0000426Y0138595D01*
X-0000482Y0138624D01*
X-0000536Y0138656D01*
X-0000588Y0138691D01*
X-0000637Y0138729D01*
X-0000685Y0138771D01*
X-0000729Y0138815D01*
X-0000771Y0138863D01*
X-0000809Y0138912D01*
X-0000844Y0138964D01*
X-0000876Y0139018D01*
X-0000905Y0139074D01*
X-0000930Y0139132D01*
X-0000951Y0139191D01*
X-0000969Y0139251D01*
X-0000982Y0139313D01*
X-0000992Y0139375D01*
X-0000998Y0139437D01*
X-0001000Y0139500D01*
X-0001000Y0135500D02*
X-0000998Y0135563D01*
X-0000992Y0135625D01*
X-0000982Y0135687D01*
X-0000969Y0135749D01*
X-0000951Y0135809D01*
X-0000930Y0135868D01*
X-0000905Y0135926D01*
X-0000876Y0135982D01*
X-0000844Y0136036D01*
X-0000809Y0136088D01*
X-0000771Y0136137D01*
X-0000729Y0136185D01*
X-0000685Y0136229D01*
X-0000637Y0136271D01*
X-0000588Y0136309D01*
X-0000536Y0136344D01*
X-0000482Y0136376D01*
X-0000426Y0136405D01*
X-0000368Y0136430D01*
X-0000309Y0136451D01*
X-0000249Y0136469D01*
X-0000187Y0136482D01*
X-0000125Y0136492D01*
X-0000063Y0136498D01*
X0000000Y0136500D01*
X0000063Y0136498D01*
X0000125Y0136492D01*
X0000187Y0136482D01*
X0000249Y0136469D01*
X0000309Y0136451D01*
X0000368Y0136430D01*
X0000426Y0136405D01*
X0000482Y0136376D01*
X0000536Y0136344D01*
X0000588Y0136309D01*
X0000637Y0136271D01*
X0000685Y0136229D01*
X0000729Y0136185D01*
X0000771Y0136137D01*
X0000809Y0136088D01*
X0000844Y0136036D01*
X0000876Y0135982D01*
X0000905Y0135926D01*
X0000930Y0135868D01*
X0000951Y0135809D01*
X0000969Y0135749D01*
X0000982Y0135687D01*
X0000992Y0135625D01*
X0000998Y0135563D01*
X0001000Y0135500D01*
X0000998Y0135437D01*
X0000992Y0135375D01*
X0000982Y0135313D01*
X0000969Y0135251D01*
X0000951Y0135191D01*
X0000930Y0135132D01*
X0000905Y0135074D01*
X0000876Y0135018D01*
X0000844Y0134964D01*
X0000809Y0134912D01*
X0000771Y0134863D01*
X0000729Y0134815D01*
X0000685Y0134771D01*
X0000637Y0134729D01*
X0000588Y0134691D01*
X0000536Y0134656D01*
X0000482Y0134624D01*
X0000426Y0134595D01*
X0000368Y0134570D01*
X0000309Y0134549D01*
X0000249Y0134531D01*
X0000187Y0134518D01*
X0000125Y0134508D01*
X0000063Y0134502D01*
X0000000Y0134500D01*
X-0000063Y0134502D01*
X-0000125Y0134508D01*
X-0000187Y0134518D01*
X-0000249Y0134531D01*
X-0000309Y0134549D01*
X-0000368Y0134570D01*
X-0000426Y0134595D01*
X-0000482Y0134624D01*
X-0000536Y0134656D01*
X-0000588Y0134691D01*
X-0000637Y0134729D01*
X-0000685Y0134771D01*
X-0000729Y0134815D01*
X-0000771Y0134863D01*
X-0000809Y0134912D01*
X-0000844Y0134964D01*
X-0000876Y0135018D01*
X-0000905Y0135074D01*
X-0000930Y0135132D01*
X-0000951Y0135191D01*
X-0000969Y0135251D01*
X-0000982Y0135313D01*
X-0000992Y0135375D01*
X-0000998Y0135437D01*
X-0001000Y0135500D01*
X-0001000Y0131500D02*
X-0000998Y0131563D01*
X-0000992Y0131625D01*
X-0000982Y0131687D01*
X-0000969Y0131749D01*
X-0000951Y0131809D01*
X-0000930Y0131868D01*
X-0000905Y0131926D01*
X-0000876Y0131982D01*
X-0000844Y0132036D01*
X-0000809Y0132088D01*
X-0000771Y0132137D01*
X-0000729Y0132185D01*
X-0000685Y0132229D01*
X-0000637Y0132271D01*
X-0000588Y0132309D01*
X-0000536Y0132344D01*
X-0000482Y0132376D01*
X-0000426Y0132405D01*
X-0000368Y0132430D01*
X-0000309Y0132451D01*
X-0000249Y0132469D01*
X-0000187Y0132482D01*
X-0000125Y0132492D01*
X-0000063Y0132498D01*
X0000000Y0132500D01*
X0000063Y0132498D01*
X0000125Y0132492D01*
X0000187Y0132482D01*
X0000249Y0132469D01*
X0000309Y0132451D01*
X0000368Y0132430D01*
X0000426Y0132405D01*
X0000482Y0132376D01*
X0000536Y0132344D01*
X0000588Y0132309D01*
X0000637Y0132271D01*
X0000685Y0132229D01*
X0000729Y0132185D01*
X0000771Y0132137D01*
X0000809Y0132088D01*
X0000844Y0132036D01*
X0000876Y0131982D01*
X0000905Y0131926D01*
X0000930Y0131868D01*
X0000951Y0131809D01*
X0000969Y0131749D01*
X0000982Y0131687D01*
X0000992Y0131625D01*
X0000998Y0131563D01*
X0001000Y0131500D01*
X0000998Y0131437D01*
X0000992Y0131375D01*
X0000982Y0131313D01*
X0000969Y0131251D01*
X0000951Y0131191D01*
X0000930Y0131132D01*
X0000905Y0131074D01*
X0000876Y0131018D01*
X0000844Y0130964D01*
X0000809Y0130912D01*
X0000771Y0130863D01*
X0000729Y0130815D01*
X0000685Y0130771D01*
X0000637Y0130729D01*
X0000588Y0130691D01*
X0000536Y0130656D01*
X0000482Y0130624D01*
X0000426Y0130595D01*
X0000368Y0130570D01*
X0000309Y0130549D01*
X0000249Y0130531D01*
X0000187Y0130518D01*
X0000125Y0130508D01*
X0000063Y0130502D01*
X0000000Y0130500D01*
X-0000063Y0130502D01*
X-0000125Y0130508D01*
X-0000187Y0130518D01*
X-0000249Y0130531D01*
X-0000309Y0130549D01*
X-0000368Y0130570D01*
X-0000426Y0130595D01*
X-0000482Y0130624D01*
X-0000536Y0130656D01*
X-0000588Y0130691D01*
X-0000637Y0130729D01*
X-0000685Y0130771D01*
X-0000729Y0130815D01*
X-0000771Y0130863D01*
X-0000809Y0130912D01*
X-0000844Y0130964D01*
X-0000876Y0131018D01*
X-0000905Y0131074D01*
X-0000930Y0131132D01*
X-0000951Y0131191D01*
X-0000969Y0131251D01*
X-0000982Y0131313D01*
X-0000992Y0131375D01*
X-0000998Y0131437D01*
X-0001000Y0131500D01*
X-0001000Y0127500D02*
X-0000998Y0127563D01*
X-0000992Y0127625D01*
X-0000982Y0127687D01*
X-0000969Y0127749D01*
X-0000951Y0127809D01*
X-0000930Y0127868D01*
X-0000905Y0127926D01*
X-0000876Y0127982D01*
X-0000844Y0128036D01*
X-0000809Y0128088D01*
X-0000771Y0128137D01*
X-0000729Y0128185D01*
X-0000685Y0128229D01*
X-0000637Y0128271D01*
X-0000588Y0128309D01*
X-0000536Y0128344D01*
X-0000482Y0128376D01*
X-0000426Y0128405D01*
X-0000368Y0128430D01*
X-0000309Y0128451D01*
X-0000249Y0128469D01*
X-0000187Y0128482D01*
X-0000125Y0128492D01*
X-0000063Y0128498D01*
X0000000Y0128500D01*
X0000063Y0128498D01*
X0000125Y0128492D01*
X0000187Y0128482D01*
X0000249Y0128469D01*
X0000309Y0128451D01*
X0000368Y0128430D01*
X0000426Y0128405D01*
X0000482Y0128376D01*
X0000536Y0128344D01*
X0000588Y0128309D01*
X0000637Y0128271D01*
X0000685Y0128229D01*
X0000729Y0128185D01*
X0000771Y0128137D01*
X0000809Y0128088D01*
X0000844Y0128036D01*
X0000876Y0127982D01*
X0000905Y0127926D01*
X0000930Y0127868D01*
X0000951Y0127809D01*
X0000969Y0127749D01*
X0000982Y0127687D01*
X0000992Y0127625D01*
X0000998Y0127563D01*
X0001000Y0127500D01*
X0000998Y0127437D01*
X0000992Y0127375D01*
X0000982Y0127313D01*
X0000969Y0127251D01*
X0000951Y0127191D01*
X0000930Y0127132D01*
X0000905Y0127074D01*
X0000876Y0127018D01*
X0000844Y0126964D01*
X0000809Y0126912D01*
X0000771Y0126863D01*
X0000729Y0126815D01*
X0000685Y0126771D01*
X0000637Y0126729D01*
X0000588Y0126691D01*
X0000536Y0126656D01*
X0000482Y0126624D01*
X0000426Y0126595D01*
X0000368Y0126570D01*
X0000309Y0126549D01*
X0000249Y0126531D01*
X0000187Y0126518D01*
X0000125Y0126508D01*
X0000063Y0126502D01*
X0000000Y0126500D01*
X-0000063Y0126502D01*
X-0000125Y0126508D01*
X-0000187Y0126518D01*
X-0000249Y0126531D01*
X-0000309Y0126549D01*
X-0000368Y0126570D01*
X-0000426Y0126595D01*
X-0000482Y0126624D01*
X-0000536Y0126656D01*
X-0000588Y0126691D01*
X-0000637Y0126729D01*
X-0000685Y0126771D01*
X-0000729Y0126815D01*
X-0000771Y0126863D01*
X-0000809Y0126912D01*
X-0000844Y0126964D01*
X-0000876Y0127018D01*
X-0000905Y0127074D01*
X-0000930Y0127132D01*
X-0000951Y0127191D01*
X-0000969Y0127251D01*
X-0000982Y0127313D01*
X-0000992Y0127375D01*
X-0000998Y0127437D01*
X-0001000Y0127500D01*
X-0001000Y0123500D02*
X-0000998Y0123563D01*
X-0000992Y0123625D01*
X-0000982Y0123687D01*
X-0000969Y0123749D01*
X-0000951Y0123809D01*
X-0000930Y0123868D01*
X-0000905Y0123926D01*
X-0000876Y0123982D01*
X-0000844Y0124036D01*
X-0000809Y0124088D01*
X-0000771Y0124137D01*
X-0000729Y0124185D01*
X-0000685Y0124229D01*
X-0000637Y0124271D01*
X-0000588Y0124309D01*
X-0000536Y0124344D01*
X-0000482Y0124376D01*
X-0000426Y0124405D01*
X-0000368Y0124430D01*
X-0000309Y0124451D01*
X-0000249Y0124469D01*
X-0000187Y0124482D01*
X-0000125Y0124492D01*
X-0000063Y0124498D01*
X0000000Y0124500D01*
X0000063Y0124498D01*
X0000125Y0124492D01*
X0000187Y0124482D01*
X0000249Y0124469D01*
X0000309Y0124451D01*
X0000368Y0124430D01*
X0000426Y0124405D01*
X0000482Y0124376D01*
X0000536Y0124344D01*
X0000588Y0124309D01*
X0000637Y0124271D01*
X0000685Y0124229D01*
X0000729Y0124185D01*
X0000771Y0124137D01*
X0000809Y0124088D01*
X0000844Y0124036D01*
X0000876Y0123982D01*
X0000905Y0123926D01*
X0000930Y0123868D01*
X0000951Y0123809D01*
X0000969Y0123749D01*
X0000982Y0123687D01*
X0000992Y0123625D01*
X0000998Y0123563D01*
X0001000Y0123500D01*
X0000998Y0123437D01*
X0000992Y0123375D01*
X0000982Y0123313D01*
X0000969Y0123251D01*
X0000951Y0123191D01*
X0000930Y0123132D01*
X0000905Y0123074D01*
X0000876Y0123018D01*
X0000844Y0122964D01*
X0000809Y0122912D01*
X0000771Y0122863D01*
X0000729Y0122815D01*
X0000685Y0122771D01*
X0000637Y0122729D01*
X0000588Y0122691D01*
X0000536Y0122656D01*
X0000482Y0122624D01*
X0000426Y0122595D01*
X0000368Y0122570D01*
X0000309Y0122549D01*
X0000249Y0122531D01*
X0000187Y0122518D01*
X0000125Y0122508D01*
X0000063Y0122502D01*
X0000000Y0122500D01*
X-0000063Y0122502D01*
X-0000125Y0122508D01*
X-0000187Y0122518D01*
X-0000249Y0122531D01*
X-0000309Y0122549D01*
X-0000368Y0122570D01*
X-0000426Y0122595D01*
X-0000482Y0122624D01*
X-0000536Y0122656D01*
X-0000588Y0122691D01*
X-0000637Y0122729D01*
X-0000685Y0122771D01*
X-0000729Y0122815D01*
X-0000771Y0122863D01*
X-0000809Y0122912D01*
X-0000844Y0122964D01*
X-0000876Y0123018D01*
X-0000905Y0123074D01*
X-0000930Y0123132D01*
X-0000951Y0123191D01*
X-0000969Y0123251D01*
X-0000982Y0123313D01*
X-0000992Y0123375D01*
X-0000998Y0123437D01*
X-0001000Y0123500D01*
X-0021063Y0135827D02*
X-0021061Y0135985D01*
X-0021055Y0136143D01*
X-0021045Y0136301D01*
X-0021031Y0136459D01*
X-0021013Y0136616D01*
X-0020992Y0136773D01*
X-0020966Y0136929D01*
X-0020936Y0137085D01*
X-0020903Y0137240D01*
X-0020865Y0137393D01*
X-0020824Y0137546D01*
X-0020779Y0137698D01*
X-0020730Y0137849D01*
X-0020677Y0137998D01*
X-0020621Y0138146D01*
X-0020561Y0138292D01*
X-0020497Y0138437D01*
X-0020429Y0138580D01*
X-0020358Y0138722D01*
X-0020284Y0138862D01*
X-0020206Y0138999D01*
X-0020124Y0139135D01*
X-0020040Y0139269D01*
X-0019951Y0139400D01*
X-0019860Y0139529D01*
X-0019765Y0139656D01*
X-0019668Y0139781D01*
X-0019567Y0139903D01*
X-0019463Y0140022D01*
X-0019356Y0140139D01*
X-0019246Y0140253D01*
X-0019133Y0140364D01*
X-0019018Y0140473D01*
X-0018900Y0140578D01*
X-0018779Y0140680D01*
X-0018656Y0140780D01*
X-0018530Y0140876D01*
X-0018402Y0140969D01*
X-0018272Y0141059D01*
X-0018139Y0141145D01*
X-0018004Y0141229D01*
X-0017868Y0141308D01*
X-0017729Y0141385D01*
X-0017588Y0141457D01*
X-0017446Y0141527D01*
X-0017302Y0141592D01*
X-0017156Y0141654D01*
X-0017009Y0141712D01*
X-0016860Y0141767D01*
X-0016710Y0141818D01*
X-0016559Y0141865D01*
X-0016407Y0141908D01*
X-0016254Y0141947D01*
X-0016099Y0141983D01*
X-0015944Y0142014D01*
X-0015788Y0142042D01*
X-0015632Y0142066D01*
X-0015475Y0142086D01*
X-0015317Y0142102D01*
X-0015160Y0142114D01*
X-0015001Y0142122D01*
X-0014843Y0142126D01*
X-0014685Y0142126D01*
X-0014527Y0142122D01*
X-0014368Y0142114D01*
X-0014211Y0142102D01*
X-0014053Y0142086D01*
X-0013896Y0142066D01*
X-0013740Y0142042D01*
X-0013584Y0142014D01*
X-0013429Y0141983D01*
X-0013274Y0141947D01*
X-0013121Y0141908D01*
X-0012969Y0141865D01*
X-0012818Y0141818D01*
X-0012668Y0141767D01*
X-0012519Y0141712D01*
X-0012372Y0141654D01*
X-0012226Y0141592D01*
X-0012082Y0141527D01*
X-0011940Y0141457D01*
X-0011799Y0141385D01*
X-0011660Y0141308D01*
X-0011524Y0141229D01*
X-0011389Y0141145D01*
X-0011256Y0141059D01*
X-0011126Y0140969D01*
X-0010998Y0140876D01*
X-0010872Y0140780D01*
X-0010749Y0140680D01*
X-0010628Y0140578D01*
X-0010510Y0140473D01*
X-0010395Y0140364D01*
X-0010282Y0140253D01*
X-0010172Y0140139D01*
X-0010065Y0140022D01*
X-0009961Y0139903D01*
X-0009860Y0139781D01*
X-0009763Y0139656D01*
X-0009668Y0139529D01*
X-0009577Y0139400D01*
X-0009488Y0139269D01*
X-0009404Y0139135D01*
X-0009322Y0138999D01*
X-0009244Y0138862D01*
X-0009170Y0138722D01*
X-0009099Y0138580D01*
X-0009031Y0138437D01*
X-0008967Y0138292D01*
X-0008907Y0138146D01*
X-0008851Y0137998D01*
X-0008798Y0137849D01*
X-0008749Y0137698D01*
X-0008704Y0137546D01*
X-0008663Y0137393D01*
X-0008625Y0137240D01*
X-0008592Y0137085D01*
X-0008562Y0136929D01*
X-0008536Y0136773D01*
X-0008515Y0136616D01*
X-0008497Y0136459D01*
X-0008483Y0136301D01*
X-0008473Y0136143D01*
X-0008467Y0135985D01*
X-0008465Y0135827D01*
X-0008467Y0135669D01*
X-0008473Y0135511D01*
X-0008483Y0135353D01*
X-0008497Y0135195D01*
X-0008515Y0135038D01*
X-0008536Y0134881D01*
X-0008562Y0134725D01*
X-0008592Y0134569D01*
X-0008625Y0134414D01*
X-0008663Y0134261D01*
X-0008704Y0134108D01*
X-0008749Y0133956D01*
X-0008798Y0133805D01*
X-0008851Y0133656D01*
X-0008907Y0133508D01*
X-0008967Y0133362D01*
X-0009031Y0133217D01*
X-0009099Y0133074D01*
X-0009170Y0132932D01*
X-0009244Y0132792D01*
X-0009322Y0132655D01*
X-0009404Y0132519D01*
X-0009488Y0132385D01*
X-0009577Y0132254D01*
X-0009668Y0132125D01*
X-0009763Y0131998D01*
X-0009860Y0131873D01*
X-0009961Y0131751D01*
X-0010065Y0131632D01*
X-0010172Y0131515D01*
X-0010282Y0131401D01*
X-0010395Y0131290D01*
X-0010510Y0131181D01*
X-0010628Y0131076D01*
X-0010749Y0130974D01*
X-0010872Y0130874D01*
X-0010998Y0130778D01*
X-0011126Y0130685D01*
X-0011256Y0130595D01*
X-0011389Y0130509D01*
X-0011524Y0130425D01*
X-0011660Y0130346D01*
X-0011799Y0130269D01*
X-0011940Y0130197D01*
X-0012082Y0130127D01*
X-0012226Y0130062D01*
X-0012372Y0130000D01*
X-0012519Y0129942D01*
X-0012668Y0129887D01*
X-0012818Y0129836D01*
X-0012969Y0129789D01*
X-0013121Y0129746D01*
X-0013274Y0129707D01*
X-0013429Y0129671D01*
X-0013584Y0129640D01*
X-0013740Y0129612D01*
X-0013896Y0129588D01*
X-0014053Y0129568D01*
X-0014211Y0129552D01*
X-0014368Y0129540D01*
X-0014527Y0129532D01*
X-0014685Y0129528D01*
X-0014843Y0129528D01*
X-0015001Y0129532D01*
X-0015160Y0129540D01*
X-0015317Y0129552D01*
X-0015475Y0129568D01*
X-0015632Y0129588D01*
X-0015788Y0129612D01*
X-0015944Y0129640D01*
X-0016099Y0129671D01*
X-0016254Y0129707D01*
X-0016407Y0129746D01*
X-0016559Y0129789D01*
X-0016710Y0129836D01*
X-0016860Y0129887D01*
X-0017009Y0129942D01*
X-0017156Y0130000D01*
X-0017302Y0130062D01*
X-0017446Y0130127D01*
X-0017588Y0130197D01*
X-0017729Y0130269D01*
X-0017868Y0130346D01*
X-0018004Y0130425D01*
X-0018139Y0130509D01*
X-0018272Y0130595D01*
X-0018402Y0130685D01*
X-0018530Y0130778D01*
X-0018656Y0130874D01*
X-0018779Y0130974D01*
X-0018900Y0131076D01*
X-0019018Y0131181D01*
X-0019133Y0131290D01*
X-0019246Y0131401D01*
X-0019356Y0131515D01*
X-0019463Y0131632D01*
X-0019567Y0131751D01*
X-0019668Y0131873D01*
X-0019765Y0131998D01*
X-0019860Y0132125D01*
X-0019951Y0132254D01*
X-0020040Y0132385D01*
X-0020124Y0132519D01*
X-0020206Y0132655D01*
X-0020284Y0132792D01*
X-0020358Y0132932D01*
X-0020429Y0133074D01*
X-0020497Y0133217D01*
X-0020561Y0133362D01*
X-0020621Y0133508D01*
X-0020677Y0133656D01*
X-0020730Y0133805D01*
X-0020779Y0133956D01*
X-0020824Y0134108D01*
X-0020865Y0134261D01*
X-0020903Y0134414D01*
X-0020936Y0134569D01*
X-0020966Y0134725D01*
X-0020992Y0134881D01*
X-0021013Y0135038D01*
X-0021031Y0135195D01*
X-0021045Y0135353D01*
X-0021055Y0135511D01*
X-0021061Y0135669D01*
X-0021063Y0135827D01*
X0006496Y0163386D02*
X0006498Y0163544D01*
X0006504Y0163702D01*
X0006514Y0163860D01*
X0006528Y0164018D01*
X0006546Y0164175D01*
X0006567Y0164332D01*
X0006593Y0164488D01*
X0006623Y0164644D01*
X0006656Y0164799D01*
X0006694Y0164952D01*
X0006735Y0165105D01*
X0006780Y0165257D01*
X0006829Y0165408D01*
X0006882Y0165557D01*
X0006938Y0165705D01*
X0006998Y0165851D01*
X0007062Y0165996D01*
X0007130Y0166139D01*
X0007201Y0166281D01*
X0007275Y0166421D01*
X0007353Y0166558D01*
X0007435Y0166694D01*
X0007519Y0166828D01*
X0007608Y0166959D01*
X0007699Y0167088D01*
X0007794Y0167215D01*
X0007891Y0167340D01*
X0007992Y0167462D01*
X0008096Y0167581D01*
X0008203Y0167698D01*
X0008313Y0167812D01*
X0008426Y0167923D01*
X0008541Y0168032D01*
X0008659Y0168137D01*
X0008780Y0168239D01*
X0008903Y0168339D01*
X0009029Y0168435D01*
X0009157Y0168528D01*
X0009287Y0168618D01*
X0009420Y0168704D01*
X0009555Y0168788D01*
X0009691Y0168867D01*
X0009830Y0168944D01*
X0009971Y0169016D01*
X0010113Y0169086D01*
X0010257Y0169151D01*
X0010403Y0169213D01*
X0010550Y0169271D01*
X0010699Y0169326D01*
X0010849Y0169377D01*
X0011000Y0169424D01*
X0011152Y0169467D01*
X0011305Y0169506D01*
X0011460Y0169542D01*
X0011615Y0169573D01*
X0011771Y0169601D01*
X0011927Y0169625D01*
X0012084Y0169645D01*
X0012242Y0169661D01*
X0012399Y0169673D01*
X0012558Y0169681D01*
X0012716Y0169685D01*
X0012874Y0169685D01*
X0013032Y0169681D01*
X0013191Y0169673D01*
X0013348Y0169661D01*
X0013506Y0169645D01*
X0013663Y0169625D01*
X0013819Y0169601D01*
X0013975Y0169573D01*
X0014130Y0169542D01*
X0014285Y0169506D01*
X0014438Y0169467D01*
X0014590Y0169424D01*
X0014741Y0169377D01*
X0014891Y0169326D01*
X0015040Y0169271D01*
X0015187Y0169213D01*
X0015333Y0169151D01*
X0015477Y0169086D01*
X0015619Y0169016D01*
X0015760Y0168944D01*
X0015899Y0168867D01*
X0016035Y0168788D01*
X0016170Y0168704D01*
X0016303Y0168618D01*
X0016433Y0168528D01*
X0016561Y0168435D01*
X0016687Y0168339D01*
X0016810Y0168239D01*
X0016931Y0168137D01*
X0017049Y0168032D01*
X0017164Y0167923D01*
X0017277Y0167812D01*
X0017387Y0167698D01*
X0017494Y0167581D01*
X0017598Y0167462D01*
X0017699Y0167340D01*
X0017796Y0167215D01*
X0017891Y0167088D01*
X0017982Y0166959D01*
X0018071Y0166828D01*
X0018155Y0166694D01*
X0018237Y0166558D01*
X0018315Y0166421D01*
X0018389Y0166281D01*
X0018460Y0166139D01*
X0018528Y0165996D01*
X0018592Y0165851D01*
X0018652Y0165705D01*
X0018708Y0165557D01*
X0018761Y0165408D01*
X0018810Y0165257D01*
X0018855Y0165105D01*
X0018896Y0164952D01*
X0018934Y0164799D01*
X0018967Y0164644D01*
X0018997Y0164488D01*
X0019023Y0164332D01*
X0019044Y0164175D01*
X0019062Y0164018D01*
X0019076Y0163860D01*
X0019086Y0163702D01*
X0019092Y0163544D01*
X0019094Y0163386D01*
X0019092Y0163228D01*
X0019086Y0163070D01*
X0019076Y0162912D01*
X0019062Y0162754D01*
X0019044Y0162597D01*
X0019023Y0162440D01*
X0018997Y0162284D01*
X0018967Y0162128D01*
X0018934Y0161973D01*
X0018896Y0161820D01*
X0018855Y0161667D01*
X0018810Y0161515D01*
X0018761Y0161364D01*
X0018708Y0161215D01*
X0018652Y0161067D01*
X0018592Y0160921D01*
X0018528Y0160776D01*
X0018460Y0160633D01*
X0018389Y0160491D01*
X0018315Y0160351D01*
X0018237Y0160214D01*
X0018155Y0160078D01*
X0018071Y0159944D01*
X0017982Y0159813D01*
X0017891Y0159684D01*
X0017796Y0159557D01*
X0017699Y0159432D01*
X0017598Y0159310D01*
X0017494Y0159191D01*
X0017387Y0159074D01*
X0017277Y0158960D01*
X0017164Y0158849D01*
X0017049Y0158740D01*
X0016931Y0158635D01*
X0016810Y0158533D01*
X0016687Y0158433D01*
X0016561Y0158337D01*
X0016433Y0158244D01*
X0016303Y0158154D01*
X0016170Y0158068D01*
X0016035Y0157984D01*
X0015899Y0157905D01*
X0015760Y0157828D01*
X0015619Y0157756D01*
X0015477Y0157686D01*
X0015333Y0157621D01*
X0015187Y0157559D01*
X0015040Y0157501D01*
X0014891Y0157446D01*
X0014741Y0157395D01*
X0014590Y0157348D01*
X0014438Y0157305D01*
X0014285Y0157266D01*
X0014130Y0157230D01*
X0013975Y0157199D01*
X0013819Y0157171D01*
X0013663Y0157147D01*
X0013506Y0157127D01*
X0013348Y0157111D01*
X0013191Y0157099D01*
X0013032Y0157091D01*
X0012874Y0157087D01*
X0012716Y0157087D01*
X0012558Y0157091D01*
X0012399Y0157099D01*
X0012242Y0157111D01*
X0012084Y0157127D01*
X0011927Y0157147D01*
X0011771Y0157171D01*
X0011615Y0157199D01*
X0011460Y0157230D01*
X0011305Y0157266D01*
X0011152Y0157305D01*
X0011000Y0157348D01*
X0010849Y0157395D01*
X0010699Y0157446D01*
X0010550Y0157501D01*
X0010403Y0157559D01*
X0010257Y0157621D01*
X0010113Y0157686D01*
X0009971Y0157756D01*
X0009830Y0157828D01*
X0009691Y0157905D01*
X0009555Y0157984D01*
X0009420Y0158068D01*
X0009287Y0158154D01*
X0009157Y0158244D01*
X0009029Y0158337D01*
X0008903Y0158433D01*
X0008780Y0158533D01*
X0008659Y0158635D01*
X0008541Y0158740D01*
X0008426Y0158849D01*
X0008313Y0158960D01*
X0008203Y0159074D01*
X0008096Y0159191D01*
X0007992Y0159310D01*
X0007891Y0159432D01*
X0007794Y0159557D01*
X0007699Y0159684D01*
X0007608Y0159813D01*
X0007519Y0159944D01*
X0007435Y0160078D01*
X0007353Y0160214D01*
X0007275Y0160351D01*
X0007201Y0160491D01*
X0007130Y0160633D01*
X0007062Y0160776D01*
X0006998Y0160921D01*
X0006938Y0161067D01*
X0006882Y0161215D01*
X0006829Y0161364D01*
X0006780Y0161515D01*
X0006735Y0161667D01*
X0006694Y0161820D01*
X0006656Y0161973D01*
X0006623Y0162128D01*
X0006593Y0162284D01*
X0006567Y0162440D01*
X0006546Y0162597D01*
X0006528Y0162754D01*
X0006514Y0162912D01*
X0006504Y0163070D01*
X0006498Y0163228D01*
X0006496Y0163386D01*
D11*
X0005000Y0149000D03*
X0009000Y0149000D03*
X0013000Y0149000D03*
X0017000Y0149000D03*
X0021000Y0149000D03*
X0025000Y0149000D03*
X0001000Y0149000D03*
X0000000Y0147500D03*
X0000000Y0143500D03*
X0000000Y0139500D03*
X0000000Y0135500D03*
X0000000Y0131500D03*
X0000000Y0127500D03*
X0000000Y0123500D03*
X0000000Y0026000D03*
X0000000Y0022000D03*
X0000000Y0018000D03*
X0000000Y0014000D03*
X0000000Y0010000D03*
X0000000Y0006000D03*
X0000000Y0002000D03*
X0001000Y0000500D03*
X0005000Y0000500D03*
X0009000Y0000500D03*
X0013000Y0000500D03*
X0017000Y0000500D03*
X0021000Y0000500D03*
X0025000Y0000500D03*
X0115000Y0000500D03*
X0119000Y0000500D03*
X0123000Y0000500D03*
X0127000Y0000500D03*
X0131000Y0000500D03*
X0135000Y0000500D03*
X0139000Y0000500D03*
X0140000Y0002000D03*
X0140000Y0006000D03*
X0140000Y0010000D03*
X0140000Y0014000D03*
X0140000Y0018000D03*
X0140000Y0022000D03*
X0140000Y0026000D03*
X0140000Y0123500D03*
X0140000Y0127500D03*
X0140000Y0131500D03*
X0140000Y0135500D03*
X0140000Y0139500D03*
X0140000Y0143500D03*
X0140000Y0147500D03*
X0139000Y0149000D03*
X0135000Y0149000D03*
X0131000Y0149000D03*
X0127000Y0149000D03*
X0123000Y0149000D03*
X0119000Y0149000D03*
X0115000Y0149000D03*
D12*
X0104000Y0069173D03*
X0104000Y0059724D03*
X0104000Y0050276D03*
X0104000Y0040827D03*
D13*
X0134000Y0122654D03*
X0134000Y0129346D03*
D14*
X0125079Y0130740D03*
X0125079Y0127000D03*
X0125079Y0123260D03*
X0125079Y0115740D03*
X0125079Y0112000D03*
X0125079Y0108260D03*
X0114882Y0108260D03*
X0114882Y0115740D03*
X0114882Y0123260D03*
X0114882Y0130740D03*
X0114882Y0138260D03*
X0114882Y0145740D03*
X0125079Y0145740D03*
X0125079Y0142000D03*
X0125079Y0138260D03*
D15*
X0085000Y0135000D03*
X0085000Y0125000D03*
X0075000Y0125000D03*
X0065000Y0125000D03*
X0055000Y0125000D03*
X0045000Y0125000D03*
X0045000Y0135000D03*
X0055000Y0135000D03*
X0065000Y0135000D03*
X0075000Y0135000D03*
X0035000Y0135000D03*
X0025000Y0135000D03*
X0015000Y0135000D03*
X0015000Y0125000D03*
X0025000Y0125000D03*
X0035000Y0125000D03*
X0035000Y0095000D03*
X0025000Y0095000D03*
X0015000Y0095000D03*
X0005000Y0095000D03*
X0005000Y0085000D03*
X0015000Y0085000D03*
X0025000Y0085000D03*
X0035000Y0085000D03*
X0045000Y0085000D03*
X0055000Y0085000D03*
X0065000Y0085000D03*
X0075000Y0085000D03*
X0075000Y0095000D03*
X0065000Y0095000D03*
X0055000Y0095000D03*
X0045000Y0095000D03*
X0085000Y0095000D03*
X0095000Y0095000D03*
X0105000Y0095000D03*
X0115000Y0095000D03*
X0115000Y0085000D03*
X0105000Y0085000D03*
X0095000Y0085000D03*
X0085000Y0085000D03*
X0125000Y0085000D03*
X0135000Y0085000D03*
X0135000Y0095000D03*
X0125000Y0095000D03*
X0125000Y0025000D03*
X0125000Y0015000D03*
X0135000Y0015000D03*
X0135000Y0025000D03*
X0115000Y0025000D03*
X0115000Y0015000D03*
X0105000Y0015000D03*
X0105000Y0025000D03*
X0095000Y0025000D03*
X0095000Y0015000D03*
X0085000Y0015000D03*
X0085000Y0025000D03*
X0075000Y0025000D03*
X0075000Y0015000D03*
X0065000Y0015000D03*
X0065000Y0025000D03*
X0055000Y0025000D03*
X0055000Y0015000D03*
X0045000Y0015000D03*
X0045000Y0025000D03*
X0035000Y0025000D03*
X0035000Y0015000D03*
X0025000Y0015000D03*
X0025000Y0025000D03*
X0015000Y0025000D03*
X0015000Y0015000D03*
X0005000Y0015000D03*
X0005000Y0025000D03*
D16*
X0005000Y0031000D03*
X0015000Y0031000D03*
X0025000Y0031000D03*
X0035000Y0031000D03*
X0045000Y0031000D03*
X0055000Y0031000D03*
X0065000Y0031000D03*
X0075000Y0031000D03*
X0085000Y0031000D03*
X0095000Y0031000D03*
X0105000Y0031000D03*
X0115000Y0031000D03*
X0125000Y0031000D03*
X0135000Y0031000D03*
X0135000Y0009000D03*
X0125000Y0009000D03*
X0115000Y0009000D03*
X0105000Y0009000D03*
X0095000Y0009000D03*
X0085000Y0009000D03*
X0075000Y0009000D03*
X0065000Y0009000D03*
X0055000Y0009000D03*
X0045000Y0009000D03*
X0035000Y0009000D03*
X0025000Y0009000D03*
X0015000Y0009000D03*
X0005000Y0009000D03*
X0005000Y0079000D03*
X0015000Y0079000D03*
X0025000Y0079000D03*
X0035000Y0079000D03*
X0045000Y0079000D03*
X0055000Y0079000D03*
X0065000Y0079000D03*
X0075000Y0079000D03*
X0085000Y0079000D03*
X0095000Y0079000D03*
X0105000Y0079000D03*
X0115000Y0079000D03*
X0125000Y0079000D03*
X0135000Y0079000D03*
X0135000Y0101000D03*
X0125000Y0101000D03*
X0115000Y0101000D03*
X0105000Y0101000D03*
X0095000Y0101000D03*
X0085000Y0101000D03*
X0075000Y0101000D03*
X0065000Y0101000D03*
X0055000Y0101000D03*
X0045000Y0101000D03*
X0035000Y0101000D03*
X0025000Y0101000D03*
X0015000Y0101000D03*
X0005000Y0101000D03*
X0005000Y0119000D03*
X0015000Y0119000D03*
X0025000Y0119000D03*
X0035000Y0119000D03*
X0045000Y0119000D03*
X0055000Y0119000D03*
X0065000Y0119000D03*
X0075000Y0119000D03*
X0085000Y0119000D03*
X0095000Y0119000D03*
X0095000Y0141000D03*
X0085000Y0141000D03*
X0075000Y0141000D03*
X0065000Y0141000D03*
X0055000Y0141000D03*
X0045000Y0141000D03*
X0035000Y0141000D03*
X0025000Y0141000D03*
X0015000Y0141000D03*
X0005000Y0141000D03*
D17*
X-0014764Y0135827D03*
X0012795Y0163386D03*
X0126969Y0163386D03*
X0154528Y0135827D03*
X0154528Y0013780D03*
X0126969Y-0013780D03*
X0012795Y-0013780D03*
X-0014764Y0013780D03*
M02*
