G75*
G70*
%OFA0B0*%
%FSLAX24Y24*%
%IPPOS*%
%LPD*%
%AMOC8*
5,1,8,0,0,1.08239X$1,22.5*
%
%ADD10C,0.0000*%
%ADD11C,0.1700*%
%ADD12C,0.1542*%
%ADD13OC8,0.0600*%
%ADD14R,0.0680X0.0680*%
%ADD15OC8,0.0680*%
%ADD16C,0.1073*%
%ADD17R,0.1073X0.1073*%
%ADD18C,0.0720*%
%ADD19C,0.0660*%
%ADD20C,0.1300*%
%ADD21C,0.0900*%
D10*
X001580Y000180D02*
X017880Y000180D01*
X017953Y000182D01*
X018026Y000188D01*
X018099Y000197D01*
X018171Y000211D01*
X018242Y000228D01*
X018313Y000249D01*
X018382Y000273D01*
X018449Y000301D01*
X018516Y000333D01*
X018580Y000368D01*
X018642Y000406D01*
X018703Y000447D01*
X018761Y000492D01*
X018817Y000540D01*
X018870Y000590D01*
X018920Y000643D01*
X018968Y000699D01*
X019013Y000757D01*
X019054Y000818D01*
X019092Y000880D01*
X019127Y000944D01*
X019159Y001011D01*
X019187Y001078D01*
X019211Y001147D01*
X019232Y001218D01*
X019249Y001289D01*
X019263Y001361D01*
X019272Y001434D01*
X019278Y001507D01*
X019280Y001580D01*
X019280Y013280D01*
X019278Y013353D01*
X019272Y013426D01*
X019263Y013499D01*
X019249Y013571D01*
X019232Y013642D01*
X019211Y013713D01*
X019187Y013782D01*
X019159Y013849D01*
X019127Y013916D01*
X019092Y013980D01*
X019054Y014042D01*
X019013Y014103D01*
X018968Y014161D01*
X018920Y014217D01*
X018870Y014270D01*
X018817Y014320D01*
X018761Y014368D01*
X018703Y014413D01*
X018642Y014454D01*
X018580Y014492D01*
X018516Y014527D01*
X018449Y014559D01*
X018382Y014587D01*
X018313Y014611D01*
X018242Y014632D01*
X018171Y014649D01*
X018099Y014663D01*
X018026Y014672D01*
X017953Y014678D01*
X017880Y014680D01*
X001580Y014680D01*
X001507Y014678D01*
X001434Y014672D01*
X001361Y014663D01*
X001289Y014649D01*
X001218Y014632D01*
X001147Y014611D01*
X001078Y014587D01*
X001011Y014559D01*
X000944Y014527D01*
X000880Y014492D01*
X000818Y014454D01*
X000757Y014413D01*
X000699Y014368D01*
X000643Y014320D01*
X000590Y014270D01*
X000540Y014217D01*
X000492Y014161D01*
X000447Y014103D01*
X000406Y014042D01*
X000368Y013980D01*
X000333Y013916D01*
X000301Y013849D01*
X000273Y013782D01*
X000249Y013713D01*
X000228Y013642D01*
X000211Y013571D01*
X000197Y013499D01*
X000188Y013426D01*
X000182Y013353D01*
X000180Y013280D01*
X000180Y001580D01*
X000182Y001507D01*
X000188Y001434D01*
X000197Y001361D01*
X000211Y001289D01*
X000228Y001218D01*
X000249Y001147D01*
X000273Y001078D01*
X000301Y001011D01*
X000333Y000944D01*
X000368Y000880D01*
X000406Y000818D01*
X000447Y000757D01*
X000492Y000699D01*
X000540Y000643D01*
X000590Y000590D01*
X000643Y000540D01*
X000699Y000492D01*
X000757Y000447D01*
X000818Y000406D01*
X000880Y000368D01*
X000944Y000333D01*
X001011Y000301D01*
X001078Y000273D01*
X001147Y000249D01*
X001218Y000228D01*
X001289Y000211D01*
X001361Y000197D01*
X001434Y000188D01*
X001507Y000182D01*
X001580Y000180D01*
X001050Y013180D02*
X001052Y013230D01*
X001058Y013280D01*
X001068Y013329D01*
X001082Y013377D01*
X001099Y013424D01*
X001120Y013469D01*
X001145Y013513D01*
X001173Y013554D01*
X001205Y013593D01*
X001239Y013630D01*
X001276Y013664D01*
X001316Y013694D01*
X001358Y013721D01*
X001402Y013745D01*
X001448Y013766D01*
X001495Y013782D01*
X001543Y013795D01*
X001593Y013804D01*
X001642Y013809D01*
X001693Y013810D01*
X001743Y013807D01*
X001792Y013800D01*
X001841Y013789D01*
X001889Y013774D01*
X001935Y013756D01*
X001980Y013734D01*
X002023Y013708D01*
X002064Y013679D01*
X002103Y013647D01*
X002139Y013612D01*
X002171Y013574D01*
X002201Y013534D01*
X002228Y013491D01*
X002251Y013447D01*
X002270Y013401D01*
X002286Y013353D01*
X002298Y013304D01*
X002306Y013255D01*
X002310Y013205D01*
X002310Y013155D01*
X002306Y013105D01*
X002298Y013056D01*
X002286Y013007D01*
X002270Y012959D01*
X002251Y012913D01*
X002228Y012869D01*
X002201Y012826D01*
X002171Y012786D01*
X002139Y012748D01*
X002103Y012713D01*
X002064Y012681D01*
X002023Y012652D01*
X001980Y012626D01*
X001935Y012604D01*
X001889Y012586D01*
X001841Y012571D01*
X001792Y012560D01*
X001743Y012553D01*
X001693Y012550D01*
X001642Y012551D01*
X001593Y012556D01*
X001543Y012565D01*
X001495Y012578D01*
X001448Y012594D01*
X001402Y012615D01*
X001358Y012639D01*
X001316Y012666D01*
X001276Y012696D01*
X001239Y012730D01*
X001205Y012767D01*
X001173Y012806D01*
X001145Y012847D01*
X001120Y012891D01*
X001099Y012936D01*
X001082Y012983D01*
X001068Y013031D01*
X001058Y013080D01*
X001052Y013130D01*
X001050Y013180D01*
D11*
X014176Y011680D03*
D12*
X015298Y013570D03*
X016636Y011680D03*
D13*
X004430Y009530D03*
X004430Y006530D03*
X004430Y005880D03*
X004430Y002880D03*
D14*
X001430Y009180D03*
X018480Y001430D03*
D15*
X017480Y001430D03*
X016480Y001430D03*
X015480Y001430D03*
X014480Y001430D03*
X013480Y001430D03*
X012480Y001430D03*
X011480Y001430D03*
X010480Y001430D03*
X009480Y001430D03*
X008480Y001430D03*
X007480Y001430D03*
X006480Y001430D03*
X005480Y001430D03*
X004480Y001430D03*
X002430Y002180D03*
X001430Y002180D03*
X001430Y003180D03*
X002430Y003180D03*
X002430Y004180D03*
X001430Y004180D03*
X001430Y005180D03*
X002430Y005180D03*
X002430Y006180D03*
X001430Y006180D03*
X001430Y007180D03*
X002430Y007180D03*
X002430Y008180D03*
X001430Y008180D03*
X002430Y009180D03*
D16*
X005900Y010730D03*
X007460Y010730D03*
X009020Y010730D03*
D17*
X004340Y010730D03*
D18*
X010530Y010730D03*
X010530Y013730D03*
D19*
X010680Y009180D03*
X009680Y009180D03*
X008680Y009180D03*
X007680Y009180D03*
X006680Y009180D03*
X005680Y009180D03*
X011680Y009180D03*
X012680Y009180D03*
X013680Y009180D03*
X014680Y009180D03*
X015680Y009180D03*
X016680Y009180D03*
X017680Y009180D03*
X018680Y009180D03*
X018680Y003180D03*
X017680Y003180D03*
X016680Y003180D03*
X015680Y003180D03*
X014680Y003180D03*
X013680Y003180D03*
X012680Y003180D03*
X011680Y003180D03*
X010680Y003180D03*
X009680Y003180D03*
X008680Y003180D03*
X007680Y003180D03*
X006680Y003180D03*
X005680Y003180D03*
D20*
X001680Y013180D03*
D21*
X005696Y012980D03*
X007664Y012980D03*
M02*
