%
M48
M72
T01C0.0120
T02C0.0320
T03C0.0380
T04C0.0394
T05C0.0400
T06C0.0440
T07C0.0689
T08C0.1102
T09C0.1260
%
T01
X3830Y3380
X4880Y3380
X4880Y3980
X6380Y5880
X7980Y5880
X7980Y4780
X11080Y7480
X9680Y7580
X8680Y7680
X11980Y5380
X14180Y5480
X14680Y6080
X15680Y6080
X16680Y7480
X13980Y7580
X5280Y8180
X3680Y8180
T02
X4430Y9530
X4430Y6530
X4430Y5880
X4430Y2880
T03
X5680Y3180
X6680Y3180
X7680Y3180
X8680Y3180
X9680Y3180
X10680Y3180
X11680Y3180
X12680Y3180
X13680Y3180
X14680Y3180
X15680Y3180
X16680Y3180
X17680Y3180
X18680Y3180
X18680Y9180
X17680Y9180
X16680Y9180
X15680Y9180
X14680Y9180
X13680Y9180
X12680Y9180
X11680Y9180
X10680Y9180
X9680Y9180
X8680Y9180
X7680Y9180
X6680Y9180
X5680Y9180
T04
X5696Y12980
X7664Y12980
T05
X1430Y2180
X2430Y2180
X2430Y3180
X1430Y3180
X1430Y4180
X2430Y4180
X2430Y5180
X1430Y5180
X1430Y6180
X2430Y6180
X2430Y7180
X1430Y7180
X1430Y8180
X2430Y8180
X2430Y9180
X1430Y9180
X4480Y1430
X5480Y1430
X6480Y1430
X7480Y1430
X8480Y1430
X9480Y1430
X10480Y1430
X11480Y1430
X12480Y1430
X13480Y1430
X14480Y1430
X15480Y1430
X16480Y1430
X17480Y1430
X18480Y1430
T06
X10530Y10730
X10530Y13730
T07
X9020Y10730
X7460Y10730
X5900Y10730
X4340Y10730
T08
X15298Y13570
X16636Y11680
T09
X14176Y11680
X1680Y13180
M30
