G75*
G70*
%OFA0B0*%
%FSLAX24Y24*%
%IPPOS*%
%LPD*%
%AMOC8*
5,1,8,0,0,1.08239X$1,22.5*
%
%ADD10C,0.0000*%
%ADD11C,0.0060*%
D10*
X001580Y000180D02*
X017880Y000180D01*
X017953Y000182D01*
X018026Y000188D01*
X018099Y000197D01*
X018171Y000211D01*
X018242Y000228D01*
X018313Y000249D01*
X018382Y000273D01*
X018449Y000301D01*
X018516Y000333D01*
X018580Y000368D01*
X018642Y000406D01*
X018703Y000447D01*
X018761Y000492D01*
X018817Y000540D01*
X018870Y000590D01*
X018920Y000643D01*
X018968Y000699D01*
X019013Y000757D01*
X019054Y000818D01*
X019092Y000880D01*
X019127Y000944D01*
X019159Y001011D01*
X019187Y001078D01*
X019211Y001147D01*
X019232Y001218D01*
X019249Y001289D01*
X019263Y001361D01*
X019272Y001434D01*
X019278Y001507D01*
X019280Y001580D01*
X019280Y013280D01*
X019278Y013353D01*
X019272Y013426D01*
X019263Y013499D01*
X019249Y013571D01*
X019232Y013642D01*
X019211Y013713D01*
X019187Y013782D01*
X019159Y013849D01*
X019127Y013916D01*
X019092Y013980D01*
X019054Y014042D01*
X019013Y014103D01*
X018968Y014161D01*
X018920Y014217D01*
X018870Y014270D01*
X018817Y014320D01*
X018761Y014368D01*
X018703Y014413D01*
X018642Y014454D01*
X018580Y014492D01*
X018516Y014527D01*
X018449Y014559D01*
X018382Y014587D01*
X018313Y014611D01*
X018242Y014632D01*
X018171Y014649D01*
X018099Y014663D01*
X018026Y014672D01*
X017953Y014678D01*
X017880Y014680D01*
X001580Y014680D01*
X001507Y014678D01*
X001434Y014672D01*
X001361Y014663D01*
X001289Y014649D01*
X001218Y014632D01*
X001147Y014611D01*
X001078Y014587D01*
X001011Y014559D01*
X000944Y014527D01*
X000880Y014492D01*
X000818Y014454D01*
X000757Y014413D01*
X000699Y014368D01*
X000643Y014320D01*
X000590Y014270D01*
X000540Y014217D01*
X000492Y014161D01*
X000447Y014103D01*
X000406Y014042D01*
X000368Y013980D01*
X000333Y013916D01*
X000301Y013849D01*
X000273Y013782D01*
X000249Y013713D01*
X000228Y013642D01*
X000211Y013571D01*
X000197Y013499D01*
X000188Y013426D01*
X000182Y013353D01*
X000180Y013280D01*
X000180Y001580D01*
X000182Y001507D01*
X000188Y001434D01*
X000197Y001361D01*
X000211Y001289D01*
X000228Y001218D01*
X000249Y001147D01*
X000273Y001078D01*
X000301Y001011D01*
X000333Y000944D01*
X000368Y000880D01*
X000406Y000818D01*
X000447Y000757D01*
X000492Y000699D01*
X000540Y000643D01*
X000590Y000590D01*
X000643Y000540D01*
X000699Y000492D01*
X000757Y000447D01*
X000818Y000406D01*
X000880Y000368D01*
X000944Y000333D01*
X001011Y000301D01*
X001078Y000273D01*
X001147Y000249D01*
X001218Y000228D01*
X001289Y000211D01*
X001361Y000197D01*
X001434Y000188D01*
X001507Y000182D01*
X001580Y000180D01*
X001050Y013180D02*
X001052Y013230D01*
X001058Y013280D01*
X001068Y013329D01*
X001082Y013377D01*
X001099Y013424D01*
X001120Y013469D01*
X001145Y013513D01*
X001173Y013554D01*
X001205Y013593D01*
X001239Y013630D01*
X001276Y013664D01*
X001316Y013694D01*
X001358Y013721D01*
X001402Y013745D01*
X001448Y013766D01*
X001495Y013782D01*
X001543Y013795D01*
X001593Y013804D01*
X001642Y013809D01*
X001693Y013810D01*
X001743Y013807D01*
X001792Y013800D01*
X001841Y013789D01*
X001889Y013774D01*
X001935Y013756D01*
X001980Y013734D01*
X002023Y013708D01*
X002064Y013679D01*
X002103Y013647D01*
X002139Y013612D01*
X002171Y013574D01*
X002201Y013534D01*
X002228Y013491D01*
X002251Y013447D01*
X002270Y013401D01*
X002286Y013353D01*
X002298Y013304D01*
X002306Y013255D01*
X002310Y013205D01*
X002310Y013155D01*
X002306Y013105D01*
X002298Y013056D01*
X002286Y013007D01*
X002270Y012959D01*
X002251Y012913D01*
X002228Y012869D01*
X002201Y012826D01*
X002171Y012786D01*
X002139Y012748D01*
X002103Y012713D01*
X002064Y012681D01*
X002023Y012652D01*
X001980Y012626D01*
X001935Y012604D01*
X001889Y012586D01*
X001841Y012571D01*
X001792Y012560D01*
X001743Y012553D01*
X001693Y012550D01*
X001642Y012551D01*
X001593Y012556D01*
X001543Y012565D01*
X001495Y012578D01*
X001448Y012594D01*
X001402Y012615D01*
X001358Y012639D01*
X001316Y012666D01*
X001276Y012696D01*
X001239Y012730D01*
X001205Y012767D01*
X001173Y012806D01*
X001145Y012847D01*
X001120Y012891D01*
X001099Y012936D01*
X001082Y012983D01*
X001068Y013031D01*
X001058Y013080D01*
X001052Y013130D01*
X001050Y013180D01*
D11*
X004636Y012077D02*
X004636Y011783D01*
X004709Y011710D01*
X004929Y011710D01*
X004929Y012150D01*
X004709Y012150D01*
X004636Y012077D01*
X005096Y012150D02*
X005096Y011710D01*
X005390Y012150D01*
X005390Y011710D01*
X005556Y011783D02*
X005556Y011930D01*
X005703Y011930D01*
X005556Y011783D02*
X005630Y011710D01*
X005777Y011710D01*
X005850Y011783D01*
X005850Y012077D01*
X005777Y012150D01*
X005630Y012150D01*
X005556Y012077D01*
X007896Y012150D02*
X007896Y011857D01*
X008043Y011710D01*
X008190Y011857D01*
X008190Y012150D01*
X008356Y012150D02*
X008650Y012150D01*
X008650Y011930D01*
X008503Y012004D01*
X008430Y012004D01*
X008356Y011930D01*
X008356Y011783D01*
X008430Y011710D01*
X008577Y011710D01*
X008650Y011783D01*
X008714Y002500D02*
X008714Y002060D01*
X008860Y002060D02*
X008567Y002060D01*
X008400Y002133D02*
X008327Y002060D01*
X008180Y002060D01*
X008106Y002133D01*
X008106Y002207D01*
X008180Y002280D01*
X008400Y002280D01*
X008400Y002133D01*
X008400Y002280D02*
X008253Y002427D01*
X008106Y002500D01*
X008714Y002500D02*
X008860Y002354D01*
X010106Y002354D02*
X010180Y002280D01*
X010327Y002280D01*
X010400Y002354D01*
X010400Y002427D01*
X010327Y002500D01*
X010180Y002500D01*
X010106Y002427D01*
X010106Y002354D01*
X010180Y002280D02*
X010106Y002207D01*
X010106Y002133D01*
X010180Y002060D01*
X010327Y002060D01*
X010400Y002133D01*
X010400Y002207D01*
X010327Y002280D01*
X010567Y002060D02*
X010860Y002060D01*
X010714Y002060D02*
X010714Y002500D01*
X010860Y002354D01*
X012337Y002060D02*
X012630Y002060D01*
X012483Y002060D02*
X012483Y002500D01*
X012630Y002354D01*
X013876Y002354D02*
X013950Y002280D01*
X013876Y002207D01*
X013876Y002133D01*
X013950Y002060D01*
X014096Y002060D01*
X014170Y002133D01*
X014337Y002207D02*
X014337Y002500D01*
X014170Y002427D02*
X014096Y002500D01*
X013950Y002500D01*
X013876Y002427D01*
X013876Y002354D01*
X013950Y002280D02*
X014023Y002280D01*
X014337Y002207D02*
X014483Y002060D01*
X014630Y002207D01*
X014630Y002500D01*
X014797Y002427D02*
X014797Y002354D01*
X014870Y002280D01*
X014797Y002207D01*
X014797Y002133D01*
X014870Y002060D01*
X015017Y002060D01*
X015091Y002133D01*
X014944Y002280D02*
X014870Y002280D01*
X014797Y002427D02*
X014870Y002500D01*
X015017Y002500D01*
X015091Y002427D01*
X015646Y002427D02*
X015646Y002133D01*
X015719Y002060D01*
X015940Y002060D01*
X015940Y002500D01*
X015719Y002500D01*
X015646Y002427D01*
X016106Y002500D02*
X016106Y002060D01*
X016400Y002500D01*
X016400Y002060D01*
X016567Y002133D02*
X016567Y002280D01*
X016714Y002280D01*
X016860Y002133D02*
X016787Y002060D01*
X016640Y002060D01*
X016567Y002133D01*
X016860Y002133D02*
X016860Y002427D01*
X016787Y002500D01*
X016640Y002500D01*
X016567Y002427D01*
X017027Y002354D02*
X017027Y002060D01*
X017321Y002060D02*
X017321Y002354D01*
X017174Y002500D01*
X017027Y002354D01*
X017027Y002280D02*
X017321Y002280D01*
X018106Y002207D02*
X018106Y002500D01*
X018400Y002500D02*
X018400Y002207D01*
X018253Y002060D01*
X018106Y002207D01*
X018567Y002280D02*
X018567Y002133D01*
X018640Y002060D01*
X018787Y002060D01*
X018860Y002133D01*
X018860Y002280D02*
X018714Y002354D01*
X018640Y002354D01*
X018567Y002280D01*
X018567Y002500D02*
X018860Y002500D01*
X018860Y002280D01*
X018014Y000800D02*
X018014Y000507D01*
X017867Y000360D01*
X017720Y000507D01*
X017720Y000800D01*
X017553Y000800D02*
X017407Y000800D01*
X017480Y000800D02*
X017480Y000360D01*
X017553Y000360D02*
X017407Y000360D01*
X017247Y000360D02*
X017247Y000800D01*
X016953Y000360D01*
X016953Y000800D01*
X016091Y000727D02*
X016091Y000433D01*
X016017Y000360D01*
X015870Y000360D01*
X015797Y000433D01*
X015797Y000580D01*
X015944Y000580D01*
X016091Y000727D02*
X016017Y000800D01*
X015870Y000800D01*
X015797Y000727D01*
X015630Y000800D02*
X015337Y000360D01*
X015337Y000800D01*
X015170Y000800D02*
X014950Y000800D01*
X014876Y000727D01*
X014876Y000433D01*
X014950Y000360D01*
X015170Y000360D01*
X015170Y000800D01*
X015630Y000800D02*
X015630Y000360D01*
X013630Y000433D02*
X013337Y000727D01*
X013337Y000433D01*
X013410Y000360D01*
X013557Y000360D01*
X013630Y000433D01*
X013630Y000727D01*
X013557Y000800D01*
X013410Y000800D01*
X013337Y000727D01*
X011860Y000654D02*
X011714Y000800D01*
X011714Y000360D01*
X011860Y000360D02*
X011567Y000360D01*
X011400Y000433D02*
X011327Y000360D01*
X011180Y000360D01*
X011106Y000433D01*
X011106Y000727D01*
X011180Y000800D01*
X011327Y000800D01*
X011400Y000727D01*
X011400Y000654D01*
X011327Y000580D01*
X011106Y000580D01*
X009860Y000654D02*
X009714Y000800D01*
X009714Y000360D01*
X009860Y000360D02*
X009567Y000360D01*
X009400Y000360D02*
X009400Y000433D01*
X009106Y000727D01*
X009106Y000800D01*
X009400Y000800D01*
X007860Y000654D02*
X007714Y000800D01*
X007714Y000360D01*
X007860Y000360D02*
X007567Y000360D01*
X007400Y000433D02*
X007327Y000360D01*
X007180Y000360D01*
X007106Y000433D01*
X007106Y000580D01*
X007180Y000654D01*
X007253Y000654D01*
X007400Y000580D01*
X007400Y000800D01*
X007106Y000800D01*
X005860Y000654D02*
X005714Y000800D01*
X005714Y000360D01*
X005860Y000360D02*
X005567Y000360D01*
X005400Y000360D02*
X005106Y000654D01*
X005106Y000727D01*
X005180Y000800D01*
X005327Y000800D01*
X005400Y000727D01*
X005400Y000360D02*
X005106Y000360D01*
X004860Y002060D02*
X004567Y002060D01*
X004714Y002060D02*
X004714Y002500D01*
X004860Y002354D01*
X004400Y002354D02*
X004253Y002500D01*
X004253Y002060D01*
X004400Y002060D02*
X004106Y002060D01*
X006106Y002133D02*
X006180Y002060D01*
X006327Y002060D01*
X006400Y002133D01*
X006567Y002060D02*
X006860Y002060D01*
X006714Y002060D02*
X006714Y002500D01*
X006860Y002354D01*
X006400Y002427D02*
X006327Y002500D01*
X006180Y002500D01*
X006106Y002427D01*
X006106Y002354D01*
X006180Y002280D01*
X006106Y002207D01*
X006106Y002133D01*
X006180Y002280D02*
X006253Y002280D01*
M02*
