G75*
G70*
%OFA0B0*%
%FSLAX24Y24*%
%IPPOS*%
%LPD*%
%AMOC8*
5,1,8,0,0,1.08239X$1,22.5*
%
%ADD10C,0.0000*%
%ADD11C,0.1660*%
%ADD12C,0.1502*%
%ADD13OC8,0.0560*%
%ADD14R,0.0640X0.0640*%
%ADD15OC8,0.0640*%
%ADD16C,0.1033*%
%ADD17R,0.1033X0.1033*%
%ADD18C,0.0680*%
%ADD19C,0.0620*%
%ADD20C,0.0860*%
%ADD21C,0.0200*%
%ADD22C,0.0160*%
%ADD23C,0.0280*%
%ADD24C,0.0100*%
D10*
X001580Y000180D02*
X017880Y000180D01*
X017953Y000182D01*
X018026Y000188D01*
X018099Y000197D01*
X018171Y000211D01*
X018242Y000228D01*
X018313Y000249D01*
X018382Y000273D01*
X018449Y000301D01*
X018516Y000333D01*
X018580Y000368D01*
X018642Y000406D01*
X018703Y000447D01*
X018761Y000492D01*
X018817Y000540D01*
X018870Y000590D01*
X018920Y000643D01*
X018968Y000699D01*
X019013Y000757D01*
X019054Y000818D01*
X019092Y000880D01*
X019127Y000944D01*
X019159Y001011D01*
X019187Y001078D01*
X019211Y001147D01*
X019232Y001218D01*
X019249Y001289D01*
X019263Y001361D01*
X019272Y001434D01*
X019278Y001507D01*
X019280Y001580D01*
X019280Y013280D01*
X019278Y013353D01*
X019272Y013426D01*
X019263Y013499D01*
X019249Y013571D01*
X019232Y013642D01*
X019211Y013713D01*
X019187Y013782D01*
X019159Y013849D01*
X019127Y013916D01*
X019092Y013980D01*
X019054Y014042D01*
X019013Y014103D01*
X018968Y014161D01*
X018920Y014217D01*
X018870Y014270D01*
X018817Y014320D01*
X018761Y014368D01*
X018703Y014413D01*
X018642Y014454D01*
X018580Y014492D01*
X018516Y014527D01*
X018449Y014559D01*
X018382Y014587D01*
X018313Y014611D01*
X018242Y014632D01*
X018171Y014649D01*
X018099Y014663D01*
X018026Y014672D01*
X017953Y014678D01*
X017880Y014680D01*
X001580Y014680D01*
X001507Y014678D01*
X001434Y014672D01*
X001361Y014663D01*
X001289Y014649D01*
X001218Y014632D01*
X001147Y014611D01*
X001078Y014587D01*
X001011Y014559D01*
X000944Y014527D01*
X000880Y014492D01*
X000818Y014454D01*
X000757Y014413D01*
X000699Y014368D01*
X000643Y014320D01*
X000590Y014270D01*
X000540Y014217D01*
X000492Y014161D01*
X000447Y014103D01*
X000406Y014042D01*
X000368Y013980D01*
X000333Y013916D01*
X000301Y013849D01*
X000273Y013782D01*
X000249Y013713D01*
X000228Y013642D01*
X000211Y013571D01*
X000197Y013499D01*
X000188Y013426D01*
X000182Y013353D01*
X000180Y013280D01*
X000180Y001580D01*
X000182Y001507D01*
X000188Y001434D01*
X000197Y001361D01*
X000211Y001289D01*
X000228Y001218D01*
X000249Y001147D01*
X000273Y001078D01*
X000301Y001011D01*
X000333Y000944D01*
X000368Y000880D01*
X000406Y000818D01*
X000447Y000757D01*
X000492Y000699D01*
X000540Y000643D01*
X000590Y000590D01*
X000643Y000540D01*
X000699Y000492D01*
X000757Y000447D01*
X000818Y000406D01*
X000880Y000368D01*
X000944Y000333D01*
X001011Y000301D01*
X001078Y000273D01*
X001147Y000249D01*
X001218Y000228D01*
X001289Y000211D01*
X001361Y000197D01*
X001434Y000188D01*
X001507Y000182D01*
X001580Y000180D01*
X001050Y013180D02*
X001052Y013230D01*
X001058Y013280D01*
X001068Y013329D01*
X001082Y013377D01*
X001099Y013424D01*
X001120Y013469D01*
X001145Y013513D01*
X001173Y013554D01*
X001205Y013593D01*
X001239Y013630D01*
X001276Y013664D01*
X001316Y013694D01*
X001358Y013721D01*
X001402Y013745D01*
X001448Y013766D01*
X001495Y013782D01*
X001543Y013795D01*
X001593Y013804D01*
X001642Y013809D01*
X001693Y013810D01*
X001743Y013807D01*
X001792Y013800D01*
X001841Y013789D01*
X001889Y013774D01*
X001935Y013756D01*
X001980Y013734D01*
X002023Y013708D01*
X002064Y013679D01*
X002103Y013647D01*
X002139Y013612D01*
X002171Y013574D01*
X002201Y013534D01*
X002228Y013491D01*
X002251Y013447D01*
X002270Y013401D01*
X002286Y013353D01*
X002298Y013304D01*
X002306Y013255D01*
X002310Y013205D01*
X002310Y013155D01*
X002306Y013105D01*
X002298Y013056D01*
X002286Y013007D01*
X002270Y012959D01*
X002251Y012913D01*
X002228Y012869D01*
X002201Y012826D01*
X002171Y012786D01*
X002139Y012748D01*
X002103Y012713D01*
X002064Y012681D01*
X002023Y012652D01*
X001980Y012626D01*
X001935Y012604D01*
X001889Y012586D01*
X001841Y012571D01*
X001792Y012560D01*
X001743Y012553D01*
X001693Y012550D01*
X001642Y012551D01*
X001593Y012556D01*
X001543Y012565D01*
X001495Y012578D01*
X001448Y012594D01*
X001402Y012615D01*
X001358Y012639D01*
X001316Y012666D01*
X001276Y012696D01*
X001239Y012730D01*
X001205Y012767D01*
X001173Y012806D01*
X001145Y012847D01*
X001120Y012891D01*
X001099Y012936D01*
X001082Y012983D01*
X001068Y013031D01*
X001058Y013080D01*
X001052Y013130D01*
X001050Y013180D01*
D11*
X014176Y011680D03*
D12*
X015298Y013570D03*
X016636Y011680D03*
D13*
X004430Y009530D03*
X004430Y006530D03*
X004430Y005880D03*
X004430Y002880D03*
D14*
X001430Y009180D03*
X018480Y001430D03*
D15*
X017480Y001430D03*
X016480Y001430D03*
X015480Y001430D03*
X014480Y001430D03*
X013480Y001430D03*
X012480Y001430D03*
X011480Y001430D03*
X010480Y001430D03*
X009480Y001430D03*
X008480Y001430D03*
X007480Y001430D03*
X006480Y001430D03*
X005480Y001430D03*
X004480Y001430D03*
X002430Y002180D03*
X001430Y002180D03*
X001430Y003180D03*
X002430Y003180D03*
X002430Y004180D03*
X001430Y004180D03*
X001430Y005180D03*
X002430Y005180D03*
X002430Y006180D03*
X001430Y006180D03*
X001430Y007180D03*
X002430Y007180D03*
X002430Y008180D03*
X001430Y008180D03*
X002430Y009180D03*
D16*
X005900Y010730D03*
X007460Y010730D03*
X009020Y010730D03*
D17*
X004340Y010730D03*
D18*
X010530Y010730D03*
X010530Y013730D03*
D19*
X010680Y009180D03*
X009680Y009180D03*
X008680Y009180D03*
X007680Y009180D03*
X006680Y009180D03*
X005680Y009180D03*
X011680Y009180D03*
X012680Y009180D03*
X013680Y009180D03*
X014680Y009180D03*
X015680Y009180D03*
X016680Y009180D03*
X017680Y009180D03*
X018680Y009180D03*
X018680Y003180D03*
X017680Y003180D03*
X016680Y003180D03*
X015680Y003180D03*
X014680Y003180D03*
X013680Y003180D03*
X012680Y003180D03*
X011680Y003180D03*
X010680Y003180D03*
X009680Y003180D03*
X008680Y003180D03*
X007680Y003180D03*
X006680Y003180D03*
X005680Y003180D03*
D20*
X005696Y012980D03*
X007664Y012980D03*
D21*
X010530Y010730D02*
X010930Y010330D01*
X016430Y010330D01*
X017180Y009680D01*
X017180Y001780D01*
X017480Y001480D01*
X017480Y001430D01*
X018180Y001780D02*
X018180Y009580D01*
X016980Y010680D01*
X014880Y010680D01*
X014080Y011580D01*
X014276Y011580D01*
X014176Y011680D01*
X016680Y003180D02*
X016680Y002680D01*
X015980Y001980D01*
X014880Y001980D01*
X014480Y001580D01*
X014480Y001430D01*
X018180Y001780D02*
X018480Y001480D01*
X018480Y001430D01*
D22*
X000898Y000691D02*
X000691Y000898D01*
X000545Y001151D01*
X000470Y001434D01*
X000460Y001580D01*
X000460Y013280D01*
X000470Y013426D01*
X000545Y013709D01*
X000545Y013709D01*
X000691Y013962D01*
X000898Y014169D01*
X001151Y014315D01*
X001395Y014380D01*
X006280Y014380D01*
X006280Y013156D01*
X006261Y013214D01*
X006217Y013300D01*
X006161Y013377D01*
X006093Y013445D01*
X006015Y013502D01*
X005930Y013545D01*
X005839Y013575D01*
X005744Y013590D01*
X005714Y013590D01*
X005714Y012998D01*
X005677Y012998D01*
X005677Y012962D01*
X005086Y012962D01*
X005086Y012932D01*
X005101Y012837D01*
X005130Y012746D01*
X005174Y012660D01*
X005230Y012583D01*
X005298Y012515D01*
X005376Y012458D01*
X005462Y012415D01*
X005553Y012385D01*
X005648Y012370D01*
X005677Y012370D01*
X005677Y012962D01*
X005714Y012962D01*
X005714Y012370D01*
X005744Y012370D01*
X005839Y012385D01*
X005930Y012415D01*
X006015Y012458D01*
X006093Y012515D01*
X006161Y012583D01*
X006217Y012660D01*
X006261Y012746D01*
X006280Y012804D01*
X006280Y011315D01*
X006209Y011356D01*
X006124Y011391D01*
X006036Y011415D01*
X005980Y011422D01*
X005980Y010810D01*
X005820Y010810D01*
X005820Y011422D01*
X005764Y011415D01*
X005676Y011391D01*
X005591Y011356D01*
X005512Y011311D01*
X005440Y011255D01*
X005375Y011190D01*
X005319Y011118D01*
X005274Y011039D01*
X005239Y010954D01*
X005215Y010866D01*
X005208Y010810D01*
X005820Y010810D01*
X005820Y010650D01*
X005208Y010650D01*
X005215Y010594D01*
X005239Y010506D01*
X005274Y010421D01*
X005319Y010342D01*
X005367Y010280D01*
X005037Y010280D01*
X005037Y010650D01*
X004420Y010650D01*
X004420Y010810D01*
X004260Y010810D01*
X004260Y011427D01*
X003800Y011427D01*
X003754Y011414D01*
X003713Y011391D01*
X003679Y011357D01*
X003656Y011316D01*
X003643Y011270D01*
X003643Y010810D01*
X004260Y010810D01*
X004260Y010650D01*
X003643Y010650D01*
X003643Y010280D01*
X002276Y010280D01*
X002272Y010281D01*
X002226Y010280D01*
X002180Y010280D01*
X002177Y010278D01*
X002173Y010278D01*
X002131Y010260D01*
X002088Y010242D01*
X002086Y010239D01*
X002082Y010238D01*
X002051Y010204D01*
X002018Y010172D01*
X002017Y010168D01*
X001576Y009700D01*
X001027Y009700D01*
X000910Y009583D01*
X000910Y008777D01*
X001027Y008660D01*
X001175Y008660D01*
X000910Y008395D01*
X000910Y007965D01*
X001011Y007864D01*
X000968Y007822D01*
X000668Y007522D01*
X000630Y007430D01*
X000630Y005680D01*
X000668Y005588D01*
X000738Y005518D01*
X000910Y005346D01*
X000910Y004965D01*
X001195Y004680D01*
X000910Y004395D01*
X000910Y003965D01*
X001195Y003680D01*
X000910Y003395D01*
X000910Y002965D01*
X001195Y002680D01*
X000910Y002395D01*
X000910Y001965D01*
X001215Y001660D01*
X001645Y001660D01*
X001944Y001959D01*
X002223Y001680D01*
X002410Y001680D01*
X002410Y002160D01*
X002450Y002160D01*
X002450Y002200D01*
X002930Y002200D01*
X002930Y002387D01*
X002887Y002430D01*
X003630Y002430D01*
X003722Y002468D01*
X003950Y002696D01*
X003950Y002681D01*
X004231Y002400D01*
X004629Y002400D01*
X004659Y002430D01*
X005576Y002430D01*
X005730Y002276D01*
X005730Y001915D01*
X005695Y001950D01*
X005265Y001950D01*
X004980Y001665D01*
X004695Y001950D01*
X004265Y001950D01*
X003960Y001645D01*
X003960Y001215D01*
X004265Y000910D01*
X004695Y000910D01*
X004980Y001195D01*
X005265Y000910D01*
X005695Y000910D01*
X005796Y001011D01*
X005838Y000968D01*
X006238Y000568D01*
X006330Y000530D01*
X008130Y000530D01*
X008222Y000568D01*
X008292Y000638D01*
X008564Y000910D01*
X008695Y000910D01*
X008980Y001195D01*
X009265Y000910D01*
X009695Y000910D01*
X009980Y001195D01*
X010265Y000910D01*
X010695Y000910D01*
X010980Y001195D01*
X011265Y000910D01*
X011695Y000910D01*
X011980Y001195D01*
X012265Y000910D01*
X012695Y000910D01*
X012980Y001195D01*
X013265Y000910D01*
X013695Y000910D01*
X013980Y001195D01*
X014265Y000910D01*
X014695Y000910D01*
X014994Y001209D01*
X015273Y000930D01*
X015460Y000930D01*
X015460Y001410D01*
X015500Y001410D01*
X015500Y000930D01*
X015687Y000930D01*
X015966Y001209D01*
X016265Y000910D01*
X016695Y000910D01*
X016980Y001195D01*
X017265Y000910D01*
X017695Y000910D01*
X017960Y001175D01*
X017960Y001027D01*
X018077Y000910D01*
X018775Y000910D01*
X018769Y000898D01*
X018562Y000691D01*
X018309Y000545D01*
X018026Y000470D01*
X017880Y000460D01*
X001580Y000460D01*
X001434Y000470D01*
X001151Y000545D01*
X000898Y000691D01*
X000960Y000656D02*
X006151Y000656D01*
X005992Y000814D02*
X000776Y000814D01*
X000649Y000973D02*
X004202Y000973D01*
X004044Y001131D02*
X000557Y001131D01*
X000508Y001290D02*
X003960Y001290D01*
X003960Y001448D02*
X000469Y001448D01*
X000460Y001607D02*
X003960Y001607D01*
X004080Y001765D02*
X002722Y001765D01*
X002637Y001680D02*
X002930Y001973D01*
X002930Y002160D01*
X002450Y002160D01*
X002450Y001680D01*
X002637Y001680D01*
X002450Y001765D02*
X002410Y001765D01*
X002410Y001924D02*
X002450Y001924D01*
X002450Y002082D02*
X002410Y002082D01*
X002881Y001924D02*
X004238Y001924D01*
X004722Y001924D02*
X005238Y001924D01*
X005080Y001765D02*
X004880Y001765D01*
X004916Y001131D02*
X005044Y001131D01*
X005202Y000973D02*
X004758Y000973D01*
X005758Y000973D02*
X005834Y000973D01*
X005730Y001924D02*
X005722Y001924D01*
X005730Y002082D02*
X002930Y002082D01*
X002930Y002241D02*
X005730Y002241D01*
X005607Y002399D02*
X002918Y002399D01*
X003811Y002558D02*
X004074Y002558D01*
X002138Y001765D02*
X001750Y001765D01*
X001909Y001924D02*
X001979Y001924D01*
X001110Y001765D02*
X000460Y001765D01*
X000460Y001924D02*
X000951Y001924D01*
X000910Y002082D02*
X000460Y002082D01*
X000460Y002241D02*
X000910Y002241D01*
X000914Y002399D02*
X000460Y002399D01*
X000460Y002558D02*
X001072Y002558D01*
X001159Y002716D02*
X000460Y002716D01*
X000460Y002875D02*
X001000Y002875D01*
X000910Y003033D02*
X000460Y003033D01*
X000460Y003192D02*
X000910Y003192D01*
X000910Y003350D02*
X000460Y003350D01*
X000460Y003509D02*
X001023Y003509D01*
X001182Y003667D02*
X000460Y003667D01*
X000460Y003826D02*
X001049Y003826D01*
X000910Y003984D02*
X000460Y003984D01*
X000460Y004143D02*
X000910Y004143D01*
X000910Y004301D02*
X000460Y004301D01*
X000460Y004460D02*
X000974Y004460D01*
X001133Y004618D02*
X000460Y004618D01*
X000460Y004777D02*
X001098Y004777D01*
X000940Y004935D02*
X000460Y004935D01*
X000460Y005094D02*
X000910Y005094D01*
X000910Y005252D02*
X000460Y005252D01*
X000460Y005411D02*
X000846Y005411D01*
X000687Y005569D02*
X000460Y005569D01*
X000460Y005728D02*
X000630Y005728D01*
X000630Y005886D02*
X000460Y005886D01*
X000460Y006045D02*
X000630Y006045D01*
X000630Y006203D02*
X000460Y006203D01*
X000460Y006362D02*
X000630Y006362D01*
X000630Y006520D02*
X000460Y006520D01*
X000460Y006679D02*
X000630Y006679D01*
X000630Y006837D02*
X000460Y006837D01*
X000460Y006996D02*
X000630Y006996D01*
X000630Y007154D02*
X000460Y007154D01*
X000460Y007313D02*
X000630Y007313D01*
X000647Y007471D02*
X000460Y007471D01*
X000460Y007630D02*
X000776Y007630D01*
X000934Y007788D02*
X000460Y007788D01*
X000460Y007947D02*
X000928Y007947D01*
X000910Y008105D02*
X000460Y008105D01*
X000460Y008264D02*
X000910Y008264D01*
X000937Y008422D02*
X000460Y008422D01*
X000460Y008581D02*
X001095Y008581D01*
X000948Y008739D02*
X000460Y008739D01*
X000460Y008898D02*
X000910Y008898D01*
X000910Y009056D02*
X000460Y009056D01*
X000460Y009215D02*
X000910Y009215D01*
X000910Y009373D02*
X000460Y009373D01*
X000460Y009532D02*
X000910Y009532D01*
X001017Y009690D02*
X000460Y009690D01*
X000460Y009849D02*
X001716Y009849D01*
X001865Y010007D02*
X000460Y010007D01*
X000460Y010166D02*
X002014Y010166D01*
X000460Y010324D02*
X003643Y010324D01*
X003643Y010483D02*
X000460Y010483D01*
X000460Y010641D02*
X003643Y010641D01*
X003643Y010958D02*
X000460Y010958D01*
X000460Y010800D02*
X004260Y010800D01*
X004260Y010958D02*
X004420Y010958D01*
X004420Y010810D02*
X004420Y011427D01*
X004880Y011427D01*
X004926Y011414D01*
X004967Y011391D01*
X005001Y011357D01*
X005024Y011316D01*
X005037Y011270D01*
X005037Y010810D01*
X004420Y010810D01*
X004420Y010800D02*
X005820Y010800D01*
X005820Y010958D02*
X005980Y010958D01*
X005980Y011117D02*
X005820Y011117D01*
X005820Y011275D02*
X005980Y011275D01*
X006280Y011434D02*
X000460Y011434D01*
X000460Y011275D02*
X003644Y011275D01*
X003643Y011117D02*
X000460Y011117D01*
X000460Y011592D02*
X006280Y011592D01*
X006280Y011751D02*
X000460Y011751D01*
X000460Y011909D02*
X006280Y011909D01*
X006280Y012068D02*
X000460Y012068D01*
X000460Y012226D02*
X001465Y012226D01*
X001509Y012210D02*
X001632Y012210D01*
X001851Y012210D01*
X002172Y012327D01*
X002172Y012327D01*
X002435Y012547D01*
X002606Y012843D01*
X002665Y013180D01*
X002606Y013517D01*
X002435Y013813D01*
X002172Y014033D01*
X001851Y014150D01*
X001509Y014150D01*
X001188Y014033D01*
X001188Y014033D01*
X000925Y013813D01*
X000754Y013517D01*
X000754Y013517D01*
X000695Y013180D01*
X000754Y012843D01*
X000925Y012547D01*
X000925Y012547D01*
X001188Y012327D01*
X001509Y012210D01*
X001188Y012327D02*
X001188Y012327D01*
X001119Y012385D02*
X000460Y012385D01*
X000460Y012543D02*
X000930Y012543D01*
X000836Y012702D02*
X000460Y012702D01*
X000460Y012860D02*
X000751Y012860D01*
X000754Y012843D02*
X000754Y012843D01*
X000724Y013019D02*
X000460Y013019D01*
X000460Y013177D02*
X000696Y013177D01*
X000695Y013180D02*
X000695Y013180D01*
X000722Y013336D02*
X000464Y013336D01*
X000488Y013494D02*
X000750Y013494D01*
X000833Y013653D02*
X000530Y013653D01*
X000604Y013811D02*
X000924Y013811D01*
X000925Y013813D02*
X000925Y013813D01*
X000925Y013813D01*
X001112Y013970D02*
X000699Y013970D01*
X000858Y014128D02*
X001449Y014128D01*
X001103Y014287D02*
X006280Y014287D01*
X006280Y014128D02*
X001911Y014128D01*
X002172Y014033D02*
X002172Y014033D01*
X002248Y013970D02*
X006280Y013970D01*
X006280Y013811D02*
X002436Y013811D01*
X002435Y013813D02*
X002435Y013813D01*
X002527Y013653D02*
X006280Y013653D01*
X006280Y013494D02*
X006026Y013494D01*
X006191Y013336D02*
X006280Y013336D01*
X006273Y013177D02*
X006280Y013177D01*
X006680Y013177D02*
X007087Y013177D01*
X007099Y013214D02*
X007069Y013123D01*
X007054Y013028D01*
X007054Y012998D01*
X007646Y012998D01*
X007646Y012962D01*
X007054Y012962D01*
X007054Y012932D01*
X007069Y012837D01*
X007099Y012746D01*
X007143Y012660D01*
X007199Y012583D01*
X007267Y012515D01*
X007345Y012458D01*
X007430Y012415D01*
X007521Y012385D01*
X007616Y012370D01*
X007646Y012370D01*
X007646Y012962D01*
X007683Y012962D01*
X007683Y012998D01*
X008274Y012998D01*
X008274Y013028D01*
X008259Y013123D01*
X008230Y013214D01*
X008186Y013300D01*
X008130Y013377D01*
X008062Y013445D01*
X007984Y013502D01*
X007898Y013545D01*
X007807Y013575D01*
X007712Y013590D01*
X007683Y013590D01*
X007683Y012998D01*
X007646Y012998D01*
X007646Y013590D01*
X007616Y013590D01*
X007521Y013575D01*
X007430Y013545D01*
X007345Y013502D01*
X007267Y013445D01*
X007199Y013377D01*
X007143Y013300D01*
X007099Y013214D01*
X007169Y013336D02*
X006680Y013336D01*
X006680Y013494D02*
X007334Y013494D01*
X007646Y013494D02*
X007683Y013494D01*
X007683Y013336D02*
X007646Y013336D01*
X007646Y013177D02*
X007683Y013177D01*
X007683Y013019D02*
X007646Y013019D01*
X007683Y012962D02*
X008274Y012962D01*
X008274Y012932D01*
X008259Y012837D01*
X008230Y012746D01*
X008186Y012660D01*
X008130Y012583D01*
X008062Y012515D01*
X007984Y012458D01*
X007898Y012415D01*
X007807Y012385D01*
X007712Y012370D01*
X007683Y012370D01*
X007683Y012962D01*
X007683Y012860D02*
X007646Y012860D01*
X007646Y012702D02*
X007683Y012702D01*
X007683Y012543D02*
X007646Y012543D01*
X007646Y012385D02*
X007683Y012385D01*
X007804Y012385D02*
X013452Y012385D01*
X013421Y012354D02*
X013351Y012265D01*
X013290Y012169D01*
X013241Y012067D01*
X013204Y011960D01*
X013178Y011849D01*
X013168Y011760D01*
X014096Y011760D01*
X014096Y012687D01*
X014006Y012677D01*
X013896Y012652D01*
X013789Y012615D01*
X013686Y012565D01*
X013590Y012505D01*
X013502Y012434D01*
X013421Y012354D01*
X013326Y012226D02*
X006680Y012226D01*
X006680Y012068D02*
X013241Y012068D01*
X013192Y011909D02*
X006680Y011909D01*
X006680Y011751D02*
X014096Y011751D01*
X014096Y011760D02*
X014096Y011600D01*
X014256Y011600D01*
X014256Y010673D01*
X014345Y010683D01*
X014456Y010708D01*
X014563Y010745D01*
X014665Y010795D01*
X014761Y010855D01*
X014850Y010926D01*
X014930Y011006D01*
X015001Y011095D01*
X015061Y011191D01*
X015110Y011293D01*
X015148Y011400D01*
X015173Y011511D01*
X015180Y011574D01*
X015180Y010630D01*
X011070Y010630D01*
X011070Y010837D01*
X010988Y011036D01*
X010836Y011188D01*
X010637Y011270D01*
X010423Y011270D01*
X010224Y011188D01*
X010072Y011036D01*
X009990Y010837D01*
X009990Y010623D01*
X010072Y010424D01*
X010216Y010280D01*
X009553Y010280D01*
X009601Y010342D01*
X009646Y010421D01*
X009681Y010506D01*
X009705Y010594D01*
X009712Y010650D01*
X009100Y010650D01*
X009100Y010810D01*
X008940Y010810D01*
X008940Y011422D01*
X008884Y011415D01*
X008796Y011391D01*
X008711Y011356D01*
X008632Y011311D01*
X008560Y011255D01*
X008495Y011190D01*
X008439Y011118D01*
X008394Y011039D01*
X008359Y010954D01*
X008335Y010866D01*
X008328Y010810D01*
X008940Y010810D01*
X008940Y010650D01*
X008328Y010650D01*
X008335Y010594D01*
X008359Y010506D01*
X008394Y010421D01*
X008439Y010342D01*
X008487Y010280D01*
X007993Y010280D01*
X008041Y010342D01*
X008086Y010421D01*
X008121Y010506D01*
X008145Y010594D01*
X008152Y010650D01*
X007540Y010650D01*
X007540Y010810D01*
X007380Y010810D01*
X007380Y011422D01*
X007324Y011415D01*
X007236Y011391D01*
X007151Y011356D01*
X007072Y011311D01*
X007000Y011255D01*
X006935Y011190D01*
X006879Y011118D01*
X006834Y011039D01*
X006799Y010954D01*
X006775Y010866D01*
X006768Y010810D01*
X007380Y010810D01*
X007380Y010650D01*
X006768Y010650D01*
X006775Y010594D01*
X006799Y010506D01*
X006834Y010421D01*
X006879Y010342D01*
X006927Y010280D01*
X006680Y010280D01*
X006680Y014400D01*
X014817Y014400D01*
X014759Y014376D01*
X014491Y014109D01*
X014347Y013759D01*
X014347Y013381D01*
X014491Y013031D01*
X014759Y012763D01*
X015109Y012619D01*
X015180Y012619D01*
X015180Y011786D01*
X015173Y011849D01*
X015148Y011960D01*
X015110Y012067D01*
X015061Y012169D01*
X015001Y012265D01*
X014930Y012354D01*
X014850Y012434D01*
X014761Y012505D01*
X014665Y012565D01*
X014563Y012615D01*
X014456Y012652D01*
X014345Y012677D01*
X014256Y012687D01*
X014256Y011760D01*
X014096Y011760D01*
X014096Y011909D02*
X014256Y011909D01*
X014256Y012068D02*
X014096Y012068D01*
X014096Y012226D02*
X014256Y012226D01*
X014256Y012385D02*
X014096Y012385D01*
X014096Y012543D02*
X014256Y012543D01*
X014700Y012543D02*
X015180Y012543D01*
X015180Y012385D02*
X014899Y012385D01*
X015025Y012226D02*
X015180Y012226D01*
X015180Y012068D02*
X015110Y012068D01*
X015159Y011909D02*
X015180Y011909D01*
X015155Y011434D02*
X015180Y011434D01*
X015180Y011275D02*
X015102Y011275D01*
X015180Y011117D02*
X015014Y011117D01*
X014882Y010958D02*
X015180Y010958D01*
X015180Y010800D02*
X014673Y010800D01*
X014256Y010800D02*
X014096Y010800D01*
X014096Y010673D02*
X014006Y010683D01*
X013896Y010708D01*
X013789Y010745D01*
X013686Y010795D01*
X013590Y010855D01*
X013502Y010926D01*
X013421Y011006D01*
X013351Y011095D01*
X013290Y011191D01*
X013241Y011293D01*
X013204Y011400D01*
X013178Y011511D01*
X013168Y011600D01*
X014096Y011600D01*
X014096Y010673D01*
X014096Y010958D02*
X014256Y010958D01*
X014256Y011117D02*
X014096Y011117D01*
X014096Y011275D02*
X014256Y011275D01*
X014256Y011434D02*
X014096Y011434D01*
X014096Y011592D02*
X014256Y011592D01*
X013469Y010958D02*
X011020Y010958D01*
X011070Y010800D02*
X013679Y010800D01*
X013337Y011117D02*
X010907Y011117D01*
X011070Y010641D02*
X015180Y010641D01*
X013250Y011275D02*
X009454Y011275D01*
X009480Y011255D02*
X009408Y011311D01*
X009329Y011356D01*
X009244Y011391D01*
X009156Y011415D01*
X009100Y011422D01*
X009100Y010810D01*
X009712Y010810D01*
X009705Y010866D01*
X009681Y010954D01*
X009646Y011039D01*
X009601Y011118D01*
X009545Y011190D01*
X009480Y011255D01*
X009601Y011117D02*
X010153Y011117D01*
X010040Y010958D02*
X009680Y010958D01*
X009990Y010800D02*
X009100Y010800D01*
X009100Y010958D02*
X008940Y010958D01*
X008940Y010800D02*
X007540Y010800D01*
X007540Y010810D02*
X008152Y010810D01*
X008145Y010866D01*
X008121Y010954D01*
X008086Y011039D01*
X008041Y011118D01*
X007985Y011190D01*
X007920Y011255D01*
X007848Y011311D01*
X007769Y011356D01*
X007684Y011391D01*
X007596Y011415D01*
X007540Y011422D01*
X007540Y010810D01*
X007540Y010958D02*
X007380Y010958D01*
X007380Y010800D02*
X006680Y010800D01*
X006680Y010958D02*
X006800Y010958D01*
X006879Y011117D02*
X006680Y011117D01*
X006680Y011275D02*
X007026Y011275D01*
X007380Y011275D02*
X007540Y011275D01*
X007540Y011117D02*
X007380Y011117D01*
X007894Y011275D02*
X008586Y011275D01*
X008439Y011117D02*
X008041Y011117D01*
X008120Y010958D02*
X008360Y010958D01*
X008329Y010641D02*
X008151Y010641D01*
X008112Y010483D02*
X008368Y010483D01*
X008453Y010324D02*
X008027Y010324D01*
X008940Y011117D02*
X009100Y011117D01*
X009100Y011275D02*
X008940Y011275D01*
X009711Y010641D02*
X009990Y010641D01*
X010048Y010483D02*
X009672Y010483D01*
X009587Y010324D02*
X010172Y010324D01*
X007525Y012385D02*
X006680Y012385D01*
X006680Y012543D02*
X007239Y012543D01*
X007122Y012702D02*
X006680Y012702D01*
X006680Y012860D02*
X007066Y012860D01*
X007054Y013019D02*
X006680Y013019D01*
X006280Y012702D02*
X006238Y012702D01*
X006280Y012543D02*
X006121Y012543D01*
X006280Y012385D02*
X005835Y012385D01*
X005714Y012385D02*
X005677Y012385D01*
X005556Y012385D02*
X002241Y012385D01*
X002430Y012543D02*
X005270Y012543D01*
X005153Y012702D02*
X002524Y012702D01*
X002606Y012843D02*
X002606Y012843D01*
X002609Y012860D02*
X005097Y012860D01*
X005086Y012998D02*
X005677Y012998D01*
X005677Y013590D01*
X005648Y013590D01*
X005553Y013575D01*
X005462Y013545D01*
X005376Y013502D01*
X005298Y013445D01*
X005230Y013377D01*
X005174Y013300D01*
X005130Y013214D01*
X005101Y013123D01*
X005086Y013028D01*
X005086Y012998D01*
X005086Y013019D02*
X002636Y013019D01*
X002664Y013177D02*
X005118Y013177D01*
X005200Y013336D02*
X002638Y013336D01*
X002665Y013180D02*
X002665Y013180D01*
X002610Y013494D02*
X005365Y013494D01*
X005677Y013494D02*
X005714Y013494D01*
X005714Y013336D02*
X005677Y013336D01*
X005677Y013177D02*
X005714Y013177D01*
X005714Y013019D02*
X005677Y013019D01*
X005677Y012860D02*
X005714Y012860D01*
X005714Y012702D02*
X005677Y012702D01*
X005677Y012543D02*
X005714Y012543D01*
X006280Y012226D02*
X001895Y012226D01*
X002435Y012547D02*
X002435Y012547D01*
X002435Y012547D01*
X002606Y013517D02*
X002606Y013517D01*
X004260Y011275D02*
X004420Y011275D01*
X004420Y011117D02*
X004260Y011117D01*
X005037Y011117D02*
X005319Y011117D01*
X005240Y010958D02*
X005037Y010958D01*
X005037Y010641D02*
X005209Y010641D01*
X005248Y010483D02*
X005037Y010483D01*
X005037Y010324D02*
X005333Y010324D01*
X005466Y011275D02*
X005036Y011275D01*
X006680Y011434D02*
X013196Y011434D01*
X013169Y011592D02*
X006680Y011592D01*
X006680Y010641D02*
X006769Y010641D01*
X006808Y010483D02*
X006680Y010483D01*
X006680Y010324D02*
X006893Y010324D01*
X005684Y008230D02*
X013330Y008230D01*
X013422Y008268D01*
X013822Y008668D01*
X013853Y008700D01*
X013969Y008748D01*
X014101Y008880D01*
X014259Y008880D01*
X014391Y008748D01*
X014579Y008670D01*
X014781Y008670D01*
X014969Y008748D01*
X015101Y008880D01*
X015259Y008880D01*
X015391Y008748D01*
X015579Y008670D01*
X015781Y008670D01*
X015841Y008695D01*
X014468Y007322D01*
X014430Y007230D01*
X014430Y006311D01*
X014392Y006273D01*
X014340Y006148D01*
X014340Y006012D01*
X014392Y005887D01*
X014487Y005792D01*
X014612Y005740D01*
X014748Y005740D01*
X014873Y005792D01*
X014968Y005887D01*
X015020Y006012D01*
X015020Y006148D01*
X014968Y006273D01*
X014930Y006311D01*
X014930Y007076D01*
X016540Y008686D01*
X016579Y008670D01*
X016781Y008670D01*
X016880Y008711D01*
X016880Y007761D01*
X016873Y007768D01*
X016748Y007820D01*
X016612Y007820D01*
X016487Y007768D01*
X016392Y007673D01*
X016340Y007548D01*
X016340Y007412D01*
X016346Y007399D01*
X015968Y007022D01*
X015930Y006930D01*
X015930Y003628D01*
X015781Y003690D01*
X015579Y003690D01*
X015391Y003612D01*
X015248Y003469D01*
X015180Y003306D01*
X015112Y003469D01*
X014969Y003612D01*
X014781Y003690D01*
X014579Y003690D01*
X014391Y003612D01*
X014248Y003469D01*
X014180Y003306D01*
X014112Y003469D01*
X013969Y003612D01*
X013781Y003690D01*
X013579Y003690D01*
X013391Y003612D01*
X013360Y003582D01*
X012454Y004567D01*
X012452Y004572D01*
X012421Y004603D01*
X012391Y004636D01*
X012386Y004638D01*
X012382Y004642D01*
X012341Y004659D01*
X012300Y004678D01*
X012295Y004678D01*
X012290Y004680D01*
X012245Y004680D01*
X012201Y004682D01*
X012196Y004680D01*
X009826Y004680D01*
X008952Y005462D01*
X008922Y005492D01*
X008915Y005495D01*
X008910Y005499D01*
X008869Y005514D01*
X008830Y005530D01*
X008823Y005530D01*
X008816Y005532D01*
X008773Y005530D01*
X007794Y005530D01*
X007758Y005534D01*
X007745Y005530D01*
X007730Y005530D01*
X007697Y005516D01*
X007663Y005506D01*
X007652Y005497D01*
X007638Y005492D01*
X007613Y005467D01*
X007442Y005330D01*
X004199Y005330D01*
X002997Y006809D01*
X002992Y006822D01*
X002966Y006848D01*
X002943Y006876D01*
X002931Y006883D01*
X002922Y006892D01*
X002890Y006905D01*
X002915Y006930D01*
X004151Y006930D01*
X003950Y006729D01*
X003950Y006331D01*
X004076Y006205D01*
X003950Y006079D01*
X003950Y005681D01*
X004231Y005400D01*
X004629Y005400D01*
X004910Y005681D01*
X004910Y006079D01*
X004859Y006130D01*
X013376Y006130D01*
X013875Y005632D01*
X013840Y005548D01*
X013840Y005412D01*
X013892Y005287D01*
X013987Y005192D01*
X014112Y005140D01*
X014248Y005140D01*
X014373Y005192D01*
X014468Y005287D01*
X014520Y005412D01*
X014520Y005548D01*
X014468Y005673D01*
X014430Y005711D01*
X014430Y005730D01*
X014392Y005822D01*
X013622Y006592D01*
X013530Y006630D01*
X004910Y006630D01*
X004910Y006729D01*
X004709Y006930D01*
X010830Y006930D01*
X010922Y006968D01*
X011094Y007140D01*
X011148Y007140D01*
X011273Y007192D01*
X011368Y007287D01*
X011420Y007412D01*
X011420Y007548D01*
X011368Y007673D01*
X011273Y007768D01*
X011148Y007820D01*
X011012Y007820D01*
X010887Y007768D01*
X010792Y007673D01*
X010740Y007548D01*
X010740Y007494D01*
X010676Y007430D01*
X008911Y007430D01*
X008968Y007487D01*
X009020Y007612D01*
X009020Y007748D01*
X008968Y007873D01*
X008873Y007968D01*
X008748Y008020D01*
X008612Y008020D01*
X008487Y007968D01*
X008392Y007873D01*
X008340Y007748D01*
X008340Y007694D01*
X008276Y007630D01*
X003484Y007630D01*
X003222Y007892D01*
X003130Y007930D01*
X002887Y007930D01*
X002930Y007973D01*
X002930Y008160D01*
X002450Y008160D01*
X002450Y008200D01*
X002930Y008200D01*
X002930Y008387D01*
X002887Y008430D01*
X003449Y008430D01*
X003392Y008373D01*
X003340Y008248D01*
X003340Y008112D01*
X003392Y007987D01*
X003487Y007892D01*
X003612Y007840D01*
X003748Y007840D01*
X003873Y007892D01*
X003911Y007930D01*
X004630Y007930D01*
X004722Y007968D01*
X004940Y008186D01*
X004940Y008112D01*
X004992Y007987D01*
X005087Y007892D01*
X005212Y007840D01*
X005348Y007840D01*
X005473Y007892D01*
X005568Y007987D01*
X005620Y008112D01*
X005620Y008166D01*
X005684Y008230D01*
X005617Y008105D02*
X015251Y008105D01*
X015093Y007947D02*
X008894Y007947D01*
X009003Y007788D02*
X010935Y007788D01*
X010774Y007630D02*
X009020Y007630D01*
X008952Y007471D02*
X010717Y007471D01*
X011181Y007154D02*
X014430Y007154D01*
X014430Y006996D02*
X010949Y006996D01*
X011379Y007313D02*
X014464Y007313D01*
X014617Y007471D02*
X011420Y007471D01*
X011386Y007630D02*
X014776Y007630D01*
X014934Y007788D02*
X011225Y007788D01*
X013411Y008264D02*
X015410Y008264D01*
X015568Y008422D02*
X013576Y008422D01*
X013734Y008581D02*
X015727Y008581D01*
X015412Y008739D02*
X014948Y008739D01*
X014412Y008739D02*
X013948Y008739D01*
X015325Y007471D02*
X016340Y007471D01*
X016374Y007630D02*
X015483Y007630D01*
X015642Y007788D02*
X016535Y007788D01*
X016825Y007788D02*
X016880Y007788D01*
X016880Y007947D02*
X015800Y007947D01*
X015959Y008105D02*
X016880Y008105D01*
X016880Y008264D02*
X016117Y008264D01*
X016276Y008422D02*
X016880Y008422D01*
X016880Y008581D02*
X016434Y008581D01*
X016259Y007313D02*
X015166Y007313D01*
X015008Y007154D02*
X016100Y007154D01*
X015957Y006996D02*
X014930Y006996D01*
X014930Y006837D02*
X015930Y006837D01*
X015930Y006679D02*
X014930Y006679D01*
X014930Y006520D02*
X015930Y006520D01*
X015930Y006362D02*
X014930Y006362D01*
X014997Y006203D02*
X015930Y006203D01*
X015930Y006045D02*
X015020Y006045D01*
X014967Y005886D02*
X015930Y005886D01*
X015930Y005728D02*
X014430Y005728D01*
X014393Y005886D02*
X014328Y005886D01*
X014340Y006045D02*
X014169Y006045D01*
X014011Y006203D02*
X014363Y006203D01*
X014430Y006362D02*
X013852Y006362D01*
X013694Y006520D02*
X014430Y006520D01*
X014430Y006679D02*
X004910Y006679D01*
X004802Y006837D02*
X014430Y006837D01*
X013462Y006045D02*
X004910Y006045D01*
X004910Y005886D02*
X013620Y005886D01*
X013779Y005728D02*
X004910Y005728D01*
X004798Y005569D02*
X013849Y005569D01*
X013841Y005411D02*
X009009Y005411D01*
X009186Y005252D02*
X013927Y005252D01*
X014433Y005252D02*
X015930Y005252D01*
X015930Y005094D02*
X009363Y005094D01*
X009541Y004935D02*
X015930Y004935D01*
X015930Y004777D02*
X009718Y004777D01*
X007543Y005411D02*
X004639Y005411D01*
X004221Y005411D02*
X004134Y005411D01*
X004062Y005569D02*
X004005Y005569D01*
X003950Y005728D02*
X003876Y005728D01*
X003950Y005886D02*
X003747Y005886D01*
X003618Y006045D02*
X003950Y006045D01*
X004074Y006203D02*
X003490Y006203D01*
X003361Y006362D02*
X003950Y006362D01*
X003950Y006520D02*
X003232Y006520D01*
X003103Y006679D02*
X003950Y006679D01*
X004058Y006837D02*
X002977Y006837D01*
X003326Y007788D02*
X008357Y007788D01*
X008466Y007947D02*
X005527Y007947D01*
X005033Y007947D02*
X004670Y007947D01*
X004859Y008105D02*
X004943Y008105D01*
X003433Y007947D02*
X002904Y007947D01*
X002930Y008105D02*
X003343Y008105D01*
X003347Y008264D02*
X002930Y008264D01*
X002895Y008422D02*
X003441Y008422D01*
X004430Y006530D02*
X004430Y005880D01*
X008916Y001131D02*
X009044Y001131D01*
X009202Y000973D02*
X008758Y000973D01*
X008468Y000814D02*
X018684Y000814D01*
X018500Y000656D02*
X008309Y000656D01*
X009758Y000973D02*
X010202Y000973D01*
X010044Y001131D02*
X009916Y001131D01*
X010758Y000973D02*
X011202Y000973D01*
X011044Y001131D02*
X010916Y001131D01*
X011758Y000973D02*
X012202Y000973D01*
X012044Y001131D02*
X011916Y001131D01*
X012758Y000973D02*
X013202Y000973D01*
X013044Y001131D02*
X012916Y001131D01*
X013758Y000973D02*
X014202Y000973D01*
X014044Y001131D02*
X013916Y001131D01*
X014758Y000973D02*
X015230Y000973D01*
X015072Y001131D02*
X014916Y001131D01*
X015460Y001131D02*
X015500Y001131D01*
X015500Y000973D02*
X015460Y000973D01*
X015730Y000973D02*
X016202Y000973D01*
X016044Y001131D02*
X015888Y001131D01*
X015500Y001290D02*
X015460Y001290D01*
X016758Y000973D02*
X017202Y000973D01*
X017044Y001131D02*
X016916Y001131D01*
X017758Y000973D02*
X018015Y000973D01*
X017960Y001131D02*
X017916Y001131D01*
X018129Y000497D02*
X001331Y000497D01*
X012407Y004618D02*
X015930Y004618D01*
X015930Y004460D02*
X012553Y004460D01*
X012699Y004301D02*
X015930Y004301D01*
X015930Y004143D02*
X012844Y004143D01*
X012990Y003984D02*
X015930Y003984D01*
X015930Y003826D02*
X013136Y003826D01*
X013282Y003667D02*
X013523Y003667D01*
X013837Y003667D02*
X014523Y003667D01*
X014287Y003509D02*
X014073Y003509D01*
X014162Y003350D02*
X014198Y003350D01*
X014837Y003667D02*
X015523Y003667D01*
X015287Y003509D02*
X015073Y003509D01*
X015162Y003350D02*
X015198Y003350D01*
X015837Y003667D02*
X015930Y003667D01*
X015930Y005411D02*
X014519Y005411D01*
X014511Y005569D02*
X015930Y005569D01*
X018480Y005569D02*
X019000Y005569D01*
X019000Y005411D02*
X018480Y005411D01*
X018480Y005252D02*
X019000Y005252D01*
X019000Y005094D02*
X018480Y005094D01*
X018480Y004935D02*
X019000Y004935D01*
X019000Y004777D02*
X018480Y004777D01*
X018480Y004618D02*
X019000Y004618D01*
X019000Y004460D02*
X018480Y004460D01*
X018480Y004301D02*
X019000Y004301D01*
X019000Y004143D02*
X018480Y004143D01*
X018480Y003984D02*
X019000Y003984D01*
X019000Y003826D02*
X018480Y003826D01*
X018480Y003667D02*
X018523Y003667D01*
X018480Y003649D02*
X018480Y008732D01*
X018492Y008726D01*
X018565Y008702D01*
X018641Y008690D01*
X018665Y008690D01*
X018665Y008880D01*
X018695Y008880D01*
X018695Y008690D01*
X018719Y008690D01*
X018795Y008702D01*
X018868Y008726D01*
X018937Y008761D01*
X018999Y008806D01*
X019000Y008807D01*
X019000Y003581D01*
X018969Y003612D01*
X018781Y003690D01*
X018579Y003690D01*
X018480Y003649D01*
X018837Y003667D02*
X019000Y003667D01*
X019000Y005728D02*
X018480Y005728D01*
X018480Y005886D02*
X019000Y005886D01*
X019000Y006045D02*
X018480Y006045D01*
X018480Y006203D02*
X019000Y006203D01*
X019000Y006362D02*
X018480Y006362D01*
X018480Y006520D02*
X019000Y006520D01*
X019000Y006679D02*
X018480Y006679D01*
X018480Y006837D02*
X019000Y006837D01*
X019000Y006996D02*
X018480Y006996D01*
X018480Y007154D02*
X019000Y007154D01*
X019000Y007313D02*
X018480Y007313D01*
X018480Y007471D02*
X019000Y007471D01*
X019000Y007630D02*
X018480Y007630D01*
X018480Y007788D02*
X019000Y007788D01*
X019000Y007947D02*
X018480Y007947D01*
X018480Y008105D02*
X019000Y008105D01*
X019000Y008264D02*
X018480Y008264D01*
X018480Y008422D02*
X019000Y008422D01*
X019000Y008581D02*
X018480Y008581D01*
X018665Y008739D02*
X018695Y008739D01*
X018894Y008739D02*
X019000Y008739D01*
X013651Y012543D02*
X008090Y012543D01*
X008207Y012702D02*
X014908Y012702D01*
X014662Y012860D02*
X008263Y012860D01*
X008274Y013019D02*
X014504Y013019D01*
X014431Y013177D02*
X008242Y013177D01*
X008160Y013336D02*
X010189Y013336D01*
X010191Y013333D02*
X010257Y013285D01*
X010330Y013248D01*
X010408Y013223D01*
X010489Y013210D01*
X010500Y013210D01*
X010500Y013700D01*
X010010Y013700D01*
X010010Y013689D01*
X010023Y013608D01*
X010048Y013530D01*
X010085Y013457D01*
X010133Y013391D01*
X010191Y013333D01*
X010067Y013494D02*
X007995Y013494D01*
X006680Y013653D02*
X010016Y013653D01*
X010010Y013760D02*
X010500Y013760D01*
X010500Y014250D01*
X010489Y014250D01*
X010408Y014237D01*
X010330Y014212D01*
X010257Y014175D01*
X010191Y014127D01*
X010133Y014069D01*
X010085Y014003D01*
X010048Y013930D01*
X010023Y013852D01*
X010010Y013771D01*
X010010Y013760D01*
X010016Y013811D02*
X006680Y013811D01*
X006680Y013970D02*
X010068Y013970D01*
X010193Y014128D02*
X006680Y014128D01*
X006680Y014287D02*
X014669Y014287D01*
X014511Y014128D02*
X010867Y014128D01*
X010869Y014127D02*
X010803Y014175D01*
X010730Y014212D01*
X010652Y014237D01*
X010571Y014250D01*
X010560Y014250D01*
X010560Y013760D01*
X010500Y013760D01*
X010500Y013700D01*
X010560Y013700D01*
X010560Y013760D01*
X011050Y013760D01*
X011050Y013771D01*
X011037Y013852D01*
X011012Y013930D01*
X010975Y014003D01*
X010927Y014069D01*
X010869Y014127D01*
X010992Y013970D02*
X014434Y013970D01*
X014368Y013811D02*
X011044Y013811D01*
X011050Y013700D02*
X010560Y013700D01*
X010560Y013210D01*
X010571Y013210D01*
X010652Y013223D01*
X010730Y013248D01*
X010803Y013285D01*
X010869Y013333D01*
X010927Y013391D01*
X010975Y013457D01*
X011012Y013530D01*
X011037Y013608D01*
X011050Y013689D01*
X011050Y013700D01*
X011044Y013653D02*
X014347Y013653D01*
X014347Y013494D02*
X010993Y013494D01*
X010871Y013336D02*
X014365Y013336D01*
X010560Y013336D02*
X010500Y013336D01*
X010500Y013494D02*
X010560Y013494D01*
X010560Y013653D02*
X010500Y013653D01*
X010500Y013811D02*
X010560Y013811D01*
X010560Y013970D02*
X010500Y013970D01*
X010500Y014128D02*
X010560Y014128D01*
D23*
X005280Y008180D03*
X003680Y008180D03*
X006380Y005880D03*
X007980Y005880D03*
X007980Y004780D03*
X004880Y003980D03*
X004880Y003380D03*
X003830Y003380D03*
X008680Y007680D03*
X009680Y007580D03*
X011080Y007480D03*
X011980Y005380D03*
X014180Y005480D03*
X014680Y006080D03*
X015680Y006080D03*
X016680Y007480D03*
X013980Y007580D03*
D24*
X014680Y007180D02*
X016680Y009180D01*
X015680Y009180D02*
X014880Y010030D01*
X002230Y010030D01*
X001430Y009180D01*
X001930Y008680D02*
X001430Y008180D01*
X001930Y008680D02*
X004580Y008680D01*
X005430Y009630D01*
X011280Y009630D01*
X011680Y009180D01*
X012280Y009830D02*
X012680Y009180D01*
X013180Y008880D02*
X013180Y009480D01*
X013380Y009680D01*
X014480Y009680D01*
X014680Y009480D01*
X014680Y009180D01*
X013680Y009180D02*
X013680Y008880D01*
X013280Y008480D01*
X005580Y008480D01*
X005280Y008180D01*
X005080Y008680D02*
X009180Y008680D01*
X009680Y009180D01*
X010180Y008680D01*
X012980Y008680D01*
X013180Y008880D01*
X012280Y009830D02*
X005330Y009830D01*
X004680Y009080D01*
X002530Y009080D01*
X002430Y009180D01*
X003680Y008180D02*
X004580Y008180D01*
X005080Y008680D01*
X003380Y007380D02*
X008380Y007380D01*
X008680Y007680D01*
X010780Y007180D02*
X011080Y007480D01*
X010780Y007180D02*
X002430Y007180D01*
X003080Y007680D02*
X003380Y007380D01*
X003080Y007680D02*
X001180Y007680D01*
X000880Y007380D01*
X000880Y005730D01*
X001430Y005180D01*
X001780Y004680D02*
X002680Y004680D01*
X002880Y004480D01*
X008980Y004480D01*
X009480Y003980D01*
X011580Y003980D01*
X012180Y003380D01*
X012180Y002980D01*
X012480Y002680D01*
X014180Y002680D01*
X014680Y003180D01*
X014980Y002480D02*
X011680Y002480D01*
X011180Y002980D01*
X011180Y003380D01*
X010880Y003680D01*
X009480Y003680D01*
X008880Y004280D01*
X002730Y004280D01*
X002430Y004180D01*
X001980Y003680D02*
X001480Y003180D01*
X001430Y003180D01*
X001930Y002680D02*
X003580Y002680D01*
X004280Y003380D01*
X004880Y003380D01*
X004430Y002880D02*
X004630Y002680D01*
X005680Y002680D01*
X005980Y002380D01*
X005980Y001180D01*
X006380Y000780D01*
X008080Y000780D01*
X008480Y001180D01*
X008480Y001430D01*
X008480Y002980D01*
X008680Y003180D01*
X009480Y002980D02*
X009680Y003180D01*
X008880Y003980D01*
X004880Y003980D01*
X005680Y003180D02*
X006480Y002380D01*
X006480Y001430D01*
X007480Y001430D02*
X007580Y001530D01*
X007580Y003080D01*
X007680Y003180D01*
X006680Y003180D02*
X006180Y003680D01*
X001980Y003680D01*
X002430Y003180D02*
X003630Y003180D01*
X003830Y003380D01*
X003230Y004680D02*
X002730Y005180D01*
X002430Y005180D01*
X002780Y005680D02*
X001880Y005680D01*
X001430Y006130D01*
X001430Y006180D01*
X002080Y006680D02*
X002780Y006680D01*
X004080Y005080D01*
X007530Y005080D01*
X007780Y005280D01*
X008780Y005280D01*
X009730Y004430D01*
X012240Y004430D01*
X013390Y003180D01*
X013680Y003180D01*
X012680Y003180D02*
X011730Y004230D01*
X009630Y004230D01*
X008680Y005080D01*
X007880Y005080D01*
X007630Y004880D01*
X003430Y004880D01*
X002780Y005680D01*
X002080Y006680D02*
X001580Y007180D01*
X001430Y007180D01*
X004430Y006530D02*
X004530Y006530D01*
X004680Y006380D01*
X013480Y006380D01*
X014180Y005680D01*
X014180Y005480D01*
X014680Y006080D02*
X014680Y007180D01*
X016180Y006880D02*
X016680Y007380D01*
X016680Y007480D01*
X016180Y006880D02*
X016180Y002880D01*
X015580Y002280D01*
X014130Y002280D01*
X013480Y001430D01*
X014980Y002480D02*
X015680Y003180D01*
X010680Y003180D02*
X010480Y002980D01*
X010480Y001430D01*
X009480Y001430D02*
X009480Y002980D01*
X007980Y004780D02*
X007780Y004680D01*
X003230Y004680D01*
X001780Y004680D02*
X001380Y004180D01*
X001430Y004180D01*
X001930Y002680D02*
X001430Y002180D01*
M02*
