G75*
G70*
%OFA0B0*%
%FSLAX24Y24*%
%IPPOS*%
%LPD*%
%AMOC8*
5,1,8,0,0,1.08239X$1,22.5*
%
%ADD10C,0.0000*%
%ADD11C,0.0060*%
%ADD12R,0.0640X0.0640*%
%ADD13OC8,0.0640*%
%ADD14C,0.1033*%
%ADD15R,0.1033X0.1033*%
%ADD16C,0.0860*%
%ADD17C,0.1122*%
%ADD18OC8,0.0560*%
%ADD19C,0.0620*%
%ADD20C,0.0396*%
%ADD21C,0.0160*%
%ADD22C,0.0100*%
D10*
X001600Y002933D02*
X017900Y002933D01*
X017973Y002935D01*
X018046Y002941D01*
X018119Y002950D01*
X018191Y002964D01*
X018262Y002981D01*
X018333Y003002D01*
X018402Y003026D01*
X018469Y003054D01*
X018536Y003086D01*
X018600Y003121D01*
X018662Y003159D01*
X018723Y003200D01*
X018781Y003245D01*
X018837Y003293D01*
X018890Y003343D01*
X018940Y003396D01*
X018988Y003452D01*
X019033Y003510D01*
X019074Y003571D01*
X019112Y003633D01*
X019147Y003697D01*
X019179Y003764D01*
X019207Y003831D01*
X019231Y003900D01*
X019252Y003971D01*
X019269Y004042D01*
X019283Y004114D01*
X019292Y004187D01*
X019298Y004260D01*
X019300Y004333D01*
X019300Y016033D01*
X017847Y015433D02*
X017849Y015475D01*
X017855Y015517D01*
X017865Y015559D01*
X017878Y015599D01*
X017896Y015638D01*
X017917Y015675D01*
X017941Y015709D01*
X017969Y015742D01*
X017999Y015772D01*
X018032Y015798D01*
X018067Y015822D01*
X018105Y015842D01*
X018144Y015858D01*
X018184Y015871D01*
X018226Y015880D01*
X018268Y015885D01*
X018311Y015886D01*
X018353Y015883D01*
X018395Y015876D01*
X018436Y015865D01*
X018476Y015850D01*
X018514Y015832D01*
X018551Y015810D01*
X018585Y015785D01*
X018617Y015757D01*
X018645Y015726D01*
X018671Y015692D01*
X018694Y015656D01*
X018713Y015619D01*
X018729Y015579D01*
X018741Y015538D01*
X018749Y015497D01*
X018753Y015454D01*
X018753Y015412D01*
X018749Y015369D01*
X018741Y015328D01*
X018729Y015287D01*
X018713Y015247D01*
X018694Y015210D01*
X018671Y015174D01*
X018645Y015140D01*
X018617Y015109D01*
X018585Y015081D01*
X018551Y015056D01*
X018514Y015034D01*
X018476Y015016D01*
X018436Y015001D01*
X018395Y014990D01*
X018353Y014983D01*
X018311Y014980D01*
X018268Y014981D01*
X018226Y014986D01*
X018184Y014995D01*
X018144Y015008D01*
X018105Y015024D01*
X018067Y015044D01*
X018032Y015068D01*
X017999Y015094D01*
X017969Y015124D01*
X017941Y015157D01*
X017917Y015191D01*
X017896Y015228D01*
X017878Y015267D01*
X017865Y015307D01*
X017855Y015349D01*
X017849Y015391D01*
X017847Y015433D01*
X019300Y016033D02*
X019298Y016106D01*
X019292Y016179D01*
X019283Y016252D01*
X019269Y016324D01*
X019252Y016395D01*
X019231Y016466D01*
X019207Y016535D01*
X019179Y016602D01*
X019147Y016669D01*
X019112Y016733D01*
X019074Y016795D01*
X019033Y016856D01*
X018988Y016914D01*
X018940Y016970D01*
X018890Y017023D01*
X018837Y017073D01*
X018781Y017121D01*
X018723Y017166D01*
X018662Y017207D01*
X018600Y017245D01*
X018536Y017280D01*
X018469Y017312D01*
X018402Y017340D01*
X018333Y017364D01*
X018262Y017385D01*
X018191Y017402D01*
X018119Y017416D01*
X018046Y017425D01*
X017973Y017431D01*
X017900Y017433D01*
X001600Y017433D01*
X001527Y017431D01*
X001454Y017425D01*
X001381Y017416D01*
X001309Y017402D01*
X001238Y017385D01*
X001167Y017364D01*
X001098Y017340D01*
X001031Y017312D01*
X000964Y017280D01*
X000900Y017245D01*
X000838Y017207D01*
X000777Y017166D01*
X000719Y017121D01*
X000663Y017073D01*
X000610Y017023D01*
X000560Y016970D01*
X000512Y016914D01*
X000467Y016856D01*
X000426Y016795D01*
X000388Y016733D01*
X000353Y016669D01*
X000321Y016602D01*
X000293Y016535D01*
X000269Y016466D01*
X000248Y016395D01*
X000231Y016324D01*
X000217Y016252D01*
X000208Y016179D01*
X000202Y016106D01*
X000200Y016033D01*
X000200Y004333D01*
X000202Y004260D01*
X000208Y004187D01*
X000217Y004114D01*
X000231Y004042D01*
X000248Y003971D01*
X000269Y003900D01*
X000293Y003831D01*
X000321Y003764D01*
X000353Y003697D01*
X000388Y003633D01*
X000426Y003571D01*
X000467Y003510D01*
X000512Y003452D01*
X000560Y003396D01*
X000610Y003343D01*
X000663Y003293D01*
X000719Y003245D01*
X000777Y003200D01*
X000838Y003159D01*
X000900Y003121D01*
X000964Y003086D01*
X001031Y003054D01*
X001098Y003026D01*
X001167Y003002D01*
X001238Y002981D01*
X001309Y002964D01*
X001381Y002950D01*
X001454Y002941D01*
X001527Y002935D01*
X001600Y002933D01*
X001070Y015933D02*
X001072Y015983D01*
X001078Y016033D01*
X001088Y016082D01*
X001102Y016130D01*
X001119Y016177D01*
X001140Y016222D01*
X001165Y016266D01*
X001193Y016307D01*
X001225Y016346D01*
X001259Y016383D01*
X001296Y016417D01*
X001336Y016447D01*
X001378Y016474D01*
X001422Y016498D01*
X001468Y016519D01*
X001515Y016535D01*
X001563Y016548D01*
X001613Y016557D01*
X001662Y016562D01*
X001713Y016563D01*
X001763Y016560D01*
X001812Y016553D01*
X001861Y016542D01*
X001909Y016527D01*
X001955Y016509D01*
X002000Y016487D01*
X002043Y016461D01*
X002084Y016432D01*
X002123Y016400D01*
X002159Y016365D01*
X002191Y016327D01*
X002221Y016287D01*
X002248Y016244D01*
X002271Y016200D01*
X002290Y016154D01*
X002306Y016106D01*
X002318Y016057D01*
X002326Y016008D01*
X002330Y015958D01*
X002330Y015908D01*
X002326Y015858D01*
X002318Y015809D01*
X002306Y015760D01*
X002290Y015712D01*
X002271Y015666D01*
X002248Y015622D01*
X002221Y015579D01*
X002191Y015539D01*
X002159Y015501D01*
X002123Y015466D01*
X002084Y015434D01*
X002043Y015405D01*
X002000Y015379D01*
X001955Y015357D01*
X001909Y015339D01*
X001861Y015324D01*
X001812Y015313D01*
X001763Y015306D01*
X001713Y015303D01*
X001662Y015304D01*
X001613Y015309D01*
X001563Y015318D01*
X001515Y015331D01*
X001468Y015347D01*
X001422Y015368D01*
X001378Y015392D01*
X001336Y015419D01*
X001296Y015449D01*
X001259Y015483D01*
X001225Y015520D01*
X001193Y015559D01*
X001165Y015600D01*
X001140Y015644D01*
X001119Y015689D01*
X001102Y015736D01*
X001088Y015784D01*
X001078Y015833D01*
X001072Y015883D01*
X001070Y015933D01*
D11*
X007970Y016763D02*
X008197Y016763D01*
X008083Y016763D02*
X008083Y017104D01*
X008197Y016990D01*
X008338Y017047D02*
X008565Y016820D01*
X008508Y016763D01*
X008395Y016763D01*
X008338Y016820D01*
X008338Y017047D01*
X008395Y017104D01*
X008508Y017104D01*
X008565Y017047D01*
X008565Y016820D01*
X008707Y016933D02*
X008933Y016933D01*
X009075Y016933D02*
X009245Y016933D01*
X009302Y016990D01*
X009302Y017047D01*
X009245Y017104D01*
X009132Y017104D01*
X009075Y017047D01*
X009075Y016820D01*
X009132Y016763D01*
X009245Y016763D01*
X009302Y016820D01*
X009443Y016820D02*
X009500Y016763D01*
X009613Y016763D01*
X009670Y016820D01*
X009443Y017047D01*
X009443Y016820D01*
X009443Y017047D02*
X009500Y017104D01*
X009613Y017104D01*
X009670Y017047D01*
X009670Y016820D01*
X009811Y016933D02*
X010038Y016933D01*
X010180Y016933D02*
X010407Y016933D01*
X010236Y017104D01*
X010236Y016763D01*
X010548Y016763D02*
X010775Y016763D01*
X010662Y016763D02*
X010662Y017104D01*
X010775Y016990D01*
X010916Y017047D02*
X011143Y016820D01*
X011087Y016763D01*
X010973Y016763D01*
X010916Y016820D01*
X010916Y017047D01*
X010973Y017104D01*
X011087Y017104D01*
X011143Y017047D01*
X011143Y016820D01*
X011285Y016763D02*
X011512Y016763D01*
X011285Y016990D01*
X011285Y017047D01*
X011341Y017104D01*
X011455Y017104D01*
X011512Y017047D01*
D12*
X014000Y016233D03*
X005600Y015033D03*
X003600Y016033D03*
X001350Y011933D03*
X004500Y004133D03*
X010500Y004133D03*
X011500Y004133D03*
D13*
X012500Y004133D03*
X013500Y004133D03*
X014500Y004133D03*
X015500Y004133D03*
X016500Y004133D03*
X017500Y004133D03*
X018500Y004133D03*
X009500Y004133D03*
X008500Y004133D03*
X007500Y004133D03*
X006500Y004133D03*
X005500Y004133D03*
X002350Y004933D03*
X001350Y004933D03*
X001350Y005933D03*
X002350Y005933D03*
X002350Y006933D03*
X001350Y006933D03*
X001350Y007933D03*
X002350Y007933D03*
X002350Y008933D03*
X001350Y008933D03*
X001350Y009933D03*
X002350Y009933D03*
X002350Y010933D03*
X001350Y010933D03*
X002350Y011933D03*
X003600Y015033D03*
X004600Y015033D03*
X004600Y016033D03*
X005600Y016033D03*
X013000Y016233D03*
D14*
X011640Y013483D03*
X010080Y013483D03*
X008520Y013483D03*
D15*
X006960Y013483D03*
D16*
X007216Y015833D03*
X009184Y015833D03*
D17*
X015820Y015433D03*
X015820Y016772D03*
X018694Y016890D03*
X015820Y013386D03*
X018694Y012992D03*
D18*
X004300Y012633D03*
X004300Y009633D03*
X004300Y008633D03*
X004300Y005633D03*
D19*
X005700Y005933D03*
X006700Y005933D03*
X007700Y005933D03*
X008700Y005933D03*
X009700Y005933D03*
X010700Y005933D03*
X011700Y005933D03*
X012700Y005933D03*
X013700Y005933D03*
X014700Y005933D03*
X015700Y005933D03*
X016700Y005933D03*
X017700Y005933D03*
X018700Y005933D03*
X012700Y007933D03*
X011700Y007933D03*
X010700Y007933D03*
X009700Y007933D03*
X008700Y007933D03*
X007700Y007933D03*
X006700Y007933D03*
X005700Y007933D03*
X005700Y006933D03*
X005700Y008933D03*
X006700Y008933D03*
X007700Y008933D03*
X008700Y008933D03*
X009700Y008933D03*
X010700Y008933D03*
X011700Y008933D03*
X012700Y008933D03*
X012700Y011933D03*
X013700Y011933D03*
X014700Y011933D03*
X015700Y011933D03*
X016700Y011933D03*
X017700Y011933D03*
X018700Y011933D03*
X011700Y011933D03*
X010700Y011933D03*
X009700Y011933D03*
X008700Y011933D03*
X007700Y011933D03*
X006700Y011933D03*
X005700Y011933D03*
X005700Y010933D03*
X005700Y009933D03*
D20*
X003700Y009533D03*
X003700Y008233D03*
X003200Y008233D03*
X003200Y007033D03*
X003100Y005433D03*
X003700Y005433D03*
X003600Y003433D03*
X010000Y004733D03*
X014000Y004533D03*
X010200Y006633D03*
X011000Y007083D03*
X012950Y006933D03*
X013550Y007633D03*
X014400Y007833D03*
X015000Y006883D03*
X017200Y007833D03*
X017400Y006733D03*
X013500Y009333D03*
X012500Y009833D03*
X013310Y010124D03*
X014400Y010633D03*
X015300Y011333D03*
X015800Y011333D03*
X018300Y010933D03*
X016600Y012633D03*
X016800Y013333D03*
X013400Y014033D03*
X012500Y013133D03*
X012200Y011483D03*
X010800Y010233D03*
X010000Y009833D03*
X009100Y009533D03*
X009200Y006683D03*
X004300Y013533D03*
D21*
X004300Y012633D01*
X004300Y010696D01*
X004579Y010417D01*
X005047Y009932D01*
X005700Y009933D01*
X007700Y009933D01*
X008200Y009433D01*
X008200Y005433D01*
X008300Y005233D01*
X008500Y004933D01*
X008500Y004133D01*
X008800Y003433D02*
X009500Y004133D01*
X008800Y003433D02*
X007800Y003433D01*
X007500Y003733D01*
X007500Y004133D01*
X007400Y004133D01*
X015700Y007833D02*
X017224Y006309D01*
X017174Y004551D01*
X017500Y004225D01*
X017500Y004133D01*
X018500Y004133D02*
X018500Y004933D01*
X018300Y005133D01*
X018300Y005333D01*
X018200Y005433D01*
X018200Y006633D01*
X017300Y007533D01*
X017300Y008033D02*
X017300Y010533D01*
X018300Y010933D01*
X018700Y011333D02*
X019000Y010933D01*
X019000Y006233D01*
X018700Y005933D01*
X015700Y007833D02*
X015700Y010433D01*
X016200Y011033D01*
X016200Y012333D01*
X016600Y012633D01*
X017200Y012933D02*
X017200Y011633D01*
X017500Y011333D01*
X018700Y011333D01*
X018700Y011933D02*
X017900Y012533D01*
X017900Y013933D01*
X017700Y014033D01*
X016100Y014033D01*
X015820Y013753D01*
X015820Y013386D01*
X015820Y015433D01*
X015200Y015433D01*
X014000Y015533D01*
X013700Y015533D01*
X013000Y016233D01*
X013400Y014033D02*
X010000Y016533D01*
X006200Y016533D01*
X005900Y016033D01*
X005600Y016033D01*
X005100Y015533D02*
X006916Y015533D01*
X007216Y015833D01*
X007100Y015833D01*
X007000Y015733D01*
X007216Y015833D02*
X008520Y015529D01*
X008520Y013483D01*
X006960Y013483D01*
X004600Y015033D02*
X004600Y016033D01*
X005100Y015533D01*
X004600Y016033D02*
X004600Y016233D01*
X016800Y013333D02*
X017200Y012933D01*
X005900Y009033D02*
X005800Y009033D01*
X005700Y008933D01*
X005200Y008933D01*
X005000Y009133D01*
X002550Y009133D01*
X002350Y008933D01*
D22*
X002400Y008942D02*
X003972Y008942D01*
X004071Y009040D02*
X002820Y009040D01*
X002820Y008983D02*
X002820Y009128D01*
X002545Y009403D01*
X002400Y009403D01*
X002400Y008983D01*
X002820Y008983D01*
X002820Y008883D02*
X002400Y008883D01*
X002400Y008983D01*
X002300Y008983D01*
X002300Y008883D01*
X001880Y008883D01*
X001880Y008739D01*
X001965Y008653D01*
X001763Y008653D01*
X001840Y008730D01*
X001840Y009136D01*
X001553Y009423D01*
X001147Y009423D01*
X000860Y009136D01*
X000860Y008730D01*
X001147Y008443D01*
X001549Y008443D01*
X001529Y008423D01*
X001147Y008423D01*
X000860Y008136D01*
X000860Y007730D01*
X001147Y007443D01*
X001553Y007443D01*
X001840Y007730D01*
X001840Y008112D01*
X001860Y008132D01*
X001860Y007730D01*
X002147Y007443D01*
X002553Y007443D01*
X002840Y007730D01*
X002840Y008136D01*
X002763Y008213D01*
X002809Y008213D01*
X002832Y008190D01*
X002832Y008160D01*
X002888Y008025D01*
X002991Y007921D01*
X003127Y007865D01*
X003273Y007865D01*
X003409Y007921D01*
X003450Y007963D01*
X003491Y007921D01*
X003501Y007917D01*
X003548Y007874D01*
X003609Y007813D01*
X003614Y007813D01*
X004748Y006774D01*
X004809Y006713D01*
X004814Y006713D01*
X004819Y006710D01*
X004905Y006713D01*
X005272Y006713D01*
X005293Y006661D01*
X005428Y006526D01*
X005605Y006453D01*
X005795Y006453D01*
X005972Y006526D01*
X005980Y006535D01*
X005980Y006332D01*
X005972Y006340D01*
X005795Y006413D01*
X005605Y006413D01*
X005428Y006340D01*
X005293Y006205D01*
X005220Y006029D01*
X005220Y005838D01*
X005293Y005661D01*
X005428Y005526D01*
X005605Y005453D01*
X005795Y005453D01*
X005972Y005526D01*
X005980Y005535D01*
X005980Y004824D01*
X005909Y004753D01*
X005780Y004624D01*
X005780Y004546D01*
X005703Y004623D01*
X005700Y004623D01*
X004750Y005573D01*
X004750Y005820D01*
X004486Y006083D01*
X004114Y006083D01*
X003850Y005820D01*
X003850Y005770D01*
X003773Y005801D01*
X003627Y005801D01*
X003491Y005745D01*
X003400Y005654D01*
X003320Y005734D01*
X003320Y006685D01*
X003409Y006721D01*
X003512Y006825D01*
X003568Y006960D01*
X003568Y007107D01*
X003512Y007242D01*
X003409Y007345D01*
X003273Y007401D01*
X003127Y007401D01*
X002991Y007345D01*
X002888Y007242D01*
X002840Y007126D01*
X002840Y007136D01*
X002553Y007423D01*
X002147Y007423D01*
X001860Y007136D01*
X001860Y006730D01*
X002147Y006443D01*
X002553Y006443D01*
X002840Y006730D01*
X002840Y006941D01*
X002880Y006844D01*
X002880Y005734D01*
X002788Y005642D01*
X002732Y005507D01*
X002732Y005360D01*
X002788Y005225D01*
X002891Y005121D01*
X003027Y005065D01*
X003173Y005065D01*
X003309Y005121D01*
X003400Y005213D01*
X003480Y005133D01*
X003480Y003782D01*
X003391Y003745D01*
X003288Y003642D01*
X003232Y003507D01*
X003232Y003360D01*
X003288Y003225D01*
X003329Y003183D01*
X001600Y003183D01*
X001450Y003193D01*
X001160Y003271D01*
X000900Y003421D01*
X000688Y003633D01*
X000538Y003893D01*
X000460Y004183D01*
X000450Y004333D01*
X000450Y016033D01*
X000460Y016183D01*
X000538Y016473D01*
X000688Y016733D01*
X000900Y016946D01*
X001160Y017096D01*
X001450Y017173D01*
X001600Y017183D01*
X007883Y017183D01*
X007883Y016960D01*
X007770Y016846D01*
X007770Y016783D01*
X006218Y016783D01*
X006188Y016788D01*
X006169Y016783D01*
X006150Y016783D01*
X006121Y016771D01*
X006091Y016764D01*
X006076Y016753D01*
X006058Y016745D01*
X006036Y016723D01*
X006011Y016705D01*
X006001Y016688D01*
X005988Y016675D01*
X005976Y016646D01*
X005865Y016461D01*
X005803Y016523D01*
X005397Y016523D01*
X005110Y016236D01*
X005110Y015830D01*
X005397Y015543D01*
X005803Y015543D01*
X006090Y015830D01*
X006090Y015864D01*
X006099Y015878D01*
X006112Y015892D01*
X006124Y015921D01*
X006342Y016283D01*
X006848Y016283D01*
X006838Y016276D01*
X006773Y016211D01*
X006720Y016137D01*
X006678Y016056D01*
X006650Y015969D01*
X006636Y015882D01*
X007167Y015882D01*
X007167Y015785D01*
X006636Y015785D01*
X006650Y015698D01*
X006678Y015611D01*
X006720Y015529D01*
X006773Y015455D01*
X006838Y015391D01*
X006912Y015337D01*
X006993Y015296D01*
X007080Y015268D01*
X007167Y015254D01*
X007167Y015785D01*
X007264Y015785D01*
X007264Y015254D01*
X007352Y015268D01*
X007438Y015296D01*
X007520Y015337D01*
X007594Y015391D01*
X007658Y015455D01*
X007712Y015529D01*
X007753Y015611D01*
X007781Y015698D01*
X007795Y015785D01*
X007264Y015785D01*
X007264Y015882D01*
X007795Y015882D01*
X007781Y015969D01*
X007753Y016056D01*
X007712Y016137D01*
X007658Y016211D01*
X007594Y016276D01*
X007583Y016283D01*
X008786Y016283D01*
X008676Y016173D01*
X008584Y015953D01*
X008584Y015714D01*
X008676Y015493D01*
X008844Y015325D01*
X009065Y015233D01*
X009304Y015233D01*
X009524Y015325D01*
X009693Y015493D01*
X009784Y015714D01*
X009784Y015953D01*
X009693Y016173D01*
X009583Y016283D01*
X009918Y016283D01*
X013032Y013994D01*
X013032Y013960D01*
X013088Y013825D01*
X013191Y013721D01*
X013327Y013665D01*
X013473Y013665D01*
X013609Y013721D01*
X013712Y013825D01*
X013768Y013960D01*
X013768Y014107D01*
X013712Y014242D01*
X013609Y014345D01*
X013473Y014401D01*
X013327Y014401D01*
X013323Y014400D01*
X010346Y016590D01*
X010392Y016636D01*
X010465Y016563D01*
X010858Y016563D01*
X010874Y016580D01*
X010890Y016563D01*
X011169Y016563D01*
X011186Y016580D01*
X011202Y016563D01*
X011594Y016563D01*
X011712Y016680D01*
X011712Y016846D01*
X011653Y016905D01*
X011712Y016964D01*
X011712Y017130D01*
X011658Y017183D01*
X015199Y017183D01*
X015089Y016917D01*
X015089Y016627D01*
X015200Y016358D01*
X015406Y016152D01*
X015551Y016092D01*
X015505Y016072D01*
X015424Y016026D01*
X015350Y015969D01*
X015284Y015903D01*
X015227Y015829D01*
X015181Y015748D01*
X015145Y015662D01*
X015121Y015572D01*
X015109Y015483D01*
X015770Y015483D01*
X015770Y015383D01*
X015870Y015383D01*
X015870Y015483D01*
X016530Y015483D01*
X016519Y015572D01*
X016494Y015662D01*
X016459Y015748D01*
X016412Y015829D01*
X016355Y015903D01*
X016290Y015969D01*
X016216Y016026D01*
X016135Y016072D01*
X016088Y016092D01*
X016234Y016152D01*
X016439Y016358D01*
X016551Y016627D01*
X016551Y016917D01*
X016441Y017183D01*
X017900Y017183D01*
X018021Y017175D01*
X017963Y017035D01*
X017963Y016745D01*
X018074Y016476D01*
X018280Y016270D01*
X018548Y016159D01*
X018839Y016159D01*
X019026Y016236D01*
X019040Y016183D01*
X019050Y016033D01*
X019050Y013636D01*
X018839Y013723D01*
X018548Y013723D01*
X018280Y013612D01*
X018074Y013406D01*
X017963Y013138D01*
X017963Y012847D01*
X018074Y012578D01*
X018280Y012373D01*
X018434Y012309D01*
X018400Y012284D01*
X018349Y012233D01*
X018307Y012174D01*
X018274Y012110D01*
X018251Y012041D01*
X018241Y011978D01*
X018655Y011978D01*
X018655Y011888D01*
X018655Y011583D01*
X018668Y011583D01*
X018686Y011588D01*
X018718Y011583D01*
X018745Y011583D01*
X018745Y011888D01*
X018655Y011888D01*
X018241Y011888D01*
X018251Y011826D01*
X018274Y011757D01*
X018307Y011692D01*
X018349Y011634D01*
X018399Y011583D01*
X018029Y011583D01*
X018107Y011661D01*
X018180Y011838D01*
X018180Y012029D01*
X018107Y012205D01*
X017972Y012340D01*
X017795Y012413D01*
X017605Y012413D01*
X017450Y012349D01*
X017450Y012983D01*
X017412Y013075D01*
X017342Y013145D01*
X017342Y013145D01*
X017168Y013319D01*
X017168Y013407D01*
X017112Y013542D01*
X017009Y013645D01*
X016873Y013701D01*
X016727Y013701D01*
X016591Y013645D01*
X016509Y013562D01*
X016494Y013615D01*
X016459Y013701D01*
X016412Y013782D01*
X016355Y013856D01*
X016290Y013922D01*
X016216Y013979D01*
X016135Y014025D01*
X016049Y014061D01*
X015959Y014085D01*
X015870Y014097D01*
X015870Y013436D01*
X016444Y013436D01*
X016432Y013407D01*
X016432Y013336D01*
X015870Y013336D01*
X015870Y013436D01*
X015770Y013436D01*
X015770Y014097D01*
X015681Y014085D01*
X015591Y014061D01*
X015505Y014025D01*
X015424Y013979D01*
X015350Y013922D01*
X015284Y013856D01*
X015227Y013782D01*
X015181Y013701D01*
X015145Y013615D01*
X015121Y013525D01*
X015109Y013436D01*
X015770Y013436D01*
X015770Y013336D01*
X015870Y013336D01*
X015870Y012676D01*
X015959Y012687D01*
X016049Y012711D01*
X016135Y012747D01*
X016216Y012794D01*
X016290Y012850D01*
X016355Y012916D01*
X016412Y012990D01*
X016459Y013071D01*
X016484Y013133D01*
X016488Y013125D01*
X016591Y013021D01*
X016639Y013001D01*
X016527Y013001D01*
X016391Y012945D01*
X016288Y012842D01*
X016232Y012707D01*
X016232Y012670D01*
X016075Y012552D01*
X016058Y012545D01*
X016036Y012523D01*
X016010Y012503D01*
X016001Y012488D01*
X013457Y012488D01*
X013553Y012392D02*
X012868Y013076D01*
X012868Y013207D01*
X012812Y013342D01*
X012709Y013445D01*
X012573Y013501D01*
X012427Y013501D01*
X012327Y013460D01*
X012327Y013620D01*
X012222Y013872D01*
X012029Y014066D01*
X011777Y014170D01*
X011503Y014170D01*
X011251Y014066D01*
X011058Y013872D01*
X010953Y013620D01*
X010953Y013347D01*
X011058Y013094D01*
X011251Y012901D01*
X011503Y012797D01*
X011777Y012797D01*
X012029Y012901D01*
X012148Y013020D01*
X012188Y012925D01*
X012291Y012821D01*
X012427Y012765D01*
X012557Y012765D01*
X013241Y012081D01*
X013220Y012029D01*
X013220Y011838D01*
X013293Y011661D01*
X013428Y011526D01*
X013605Y011453D01*
X013669Y011453D01*
X013780Y011342D01*
X013780Y009968D01*
X013537Y009701D01*
X013427Y009701D01*
X013291Y009645D01*
X013188Y009542D01*
X013132Y009407D01*
X013132Y009260D01*
X013188Y009125D01*
X013291Y009021D01*
X013427Y008965D01*
X013573Y008965D01*
X013709Y009021D01*
X013812Y009125D01*
X013868Y009260D01*
X013868Y009407D01*
X013867Y009410D01*
X014159Y009731D01*
X014220Y009792D01*
X014220Y009798D01*
X014224Y009803D01*
X014220Y009889D01*
X014220Y010309D01*
X014327Y010265D01*
X014473Y010265D01*
X014496Y010275D01*
X014680Y010128D01*
X014680Y007624D01*
X014109Y007053D01*
X013980Y006924D01*
X013980Y006332D01*
X013972Y006340D01*
X013795Y006413D01*
X013605Y006413D01*
X013442Y006346D01*
X013473Y006395D01*
X013520Y006442D01*
X013520Y006470D01*
X013723Y006795D01*
X013770Y006842D01*
X013770Y006870D01*
X013785Y006894D01*
X013770Y006958D01*
X013770Y007333D01*
X013862Y007425D01*
X013918Y007560D01*
X013918Y007707D01*
X013862Y007842D01*
X013759Y007945D01*
X013623Y008001D01*
X013477Y008001D01*
X013341Y007945D01*
X013238Y007842D01*
X013182Y007707D01*
X013182Y007560D01*
X013238Y007425D01*
X013330Y007333D01*
X013330Y006996D01*
X013318Y006977D01*
X013318Y007007D01*
X013262Y007142D01*
X013159Y007245D01*
X013023Y007301D01*
X012877Y007301D01*
X012741Y007245D01*
X012649Y007153D01*
X011368Y007153D01*
X011368Y007157D01*
X011312Y007292D01*
X011209Y007395D01*
X011073Y007451D01*
X010927Y007451D01*
X010791Y007395D01*
X010688Y007292D01*
X010632Y007157D01*
X010632Y007010D01*
X010655Y006953D01*
X010436Y006953D01*
X010383Y006971D01*
X010367Y006963D01*
X010273Y007001D01*
X010127Y007001D01*
X010020Y006957D01*
X010020Y007123D01*
X010273Y007313D01*
X010291Y007313D01*
X010345Y007367D01*
X010405Y007412D01*
X010407Y007430D01*
X010420Y007442D01*
X010420Y007518D01*
X010422Y007532D01*
X010428Y007526D01*
X010605Y007453D01*
X010795Y007453D01*
X010972Y007526D01*
X011107Y007661D01*
X011293Y007661D01*
X011428Y007526D01*
X011605Y007453D01*
X011795Y007453D01*
X011972Y007526D01*
X012107Y007661D01*
X012293Y007661D01*
X012428Y007526D01*
X012605Y007453D01*
X012795Y007453D01*
X012972Y007526D01*
X013107Y007661D01*
X013182Y007661D01*
X013107Y007661D02*
X013180Y007838D01*
X013180Y008029D01*
X013107Y008205D01*
X012972Y008340D01*
X012795Y008413D01*
X012605Y008413D01*
X012428Y008340D01*
X012293Y008205D01*
X012220Y008029D01*
X012220Y007838D01*
X012293Y007661D01*
X012252Y007760D02*
X012148Y007760D01*
X012180Y007838D02*
X012107Y007661D01*
X012008Y007563D02*
X012392Y007563D01*
X012578Y007464D02*
X011822Y007464D01*
X011578Y007464D02*
X010822Y007464D01*
X010762Y007366D02*
X010344Y007366D01*
X010420Y007464D02*
X010578Y007464D01*
X010678Y007267D02*
X010212Y007267D01*
X010081Y007169D02*
X010637Y007169D01*
X010632Y007070D02*
X010020Y007070D01*
X010020Y006972D02*
X010055Y006972D01*
X010345Y006972D02*
X010648Y006972D01*
X010400Y006733D02*
X012600Y006733D01*
X012800Y006533D01*
X013300Y006533D01*
X013550Y006933D01*
X013550Y007633D01*
X013204Y007760D02*
X013148Y007760D01*
X013180Y007858D02*
X013254Y007858D01*
X013180Y007957D02*
X013369Y007957D01*
X013169Y008055D02*
X014680Y008055D01*
X014680Y007957D02*
X013731Y007957D01*
X013846Y007858D02*
X014680Y007858D01*
X014680Y007760D02*
X013896Y007760D01*
X013918Y007661D02*
X014680Y007661D01*
X014618Y007563D02*
X013918Y007563D01*
X013878Y007464D02*
X014520Y007464D01*
X014421Y007366D02*
X013803Y007366D01*
X013770Y007267D02*
X014323Y007267D01*
X014224Y007169D02*
X013770Y007169D01*
X013770Y007070D02*
X014126Y007070D01*
X014027Y006972D02*
X013770Y006972D01*
X013772Y006873D02*
X013980Y006873D01*
X013980Y006775D02*
X013710Y006775D01*
X013649Y006676D02*
X013980Y006676D01*
X013980Y006578D02*
X013587Y006578D01*
X013526Y006479D02*
X013980Y006479D01*
X013980Y006381D02*
X013874Y006381D01*
X013526Y006381D02*
X013464Y006381D01*
X013424Y006336D02*
X013293Y006205D01*
X013220Y006029D01*
X013220Y005838D01*
X013293Y005661D01*
X013428Y005526D01*
X013605Y005453D01*
X013609Y005453D01*
X012741Y004585D01*
X012703Y004623D01*
X012297Y004623D01*
X012010Y004336D01*
X012010Y003930D01*
X012297Y003643D01*
X012703Y003643D01*
X012990Y003930D01*
X012990Y004196D01*
X012998Y004201D01*
X013003Y004225D01*
X013010Y004232D01*
X013010Y003930D01*
X013297Y003643D01*
X013703Y003643D01*
X013990Y003930D01*
X013990Y004165D01*
X014010Y004165D01*
X014010Y003930D01*
X014297Y003643D01*
X014703Y003643D01*
X014990Y003930D01*
X014990Y004336D01*
X014703Y004623D01*
X014452Y004623D01*
X015280Y005313D01*
X015291Y005313D01*
X015349Y005371D01*
X015411Y005423D01*
X015412Y005434D01*
X015420Y005442D01*
X015420Y005523D01*
X015421Y005534D01*
X015428Y005526D01*
X015605Y005453D01*
X015795Y005453D01*
X015972Y005526D01*
X016107Y005661D01*
X016180Y005838D01*
X016180Y006029D01*
X016107Y006205D01*
X015972Y006340D01*
X015795Y006413D01*
X015670Y006413D01*
X015670Y007510D01*
X016766Y006413D01*
X016605Y006413D01*
X016428Y006340D01*
X016293Y006205D01*
X016220Y006029D01*
X016220Y005838D01*
X016293Y005661D01*
X016428Y005526D01*
X016605Y005453D01*
X016795Y005453D01*
X016951Y005518D01*
X016925Y004604D01*
X016924Y004601D01*
X016924Y004555D01*
X016923Y004509D01*
X016924Y004505D01*
X016924Y004502D01*
X016942Y004459D01*
X016958Y004416D01*
X016961Y004413D01*
X016962Y004410D01*
X016995Y004377D01*
X017022Y004348D01*
X017010Y004336D01*
X017010Y003930D01*
X017297Y003643D01*
X017703Y003643D01*
X017990Y003930D01*
X017990Y004336D01*
X017703Y004623D01*
X017456Y004623D01*
X017427Y004652D01*
X017452Y005517D01*
X017605Y005453D01*
X017795Y005453D01*
X017972Y005526D01*
X018107Y005661D01*
X018180Y005838D01*
X018180Y006029D01*
X018107Y006205D01*
X017972Y006340D01*
X017795Y006413D01*
X017605Y006413D01*
X017474Y006359D01*
X017456Y006402D01*
X017440Y006445D01*
X017437Y006448D01*
X017436Y006451D01*
X017403Y006484D01*
X017372Y006517D01*
X017368Y006519D01*
X015950Y007937D01*
X015950Y010343D01*
X016385Y010865D01*
X016412Y010892D01*
X016416Y010903D01*
X016424Y010911D01*
X016435Y010948D01*
X016450Y010984D01*
X016450Y010995D01*
X016453Y011006D01*
X016450Y011045D01*
X016450Y011517D01*
X016605Y011453D01*
X016795Y011453D01*
X016972Y011526D01*
X016973Y011528D01*
X016988Y011492D01*
X017288Y011192D01*
X017358Y011121D01*
X017450Y011083D01*
X018575Y011083D01*
X018750Y010850D01*
X018750Y006413D01*
X018605Y006413D01*
X018428Y006340D01*
X018293Y006205D01*
X018220Y006029D01*
X018220Y005838D01*
X018293Y005661D01*
X018428Y005526D01*
X018605Y005453D01*
X018795Y005453D01*
X018972Y005526D01*
X019050Y005605D01*
X019050Y004333D01*
X019040Y004183D01*
X018962Y003893D01*
X018812Y003633D01*
X018600Y003421D01*
X018340Y003271D01*
X018050Y003193D01*
X017900Y003183D01*
X003871Y003183D01*
X003912Y003225D01*
X003968Y003360D01*
X003968Y003507D01*
X003929Y003600D01*
X003938Y003616D01*
X003920Y003669D01*
X003920Y005133D01*
X004012Y005225D01*
X004030Y005267D01*
X004114Y005183D01*
X004486Y005183D01*
X004502Y005199D01*
X005187Y004514D01*
X005010Y004336D01*
X005010Y003930D01*
X005087Y003853D01*
X004990Y003853D01*
X004990Y004524D01*
X004890Y004623D01*
X004110Y004623D01*
X004010Y004524D01*
X004010Y003743D01*
X004110Y003643D01*
X004379Y003643D01*
X004609Y003413D01*
X005891Y003413D01*
X006020Y003542D01*
X006209Y003731D01*
X006297Y003643D01*
X006703Y003643D01*
X006990Y003930D01*
X006990Y004336D01*
X006703Y004623D01*
X006401Y004623D01*
X006420Y004642D01*
X006420Y005535D01*
X006428Y005526D01*
X006605Y005453D01*
X006795Y005453D01*
X006972Y005526D01*
X007107Y005661D01*
X007180Y005838D01*
X007180Y006029D01*
X007107Y006205D01*
X006972Y006340D01*
X006795Y006413D01*
X006605Y006413D01*
X006428Y006340D01*
X006420Y006332D01*
X006420Y007535D01*
X006428Y007526D01*
X006605Y007453D01*
X006795Y007453D01*
X006972Y007526D01*
X007107Y007661D01*
X007293Y007661D01*
X007428Y007526D01*
X007605Y007453D01*
X007795Y007453D01*
X007950Y007517D01*
X007950Y006349D01*
X007795Y006413D01*
X007605Y006413D01*
X007428Y006340D01*
X007293Y006205D01*
X007220Y006029D01*
X007220Y005838D01*
X007293Y005661D01*
X007428Y005526D01*
X007605Y005453D01*
X007795Y005453D01*
X007950Y005517D01*
X007950Y005474D01*
X007947Y005465D01*
X007950Y005424D01*
X007950Y005384D01*
X007954Y005375D01*
X007954Y005366D01*
X007972Y005329D01*
X007988Y005292D01*
X007995Y005285D01*
X008061Y005152D01*
X008064Y005136D01*
X008083Y005108D01*
X008099Y005077D01*
X008111Y005067D01*
X008250Y004858D01*
X008250Y004576D01*
X008010Y004336D01*
X008010Y003930D01*
X008297Y003643D01*
X008703Y003643D01*
X008990Y003930D01*
X008990Y004336D01*
X008750Y004576D01*
X008750Y004909D01*
X008755Y004933D01*
X008750Y004958D01*
X008750Y004983D01*
X008740Y005006D01*
X008736Y005031D01*
X008722Y005052D01*
X008712Y005075D01*
X008694Y005093D01*
X008517Y005359D01*
X008450Y005492D01*
X008450Y005517D01*
X008605Y005453D01*
X008795Y005453D01*
X008972Y005526D01*
X009107Y005661D01*
X009180Y005838D01*
X009180Y006029D01*
X009107Y006205D01*
X008972Y006340D01*
X008795Y006413D01*
X008605Y006413D01*
X008450Y006349D01*
X008450Y007517D01*
X008605Y007453D01*
X008795Y007453D01*
X008972Y007526D01*
X008980Y007535D01*
X008980Y006984D01*
X008888Y006892D01*
X008832Y006757D01*
X008832Y006610D01*
X008888Y006475D01*
X008991Y006371D01*
X009127Y006315D01*
X009273Y006315D01*
X009409Y006371D01*
X009512Y006475D01*
X009568Y006610D01*
X009568Y006757D01*
X009512Y006892D01*
X009420Y006984D01*
X009420Y007535D01*
X009428Y007526D01*
X009605Y007453D01*
X009727Y007453D01*
X009727Y007453D01*
X009709Y007453D01*
X009655Y007400D01*
X009595Y007355D01*
X009593Y007337D01*
X009580Y007324D01*
X009580Y007249D01*
X009569Y007174D01*
X009580Y007160D01*
X009580Y006557D01*
X009569Y006542D01*
X009580Y006468D01*
X009580Y006403D01*
X009428Y006340D01*
X009293Y006205D01*
X009220Y006029D01*
X009220Y005838D01*
X009293Y005661D01*
X009428Y005526D01*
X009605Y005453D01*
X009795Y005453D01*
X009945Y005515D01*
X009819Y005264D01*
X009780Y005224D01*
X009780Y005185D01*
X009762Y005150D01*
X009780Y005098D01*
X009780Y005034D01*
X009688Y004942D01*
X009632Y004807D01*
X009632Y004660D01*
X009655Y004603D01*
X009550Y004603D01*
X009550Y004183D01*
X009970Y004183D01*
X009970Y004328D01*
X009933Y004365D01*
X010010Y004365D01*
X010010Y003743D01*
X010110Y003643D01*
X010890Y003643D01*
X010990Y003743D01*
X010990Y004524D01*
X010890Y004623D01*
X010353Y004623D01*
X010368Y004660D01*
X010368Y004807D01*
X010312Y004942D01*
X010220Y005034D01*
X010220Y005081D01*
X010381Y005403D01*
X010420Y005442D01*
X010420Y005481D01*
X010438Y005516D01*
X010435Y005523D01*
X010605Y005453D01*
X010795Y005453D01*
X010972Y005526D01*
X011107Y005661D01*
X011180Y005838D01*
X011180Y006029D01*
X011107Y006205D01*
X010972Y006340D01*
X010795Y006413D01*
X010605Y006413D01*
X010428Y006340D01*
X010398Y006310D01*
X010392Y006314D01*
X010409Y006321D01*
X010512Y006425D01*
X010549Y006513D01*
X012509Y006513D01*
X012580Y006442D01*
X012609Y006413D01*
X012605Y006413D01*
X012428Y006340D01*
X012293Y006205D01*
X012220Y006029D01*
X012220Y005838D01*
X012293Y005661D01*
X012428Y005526D01*
X012605Y005453D01*
X012795Y005453D01*
X012972Y005526D01*
X013107Y005661D01*
X013180Y005838D01*
X013180Y006029D01*
X013107Y006205D01*
X012999Y006313D01*
X013237Y006313D01*
X013261Y006298D01*
X013325Y006313D01*
X013391Y006313D01*
X013411Y006333D01*
X013424Y006336D01*
X013370Y006282D02*
X013030Y006282D01*
X013116Y006184D02*
X013284Y006184D01*
X013243Y006085D02*
X013157Y006085D01*
X013180Y005987D02*
X013220Y005987D01*
X013220Y005888D02*
X013180Y005888D01*
X013160Y005790D02*
X013240Y005790D01*
X013281Y005691D02*
X013119Y005691D01*
X013038Y005593D02*
X013362Y005593D01*
X013506Y005494D02*
X012894Y005494D01*
X012506Y005494D02*
X011894Y005494D01*
X011972Y005526D02*
X012107Y005661D01*
X012180Y005838D01*
X012180Y006029D01*
X012107Y006205D01*
X011972Y006340D01*
X011795Y006413D01*
X011605Y006413D01*
X011428Y006340D01*
X011293Y006205D01*
X011220Y006029D01*
X011220Y005838D01*
X011293Y005661D01*
X011428Y005526D01*
X011605Y005453D01*
X011795Y005453D01*
X011972Y005526D01*
X012038Y005593D02*
X012362Y005593D01*
X012281Y005691D02*
X012119Y005691D01*
X012160Y005790D02*
X012240Y005790D01*
X012220Y005888D02*
X012180Y005888D01*
X012180Y005987D02*
X012220Y005987D01*
X012243Y006085D02*
X012157Y006085D01*
X012116Y006184D02*
X012284Y006184D01*
X012370Y006282D02*
X012030Y006282D01*
X011874Y006381D02*
X012526Y006381D01*
X012543Y006479D02*
X010535Y006479D01*
X010526Y006381D02*
X010468Y006381D01*
X010200Y006183D02*
X009800Y006483D01*
X009800Y007233D01*
X010200Y007533D01*
X010200Y008233D01*
X010400Y008433D01*
X010900Y008433D01*
X011200Y008733D01*
X011200Y009533D01*
X012200Y010533D01*
X012200Y011483D01*
X012568Y011468D02*
X012605Y011453D01*
X012795Y011453D01*
X012972Y011526D01*
X013107Y011661D01*
X013180Y011838D01*
X013180Y012029D01*
X013107Y012205D01*
X012972Y012340D01*
X012795Y012413D01*
X012605Y012413D01*
X012428Y012340D01*
X012293Y012205D01*
X012220Y012029D01*
X012220Y011851D01*
X012180Y011851D01*
X012180Y012029D01*
X012107Y012205D01*
X011972Y012340D01*
X011795Y012413D01*
X011605Y012413D01*
X011428Y012340D01*
X011293Y012205D01*
X011220Y012029D01*
X011220Y011838D01*
X011293Y011661D01*
X011428Y011526D01*
X011605Y011453D01*
X011795Y011453D01*
X011832Y011468D01*
X011832Y011410D01*
X011888Y011275D01*
X011980Y011183D01*
X011980Y010624D01*
X010980Y009624D01*
X010980Y009332D01*
X010972Y009340D01*
X010795Y009413D01*
X010605Y009413D01*
X010428Y009340D01*
X010293Y009205D01*
X010220Y009029D01*
X010220Y008838D01*
X010293Y008661D01*
X010305Y008649D01*
X010180Y008524D01*
X010109Y008453D01*
X009984Y008328D01*
X009972Y008340D01*
X009795Y008413D01*
X009605Y008413D01*
X009428Y008340D01*
X009420Y008332D01*
X009420Y008535D01*
X009428Y008526D01*
X009605Y008453D01*
X009795Y008453D01*
X009972Y008526D01*
X010107Y008661D01*
X010180Y008838D01*
X010180Y009029D01*
X010107Y009205D01*
X009972Y009340D01*
X009795Y009413D01*
X009791Y009413D01*
X009868Y009490D01*
X009927Y009465D01*
X010073Y009465D01*
X010209Y009521D01*
X010312Y009625D01*
X010368Y009760D01*
X010368Y009907D01*
X010312Y010042D01*
X010209Y010145D01*
X010073Y010201D01*
X009927Y010201D01*
X009791Y010145D01*
X009688Y010042D01*
X009632Y009907D01*
X009632Y009876D01*
X009437Y009682D01*
X009412Y009742D01*
X009309Y009845D01*
X009173Y009901D01*
X009027Y009901D01*
X008994Y009888D01*
X008920Y009943D01*
X008920Y011505D01*
X008972Y011526D01*
X009107Y011661D01*
X009180Y011838D01*
X009180Y012029D01*
X009107Y012205D01*
X008972Y012340D01*
X008795Y012413D01*
X008605Y012413D01*
X008428Y012340D01*
X008293Y012205D01*
X008220Y012029D01*
X008220Y011838D01*
X008293Y011661D01*
X008428Y011526D01*
X008480Y011505D01*
X008480Y009907D01*
X008469Y009892D01*
X008480Y009818D01*
X008480Y009742D01*
X008493Y009730D01*
X008495Y009712D01*
X008555Y009667D01*
X008609Y009613D01*
X008627Y009613D01*
X008732Y009534D01*
X008732Y009460D01*
X008751Y009413D01*
X008605Y009413D01*
X008450Y009349D01*
X008450Y009483D01*
X008412Y009575D01*
X007912Y010075D01*
X007842Y010145D01*
X007750Y010183D01*
X006116Y010183D01*
X006107Y010205D01*
X005972Y010340D01*
X005795Y010413D01*
X005605Y010413D01*
X005428Y010340D01*
X005293Y010205D01*
X005284Y010182D01*
X005153Y010182D01*
X004792Y010556D01*
X004791Y010559D01*
X004758Y010592D01*
X004725Y010626D01*
X004723Y010627D01*
X004550Y010800D01*
X004550Y012247D01*
X004750Y012447D01*
X004750Y012820D01*
X004550Y013020D01*
X004550Y013263D01*
X004612Y013325D01*
X004668Y013460D01*
X004668Y013607D01*
X004612Y013742D01*
X004509Y013845D01*
X004373Y013901D01*
X004227Y013901D01*
X004091Y013845D01*
X003988Y013742D01*
X003932Y013607D01*
X003932Y013460D01*
X003988Y013325D01*
X004050Y013263D01*
X004050Y013020D01*
X003850Y012820D01*
X003850Y012447D01*
X004050Y012247D01*
X004050Y010647D01*
X004088Y010555D01*
X004401Y010242D01*
X004835Y009792D01*
X004836Y009789D01*
X004869Y009756D01*
X004902Y009722D01*
X004904Y009721D01*
X004906Y009719D01*
X004950Y009701D01*
X004993Y009683D01*
X004996Y009683D01*
X004998Y009681D01*
X005045Y009682D01*
X005092Y009681D01*
X005095Y009682D01*
X005284Y009682D01*
X005293Y009661D01*
X005301Y009653D01*
X004750Y009653D01*
X004750Y009820D01*
X004486Y010083D01*
X004114Y010083D01*
X003920Y009890D01*
X003920Y012224D01*
X003791Y012353D01*
X003320Y012824D01*
X003320Y014620D01*
X003397Y014543D01*
X003803Y014543D01*
X004090Y014830D01*
X004090Y015236D01*
X003803Y015523D01*
X003701Y015523D01*
X003721Y015543D01*
X003990Y015543D01*
X004090Y015643D01*
X004090Y016424D01*
X003990Y016523D01*
X003210Y016523D01*
X003110Y016424D01*
X003110Y015643D01*
X003154Y015599D01*
X003009Y015453D01*
X002880Y015324D01*
X002880Y012642D01*
X003480Y012042D01*
X003480Y009834D01*
X003388Y009742D01*
X003332Y009607D01*
X003332Y009460D01*
X003388Y009325D01*
X003491Y009221D01*
X003627Y009165D01*
X003773Y009165D01*
X003909Y009221D01*
X003992Y009305D01*
X004114Y009183D01*
X004486Y009183D01*
X004516Y009213D01*
X005335Y009213D01*
X005307Y009174D01*
X005274Y009110D01*
X005251Y009041D01*
X005241Y008978D01*
X005655Y008978D01*
X005655Y008888D01*
X005745Y008888D01*
X005745Y008475D01*
X005808Y008485D01*
X005877Y008507D01*
X005941Y008540D01*
X005980Y008568D01*
X005980Y008332D01*
X005972Y008340D01*
X005795Y008413D01*
X005605Y008413D01*
X005428Y008340D01*
X005293Y008205D01*
X005220Y008029D01*
X005220Y007838D01*
X005293Y007661D01*
X004431Y007661D01*
X004324Y007760D02*
X005252Y007760D01*
X005220Y007858D02*
X004216Y007858D01*
X004109Y007957D02*
X005220Y007957D01*
X005231Y008055D02*
X004025Y008055D01*
X004018Y008040D02*
X004068Y008160D01*
X004068Y008229D01*
X004114Y008183D01*
X004486Y008183D01*
X004750Y008447D01*
X004750Y008820D01*
X004486Y009083D01*
X004114Y009083D01*
X003850Y008820D01*
X003850Y008570D01*
X003773Y008601D01*
X003627Y008601D01*
X003491Y008545D01*
X003450Y008504D01*
X003409Y008545D01*
X003273Y008601D01*
X003127Y008601D01*
X003068Y008577D01*
X002991Y008653D01*
X002735Y008653D01*
X002820Y008739D01*
X002820Y008883D01*
X002820Y008843D02*
X003874Y008843D01*
X003850Y008745D02*
X002820Y008745D01*
X002998Y008646D02*
X003850Y008646D01*
X003497Y008548D02*
X003403Y008548D01*
X003200Y008233D02*
X003100Y008233D01*
X002900Y008433D01*
X001850Y008433D01*
X001350Y007933D01*
X001840Y007957D02*
X001860Y007957D01*
X001860Y008055D02*
X001840Y008055D01*
X001840Y007858D02*
X001860Y007858D01*
X001860Y007760D02*
X001840Y007760D01*
X001771Y007661D02*
X001929Y007661D01*
X002028Y007563D02*
X001672Y007563D01*
X001574Y007464D02*
X002126Y007464D01*
X002090Y007366D02*
X001610Y007366D01*
X001553Y007423D02*
X001147Y007423D01*
X000860Y007136D01*
X000860Y006730D01*
X001147Y006443D01*
X001553Y006443D01*
X001840Y006730D01*
X001840Y007136D01*
X001553Y007423D01*
X001709Y007267D02*
X001991Y007267D01*
X001893Y007169D02*
X001807Y007169D01*
X001840Y007070D02*
X001860Y007070D01*
X001860Y006972D02*
X001840Y006972D01*
X001840Y006873D02*
X001860Y006873D01*
X001860Y006775D02*
X001840Y006775D01*
X001786Y006676D02*
X001914Y006676D01*
X002013Y006578D02*
X001687Y006578D01*
X001589Y006479D02*
X002111Y006479D01*
X002147Y006423D02*
X001860Y006136D01*
X001860Y005730D01*
X002147Y005443D01*
X002553Y005443D01*
X002840Y005730D01*
X002840Y006136D01*
X002553Y006423D01*
X002147Y006423D01*
X002105Y006381D02*
X001595Y006381D01*
X001553Y006423D02*
X001147Y006423D01*
X000860Y006136D01*
X000860Y005730D01*
X001147Y005443D01*
X001553Y005443D01*
X001840Y005730D01*
X001840Y006136D01*
X001553Y006423D01*
X001694Y006282D02*
X002006Y006282D01*
X001908Y006184D02*
X001792Y006184D01*
X001840Y006085D02*
X001860Y006085D01*
X001860Y005987D02*
X001840Y005987D01*
X001840Y005888D02*
X001860Y005888D01*
X001860Y005790D02*
X001840Y005790D01*
X001801Y005691D02*
X001899Y005691D01*
X001998Y005593D02*
X001702Y005593D01*
X001604Y005494D02*
X002096Y005494D01*
X002155Y005403D02*
X001880Y005128D01*
X001880Y004983D01*
X002300Y004983D01*
X002300Y004883D01*
X002400Y004883D01*
X002400Y004463D01*
X002545Y004463D01*
X002820Y004739D01*
X002820Y004883D01*
X002400Y004883D01*
X002400Y004983D01*
X002820Y004983D01*
X002820Y005128D01*
X002545Y005403D01*
X002400Y005403D01*
X002400Y004983D01*
X002300Y004983D01*
X002300Y005403D01*
X002155Y005403D01*
X002148Y005396D02*
X001580Y005396D01*
X001553Y005423D02*
X001147Y005423D01*
X000860Y005136D01*
X000860Y004730D01*
X001147Y004443D01*
X001553Y004443D01*
X001840Y004730D01*
X001840Y005136D01*
X001553Y005423D01*
X001679Y005297D02*
X002049Y005297D01*
X001951Y005199D02*
X001777Y005199D01*
X001840Y005100D02*
X001880Y005100D01*
X001880Y005002D02*
X001840Y005002D01*
X001840Y004903D02*
X002300Y004903D01*
X002300Y004883D02*
X001880Y004883D01*
X001880Y004739D01*
X002155Y004463D01*
X002300Y004463D01*
X002300Y004883D01*
X002300Y004805D02*
X002400Y004805D01*
X002400Y004903D02*
X003480Y004903D01*
X003480Y004805D02*
X002820Y004805D01*
X002788Y004706D02*
X003480Y004706D01*
X003480Y004608D02*
X002689Y004608D01*
X002591Y004509D02*
X003480Y004509D01*
X003480Y004411D02*
X000450Y004411D01*
X000450Y004509D02*
X001081Y004509D01*
X000983Y004608D02*
X000450Y004608D01*
X000450Y004706D02*
X000884Y004706D01*
X000860Y004805D02*
X000450Y004805D01*
X000450Y004903D02*
X000860Y004903D01*
X000860Y005002D02*
X000450Y005002D01*
X000450Y005100D02*
X000860Y005100D01*
X000923Y005199D02*
X000450Y005199D01*
X000450Y005297D02*
X001021Y005297D01*
X001120Y005396D02*
X000450Y005396D01*
X000450Y005494D02*
X001096Y005494D01*
X000998Y005593D02*
X000450Y005593D01*
X000450Y005691D02*
X000899Y005691D01*
X000860Y005790D02*
X000450Y005790D01*
X000450Y005888D02*
X000860Y005888D01*
X000860Y005987D02*
X000450Y005987D01*
X000450Y006085D02*
X000860Y006085D01*
X000908Y006184D02*
X000450Y006184D01*
X000450Y006282D02*
X001006Y006282D01*
X001105Y006381D02*
X000450Y006381D01*
X000450Y006479D02*
X001111Y006479D01*
X001013Y006578D02*
X000450Y006578D01*
X000450Y006676D02*
X000914Y006676D01*
X000860Y006775D02*
X000450Y006775D01*
X000450Y006873D02*
X000860Y006873D01*
X000860Y006972D02*
X000450Y006972D01*
X000450Y007070D02*
X000860Y007070D01*
X000893Y007169D02*
X000450Y007169D01*
X000450Y007267D02*
X000991Y007267D01*
X001090Y007366D02*
X000450Y007366D01*
X000450Y007464D02*
X001126Y007464D01*
X001028Y007563D02*
X000450Y007563D01*
X000450Y007661D02*
X000929Y007661D01*
X000860Y007760D02*
X000450Y007760D01*
X000450Y007858D02*
X000860Y007858D01*
X000860Y007957D02*
X000450Y007957D01*
X000450Y008055D02*
X000860Y008055D01*
X000878Y008154D02*
X000450Y008154D01*
X000450Y008252D02*
X000976Y008252D01*
X001075Y008351D02*
X000450Y008351D01*
X000450Y008449D02*
X001141Y008449D01*
X001043Y008548D02*
X000450Y008548D01*
X000450Y008646D02*
X000944Y008646D01*
X000860Y008745D02*
X000450Y008745D01*
X000450Y008843D02*
X000860Y008843D01*
X000860Y008942D02*
X000450Y008942D01*
X000450Y009040D02*
X000860Y009040D01*
X000863Y009139D02*
X000450Y009139D01*
X000450Y009237D02*
X000961Y009237D01*
X001060Y009336D02*
X000450Y009336D01*
X000450Y009434D02*
X003343Y009434D01*
X003332Y009533D02*
X002642Y009533D01*
X002553Y009443D02*
X002147Y009443D01*
X001860Y009730D01*
X001860Y010136D01*
X002147Y010423D01*
X002553Y010423D01*
X002840Y010136D01*
X002840Y009730D01*
X002553Y009443D01*
X002612Y009336D02*
X003383Y009336D01*
X003475Y009237D02*
X002711Y009237D01*
X002809Y009139D02*
X005288Y009139D01*
X005251Y009040D02*
X004529Y009040D01*
X004628Y008942D02*
X005655Y008942D01*
X005655Y008978D02*
X005655Y009213D01*
X005745Y009213D01*
X005745Y008978D01*
X005980Y008978D01*
X005980Y008888D01*
X005745Y008888D01*
X005745Y008978D01*
X005655Y008978D01*
X005655Y009040D02*
X005745Y009040D01*
X005745Y008942D02*
X005980Y008942D01*
X005745Y008843D02*
X005655Y008843D01*
X005655Y008888D02*
X005655Y008475D01*
X005592Y008485D01*
X005523Y008507D01*
X005459Y008540D01*
X005400Y008582D01*
X005349Y008634D01*
X005307Y008692D01*
X005274Y008757D01*
X005251Y008826D01*
X005241Y008888D01*
X005655Y008888D01*
X005655Y008745D02*
X005745Y008745D01*
X005745Y008646D02*
X005655Y008646D01*
X005655Y008548D02*
X005745Y008548D01*
X005952Y008548D02*
X005980Y008548D01*
X005980Y008449D02*
X004750Y008449D01*
X004750Y008548D02*
X005448Y008548D01*
X005340Y008646D02*
X004750Y008646D01*
X004750Y008745D02*
X005280Y008745D01*
X005249Y008843D02*
X004726Y008843D01*
X004060Y009237D02*
X003925Y009237D01*
X004400Y009633D02*
X004600Y009433D01*
X005900Y009433D01*
X006200Y009133D01*
X006200Y004733D01*
X006000Y004533D01*
X006000Y003833D01*
X005800Y003633D01*
X004700Y003633D01*
X004400Y003933D01*
X004400Y004033D01*
X004500Y004133D01*
X004990Y004115D02*
X005010Y004115D01*
X005010Y004017D02*
X004990Y004017D01*
X004990Y003918D02*
X005022Y003918D01*
X005010Y004214D02*
X004990Y004214D01*
X004990Y004312D02*
X005010Y004312D01*
X004990Y004411D02*
X005085Y004411D01*
X004990Y004509D02*
X005183Y004509D01*
X005093Y004608D02*
X004906Y004608D01*
X004995Y004706D02*
X003920Y004706D01*
X003920Y004608D02*
X004094Y004608D01*
X004010Y004509D02*
X003920Y004509D01*
X003920Y004411D02*
X004010Y004411D01*
X004010Y004312D02*
X003920Y004312D01*
X003920Y004214D02*
X004010Y004214D01*
X004010Y004115D02*
X003920Y004115D01*
X003920Y004017D02*
X004010Y004017D01*
X004010Y003918D02*
X003920Y003918D01*
X003920Y003820D02*
X004010Y003820D01*
X004032Y003721D02*
X003920Y003721D01*
X003935Y003623D02*
X004399Y003623D01*
X004498Y003524D02*
X003961Y003524D01*
X003968Y003426D02*
X004596Y003426D01*
X003955Y003327D02*
X018438Y003327D01*
X018605Y003426D02*
X005904Y003426D01*
X006002Y003524D02*
X018703Y003524D01*
X018695Y003663D02*
X018970Y003939D01*
X018970Y004083D01*
X018550Y004083D01*
X018550Y003663D01*
X018695Y003663D01*
X018753Y003721D02*
X018863Y003721D01*
X018851Y003820D02*
X018920Y003820D01*
X018950Y003918D02*
X018969Y003918D01*
X018970Y004017D02*
X018996Y004017D01*
X019022Y004115D02*
X018550Y004115D01*
X018550Y004083D02*
X018550Y004183D01*
X018970Y004183D01*
X018970Y004328D01*
X018695Y004603D01*
X018550Y004603D01*
X018550Y004183D01*
X018450Y004183D01*
X018450Y004083D01*
X018550Y004083D01*
X018550Y004017D02*
X018450Y004017D01*
X018450Y004083D02*
X018450Y003663D01*
X018305Y003663D01*
X018030Y003939D01*
X018030Y004083D01*
X018450Y004083D01*
X018450Y004115D02*
X017990Y004115D01*
X018030Y004183D02*
X018450Y004183D01*
X018450Y004603D01*
X018305Y004603D01*
X018030Y004328D01*
X018030Y004183D01*
X018030Y004214D02*
X017990Y004214D01*
X017990Y004312D02*
X018030Y004312D01*
X018113Y004411D02*
X017915Y004411D01*
X017817Y004509D02*
X018211Y004509D01*
X018450Y004509D02*
X018550Y004509D01*
X018550Y004411D02*
X018450Y004411D01*
X018450Y004312D02*
X018550Y004312D01*
X018550Y004214D02*
X018450Y004214D01*
X018450Y003918D02*
X018550Y003918D01*
X018550Y003820D02*
X018450Y003820D01*
X018450Y003721D02*
X018550Y003721D01*
X018802Y003623D02*
X006101Y003623D01*
X006199Y003721D02*
X006219Y003721D01*
X006781Y003721D02*
X007247Y003721D01*
X007305Y003663D02*
X007030Y003939D01*
X007030Y004083D01*
X007450Y004083D01*
X007550Y004083D01*
X007550Y003663D01*
X007695Y003663D01*
X007970Y003939D01*
X007970Y004083D01*
X007550Y004083D01*
X007550Y004183D01*
X007970Y004183D01*
X007970Y004328D01*
X007695Y004603D01*
X007550Y004603D01*
X007550Y004183D01*
X007450Y004183D01*
X007450Y004083D01*
X007450Y003663D01*
X007305Y003663D01*
X007450Y003721D02*
X007550Y003721D01*
X007550Y003820D02*
X007450Y003820D01*
X007450Y003918D02*
X007550Y003918D01*
X007550Y004017D02*
X007450Y004017D01*
X007450Y004115D02*
X006990Y004115D01*
X007030Y004183D02*
X007450Y004183D01*
X007450Y004603D01*
X007305Y004603D01*
X007030Y004328D01*
X007030Y004183D01*
X007030Y004214D02*
X006990Y004214D01*
X006990Y004312D02*
X007030Y004312D01*
X007113Y004411D02*
X006915Y004411D01*
X006817Y004509D02*
X007211Y004509D01*
X007450Y004509D02*
X007550Y004509D01*
X007550Y004411D02*
X007450Y004411D01*
X007450Y004312D02*
X007550Y004312D01*
X007550Y004214D02*
X007450Y004214D01*
X007550Y004115D02*
X008010Y004115D01*
X008010Y004017D02*
X007970Y004017D01*
X007950Y003918D02*
X008022Y003918D01*
X008121Y003820D02*
X007851Y003820D01*
X007753Y003721D02*
X008219Y003721D01*
X008781Y003721D02*
X009247Y003721D01*
X009305Y003663D02*
X009030Y003939D01*
X009030Y004083D01*
X009450Y004083D01*
X009550Y004083D01*
X009550Y003663D01*
X009695Y003663D01*
X009970Y003939D01*
X009970Y004083D01*
X009550Y004083D01*
X009550Y004183D01*
X009450Y004183D01*
X009450Y004083D01*
X009450Y003663D01*
X009305Y003663D01*
X009450Y003721D02*
X009550Y003721D01*
X009550Y003820D02*
X009450Y003820D01*
X009450Y003918D02*
X009550Y003918D01*
X009550Y004017D02*
X009450Y004017D01*
X009450Y004115D02*
X008990Y004115D01*
X009030Y004183D02*
X009450Y004183D01*
X009450Y004603D01*
X009305Y004603D01*
X009030Y004328D01*
X009030Y004183D01*
X009030Y004214D02*
X008990Y004214D01*
X008990Y004312D02*
X009030Y004312D01*
X009113Y004411D02*
X008915Y004411D01*
X008817Y004509D02*
X009211Y004509D01*
X009450Y004509D02*
X009550Y004509D01*
X009550Y004411D02*
X009450Y004411D01*
X009450Y004312D02*
X009550Y004312D01*
X009550Y004214D02*
X009450Y004214D01*
X009550Y004115D02*
X010010Y004115D01*
X010010Y004017D02*
X009970Y004017D01*
X009950Y003918D02*
X010010Y003918D01*
X010010Y003820D02*
X009851Y003820D01*
X009753Y003721D02*
X010032Y003721D01*
X010010Y004214D02*
X009970Y004214D01*
X009970Y004312D02*
X010010Y004312D01*
X010000Y004733D02*
X010000Y005133D01*
X010200Y005533D01*
X010200Y006183D01*
X010874Y006381D02*
X011526Y006381D01*
X011370Y006282D02*
X011030Y006282D01*
X011116Y006184D02*
X011284Y006184D01*
X011243Y006085D02*
X011157Y006085D01*
X011180Y005987D02*
X011220Y005987D01*
X011220Y005888D02*
X011180Y005888D01*
X011160Y005790D02*
X011240Y005790D01*
X011281Y005691D02*
X011119Y005691D01*
X011038Y005593D02*
X011362Y005593D01*
X011506Y005494D02*
X010894Y005494D01*
X010506Y005494D02*
X010426Y005494D01*
X010377Y005396D02*
X013551Y005396D01*
X013453Y005297D02*
X010328Y005297D01*
X010279Y005199D02*
X013354Y005199D01*
X013256Y005100D02*
X010229Y005100D01*
X010252Y005002D02*
X013157Y005002D01*
X013059Y004903D02*
X010328Y004903D01*
X010368Y004805D02*
X012960Y004805D01*
X012862Y004706D02*
X010368Y004706D01*
X009654Y004608D02*
X008750Y004608D01*
X008750Y004706D02*
X009632Y004706D01*
X009632Y004805D02*
X008750Y004805D01*
X008750Y004903D02*
X009672Y004903D01*
X009748Y005002D02*
X008742Y005002D01*
X008689Y005100D02*
X009779Y005100D01*
X009780Y005199D02*
X008623Y005199D01*
X008558Y005297D02*
X009836Y005297D01*
X009885Y005396D02*
X008498Y005396D01*
X008506Y005494D02*
X008450Y005494D01*
X008894Y005494D02*
X009506Y005494D01*
X009362Y005593D02*
X009038Y005593D01*
X009119Y005691D02*
X009281Y005691D01*
X009240Y005790D02*
X009160Y005790D01*
X009180Y005888D02*
X009220Y005888D01*
X009220Y005987D02*
X009180Y005987D01*
X009157Y006085D02*
X009243Y006085D01*
X009284Y006184D02*
X009116Y006184D01*
X009030Y006282D02*
X009370Y006282D01*
X009418Y006381D02*
X009526Y006381D01*
X009514Y006479D02*
X009578Y006479D01*
X009580Y006578D02*
X009555Y006578D01*
X009568Y006676D02*
X009580Y006676D01*
X009580Y006775D02*
X009561Y006775D01*
X009580Y006873D02*
X009520Y006873D01*
X009580Y006972D02*
X009432Y006972D01*
X009420Y007070D02*
X009580Y007070D01*
X009573Y007169D02*
X009420Y007169D01*
X009420Y007267D02*
X009580Y007267D01*
X009610Y007366D02*
X009420Y007366D01*
X009420Y007464D02*
X009578Y007464D01*
X008980Y007464D02*
X008822Y007464D01*
X008980Y007366D02*
X008450Y007366D01*
X008450Y007464D02*
X008578Y007464D01*
X008450Y007267D02*
X008980Y007267D01*
X008980Y007169D02*
X008450Y007169D01*
X008450Y007070D02*
X008980Y007070D01*
X008968Y006972D02*
X008450Y006972D01*
X008450Y006873D02*
X008880Y006873D01*
X008839Y006775D02*
X008450Y006775D01*
X008450Y006676D02*
X008832Y006676D01*
X008845Y006578D02*
X008450Y006578D01*
X008450Y006479D02*
X008886Y006479D01*
X008874Y006381D02*
X008982Y006381D01*
X009200Y006683D02*
X009200Y009133D01*
X009900Y009833D01*
X010000Y009833D01*
X010368Y009828D02*
X011184Y009828D01*
X011085Y009730D02*
X010356Y009730D01*
X010315Y009631D02*
X010987Y009631D01*
X010980Y009533D02*
X010220Y009533D01*
X009812Y009434D02*
X010980Y009434D01*
X010976Y009336D02*
X010980Y009336D01*
X011420Y009336D02*
X011477Y009336D01*
X011459Y009327D02*
X011420Y009298D01*
X011420Y009442D01*
X012291Y010313D01*
X012420Y010442D01*
X012420Y011183D01*
X012512Y011275D01*
X012568Y011410D01*
X012568Y011468D01*
X012566Y011404D02*
X013718Y011404D01*
X013780Y011306D02*
X012525Y011306D01*
X012445Y011207D02*
X013780Y011207D01*
X013780Y011109D02*
X012420Y011109D01*
X012420Y011010D02*
X013780Y011010D01*
X013780Y010912D02*
X012420Y010912D01*
X012420Y010813D02*
X013780Y010813D01*
X013780Y010715D02*
X012420Y010715D01*
X012420Y010616D02*
X013780Y010616D01*
X013780Y010518D02*
X012420Y010518D01*
X012397Y010419D02*
X013085Y010419D01*
X013101Y010436D02*
X012998Y010332D01*
X012942Y010197D01*
X012942Y010184D01*
X012729Y010125D01*
X012709Y010145D01*
X012573Y010201D01*
X012427Y010201D01*
X012291Y010145D01*
X012188Y010042D01*
X012132Y009907D01*
X012132Y009760D01*
X012188Y009625D01*
X012291Y009521D01*
X012427Y009465D01*
X012573Y009465D01*
X012709Y009521D01*
X012812Y009625D01*
X012843Y009700D01*
X013158Y009788D01*
X013237Y009755D01*
X013383Y009755D01*
X013518Y009812D01*
X013622Y009915D01*
X013678Y010050D01*
X013678Y010197D01*
X013622Y010332D01*
X013518Y010436D01*
X013383Y010492D01*
X013237Y010492D01*
X013101Y010436D01*
X012993Y010321D02*
X012299Y010321D01*
X012200Y010222D02*
X012952Y010222D01*
X013220Y010033D02*
X013310Y010124D01*
X013220Y010033D02*
X012500Y009833D01*
X012132Y009828D02*
X011806Y009828D01*
X011708Y009730D02*
X012144Y009730D01*
X012185Y009631D02*
X011609Y009631D01*
X011511Y009533D02*
X012280Y009533D01*
X012428Y009340D02*
X012605Y009413D01*
X012795Y009413D01*
X012972Y009340D01*
X013107Y009205D01*
X013180Y009029D01*
X013180Y008838D01*
X013107Y008661D01*
X012972Y008526D01*
X012795Y008453D01*
X012605Y008453D01*
X012428Y008526D01*
X012293Y008661D01*
X012220Y008838D01*
X012220Y009029D01*
X012293Y009205D01*
X012428Y009340D01*
X012424Y009336D02*
X011923Y009336D01*
X011941Y009327D02*
X011877Y009360D01*
X011808Y009382D01*
X011745Y009392D01*
X011745Y008978D01*
X012159Y008978D01*
X012149Y009041D01*
X012126Y009110D01*
X012093Y009174D01*
X012051Y009233D01*
X012000Y009284D01*
X011941Y009327D01*
X012047Y009237D02*
X012325Y009237D01*
X012266Y009139D02*
X012112Y009139D01*
X012149Y009040D02*
X012225Y009040D01*
X012220Y008942D02*
X011745Y008942D01*
X011745Y008978D02*
X011745Y008888D01*
X011745Y008475D01*
X011808Y008485D01*
X011877Y008507D01*
X011941Y008540D01*
X012000Y008582D01*
X012051Y008634D01*
X012093Y008692D01*
X012126Y008757D01*
X012149Y008826D01*
X012159Y008888D01*
X011745Y008888D01*
X011655Y008888D01*
X011655Y008475D01*
X011592Y008485D01*
X011523Y008507D01*
X011459Y008540D01*
X011400Y008582D01*
X011380Y008603D01*
X011291Y008513D01*
X011045Y008267D01*
X011107Y008205D01*
X011180Y008029D01*
X011180Y007838D01*
X011107Y007661D01*
X011148Y007760D02*
X011252Y007760D01*
X011220Y007838D02*
X011293Y007661D01*
X011392Y007563D02*
X011008Y007563D01*
X011238Y007366D02*
X013297Y007366D01*
X013330Y007267D02*
X013106Y007267D01*
X013235Y007169D02*
X013330Y007169D01*
X013330Y007070D02*
X013292Y007070D01*
X012950Y006933D02*
X011150Y006933D01*
X011000Y007083D01*
X011322Y007267D02*
X012794Y007267D01*
X012665Y007169D02*
X011363Y007169D01*
X010400Y006733D02*
X010200Y006633D01*
X008526Y006381D02*
X008450Y006381D01*
X007950Y006381D02*
X007874Y006381D01*
X007950Y006479D02*
X006420Y006479D01*
X006420Y006381D02*
X006526Y006381D01*
X006420Y006578D02*
X007950Y006578D01*
X007950Y006676D02*
X006420Y006676D01*
X006420Y006775D02*
X007950Y006775D01*
X007950Y006873D02*
X006420Y006873D01*
X006420Y006972D02*
X007950Y006972D01*
X007950Y007070D02*
X006420Y007070D01*
X006420Y007169D02*
X007950Y007169D01*
X007950Y007267D02*
X006420Y007267D01*
X006420Y007366D02*
X007950Y007366D01*
X007950Y007464D02*
X007822Y007464D01*
X007578Y007464D02*
X006822Y007464D01*
X007008Y007563D02*
X007392Y007563D01*
X007293Y007661D02*
X007220Y007838D01*
X007220Y008029D01*
X007293Y008205D01*
X007428Y008340D01*
X007605Y008413D01*
X007795Y008413D01*
X007950Y008349D01*
X007950Y008517D01*
X007795Y008453D01*
X007605Y008453D01*
X007428Y008526D01*
X007293Y008661D01*
X007220Y008838D01*
X007220Y009029D01*
X007293Y009205D01*
X007428Y009340D01*
X007605Y009413D01*
X007795Y009413D01*
X007917Y009363D01*
X007596Y009683D01*
X006116Y009683D01*
X006107Y009661D01*
X006045Y009599D01*
X006291Y009353D01*
X006366Y009278D01*
X006428Y009340D01*
X006605Y009413D01*
X006795Y009413D01*
X006972Y009340D01*
X007107Y009205D01*
X007180Y009029D01*
X007180Y008838D01*
X007107Y008661D01*
X006972Y008526D01*
X006795Y008453D01*
X006605Y008453D01*
X006428Y008526D01*
X006420Y008535D01*
X006420Y008332D01*
X006428Y008340D01*
X006605Y008413D01*
X006795Y008413D01*
X006972Y008340D01*
X007107Y008205D01*
X007180Y008029D01*
X007180Y007838D01*
X007107Y007661D01*
X007148Y007760D02*
X007252Y007760D01*
X007220Y007858D02*
X007180Y007858D01*
X007180Y007957D02*
X007220Y007957D01*
X007231Y008055D02*
X007169Y008055D01*
X007128Y008154D02*
X007272Y008154D01*
X007340Y008252D02*
X007060Y008252D01*
X006946Y008351D02*
X007454Y008351D01*
X007407Y008548D02*
X006993Y008548D01*
X007092Y008646D02*
X007308Y008646D01*
X007259Y008745D02*
X007141Y008745D01*
X007180Y008843D02*
X007220Y008843D01*
X007220Y008942D02*
X007180Y008942D01*
X007175Y009040D02*
X007225Y009040D01*
X007266Y009139D02*
X007134Y009139D01*
X007075Y009237D02*
X007325Y009237D01*
X007424Y009336D02*
X006976Y009336D01*
X006424Y009336D02*
X006309Y009336D01*
X006210Y009434D02*
X007845Y009434D01*
X007747Y009533D02*
X006112Y009533D01*
X006077Y009631D02*
X007648Y009631D01*
X008159Y009828D02*
X008478Y009828D01*
X008480Y009927D02*
X008060Y009927D01*
X007962Y010025D02*
X008480Y010025D01*
X008480Y010124D02*
X007863Y010124D01*
X007912Y010075D02*
X007912Y010075D01*
X008257Y009730D02*
X008492Y009730D01*
X008591Y009631D02*
X008356Y009631D01*
X008429Y009533D02*
X008732Y009533D01*
X008743Y009434D02*
X008450Y009434D01*
X008700Y009833D02*
X009100Y009533D01*
X009326Y009828D02*
X009584Y009828D01*
X009640Y009927D02*
X008942Y009927D01*
X008920Y010025D02*
X009681Y010025D01*
X009770Y010124D02*
X008920Y010124D01*
X008920Y010222D02*
X010432Y010222D01*
X010432Y010160D02*
X010488Y010025D01*
X010591Y009921D01*
X010727Y009865D01*
X010873Y009865D01*
X011009Y009921D01*
X011112Y010025D01*
X011168Y010160D01*
X011168Y010307D01*
X011112Y010442D01*
X011020Y010534D01*
X011020Y011575D01*
X011107Y011661D01*
X011180Y011838D01*
X011180Y012029D01*
X011107Y012205D01*
X010972Y012340D01*
X010795Y012413D01*
X010605Y012413D01*
X010428Y012340D01*
X010293Y012205D01*
X010220Y012029D01*
X010220Y011838D01*
X010293Y011661D01*
X010428Y011526D01*
X010580Y011463D01*
X010580Y010534D01*
X010488Y010442D01*
X010432Y010307D01*
X010432Y010160D01*
X010447Y010124D02*
X010230Y010124D01*
X010319Y010025D02*
X010488Y010025D01*
X010586Y009927D02*
X010360Y009927D01*
X010800Y010233D02*
X010800Y011833D01*
X010700Y011933D01*
X010247Y012094D02*
X010153Y012094D01*
X010180Y012029D02*
X010107Y012205D01*
X009972Y012340D01*
X009795Y012413D01*
X009605Y012413D01*
X009428Y012340D01*
X009293Y012205D01*
X009220Y012029D01*
X009220Y011838D01*
X009293Y011661D01*
X009428Y011526D01*
X009605Y011453D01*
X009795Y011453D01*
X009972Y011526D01*
X010107Y011661D01*
X010180Y011838D01*
X010180Y012029D01*
X010180Y011995D02*
X010220Y011995D01*
X010220Y011897D02*
X010180Y011897D01*
X010164Y011798D02*
X010236Y011798D01*
X010277Y011700D02*
X010123Y011700D01*
X010047Y011601D02*
X010353Y011601D01*
X010485Y011503D02*
X009915Y011503D01*
X009485Y011503D02*
X008920Y011503D01*
X008920Y011404D02*
X010580Y011404D01*
X010580Y011306D02*
X008920Y011306D01*
X008920Y011207D02*
X010580Y011207D01*
X010580Y011109D02*
X008920Y011109D01*
X008920Y011010D02*
X010580Y011010D01*
X010580Y010912D02*
X008920Y010912D01*
X008920Y010813D02*
X010580Y010813D01*
X010580Y010715D02*
X008920Y010715D01*
X008920Y010616D02*
X010580Y010616D01*
X010564Y010518D02*
X008920Y010518D01*
X008920Y010419D02*
X010479Y010419D01*
X010438Y010321D02*
X008920Y010321D01*
X008480Y010321D02*
X005991Y010321D01*
X006090Y010222D02*
X008480Y010222D01*
X008480Y010419D02*
X004924Y010419D01*
X004829Y010518D02*
X005449Y010518D01*
X005428Y010526D02*
X005605Y010453D01*
X005795Y010453D01*
X005972Y010526D01*
X006107Y010661D01*
X006180Y010838D01*
X006180Y011029D01*
X006171Y011050D01*
X006267Y011113D01*
X006291Y011113D01*
X006340Y011162D01*
X006398Y011201D01*
X006403Y011225D01*
X006420Y011242D01*
X006420Y011312D01*
X006434Y011380D01*
X006420Y011400D01*
X006420Y011535D01*
X006428Y011526D01*
X006605Y011453D01*
X006795Y011453D01*
X006972Y011526D01*
X007107Y011661D01*
X007180Y011838D01*
X007180Y012029D01*
X007107Y012205D01*
X006972Y012340D01*
X006795Y012413D01*
X006605Y012413D01*
X006428Y012340D01*
X006420Y012332D01*
X006420Y012367D01*
X006434Y012387D01*
X006420Y012455D01*
X006420Y012524D01*
X006403Y012542D01*
X006398Y012566D01*
X006340Y012604D01*
X006291Y012653D01*
X006267Y012653D01*
X005820Y012951D01*
X005820Y014543D01*
X005990Y014543D01*
X006090Y014643D01*
X006090Y015424D01*
X005990Y015523D01*
X005210Y015523D01*
X005110Y015424D01*
X005110Y014643D01*
X005210Y014543D01*
X005380Y014543D01*
X005380Y012900D01*
X005366Y012880D01*
X005380Y012812D01*
X005380Y012742D01*
X005397Y012725D01*
X005402Y012701D01*
X005460Y012662D01*
X005509Y012613D01*
X005533Y012613D01*
X005896Y012372D01*
X005795Y012413D01*
X005605Y012413D01*
X005428Y012340D01*
X005293Y012205D01*
X005220Y012029D01*
X005220Y011838D01*
X005293Y011661D01*
X005428Y011526D01*
X005605Y011453D01*
X005795Y011453D01*
X005972Y011526D01*
X005980Y011535D01*
X005980Y011451D01*
X005874Y011381D01*
X005795Y011413D01*
X005605Y011413D01*
X005428Y011340D01*
X005293Y011205D01*
X005220Y011029D01*
X005220Y010838D01*
X005293Y010661D01*
X005428Y010526D01*
X005338Y010616D02*
X004735Y010616D01*
X004635Y010715D02*
X005271Y010715D01*
X005230Y010813D02*
X004550Y010813D01*
X004550Y010912D02*
X005220Y010912D01*
X005220Y011010D02*
X004550Y011010D01*
X004550Y011109D02*
X005253Y011109D01*
X005295Y011207D02*
X004550Y011207D01*
X004550Y011306D02*
X005394Y011306D01*
X005583Y011404D02*
X004550Y011404D01*
X004550Y011503D02*
X005485Y011503D01*
X005353Y011601D02*
X004550Y011601D01*
X004550Y011700D02*
X005277Y011700D01*
X005236Y011798D02*
X004550Y011798D01*
X004550Y011897D02*
X005220Y011897D01*
X005220Y011995D02*
X004550Y011995D01*
X004550Y012094D02*
X005247Y012094D01*
X005288Y012192D02*
X004550Y012192D01*
X004594Y012291D02*
X005379Y012291D01*
X005547Y012389D02*
X004692Y012389D01*
X004750Y012488D02*
X005722Y012488D01*
X005853Y012389D02*
X005869Y012389D01*
X006200Y012433D02*
X005600Y012833D01*
X005600Y015033D01*
X006090Y015049D02*
X011597Y015049D01*
X011731Y014950D02*
X006090Y014950D01*
X006090Y014852D02*
X011865Y014852D01*
X011999Y014753D02*
X006090Y014753D01*
X006090Y014655D02*
X012133Y014655D01*
X012267Y014556D02*
X006003Y014556D01*
X005820Y014458D02*
X012401Y014458D01*
X012535Y014359D02*
X005820Y014359D01*
X005820Y014261D02*
X012669Y014261D01*
X012803Y014162D02*
X011795Y014162D01*
X012031Y014064D02*
X012936Y014064D01*
X013032Y013965D02*
X012129Y013965D01*
X012224Y013867D02*
X013071Y013867D01*
X013144Y013768D02*
X012265Y013768D01*
X012306Y013670D02*
X013316Y013670D01*
X013484Y013670D02*
X015168Y013670D01*
X015133Y013571D02*
X012327Y013571D01*
X012327Y013473D02*
X012358Y013473D01*
X012642Y013473D02*
X015114Y013473D01*
X015109Y013336D02*
X015121Y013247D01*
X015145Y013157D01*
X015181Y013071D01*
X015227Y012990D01*
X015284Y012916D01*
X015350Y012850D01*
X015424Y012794D01*
X015505Y012747D01*
X015591Y012711D01*
X015681Y012687D01*
X015770Y012676D01*
X015770Y013336D01*
X015109Y013336D01*
X015117Y013276D02*
X012839Y013276D01*
X012868Y013177D02*
X015140Y013177D01*
X015177Y013079D02*
X012868Y013079D01*
X012964Y012980D02*
X015235Y012980D01*
X015318Y012882D02*
X013063Y012882D01*
X013161Y012783D02*
X015442Y012783D01*
X015699Y012685D02*
X013260Y012685D01*
X013358Y012586D02*
X016121Y012586D01*
X016232Y012685D02*
X015941Y012685D01*
X015870Y012685D02*
X015770Y012685D01*
X015770Y012783D02*
X015870Y012783D01*
X015870Y012882D02*
X015770Y012882D01*
X015770Y012980D02*
X015870Y012980D01*
X015870Y013079D02*
X015770Y013079D01*
X015770Y013177D02*
X015870Y013177D01*
X015870Y013276D02*
X015770Y013276D01*
X015770Y013374D02*
X012780Y013374D01*
X012500Y013133D02*
X013700Y011933D01*
X013700Y011733D01*
X014000Y011433D01*
X014000Y009883D01*
X013500Y009333D01*
X013868Y009336D02*
X014680Y009336D01*
X014680Y009434D02*
X013889Y009434D01*
X013979Y009533D02*
X014680Y009533D01*
X014680Y009631D02*
X014068Y009631D01*
X014158Y009730D02*
X014680Y009730D01*
X014680Y009828D02*
X014223Y009828D01*
X014220Y009927D02*
X014680Y009927D01*
X014680Y010025D02*
X014220Y010025D01*
X014220Y010124D02*
X014680Y010124D01*
X014562Y010222D02*
X014220Y010222D01*
X013780Y010222D02*
X013667Y010222D01*
X013678Y010124D02*
X013780Y010124D01*
X013780Y010025D02*
X013668Y010025D01*
X013627Y009927D02*
X013742Y009927D01*
X013653Y009828D02*
X013535Y009828D01*
X013563Y009730D02*
X012949Y009730D01*
X012815Y009631D02*
X013277Y009631D01*
X013184Y009533D02*
X012720Y009533D01*
X013143Y009434D02*
X011420Y009434D01*
X011459Y009327D02*
X011523Y009360D01*
X011592Y009382D01*
X011655Y009392D01*
X011655Y008978D01*
X011420Y008978D01*
X011420Y008888D01*
X011655Y008888D01*
X011655Y008978D01*
X011745Y008978D01*
X011745Y009040D02*
X011655Y009040D01*
X011655Y008942D02*
X011420Y008942D01*
X011655Y008843D02*
X011745Y008843D01*
X011745Y008745D02*
X011655Y008745D01*
X011655Y008646D02*
X011745Y008646D01*
X011745Y008548D02*
X011655Y008548D01*
X011605Y008413D02*
X011428Y008340D01*
X011293Y008205D01*
X011220Y008029D01*
X011220Y007838D01*
X011220Y007858D02*
X011180Y007858D01*
X011180Y007957D02*
X011220Y007957D01*
X011231Y008055D02*
X011169Y008055D01*
X011128Y008154D02*
X011272Y008154D01*
X011340Y008252D02*
X011060Y008252D01*
X011129Y008351D02*
X011454Y008351D01*
X011605Y008413D02*
X011795Y008413D01*
X011972Y008340D01*
X012107Y008205D01*
X012180Y008029D01*
X012180Y007838D01*
X012180Y007858D02*
X012220Y007858D01*
X012220Y007957D02*
X012180Y007957D01*
X012169Y008055D02*
X012231Y008055D01*
X012272Y008154D02*
X012128Y008154D01*
X012060Y008252D02*
X012340Y008252D01*
X012454Y008351D02*
X011946Y008351D01*
X011952Y008548D02*
X012407Y008548D01*
X012308Y008646D02*
X012060Y008646D01*
X012120Y008745D02*
X012259Y008745D01*
X012220Y008843D02*
X012151Y008843D01*
X011745Y009139D02*
X011655Y009139D01*
X011655Y009237D02*
X011745Y009237D01*
X011745Y009336D02*
X011655Y009336D01*
X010424Y009336D02*
X009976Y009336D01*
X010075Y009237D02*
X010325Y009237D01*
X010266Y009139D02*
X010134Y009139D01*
X010175Y009040D02*
X010225Y009040D01*
X010220Y008942D02*
X010180Y008942D01*
X010180Y008843D02*
X010220Y008843D01*
X010259Y008745D02*
X010141Y008745D01*
X010092Y008646D02*
X010302Y008646D01*
X010203Y008548D02*
X009993Y008548D01*
X010105Y008449D02*
X009420Y008449D01*
X009420Y008351D02*
X009454Y008351D01*
X009946Y008351D02*
X010006Y008351D01*
X011227Y008449D02*
X014680Y008449D01*
X014680Y008351D02*
X012946Y008351D01*
X013060Y008252D02*
X014680Y008252D01*
X014680Y008154D02*
X013128Y008154D01*
X012993Y008548D02*
X014680Y008548D01*
X014680Y008646D02*
X013092Y008646D01*
X013141Y008745D02*
X014680Y008745D01*
X014680Y008843D02*
X013180Y008843D01*
X013180Y008942D02*
X014680Y008942D01*
X014680Y009040D02*
X013728Y009040D01*
X013818Y009139D02*
X014680Y009139D01*
X014680Y009237D02*
X013859Y009237D01*
X013272Y009040D02*
X013175Y009040D01*
X013182Y009139D02*
X013134Y009139D01*
X013141Y009237D02*
X013075Y009237D01*
X013132Y009336D02*
X012976Y009336D01*
X012140Y009927D02*
X011905Y009927D01*
X012003Y010025D02*
X012181Y010025D01*
X012102Y010124D02*
X012270Y010124D01*
X011873Y010518D02*
X011036Y010518D01*
X011020Y010616D02*
X011972Y010616D01*
X011980Y010715D02*
X011020Y010715D01*
X011020Y010813D02*
X011980Y010813D01*
X011980Y010912D02*
X011020Y010912D01*
X011020Y011010D02*
X011980Y011010D01*
X011980Y011109D02*
X011020Y011109D01*
X011020Y011207D02*
X011955Y011207D01*
X011875Y011306D02*
X011020Y011306D01*
X011020Y011404D02*
X011834Y011404D01*
X011485Y011503D02*
X011020Y011503D01*
X011047Y011601D02*
X011353Y011601D01*
X011277Y011700D02*
X011123Y011700D01*
X011164Y011798D02*
X011236Y011798D01*
X011220Y011897D02*
X011180Y011897D01*
X011180Y011995D02*
X011220Y011995D01*
X011247Y012094D02*
X011153Y012094D01*
X011112Y012192D02*
X011288Y012192D01*
X011379Y012291D02*
X011021Y012291D01*
X010853Y012389D02*
X011547Y012389D01*
X011853Y012389D02*
X012547Y012389D01*
X012379Y012291D02*
X012021Y012291D01*
X012112Y012192D02*
X012288Y012192D01*
X012247Y012094D02*
X012153Y012094D01*
X012180Y011995D02*
X012220Y011995D01*
X012220Y011897D02*
X012180Y011897D01*
X012915Y011503D02*
X013485Y011503D01*
X013353Y011601D02*
X013047Y011601D01*
X013123Y011700D02*
X013277Y011700D01*
X013236Y011798D02*
X013164Y011798D01*
X013180Y011897D02*
X013220Y011897D01*
X013220Y011995D02*
X013180Y011995D01*
X013153Y012094D02*
X013228Y012094D01*
X013130Y012192D02*
X013112Y012192D01*
X013031Y012291D02*
X013021Y012291D01*
X012933Y012389D02*
X012853Y012389D01*
X012834Y012488D02*
X006420Y012488D01*
X006433Y012389D02*
X006547Y012389D01*
X006367Y012586D02*
X012736Y012586D01*
X012637Y012685D02*
X006219Y012685D01*
X006072Y012783D02*
X012383Y012783D01*
X012231Y012882D02*
X011982Y012882D01*
X012108Y012980D02*
X012165Y012980D01*
X011298Y012882D02*
X010422Y012882D01*
X010469Y012901D02*
X010217Y012797D01*
X009943Y012797D01*
X009691Y012901D01*
X009498Y013094D01*
X009393Y013347D01*
X009393Y013620D01*
X009498Y013872D01*
X009691Y014066D01*
X009943Y014170D01*
X010217Y014170D01*
X010469Y014066D01*
X010662Y013872D01*
X010767Y013620D01*
X010767Y013347D01*
X010662Y013094D01*
X010469Y012901D01*
X010548Y012980D02*
X011172Y012980D01*
X011073Y013079D02*
X010647Y013079D01*
X010697Y013177D02*
X011023Y013177D01*
X010983Y013276D02*
X010737Y013276D01*
X010767Y013374D02*
X010953Y013374D01*
X010953Y013473D02*
X010767Y013473D01*
X010767Y013571D02*
X010953Y013571D01*
X010974Y013670D02*
X010746Y013670D01*
X010705Y013768D02*
X011015Y013768D01*
X011056Y013867D02*
X010664Y013867D01*
X010569Y013965D02*
X011151Y013965D01*
X011249Y014064D02*
X010471Y014064D01*
X010235Y014162D02*
X011485Y014162D01*
X012843Y014753D02*
X015610Y014753D01*
X015591Y014759D02*
X015681Y014734D01*
X015770Y014723D01*
X015770Y015383D01*
X015109Y015383D01*
X015121Y015294D01*
X015145Y015204D01*
X015181Y015118D01*
X015227Y015037D01*
X015284Y014964D01*
X015350Y014898D01*
X015424Y014841D01*
X015505Y014794D01*
X015591Y014759D01*
X015770Y014753D02*
X015870Y014753D01*
X015870Y014723D02*
X015959Y014734D01*
X016049Y014759D01*
X016135Y014794D01*
X016216Y014841D01*
X016290Y014898D01*
X016355Y014964D01*
X016412Y015037D01*
X016459Y015118D01*
X016494Y015204D01*
X016519Y015294D01*
X016530Y015383D01*
X015870Y015383D01*
X015870Y014723D01*
X015870Y014852D02*
X015770Y014852D01*
X015770Y014950D02*
X015870Y014950D01*
X015870Y015049D02*
X015770Y015049D01*
X015770Y015147D02*
X015870Y015147D01*
X015870Y015246D02*
X015770Y015246D01*
X015770Y015344D02*
X015870Y015344D01*
X015870Y015443D02*
X017597Y015443D01*
X017597Y015541D02*
X016523Y015541D01*
X016500Y015640D02*
X017625Y015640D01*
X017597Y015573D02*
X017597Y015294D01*
X017704Y015035D01*
X017902Y014838D01*
X018160Y014731D01*
X018440Y014731D01*
X018698Y014838D01*
X018896Y015035D01*
X019003Y015294D01*
X019003Y015573D01*
X018896Y015831D01*
X018698Y016029D01*
X018440Y016136D01*
X018160Y016136D01*
X017902Y016029D01*
X017704Y015831D01*
X017597Y015573D01*
X017666Y015738D02*
X016463Y015738D01*
X016406Y015837D02*
X017710Y015837D01*
X017808Y015935D02*
X016323Y015935D01*
X016202Y016034D02*
X017913Y016034D01*
X018151Y016132D02*
X016186Y016132D01*
X016312Y016231D02*
X018375Y016231D01*
X018449Y016132D02*
X019044Y016132D01*
X019050Y016034D02*
X018687Y016034D01*
X018792Y015935D02*
X019050Y015935D01*
X019050Y015837D02*
X018890Y015837D01*
X018934Y015738D02*
X019050Y015738D01*
X019050Y015640D02*
X018975Y015640D01*
X019003Y015541D02*
X019050Y015541D01*
X019050Y015443D02*
X019003Y015443D01*
X019003Y015344D02*
X019050Y015344D01*
X019050Y015246D02*
X018983Y015246D01*
X018942Y015147D02*
X019050Y015147D01*
X019050Y015049D02*
X018901Y015049D01*
X018811Y014950D02*
X019050Y014950D01*
X019050Y014852D02*
X018712Y014852D01*
X018495Y014753D02*
X019050Y014753D01*
X019050Y014655D02*
X012977Y014655D01*
X013111Y014556D02*
X019050Y014556D01*
X019050Y014458D02*
X013245Y014458D01*
X013575Y014359D02*
X019050Y014359D01*
X019050Y014261D02*
X013693Y014261D01*
X013745Y014162D02*
X019050Y014162D01*
X019050Y014064D02*
X016037Y014064D01*
X015870Y014064D02*
X015770Y014064D01*
X015770Y013965D02*
X015870Y013965D01*
X015870Y013867D02*
X015770Y013867D01*
X015770Y013768D02*
X015870Y013768D01*
X015870Y013670D02*
X015770Y013670D01*
X015770Y013571D02*
X015870Y013571D01*
X015870Y013473D02*
X015770Y013473D01*
X015870Y013374D02*
X016432Y013374D01*
X016506Y013571D02*
X016517Y013571D01*
X016472Y013670D02*
X016651Y013670D01*
X016420Y013768D02*
X019050Y013768D01*
X019050Y013670D02*
X018968Y013670D01*
X019050Y013867D02*
X016344Y013867D01*
X016233Y013965D02*
X019050Y013965D01*
X018419Y013670D02*
X016949Y013670D01*
X017083Y013571D02*
X018239Y013571D01*
X018140Y013473D02*
X017141Y013473D01*
X017168Y013374D02*
X018061Y013374D01*
X018020Y013276D02*
X017211Y013276D01*
X017310Y013177D02*
X017979Y013177D01*
X017963Y013079D02*
X017408Y013079D01*
X017450Y012980D02*
X017963Y012980D01*
X017963Y012882D02*
X017450Y012882D01*
X017450Y012783D02*
X017989Y012783D01*
X018030Y012685D02*
X017450Y012685D01*
X017450Y012586D02*
X018071Y012586D01*
X018164Y012488D02*
X017450Y012488D01*
X017450Y012389D02*
X017547Y012389D01*
X017853Y012389D02*
X018263Y012389D01*
X018409Y012291D02*
X018021Y012291D01*
X018112Y012192D02*
X018320Y012192D01*
X018268Y012094D02*
X018153Y012094D01*
X018180Y011995D02*
X018244Y011995D01*
X018180Y011897D02*
X018655Y011897D01*
X018655Y011978D02*
X018655Y012261D01*
X018745Y012261D01*
X018745Y011978D01*
X019050Y011978D01*
X019050Y011888D01*
X018745Y011888D01*
X018745Y011978D01*
X018655Y011978D01*
X018655Y011995D02*
X018745Y011995D01*
X018745Y011897D02*
X019050Y011897D01*
X018745Y011798D02*
X018655Y011798D01*
X018655Y011700D02*
X018745Y011700D01*
X018745Y011601D02*
X018655Y011601D01*
X018381Y011601D02*
X018047Y011601D01*
X018123Y011700D02*
X018303Y011700D01*
X018260Y011798D02*
X018164Y011798D01*
X018655Y012094D02*
X018745Y012094D01*
X018745Y012192D02*
X018655Y012192D01*
X016983Y011503D02*
X016915Y011503D01*
X017075Y011404D02*
X016450Y011404D01*
X016450Y011306D02*
X017174Y011306D01*
X017272Y011207D02*
X016450Y011207D01*
X016450Y011109D02*
X017389Y011109D01*
X016453Y011010D02*
X018630Y011010D01*
X018704Y010912D02*
X016424Y010912D01*
X016342Y010813D02*
X018750Y010813D01*
X018750Y010715D02*
X016260Y010715D01*
X016178Y010616D02*
X018750Y010616D01*
X018750Y010518D02*
X016096Y010518D01*
X016014Y010419D02*
X018750Y010419D01*
X018750Y010321D02*
X015950Y010321D01*
X015950Y010222D02*
X018750Y010222D01*
X018750Y010124D02*
X015950Y010124D01*
X015950Y010025D02*
X018750Y010025D01*
X018750Y009927D02*
X015950Y009927D01*
X015950Y009828D02*
X018750Y009828D01*
X018750Y009730D02*
X015950Y009730D01*
X015950Y009631D02*
X018750Y009631D01*
X018750Y009533D02*
X015950Y009533D01*
X015950Y009434D02*
X018750Y009434D01*
X018750Y009336D02*
X015950Y009336D01*
X015950Y009237D02*
X018750Y009237D01*
X018750Y009139D02*
X015950Y009139D01*
X015950Y009040D02*
X018750Y009040D01*
X018750Y008942D02*
X015950Y008942D01*
X015950Y008843D02*
X018750Y008843D01*
X018750Y008745D02*
X015950Y008745D01*
X015950Y008646D02*
X018750Y008646D01*
X018750Y008548D02*
X015950Y008548D01*
X015950Y008449D02*
X018750Y008449D01*
X018750Y008351D02*
X015950Y008351D01*
X015950Y008252D02*
X018750Y008252D01*
X018750Y008154D02*
X015950Y008154D01*
X015950Y008055D02*
X018750Y008055D01*
X018750Y007957D02*
X015950Y007957D01*
X016029Y007858D02*
X018750Y007858D01*
X018750Y007760D02*
X016127Y007760D01*
X016226Y007661D02*
X018750Y007661D01*
X018750Y007563D02*
X016324Y007563D01*
X016423Y007464D02*
X018750Y007464D01*
X018750Y007366D02*
X016521Y007366D01*
X016620Y007267D02*
X018750Y007267D01*
X018750Y007169D02*
X016718Y007169D01*
X016817Y007070D02*
X018750Y007070D01*
X018750Y006972D02*
X016915Y006972D01*
X017014Y006873D02*
X018750Y006873D01*
X018750Y006775D02*
X017112Y006775D01*
X017211Y006676D02*
X018750Y006676D01*
X018750Y006578D02*
X017309Y006578D01*
X017408Y006479D02*
X018750Y006479D01*
X018526Y006381D02*
X017874Y006381D01*
X018030Y006282D02*
X018370Y006282D01*
X018284Y006184D02*
X018116Y006184D01*
X018157Y006085D02*
X018243Y006085D01*
X018220Y005987D02*
X018180Y005987D01*
X018180Y005888D02*
X018220Y005888D01*
X018240Y005790D02*
X018160Y005790D01*
X018119Y005691D02*
X018281Y005691D01*
X018362Y005593D02*
X018038Y005593D01*
X017894Y005494D02*
X018506Y005494D01*
X018894Y005494D02*
X019050Y005494D01*
X019050Y005396D02*
X017448Y005396D01*
X017451Y005494D02*
X017506Y005494D01*
X017445Y005297D02*
X019050Y005297D01*
X019050Y005199D02*
X017443Y005199D01*
X017440Y005100D02*
X019050Y005100D01*
X019050Y005002D02*
X017437Y005002D01*
X017434Y004903D02*
X019050Y004903D01*
X019050Y004805D02*
X017431Y004805D01*
X017429Y004706D02*
X019050Y004706D01*
X019050Y004608D02*
X017718Y004608D01*
X017010Y004312D02*
X016990Y004312D01*
X016990Y004336D02*
X016703Y004623D01*
X016297Y004623D01*
X016010Y004336D01*
X016010Y003930D01*
X016297Y003643D01*
X016703Y003643D01*
X016990Y003930D01*
X016990Y004336D01*
X016962Y004411D02*
X016915Y004411D01*
X016923Y004509D02*
X016817Y004509D01*
X016718Y004608D02*
X016926Y004608D01*
X016928Y004706D02*
X014551Y004706D01*
X014669Y004805D02*
X016931Y004805D01*
X016934Y004903D02*
X014788Y004903D01*
X014906Y005002D02*
X016937Y005002D01*
X016940Y005100D02*
X015024Y005100D01*
X015142Y005199D02*
X016942Y005199D01*
X016945Y005297D02*
X015260Y005297D01*
X015379Y005396D02*
X016948Y005396D01*
X016951Y005494D02*
X016894Y005494D01*
X016506Y005494D02*
X015894Y005494D01*
X016038Y005593D02*
X016362Y005593D01*
X016281Y005691D02*
X016119Y005691D01*
X016160Y005790D02*
X016240Y005790D01*
X016220Y005888D02*
X016180Y005888D01*
X016180Y005987D02*
X016220Y005987D01*
X016243Y006085D02*
X016157Y006085D01*
X016116Y006184D02*
X016284Y006184D01*
X016370Y006282D02*
X016030Y006282D01*
X015874Y006381D02*
X016526Y006381D01*
X016700Y006479D02*
X015670Y006479D01*
X015670Y006578D02*
X016602Y006578D01*
X016503Y006676D02*
X015670Y006676D01*
X015670Y006775D02*
X016405Y006775D01*
X016306Y006873D02*
X015670Y006873D01*
X015670Y006972D02*
X016208Y006972D01*
X016109Y007070D02*
X015670Y007070D01*
X015670Y007169D02*
X016011Y007169D01*
X015912Y007267D02*
X015670Y007267D01*
X015670Y007366D02*
X015814Y007366D01*
X015715Y007464D02*
X015670Y007464D01*
X015230Y007464D02*
X015120Y007464D01*
X015120Y007442D02*
X015120Y010156D01*
X015129Y010167D01*
X015120Y010246D01*
X015120Y010324D01*
X015110Y010334D01*
X015109Y010348D01*
X015047Y010398D01*
X014991Y010453D01*
X014977Y010453D01*
X014768Y010621D01*
X014768Y010707D01*
X014712Y010842D01*
X014609Y010945D01*
X014473Y011001D01*
X014327Y011001D01*
X014220Y010957D01*
X014220Y011524D01*
X014095Y011649D01*
X014107Y011661D01*
X014180Y011838D01*
X014180Y012029D01*
X014107Y012205D01*
X013972Y012340D01*
X013795Y012413D01*
X013605Y012413D01*
X013553Y012392D01*
X013853Y012389D02*
X014547Y012389D01*
X014605Y012413D02*
X014428Y012340D01*
X014293Y012205D01*
X014220Y012029D01*
X014220Y011838D01*
X014293Y011661D01*
X014428Y011526D01*
X014605Y011453D01*
X014795Y011453D01*
X014972Y011526D01*
X015107Y011661D01*
X015180Y011838D01*
X015180Y012029D01*
X015107Y012205D01*
X014972Y012340D01*
X014795Y012413D01*
X014605Y012413D01*
X014853Y012389D02*
X015547Y012389D01*
X015605Y012413D02*
X015428Y012340D01*
X015293Y012205D01*
X015220Y012029D01*
X015220Y011838D01*
X015293Y011661D01*
X015428Y011526D01*
X015474Y011508D01*
X015432Y011407D01*
X015432Y011260D01*
X015450Y011217D01*
X015281Y010975D01*
X015230Y010924D01*
X015230Y010903D01*
X015218Y010885D01*
X015230Y010814D01*
X015230Y006439D01*
X015123Y006353D01*
X015109Y006353D01*
X015053Y006298D01*
X015032Y006280D01*
X014972Y006340D01*
X014795Y006413D01*
X014605Y006413D01*
X014428Y006340D01*
X014420Y006332D01*
X014420Y006742D01*
X015120Y007442D01*
X015044Y007366D02*
X015230Y007366D01*
X015230Y007267D02*
X014945Y007267D01*
X014847Y007169D02*
X015230Y007169D01*
X015230Y007070D02*
X014748Y007070D01*
X014650Y006972D02*
X015230Y006972D01*
X015230Y006873D02*
X014551Y006873D01*
X014453Y006775D02*
X015230Y006775D01*
X015230Y006676D02*
X014420Y006676D01*
X014420Y006578D02*
X015230Y006578D01*
X015230Y006479D02*
X014420Y006479D01*
X014420Y006381D02*
X014526Y006381D01*
X014874Y006381D02*
X015157Y006381D01*
X015034Y006282D02*
X015030Y006282D01*
X015200Y006133D02*
X015450Y006333D01*
X015450Y010833D01*
X015800Y011333D01*
X015432Y011306D02*
X014220Y011306D01*
X014220Y011404D02*
X015432Y011404D01*
X015472Y011503D02*
X014915Y011503D01*
X015047Y011601D02*
X015353Y011601D01*
X015277Y011700D02*
X015123Y011700D01*
X015164Y011798D02*
X015236Y011798D01*
X015220Y011897D02*
X015180Y011897D01*
X015180Y011995D02*
X015220Y011995D01*
X015247Y012094D02*
X015153Y012094D01*
X015112Y012192D02*
X015288Y012192D01*
X015379Y012291D02*
X015021Y012291D01*
X014379Y012291D02*
X014021Y012291D01*
X014112Y012192D02*
X014288Y012192D01*
X014247Y012094D02*
X014153Y012094D01*
X014180Y011995D02*
X014220Y011995D01*
X014220Y011897D02*
X014180Y011897D01*
X014164Y011798D02*
X014236Y011798D01*
X014277Y011700D02*
X014123Y011700D01*
X014143Y011601D02*
X014353Y011601D01*
X014485Y011503D02*
X014220Y011503D01*
X014220Y011207D02*
X015443Y011207D01*
X015374Y011109D02*
X014220Y011109D01*
X014220Y011010D02*
X015305Y011010D01*
X015230Y010912D02*
X014642Y010912D01*
X014724Y010813D02*
X015230Y010813D01*
X015230Y010715D02*
X014765Y010715D01*
X014773Y010616D02*
X015230Y010616D01*
X015230Y010518D02*
X014897Y010518D01*
X015025Y010419D02*
X015230Y010419D01*
X015230Y010321D02*
X015120Y010321D01*
X015123Y010222D02*
X015230Y010222D01*
X015230Y010124D02*
X015120Y010124D01*
X015120Y010025D02*
X015230Y010025D01*
X015230Y009927D02*
X015120Y009927D01*
X015120Y009828D02*
X015230Y009828D01*
X015230Y009730D02*
X015120Y009730D01*
X015120Y009631D02*
X015230Y009631D01*
X015230Y009533D02*
X015120Y009533D01*
X015120Y009434D02*
X015230Y009434D01*
X015230Y009336D02*
X015120Y009336D01*
X015120Y009237D02*
X015230Y009237D01*
X015230Y009139D02*
X015120Y009139D01*
X015120Y009040D02*
X015230Y009040D01*
X015230Y008942D02*
X015120Y008942D01*
X015120Y008843D02*
X015230Y008843D01*
X015230Y008745D02*
X015120Y008745D01*
X015120Y008646D02*
X015230Y008646D01*
X015230Y008548D02*
X015120Y008548D01*
X015120Y008449D02*
X015230Y008449D01*
X015230Y008351D02*
X015120Y008351D01*
X015120Y008252D02*
X015230Y008252D01*
X015230Y008154D02*
X015120Y008154D01*
X015120Y008055D02*
X015230Y008055D01*
X015230Y007957D02*
X015120Y007957D01*
X015120Y007858D02*
X015230Y007858D01*
X015230Y007760D02*
X015120Y007760D01*
X015120Y007661D02*
X015230Y007661D01*
X015230Y007563D02*
X015120Y007563D01*
X014900Y007533D02*
X014200Y006833D01*
X014200Y005733D01*
X012800Y004333D01*
X012500Y004133D01*
X012010Y004115D02*
X011990Y004115D01*
X011990Y004017D02*
X012010Y004017D01*
X012022Y003918D02*
X011990Y003918D01*
X011990Y003820D02*
X012121Y003820D01*
X012219Y003721D02*
X011968Y003721D01*
X011990Y003743D02*
X011890Y003643D01*
X011110Y003643D01*
X011010Y003743D01*
X011010Y004524D01*
X011110Y004623D01*
X011890Y004623D01*
X011990Y004524D01*
X011990Y003743D01*
X011990Y004214D02*
X012010Y004214D01*
X012010Y004312D02*
X011990Y004312D01*
X011990Y004411D02*
X012085Y004411D01*
X011990Y004509D02*
X012183Y004509D01*
X012282Y004608D02*
X011906Y004608D01*
X011094Y004608D02*
X010906Y004608D01*
X010990Y004509D02*
X011010Y004509D01*
X011010Y004411D02*
X010990Y004411D01*
X010990Y004312D02*
X011010Y004312D01*
X011010Y004214D02*
X010990Y004214D01*
X010990Y004115D02*
X011010Y004115D01*
X011010Y004017D02*
X010990Y004017D01*
X010990Y003918D02*
X011010Y003918D01*
X011010Y003820D02*
X010990Y003820D01*
X010968Y003721D02*
X011032Y003721D01*
X012781Y003721D02*
X013219Y003721D01*
X013121Y003820D02*
X012879Y003820D01*
X012978Y003918D02*
X013022Y003918D01*
X013010Y004017D02*
X012990Y004017D01*
X012990Y004115D02*
X013010Y004115D01*
X013000Y004214D02*
X013010Y004214D01*
X013781Y003721D02*
X014219Y003721D01*
X014121Y003820D02*
X013879Y003820D01*
X013978Y003918D02*
X014022Y003918D01*
X014010Y004017D02*
X013990Y004017D01*
X013990Y004115D02*
X014010Y004115D01*
X014000Y004533D02*
X015200Y005533D01*
X015200Y006133D01*
X015420Y005494D02*
X015506Y005494D01*
X015703Y004623D02*
X015297Y004623D01*
X015010Y004336D01*
X015010Y003930D01*
X015297Y003643D01*
X015703Y003643D01*
X015990Y003930D01*
X015990Y004336D01*
X015703Y004623D01*
X015718Y004608D02*
X016282Y004608D01*
X016183Y004509D02*
X015817Y004509D01*
X015915Y004411D02*
X016085Y004411D01*
X016010Y004312D02*
X015990Y004312D01*
X015990Y004214D02*
X016010Y004214D01*
X016010Y004115D02*
X015990Y004115D01*
X015990Y004017D02*
X016010Y004017D01*
X016022Y003918D02*
X015978Y003918D01*
X015879Y003820D02*
X016121Y003820D01*
X016219Y003721D02*
X015781Y003721D01*
X015219Y003721D02*
X014781Y003721D01*
X014879Y003820D02*
X015121Y003820D01*
X015022Y003918D02*
X014978Y003918D01*
X014990Y004017D02*
X015010Y004017D01*
X015010Y004115D02*
X014990Y004115D01*
X014990Y004214D02*
X015010Y004214D01*
X015010Y004312D02*
X014990Y004312D01*
X014915Y004411D02*
X015085Y004411D01*
X015183Y004509D02*
X014817Y004509D01*
X014718Y004608D02*
X015282Y004608D01*
X016990Y004214D02*
X017010Y004214D01*
X017010Y004115D02*
X016990Y004115D01*
X016990Y004017D02*
X017010Y004017D01*
X017022Y003918D02*
X016978Y003918D01*
X016879Y003820D02*
X017121Y003820D01*
X017219Y003721D02*
X016781Y003721D01*
X017781Y003721D02*
X018247Y003721D01*
X018149Y003820D02*
X017879Y003820D01*
X017978Y003918D02*
X018050Y003918D01*
X018030Y004017D02*
X017990Y004017D01*
X018887Y004411D02*
X019050Y004411D01*
X019050Y004509D02*
X018789Y004509D01*
X018970Y004312D02*
X019049Y004312D01*
X019042Y004214D02*
X018970Y004214D01*
X018183Y003229D02*
X003914Y003229D01*
X003600Y003433D02*
X003700Y003633D01*
X003700Y005433D01*
X003986Y005199D02*
X004098Y005199D01*
X003920Y005100D02*
X004601Y005100D01*
X004699Y005002D02*
X003920Y005002D01*
X003920Y004903D02*
X004798Y004903D01*
X004896Y004805D02*
X003920Y004805D01*
X003480Y005002D02*
X002820Y005002D01*
X002820Y005100D02*
X002942Y005100D01*
X002814Y005199D02*
X002749Y005199D01*
X002758Y005297D02*
X002651Y005297D01*
X002732Y005396D02*
X002552Y005396D01*
X002604Y005494D02*
X002732Y005494D01*
X002702Y005593D02*
X002768Y005593D01*
X002801Y005691D02*
X002837Y005691D01*
X002840Y005790D02*
X002880Y005790D01*
X002880Y005888D02*
X002840Y005888D01*
X002840Y005987D02*
X002880Y005987D01*
X002880Y006085D02*
X002840Y006085D01*
X002880Y006184D02*
X002792Y006184D01*
X002880Y006282D02*
X002694Y006282D01*
X002595Y006381D02*
X002880Y006381D01*
X002880Y006479D02*
X002589Y006479D01*
X002687Y006578D02*
X002880Y006578D01*
X002880Y006676D02*
X002786Y006676D01*
X002840Y006775D02*
X002880Y006775D01*
X002868Y006873D02*
X002840Y006873D01*
X003100Y006933D02*
X003100Y005433D01*
X003386Y005199D02*
X003414Y005199D01*
X003480Y005100D02*
X003258Y005100D01*
X002400Y005100D02*
X002300Y005100D01*
X002300Y005002D02*
X002400Y005002D01*
X002400Y005199D02*
X002300Y005199D01*
X002300Y005297D02*
X002400Y005297D01*
X002400Y005396D02*
X002300Y005396D01*
X003320Y005790D02*
X003599Y005790D01*
X003437Y005691D02*
X003363Y005691D01*
X003320Y005888D02*
X003919Y005888D01*
X003850Y005790D02*
X003801Y005790D01*
X004017Y005987D02*
X003320Y005987D01*
X003320Y006085D02*
X005243Y006085D01*
X005220Y005987D02*
X004583Y005987D01*
X004681Y005888D02*
X005220Y005888D01*
X005240Y005790D02*
X004750Y005790D01*
X004750Y005691D02*
X005281Y005691D01*
X005362Y005593D02*
X004750Y005593D01*
X004829Y005494D02*
X005506Y005494D01*
X005894Y005494D02*
X005980Y005494D01*
X005980Y005396D02*
X004927Y005396D01*
X005026Y005297D02*
X005980Y005297D01*
X005980Y005199D02*
X005124Y005199D01*
X005223Y005100D02*
X005980Y005100D01*
X005980Y005002D02*
X005321Y005002D01*
X005420Y004903D02*
X005980Y004903D01*
X005960Y004805D02*
X005518Y004805D01*
X005617Y004706D02*
X005862Y004706D01*
X005780Y004608D02*
X005718Y004608D01*
X005707Y004305D02*
X005672Y004305D01*
X005500Y004133D01*
X005707Y004305D02*
X004379Y005633D01*
X004300Y005633D01*
X004502Y005199D02*
X004502Y005199D01*
X003480Y004312D02*
X000451Y004312D01*
X000458Y004214D02*
X003480Y004214D01*
X003480Y004115D02*
X000478Y004115D01*
X000504Y004017D02*
X003480Y004017D01*
X003480Y003918D02*
X000531Y003918D01*
X000580Y003820D02*
X003480Y003820D01*
X003367Y003721D02*
X000637Y003721D01*
X000698Y003623D02*
X003280Y003623D01*
X003239Y003524D02*
X000797Y003524D01*
X000895Y003426D02*
X003232Y003426D01*
X003245Y003327D02*
X001062Y003327D01*
X001317Y003229D02*
X003286Y003229D01*
X002400Y004509D02*
X002300Y004509D01*
X002300Y004608D02*
X002400Y004608D01*
X002400Y004706D02*
X002300Y004706D01*
X002109Y004509D02*
X001619Y004509D01*
X001717Y004608D02*
X002011Y004608D01*
X001912Y004706D02*
X001816Y004706D01*
X001840Y004805D02*
X001880Y004805D01*
X003320Y006184D02*
X005284Y006184D01*
X005370Y006282D02*
X003320Y006282D01*
X003320Y006381D02*
X005526Y006381D01*
X005542Y006479D02*
X003320Y006479D01*
X003320Y006578D02*
X005377Y006578D01*
X005287Y006676D02*
X003320Y006676D01*
X003462Y006775D02*
X004747Y006775D01*
X004640Y006873D02*
X003532Y006873D01*
X003568Y006972D02*
X004532Y006972D01*
X004425Y007070D02*
X003568Y007070D01*
X003542Y007169D02*
X004318Y007169D01*
X004210Y007267D02*
X003487Y007267D01*
X003359Y007366D02*
X004103Y007366D01*
X003995Y007464D02*
X002574Y007464D01*
X002610Y007366D02*
X003041Y007366D01*
X002913Y007267D02*
X002709Y007267D01*
X002807Y007169D02*
X002858Y007169D01*
X003100Y006933D02*
X003200Y007033D01*
X002672Y007563D02*
X003888Y007563D01*
X003780Y007661D02*
X002771Y007661D01*
X002840Y007760D02*
X003673Y007760D01*
X003564Y007858D02*
X002840Y007858D01*
X002840Y007957D02*
X002956Y007957D01*
X002875Y008055D02*
X002840Y008055D01*
X002834Y008154D02*
X002822Y008154D01*
X003444Y007957D02*
X003456Y007957D01*
X003700Y008033D02*
X004900Y006933D01*
X005700Y006933D01*
X005272Y007153D02*
X004986Y007153D01*
X004018Y008040D01*
X004066Y008154D02*
X005272Y008154D01*
X005340Y008252D02*
X004555Y008252D01*
X004654Y008351D02*
X005454Y008351D01*
X005946Y008351D02*
X005980Y008351D01*
X006420Y008351D02*
X006454Y008351D01*
X006420Y008449D02*
X007950Y008449D01*
X007946Y008351D02*
X007950Y008351D01*
X006578Y007464D02*
X006420Y007464D01*
X005980Y007464D02*
X005822Y007464D01*
X005795Y007453D02*
X005972Y007526D01*
X005980Y007535D01*
X005980Y007332D01*
X005972Y007340D01*
X005795Y007413D01*
X005605Y007413D01*
X005428Y007340D01*
X005293Y007205D01*
X005272Y007153D01*
X005278Y007169D02*
X004969Y007169D01*
X004861Y007267D02*
X005355Y007267D01*
X005490Y007366D02*
X004754Y007366D01*
X004646Y007464D02*
X005578Y007464D01*
X005605Y007453D02*
X005795Y007453D01*
X005910Y007366D02*
X005980Y007366D01*
X005605Y007453D02*
X005428Y007526D01*
X005293Y007661D01*
X005392Y007563D02*
X004539Y007563D01*
X003700Y008033D02*
X003700Y008233D01*
X002300Y008942D02*
X001840Y008942D01*
X001880Y008983D02*
X002300Y008983D01*
X002300Y009403D01*
X002155Y009403D01*
X001880Y009128D01*
X001880Y008983D01*
X001880Y009040D02*
X001840Y009040D01*
X001837Y009139D02*
X001891Y009139D01*
X001989Y009237D02*
X001739Y009237D01*
X001640Y009336D02*
X002088Y009336D01*
X002300Y009336D02*
X002400Y009336D01*
X002400Y009237D02*
X002300Y009237D01*
X002300Y009139D02*
X002400Y009139D01*
X002400Y009040D02*
X002300Y009040D01*
X001880Y008843D02*
X001840Y008843D01*
X001840Y008745D02*
X001880Y008745D01*
X001553Y009443D02*
X001147Y009443D01*
X000860Y009730D01*
X000860Y010136D01*
X001147Y010423D01*
X001553Y010423D01*
X001840Y010136D01*
X001840Y009730D01*
X001553Y009443D01*
X001642Y009533D02*
X002058Y009533D01*
X001959Y009631D02*
X001741Y009631D01*
X001839Y009730D02*
X001861Y009730D01*
X001860Y009828D02*
X001840Y009828D01*
X001840Y009927D02*
X001860Y009927D01*
X001860Y010025D02*
X001840Y010025D01*
X001840Y010124D02*
X001860Y010124D01*
X001946Y010222D02*
X001754Y010222D01*
X001655Y010321D02*
X002045Y010321D01*
X002143Y010419D02*
X001557Y010419D01*
X001553Y010443D02*
X001840Y010730D01*
X001840Y011136D01*
X001553Y011423D01*
X001147Y011423D01*
X000860Y011136D01*
X000860Y010730D01*
X001147Y010443D01*
X001553Y010443D01*
X001627Y010518D02*
X002101Y010518D01*
X002155Y010463D02*
X001880Y010739D01*
X001880Y010883D01*
X002300Y010883D01*
X002400Y010883D01*
X002400Y010463D01*
X002545Y010463D01*
X002820Y010739D01*
X002820Y010883D01*
X002400Y010883D01*
X002400Y010983D01*
X002820Y010983D01*
X002820Y011128D01*
X002545Y011403D01*
X002400Y011403D01*
X002400Y010983D01*
X002300Y010983D01*
X002300Y010883D01*
X002300Y010463D01*
X002155Y010463D01*
X002300Y010518D02*
X002400Y010518D01*
X002400Y010616D02*
X002300Y010616D01*
X002300Y010715D02*
X002400Y010715D01*
X002400Y010813D02*
X002300Y010813D01*
X002300Y010912D02*
X001840Y010912D01*
X001880Y010983D02*
X002300Y010983D01*
X002300Y011403D01*
X002155Y011403D01*
X001880Y011128D01*
X001880Y010983D01*
X001880Y011010D02*
X001840Y011010D01*
X001840Y011109D02*
X001880Y011109D01*
X001959Y011207D02*
X001769Y011207D01*
X001670Y011306D02*
X002058Y011306D01*
X002147Y011443D02*
X002553Y011443D01*
X002840Y011730D01*
X002840Y012136D01*
X002553Y012423D01*
X002147Y012423D01*
X001860Y012136D01*
X001860Y011730D01*
X002147Y011443D01*
X002088Y011503D02*
X001800Y011503D01*
X001840Y011543D02*
X001840Y012324D01*
X001740Y012423D01*
X000960Y012423D01*
X000860Y012324D01*
X000860Y011543D01*
X000960Y011443D01*
X001740Y011443D01*
X001840Y011543D01*
X001840Y011601D02*
X001989Y011601D01*
X001891Y011700D02*
X001840Y011700D01*
X001840Y011798D02*
X001860Y011798D01*
X001860Y011897D02*
X001840Y011897D01*
X001840Y011995D02*
X001860Y011995D01*
X001860Y012094D02*
X001840Y012094D01*
X001840Y012192D02*
X001916Y012192D01*
X001840Y012291D02*
X002015Y012291D01*
X002113Y012389D02*
X001774Y012389D01*
X002587Y012389D02*
X003133Y012389D01*
X003231Y012291D02*
X002685Y012291D01*
X002784Y012192D02*
X003330Y012192D01*
X003428Y012094D02*
X002840Y012094D01*
X002840Y011995D02*
X003480Y011995D01*
X003480Y011897D02*
X002840Y011897D01*
X002840Y011798D02*
X003480Y011798D01*
X003480Y011700D02*
X002809Y011700D01*
X002711Y011601D02*
X003480Y011601D01*
X003480Y011503D02*
X002612Y011503D01*
X002642Y011306D02*
X003480Y011306D01*
X003480Y011404D02*
X001572Y011404D01*
X001128Y011404D02*
X000450Y011404D01*
X000450Y011306D02*
X001030Y011306D01*
X000931Y011207D02*
X000450Y011207D01*
X000450Y011109D02*
X000860Y011109D01*
X000860Y011010D02*
X000450Y011010D01*
X000450Y010912D02*
X000860Y010912D01*
X000860Y010813D02*
X000450Y010813D01*
X000450Y010715D02*
X000876Y010715D01*
X000974Y010616D02*
X000450Y010616D01*
X000450Y010518D02*
X001073Y010518D01*
X001143Y010419D02*
X000450Y010419D01*
X000450Y010321D02*
X001045Y010321D01*
X000946Y010222D02*
X000450Y010222D01*
X000450Y010124D02*
X000860Y010124D01*
X000860Y010025D02*
X000450Y010025D01*
X000450Y009927D02*
X000860Y009927D01*
X000860Y009828D02*
X000450Y009828D01*
X000450Y009730D02*
X000861Y009730D01*
X000959Y009631D02*
X000450Y009631D01*
X000450Y009533D02*
X001058Y009533D01*
X002741Y009631D02*
X003342Y009631D01*
X003383Y009730D02*
X002839Y009730D01*
X002840Y009828D02*
X003474Y009828D01*
X003480Y009927D02*
X002840Y009927D01*
X002840Y010025D02*
X003480Y010025D01*
X003480Y010124D02*
X002840Y010124D01*
X002754Y010222D02*
X003480Y010222D01*
X003480Y010321D02*
X002655Y010321D01*
X002557Y010419D02*
X003480Y010419D01*
X003480Y010518D02*
X002599Y010518D01*
X002698Y010616D02*
X003480Y010616D01*
X003480Y010715D02*
X002796Y010715D01*
X002820Y010813D02*
X003480Y010813D01*
X003480Y010912D02*
X002400Y010912D01*
X002400Y011010D02*
X002300Y011010D01*
X002300Y011109D02*
X002400Y011109D01*
X002400Y011207D02*
X002300Y011207D01*
X002300Y011306D02*
X002400Y011306D01*
X002741Y011207D02*
X003480Y011207D01*
X003480Y011109D02*
X002820Y011109D01*
X002820Y011010D02*
X003480Y011010D01*
X003920Y011010D02*
X004050Y011010D01*
X004050Y010912D02*
X003920Y010912D01*
X003920Y010813D02*
X004050Y010813D01*
X004050Y010715D02*
X003920Y010715D01*
X003920Y010616D02*
X004063Y010616D01*
X004125Y010518D02*
X003920Y010518D01*
X003920Y010419D02*
X004224Y010419D01*
X004322Y010321D02*
X003920Y010321D01*
X003920Y010222D02*
X004420Y010222D01*
X004515Y010124D02*
X003920Y010124D01*
X003920Y010025D02*
X004056Y010025D01*
X003957Y009927D02*
X003920Y009927D01*
X004544Y010025D02*
X004610Y010025D01*
X004643Y009927D02*
X004705Y009927D01*
X004741Y009828D02*
X004800Y009828D01*
X004750Y009730D02*
X004894Y009730D01*
X004400Y009633D02*
X004300Y009633D01*
X003700Y009533D02*
X003700Y012133D01*
X003100Y012733D01*
X003100Y015233D01*
X003600Y015733D01*
X003600Y016033D01*
X004090Y016034D02*
X004550Y016034D01*
X004550Y016083D02*
X004550Y015983D01*
X004650Y015983D01*
X004650Y015563D01*
X004795Y015563D01*
X005070Y015839D01*
X005070Y015983D01*
X004650Y015983D01*
X004650Y016083D01*
X005070Y016083D01*
X005070Y016228D01*
X004795Y016503D01*
X004650Y016503D01*
X004650Y016083D01*
X004550Y016083D01*
X004130Y016083D01*
X004130Y016228D01*
X004405Y016503D01*
X004550Y016503D01*
X004550Y016083D01*
X004550Y016132D02*
X004650Y016132D01*
X004650Y016034D02*
X005110Y016034D01*
X005110Y016132D02*
X005070Y016132D01*
X005067Y016231D02*
X005110Y016231D01*
X005203Y016329D02*
X004969Y016329D01*
X004870Y016428D02*
X005302Y016428D01*
X004650Y016428D02*
X004550Y016428D01*
X004550Y016329D02*
X004650Y016329D01*
X004650Y016231D02*
X004550Y016231D01*
X004550Y015983D02*
X004130Y015983D01*
X004130Y015839D01*
X004405Y015563D01*
X004550Y015563D01*
X004550Y015983D01*
X004550Y015935D02*
X004650Y015935D01*
X004650Y015837D02*
X004550Y015837D01*
X004550Y015738D02*
X004650Y015738D01*
X004650Y015640D02*
X004550Y015640D01*
X004550Y015503D02*
X004405Y015503D01*
X004130Y015228D01*
X004130Y015083D01*
X004550Y015083D01*
X004550Y014983D01*
X004650Y014983D01*
X004650Y014563D01*
X004795Y014563D01*
X005070Y014839D01*
X005070Y014983D01*
X004650Y014983D01*
X004650Y015083D01*
X005070Y015083D01*
X005070Y015228D01*
X004795Y015503D01*
X004650Y015503D01*
X004650Y015083D01*
X004550Y015083D01*
X004550Y015503D01*
X004550Y015443D02*
X004650Y015443D01*
X004650Y015344D02*
X004550Y015344D01*
X004550Y015246D02*
X004650Y015246D01*
X004650Y015147D02*
X004550Y015147D01*
X004550Y015049D02*
X004090Y015049D01*
X004130Y014983D02*
X004130Y014839D01*
X004405Y014563D01*
X004550Y014563D01*
X004550Y014983D01*
X004130Y014983D01*
X004130Y014950D02*
X004090Y014950D01*
X004090Y014852D02*
X004130Y014852D01*
X004215Y014753D02*
X004013Y014753D01*
X003914Y014655D02*
X004314Y014655D01*
X004550Y014655D02*
X004650Y014655D01*
X004650Y014753D02*
X004550Y014753D01*
X004550Y014852D02*
X004650Y014852D01*
X004650Y014950D02*
X004550Y014950D01*
X004650Y015049D02*
X005110Y015049D01*
X005110Y015147D02*
X005070Y015147D01*
X005052Y015246D02*
X005110Y015246D01*
X005110Y015344D02*
X004954Y015344D01*
X004855Y015443D02*
X005129Y015443D01*
X005301Y015640D02*
X004871Y015640D01*
X004970Y015738D02*
X005202Y015738D01*
X005110Y015837D02*
X005068Y015837D01*
X005070Y015935D02*
X005110Y015935D01*
X004329Y015640D02*
X004087Y015640D01*
X004090Y015738D02*
X004230Y015738D01*
X004132Y015837D02*
X004090Y015837D01*
X004090Y015935D02*
X004130Y015935D01*
X004130Y016132D02*
X004090Y016132D01*
X004090Y016231D02*
X004133Y016231D01*
X004090Y016329D02*
X004231Y016329D01*
X004330Y016428D02*
X004086Y016428D01*
X003114Y016428D02*
X002500Y016428D01*
X002443Y016526D02*
X005904Y016526D01*
X005963Y016625D02*
X002338Y016625D01*
X002431Y016547D02*
X002177Y016760D01*
X001866Y016873D01*
X001534Y016873D01*
X001223Y016760D01*
X001223Y016760D01*
X000969Y016547D01*
X000969Y016547D01*
X000803Y016260D01*
X000803Y016260D01*
X000745Y015933D01*
X000803Y015607D01*
X000969Y015320D01*
X000969Y015320D01*
X001223Y015107D01*
X001534Y014993D01*
X001700Y014993D01*
X001866Y014993D01*
X002177Y015107D01*
X002177Y015107D01*
X002431Y015320D01*
X002597Y015607D01*
X002654Y015933D01*
X002654Y015933D01*
X002597Y016260D01*
X002431Y016547D01*
X002431Y016547D01*
X002557Y016329D02*
X003110Y016329D01*
X003110Y016231D02*
X002602Y016231D01*
X002597Y016260D02*
X002597Y016260D01*
X002619Y016132D02*
X003110Y016132D01*
X003110Y016034D02*
X002637Y016034D01*
X002654Y015935D02*
X003110Y015935D01*
X003110Y015837D02*
X002637Y015837D01*
X002620Y015738D02*
X003110Y015738D01*
X003113Y015640D02*
X002603Y015640D01*
X002597Y015607D02*
X002597Y015607D01*
X002559Y015541D02*
X003097Y015541D01*
X002998Y015443D02*
X002502Y015443D01*
X002445Y015344D02*
X002900Y015344D01*
X002880Y015246D02*
X002343Y015246D01*
X002431Y015320D02*
X002431Y015320D01*
X002431Y015320D01*
X002226Y015147D02*
X002880Y015147D01*
X002880Y015049D02*
X002018Y015049D01*
X001866Y014993D02*
X001866Y014993D01*
X001382Y015049D02*
X000450Y015049D01*
X000450Y015147D02*
X001174Y015147D01*
X001223Y015107D02*
X001223Y015107D01*
X001057Y015246D02*
X000450Y015246D01*
X000450Y015344D02*
X000955Y015344D01*
X000898Y015443D02*
X000450Y015443D01*
X000450Y015541D02*
X000841Y015541D01*
X000803Y015607D02*
X000803Y015607D01*
X000797Y015640D02*
X000450Y015640D01*
X000450Y015738D02*
X000780Y015738D01*
X000763Y015837D02*
X000450Y015837D01*
X000450Y015935D02*
X000746Y015935D01*
X000745Y015933D02*
X000745Y015933D01*
X000763Y016034D02*
X000450Y016034D01*
X000456Y016132D02*
X000781Y016132D01*
X000798Y016231D02*
X000473Y016231D01*
X000499Y016329D02*
X000843Y016329D01*
X000900Y016428D02*
X000525Y016428D01*
X000538Y016473D02*
X000538Y016473D01*
X000568Y016526D02*
X000957Y016526D01*
X000969Y016547D02*
X000969Y016547D01*
X001062Y016625D02*
X000625Y016625D01*
X000682Y016723D02*
X001179Y016723D01*
X001393Y016822D02*
X000776Y016822D01*
X000875Y016920D02*
X007844Y016920D01*
X007883Y017019D02*
X001027Y017019D01*
X001240Y017117D02*
X007883Y017117D01*
X007770Y016822D02*
X002007Y016822D01*
X002177Y016760D02*
X002177Y016760D01*
X002221Y016723D02*
X006036Y016723D01*
X006310Y016231D02*
X006793Y016231D01*
X006717Y016132D02*
X006251Y016132D01*
X006192Y016034D02*
X006671Y016034D01*
X006645Y015935D02*
X006133Y015935D01*
X006090Y015837D02*
X007167Y015837D01*
X007264Y015837D02*
X008584Y015837D01*
X008584Y015935D02*
X007787Y015935D01*
X007760Y016034D02*
X008618Y016034D01*
X008659Y016132D02*
X007714Y016132D01*
X007638Y016231D02*
X008733Y016231D01*
X008584Y015738D02*
X007788Y015738D01*
X007763Y015640D02*
X008615Y015640D01*
X008656Y015541D02*
X007718Y015541D01*
X007646Y015443D02*
X008726Y015443D01*
X008825Y015344D02*
X007529Y015344D01*
X007264Y015344D02*
X007167Y015344D01*
X007167Y015443D02*
X007264Y015443D01*
X007264Y015541D02*
X007167Y015541D01*
X007167Y015640D02*
X007264Y015640D01*
X007264Y015738D02*
X007167Y015738D01*
X006714Y015541D02*
X003719Y015541D01*
X003883Y015443D02*
X004345Y015443D01*
X004246Y015344D02*
X003982Y015344D01*
X004080Y015246D02*
X004148Y015246D01*
X004130Y015147D02*
X004090Y015147D01*
X004886Y014655D02*
X005110Y014655D01*
X005110Y014753D02*
X004985Y014753D01*
X005070Y014852D02*
X005110Y014852D01*
X005110Y014950D02*
X005070Y014950D01*
X005197Y014556D02*
X003816Y014556D01*
X003384Y014556D02*
X003320Y014556D01*
X003320Y014458D02*
X005380Y014458D01*
X005380Y014359D02*
X003320Y014359D01*
X003320Y014261D02*
X005380Y014261D01*
X005380Y014162D02*
X003320Y014162D01*
X003320Y014064D02*
X005380Y014064D01*
X005380Y013965D02*
X003320Y013965D01*
X003320Y013867D02*
X004143Y013867D01*
X004014Y013768D02*
X003320Y013768D01*
X003320Y013670D02*
X003958Y013670D01*
X003932Y013571D02*
X003320Y013571D01*
X003320Y013473D02*
X003932Y013473D01*
X003967Y013374D02*
X003320Y013374D01*
X003320Y013276D02*
X004037Y013276D01*
X004050Y013177D02*
X003320Y013177D01*
X003320Y013079D02*
X004050Y013079D01*
X004011Y012980D02*
X003320Y012980D01*
X003320Y012882D02*
X003912Y012882D01*
X003850Y012783D02*
X003361Y012783D01*
X003460Y012685D02*
X003850Y012685D01*
X003850Y012586D02*
X003558Y012586D01*
X003657Y012488D02*
X003850Y012488D01*
X003908Y012389D02*
X003755Y012389D01*
X003854Y012291D02*
X004006Y012291D01*
X004050Y012192D02*
X003920Y012192D01*
X003920Y012094D02*
X004050Y012094D01*
X004050Y011995D02*
X003920Y011995D01*
X003920Y011897D02*
X004050Y011897D01*
X004050Y011798D02*
X003920Y011798D01*
X003920Y011700D02*
X004050Y011700D01*
X004050Y011601D02*
X003920Y011601D01*
X003920Y011503D02*
X004050Y011503D01*
X004050Y011404D02*
X003920Y011404D01*
X003920Y011306D02*
X004050Y011306D01*
X004050Y011207D02*
X003920Y011207D01*
X003920Y011109D02*
X004050Y011109D01*
X005019Y010321D02*
X005409Y010321D01*
X005310Y010222D02*
X005114Y010222D01*
X005951Y010518D02*
X008480Y010518D01*
X008480Y010616D02*
X006062Y010616D01*
X006129Y010715D02*
X008480Y010715D01*
X008480Y010813D02*
X006170Y010813D01*
X006180Y010912D02*
X008480Y010912D01*
X008480Y011010D02*
X006180Y011010D01*
X006260Y011109D02*
X008480Y011109D01*
X008480Y011207D02*
X006399Y011207D01*
X006420Y011306D02*
X008480Y011306D01*
X008480Y011404D02*
X006420Y011404D01*
X006420Y011503D02*
X006485Y011503D01*
X006200Y011333D02*
X006200Y012433D01*
X005574Y012586D02*
X004750Y012586D01*
X004750Y012685D02*
X005426Y012685D01*
X005380Y012783D02*
X004750Y012783D01*
X004688Y012882D02*
X005368Y012882D01*
X005380Y012980D02*
X004589Y012980D01*
X004550Y013079D02*
X005380Y013079D01*
X005380Y013177D02*
X004550Y013177D01*
X004563Y013276D02*
X005380Y013276D01*
X005380Y013374D02*
X004633Y013374D01*
X004668Y013473D02*
X005380Y013473D01*
X005380Y013571D02*
X004668Y013571D01*
X004642Y013670D02*
X005380Y013670D01*
X005380Y013768D02*
X004586Y013768D01*
X004457Y013867D02*
X005380Y013867D01*
X005820Y013867D02*
X006293Y013867D01*
X006293Y013965D02*
X005820Y013965D01*
X005820Y014064D02*
X006307Y014064D01*
X006303Y014058D02*
X006293Y014020D01*
X006293Y013533D01*
X006910Y013533D01*
X006910Y013433D01*
X007010Y013433D01*
X007010Y012817D01*
X007496Y012817D01*
X007535Y012827D01*
X007569Y012847D01*
X007597Y012874D01*
X007617Y012909D01*
X007627Y012947D01*
X007627Y013433D01*
X007010Y013433D01*
X007010Y013533D01*
X007627Y013533D01*
X007627Y014020D01*
X007617Y014058D01*
X007597Y014092D01*
X007569Y014120D01*
X007535Y014140D01*
X007496Y014150D01*
X007010Y014150D01*
X007010Y013533D01*
X006910Y013533D01*
X006910Y014150D01*
X006424Y014150D01*
X006385Y014140D01*
X006351Y014120D01*
X006323Y014092D01*
X006303Y014058D01*
X006293Y013768D02*
X005820Y013768D01*
X005820Y013670D02*
X006293Y013670D01*
X006293Y013571D02*
X005820Y013571D01*
X005820Y013473D02*
X006910Y013473D01*
X006910Y013433D02*
X006293Y013433D01*
X006293Y012947D01*
X006303Y012909D01*
X006323Y012874D01*
X006351Y012847D01*
X006385Y012827D01*
X006424Y012817D01*
X006910Y012817D01*
X006910Y013433D01*
X006910Y013374D02*
X007010Y013374D01*
X007010Y013276D02*
X006910Y013276D01*
X006910Y013177D02*
X007010Y013177D01*
X007010Y013079D02*
X006910Y013079D01*
X006910Y012980D02*
X007010Y012980D01*
X007010Y012882D02*
X006910Y012882D01*
X006319Y012882D02*
X005924Y012882D01*
X005820Y012980D02*
X006293Y012980D01*
X006293Y013079D02*
X005820Y013079D01*
X005820Y013177D02*
X006293Y013177D01*
X006293Y013276D02*
X005820Y013276D01*
X005820Y013374D02*
X006293Y013374D01*
X006910Y013571D02*
X007010Y013571D01*
X007010Y013473D02*
X008470Y013473D01*
X008470Y013433D02*
X007854Y013433D01*
X007865Y013353D01*
X007887Y013269D01*
X007921Y013188D01*
X007964Y013112D01*
X008018Y013043D01*
X008079Y012981D01*
X008149Y012928D01*
X008224Y012884D01*
X008305Y012851D01*
X008390Y012828D01*
X008470Y012817D01*
X008470Y013433D01*
X008570Y013433D01*
X008570Y012817D01*
X008650Y012828D01*
X008735Y012851D01*
X008816Y012884D01*
X008891Y012928D01*
X008961Y012981D01*
X009022Y013043D01*
X009076Y013112D01*
X009119Y013188D01*
X009153Y013269D01*
X009175Y013353D01*
X009186Y013433D01*
X008570Y013433D01*
X008570Y013533D01*
X009186Y013533D01*
X009175Y013614D01*
X009153Y013698D01*
X009119Y013779D01*
X009076Y013855D01*
X009022Y013924D01*
X008961Y013986D01*
X008891Y014039D01*
X008816Y014083D01*
X008735Y014116D01*
X008650Y014139D01*
X008570Y014149D01*
X008570Y013533D01*
X008470Y013533D01*
X008470Y013433D01*
X008470Y013374D02*
X008570Y013374D01*
X008570Y013276D02*
X008470Y013276D01*
X008470Y013177D02*
X008570Y013177D01*
X008570Y013079D02*
X008470Y013079D01*
X008470Y012980D02*
X008570Y012980D01*
X008570Y012882D02*
X008470Y012882D01*
X008230Y012882D02*
X007601Y012882D01*
X007627Y012980D02*
X008080Y012980D01*
X007990Y013079D02*
X007627Y013079D01*
X007627Y013177D02*
X007927Y013177D01*
X007885Y013276D02*
X007627Y013276D01*
X007627Y013374D02*
X007862Y013374D01*
X007854Y013533D02*
X008470Y013533D01*
X008470Y014149D01*
X008390Y014139D01*
X008305Y014116D01*
X008224Y014083D01*
X008149Y014039D01*
X008079Y013986D01*
X008018Y013924D01*
X007964Y013855D01*
X007921Y013779D01*
X007887Y013698D01*
X007865Y013614D01*
X007854Y013533D01*
X007859Y013571D02*
X007627Y013571D01*
X007627Y013670D02*
X007880Y013670D01*
X007916Y013768D02*
X007627Y013768D01*
X007627Y013867D02*
X007974Y013867D01*
X008059Y013965D02*
X007627Y013965D01*
X007613Y014064D02*
X008192Y014064D01*
X008470Y014064D02*
X008570Y014064D01*
X008570Y013965D02*
X008470Y013965D01*
X008470Y013867D02*
X008570Y013867D01*
X008570Y013768D02*
X008470Y013768D01*
X008470Y013670D02*
X008570Y013670D01*
X008570Y013571D02*
X008470Y013571D01*
X008570Y013473D02*
X009393Y013473D01*
X009393Y013571D02*
X009181Y013571D01*
X009160Y013670D02*
X009414Y013670D01*
X009455Y013768D02*
X009124Y013768D01*
X009066Y013867D02*
X009496Y013867D01*
X009591Y013965D02*
X008981Y013965D01*
X008848Y014064D02*
X009689Y014064D01*
X009925Y014162D02*
X005820Y014162D01*
X006910Y014064D02*
X007010Y014064D01*
X007010Y013965D02*
X006910Y013965D01*
X006910Y013867D02*
X007010Y013867D01*
X007010Y013768D02*
X006910Y013768D01*
X006910Y013670D02*
X007010Y013670D01*
X008810Y012882D02*
X009738Y012882D01*
X009612Y012980D02*
X008960Y012980D01*
X009050Y013079D02*
X009513Y013079D01*
X009463Y013177D02*
X009113Y013177D01*
X009155Y013276D02*
X009423Y013276D01*
X009393Y013374D02*
X009178Y013374D01*
X008853Y012389D02*
X009547Y012389D01*
X009379Y012291D02*
X009021Y012291D01*
X009112Y012192D02*
X009288Y012192D01*
X009247Y012094D02*
X009153Y012094D01*
X009180Y011995D02*
X009220Y011995D01*
X009220Y011897D02*
X009180Y011897D01*
X009164Y011798D02*
X009236Y011798D01*
X009277Y011700D02*
X009123Y011700D01*
X009047Y011601D02*
X009353Y011601D01*
X008700Y011933D02*
X008700Y009833D01*
X009417Y009730D02*
X009485Y009730D01*
X011014Y009927D02*
X011282Y009927D01*
X011381Y010025D02*
X011112Y010025D01*
X011153Y010124D02*
X011479Y010124D01*
X011578Y010222D02*
X011168Y010222D01*
X011162Y010321D02*
X011676Y010321D01*
X011775Y010419D02*
X011121Y010419D01*
X013535Y010419D02*
X013780Y010419D01*
X013780Y010321D02*
X013626Y010321D01*
X014400Y010633D02*
X014900Y010233D01*
X014900Y007533D01*
X013222Y007464D02*
X012822Y007464D01*
X013008Y007563D02*
X013182Y007563D01*
X011448Y008548D02*
X011326Y008548D01*
X007526Y006381D02*
X006874Y006381D01*
X007030Y006282D02*
X007370Y006282D01*
X007284Y006184D02*
X007116Y006184D01*
X007157Y006085D02*
X007243Y006085D01*
X007220Y005987D02*
X007180Y005987D01*
X007180Y005888D02*
X007220Y005888D01*
X007240Y005790D02*
X007160Y005790D01*
X007119Y005691D02*
X007281Y005691D01*
X007362Y005593D02*
X007038Y005593D01*
X006894Y005494D02*
X007506Y005494D01*
X007894Y005494D02*
X007950Y005494D01*
X007950Y005396D02*
X006420Y005396D01*
X006420Y005494D02*
X006506Y005494D01*
X006420Y005297D02*
X007986Y005297D01*
X008038Y005199D02*
X006420Y005199D01*
X006420Y005100D02*
X008087Y005100D01*
X008154Y005002D02*
X006420Y005002D01*
X006420Y004903D02*
X008220Y004903D01*
X008250Y004805D02*
X006420Y004805D01*
X006420Y004706D02*
X008250Y004706D01*
X008250Y004608D02*
X006718Y004608D01*
X007789Y004509D02*
X008183Y004509D01*
X008085Y004411D02*
X007887Y004411D01*
X007970Y004312D02*
X008010Y004312D01*
X008010Y004214D02*
X007970Y004214D01*
X007149Y003820D02*
X006879Y003820D01*
X006978Y003918D02*
X007050Y003918D01*
X007030Y004017D02*
X006990Y004017D01*
X008879Y003820D02*
X009149Y003820D01*
X009050Y003918D02*
X008978Y003918D01*
X008990Y004017D02*
X009030Y004017D01*
X009894Y005494D02*
X009935Y005494D01*
X012718Y004608D02*
X012763Y004608D01*
X017465Y006381D02*
X017526Y006381D01*
X019038Y005593D02*
X019050Y005593D01*
X005980Y006381D02*
X005874Y006381D01*
X005858Y006479D02*
X005980Y006479D01*
X005745Y009139D02*
X005655Y009139D01*
X002002Y010616D02*
X001726Y010616D01*
X001824Y010715D02*
X001904Y010715D01*
X001880Y010813D02*
X001840Y010813D01*
X000900Y011503D02*
X000450Y011503D01*
X000450Y011601D02*
X000860Y011601D01*
X000860Y011700D02*
X000450Y011700D01*
X000450Y011798D02*
X000860Y011798D01*
X000860Y011897D02*
X000450Y011897D01*
X000450Y011995D02*
X000860Y011995D01*
X000860Y012094D02*
X000450Y012094D01*
X000450Y012192D02*
X000860Y012192D01*
X000860Y012291D02*
X000450Y012291D01*
X000450Y012389D02*
X000926Y012389D01*
X000450Y012488D02*
X003034Y012488D01*
X002936Y012586D02*
X000450Y012586D01*
X000450Y012685D02*
X002880Y012685D01*
X002880Y012783D02*
X000450Y012783D01*
X000450Y012882D02*
X002880Y012882D01*
X002880Y012980D02*
X000450Y012980D01*
X000450Y013079D02*
X002880Y013079D01*
X002880Y013177D02*
X000450Y013177D01*
X000450Y013276D02*
X002880Y013276D01*
X002880Y013374D02*
X000450Y013374D01*
X000450Y013473D02*
X002880Y013473D01*
X002880Y013571D02*
X000450Y013571D01*
X000450Y013670D02*
X002880Y013670D01*
X002880Y013768D02*
X000450Y013768D01*
X000450Y013867D02*
X002880Y013867D01*
X002880Y013965D02*
X000450Y013965D01*
X000450Y014064D02*
X002880Y014064D01*
X002880Y014162D02*
X000450Y014162D01*
X000450Y014261D02*
X002880Y014261D01*
X002880Y014359D02*
X000450Y014359D01*
X000450Y014458D02*
X002880Y014458D01*
X002880Y014556D02*
X000450Y014556D01*
X000450Y014655D02*
X002880Y014655D01*
X002880Y014753D02*
X000450Y014753D01*
X000450Y014852D02*
X002880Y014852D01*
X002880Y014950D02*
X000450Y014950D01*
X005899Y015640D02*
X006669Y015640D01*
X006644Y015738D02*
X005998Y015738D01*
X006071Y015443D02*
X006786Y015443D01*
X006902Y015344D02*
X006090Y015344D01*
X006090Y015246D02*
X009035Y015246D01*
X009334Y015246D02*
X011329Y015246D01*
X011195Y015344D02*
X009544Y015344D01*
X009642Y015443D02*
X011061Y015443D01*
X010927Y015541D02*
X009713Y015541D01*
X009754Y015640D02*
X010793Y015640D01*
X010659Y015738D02*
X009784Y015738D01*
X009784Y015837D02*
X010525Y015837D01*
X010391Y015935D02*
X009784Y015935D01*
X009751Y016034D02*
X010257Y016034D01*
X010123Y016132D02*
X009710Y016132D01*
X009635Y016231D02*
X009989Y016231D01*
X010431Y016526D02*
X012628Y016526D01*
X012530Y016428D02*
X012530Y016283D01*
X012950Y016283D01*
X012950Y016183D01*
X013050Y016183D01*
X013050Y015763D01*
X013195Y015763D01*
X013470Y016039D01*
X013470Y016183D01*
X013050Y016183D01*
X013050Y016283D01*
X013470Y016283D01*
X013470Y016428D01*
X013195Y016703D01*
X013050Y016703D01*
X013050Y016283D01*
X012950Y016283D01*
X012950Y016703D01*
X012805Y016703D01*
X012530Y016428D01*
X010565Y016428D01*
X010699Y016329D02*
X012530Y016329D01*
X012530Y016183D02*
X012530Y016039D01*
X012805Y015763D01*
X012950Y015763D01*
X012950Y016183D01*
X012530Y016183D01*
X012530Y016132D02*
X010967Y016132D01*
X010833Y016231D02*
X012950Y016231D01*
X012950Y016329D02*
X013050Y016329D01*
X013050Y016231D02*
X013510Y016231D01*
X013510Y016329D02*
X013470Y016329D01*
X013470Y016428D02*
X013510Y016428D01*
X013510Y016526D02*
X013372Y016526D01*
X013273Y016625D02*
X013511Y016625D01*
X013510Y016624D02*
X013610Y016723D01*
X014390Y016723D01*
X014490Y016624D01*
X014490Y015843D01*
X014390Y015743D01*
X013610Y015743D01*
X013510Y015843D01*
X013510Y016624D01*
X013050Y016625D02*
X012950Y016625D01*
X012950Y016526D02*
X013050Y016526D01*
X013050Y016428D02*
X012950Y016428D01*
X012727Y016625D02*
X011656Y016625D01*
X011712Y016723D02*
X015089Y016723D01*
X015089Y016625D02*
X014489Y016625D01*
X014490Y016526D02*
X015130Y016526D01*
X015171Y016428D02*
X014490Y016428D01*
X014490Y016329D02*
X015228Y016329D01*
X015327Y016231D02*
X014490Y016231D01*
X014490Y016132D02*
X015453Y016132D01*
X015438Y016034D02*
X014490Y016034D01*
X014490Y015935D02*
X015316Y015935D01*
X015233Y015837D02*
X014484Y015837D01*
X015139Y015640D02*
X011637Y015640D01*
X011503Y015738D02*
X015176Y015738D01*
X015117Y015541D02*
X011771Y015541D01*
X011905Y015443D02*
X015770Y015443D01*
X015114Y015344D02*
X012039Y015344D01*
X012173Y015246D02*
X015134Y015246D01*
X015169Y015147D02*
X012307Y015147D01*
X012441Y015049D02*
X015221Y015049D01*
X015297Y014950D02*
X012575Y014950D01*
X012709Y014852D02*
X015409Y014852D01*
X016029Y014753D02*
X018105Y014753D01*
X017888Y014852D02*
X016230Y014852D01*
X016342Y014950D02*
X017789Y014950D01*
X017699Y015049D02*
X016419Y015049D01*
X016471Y015147D02*
X017658Y015147D01*
X017617Y015246D02*
X016506Y015246D01*
X016525Y015344D02*
X017597Y015344D01*
X019013Y016231D02*
X019027Y016231D01*
X018221Y016329D02*
X016411Y016329D01*
X016468Y016428D02*
X018122Y016428D01*
X018053Y016526D02*
X016509Y016526D01*
X016550Y016625D02*
X018012Y016625D01*
X017971Y016723D02*
X016551Y016723D01*
X016551Y016822D02*
X017963Y016822D01*
X017963Y016920D02*
X016549Y016920D01*
X016509Y017019D02*
X017963Y017019D01*
X017997Y017117D02*
X016468Y017117D01*
X015172Y017117D02*
X011712Y017117D01*
X011712Y017019D02*
X015131Y017019D01*
X015090Y016920D02*
X011668Y016920D01*
X011712Y016822D02*
X015089Y016822D01*
X013510Y016132D02*
X013470Y016132D01*
X013465Y016034D02*
X013510Y016034D01*
X013510Y015935D02*
X013367Y015935D01*
X013268Y015837D02*
X013516Y015837D01*
X013050Y015837D02*
X012950Y015837D01*
X012950Y015935D02*
X013050Y015935D01*
X013050Y016034D02*
X012950Y016034D01*
X012950Y016132D02*
X013050Y016132D01*
X012633Y015935D02*
X011235Y015935D01*
X011369Y015837D02*
X012732Y015837D01*
X012535Y016034D02*
X011101Y016034D01*
X010404Y016625D02*
X010381Y016625D01*
X011463Y015147D02*
X006090Y015147D01*
X006853Y012389D02*
X007547Y012389D01*
X007605Y012413D02*
X007428Y012340D01*
X007293Y012205D01*
X007220Y012029D01*
X007220Y011838D01*
X007293Y011661D01*
X007428Y011526D01*
X007605Y011453D01*
X007795Y011453D01*
X007972Y011526D01*
X008107Y011661D01*
X008180Y011838D01*
X008180Y012029D01*
X008107Y012205D01*
X007972Y012340D01*
X007795Y012413D01*
X007605Y012413D01*
X007853Y012389D02*
X008547Y012389D01*
X008379Y012291D02*
X008021Y012291D01*
X008112Y012192D02*
X008288Y012192D01*
X008247Y012094D02*
X008153Y012094D01*
X008180Y011995D02*
X008220Y011995D01*
X008220Y011897D02*
X008180Y011897D01*
X008164Y011798D02*
X008236Y011798D01*
X008277Y011700D02*
X008123Y011700D01*
X008047Y011601D02*
X008353Y011601D01*
X008480Y011503D02*
X007915Y011503D01*
X007485Y011503D02*
X006915Y011503D01*
X007047Y011601D02*
X007353Y011601D01*
X007277Y011700D02*
X007123Y011700D01*
X007164Y011798D02*
X007236Y011798D01*
X007220Y011897D02*
X007180Y011897D01*
X007180Y011995D02*
X007220Y011995D01*
X007247Y012094D02*
X007153Y012094D01*
X007112Y012192D02*
X007288Y012192D01*
X007379Y012291D02*
X007021Y012291D01*
X005980Y011503D02*
X005915Y011503D01*
X005910Y011404D02*
X005817Y011404D01*
X006200Y011333D02*
X005600Y010933D01*
X005700Y010933D01*
X009853Y012389D02*
X010547Y012389D01*
X010379Y012291D02*
X010021Y012291D01*
X010112Y012192D02*
X010288Y012192D01*
X013656Y013768D02*
X015219Y013768D01*
X015295Y013867D02*
X013729Y013867D01*
X013768Y013965D02*
X015407Y013965D01*
X015602Y014064D02*
X013768Y014064D01*
X016198Y012783D02*
X016264Y012783D01*
X016321Y012882D02*
X016328Y012882D01*
X016405Y012980D02*
X016476Y012980D01*
X016462Y013079D02*
X016534Y013079D01*
X016001Y012488D02*
X015988Y012475D01*
X015976Y012445D01*
X015960Y012418D01*
X015957Y012400D01*
X015950Y012383D01*
X015950Y012351D01*
X015950Y012349D01*
X015795Y012413D01*
X015605Y012413D01*
X015853Y012389D02*
X015953Y012389D01*
X016450Y011503D02*
X016485Y011503D01*
M02*
