G75*
G70*
%OFA0B0*%
%FSLAX24Y24*%
%IPPOS*%
%LPD*%
%AMOC8*
5,1,8,0,0,1.08239X$1,22.5*
%
%ADD10C,0.0000*%
%ADD11C,0.0060*%
%ADD12R,0.0640X0.0640*%
%ADD13OC8,0.0640*%
%ADD14C,0.1033*%
%ADD15R,0.1033X0.1033*%
%ADD16C,0.0860*%
%ADD17C,0.1122*%
%ADD18OC8,0.0560*%
%ADD19C,0.0620*%
%ADD20C,0.0396*%
%ADD21C,0.0160*%
%ADD22C,0.0100*%
D10*
X001600Y004500D02*
X017900Y004500D01*
X017973Y004502D01*
X018046Y004508D01*
X018119Y004517D01*
X018191Y004531D01*
X018262Y004548D01*
X018333Y004569D01*
X018402Y004593D01*
X018469Y004621D01*
X018536Y004653D01*
X018600Y004688D01*
X018662Y004726D01*
X018723Y004767D01*
X018781Y004812D01*
X018837Y004860D01*
X018890Y004910D01*
X018940Y004963D01*
X018988Y005019D01*
X019033Y005077D01*
X019074Y005138D01*
X019112Y005200D01*
X019147Y005264D01*
X019179Y005331D01*
X019207Y005398D01*
X019231Y005467D01*
X019252Y005538D01*
X019269Y005609D01*
X019283Y005681D01*
X019292Y005754D01*
X019298Y005827D01*
X019300Y005900D01*
X019300Y017600D01*
X017847Y017000D02*
X017849Y017042D01*
X017855Y017084D01*
X017865Y017126D01*
X017878Y017166D01*
X017896Y017205D01*
X017917Y017242D01*
X017941Y017276D01*
X017969Y017309D01*
X017999Y017339D01*
X018032Y017365D01*
X018067Y017389D01*
X018105Y017409D01*
X018144Y017425D01*
X018184Y017438D01*
X018226Y017447D01*
X018268Y017452D01*
X018311Y017453D01*
X018353Y017450D01*
X018395Y017443D01*
X018436Y017432D01*
X018476Y017417D01*
X018514Y017399D01*
X018551Y017377D01*
X018585Y017352D01*
X018617Y017324D01*
X018645Y017293D01*
X018671Y017259D01*
X018694Y017223D01*
X018713Y017186D01*
X018729Y017146D01*
X018741Y017105D01*
X018749Y017064D01*
X018753Y017021D01*
X018753Y016979D01*
X018749Y016936D01*
X018741Y016895D01*
X018729Y016854D01*
X018713Y016814D01*
X018694Y016777D01*
X018671Y016741D01*
X018645Y016707D01*
X018617Y016676D01*
X018585Y016648D01*
X018551Y016623D01*
X018514Y016601D01*
X018476Y016583D01*
X018436Y016568D01*
X018395Y016557D01*
X018353Y016550D01*
X018311Y016547D01*
X018268Y016548D01*
X018226Y016553D01*
X018184Y016562D01*
X018144Y016575D01*
X018105Y016591D01*
X018067Y016611D01*
X018032Y016635D01*
X017999Y016661D01*
X017969Y016691D01*
X017941Y016724D01*
X017917Y016758D01*
X017896Y016795D01*
X017878Y016834D01*
X017865Y016874D01*
X017855Y016916D01*
X017849Y016958D01*
X017847Y017000D01*
X019300Y017600D02*
X019298Y017673D01*
X019292Y017746D01*
X019283Y017819D01*
X019269Y017891D01*
X019252Y017962D01*
X019231Y018033D01*
X019207Y018102D01*
X019179Y018169D01*
X019147Y018236D01*
X019112Y018300D01*
X019074Y018362D01*
X019033Y018423D01*
X018988Y018481D01*
X018940Y018537D01*
X018890Y018590D01*
X018837Y018640D01*
X018781Y018688D01*
X018723Y018733D01*
X018662Y018774D01*
X018600Y018812D01*
X018536Y018847D01*
X018469Y018879D01*
X018402Y018907D01*
X018333Y018931D01*
X018262Y018952D01*
X018191Y018969D01*
X018119Y018983D01*
X018046Y018992D01*
X017973Y018998D01*
X017900Y019000D01*
X001600Y019000D01*
X001527Y018998D01*
X001454Y018992D01*
X001381Y018983D01*
X001309Y018969D01*
X001238Y018952D01*
X001167Y018931D01*
X001098Y018907D01*
X001031Y018879D01*
X000964Y018847D01*
X000900Y018812D01*
X000838Y018774D01*
X000777Y018733D01*
X000719Y018688D01*
X000663Y018640D01*
X000610Y018590D01*
X000560Y018537D01*
X000512Y018481D01*
X000467Y018423D01*
X000426Y018362D01*
X000388Y018300D01*
X000353Y018236D01*
X000321Y018169D01*
X000293Y018102D01*
X000269Y018033D01*
X000248Y017962D01*
X000231Y017891D01*
X000217Y017819D01*
X000208Y017746D01*
X000202Y017673D01*
X000200Y017600D01*
X000200Y005900D01*
X000202Y005827D01*
X000208Y005754D01*
X000217Y005681D01*
X000231Y005609D01*
X000248Y005538D01*
X000269Y005467D01*
X000293Y005398D01*
X000321Y005331D01*
X000353Y005264D01*
X000388Y005200D01*
X000426Y005138D01*
X000467Y005077D01*
X000512Y005019D01*
X000560Y004963D01*
X000610Y004910D01*
X000663Y004860D01*
X000719Y004812D01*
X000777Y004767D01*
X000838Y004726D01*
X000900Y004688D01*
X000964Y004653D01*
X001031Y004621D01*
X001098Y004593D01*
X001167Y004569D01*
X001238Y004548D01*
X001309Y004531D01*
X001381Y004517D01*
X001454Y004508D01*
X001527Y004502D01*
X001600Y004500D01*
X001070Y017500D02*
X001072Y017550D01*
X001078Y017600D01*
X001088Y017649D01*
X001102Y017697D01*
X001119Y017744D01*
X001140Y017789D01*
X001165Y017833D01*
X001193Y017874D01*
X001225Y017913D01*
X001259Y017950D01*
X001296Y017984D01*
X001336Y018014D01*
X001378Y018041D01*
X001422Y018065D01*
X001468Y018086D01*
X001515Y018102D01*
X001563Y018115D01*
X001613Y018124D01*
X001662Y018129D01*
X001713Y018130D01*
X001763Y018127D01*
X001812Y018120D01*
X001861Y018109D01*
X001909Y018094D01*
X001955Y018076D01*
X002000Y018054D01*
X002043Y018028D01*
X002084Y017999D01*
X002123Y017967D01*
X002159Y017932D01*
X002191Y017894D01*
X002221Y017854D01*
X002248Y017811D01*
X002271Y017767D01*
X002290Y017721D01*
X002306Y017673D01*
X002318Y017624D01*
X002326Y017575D01*
X002330Y017525D01*
X002330Y017475D01*
X002326Y017425D01*
X002318Y017376D01*
X002306Y017327D01*
X002290Y017279D01*
X002271Y017233D01*
X002248Y017189D01*
X002221Y017146D01*
X002191Y017106D01*
X002159Y017068D01*
X002123Y017033D01*
X002084Y017001D01*
X002043Y016972D01*
X002000Y016946D01*
X001955Y016924D01*
X001909Y016906D01*
X001861Y016891D01*
X001812Y016880D01*
X001763Y016873D01*
X001713Y016870D01*
X001662Y016871D01*
X001613Y016876D01*
X001563Y016885D01*
X001515Y016898D01*
X001468Y016914D01*
X001422Y016935D01*
X001378Y016959D01*
X001336Y016986D01*
X001296Y017016D01*
X001259Y017050D01*
X001225Y017087D01*
X001193Y017126D01*
X001165Y017167D01*
X001140Y017211D01*
X001119Y017256D01*
X001102Y017303D01*
X001088Y017351D01*
X001078Y017400D01*
X001072Y017450D01*
X001070Y017500D01*
D11*
X007970Y018330D02*
X008197Y018330D01*
X008083Y018330D02*
X008083Y018670D01*
X008197Y018557D01*
X008338Y018614D02*
X008338Y018387D01*
X008395Y018330D01*
X008508Y018330D01*
X008565Y018387D01*
X008338Y018614D01*
X008395Y018670D01*
X008508Y018670D01*
X008565Y018614D01*
X008565Y018387D01*
X008707Y018500D02*
X008933Y018500D01*
X009075Y018500D02*
X009245Y018500D01*
X009302Y018557D01*
X009302Y018614D01*
X009245Y018670D01*
X009132Y018670D01*
X009075Y018614D01*
X009075Y018387D01*
X009132Y018330D01*
X009245Y018330D01*
X009302Y018387D01*
X009443Y018387D02*
X009500Y018330D01*
X009613Y018330D01*
X009670Y018387D01*
X009443Y018614D01*
X009443Y018387D01*
X009443Y018614D02*
X009500Y018670D01*
X009613Y018670D01*
X009670Y018614D01*
X009670Y018387D01*
X009811Y018500D02*
X010038Y018500D01*
X010180Y018500D02*
X010407Y018500D01*
X010236Y018670D01*
X010236Y018330D01*
X010548Y018330D02*
X010775Y018330D01*
X010662Y018330D02*
X010662Y018670D01*
X010775Y018557D01*
X010916Y018614D02*
X010916Y018387D01*
X010973Y018330D01*
X011087Y018330D01*
X011143Y018387D01*
X010916Y018614D01*
X010973Y018670D01*
X011087Y018670D01*
X011143Y018614D01*
X011143Y018387D01*
X011285Y018330D02*
X011512Y018330D01*
X011285Y018557D01*
X011285Y018614D01*
X011341Y018670D01*
X011455Y018670D01*
X011512Y018614D01*
D12*
X014000Y017800D03*
X005600Y016600D03*
X003600Y017600D03*
X001350Y013500D03*
X004500Y005700D03*
X010500Y005700D03*
X011500Y005700D03*
D13*
X012500Y005700D03*
X013500Y005700D03*
X014500Y005700D03*
X015500Y005700D03*
X016500Y005700D03*
X017500Y005700D03*
X018500Y005700D03*
X009500Y005700D03*
X008500Y005700D03*
X007500Y005700D03*
X006500Y005700D03*
X005500Y005700D03*
X002350Y006500D03*
X001350Y006500D03*
X001350Y007500D03*
X001350Y008500D03*
X001350Y009500D03*
X001350Y010500D03*
X001350Y011500D03*
X002350Y011500D03*
X002350Y010500D03*
X002350Y009500D03*
X002350Y008500D03*
X002350Y007500D03*
X002350Y012500D03*
X002350Y013500D03*
X001350Y012500D03*
X003600Y016600D03*
X004600Y016600D03*
X004600Y017600D03*
X005600Y017600D03*
X013000Y017800D03*
D14*
X011640Y015050D03*
X010080Y015050D03*
X008520Y015050D03*
D15*
X006960Y015050D03*
D16*
X007216Y017400D03*
X009184Y017400D03*
D17*
X015820Y017000D03*
X015820Y018339D03*
X018694Y018457D03*
X015820Y014953D03*
X018694Y014559D03*
D18*
X004300Y014200D03*
X004300Y011200D03*
X004300Y010200D03*
X004300Y007200D03*
D19*
X005700Y007500D03*
X005700Y008500D03*
X005700Y009500D03*
X005700Y010500D03*
X005700Y011500D03*
X006700Y010500D03*
X006700Y009500D03*
X007700Y009500D03*
X007700Y010500D03*
X008700Y010500D03*
X008700Y009500D03*
X009700Y009500D03*
X009700Y010500D03*
X010700Y010500D03*
X010700Y009500D03*
X011700Y009500D03*
X011700Y010500D03*
X012700Y010500D03*
X012700Y009500D03*
X012700Y007500D03*
X011700Y007500D03*
X010700Y007500D03*
X009700Y007500D03*
X008700Y007500D03*
X007700Y007500D03*
X006700Y007500D03*
X005700Y012500D03*
X005700Y013500D03*
X006700Y013500D03*
X007700Y013500D03*
X008700Y013500D03*
X009700Y013500D03*
X010700Y013500D03*
X011700Y013500D03*
X012700Y013500D03*
X013700Y013500D03*
X014700Y013500D03*
X015700Y013500D03*
X016700Y013500D03*
X017700Y013500D03*
X018700Y013500D03*
X018700Y007500D03*
X017700Y007500D03*
X016700Y007500D03*
X015700Y007500D03*
X014700Y007500D03*
X013700Y007500D03*
D20*
X012950Y008500D03*
X013550Y009200D03*
X014400Y009400D03*
X015000Y008450D03*
X017200Y009400D03*
X017400Y008300D03*
X014000Y006100D03*
X011000Y008650D03*
X010200Y008200D03*
X009200Y008250D03*
X010000Y006300D03*
X013500Y010900D03*
X013310Y011690D03*
X012500Y011400D03*
X012200Y013050D03*
X010800Y011800D03*
X010000Y011400D03*
X009100Y011100D03*
X012500Y014700D03*
X013400Y015600D03*
X015300Y012900D03*
X015800Y012900D03*
X016600Y014200D03*
X016800Y014900D03*
X018300Y012500D03*
X014400Y012200D03*
X004300Y015100D03*
X003700Y011100D03*
X003700Y009800D03*
X003200Y009800D03*
X003200Y008600D03*
X003100Y007000D03*
X003700Y007000D03*
X003600Y005000D03*
D21*
X007400Y005700D02*
X007500Y005700D01*
X007500Y005300D01*
X007800Y005000D01*
X008800Y005000D01*
X009500Y005700D01*
X008500Y005700D02*
X008500Y006500D01*
X008300Y006800D01*
X008200Y007000D01*
X008200Y011000D01*
X007700Y011500D01*
X005700Y011500D01*
X005047Y011498D01*
X004579Y011984D01*
X004300Y012263D01*
X004300Y014200D01*
X004300Y015100D01*
X004600Y016600D02*
X004600Y017600D01*
X005100Y017100D01*
X006916Y017100D01*
X007216Y017400D01*
X007100Y017400D01*
X007000Y017300D01*
X007216Y017400D02*
X008520Y017096D01*
X008520Y015050D01*
X006960Y015050D01*
X005900Y017600D02*
X005600Y017600D01*
X005900Y017600D02*
X006200Y018100D01*
X010000Y018100D01*
X013400Y015600D01*
X013700Y017100D02*
X013000Y017800D01*
X013700Y017100D02*
X014000Y017100D01*
X015200Y017000D01*
X015820Y017000D01*
X015820Y014953D01*
X015820Y015320D01*
X016100Y015600D01*
X017700Y015600D01*
X017900Y015500D01*
X017900Y014100D01*
X018700Y013500D01*
X018700Y012900D02*
X019000Y012500D01*
X019000Y007800D01*
X018700Y007500D01*
X018200Y007000D02*
X018200Y008200D01*
X017300Y009100D01*
X017300Y009600D02*
X017300Y012100D01*
X018300Y012500D01*
X018700Y012900D02*
X017500Y012900D01*
X017200Y013200D01*
X017200Y014500D01*
X016800Y014900D01*
X016600Y014200D02*
X016200Y013900D01*
X016200Y012600D01*
X015700Y012000D01*
X015700Y009400D01*
X017224Y007876D01*
X017174Y006118D01*
X017500Y005792D01*
X017500Y005700D01*
X018500Y005700D02*
X018500Y006500D01*
X018300Y006700D01*
X018300Y006900D01*
X018200Y007000D01*
X005900Y010600D02*
X005800Y010600D01*
X005700Y010500D01*
X005200Y010500D01*
X005000Y010700D01*
X002550Y010700D01*
X002350Y010500D01*
X004600Y017600D02*
X004600Y017800D01*
D22*
X004550Y017798D02*
X004650Y017798D01*
X004650Y017896D02*
X004550Y017896D01*
X004550Y017995D02*
X004650Y017995D01*
X004650Y018070D02*
X004795Y018070D01*
X005070Y017795D01*
X005070Y017650D01*
X004650Y017650D01*
X004650Y017550D01*
X005070Y017550D01*
X005070Y017405D01*
X004795Y017130D01*
X004650Y017130D01*
X004650Y017550D01*
X004550Y017550D01*
X004550Y017130D01*
X004405Y017130D01*
X004130Y017405D01*
X004130Y017550D01*
X004550Y017550D01*
X004550Y017650D01*
X004550Y018070D01*
X004405Y018070D01*
X004130Y017795D01*
X004130Y017650D01*
X004550Y017650D01*
X004650Y017650D01*
X004650Y018070D01*
X004870Y017995D02*
X005302Y017995D01*
X005397Y018090D02*
X005110Y017803D01*
X005110Y017397D01*
X005397Y017110D01*
X005803Y017110D01*
X006090Y017397D01*
X006090Y017431D01*
X006099Y017445D01*
X006112Y017458D01*
X006124Y017487D01*
X006342Y017850D01*
X006848Y017850D01*
X006838Y017842D01*
X006773Y017778D01*
X006720Y017704D01*
X006678Y017623D01*
X006650Y017536D01*
X006636Y017448D01*
X007167Y017448D01*
X007167Y017352D01*
X006636Y017352D01*
X006650Y017264D01*
X006678Y017177D01*
X006720Y017096D01*
X006773Y017022D01*
X006838Y016958D01*
X006912Y016904D01*
X006993Y016862D01*
X007080Y016834D01*
X007167Y016820D01*
X007167Y017352D01*
X007264Y017352D01*
X007264Y017448D01*
X007795Y017448D01*
X007781Y017536D01*
X007753Y017623D01*
X007712Y017704D01*
X007658Y017778D01*
X007594Y017842D01*
X007583Y017850D01*
X008786Y017850D01*
X008676Y017740D01*
X008584Y017519D01*
X008584Y017281D01*
X008676Y017060D01*
X008844Y016891D01*
X009065Y016800D01*
X009304Y016800D01*
X009524Y016891D01*
X009693Y017060D01*
X009784Y017281D01*
X009784Y017519D01*
X009693Y017740D01*
X009583Y017850D01*
X009918Y017850D01*
X013032Y015560D01*
X013032Y015527D01*
X013088Y015391D01*
X013191Y015288D01*
X013327Y015232D01*
X013473Y015232D01*
X013609Y015288D01*
X013712Y015391D01*
X013768Y015527D01*
X013768Y015673D01*
X013712Y015809D01*
X013609Y015912D01*
X013473Y015968D01*
X013327Y015968D01*
X013323Y015967D01*
X010346Y018156D01*
X010392Y018203D01*
X010465Y018130D01*
X010858Y018130D01*
X010874Y018146D01*
X010890Y018130D01*
X011169Y018130D01*
X011186Y018146D01*
X011202Y018130D01*
X011594Y018130D01*
X011712Y018247D01*
X011712Y018413D01*
X011653Y018472D01*
X011712Y018531D01*
X011712Y018696D01*
X011658Y018750D01*
X015199Y018750D01*
X015089Y018484D01*
X015089Y018193D01*
X015200Y017924D01*
X015406Y017719D01*
X015551Y017658D01*
X015505Y017639D01*
X015424Y017592D01*
X015350Y017536D01*
X015284Y017470D01*
X015227Y017396D01*
X015181Y017315D01*
X015145Y017229D01*
X015121Y017139D01*
X015109Y017050D01*
X015770Y017050D01*
X015770Y016950D01*
X015870Y016950D01*
X015870Y017050D01*
X016530Y017050D01*
X016519Y017139D01*
X016494Y017229D01*
X016459Y017315D01*
X016412Y017396D01*
X016355Y017470D01*
X016290Y017536D01*
X016216Y017592D01*
X016135Y017639D01*
X016088Y017658D01*
X016234Y017719D01*
X016439Y017924D01*
X016551Y018193D01*
X016551Y018484D01*
X016441Y018750D01*
X017900Y018750D01*
X018021Y018742D01*
X017963Y018602D01*
X017963Y018311D01*
X018074Y018043D01*
X018280Y017837D01*
X018548Y017726D01*
X018839Y017726D01*
X019026Y017803D01*
X019040Y017750D01*
X019050Y017600D01*
X019050Y015203D01*
X018839Y015290D01*
X018548Y015290D01*
X018280Y015179D01*
X018074Y014973D01*
X017963Y014704D01*
X017963Y014414D01*
X018074Y014145D01*
X018280Y013939D01*
X018434Y013875D01*
X018400Y013851D01*
X018349Y013800D01*
X018307Y013741D01*
X018274Y013677D01*
X018251Y013608D01*
X018241Y013545D01*
X018655Y013545D01*
X018655Y013828D01*
X018745Y013828D01*
X018745Y013545D01*
X018655Y013545D01*
X018655Y013455D01*
X018241Y013455D01*
X018251Y013392D01*
X018274Y013323D01*
X018307Y013259D01*
X018349Y013200D01*
X018399Y013150D01*
X018029Y013150D01*
X018107Y013228D01*
X018180Y013405D01*
X018180Y013595D01*
X018107Y013772D01*
X017972Y013907D01*
X017795Y013980D01*
X017605Y013980D01*
X017450Y013916D01*
X017450Y014550D01*
X017412Y014642D01*
X017342Y014712D01*
X017342Y014712D01*
X017168Y014885D01*
X017168Y014973D01*
X017112Y015109D01*
X017009Y015212D01*
X016873Y015268D01*
X016727Y015268D01*
X016591Y015212D01*
X016509Y015129D01*
X016494Y015182D01*
X016459Y015268D01*
X016412Y015349D01*
X016355Y015423D01*
X016290Y015488D01*
X016216Y015545D01*
X016135Y015592D01*
X016049Y015627D01*
X015959Y015652D01*
X015870Y015663D01*
X015870Y015003D01*
X016444Y015003D01*
X016432Y014973D01*
X016432Y014903D01*
X015870Y014903D01*
X015870Y015003D01*
X015770Y015003D01*
X015770Y015663D01*
X015681Y015652D01*
X015591Y015627D01*
X015505Y015592D01*
X015424Y015545D01*
X015350Y015488D01*
X015284Y015423D01*
X015227Y015349D01*
X015181Y015268D01*
X015145Y015182D01*
X015121Y015092D01*
X015109Y015003D01*
X015770Y015003D01*
X015770Y014903D01*
X015870Y014903D01*
X015870Y014242D01*
X015959Y014254D01*
X016049Y014278D01*
X016135Y014314D01*
X016216Y014360D01*
X016290Y014417D01*
X016355Y014483D01*
X016412Y014557D01*
X016459Y014638D01*
X016484Y014700D01*
X016488Y014691D01*
X016591Y014588D01*
X016639Y014568D01*
X016527Y014568D01*
X016391Y014512D01*
X016288Y014409D01*
X016232Y014273D01*
X016232Y014236D01*
X016075Y014119D01*
X016058Y014112D01*
X016036Y014089D01*
X016010Y014070D01*
X016001Y014054D01*
X015988Y014042D01*
X015976Y014012D01*
X015960Y013985D01*
X015957Y013967D01*
X015950Y013950D01*
X015950Y013918D01*
X015950Y013916D01*
X015795Y013980D01*
X015605Y013980D01*
X015428Y013907D01*
X015293Y013772D01*
X015220Y013595D01*
X015220Y013405D01*
X015293Y013228D01*
X015428Y013093D01*
X015474Y013074D01*
X015432Y012973D01*
X015432Y012827D01*
X015450Y012783D01*
X015281Y012542D01*
X015230Y012491D01*
X015230Y012469D01*
X015218Y012452D01*
X015230Y012381D01*
X015230Y008006D01*
X015123Y007920D01*
X015109Y007920D01*
X015053Y007864D01*
X015032Y007847D01*
X014972Y007907D01*
X014795Y007980D01*
X014605Y007980D01*
X014428Y007907D01*
X014420Y007899D01*
X014420Y008309D01*
X015120Y009009D01*
X015120Y011723D01*
X015129Y011734D01*
X015120Y011812D01*
X015120Y011891D01*
X015110Y011901D01*
X015109Y011915D01*
X015047Y011964D01*
X014991Y012020D01*
X014977Y012020D01*
X014768Y012187D01*
X014768Y012273D01*
X014712Y012409D01*
X014609Y012512D01*
X014473Y012568D01*
X014327Y012568D01*
X014220Y012524D01*
X014220Y013091D01*
X014095Y013216D01*
X014107Y013228D01*
X014180Y013405D01*
X014180Y013595D01*
X014107Y013772D01*
X013972Y013907D01*
X013795Y013980D01*
X013605Y013980D01*
X013553Y013959D01*
X012868Y014643D01*
X012868Y014773D01*
X012812Y014909D01*
X012709Y015012D01*
X012573Y015068D01*
X012427Y015068D01*
X012327Y015027D01*
X012327Y015187D01*
X012222Y015439D01*
X012029Y015632D01*
X011777Y015737D01*
X011503Y015737D01*
X011251Y015632D01*
X011058Y015439D01*
X010953Y015187D01*
X010953Y014913D01*
X011058Y014661D01*
X011251Y014468D01*
X011503Y014363D01*
X011777Y014363D01*
X012029Y014468D01*
X012148Y014587D01*
X012188Y014491D01*
X012291Y014388D01*
X012427Y014332D01*
X012557Y014332D01*
X013241Y013647D01*
X013220Y013595D01*
X013220Y013405D01*
X013293Y013228D01*
X013428Y013093D01*
X013605Y013020D01*
X013669Y013020D01*
X013780Y012909D01*
X013780Y011535D01*
X013537Y011268D01*
X013427Y011268D01*
X013291Y011212D01*
X013188Y011109D01*
X013132Y010973D01*
X013132Y010827D01*
X013188Y010691D01*
X013291Y010588D01*
X013427Y010532D01*
X013573Y010532D01*
X013709Y010588D01*
X013812Y010691D01*
X013868Y010827D01*
X013868Y010973D01*
X013867Y010976D01*
X014159Y011298D01*
X014220Y011359D01*
X014220Y011365D01*
X014224Y011369D01*
X014220Y011455D01*
X014220Y011876D01*
X014327Y011832D01*
X014473Y011832D01*
X014496Y011841D01*
X014680Y011694D01*
X014680Y009191D01*
X014109Y008620D01*
X013980Y008491D01*
X013980Y007899D01*
X013972Y007907D01*
X013795Y007980D01*
X013605Y007980D01*
X013442Y007913D01*
X013473Y007962D01*
X013520Y008009D01*
X013520Y008037D01*
X013723Y008362D01*
X013770Y008409D01*
X013770Y008437D01*
X013785Y008461D01*
X013770Y008525D01*
X013770Y008899D01*
X013862Y008991D01*
X013918Y009127D01*
X013918Y009273D01*
X013862Y009409D01*
X013759Y009512D01*
X013623Y009568D01*
X013477Y009568D01*
X013341Y009512D01*
X013238Y009409D01*
X013182Y009273D01*
X013182Y009127D01*
X013238Y008991D01*
X013330Y008899D01*
X013330Y008563D01*
X013318Y008544D01*
X013318Y008573D01*
X013262Y008709D01*
X013159Y008812D01*
X013023Y008868D01*
X012877Y008868D01*
X012741Y008812D01*
X012649Y008720D01*
X011368Y008720D01*
X011368Y008723D01*
X011312Y008859D01*
X011209Y008962D01*
X011073Y009018D01*
X010927Y009018D01*
X010791Y008962D01*
X010688Y008859D01*
X010632Y008723D01*
X010632Y008577D01*
X010655Y008520D01*
X010436Y008520D01*
X010383Y008538D01*
X010367Y008529D01*
X010273Y008568D01*
X010127Y008568D01*
X010020Y008524D01*
X010020Y008690D01*
X010273Y008880D01*
X010291Y008880D01*
X010345Y008933D01*
X010405Y008979D01*
X010407Y008996D01*
X010420Y009009D01*
X010420Y009084D01*
X010422Y009099D01*
X010428Y009093D01*
X010605Y009020D01*
X010795Y009020D01*
X010972Y009093D01*
X011107Y009228D01*
X011180Y009405D01*
X011180Y009595D01*
X011107Y009772D01*
X011045Y009834D01*
X011291Y010080D01*
X011380Y010169D01*
X011400Y010149D01*
X011459Y010107D01*
X011523Y010074D01*
X011592Y010051D01*
X011655Y010041D01*
X011655Y010455D01*
X011420Y010455D01*
X011420Y010545D01*
X011655Y010545D01*
X011655Y010959D01*
X011592Y010949D01*
X011523Y010926D01*
X011459Y010893D01*
X011420Y010865D01*
X011420Y011009D01*
X012291Y011880D01*
X012420Y012009D01*
X012420Y012749D01*
X012512Y012841D01*
X012568Y012977D01*
X012568Y013035D01*
X012605Y013020D01*
X012795Y013020D01*
X012972Y013093D01*
X013107Y013228D01*
X013180Y013405D01*
X013180Y013595D01*
X013107Y013772D01*
X012972Y013907D01*
X012795Y013980D01*
X012605Y013980D01*
X012428Y013907D01*
X012293Y013772D01*
X012220Y013595D01*
X012220Y013418D01*
X012180Y013418D01*
X012180Y013595D01*
X012107Y013772D01*
X011972Y013907D01*
X011795Y013980D01*
X011605Y013980D01*
X011428Y013907D01*
X011293Y013772D01*
X011220Y013595D01*
X011220Y013405D01*
X011293Y013228D01*
X011428Y013093D01*
X011605Y013020D01*
X011795Y013020D01*
X011832Y013035D01*
X011832Y012977D01*
X011888Y012841D01*
X011980Y012749D01*
X011980Y012191D01*
X010980Y011191D01*
X010980Y010899D01*
X010972Y010907D01*
X010795Y010980D01*
X010605Y010980D01*
X010428Y010907D01*
X010293Y010772D01*
X010220Y010595D01*
X010220Y010405D01*
X010293Y010228D01*
X010305Y010216D01*
X010180Y010091D01*
X010109Y010020D01*
X009984Y009895D01*
X009972Y009907D01*
X009795Y009980D01*
X009605Y009980D01*
X009428Y009907D01*
X009420Y009899D01*
X009420Y010101D01*
X009428Y010093D01*
X009605Y010020D01*
X009795Y010020D01*
X009972Y010093D01*
X010107Y010228D01*
X010180Y010405D01*
X010180Y010595D01*
X010107Y010772D01*
X009972Y010907D01*
X009795Y010980D01*
X009791Y010980D01*
X009868Y011056D01*
X009927Y011032D01*
X010073Y011032D01*
X010209Y011088D01*
X010312Y011191D01*
X010368Y011327D01*
X010368Y011473D01*
X010312Y011609D01*
X010209Y011712D01*
X010073Y011768D01*
X009927Y011768D01*
X009791Y011712D01*
X009688Y011609D01*
X009632Y011473D01*
X009632Y011443D01*
X009437Y011248D01*
X009412Y011309D01*
X009309Y011412D01*
X009173Y011468D01*
X009027Y011468D01*
X008994Y011455D01*
X008920Y011510D01*
X008920Y013072D01*
X008972Y013093D01*
X009107Y013228D01*
X009180Y013405D01*
X009180Y013595D01*
X009107Y013772D01*
X008972Y013907D01*
X008795Y013980D01*
X008605Y013980D01*
X008428Y013907D01*
X008293Y013772D01*
X008220Y013595D01*
X008220Y013405D01*
X008293Y013228D01*
X008428Y013093D01*
X008480Y013072D01*
X008480Y011473D01*
X008469Y011459D01*
X008480Y011384D01*
X008480Y011309D01*
X008493Y011296D01*
X008495Y011279D01*
X008555Y011233D01*
X008609Y011180D01*
X008627Y011180D01*
X008732Y011101D01*
X008732Y011027D01*
X008751Y010980D01*
X008605Y010980D01*
X008450Y010916D01*
X008450Y011050D01*
X008412Y011142D01*
X007912Y011642D01*
X007842Y011712D01*
X007750Y011750D01*
X006116Y011750D01*
X006107Y011772D01*
X005972Y011907D01*
X005795Y011980D01*
X005605Y011980D01*
X005428Y011907D01*
X005293Y011772D01*
X005284Y011749D01*
X005153Y011749D01*
X004792Y012123D01*
X004791Y012125D01*
X004758Y012159D01*
X004725Y012193D01*
X004723Y012194D01*
X004550Y012367D01*
X004550Y013814D01*
X004750Y014014D01*
X004750Y014386D01*
X004550Y014586D01*
X004550Y014829D01*
X004612Y014891D01*
X004668Y015027D01*
X004668Y015173D01*
X004612Y015309D01*
X004509Y015412D01*
X004373Y015468D01*
X004227Y015468D01*
X004091Y015412D01*
X003988Y015309D01*
X003932Y015173D01*
X003932Y015027D01*
X003988Y014891D01*
X004050Y014829D01*
X004050Y014586D01*
X003850Y014386D01*
X003850Y014014D01*
X004050Y013814D01*
X004050Y012213D01*
X004088Y012121D01*
X004401Y011809D01*
X004835Y011359D01*
X004836Y011356D01*
X004869Y011323D01*
X004902Y011289D01*
X004904Y011288D01*
X004906Y011286D01*
X004950Y011268D01*
X004993Y011249D01*
X004996Y011249D01*
X004998Y011248D01*
X005045Y011248D01*
X005092Y011247D01*
X005095Y011248D01*
X005284Y011249D01*
X005293Y011228D01*
X005301Y011220D01*
X004750Y011220D01*
X004750Y011386D01*
X004486Y011650D01*
X004114Y011650D01*
X003920Y011456D01*
X003920Y013791D01*
X003791Y013920D01*
X003320Y014391D01*
X003320Y016187D01*
X003397Y016110D01*
X003803Y016110D01*
X004090Y016397D01*
X004090Y016803D01*
X003803Y017090D01*
X003701Y017090D01*
X003721Y017110D01*
X003990Y017110D01*
X004090Y017210D01*
X004090Y017990D01*
X003990Y018090D01*
X003210Y018090D01*
X003110Y017990D01*
X003110Y017210D01*
X003154Y017165D01*
X003009Y017020D01*
X002880Y016891D01*
X002880Y014209D01*
X003480Y013609D01*
X003480Y011401D01*
X003388Y011309D01*
X003332Y011173D01*
X003332Y011027D01*
X003388Y010891D01*
X003491Y010788D01*
X003627Y010732D01*
X003773Y010732D01*
X003909Y010788D01*
X003992Y010872D01*
X004114Y010750D01*
X004486Y010750D01*
X004516Y010780D01*
X005335Y010780D01*
X005307Y010741D01*
X005274Y010677D01*
X005251Y010608D01*
X005241Y010545D01*
X005655Y010545D01*
X005655Y010780D01*
X005745Y010780D01*
X005745Y010545D01*
X005980Y010545D01*
X005980Y010455D01*
X005745Y010455D01*
X005745Y010545D01*
X005655Y010545D01*
X005655Y010455D01*
X005745Y010455D01*
X005745Y010041D01*
X005808Y010051D01*
X005877Y010074D01*
X005941Y010107D01*
X005980Y010135D01*
X005980Y009899D01*
X005972Y009907D01*
X005795Y009980D01*
X005605Y009980D01*
X005428Y009907D01*
X005293Y009772D01*
X005220Y009595D01*
X005220Y009405D01*
X005293Y009228D01*
X005428Y009093D01*
X005605Y009020D01*
X005795Y009020D01*
X005972Y009093D01*
X005980Y009101D01*
X005980Y008899D01*
X005972Y008907D01*
X005795Y008980D01*
X005605Y008980D01*
X005428Y008907D01*
X005293Y008772D01*
X005272Y008720D01*
X004986Y008720D01*
X004018Y009607D01*
X004068Y009727D01*
X004068Y009795D01*
X004114Y009750D01*
X004486Y009750D01*
X004750Y010014D01*
X004750Y010386D01*
X004486Y010650D01*
X004114Y010650D01*
X003850Y010386D01*
X003850Y010136D01*
X003773Y010168D01*
X003627Y010168D01*
X003491Y010112D01*
X003450Y010071D01*
X003409Y010112D01*
X003273Y010168D01*
X003127Y010168D01*
X003068Y010144D01*
X002991Y010220D01*
X002735Y010220D01*
X002820Y010305D01*
X002820Y010450D01*
X002400Y010450D01*
X002400Y010550D01*
X002300Y010550D01*
X002300Y010970D01*
X002155Y010970D01*
X001880Y010695D01*
X001880Y010550D01*
X002300Y010550D01*
X002300Y010450D01*
X001880Y010450D01*
X001880Y010305D01*
X001965Y010220D01*
X001763Y010220D01*
X001840Y010297D01*
X001840Y010703D01*
X001553Y010990D01*
X001147Y010990D01*
X000860Y010703D01*
X000860Y010297D01*
X001147Y010010D01*
X001549Y010010D01*
X001529Y009990D01*
X001147Y009990D01*
X000860Y009703D01*
X000860Y009297D01*
X001147Y009010D01*
X001553Y009010D01*
X001840Y009297D01*
X001840Y009679D01*
X001860Y009699D01*
X001860Y009297D01*
X002147Y009010D01*
X002553Y009010D01*
X002840Y009297D01*
X002840Y009703D01*
X002763Y009780D01*
X002809Y009780D01*
X002832Y009757D01*
X002832Y009727D01*
X002888Y009591D01*
X002991Y009488D01*
X003127Y009432D01*
X003273Y009432D01*
X003409Y009488D01*
X003450Y009529D01*
X003491Y009488D01*
X003501Y009484D01*
X003548Y009441D01*
X003609Y009380D01*
X003614Y009380D01*
X004748Y008341D01*
X004809Y008280D01*
X004814Y008280D01*
X004819Y008276D01*
X004905Y008280D01*
X005272Y008280D01*
X005293Y008228D01*
X005428Y008093D01*
X005605Y008020D01*
X005795Y008020D01*
X005972Y008093D01*
X005980Y008101D01*
X005980Y007899D01*
X005972Y007907D01*
X005795Y007980D01*
X005605Y007980D01*
X005428Y007907D01*
X005293Y007772D01*
X005220Y007595D01*
X005220Y007405D01*
X005293Y007228D01*
X005428Y007093D01*
X005605Y007020D01*
X005795Y007020D01*
X005972Y007093D01*
X005980Y007101D01*
X005980Y006391D01*
X005909Y006320D01*
X005780Y006191D01*
X005780Y006113D01*
X005703Y006190D01*
X005700Y006190D01*
X004750Y007140D01*
X004750Y007386D01*
X004486Y007650D01*
X004114Y007650D01*
X003850Y007386D01*
X003850Y007336D01*
X003773Y007368D01*
X003627Y007368D01*
X003491Y007312D01*
X003400Y007221D01*
X003320Y007301D01*
X003320Y008251D01*
X003409Y008288D01*
X003512Y008391D01*
X003568Y008527D01*
X003568Y008673D01*
X003512Y008809D01*
X003409Y008912D01*
X003273Y008968D01*
X003127Y008968D01*
X002991Y008912D01*
X002888Y008809D01*
X002840Y008693D01*
X002840Y008703D01*
X002553Y008990D01*
X002147Y008990D01*
X001860Y008703D01*
X001860Y008297D01*
X002147Y008010D01*
X002553Y008010D01*
X002840Y008297D01*
X002840Y008507D01*
X002880Y008411D01*
X002880Y007301D01*
X002788Y007209D01*
X002732Y007073D01*
X002732Y006927D01*
X002788Y006791D01*
X002891Y006688D01*
X003027Y006632D01*
X003173Y006632D01*
X003309Y006688D01*
X003400Y006779D01*
X003480Y006699D01*
X003480Y005349D01*
X003391Y005312D01*
X003288Y005209D01*
X003232Y005073D01*
X003232Y004927D01*
X003288Y004791D01*
X003329Y004750D01*
X001600Y004750D01*
X001450Y004760D01*
X001160Y004838D01*
X000900Y004988D01*
X000688Y005200D01*
X000538Y005460D01*
X000460Y005750D01*
X000450Y005900D01*
X000450Y017600D01*
X000460Y017750D01*
X000538Y018040D01*
X000688Y018300D01*
X000900Y018512D01*
X001160Y018662D01*
X001450Y018740D01*
X001600Y018750D01*
X007883Y018750D01*
X007883Y018526D01*
X007770Y018413D01*
X007770Y018350D01*
X006218Y018350D01*
X006188Y018355D01*
X006169Y018350D01*
X006150Y018350D01*
X006121Y018338D01*
X006091Y018330D01*
X006076Y018319D01*
X006058Y018312D01*
X006036Y018290D01*
X006011Y018271D01*
X006001Y018255D01*
X005988Y018242D01*
X005976Y018213D01*
X005865Y018028D01*
X005803Y018090D01*
X005397Y018090D01*
X005203Y017896D02*
X004969Y017896D01*
X005067Y017798D02*
X005110Y017798D01*
X005110Y017699D02*
X005070Y017699D01*
X005110Y017601D02*
X004650Y017601D01*
X004650Y017699D02*
X004550Y017699D01*
X004550Y017601D02*
X004090Y017601D01*
X004090Y017699D02*
X004130Y017699D01*
X004133Y017798D02*
X004090Y017798D01*
X004090Y017896D02*
X004231Y017896D01*
X004330Y017995D02*
X004086Y017995D01*
X004090Y017502D02*
X004130Y017502D01*
X004132Y017404D02*
X004090Y017404D01*
X004090Y017305D02*
X004230Y017305D01*
X004329Y017207D02*
X004087Y017207D01*
X003883Y017010D02*
X004345Y017010D01*
X004405Y017070D02*
X004130Y016795D01*
X004130Y016650D01*
X004550Y016650D01*
X004550Y017070D01*
X004405Y017070D01*
X004550Y017010D02*
X004650Y017010D01*
X004650Y017070D02*
X004795Y017070D01*
X005070Y016795D01*
X005070Y016650D01*
X004650Y016650D01*
X004650Y016550D01*
X005070Y016550D01*
X005070Y016405D01*
X004795Y016130D01*
X004650Y016130D01*
X004650Y016550D01*
X004550Y016550D01*
X004550Y016130D01*
X004405Y016130D01*
X004130Y016405D01*
X004130Y016550D01*
X004550Y016550D01*
X004550Y016650D01*
X004650Y016650D01*
X004650Y017070D01*
X004650Y017207D02*
X004550Y017207D01*
X004550Y017305D02*
X004650Y017305D01*
X004650Y017404D02*
X004550Y017404D01*
X004550Y017502D02*
X004650Y017502D01*
X004970Y017305D02*
X005202Y017305D01*
X005110Y017404D02*
X005068Y017404D01*
X005070Y017502D02*
X005110Y017502D01*
X005301Y017207D02*
X004871Y017207D01*
X004855Y017010D02*
X005129Y017010D01*
X005110Y016990D02*
X005110Y016210D01*
X005210Y016110D01*
X005380Y016110D01*
X005380Y014467D01*
X005366Y014446D01*
X005380Y014378D01*
X005380Y014309D01*
X005397Y014292D01*
X005402Y014267D01*
X005460Y014229D01*
X005509Y014180D01*
X005533Y014180D01*
X005896Y013939D01*
X005795Y013980D01*
X005605Y013980D01*
X005428Y013907D01*
X005293Y013772D01*
X005220Y013595D01*
X005220Y013405D01*
X005293Y013228D01*
X005428Y013093D01*
X005605Y013020D01*
X005795Y013020D01*
X005972Y013093D01*
X005980Y013101D01*
X005980Y013018D01*
X005874Y012947D01*
X005795Y012980D01*
X005605Y012980D01*
X005428Y012907D01*
X005293Y012772D01*
X005220Y012595D01*
X005220Y012405D01*
X005293Y012228D01*
X005428Y012093D01*
X005605Y012020D01*
X005795Y012020D01*
X005972Y012093D01*
X006107Y012228D01*
X006180Y012405D01*
X006180Y012595D01*
X006171Y012616D01*
X006267Y012680D01*
X006291Y012680D01*
X006340Y012729D01*
X006398Y012767D01*
X006403Y012792D01*
X006420Y012809D01*
X006420Y012878D01*
X006434Y012946D01*
X006420Y012967D01*
X006420Y013101D01*
X006428Y013093D01*
X006605Y013020D01*
X006795Y013020D01*
X006972Y013093D01*
X007107Y013228D01*
X007180Y013405D01*
X007180Y013595D01*
X007107Y013772D01*
X006972Y013907D01*
X006795Y013980D01*
X006605Y013980D01*
X006428Y013907D01*
X006420Y013899D01*
X006420Y013933D01*
X006434Y013954D01*
X006420Y014022D01*
X006420Y014091D01*
X006403Y014108D01*
X006398Y014133D01*
X006340Y014171D01*
X006291Y014220D01*
X006267Y014220D01*
X005820Y014518D01*
X005820Y016110D01*
X005990Y016110D01*
X006090Y016210D01*
X006090Y016990D01*
X005990Y017090D01*
X005210Y017090D01*
X005110Y016990D01*
X005110Y016911D02*
X004954Y016911D01*
X005052Y016813D02*
X005110Y016813D01*
X005110Y016714D02*
X005070Y016714D01*
X005110Y016616D02*
X004650Y016616D01*
X004650Y016714D02*
X004550Y016714D01*
X004550Y016616D02*
X004090Y016616D01*
X004090Y016714D02*
X004130Y016714D01*
X004148Y016813D02*
X004080Y016813D01*
X003982Y016911D02*
X004246Y016911D01*
X004550Y016911D02*
X004650Y016911D01*
X004650Y016813D02*
X004550Y016813D01*
X004550Y016517D02*
X004650Y016517D01*
X004650Y016419D02*
X004550Y016419D01*
X004550Y016320D02*
X004650Y016320D01*
X004650Y016222D02*
X004550Y016222D01*
X004314Y016222D02*
X003914Y016222D01*
X003816Y016123D02*
X005197Y016123D01*
X005110Y016222D02*
X004886Y016222D01*
X004985Y016320D02*
X005110Y016320D01*
X005110Y016419D02*
X005070Y016419D01*
X005070Y016517D02*
X005110Y016517D01*
X005600Y016600D02*
X005600Y014400D01*
X006200Y014000D01*
X006200Y012900D01*
X005600Y012500D01*
X005700Y012500D01*
X005253Y012676D02*
X004550Y012676D01*
X004550Y012774D02*
X005295Y012774D01*
X005394Y012873D02*
X004550Y012873D01*
X004550Y012971D02*
X005583Y012971D01*
X005485Y013070D02*
X004550Y013070D01*
X004550Y013168D02*
X005353Y013168D01*
X005277Y013267D02*
X004550Y013267D01*
X004550Y013365D02*
X005236Y013365D01*
X005220Y013464D02*
X004550Y013464D01*
X004550Y013562D02*
X005220Y013562D01*
X005247Y013661D02*
X004550Y013661D01*
X004550Y013759D02*
X005288Y013759D01*
X005379Y013858D02*
X004594Y013858D01*
X004692Y013956D02*
X005547Y013956D01*
X005574Y014153D02*
X004750Y014153D01*
X004750Y014055D02*
X005722Y014055D01*
X005853Y013956D02*
X005869Y013956D01*
X006072Y014350D02*
X012383Y014350D01*
X012231Y014449D02*
X011982Y014449D01*
X012108Y014547D02*
X012165Y014547D01*
X012500Y014700D02*
X013700Y013500D01*
X013700Y013300D01*
X014000Y013000D01*
X014000Y011450D01*
X013500Y010900D01*
X013868Y010903D02*
X014680Y010903D01*
X014680Y011001D02*
X013889Y011001D01*
X013979Y011100D02*
X014680Y011100D01*
X014680Y011198D02*
X014068Y011198D01*
X014158Y011297D02*
X014680Y011297D01*
X014680Y011395D02*
X014223Y011395D01*
X014220Y011494D02*
X014680Y011494D01*
X014680Y011592D02*
X014220Y011592D01*
X014220Y011691D02*
X014680Y011691D01*
X014562Y011789D02*
X014220Y011789D01*
X013780Y011789D02*
X013667Y011789D01*
X013678Y011763D02*
X013622Y011899D01*
X013518Y012002D01*
X013383Y012058D01*
X013237Y012058D01*
X013101Y012002D01*
X012998Y011899D01*
X012942Y011763D01*
X012942Y011751D01*
X012729Y011692D01*
X012709Y011712D01*
X012573Y011768D01*
X012427Y011768D01*
X012291Y011712D01*
X012188Y011609D01*
X012132Y011473D01*
X012132Y011327D01*
X012188Y011191D01*
X012291Y011088D01*
X012427Y011032D01*
X012573Y011032D01*
X012709Y011088D01*
X012812Y011191D01*
X012843Y011267D01*
X013158Y011355D01*
X013237Y011322D01*
X013383Y011322D01*
X013518Y011378D01*
X013622Y011482D01*
X013678Y011617D01*
X013678Y011763D01*
X013678Y011691D02*
X013780Y011691D01*
X013780Y011592D02*
X013668Y011592D01*
X013627Y011494D02*
X013742Y011494D01*
X013653Y011395D02*
X013535Y011395D01*
X013563Y011297D02*
X012949Y011297D01*
X012815Y011198D02*
X013277Y011198D01*
X013184Y011100D02*
X012720Y011100D01*
X012795Y010980D02*
X012605Y010980D01*
X012428Y010907D01*
X012293Y010772D01*
X012220Y010595D01*
X012220Y010405D01*
X012293Y010228D01*
X012428Y010093D01*
X012605Y010020D01*
X012795Y010020D01*
X012972Y010093D01*
X013107Y010228D01*
X013180Y010405D01*
X013180Y010595D01*
X013107Y010772D01*
X012972Y010907D01*
X012795Y010980D01*
X012976Y010903D02*
X013132Y010903D01*
X013143Y011001D02*
X011420Y011001D01*
X011420Y010903D02*
X011477Y010903D01*
X011655Y010903D02*
X011745Y010903D01*
X011745Y010959D02*
X011808Y010949D01*
X011877Y010926D01*
X011941Y010893D01*
X012000Y010851D01*
X012051Y010800D01*
X012093Y010741D01*
X012126Y010677D01*
X012149Y010608D01*
X012159Y010545D01*
X011745Y010545D01*
X011655Y010545D01*
X011655Y010455D01*
X011745Y010455D01*
X011745Y010545D01*
X011745Y010959D01*
X011745Y010804D02*
X011655Y010804D01*
X011655Y010706D02*
X011745Y010706D01*
X011745Y010607D02*
X011655Y010607D01*
X011655Y010509D02*
X011420Y010509D01*
X011655Y010410D02*
X011745Y010410D01*
X011745Y010455D02*
X011745Y010041D01*
X011808Y010051D01*
X011877Y010074D01*
X011941Y010107D01*
X012000Y010149D01*
X012051Y010200D01*
X012093Y010259D01*
X012126Y010323D01*
X012149Y010392D01*
X012159Y010455D01*
X011745Y010455D01*
X011745Y010509D02*
X012220Y010509D01*
X012225Y010607D02*
X012149Y010607D01*
X012112Y010706D02*
X012266Y010706D01*
X012325Y010804D02*
X012047Y010804D01*
X011923Y010903D02*
X012424Y010903D01*
X012280Y011100D02*
X011511Y011100D01*
X011609Y011198D02*
X012185Y011198D01*
X012144Y011297D02*
X011708Y011297D01*
X011806Y011395D02*
X012132Y011395D01*
X012140Y011494D02*
X011905Y011494D01*
X012003Y011592D02*
X012181Y011592D01*
X012102Y011691D02*
X012270Y011691D01*
X012200Y011789D02*
X012952Y011789D01*
X012993Y011888D02*
X012299Y011888D01*
X012397Y011986D02*
X013085Y011986D01*
X013310Y011690D02*
X013220Y011600D01*
X012500Y011400D01*
X012420Y012085D02*
X013780Y012085D01*
X013780Y012183D02*
X012420Y012183D01*
X012420Y012282D02*
X013780Y012282D01*
X013780Y012380D02*
X012420Y012380D01*
X012420Y012479D02*
X013780Y012479D01*
X013780Y012577D02*
X012420Y012577D01*
X012420Y012676D02*
X013780Y012676D01*
X013780Y012774D02*
X012445Y012774D01*
X012525Y012873D02*
X013780Y012873D01*
X013718Y012971D02*
X012566Y012971D01*
X012915Y013070D02*
X013485Y013070D01*
X013353Y013168D02*
X013047Y013168D01*
X013123Y013267D02*
X013277Y013267D01*
X013236Y013365D02*
X013164Y013365D01*
X013180Y013464D02*
X013220Y013464D01*
X013220Y013562D02*
X013180Y013562D01*
X013153Y013661D02*
X013228Y013661D01*
X013130Y013759D02*
X013112Y013759D01*
X013031Y013858D02*
X013021Y013858D01*
X012933Y013956D02*
X012853Y013956D01*
X012834Y014055D02*
X006420Y014055D01*
X006433Y013956D02*
X006547Y013956D01*
X006367Y014153D02*
X012736Y014153D01*
X012637Y014252D02*
X006219Y014252D01*
X006351Y014413D02*
X006385Y014393D01*
X006424Y014383D01*
X006910Y014383D01*
X006910Y015000D01*
X007010Y015000D01*
X007010Y015100D01*
X007627Y015100D01*
X007627Y015586D01*
X007617Y015625D01*
X007597Y015659D01*
X007569Y015687D01*
X007535Y015707D01*
X007496Y015717D01*
X007010Y015717D01*
X007010Y015100D01*
X006910Y015100D01*
X006910Y015717D01*
X006424Y015717D01*
X006385Y015707D01*
X006351Y015687D01*
X006323Y015659D01*
X006303Y015625D01*
X006293Y015586D01*
X006293Y015100D01*
X006910Y015100D01*
X006910Y015000D01*
X006293Y015000D01*
X006293Y014514D01*
X006303Y014475D01*
X006323Y014441D01*
X006351Y014413D01*
X006319Y014449D02*
X005924Y014449D01*
X005820Y014547D02*
X006293Y014547D01*
X006293Y014646D02*
X005820Y014646D01*
X005820Y014744D02*
X006293Y014744D01*
X006293Y014843D02*
X005820Y014843D01*
X005820Y014941D02*
X006293Y014941D01*
X006293Y015138D02*
X005820Y015138D01*
X005820Y015040D02*
X006910Y015040D01*
X006910Y015138D02*
X007010Y015138D01*
X007010Y015040D02*
X008470Y015040D01*
X008470Y015000D02*
X007854Y015000D01*
X007865Y014920D01*
X007887Y014835D01*
X007921Y014754D01*
X007964Y014679D01*
X008018Y014609D01*
X008079Y014548D01*
X008149Y014494D01*
X008224Y014451D01*
X008305Y014417D01*
X008390Y014395D01*
X008470Y014384D01*
X008470Y015000D01*
X008570Y015000D01*
X008570Y015100D01*
X009186Y015100D01*
X009175Y015180D01*
X009153Y015265D01*
X009119Y015346D01*
X009076Y015421D01*
X009022Y015491D01*
X008961Y015552D01*
X008891Y015606D01*
X008816Y015649D01*
X008735Y015683D01*
X008650Y015705D01*
X008570Y015716D01*
X008570Y015100D01*
X008470Y015100D01*
X008470Y015716D01*
X008390Y015705D01*
X008305Y015683D01*
X008224Y015649D01*
X008149Y015606D01*
X008079Y015552D01*
X008018Y015491D01*
X007964Y015421D01*
X007921Y015346D01*
X007887Y015265D01*
X007865Y015180D01*
X007854Y015100D01*
X008470Y015100D01*
X008470Y015000D01*
X008470Y014941D02*
X008570Y014941D01*
X008570Y015000D02*
X008570Y014384D01*
X008650Y014395D01*
X008735Y014417D01*
X008816Y014451D01*
X008891Y014494D01*
X008961Y014548D01*
X009022Y014609D01*
X009076Y014679D01*
X009119Y014754D01*
X009153Y014835D01*
X009175Y014920D01*
X009186Y015000D01*
X008570Y015000D01*
X008570Y015040D02*
X009393Y015040D01*
X009393Y015138D02*
X009181Y015138D01*
X009160Y015237D02*
X009414Y015237D01*
X009393Y015187D02*
X009393Y014913D01*
X009498Y014661D01*
X009691Y014468D01*
X009943Y014363D01*
X010217Y014363D01*
X010469Y014468D01*
X010662Y014661D01*
X010767Y014913D01*
X010767Y015187D01*
X010662Y015439D01*
X010469Y015632D01*
X010217Y015737D01*
X009943Y015737D01*
X009691Y015632D01*
X009498Y015439D01*
X009393Y015187D01*
X009455Y015335D02*
X009124Y015335D01*
X009066Y015434D02*
X009496Y015434D01*
X009591Y015532D02*
X008981Y015532D01*
X008848Y015631D02*
X009689Y015631D01*
X009925Y015729D02*
X005820Y015729D01*
X005820Y015631D02*
X006307Y015631D01*
X006293Y015532D02*
X005820Y015532D01*
X005820Y015434D02*
X006293Y015434D01*
X006293Y015335D02*
X005820Y015335D01*
X005820Y015237D02*
X006293Y015237D01*
X006910Y015237D02*
X007010Y015237D01*
X007010Y015335D02*
X006910Y015335D01*
X006910Y015434D02*
X007010Y015434D01*
X007010Y015532D02*
X006910Y015532D01*
X006910Y015631D02*
X007010Y015631D01*
X007613Y015631D02*
X008192Y015631D01*
X008059Y015532D02*
X007627Y015532D01*
X007627Y015434D02*
X007974Y015434D01*
X007916Y015335D02*
X007627Y015335D01*
X007627Y015237D02*
X007880Y015237D01*
X007859Y015138D02*
X007627Y015138D01*
X007627Y015000D02*
X007010Y015000D01*
X007010Y014383D01*
X007496Y014383D01*
X007535Y014393D01*
X007569Y014413D01*
X007597Y014441D01*
X007617Y014475D01*
X007627Y014514D01*
X007627Y015000D01*
X007627Y014941D02*
X007862Y014941D01*
X007885Y014843D02*
X007627Y014843D01*
X007627Y014744D02*
X007927Y014744D01*
X007990Y014646D02*
X007627Y014646D01*
X007627Y014547D02*
X008080Y014547D01*
X008230Y014449D02*
X007601Y014449D01*
X007605Y013980D02*
X007428Y013907D01*
X007293Y013772D01*
X007220Y013595D01*
X007220Y013405D01*
X007293Y013228D01*
X007428Y013093D01*
X007605Y013020D01*
X007795Y013020D01*
X007972Y013093D01*
X008107Y013228D01*
X008180Y013405D01*
X008180Y013595D01*
X008107Y013772D01*
X007972Y013907D01*
X007795Y013980D01*
X007605Y013980D01*
X007547Y013956D02*
X006853Y013956D01*
X007021Y013858D02*
X007379Y013858D01*
X007288Y013759D02*
X007112Y013759D01*
X007153Y013661D02*
X007247Y013661D01*
X007220Y013562D02*
X007180Y013562D01*
X007180Y013464D02*
X007220Y013464D01*
X007236Y013365D02*
X007164Y013365D01*
X007123Y013267D02*
X007277Y013267D01*
X007353Y013168D02*
X007047Y013168D01*
X006915Y013070D02*
X007485Y013070D01*
X007915Y013070D02*
X008480Y013070D01*
X008480Y012971D02*
X006420Y012971D01*
X006420Y012873D02*
X008480Y012873D01*
X008480Y012774D02*
X006399Y012774D01*
X006260Y012676D02*
X008480Y012676D01*
X008480Y012577D02*
X006180Y012577D01*
X006180Y012479D02*
X008480Y012479D01*
X008480Y012380D02*
X006170Y012380D01*
X006129Y012282D02*
X008480Y012282D01*
X008480Y012183D02*
X006062Y012183D01*
X005951Y012085D02*
X008480Y012085D01*
X008480Y011986D02*
X004924Y011986D01*
X004829Y012085D02*
X005449Y012085D01*
X005338Y012183D02*
X004735Y012183D01*
X004635Y012282D02*
X005271Y012282D01*
X005230Y012380D02*
X004550Y012380D01*
X004550Y012479D02*
X005220Y012479D01*
X005220Y012577D02*
X004550Y012577D01*
X004050Y012577D02*
X003920Y012577D01*
X003920Y012479D02*
X004050Y012479D01*
X004050Y012380D02*
X003920Y012380D01*
X003920Y012282D02*
X004050Y012282D01*
X004063Y012183D02*
X003920Y012183D01*
X003920Y012085D02*
X004125Y012085D01*
X004224Y011986D02*
X003920Y011986D01*
X003920Y011888D02*
X004322Y011888D01*
X004420Y011789D02*
X003920Y011789D01*
X003920Y011691D02*
X004515Y011691D01*
X004544Y011592D02*
X004610Y011592D01*
X004643Y011494D02*
X004705Y011494D01*
X004741Y011395D02*
X004800Y011395D01*
X004750Y011297D02*
X004894Y011297D01*
X004600Y011000D02*
X005900Y011000D01*
X006200Y010700D01*
X006200Y006300D01*
X006000Y006100D01*
X006000Y005400D01*
X005800Y005200D01*
X004700Y005200D01*
X004400Y005500D01*
X004400Y005600D01*
X004500Y005700D01*
X004990Y005682D02*
X005010Y005682D01*
X005010Y005584D02*
X004990Y005584D01*
X005010Y005497D02*
X005087Y005420D01*
X004990Y005420D01*
X004990Y006090D01*
X004890Y006190D01*
X004110Y006190D01*
X004010Y006090D01*
X004010Y005310D01*
X004110Y005210D01*
X004379Y005210D01*
X004609Y004980D01*
X005891Y004980D01*
X006020Y005109D01*
X006209Y005298D01*
X006297Y005210D01*
X006703Y005210D01*
X006990Y005497D01*
X006990Y005903D01*
X006703Y006190D01*
X006401Y006190D01*
X006420Y006209D01*
X006420Y007101D01*
X006428Y007093D01*
X006605Y007020D01*
X006795Y007020D01*
X006972Y007093D01*
X007107Y007228D01*
X007180Y007405D01*
X007180Y007595D01*
X007107Y007772D01*
X006972Y007907D01*
X006795Y007980D01*
X006605Y007980D01*
X006428Y007907D01*
X006420Y007899D01*
X006420Y009101D01*
X006428Y009093D01*
X006605Y009020D01*
X006795Y009020D01*
X006972Y009093D01*
X007107Y009228D01*
X007180Y009405D01*
X007180Y009595D01*
X007107Y009772D01*
X006972Y009907D01*
X006795Y009980D01*
X006605Y009980D01*
X006428Y009907D01*
X006420Y009899D01*
X006420Y010101D01*
X006428Y010093D01*
X006605Y010020D01*
X006795Y010020D01*
X006972Y010093D01*
X007107Y010228D01*
X007180Y010405D01*
X007180Y010595D01*
X007107Y010772D01*
X006972Y010907D01*
X006795Y010980D01*
X006605Y010980D01*
X006428Y010907D01*
X006366Y010845D01*
X006291Y010920D01*
X006045Y011166D01*
X006107Y011228D01*
X006116Y011250D01*
X007596Y011250D01*
X007917Y010930D01*
X007795Y010980D01*
X007605Y010980D01*
X007428Y010907D01*
X007293Y010772D01*
X007220Y010595D01*
X007220Y010405D01*
X007293Y010228D01*
X007428Y010093D01*
X007605Y010020D01*
X007795Y010020D01*
X007950Y010084D01*
X007950Y009916D01*
X007795Y009980D01*
X007605Y009980D01*
X007428Y009907D01*
X007293Y009772D01*
X007220Y009595D01*
X007220Y009405D01*
X007293Y009228D01*
X007428Y009093D01*
X007605Y009020D01*
X007795Y009020D01*
X007950Y009084D01*
X007950Y007916D01*
X007795Y007980D01*
X007605Y007980D01*
X007428Y007907D01*
X007293Y007772D01*
X007220Y007595D01*
X007220Y007405D01*
X007293Y007228D01*
X007428Y007093D01*
X007605Y007020D01*
X007795Y007020D01*
X007950Y007084D01*
X007950Y007041D01*
X007947Y007032D01*
X007950Y006991D01*
X007950Y006950D01*
X007954Y006942D01*
X007954Y006933D01*
X007972Y006896D01*
X007988Y006858D01*
X007995Y006852D01*
X008061Y006718D01*
X008064Y006703D01*
X008083Y006674D01*
X008099Y006644D01*
X008111Y006633D01*
X008250Y006424D01*
X008250Y006143D01*
X008010Y005903D01*
X008010Y005497D01*
X008297Y005210D01*
X008703Y005210D01*
X008990Y005497D01*
X008990Y005903D01*
X008750Y006143D01*
X008750Y006475D01*
X008755Y006500D01*
X008750Y006524D01*
X008750Y006550D01*
X008740Y006573D01*
X008736Y006597D01*
X008722Y006618D01*
X008712Y006642D01*
X008694Y006659D01*
X008517Y006926D01*
X008450Y007059D01*
X008450Y007084D01*
X008605Y007020D01*
X008795Y007020D01*
X008972Y007093D01*
X009107Y007228D01*
X009180Y007405D01*
X009180Y007595D01*
X009107Y007772D01*
X008972Y007907D01*
X008795Y007980D01*
X008605Y007980D01*
X008450Y007916D01*
X008450Y009084D01*
X008605Y009020D01*
X008795Y009020D01*
X008972Y009093D01*
X008980Y009101D01*
X008980Y008551D01*
X008888Y008459D01*
X008832Y008323D01*
X008832Y008177D01*
X008888Y008041D01*
X008991Y007938D01*
X009127Y007882D01*
X009273Y007882D01*
X009409Y007938D01*
X009512Y008041D01*
X009568Y008177D01*
X009568Y008323D01*
X009512Y008459D01*
X009420Y008551D01*
X009420Y009101D01*
X009428Y009093D01*
X009605Y009020D01*
X009727Y009020D01*
X009727Y009020D01*
X009709Y009020D01*
X009655Y008967D01*
X009595Y008921D01*
X009593Y008904D01*
X009580Y008891D01*
X009580Y008816D01*
X009569Y008741D01*
X009580Y008727D01*
X009580Y008123D01*
X009569Y008109D01*
X009580Y008034D01*
X009580Y007970D01*
X009428Y007907D01*
X009293Y007772D01*
X009220Y007595D01*
X009220Y007405D01*
X009293Y007228D01*
X009428Y007093D01*
X009605Y007020D01*
X009795Y007020D01*
X009945Y007082D01*
X009819Y006830D01*
X009780Y006791D01*
X009780Y006752D01*
X009762Y006717D01*
X009780Y006664D01*
X009780Y006601D01*
X009688Y006509D01*
X009632Y006373D01*
X009632Y006227D01*
X009655Y006170D01*
X009550Y006170D01*
X009550Y005750D01*
X009970Y005750D01*
X009970Y005895D01*
X009933Y005932D01*
X010010Y005932D01*
X010010Y005310D01*
X010110Y005210D01*
X010890Y005210D01*
X010990Y005310D01*
X010990Y006090D01*
X010890Y006190D01*
X010353Y006190D01*
X010368Y006227D01*
X010368Y006373D01*
X010312Y006509D01*
X010220Y006601D01*
X010220Y006648D01*
X010381Y006970D01*
X010420Y007009D01*
X010420Y007048D01*
X010438Y007083D01*
X010435Y007090D01*
X010605Y007020D01*
X010795Y007020D01*
X010972Y007093D01*
X011107Y007228D01*
X011180Y007405D01*
X011180Y007595D01*
X011107Y007772D01*
X010972Y007907D01*
X010795Y007980D01*
X010605Y007980D01*
X010428Y007907D01*
X010398Y007877D01*
X010392Y007881D01*
X010409Y007888D01*
X010512Y007991D01*
X010549Y008080D01*
X012509Y008080D01*
X012580Y008009D01*
X012609Y007980D01*
X012605Y007980D01*
X012428Y007907D01*
X012293Y007772D01*
X012220Y007595D01*
X012220Y007405D01*
X012293Y007228D01*
X012428Y007093D01*
X012605Y007020D01*
X012795Y007020D01*
X012972Y007093D01*
X013107Y007228D01*
X013180Y007405D01*
X013180Y007595D01*
X013107Y007772D01*
X012999Y007880D01*
X013237Y007880D01*
X013261Y007865D01*
X013325Y007880D01*
X013391Y007880D01*
X013411Y007900D01*
X013424Y007903D01*
X013293Y007772D01*
X013220Y007595D01*
X013220Y007405D01*
X013293Y007228D01*
X013428Y007093D01*
X013605Y007020D01*
X013609Y007020D01*
X012741Y006152D01*
X012703Y006190D01*
X012297Y006190D01*
X012010Y005903D01*
X012010Y005497D01*
X012297Y005210D01*
X012703Y005210D01*
X012990Y005497D01*
X012990Y005762D01*
X012998Y005767D01*
X013003Y005792D01*
X013010Y005799D01*
X013010Y005497D01*
X013297Y005210D01*
X013703Y005210D01*
X013990Y005497D01*
X013990Y005732D01*
X014010Y005732D01*
X014010Y005497D01*
X014297Y005210D01*
X014703Y005210D01*
X014990Y005497D01*
X014990Y005903D01*
X014703Y006190D01*
X014452Y006190D01*
X015280Y006880D01*
X015291Y006880D01*
X015349Y006937D01*
X015411Y006989D01*
X015412Y007001D01*
X015420Y007009D01*
X015420Y007090D01*
X015421Y007100D01*
X015428Y007093D01*
X015605Y007020D01*
X015795Y007020D01*
X015972Y007093D01*
X016107Y007228D01*
X016180Y007405D01*
X016180Y007595D01*
X016107Y007772D01*
X015972Y007907D01*
X015795Y007980D01*
X015670Y007980D01*
X015670Y009076D01*
X016766Y007980D01*
X016605Y007980D01*
X016428Y007907D01*
X016293Y007772D01*
X016220Y007595D01*
X016220Y007405D01*
X016293Y007228D01*
X016428Y007093D01*
X016605Y007020D01*
X016795Y007020D01*
X016951Y007085D01*
X016925Y006171D01*
X016924Y006168D01*
X016924Y006122D01*
X016923Y006075D01*
X016924Y006072D01*
X016924Y006068D01*
X016942Y006026D01*
X016958Y005982D01*
X016961Y005980D01*
X016962Y005976D01*
X016995Y005944D01*
X017022Y005915D01*
X017010Y005903D01*
X017010Y005497D01*
X017297Y005210D01*
X017703Y005210D01*
X017990Y005497D01*
X017990Y005903D01*
X017703Y006190D01*
X017456Y006190D01*
X017427Y006219D01*
X017452Y007083D01*
X017605Y007020D01*
X017795Y007020D01*
X017972Y007093D01*
X018107Y007228D01*
X018180Y007405D01*
X018180Y007595D01*
X018107Y007772D01*
X017972Y007907D01*
X017795Y007980D01*
X017605Y007980D01*
X017474Y007926D01*
X017456Y007968D01*
X017440Y008012D01*
X017437Y008014D01*
X017436Y008018D01*
X017403Y008050D01*
X017372Y008084D01*
X017368Y008085D01*
X015950Y009504D01*
X015950Y011909D01*
X016385Y012431D01*
X016412Y012458D01*
X016416Y012469D01*
X016424Y012478D01*
X016435Y012515D01*
X016450Y012550D01*
X016450Y012562D01*
X016453Y012573D01*
X016450Y012611D01*
X016450Y013084D01*
X016605Y013020D01*
X016795Y013020D01*
X016972Y013093D01*
X016973Y013094D01*
X016988Y013058D01*
X017288Y012758D01*
X017358Y012688D01*
X017450Y012650D01*
X018575Y012650D01*
X018750Y012417D01*
X018750Y007980D01*
X018605Y007980D01*
X018428Y007907D01*
X018293Y007772D01*
X018220Y007595D01*
X018220Y007405D01*
X018293Y007228D01*
X018428Y007093D01*
X018605Y007020D01*
X018795Y007020D01*
X018972Y007093D01*
X019050Y007171D01*
X019050Y005900D01*
X019040Y005750D01*
X018962Y005460D01*
X018812Y005200D01*
X018600Y004988D01*
X018340Y004838D01*
X018050Y004760D01*
X017900Y004750D01*
X003871Y004750D01*
X003912Y004791D01*
X003968Y004927D01*
X003968Y005073D01*
X003929Y005167D01*
X003938Y005183D01*
X003920Y005236D01*
X003920Y006699D01*
X004012Y006791D01*
X004030Y006834D01*
X004114Y006750D01*
X004486Y006750D01*
X004502Y006766D01*
X005187Y006080D01*
X005010Y005903D01*
X005010Y005497D01*
X005022Y005485D02*
X004990Y005485D01*
X004990Y005781D02*
X005010Y005781D01*
X005010Y005879D02*
X004990Y005879D01*
X004990Y005978D02*
X005085Y005978D01*
X004990Y006076D02*
X005183Y006076D01*
X005093Y006175D02*
X004906Y006175D01*
X004995Y006273D02*
X003920Y006273D01*
X003920Y006175D02*
X004094Y006175D01*
X004010Y006076D02*
X003920Y006076D01*
X003920Y005978D02*
X004010Y005978D01*
X004010Y005879D02*
X003920Y005879D01*
X003920Y005781D02*
X004010Y005781D01*
X004010Y005682D02*
X003920Y005682D01*
X003920Y005584D02*
X004010Y005584D01*
X004010Y005485D02*
X003920Y005485D01*
X003920Y005387D02*
X004010Y005387D01*
X004032Y005288D02*
X003920Y005288D01*
X003935Y005190D02*
X004399Y005190D01*
X004498Y005091D02*
X003961Y005091D01*
X003968Y004993D02*
X004596Y004993D01*
X003955Y004894D02*
X018438Y004894D01*
X018605Y004993D02*
X005904Y004993D01*
X006002Y005091D02*
X018703Y005091D01*
X018695Y005230D02*
X018970Y005505D01*
X018970Y005650D01*
X018550Y005650D01*
X018550Y005750D01*
X018970Y005750D01*
X018970Y005895D01*
X018695Y006170D01*
X018550Y006170D01*
X018550Y005750D01*
X018450Y005750D01*
X018450Y006170D01*
X018305Y006170D01*
X018030Y005895D01*
X018030Y005750D01*
X018450Y005750D01*
X018450Y005650D01*
X018550Y005650D01*
X018550Y005230D01*
X018695Y005230D01*
X018753Y005288D02*
X018863Y005288D01*
X018851Y005387D02*
X018920Y005387D01*
X018950Y005485D02*
X018969Y005485D01*
X018970Y005584D02*
X018996Y005584D01*
X019022Y005682D02*
X018550Y005682D01*
X018550Y005584D02*
X018450Y005584D01*
X018450Y005650D02*
X018450Y005230D01*
X018305Y005230D01*
X018030Y005505D01*
X018030Y005650D01*
X018450Y005650D01*
X018450Y005682D02*
X017990Y005682D01*
X017990Y005584D02*
X018030Y005584D01*
X018050Y005485D02*
X017978Y005485D01*
X017879Y005387D02*
X018149Y005387D01*
X018247Y005288D02*
X017781Y005288D01*
X017990Y005781D02*
X018030Y005781D01*
X018030Y005879D02*
X017990Y005879D01*
X017915Y005978D02*
X018113Y005978D01*
X018211Y006076D02*
X017817Y006076D01*
X017718Y006175D02*
X019050Y006175D01*
X019050Y006273D02*
X017429Y006273D01*
X017431Y006372D02*
X019050Y006372D01*
X019050Y006470D02*
X017434Y006470D01*
X017437Y006569D02*
X019050Y006569D01*
X019050Y006667D02*
X017440Y006667D01*
X017443Y006766D02*
X019050Y006766D01*
X019050Y006864D02*
X017445Y006864D01*
X017448Y006963D02*
X019050Y006963D01*
X019050Y007061D02*
X018894Y007061D01*
X019038Y007160D02*
X019050Y007160D01*
X018506Y007061D02*
X017894Y007061D01*
X018038Y007160D02*
X018362Y007160D01*
X018281Y007258D02*
X018119Y007258D01*
X018160Y007357D02*
X018240Y007357D01*
X018220Y007455D02*
X018180Y007455D01*
X018180Y007554D02*
X018220Y007554D01*
X018243Y007652D02*
X018157Y007652D01*
X018116Y007751D02*
X018284Y007751D01*
X018370Y007849D02*
X018030Y007849D01*
X017874Y007948D02*
X018526Y007948D01*
X018750Y008046D02*
X017408Y008046D01*
X017465Y007948D02*
X017526Y007948D01*
X017309Y008145D02*
X018750Y008145D01*
X018750Y008243D02*
X017211Y008243D01*
X017112Y008342D02*
X018750Y008342D01*
X018750Y008440D02*
X017014Y008440D01*
X016915Y008539D02*
X018750Y008539D01*
X018750Y008637D02*
X016817Y008637D01*
X016718Y008736D02*
X018750Y008736D01*
X018750Y008834D02*
X016620Y008834D01*
X016521Y008933D02*
X018750Y008933D01*
X018750Y009031D02*
X016423Y009031D01*
X016324Y009130D02*
X018750Y009130D01*
X018750Y009228D02*
X016226Y009228D01*
X016127Y009327D02*
X018750Y009327D01*
X018750Y009425D02*
X016029Y009425D01*
X015950Y009524D02*
X018750Y009524D01*
X018750Y009622D02*
X015950Y009622D01*
X015950Y009721D02*
X018750Y009721D01*
X018750Y009819D02*
X015950Y009819D01*
X015950Y009918D02*
X018750Y009918D01*
X018750Y010016D02*
X015950Y010016D01*
X015950Y010115D02*
X018750Y010115D01*
X018750Y010213D02*
X015950Y010213D01*
X015950Y010312D02*
X018750Y010312D01*
X018750Y010410D02*
X015950Y010410D01*
X015950Y010509D02*
X018750Y010509D01*
X018750Y010607D02*
X015950Y010607D01*
X015950Y010706D02*
X018750Y010706D01*
X018750Y010804D02*
X015950Y010804D01*
X015950Y010903D02*
X018750Y010903D01*
X018750Y011001D02*
X015950Y011001D01*
X015950Y011100D02*
X018750Y011100D01*
X018750Y011198D02*
X015950Y011198D01*
X015950Y011297D02*
X018750Y011297D01*
X018750Y011395D02*
X015950Y011395D01*
X015950Y011494D02*
X018750Y011494D01*
X018750Y011592D02*
X015950Y011592D01*
X015950Y011691D02*
X018750Y011691D01*
X018750Y011789D02*
X015950Y011789D01*
X015950Y011888D02*
X018750Y011888D01*
X018750Y011986D02*
X016014Y011986D01*
X016096Y012085D02*
X018750Y012085D01*
X018750Y012183D02*
X016178Y012183D01*
X016260Y012282D02*
X018750Y012282D01*
X018750Y012380D02*
X016342Y012380D01*
X016424Y012479D02*
X018704Y012479D01*
X018630Y012577D02*
X016453Y012577D01*
X016450Y012676D02*
X017389Y012676D01*
X017272Y012774D02*
X016450Y012774D01*
X016450Y012873D02*
X017174Y012873D01*
X017075Y012971D02*
X016450Y012971D01*
X016450Y013070D02*
X016485Y013070D01*
X016915Y013070D02*
X016983Y013070D01*
X017450Y013956D02*
X017547Y013956D01*
X017450Y014055D02*
X018164Y014055D01*
X018071Y014153D02*
X017450Y014153D01*
X017450Y014252D02*
X018030Y014252D01*
X017989Y014350D02*
X017450Y014350D01*
X017450Y014449D02*
X017963Y014449D01*
X017963Y014547D02*
X017450Y014547D01*
X017408Y014646D02*
X017963Y014646D01*
X017979Y014744D02*
X017310Y014744D01*
X017211Y014843D02*
X018020Y014843D01*
X018061Y014941D02*
X017168Y014941D01*
X017141Y015040D02*
X018140Y015040D01*
X018239Y015138D02*
X017083Y015138D01*
X016949Y015237D02*
X018419Y015237D01*
X018968Y015237D02*
X019050Y015237D01*
X019050Y015335D02*
X016420Y015335D01*
X016472Y015237D02*
X016651Y015237D01*
X016517Y015138D02*
X016506Y015138D01*
X016432Y014941D02*
X015870Y014941D01*
X015870Y014843D02*
X015770Y014843D01*
X015770Y014903D02*
X015770Y014242D01*
X015681Y014254D01*
X015591Y014278D01*
X015505Y014314D01*
X015424Y014360D01*
X015350Y014417D01*
X015284Y014483D01*
X015227Y014557D01*
X015181Y014638D01*
X015145Y014724D01*
X015121Y014814D01*
X015109Y014903D01*
X015770Y014903D01*
X015770Y014941D02*
X012780Y014941D01*
X012839Y014843D02*
X015117Y014843D01*
X015140Y014744D02*
X012868Y014744D01*
X012868Y014646D02*
X015177Y014646D01*
X015235Y014547D02*
X012964Y014547D01*
X013063Y014449D02*
X015318Y014449D01*
X015442Y014350D02*
X013161Y014350D01*
X013260Y014252D02*
X015699Y014252D01*
X015770Y014252D02*
X015870Y014252D01*
X015941Y014252D02*
X016232Y014252D01*
X016198Y014350D02*
X016264Y014350D01*
X016321Y014449D02*
X016328Y014449D01*
X016405Y014547D02*
X016476Y014547D01*
X016462Y014646D02*
X016534Y014646D01*
X016121Y014153D02*
X013358Y014153D01*
X013457Y014055D02*
X016001Y014055D01*
X015953Y013956D02*
X015853Y013956D01*
X015547Y013956D02*
X014853Y013956D01*
X014795Y013980D02*
X014605Y013980D01*
X014428Y013907D01*
X014293Y013772D01*
X014220Y013595D01*
X014220Y013405D01*
X014293Y013228D01*
X014428Y013093D01*
X014605Y013020D01*
X014795Y013020D01*
X014972Y013093D01*
X015107Y013228D01*
X015180Y013405D01*
X015180Y013595D01*
X015107Y013772D01*
X014972Y013907D01*
X014795Y013980D01*
X014547Y013956D02*
X013853Y013956D01*
X014021Y013858D02*
X014379Y013858D01*
X014288Y013759D02*
X014112Y013759D01*
X014153Y013661D02*
X014247Y013661D01*
X014220Y013562D02*
X014180Y013562D01*
X014180Y013464D02*
X014220Y013464D01*
X014236Y013365D02*
X014164Y013365D01*
X014123Y013267D02*
X014277Y013267D01*
X014353Y013168D02*
X014143Y013168D01*
X014220Y013070D02*
X014485Y013070D01*
X014220Y012971D02*
X015432Y012971D01*
X015432Y012873D02*
X014220Y012873D01*
X014220Y012774D02*
X015443Y012774D01*
X015374Y012676D02*
X014220Y012676D01*
X014220Y012577D02*
X015305Y012577D01*
X015230Y012479D02*
X014642Y012479D01*
X014724Y012380D02*
X015230Y012380D01*
X015230Y012282D02*
X014765Y012282D01*
X014773Y012183D02*
X015230Y012183D01*
X015230Y012085D02*
X014897Y012085D01*
X015025Y011986D02*
X015230Y011986D01*
X015230Y011888D02*
X015120Y011888D01*
X015123Y011789D02*
X015230Y011789D01*
X015230Y011691D02*
X015120Y011691D01*
X015120Y011592D02*
X015230Y011592D01*
X015230Y011494D02*
X015120Y011494D01*
X015120Y011395D02*
X015230Y011395D01*
X015230Y011297D02*
X015120Y011297D01*
X015120Y011198D02*
X015230Y011198D01*
X015230Y011100D02*
X015120Y011100D01*
X015120Y011001D02*
X015230Y011001D01*
X015230Y010903D02*
X015120Y010903D01*
X015120Y010804D02*
X015230Y010804D01*
X015230Y010706D02*
X015120Y010706D01*
X015120Y010607D02*
X015230Y010607D01*
X015230Y010509D02*
X015120Y010509D01*
X015120Y010410D02*
X015230Y010410D01*
X015230Y010312D02*
X015120Y010312D01*
X015120Y010213D02*
X015230Y010213D01*
X015230Y010115D02*
X015120Y010115D01*
X015120Y010016D02*
X015230Y010016D01*
X015230Y009918D02*
X015120Y009918D01*
X015120Y009819D02*
X015230Y009819D01*
X015230Y009721D02*
X015120Y009721D01*
X015120Y009622D02*
X015230Y009622D01*
X015230Y009524D02*
X015120Y009524D01*
X015120Y009425D02*
X015230Y009425D01*
X015230Y009327D02*
X015120Y009327D01*
X015120Y009228D02*
X015230Y009228D01*
X015230Y009130D02*
X015120Y009130D01*
X015120Y009031D02*
X015230Y009031D01*
X015230Y008933D02*
X015044Y008933D01*
X014945Y008834D02*
X015230Y008834D01*
X015230Y008736D02*
X014847Y008736D01*
X014748Y008637D02*
X015230Y008637D01*
X015230Y008539D02*
X014650Y008539D01*
X014551Y008440D02*
X015230Y008440D01*
X015230Y008342D02*
X014453Y008342D01*
X014420Y008243D02*
X015230Y008243D01*
X015230Y008145D02*
X014420Y008145D01*
X014420Y008046D02*
X015230Y008046D01*
X015157Y007948D02*
X014874Y007948D01*
X015030Y007849D02*
X015034Y007849D01*
X015200Y007700D02*
X015450Y007900D01*
X015450Y012400D01*
X015800Y012900D01*
X015472Y013070D02*
X014915Y013070D01*
X015047Y013168D02*
X015353Y013168D01*
X015277Y013267D02*
X015123Y013267D01*
X015164Y013365D02*
X015236Y013365D01*
X015220Y013464D02*
X015180Y013464D01*
X015180Y013562D02*
X015220Y013562D01*
X015247Y013661D02*
X015153Y013661D01*
X015112Y013759D02*
X015288Y013759D01*
X015379Y013858D02*
X015021Y013858D01*
X015770Y014350D02*
X015870Y014350D01*
X015870Y014449D02*
X015770Y014449D01*
X015770Y014547D02*
X015870Y014547D01*
X015870Y014646D02*
X015770Y014646D01*
X015770Y014744D02*
X015870Y014744D01*
X015870Y015040D02*
X015770Y015040D01*
X015770Y015138D02*
X015870Y015138D01*
X015870Y015237D02*
X015770Y015237D01*
X015770Y015335D02*
X015870Y015335D01*
X015870Y015434D02*
X015770Y015434D01*
X015770Y015532D02*
X015870Y015532D01*
X015870Y015631D02*
X015770Y015631D01*
X015602Y015631D02*
X013768Y015631D01*
X013768Y015532D02*
X015407Y015532D01*
X015295Y015434D02*
X013729Y015434D01*
X013656Y015335D02*
X015219Y015335D01*
X015168Y015237D02*
X013484Y015237D01*
X013316Y015237D02*
X012306Y015237D01*
X012327Y015138D02*
X015133Y015138D01*
X015114Y015040D02*
X012642Y015040D01*
X012358Y015040D02*
X012327Y015040D01*
X012265Y015335D02*
X013144Y015335D01*
X013071Y015434D02*
X012224Y015434D01*
X012129Y015532D02*
X013032Y015532D01*
X012936Y015631D02*
X012031Y015631D01*
X011795Y015729D02*
X012803Y015729D01*
X012669Y015828D02*
X005820Y015828D01*
X005820Y015926D02*
X012535Y015926D01*
X012401Y016025D02*
X005820Y016025D01*
X006003Y016123D02*
X012267Y016123D01*
X012133Y016222D02*
X006090Y016222D01*
X006090Y016320D02*
X011999Y016320D01*
X011865Y016419D02*
X006090Y016419D01*
X006090Y016517D02*
X011731Y016517D01*
X011597Y016616D02*
X006090Y016616D01*
X006090Y016714D02*
X011463Y016714D01*
X011329Y016813D02*
X009334Y016813D01*
X009544Y016911D02*
X011195Y016911D01*
X011061Y017010D02*
X009642Y017010D01*
X009713Y017108D02*
X010927Y017108D01*
X010793Y017207D02*
X009754Y017207D01*
X009784Y017305D02*
X010659Y017305D01*
X010525Y017404D02*
X009784Y017404D01*
X009784Y017502D02*
X010391Y017502D01*
X010257Y017601D02*
X009751Y017601D01*
X009710Y017699D02*
X010123Y017699D01*
X009989Y017798D02*
X009635Y017798D01*
X010381Y018192D02*
X010404Y018192D01*
X010431Y018093D02*
X012628Y018093D01*
X012530Y017995D02*
X012530Y017850D01*
X012950Y017850D01*
X012950Y018270D01*
X012805Y018270D01*
X012530Y017995D01*
X010565Y017995D01*
X010699Y017896D02*
X012530Y017896D01*
X012530Y017750D02*
X012530Y017605D01*
X012805Y017330D01*
X012950Y017330D01*
X012950Y017750D01*
X013050Y017750D01*
X013050Y017850D01*
X013470Y017850D01*
X013470Y017995D01*
X013195Y018270D01*
X013050Y018270D01*
X013050Y017850D01*
X012950Y017850D01*
X012950Y017750D01*
X012530Y017750D01*
X012530Y017699D02*
X010967Y017699D01*
X010833Y017798D02*
X012950Y017798D01*
X012950Y017896D02*
X013050Y017896D01*
X013050Y017798D02*
X013510Y017798D01*
X013470Y017750D02*
X013470Y017605D01*
X013195Y017330D01*
X013050Y017330D01*
X013050Y017750D01*
X013470Y017750D01*
X013470Y017699D02*
X013510Y017699D01*
X013510Y017601D02*
X013465Y017601D01*
X013510Y017502D02*
X013367Y017502D01*
X013268Y017404D02*
X013516Y017404D01*
X013510Y017410D02*
X013610Y017310D01*
X014390Y017310D01*
X014490Y017410D01*
X014490Y018190D01*
X014390Y018290D01*
X013610Y018290D01*
X013510Y018190D01*
X013510Y017410D01*
X013050Y017404D02*
X012950Y017404D01*
X012950Y017502D02*
X013050Y017502D01*
X013050Y017601D02*
X012950Y017601D01*
X012950Y017699D02*
X013050Y017699D01*
X013050Y017995D02*
X012950Y017995D01*
X012950Y018093D02*
X013050Y018093D01*
X013050Y018192D02*
X012950Y018192D01*
X012727Y018192D02*
X011656Y018192D01*
X011712Y018290D02*
X015089Y018290D01*
X015089Y018192D02*
X014489Y018192D01*
X014490Y018093D02*
X015130Y018093D01*
X015171Y017995D02*
X014490Y017995D01*
X014490Y017896D02*
X015228Y017896D01*
X015327Y017798D02*
X014490Y017798D01*
X014490Y017699D02*
X015453Y017699D01*
X015438Y017601D02*
X014490Y017601D01*
X014490Y017502D02*
X015316Y017502D01*
X015233Y017404D02*
X014484Y017404D01*
X015139Y017207D02*
X011637Y017207D01*
X011503Y017305D02*
X015176Y017305D01*
X015117Y017108D02*
X011771Y017108D01*
X011905Y017010D02*
X015770Y017010D01*
X015770Y016950D02*
X015109Y016950D01*
X015121Y016861D01*
X015145Y016771D01*
X015181Y016685D01*
X015227Y016604D01*
X015284Y016530D01*
X015350Y016464D01*
X015424Y016408D01*
X015505Y016361D01*
X015591Y016325D01*
X015681Y016301D01*
X015770Y016289D01*
X015770Y016950D01*
X015770Y016911D02*
X015870Y016911D01*
X015870Y016950D02*
X015870Y016289D01*
X015959Y016301D01*
X016049Y016325D01*
X016135Y016361D01*
X016216Y016408D01*
X016290Y016464D01*
X016355Y016530D01*
X016412Y016604D01*
X016459Y016685D01*
X016494Y016771D01*
X016519Y016861D01*
X016530Y016950D01*
X015870Y016950D01*
X015870Y017010D02*
X017597Y017010D01*
X017597Y017108D02*
X016523Y017108D01*
X016500Y017207D02*
X017625Y017207D01*
X017597Y017140D02*
X017597Y016860D01*
X017704Y016602D01*
X017902Y016404D01*
X018160Y016297D01*
X018440Y016297D01*
X018698Y016404D01*
X018896Y016602D01*
X019003Y016860D01*
X019003Y017140D01*
X018896Y017398D01*
X018698Y017596D01*
X018440Y017703D01*
X018160Y017703D01*
X017902Y017596D01*
X017704Y017398D01*
X017597Y017140D01*
X017666Y017305D02*
X016463Y017305D01*
X016406Y017404D02*
X017710Y017404D01*
X017808Y017502D02*
X016323Y017502D01*
X016202Y017601D02*
X017913Y017601D01*
X018151Y017699D02*
X016186Y017699D01*
X016312Y017798D02*
X018375Y017798D01*
X018449Y017699D02*
X019044Y017699D01*
X019050Y017601D02*
X018687Y017601D01*
X018792Y017502D02*
X019050Y017502D01*
X019050Y017404D02*
X018890Y017404D01*
X018934Y017305D02*
X019050Y017305D01*
X019050Y017207D02*
X018975Y017207D01*
X019003Y017108D02*
X019050Y017108D01*
X019050Y017010D02*
X019003Y017010D01*
X019003Y016911D02*
X019050Y016911D01*
X019050Y016813D02*
X018983Y016813D01*
X018942Y016714D02*
X019050Y016714D01*
X019050Y016616D02*
X018901Y016616D01*
X018811Y016517D02*
X019050Y016517D01*
X019050Y016419D02*
X018712Y016419D01*
X018495Y016320D02*
X019050Y016320D01*
X019050Y016222D02*
X012977Y016222D01*
X012843Y016320D02*
X015610Y016320D01*
X015770Y016320D02*
X015870Y016320D01*
X015870Y016419D02*
X015770Y016419D01*
X015770Y016517D02*
X015870Y016517D01*
X015870Y016616D02*
X015770Y016616D01*
X015770Y016714D02*
X015870Y016714D01*
X015870Y016813D02*
X015770Y016813D01*
X015409Y016419D02*
X012709Y016419D01*
X012575Y016517D02*
X015297Y016517D01*
X015221Y016616D02*
X012441Y016616D01*
X012307Y016714D02*
X015169Y016714D01*
X015134Y016813D02*
X012173Y016813D01*
X012039Y016911D02*
X015114Y016911D01*
X016029Y016320D02*
X018105Y016320D01*
X017888Y016419D02*
X016230Y016419D01*
X016342Y016517D02*
X017789Y016517D01*
X017699Y016616D02*
X016419Y016616D01*
X016471Y016714D02*
X017658Y016714D01*
X017617Y016813D02*
X016506Y016813D01*
X016525Y016911D02*
X017597Y016911D01*
X018221Y017896D02*
X016411Y017896D01*
X016468Y017995D02*
X018122Y017995D01*
X018053Y018093D02*
X016509Y018093D01*
X016550Y018192D02*
X018012Y018192D01*
X017971Y018290D02*
X016551Y018290D01*
X016551Y018389D02*
X017963Y018389D01*
X017963Y018487D02*
X016549Y018487D01*
X016509Y018586D02*
X017963Y018586D01*
X017997Y018684D02*
X016468Y018684D01*
X015172Y018684D02*
X011712Y018684D01*
X011712Y018586D02*
X015131Y018586D01*
X015090Y018487D02*
X011668Y018487D01*
X011712Y018389D02*
X015089Y018389D01*
X013511Y018192D02*
X013273Y018192D01*
X013372Y018093D02*
X013510Y018093D01*
X013510Y017995D02*
X013470Y017995D01*
X013470Y017896D02*
X013510Y017896D01*
X012732Y017404D02*
X011369Y017404D01*
X011235Y017502D02*
X012633Y017502D01*
X012535Y017601D02*
X011101Y017601D01*
X011485Y015729D02*
X010235Y015729D01*
X010471Y015631D02*
X011249Y015631D01*
X011151Y015532D02*
X010569Y015532D01*
X010664Y015434D02*
X011056Y015434D01*
X011015Y015335D02*
X010705Y015335D01*
X010746Y015237D02*
X010974Y015237D01*
X010953Y015138D02*
X010767Y015138D01*
X010767Y015040D02*
X010953Y015040D01*
X010953Y014941D02*
X010767Y014941D01*
X010737Y014843D02*
X010983Y014843D01*
X011023Y014744D02*
X010697Y014744D01*
X010647Y014646D02*
X011073Y014646D01*
X011172Y014547D02*
X010548Y014547D01*
X010422Y014449D02*
X011298Y014449D01*
X011547Y013956D02*
X010853Y013956D01*
X010795Y013980D02*
X010605Y013980D01*
X010428Y013907D01*
X010293Y013772D01*
X010220Y013595D01*
X010220Y013405D01*
X010293Y013228D01*
X010428Y013093D01*
X010580Y013030D01*
X010580Y012101D01*
X010488Y012009D01*
X010432Y011873D01*
X010432Y011727D01*
X010488Y011591D01*
X010591Y011488D01*
X010727Y011432D01*
X010873Y011432D01*
X011009Y011488D01*
X011112Y011591D01*
X011168Y011727D01*
X011168Y011873D01*
X011112Y012009D01*
X011020Y012101D01*
X011020Y013141D01*
X011107Y013228D01*
X011180Y013405D01*
X011180Y013595D01*
X011107Y013772D01*
X010972Y013907D01*
X010795Y013980D01*
X010547Y013956D02*
X009853Y013956D01*
X009795Y013980D02*
X009605Y013980D01*
X009428Y013907D01*
X009293Y013772D01*
X009220Y013595D01*
X009220Y013405D01*
X009293Y013228D01*
X009428Y013093D01*
X009605Y013020D01*
X009795Y013020D01*
X009972Y013093D01*
X010107Y013228D01*
X010180Y013405D01*
X010180Y013595D01*
X010107Y013772D01*
X009972Y013907D01*
X009795Y013980D01*
X009547Y013956D02*
X008853Y013956D01*
X009021Y013858D02*
X009379Y013858D01*
X009288Y013759D02*
X009112Y013759D01*
X009153Y013661D02*
X009247Y013661D01*
X009220Y013562D02*
X009180Y013562D01*
X009180Y013464D02*
X009220Y013464D01*
X009236Y013365D02*
X009164Y013365D01*
X009123Y013267D02*
X009277Y013267D01*
X009353Y013168D02*
X009047Y013168D01*
X008920Y013070D02*
X009485Y013070D01*
X009915Y013070D02*
X010485Y013070D01*
X010580Y012971D02*
X008920Y012971D01*
X008920Y012873D02*
X010580Y012873D01*
X010580Y012774D02*
X008920Y012774D01*
X008920Y012676D02*
X010580Y012676D01*
X010580Y012577D02*
X008920Y012577D01*
X008920Y012479D02*
X010580Y012479D01*
X010580Y012380D02*
X008920Y012380D01*
X008920Y012282D02*
X010580Y012282D01*
X010580Y012183D02*
X008920Y012183D01*
X008920Y012085D02*
X010564Y012085D01*
X010479Y011986D02*
X008920Y011986D01*
X008920Y011888D02*
X010438Y011888D01*
X010432Y011789D02*
X008920Y011789D01*
X008920Y011691D02*
X009770Y011691D01*
X009681Y011592D02*
X008920Y011592D01*
X008942Y011494D02*
X009640Y011494D01*
X009584Y011395D02*
X009326Y011395D01*
X009417Y011297D02*
X009485Y011297D01*
X009812Y011001D02*
X010980Y011001D01*
X010976Y010903D02*
X010980Y010903D01*
X010980Y011100D02*
X010220Y011100D01*
X010315Y011198D02*
X010987Y011198D01*
X011085Y011297D02*
X010356Y011297D01*
X010368Y011395D02*
X011184Y011395D01*
X011282Y011494D02*
X011014Y011494D01*
X011112Y011592D02*
X011381Y011592D01*
X011479Y011691D02*
X011153Y011691D01*
X011168Y011789D02*
X011578Y011789D01*
X011676Y011888D02*
X011162Y011888D01*
X011121Y011986D02*
X011775Y011986D01*
X011873Y012085D02*
X011036Y012085D01*
X011020Y012183D02*
X011972Y012183D01*
X011980Y012282D02*
X011020Y012282D01*
X011020Y012380D02*
X011980Y012380D01*
X011980Y012479D02*
X011020Y012479D01*
X011020Y012577D02*
X011980Y012577D01*
X011980Y012676D02*
X011020Y012676D01*
X011020Y012774D02*
X011955Y012774D01*
X011875Y012873D02*
X011020Y012873D01*
X011020Y012971D02*
X011834Y012971D01*
X011485Y013070D02*
X011020Y013070D01*
X011047Y013168D02*
X011353Y013168D01*
X011277Y013267D02*
X011123Y013267D01*
X011164Y013365D02*
X011236Y013365D01*
X011220Y013464D02*
X011180Y013464D01*
X011180Y013562D02*
X011220Y013562D01*
X011247Y013661D02*
X011153Y013661D01*
X011112Y013759D02*
X011288Y013759D01*
X011379Y013858D02*
X011021Y013858D01*
X010700Y013500D02*
X010800Y013400D01*
X010800Y011800D01*
X010488Y011592D02*
X010319Y011592D01*
X010360Y011494D02*
X010586Y011494D01*
X010447Y011691D02*
X010230Y011691D01*
X010000Y011400D02*
X009900Y011400D01*
X009200Y010700D01*
X009200Y008250D01*
X008880Y008440D02*
X008450Y008440D01*
X008450Y008342D02*
X008839Y008342D01*
X008832Y008243D02*
X008450Y008243D01*
X008450Y008145D02*
X008845Y008145D01*
X008886Y008046D02*
X008450Y008046D01*
X008450Y007948D02*
X008526Y007948D01*
X008874Y007948D02*
X008982Y007948D01*
X009030Y007849D02*
X009370Y007849D01*
X009418Y007948D02*
X009526Y007948D01*
X009514Y008046D02*
X009578Y008046D01*
X009580Y008145D02*
X009555Y008145D01*
X009568Y008243D02*
X009580Y008243D01*
X009580Y008342D02*
X009561Y008342D01*
X009580Y008440D02*
X009520Y008440D01*
X009580Y008539D02*
X009432Y008539D01*
X009420Y008637D02*
X009580Y008637D01*
X009573Y008736D02*
X009420Y008736D01*
X009420Y008834D02*
X009580Y008834D01*
X009610Y008933D02*
X009420Y008933D01*
X009420Y009031D02*
X009578Y009031D01*
X009800Y008800D02*
X010200Y009100D01*
X010200Y009800D01*
X010400Y010000D01*
X010900Y010000D01*
X011200Y010300D01*
X011200Y011100D01*
X012200Y012100D01*
X012200Y013050D01*
X012180Y013464D02*
X012220Y013464D01*
X012220Y013562D02*
X012180Y013562D01*
X012153Y013661D02*
X012247Y013661D01*
X012288Y013759D02*
X012112Y013759D01*
X012021Y013858D02*
X012379Y013858D01*
X012547Y013956D02*
X011853Y013956D01*
X010379Y013858D02*
X010021Y013858D01*
X010112Y013759D02*
X010288Y013759D01*
X010247Y013661D02*
X010153Y013661D01*
X010180Y013562D02*
X010220Y013562D01*
X010220Y013464D02*
X010180Y013464D01*
X010164Y013365D02*
X010236Y013365D01*
X010277Y013267D02*
X010123Y013267D01*
X010047Y013168D02*
X010353Y013168D01*
X009738Y014449D02*
X008810Y014449D01*
X008960Y014547D02*
X009612Y014547D01*
X009513Y014646D02*
X009050Y014646D01*
X009113Y014744D02*
X009463Y014744D01*
X009423Y014843D02*
X009155Y014843D01*
X009178Y014941D02*
X009393Y014941D01*
X008570Y014843D02*
X008470Y014843D01*
X008470Y014744D02*
X008570Y014744D01*
X008570Y014646D02*
X008470Y014646D01*
X008470Y014547D02*
X008570Y014547D01*
X008570Y014449D02*
X008470Y014449D01*
X008547Y013956D02*
X007853Y013956D01*
X008021Y013858D02*
X008379Y013858D01*
X008288Y013759D02*
X008112Y013759D01*
X008153Y013661D02*
X008247Y013661D01*
X008220Y013562D02*
X008180Y013562D01*
X008180Y013464D02*
X008220Y013464D01*
X008236Y013365D02*
X008164Y013365D01*
X008123Y013267D02*
X008277Y013267D01*
X008353Y013168D02*
X008047Y013168D01*
X008700Y013500D02*
X008700Y011400D01*
X009100Y011100D01*
X008732Y011100D02*
X008429Y011100D01*
X008450Y011001D02*
X008743Y011001D01*
X008591Y011198D02*
X008356Y011198D01*
X008257Y011297D02*
X008492Y011297D01*
X008478Y011395D02*
X008159Y011395D01*
X008060Y011494D02*
X008480Y011494D01*
X008480Y011592D02*
X007962Y011592D01*
X007912Y011642D02*
X007912Y011642D01*
X007863Y011691D02*
X008480Y011691D01*
X008480Y011789D02*
X006090Y011789D01*
X005991Y011888D02*
X008480Y011888D01*
X007747Y011100D02*
X006112Y011100D01*
X006077Y011198D02*
X007648Y011198D01*
X007845Y011001D02*
X006210Y011001D01*
X006309Y010903D02*
X006424Y010903D01*
X005980Y010509D02*
X005745Y010509D01*
X005655Y010509D02*
X004628Y010509D01*
X004529Y010607D02*
X005251Y010607D01*
X005288Y010706D02*
X002809Y010706D01*
X002820Y010695D02*
X002820Y010550D01*
X002400Y010550D01*
X002400Y010970D01*
X002545Y010970D01*
X002820Y010695D01*
X002820Y010607D02*
X004071Y010607D01*
X003972Y010509D02*
X002400Y010509D01*
X002400Y010607D02*
X002300Y010607D01*
X002300Y010509D02*
X001840Y010509D01*
X001840Y010607D02*
X001880Y010607D01*
X001891Y010706D02*
X001837Y010706D01*
X001739Y010804D02*
X001989Y010804D01*
X002088Y010903D02*
X001640Y010903D01*
X001553Y011010D02*
X001840Y011297D01*
X001840Y011703D01*
X001553Y011990D01*
X001147Y011990D01*
X000860Y011703D01*
X000860Y011297D01*
X001147Y011010D01*
X001553Y011010D01*
X001642Y011100D02*
X002058Y011100D01*
X002147Y011010D02*
X002553Y011010D01*
X002840Y011297D01*
X002840Y011703D01*
X002553Y011990D01*
X002147Y011990D01*
X001860Y011703D01*
X001860Y011297D01*
X002147Y011010D01*
X002300Y010903D02*
X002400Y010903D01*
X002400Y010804D02*
X002300Y010804D01*
X002300Y010706D02*
X002400Y010706D01*
X002612Y010903D02*
X003383Y010903D01*
X003343Y011001D02*
X000450Y011001D01*
X000450Y010903D02*
X001060Y010903D01*
X000961Y010804D02*
X000450Y010804D01*
X000450Y010706D02*
X000863Y010706D01*
X000860Y010607D02*
X000450Y010607D01*
X000450Y010509D02*
X000860Y010509D01*
X000860Y010410D02*
X000450Y010410D01*
X000450Y010312D02*
X000860Y010312D01*
X000944Y010213D02*
X000450Y010213D01*
X000450Y010115D02*
X001043Y010115D01*
X001141Y010016D02*
X000450Y010016D01*
X000450Y009918D02*
X001075Y009918D01*
X000976Y009819D02*
X000450Y009819D01*
X000450Y009721D02*
X000878Y009721D01*
X000860Y009622D02*
X000450Y009622D01*
X000450Y009524D02*
X000860Y009524D01*
X000860Y009425D02*
X000450Y009425D01*
X000450Y009327D02*
X000860Y009327D01*
X000929Y009228D02*
X000450Y009228D01*
X000450Y009130D02*
X001028Y009130D01*
X001126Y009031D02*
X000450Y009031D01*
X000450Y008933D02*
X001090Y008933D01*
X001147Y008990D02*
X000860Y008703D01*
X000860Y008297D01*
X001147Y008010D01*
X001553Y008010D01*
X001840Y008297D01*
X001840Y008703D01*
X001553Y008990D01*
X001147Y008990D01*
X000991Y008834D02*
X000450Y008834D01*
X000450Y008736D02*
X000893Y008736D01*
X000860Y008637D02*
X000450Y008637D01*
X000450Y008539D02*
X000860Y008539D01*
X000860Y008440D02*
X000450Y008440D01*
X000450Y008342D02*
X000860Y008342D01*
X000914Y008243D02*
X000450Y008243D01*
X000450Y008145D02*
X001013Y008145D01*
X001111Y008046D02*
X000450Y008046D01*
X000450Y007948D02*
X001105Y007948D01*
X001147Y007990D02*
X000860Y007703D01*
X000860Y007297D01*
X001147Y007010D01*
X001553Y007010D01*
X001840Y007297D01*
X001840Y007703D01*
X001553Y007990D01*
X001147Y007990D01*
X001006Y007849D02*
X000450Y007849D01*
X000450Y007751D02*
X000908Y007751D01*
X000860Y007652D02*
X000450Y007652D01*
X000450Y007554D02*
X000860Y007554D01*
X000860Y007455D02*
X000450Y007455D01*
X000450Y007357D02*
X000860Y007357D01*
X000899Y007258D02*
X000450Y007258D01*
X000450Y007160D02*
X000998Y007160D01*
X001096Y007061D02*
X000450Y007061D01*
X000450Y006963D02*
X001120Y006963D01*
X001147Y006990D02*
X000860Y006703D01*
X000860Y006297D01*
X001147Y006010D01*
X001553Y006010D01*
X001840Y006297D01*
X001840Y006703D01*
X001553Y006990D01*
X001147Y006990D01*
X001021Y006864D02*
X000450Y006864D01*
X000450Y006766D02*
X000923Y006766D01*
X000860Y006667D02*
X000450Y006667D01*
X000450Y006569D02*
X000860Y006569D01*
X000860Y006470D02*
X000450Y006470D01*
X000450Y006372D02*
X000860Y006372D01*
X000884Y006273D02*
X000450Y006273D01*
X000450Y006175D02*
X000983Y006175D01*
X001081Y006076D02*
X000450Y006076D01*
X000450Y005978D02*
X003480Y005978D01*
X003480Y006076D02*
X002591Y006076D01*
X002545Y006030D02*
X002820Y006305D01*
X002820Y006450D01*
X002400Y006450D01*
X002400Y006550D01*
X002300Y006550D01*
X002300Y006970D01*
X002155Y006970D01*
X001880Y006695D01*
X001880Y006550D01*
X002300Y006550D01*
X002300Y006450D01*
X001880Y006450D01*
X001880Y006305D01*
X002155Y006030D01*
X002300Y006030D01*
X002300Y006450D01*
X002400Y006450D01*
X002400Y006030D01*
X002545Y006030D01*
X002400Y006076D02*
X002300Y006076D01*
X002300Y006175D02*
X002400Y006175D01*
X002400Y006273D02*
X002300Y006273D01*
X002300Y006372D02*
X002400Y006372D01*
X002400Y006470D02*
X003480Y006470D01*
X003480Y006372D02*
X002820Y006372D01*
X002788Y006273D02*
X003480Y006273D01*
X003480Y006175D02*
X002689Y006175D01*
X002820Y006550D02*
X002400Y006550D01*
X002400Y006970D01*
X002545Y006970D01*
X002820Y006695D01*
X002820Y006550D01*
X002820Y006569D02*
X003480Y006569D01*
X003480Y006667D02*
X003258Y006667D01*
X003386Y006766D02*
X003414Y006766D01*
X003100Y007000D02*
X003100Y008500D01*
X003200Y008600D01*
X002858Y008736D02*
X002807Y008736D01*
X002709Y008834D02*
X002913Y008834D01*
X003041Y008933D02*
X002610Y008933D01*
X002574Y009031D02*
X003995Y009031D01*
X003888Y009130D02*
X002672Y009130D01*
X002771Y009228D02*
X003780Y009228D01*
X003673Y009327D02*
X002840Y009327D01*
X002840Y009425D02*
X003564Y009425D01*
X003456Y009524D02*
X003444Y009524D01*
X003700Y009600D02*
X004900Y008500D01*
X005700Y008500D01*
X005355Y008834D02*
X004861Y008834D01*
X004754Y008933D02*
X005490Y008933D01*
X005578Y009031D02*
X004646Y009031D01*
X004539Y009130D02*
X005392Y009130D01*
X005293Y009228D02*
X004431Y009228D01*
X004324Y009327D02*
X005252Y009327D01*
X005220Y009425D02*
X004216Y009425D01*
X004109Y009524D02*
X005220Y009524D01*
X005231Y009622D02*
X004025Y009622D01*
X004066Y009721D02*
X005272Y009721D01*
X005340Y009819D02*
X004555Y009819D01*
X004654Y009918D02*
X005454Y009918D01*
X005523Y010074D02*
X005592Y010051D01*
X005655Y010041D01*
X005655Y010455D01*
X005241Y010455D01*
X005251Y010392D01*
X005274Y010323D01*
X005307Y010259D01*
X005349Y010200D01*
X005400Y010149D01*
X005459Y010107D01*
X005523Y010074D01*
X005448Y010115D02*
X004750Y010115D01*
X004750Y010213D02*
X005340Y010213D01*
X005280Y010312D02*
X004750Y010312D01*
X004726Y010410D02*
X005249Y010410D01*
X005655Y010410D02*
X005745Y010410D01*
X005745Y010312D02*
X005655Y010312D01*
X005655Y010213D02*
X005745Y010213D01*
X005745Y010115D02*
X005655Y010115D01*
X005952Y010115D02*
X005980Y010115D01*
X005980Y010016D02*
X004750Y010016D01*
X003850Y010213D02*
X002998Y010213D01*
X002820Y010312D02*
X003850Y010312D01*
X003874Y010410D02*
X002820Y010410D01*
X002711Y010804D02*
X003475Y010804D01*
X003332Y011100D02*
X002642Y011100D01*
X002741Y011198D02*
X003342Y011198D01*
X003383Y011297D02*
X002839Y011297D01*
X002840Y011395D02*
X003474Y011395D01*
X003480Y011494D02*
X002840Y011494D01*
X002840Y011592D02*
X003480Y011592D01*
X003480Y011691D02*
X002840Y011691D01*
X002754Y011789D02*
X003480Y011789D01*
X003480Y011888D02*
X002655Y011888D01*
X002557Y011986D02*
X003480Y011986D01*
X003480Y012085D02*
X002599Y012085D01*
X002545Y012030D02*
X002820Y012305D01*
X002820Y012450D01*
X002400Y012450D01*
X002400Y012550D01*
X002300Y012550D01*
X002300Y012970D01*
X002155Y012970D01*
X001880Y012695D01*
X001880Y012550D01*
X002300Y012550D01*
X002300Y012450D01*
X001880Y012450D01*
X001880Y012305D01*
X002155Y012030D01*
X002300Y012030D01*
X002300Y012450D01*
X002400Y012450D01*
X002400Y012030D01*
X002545Y012030D01*
X002400Y012085D02*
X002300Y012085D01*
X002300Y012183D02*
X002400Y012183D01*
X002400Y012282D02*
X002300Y012282D01*
X002300Y012380D02*
X002400Y012380D01*
X002400Y012479D02*
X003480Y012479D01*
X003480Y012577D02*
X002820Y012577D01*
X002820Y012550D02*
X002820Y012695D01*
X002545Y012970D01*
X002400Y012970D01*
X002400Y012550D01*
X002820Y012550D01*
X002820Y012676D02*
X003480Y012676D01*
X003480Y012774D02*
X002741Y012774D01*
X002642Y012873D02*
X003480Y012873D01*
X003480Y012971D02*
X001572Y012971D01*
X001553Y012990D02*
X001147Y012990D01*
X000860Y012703D01*
X000860Y012297D01*
X001147Y012010D01*
X001553Y012010D01*
X001840Y012297D01*
X001840Y012703D01*
X001553Y012990D01*
X001670Y012873D02*
X002058Y012873D01*
X001959Y012774D02*
X001769Y012774D01*
X001840Y012676D02*
X001880Y012676D01*
X001880Y012577D02*
X001840Y012577D01*
X001840Y012479D02*
X002300Y012479D01*
X002300Y012577D02*
X002400Y012577D01*
X002400Y012676D02*
X002300Y012676D01*
X002300Y012774D02*
X002400Y012774D01*
X002400Y012873D02*
X002300Y012873D01*
X002147Y013010D02*
X002553Y013010D01*
X002840Y013297D01*
X002840Y013703D01*
X002553Y013990D01*
X002147Y013990D01*
X001860Y013703D01*
X001860Y013297D01*
X002147Y013010D01*
X002088Y013070D02*
X001800Y013070D01*
X001840Y013110D02*
X001740Y013010D01*
X000960Y013010D01*
X000860Y013110D01*
X000860Y013890D01*
X000960Y013990D01*
X001740Y013990D01*
X001840Y013890D01*
X001840Y013110D01*
X001840Y013168D02*
X001989Y013168D01*
X001891Y013267D02*
X001840Y013267D01*
X001840Y013365D02*
X001860Y013365D01*
X001860Y013464D02*
X001840Y013464D01*
X001840Y013562D02*
X001860Y013562D01*
X001860Y013661D02*
X001840Y013661D01*
X001840Y013759D02*
X001916Y013759D01*
X001840Y013858D02*
X002015Y013858D01*
X002113Y013956D02*
X001774Y013956D01*
X002587Y013956D02*
X003133Y013956D01*
X003231Y013858D02*
X002685Y013858D01*
X002784Y013759D02*
X003330Y013759D01*
X003428Y013661D02*
X002840Y013661D01*
X002840Y013562D02*
X003480Y013562D01*
X003480Y013464D02*
X002840Y013464D01*
X002840Y013365D02*
X003480Y013365D01*
X003480Y013267D02*
X002809Y013267D01*
X002711Y013168D02*
X003480Y013168D01*
X003480Y013070D02*
X002612Y013070D01*
X002820Y012380D02*
X003480Y012380D01*
X003480Y012282D02*
X002796Y012282D01*
X002698Y012183D02*
X003480Y012183D01*
X003920Y012676D02*
X004050Y012676D01*
X004050Y012774D02*
X003920Y012774D01*
X003920Y012873D02*
X004050Y012873D01*
X004050Y012971D02*
X003920Y012971D01*
X003920Y013070D02*
X004050Y013070D01*
X004050Y013168D02*
X003920Y013168D01*
X003920Y013267D02*
X004050Y013267D01*
X004050Y013365D02*
X003920Y013365D01*
X003920Y013464D02*
X004050Y013464D01*
X004050Y013562D02*
X003920Y013562D01*
X003920Y013661D02*
X004050Y013661D01*
X004050Y013759D02*
X003920Y013759D01*
X003854Y013858D02*
X004006Y013858D01*
X003908Y013956D02*
X003755Y013956D01*
X003850Y014055D02*
X003657Y014055D01*
X003558Y014153D02*
X003850Y014153D01*
X003850Y014252D02*
X003460Y014252D01*
X003361Y014350D02*
X003850Y014350D01*
X003912Y014449D02*
X003320Y014449D01*
X003320Y014547D02*
X004011Y014547D01*
X004050Y014646D02*
X003320Y014646D01*
X003320Y014744D02*
X004050Y014744D01*
X004037Y014843D02*
X003320Y014843D01*
X003320Y014941D02*
X003967Y014941D01*
X003932Y015040D02*
X003320Y015040D01*
X003320Y015138D02*
X003932Y015138D01*
X003958Y015237D02*
X003320Y015237D01*
X003320Y015335D02*
X004014Y015335D01*
X004143Y015434D02*
X003320Y015434D01*
X003320Y015532D02*
X005380Y015532D01*
X005380Y015434D02*
X004457Y015434D01*
X004586Y015335D02*
X005380Y015335D01*
X005380Y015237D02*
X004642Y015237D01*
X004668Y015138D02*
X005380Y015138D01*
X005380Y015040D02*
X004668Y015040D01*
X004633Y014941D02*
X005380Y014941D01*
X005380Y014843D02*
X004563Y014843D01*
X004550Y014744D02*
X005380Y014744D01*
X005380Y014646D02*
X004550Y014646D01*
X004589Y014547D02*
X005380Y014547D01*
X005368Y014449D02*
X004688Y014449D01*
X004750Y014350D02*
X005380Y014350D01*
X005426Y014252D02*
X004750Y014252D01*
X003700Y013700D02*
X003700Y011100D01*
X003925Y010804D02*
X004060Y010804D01*
X004300Y011200D02*
X004400Y011200D01*
X004600Y011000D01*
X004056Y011592D02*
X003920Y011592D01*
X003920Y011494D02*
X003957Y011494D01*
X005019Y011888D02*
X005409Y011888D01*
X005310Y011789D02*
X005114Y011789D01*
X005655Y010706D02*
X005745Y010706D01*
X005745Y010607D02*
X005655Y010607D01*
X006420Y010016D02*
X007950Y010016D01*
X007946Y009918D02*
X007950Y009918D01*
X007454Y009918D02*
X006946Y009918D01*
X007060Y009819D02*
X007340Y009819D01*
X007272Y009721D02*
X007128Y009721D01*
X007169Y009622D02*
X007231Y009622D01*
X007220Y009524D02*
X007180Y009524D01*
X007180Y009425D02*
X007220Y009425D01*
X007252Y009327D02*
X007148Y009327D01*
X007107Y009228D02*
X007293Y009228D01*
X007392Y009130D02*
X007008Y009130D01*
X006822Y009031D02*
X007578Y009031D01*
X007822Y009031D02*
X007950Y009031D01*
X007950Y008933D02*
X006420Y008933D01*
X006420Y009031D02*
X006578Y009031D01*
X006420Y008834D02*
X007950Y008834D01*
X007950Y008736D02*
X006420Y008736D01*
X006420Y008637D02*
X007950Y008637D01*
X007950Y008539D02*
X006420Y008539D01*
X006420Y008440D02*
X007950Y008440D01*
X007950Y008342D02*
X006420Y008342D01*
X006420Y008243D02*
X007950Y008243D01*
X007950Y008145D02*
X006420Y008145D01*
X006420Y008046D02*
X007950Y008046D01*
X007950Y007948D02*
X007874Y007948D01*
X007526Y007948D02*
X006874Y007948D01*
X007030Y007849D02*
X007370Y007849D01*
X007284Y007751D02*
X007116Y007751D01*
X007157Y007652D02*
X007243Y007652D01*
X007220Y007554D02*
X007180Y007554D01*
X007180Y007455D02*
X007220Y007455D01*
X007240Y007357D02*
X007160Y007357D01*
X007119Y007258D02*
X007281Y007258D01*
X007362Y007160D02*
X007038Y007160D01*
X006894Y007061D02*
X007506Y007061D01*
X007894Y007061D02*
X007950Y007061D01*
X007950Y006963D02*
X006420Y006963D01*
X006420Y007061D02*
X006506Y007061D01*
X006420Y006864D02*
X007986Y006864D01*
X008038Y006766D02*
X006420Y006766D01*
X006420Y006667D02*
X008087Y006667D01*
X008154Y006569D02*
X006420Y006569D01*
X006420Y006470D02*
X008220Y006470D01*
X008250Y006372D02*
X006420Y006372D01*
X006420Y006273D02*
X008250Y006273D01*
X008250Y006175D02*
X006718Y006175D01*
X006817Y006076D02*
X007211Y006076D01*
X007305Y006170D02*
X007030Y005895D01*
X007030Y005750D01*
X007450Y005750D01*
X007450Y006170D01*
X007305Y006170D01*
X007450Y006076D02*
X007550Y006076D01*
X007550Y006170D02*
X007695Y006170D01*
X007970Y005895D01*
X007970Y005750D01*
X007550Y005750D01*
X007550Y005650D01*
X007970Y005650D01*
X007970Y005505D01*
X007695Y005230D01*
X007550Y005230D01*
X007550Y005650D01*
X007450Y005650D01*
X007450Y005230D01*
X007305Y005230D01*
X007030Y005505D01*
X007030Y005650D01*
X007450Y005650D01*
X007450Y005750D01*
X007550Y005750D01*
X007550Y006170D01*
X007550Y005978D02*
X007450Y005978D01*
X007450Y005879D02*
X007550Y005879D01*
X007550Y005781D02*
X007450Y005781D01*
X007450Y005682D02*
X006990Y005682D01*
X006990Y005584D02*
X007030Y005584D01*
X007050Y005485D02*
X006978Y005485D01*
X006879Y005387D02*
X007149Y005387D01*
X007247Y005288D02*
X006781Y005288D01*
X006990Y005781D02*
X007030Y005781D01*
X007030Y005879D02*
X006990Y005879D01*
X006915Y005978D02*
X007113Y005978D01*
X007450Y005584D02*
X007550Y005584D01*
X007550Y005682D02*
X008010Y005682D01*
X008010Y005584D02*
X007970Y005584D01*
X007950Y005485D02*
X008022Y005485D01*
X008121Y005387D02*
X007851Y005387D01*
X007753Y005288D02*
X008219Y005288D01*
X008010Y005781D02*
X007970Y005781D01*
X007970Y005879D02*
X008010Y005879D01*
X008085Y005978D02*
X007887Y005978D01*
X007789Y006076D02*
X008183Y006076D01*
X008750Y006175D02*
X009654Y006175D01*
X009632Y006273D02*
X008750Y006273D01*
X008750Y006372D02*
X009632Y006372D01*
X009672Y006470D02*
X008750Y006470D01*
X008742Y006569D02*
X009748Y006569D01*
X009779Y006667D02*
X008689Y006667D01*
X008623Y006766D02*
X009780Y006766D01*
X009836Y006864D02*
X008558Y006864D01*
X008498Y006963D02*
X009885Y006963D01*
X009894Y007061D02*
X009935Y007061D01*
X010200Y007100D02*
X010200Y007750D01*
X009800Y008050D01*
X009800Y008800D01*
X010020Y008637D02*
X010632Y008637D01*
X010637Y008736D02*
X010081Y008736D01*
X010212Y008834D02*
X010678Y008834D01*
X010762Y008933D02*
X010344Y008933D01*
X010420Y009031D02*
X010578Y009031D01*
X010822Y009031D02*
X011578Y009031D01*
X011605Y009020D02*
X011795Y009020D01*
X011972Y009093D01*
X012107Y009228D01*
X012180Y009405D01*
X012180Y009595D01*
X012107Y009772D01*
X011972Y009907D01*
X011795Y009980D01*
X011605Y009980D01*
X011428Y009907D01*
X011293Y009772D01*
X011220Y009595D01*
X011220Y009405D01*
X011293Y009228D01*
X011428Y009093D01*
X011605Y009020D01*
X011822Y009031D02*
X012578Y009031D01*
X012605Y009020D02*
X012795Y009020D01*
X012972Y009093D01*
X013107Y009228D01*
X013180Y009405D01*
X013180Y009595D01*
X013107Y009772D01*
X012972Y009907D01*
X012795Y009980D01*
X012605Y009980D01*
X012428Y009907D01*
X012293Y009772D01*
X012220Y009595D01*
X012220Y009405D01*
X012293Y009228D01*
X012428Y009093D01*
X012605Y009020D01*
X012822Y009031D02*
X013222Y009031D01*
X013182Y009130D02*
X013008Y009130D01*
X013107Y009228D02*
X013182Y009228D01*
X013204Y009327D02*
X013148Y009327D01*
X013180Y009425D02*
X013254Y009425D01*
X013180Y009524D02*
X013369Y009524D01*
X013169Y009622D02*
X014680Y009622D01*
X014680Y009524D02*
X013731Y009524D01*
X013846Y009425D02*
X014680Y009425D01*
X014680Y009327D02*
X013896Y009327D01*
X013918Y009228D02*
X014680Y009228D01*
X014618Y009130D02*
X013918Y009130D01*
X013878Y009031D02*
X014520Y009031D01*
X014421Y008933D02*
X013803Y008933D01*
X013770Y008834D02*
X014323Y008834D01*
X014224Y008736D02*
X013770Y008736D01*
X013770Y008637D02*
X014126Y008637D01*
X014027Y008539D02*
X013770Y008539D01*
X013772Y008440D02*
X013980Y008440D01*
X013980Y008342D02*
X013710Y008342D01*
X013649Y008243D02*
X013980Y008243D01*
X013980Y008145D02*
X013587Y008145D01*
X013526Y008046D02*
X013980Y008046D01*
X013980Y007948D02*
X013874Y007948D01*
X013526Y007948D02*
X013464Y007948D01*
X013370Y007849D02*
X013030Y007849D01*
X013116Y007751D02*
X013284Y007751D01*
X013243Y007652D02*
X013157Y007652D01*
X013180Y007554D02*
X013220Y007554D01*
X013220Y007455D02*
X013180Y007455D01*
X013160Y007357D02*
X013240Y007357D01*
X013281Y007258D02*
X013119Y007258D01*
X013038Y007160D02*
X013362Y007160D01*
X013506Y007061D02*
X012894Y007061D01*
X012506Y007061D02*
X011894Y007061D01*
X011972Y007093D02*
X012107Y007228D01*
X012180Y007405D01*
X012180Y007595D01*
X012107Y007772D01*
X011972Y007907D01*
X011795Y007980D01*
X011605Y007980D01*
X011428Y007907D01*
X011293Y007772D01*
X011220Y007595D01*
X011220Y007405D01*
X011293Y007228D01*
X011428Y007093D01*
X011605Y007020D01*
X011795Y007020D01*
X011972Y007093D01*
X012038Y007160D02*
X012362Y007160D01*
X012281Y007258D02*
X012119Y007258D01*
X012160Y007357D02*
X012240Y007357D01*
X012220Y007455D02*
X012180Y007455D01*
X012180Y007554D02*
X012220Y007554D01*
X012243Y007652D02*
X012157Y007652D01*
X012116Y007751D02*
X012284Y007751D01*
X012370Y007849D02*
X012030Y007849D01*
X011874Y007948D02*
X012526Y007948D01*
X012543Y008046D02*
X010535Y008046D01*
X010526Y007948D02*
X010468Y007948D01*
X010400Y008300D02*
X010200Y008200D01*
X010400Y008300D02*
X012600Y008300D01*
X012800Y008100D01*
X013300Y008100D01*
X013550Y008500D01*
X013550Y009200D01*
X013297Y008933D02*
X011238Y008933D01*
X011322Y008834D02*
X012794Y008834D01*
X012665Y008736D02*
X011363Y008736D01*
X011150Y008500D02*
X011000Y008650D01*
X011150Y008500D02*
X012950Y008500D01*
X013106Y008834D02*
X013330Y008834D01*
X013330Y008736D02*
X013235Y008736D01*
X013292Y008637D02*
X013330Y008637D01*
X014200Y008400D02*
X014200Y007300D01*
X012800Y005900D01*
X012500Y005700D01*
X012879Y005387D02*
X013121Y005387D01*
X013022Y005485D02*
X012978Y005485D01*
X012990Y005584D02*
X013010Y005584D01*
X013010Y005682D02*
X012990Y005682D01*
X013000Y005781D02*
X013010Y005781D01*
X012763Y006175D02*
X012718Y006175D01*
X012862Y006273D02*
X010368Y006273D01*
X010368Y006372D02*
X012960Y006372D01*
X013059Y006470D02*
X010328Y006470D01*
X010252Y006569D02*
X013157Y006569D01*
X013256Y006667D02*
X010229Y006667D01*
X010279Y006766D02*
X013354Y006766D01*
X013453Y006864D02*
X010328Y006864D01*
X010377Y006963D02*
X013551Y006963D01*
X014000Y006100D02*
X015200Y007100D01*
X015200Y007700D01*
X015670Y008046D02*
X016700Y008046D01*
X016602Y008145D02*
X015670Y008145D01*
X015670Y008243D02*
X016503Y008243D01*
X016405Y008342D02*
X015670Y008342D01*
X015670Y008440D02*
X016306Y008440D01*
X016208Y008539D02*
X015670Y008539D01*
X015670Y008637D02*
X016109Y008637D01*
X016011Y008736D02*
X015670Y008736D01*
X015670Y008834D02*
X015912Y008834D01*
X015814Y008933D02*
X015670Y008933D01*
X015670Y009031D02*
X015715Y009031D01*
X014900Y009100D02*
X014200Y008400D01*
X014420Y007948D02*
X014526Y007948D01*
X015420Y007061D02*
X015506Y007061D01*
X015379Y006963D02*
X016948Y006963D01*
X016951Y007061D02*
X016894Y007061D01*
X016945Y006864D02*
X015260Y006864D01*
X015142Y006766D02*
X016942Y006766D01*
X016940Y006667D02*
X015024Y006667D01*
X014906Y006569D02*
X016937Y006569D01*
X016934Y006470D02*
X014788Y006470D01*
X014669Y006372D02*
X016931Y006372D01*
X016928Y006273D02*
X014551Y006273D01*
X014718Y006175D02*
X015282Y006175D01*
X015297Y006190D02*
X015010Y005903D01*
X015010Y005497D01*
X015297Y005210D01*
X015703Y005210D01*
X015990Y005497D01*
X015990Y005903D01*
X015703Y006190D01*
X015297Y006190D01*
X015183Y006076D02*
X014817Y006076D01*
X014915Y005978D02*
X015085Y005978D01*
X015010Y005879D02*
X014990Y005879D01*
X014990Y005781D02*
X015010Y005781D01*
X015010Y005682D02*
X014990Y005682D01*
X014990Y005584D02*
X015010Y005584D01*
X015022Y005485D02*
X014978Y005485D01*
X014879Y005387D02*
X015121Y005387D01*
X015219Y005288D02*
X014781Y005288D01*
X014219Y005288D02*
X013781Y005288D01*
X013879Y005387D02*
X014121Y005387D01*
X014022Y005485D02*
X013978Y005485D01*
X013990Y005584D02*
X014010Y005584D01*
X014010Y005682D02*
X013990Y005682D01*
X013219Y005288D02*
X012781Y005288D01*
X012219Y005288D02*
X011968Y005288D01*
X011990Y005310D02*
X011890Y005210D01*
X011110Y005210D01*
X011010Y005310D01*
X011010Y006090D01*
X011110Y006190D01*
X011890Y006190D01*
X011990Y006090D01*
X011990Y005310D01*
X011990Y005387D02*
X012121Y005387D01*
X012022Y005485D02*
X011990Y005485D01*
X011990Y005584D02*
X012010Y005584D01*
X012010Y005682D02*
X011990Y005682D01*
X011990Y005781D02*
X012010Y005781D01*
X012010Y005879D02*
X011990Y005879D01*
X011990Y005978D02*
X012085Y005978D01*
X011990Y006076D02*
X012183Y006076D01*
X012282Y006175D02*
X011906Y006175D01*
X011094Y006175D02*
X010906Y006175D01*
X010990Y006076D02*
X011010Y006076D01*
X011010Y005978D02*
X010990Y005978D01*
X010990Y005879D02*
X011010Y005879D01*
X011010Y005781D02*
X010990Y005781D01*
X010990Y005682D02*
X011010Y005682D01*
X011010Y005584D02*
X010990Y005584D01*
X010990Y005485D02*
X011010Y005485D01*
X011010Y005387D02*
X010990Y005387D01*
X010968Y005288D02*
X011032Y005288D01*
X010032Y005288D02*
X009753Y005288D01*
X009695Y005230D02*
X009970Y005505D01*
X009970Y005650D01*
X009550Y005650D01*
X009550Y005750D01*
X009450Y005750D01*
X009450Y006170D01*
X009305Y006170D01*
X009030Y005895D01*
X009030Y005750D01*
X009450Y005750D01*
X009450Y005650D01*
X009550Y005650D01*
X009550Y005230D01*
X009695Y005230D01*
X009550Y005288D02*
X009450Y005288D01*
X009450Y005230D02*
X009450Y005650D01*
X009030Y005650D01*
X009030Y005505D01*
X009305Y005230D01*
X009450Y005230D01*
X009450Y005387D02*
X009550Y005387D01*
X009550Y005485D02*
X009450Y005485D01*
X009450Y005584D02*
X009550Y005584D01*
X009550Y005682D02*
X010010Y005682D01*
X010010Y005584D02*
X009970Y005584D01*
X009950Y005485D02*
X010010Y005485D01*
X010010Y005387D02*
X009851Y005387D01*
X009970Y005781D02*
X010010Y005781D01*
X010010Y005879D02*
X009970Y005879D01*
X009550Y005879D02*
X009450Y005879D01*
X009450Y005781D02*
X009550Y005781D01*
X009450Y005682D02*
X008990Y005682D01*
X008990Y005584D02*
X009030Y005584D01*
X009050Y005485D02*
X008978Y005485D01*
X008879Y005387D02*
X009149Y005387D01*
X009247Y005288D02*
X008781Y005288D01*
X008990Y005781D02*
X009030Y005781D01*
X009030Y005879D02*
X008990Y005879D01*
X008915Y005978D02*
X009113Y005978D01*
X009211Y006076D02*
X008817Y006076D01*
X009450Y006076D02*
X009550Y006076D01*
X009550Y005978D02*
X009450Y005978D01*
X010000Y006300D02*
X010000Y006700D01*
X010200Y007100D01*
X010426Y007061D02*
X010506Y007061D01*
X010894Y007061D02*
X011506Y007061D01*
X011362Y007160D02*
X011038Y007160D01*
X011119Y007258D02*
X011281Y007258D01*
X011240Y007357D02*
X011160Y007357D01*
X011180Y007455D02*
X011220Y007455D01*
X011220Y007554D02*
X011180Y007554D01*
X011157Y007652D02*
X011243Y007652D01*
X011284Y007751D02*
X011116Y007751D01*
X011030Y007849D02*
X011370Y007849D01*
X011526Y007948D02*
X010874Y007948D01*
X010648Y008539D02*
X010345Y008539D01*
X010055Y008539D02*
X010020Y008539D01*
X009284Y007751D02*
X009116Y007751D01*
X009157Y007652D02*
X009243Y007652D01*
X009220Y007554D02*
X009180Y007554D01*
X009180Y007455D02*
X009220Y007455D01*
X009240Y007357D02*
X009160Y007357D01*
X009119Y007258D02*
X009281Y007258D01*
X009362Y007160D02*
X009038Y007160D01*
X008894Y007061D02*
X009506Y007061D01*
X008506Y007061D02*
X008450Y007061D01*
X008450Y008539D02*
X008968Y008539D01*
X008980Y008637D02*
X008450Y008637D01*
X008450Y008736D02*
X008980Y008736D01*
X008980Y008834D02*
X008450Y008834D01*
X008450Y008933D02*
X008980Y008933D01*
X008980Y009031D02*
X008822Y009031D01*
X008578Y009031D02*
X008450Y009031D01*
X009420Y009918D02*
X009454Y009918D01*
X009420Y010016D02*
X010105Y010016D01*
X010203Y010115D02*
X009993Y010115D01*
X010092Y010213D02*
X010302Y010213D01*
X010259Y010312D02*
X010141Y010312D01*
X010180Y010410D02*
X010220Y010410D01*
X010220Y010509D02*
X010180Y010509D01*
X010175Y010607D02*
X010225Y010607D01*
X010266Y010706D02*
X010134Y010706D01*
X010075Y010804D02*
X010325Y010804D01*
X010424Y010903D02*
X009976Y010903D01*
X009946Y009918D02*
X010006Y009918D01*
X011060Y009819D02*
X011340Y009819D01*
X011272Y009721D02*
X011128Y009721D01*
X011169Y009622D02*
X011231Y009622D01*
X011220Y009524D02*
X011180Y009524D01*
X011180Y009425D02*
X011220Y009425D01*
X011252Y009327D02*
X011148Y009327D01*
X011107Y009228D02*
X011293Y009228D01*
X011392Y009130D02*
X011008Y009130D01*
X011129Y009918D02*
X011454Y009918D01*
X011448Y010115D02*
X011326Y010115D01*
X011227Y010016D02*
X014680Y010016D01*
X014680Y009918D02*
X012946Y009918D01*
X013060Y009819D02*
X014680Y009819D01*
X014680Y009721D02*
X013128Y009721D01*
X012993Y010115D02*
X014680Y010115D01*
X014680Y010213D02*
X013092Y010213D01*
X013141Y010312D02*
X014680Y010312D01*
X014680Y010410D02*
X013180Y010410D01*
X013180Y010509D02*
X014680Y010509D01*
X014680Y010607D02*
X013728Y010607D01*
X013818Y010706D02*
X014680Y010706D01*
X014680Y010804D02*
X013859Y010804D01*
X013272Y010607D02*
X013175Y010607D01*
X013182Y010706D02*
X013134Y010706D01*
X013141Y010804D02*
X013075Y010804D01*
X012308Y010213D02*
X012060Y010213D01*
X012120Y010312D02*
X012259Y010312D01*
X012220Y010410D02*
X012151Y010410D01*
X011952Y010115D02*
X012407Y010115D01*
X012454Y009918D02*
X011946Y009918D01*
X012060Y009819D02*
X012340Y009819D01*
X012272Y009721D02*
X012128Y009721D01*
X012169Y009622D02*
X012231Y009622D01*
X012220Y009524D02*
X012180Y009524D01*
X012180Y009425D02*
X012220Y009425D01*
X012252Y009327D02*
X012148Y009327D01*
X012107Y009228D02*
X012293Y009228D01*
X012392Y009130D02*
X012008Y009130D01*
X011745Y010115D02*
X011655Y010115D01*
X011655Y010213D02*
X011745Y010213D01*
X011745Y010312D02*
X011655Y010312D01*
X013535Y011986D02*
X013780Y011986D01*
X013780Y011888D02*
X013626Y011888D01*
X014400Y012200D02*
X014900Y011800D01*
X014900Y009100D01*
X015874Y007948D02*
X016526Y007948D01*
X016370Y007849D02*
X016030Y007849D01*
X016116Y007751D02*
X016284Y007751D01*
X016243Y007652D02*
X016157Y007652D01*
X016180Y007554D02*
X016220Y007554D01*
X016220Y007455D02*
X016180Y007455D01*
X016160Y007357D02*
X016240Y007357D01*
X016281Y007258D02*
X016119Y007258D01*
X016038Y007160D02*
X016362Y007160D01*
X016506Y007061D02*
X015894Y007061D01*
X015718Y006175D02*
X016282Y006175D01*
X016297Y006190D02*
X016010Y005903D01*
X016010Y005497D01*
X016297Y005210D01*
X016703Y005210D01*
X016990Y005497D01*
X016990Y005903D01*
X016703Y006190D01*
X016297Y006190D01*
X016183Y006076D02*
X015817Y006076D01*
X015915Y005978D02*
X016085Y005978D01*
X016010Y005879D02*
X015990Y005879D01*
X015990Y005781D02*
X016010Y005781D01*
X016010Y005682D02*
X015990Y005682D01*
X015990Y005584D02*
X016010Y005584D01*
X016022Y005485D02*
X015978Y005485D01*
X015879Y005387D02*
X016121Y005387D01*
X016219Y005288D02*
X015781Y005288D01*
X016781Y005288D02*
X017219Y005288D01*
X017121Y005387D02*
X016879Y005387D01*
X016978Y005485D02*
X017022Y005485D01*
X017010Y005584D02*
X016990Y005584D01*
X016990Y005682D02*
X017010Y005682D01*
X017010Y005781D02*
X016990Y005781D01*
X016990Y005879D02*
X017010Y005879D01*
X016962Y005978D02*
X016915Y005978D01*
X016923Y006076D02*
X016817Y006076D01*
X016718Y006175D02*
X016926Y006175D01*
X017451Y007061D02*
X017506Y007061D01*
X018450Y006076D02*
X018550Y006076D01*
X018550Y005978D02*
X018450Y005978D01*
X018450Y005879D02*
X018550Y005879D01*
X018550Y005781D02*
X018450Y005781D01*
X018450Y005485D02*
X018550Y005485D01*
X018550Y005387D02*
X018450Y005387D01*
X018450Y005288D02*
X018550Y005288D01*
X018802Y005190D02*
X006101Y005190D01*
X006199Y005288D02*
X006219Y005288D01*
X005707Y005872D02*
X005672Y005872D01*
X005500Y005700D01*
X005707Y005872D02*
X004379Y007200D01*
X004300Y007200D01*
X004750Y007160D02*
X005362Y007160D01*
X005281Y007258D02*
X004750Y007258D01*
X004750Y007357D02*
X005240Y007357D01*
X005220Y007455D02*
X004681Y007455D01*
X004583Y007554D02*
X005220Y007554D01*
X005243Y007652D02*
X003320Y007652D01*
X003320Y007554D02*
X004017Y007554D01*
X003919Y007455D02*
X003320Y007455D01*
X003320Y007357D02*
X003599Y007357D01*
X003437Y007258D02*
X003363Y007258D01*
X003700Y007000D02*
X003700Y005200D01*
X003600Y005000D01*
X003232Y004993D02*
X000895Y004993D01*
X000797Y005091D02*
X003239Y005091D01*
X003280Y005190D02*
X000698Y005190D01*
X000637Y005288D02*
X003367Y005288D01*
X003480Y005387D02*
X000580Y005387D01*
X000531Y005485D02*
X003480Y005485D01*
X003480Y005584D02*
X000504Y005584D01*
X000478Y005682D02*
X003480Y005682D01*
X003480Y005781D02*
X000458Y005781D01*
X000451Y005879D02*
X003480Y005879D01*
X003920Y006372D02*
X004896Y006372D01*
X004798Y006470D02*
X003920Y006470D01*
X003920Y006569D02*
X004699Y006569D01*
X004601Y006667D02*
X003920Y006667D01*
X003986Y006766D02*
X004098Y006766D01*
X004502Y006766D02*
X004502Y006766D01*
X004829Y007061D02*
X005506Y007061D01*
X005894Y007061D02*
X005980Y007061D01*
X005980Y006963D02*
X004927Y006963D01*
X005026Y006864D02*
X005980Y006864D01*
X005980Y006766D02*
X005124Y006766D01*
X005223Y006667D02*
X005980Y006667D01*
X005980Y006569D02*
X005321Y006569D01*
X005420Y006470D02*
X005980Y006470D01*
X005960Y006372D02*
X005518Y006372D01*
X005617Y006273D02*
X005862Y006273D01*
X005780Y006175D02*
X005718Y006175D01*
X005284Y007751D02*
X003320Y007751D01*
X003320Y007849D02*
X005370Y007849D01*
X005526Y007948D02*
X003320Y007948D01*
X003320Y008046D02*
X005542Y008046D01*
X005377Y008145D02*
X003320Y008145D01*
X003320Y008243D02*
X005287Y008243D01*
X005278Y008736D02*
X004969Y008736D01*
X004640Y008440D02*
X003532Y008440D01*
X003568Y008539D02*
X004532Y008539D01*
X004425Y008637D02*
X003568Y008637D01*
X003542Y008736D02*
X004318Y008736D01*
X004210Y008834D02*
X003487Y008834D01*
X003359Y008933D02*
X004103Y008933D01*
X003700Y009600D02*
X003700Y009800D01*
X003497Y010115D02*
X003403Y010115D01*
X003200Y009800D02*
X003100Y009800D01*
X002900Y010000D01*
X001850Y010000D01*
X001350Y009500D01*
X001672Y009130D02*
X002028Y009130D01*
X001929Y009228D02*
X001771Y009228D01*
X001840Y009327D02*
X001860Y009327D01*
X001860Y009425D02*
X001840Y009425D01*
X001840Y009524D02*
X001860Y009524D01*
X001860Y009622D02*
X001840Y009622D01*
X001840Y010312D02*
X001880Y010312D01*
X001880Y010410D02*
X001840Y010410D01*
X001741Y011198D02*
X001959Y011198D01*
X001861Y011297D02*
X001839Y011297D01*
X001840Y011395D02*
X001860Y011395D01*
X001860Y011494D02*
X001840Y011494D01*
X001840Y011592D02*
X001860Y011592D01*
X001860Y011691D02*
X001840Y011691D01*
X001754Y011789D02*
X001946Y011789D01*
X002045Y011888D02*
X001655Y011888D01*
X001557Y011986D02*
X002143Y011986D01*
X002101Y012085D02*
X001627Y012085D01*
X001726Y012183D02*
X002002Y012183D01*
X001904Y012282D02*
X001824Y012282D01*
X001840Y012380D02*
X001880Y012380D01*
X001143Y011986D02*
X000450Y011986D01*
X000450Y011888D02*
X001045Y011888D01*
X000946Y011789D02*
X000450Y011789D01*
X000450Y011691D02*
X000860Y011691D01*
X000860Y011592D02*
X000450Y011592D01*
X000450Y011494D02*
X000860Y011494D01*
X000860Y011395D02*
X000450Y011395D01*
X000450Y011297D02*
X000861Y011297D01*
X000959Y011198D02*
X000450Y011198D01*
X000450Y011100D02*
X001058Y011100D01*
X001073Y012085D02*
X000450Y012085D01*
X000450Y012183D02*
X000974Y012183D01*
X000876Y012282D02*
X000450Y012282D01*
X000450Y012380D02*
X000860Y012380D01*
X000860Y012479D02*
X000450Y012479D01*
X000450Y012577D02*
X000860Y012577D01*
X000860Y012676D02*
X000450Y012676D01*
X000450Y012774D02*
X000931Y012774D01*
X001030Y012873D02*
X000450Y012873D01*
X000450Y012971D02*
X001128Y012971D01*
X000900Y013070D02*
X000450Y013070D01*
X000450Y013168D02*
X000860Y013168D01*
X000860Y013267D02*
X000450Y013267D01*
X000450Y013365D02*
X000860Y013365D01*
X000860Y013464D02*
X000450Y013464D01*
X000450Y013562D02*
X000860Y013562D01*
X000860Y013661D02*
X000450Y013661D01*
X000450Y013759D02*
X000860Y013759D01*
X000860Y013858D02*
X000450Y013858D01*
X000450Y013956D02*
X000926Y013956D01*
X000450Y014055D02*
X003034Y014055D01*
X002936Y014153D02*
X000450Y014153D01*
X000450Y014252D02*
X002880Y014252D01*
X002880Y014350D02*
X000450Y014350D01*
X000450Y014449D02*
X002880Y014449D01*
X002880Y014547D02*
X000450Y014547D01*
X000450Y014646D02*
X002880Y014646D01*
X002880Y014744D02*
X000450Y014744D01*
X000450Y014843D02*
X002880Y014843D01*
X002880Y014941D02*
X000450Y014941D01*
X000450Y015040D02*
X002880Y015040D01*
X002880Y015138D02*
X000450Y015138D01*
X000450Y015237D02*
X002880Y015237D01*
X002880Y015335D02*
X000450Y015335D01*
X000450Y015434D02*
X002880Y015434D01*
X002880Y015532D02*
X000450Y015532D01*
X000450Y015631D02*
X002880Y015631D01*
X002880Y015729D02*
X000450Y015729D01*
X000450Y015828D02*
X002880Y015828D01*
X002880Y015926D02*
X000450Y015926D01*
X000450Y016025D02*
X002880Y016025D01*
X002880Y016123D02*
X000450Y016123D01*
X000450Y016222D02*
X002880Y016222D01*
X002880Y016320D02*
X000450Y016320D01*
X000450Y016419D02*
X002880Y016419D01*
X002880Y016517D02*
X000450Y016517D01*
X000450Y016616D02*
X001382Y016616D01*
X001534Y016560D02*
X001223Y016673D01*
X001223Y016673D01*
X000969Y016886D01*
X000969Y016886D01*
X000803Y017174D01*
X000803Y017174D01*
X000745Y017500D01*
X000745Y017500D01*
X000803Y017826D01*
X000803Y017826D01*
X000969Y018114D01*
X000969Y018114D01*
X000969Y018114D01*
X001223Y018327D01*
X001223Y018327D01*
X001534Y018440D01*
X001866Y018440D01*
X002177Y018327D01*
X002177Y018327D01*
X002431Y018114D01*
X002431Y018114D01*
X002597Y017826D01*
X002597Y017826D01*
X002654Y017500D01*
X002654Y017500D01*
X002597Y017174D01*
X002597Y017174D01*
X002431Y016886D01*
X002431Y016886D01*
X002431Y016886D01*
X002177Y016673D01*
X002177Y016673D01*
X001866Y016560D01*
X001866Y016560D01*
X001700Y016560D01*
X001534Y016560D01*
X001174Y016714D02*
X000450Y016714D01*
X000450Y016813D02*
X001057Y016813D01*
X000955Y016911D02*
X000450Y016911D01*
X000450Y017010D02*
X000898Y017010D01*
X000841Y017108D02*
X000450Y017108D01*
X000450Y017207D02*
X000797Y017207D01*
X000780Y017305D02*
X000450Y017305D01*
X000450Y017404D02*
X000763Y017404D01*
X000746Y017502D02*
X000450Y017502D01*
X000450Y017601D02*
X000763Y017601D01*
X000781Y017699D02*
X000456Y017699D01*
X000473Y017798D02*
X000798Y017798D01*
X000843Y017896D02*
X000499Y017896D01*
X000525Y017995D02*
X000900Y017995D01*
X000957Y018093D02*
X000568Y018093D01*
X000538Y018040D02*
X000538Y018040D01*
X000625Y018192D02*
X001062Y018192D01*
X001179Y018290D02*
X000682Y018290D01*
X000776Y018389D02*
X001393Y018389D01*
X001027Y018586D02*
X007883Y018586D01*
X007883Y018684D02*
X001240Y018684D01*
X000875Y018487D02*
X007844Y018487D01*
X007770Y018389D02*
X002007Y018389D01*
X002221Y018290D02*
X006036Y018290D01*
X005963Y018192D02*
X002338Y018192D01*
X002443Y018093D02*
X005904Y018093D01*
X006310Y017798D02*
X006793Y017798D01*
X006717Y017699D02*
X006251Y017699D01*
X006192Y017601D02*
X006671Y017601D01*
X006645Y017502D02*
X006133Y017502D01*
X006090Y017404D02*
X007167Y017404D01*
X007264Y017404D02*
X008584Y017404D01*
X008584Y017502D02*
X007787Y017502D01*
X007760Y017601D02*
X008618Y017601D01*
X008659Y017699D02*
X007714Y017699D01*
X007638Y017798D02*
X008733Y017798D01*
X008584Y017305D02*
X007788Y017305D01*
X007781Y017264D02*
X007795Y017352D01*
X007264Y017352D01*
X007264Y016820D01*
X007352Y016834D01*
X007438Y016862D01*
X007520Y016904D01*
X007594Y016958D01*
X007658Y017022D01*
X007712Y017096D01*
X007753Y017177D01*
X007781Y017264D01*
X007763Y017207D02*
X008615Y017207D01*
X008656Y017108D02*
X007718Y017108D01*
X007646Y017010D02*
X008726Y017010D01*
X008825Y016911D02*
X007529Y016911D01*
X007264Y016911D02*
X007167Y016911D01*
X007167Y017010D02*
X007264Y017010D01*
X007264Y017108D02*
X007167Y017108D01*
X007167Y017207D02*
X007264Y017207D01*
X007264Y017305D02*
X007167Y017305D01*
X006902Y016911D02*
X006090Y016911D01*
X006090Y016813D02*
X009035Y016813D01*
X008570Y015631D02*
X008470Y015631D01*
X008470Y015532D02*
X008570Y015532D01*
X008570Y015434D02*
X008470Y015434D01*
X008470Y015335D02*
X008570Y015335D01*
X008570Y015237D02*
X008470Y015237D01*
X008470Y015138D02*
X008570Y015138D01*
X007010Y014941D02*
X006910Y014941D01*
X006910Y014843D02*
X007010Y014843D01*
X007010Y014744D02*
X006910Y014744D01*
X006910Y014646D02*
X007010Y014646D01*
X007010Y014547D02*
X006910Y014547D01*
X006910Y014449D02*
X007010Y014449D01*
X006485Y013070D02*
X006420Y013070D01*
X005980Y013070D02*
X005915Y013070D01*
X005910Y012971D02*
X005817Y012971D01*
X003700Y013700D02*
X003100Y014300D01*
X003100Y016800D01*
X003600Y017300D01*
X003600Y017600D01*
X003110Y017601D02*
X002637Y017601D01*
X002619Y017699D02*
X003110Y017699D01*
X003110Y017798D02*
X002602Y017798D01*
X002557Y017896D02*
X003110Y017896D01*
X003114Y017995D02*
X002500Y017995D01*
X002654Y017502D02*
X003110Y017502D01*
X003110Y017404D02*
X002637Y017404D01*
X002620Y017305D02*
X003110Y017305D01*
X003113Y017207D02*
X002603Y017207D01*
X002559Y017108D02*
X003097Y017108D01*
X002998Y017010D02*
X002502Y017010D01*
X002445Y016911D02*
X002900Y016911D01*
X002880Y016813D02*
X002343Y016813D01*
X002226Y016714D02*
X002880Y016714D01*
X002880Y016616D02*
X002018Y016616D01*
X003320Y016123D02*
X003384Y016123D01*
X003320Y016025D02*
X005380Y016025D01*
X005380Y015926D02*
X003320Y015926D01*
X003320Y015828D02*
X005380Y015828D01*
X005380Y015729D02*
X003320Y015729D01*
X003320Y015631D02*
X005380Y015631D01*
X004215Y016320D02*
X004013Y016320D01*
X004090Y016419D02*
X004130Y016419D01*
X004130Y016517D02*
X004090Y016517D01*
X003719Y017108D02*
X006714Y017108D01*
X006669Y017207D02*
X005899Y017207D01*
X005998Y017305D02*
X006644Y017305D01*
X006786Y017010D02*
X006071Y017010D01*
X006976Y010903D02*
X007424Y010903D01*
X007325Y010804D02*
X007075Y010804D01*
X007134Y010706D02*
X007266Y010706D01*
X007225Y010607D02*
X007175Y010607D01*
X007180Y010509D02*
X007220Y010509D01*
X007220Y010410D02*
X007180Y010410D01*
X007141Y010312D02*
X007259Y010312D01*
X007308Y010213D02*
X007092Y010213D01*
X006993Y010115D02*
X007407Y010115D01*
X006454Y009918D02*
X006420Y009918D01*
X005980Y009918D02*
X005946Y009918D01*
X005980Y009031D02*
X005822Y009031D01*
X005910Y008933D02*
X005980Y008933D01*
X005980Y008046D02*
X005858Y008046D01*
X005874Y007948D02*
X005980Y007948D01*
X006420Y007948D02*
X006526Y007948D01*
X004747Y008342D02*
X003462Y008342D01*
X002880Y008342D02*
X002840Y008342D01*
X002840Y008440D02*
X002868Y008440D01*
X002880Y008243D02*
X002786Y008243D01*
X002880Y008145D02*
X002687Y008145D01*
X002589Y008046D02*
X002880Y008046D01*
X002880Y007948D02*
X002595Y007948D01*
X002553Y007990D02*
X002147Y007990D01*
X001860Y007703D01*
X001860Y007297D01*
X002147Y007010D01*
X002553Y007010D01*
X002840Y007297D01*
X002840Y007703D01*
X002553Y007990D01*
X002694Y007849D02*
X002880Y007849D01*
X002880Y007751D02*
X002792Y007751D01*
X002840Y007652D02*
X002880Y007652D01*
X002880Y007554D02*
X002840Y007554D01*
X002840Y007455D02*
X002880Y007455D01*
X002880Y007357D02*
X002840Y007357D01*
X002837Y007258D02*
X002801Y007258D01*
X002768Y007160D02*
X002702Y007160D01*
X002732Y007061D02*
X002604Y007061D01*
X002552Y006963D02*
X002732Y006963D01*
X002758Y006864D02*
X002651Y006864D01*
X002749Y006766D02*
X002814Y006766D01*
X002820Y006667D02*
X002942Y006667D01*
X002400Y006667D02*
X002300Y006667D01*
X002300Y006569D02*
X002400Y006569D01*
X002300Y006470D02*
X001840Y006470D01*
X001840Y006372D02*
X001880Y006372D01*
X001912Y006273D02*
X001816Y006273D01*
X001717Y006175D02*
X002011Y006175D01*
X002109Y006076D02*
X001619Y006076D01*
X001840Y006569D02*
X001880Y006569D01*
X001880Y006667D02*
X001840Y006667D01*
X001777Y006766D02*
X001951Y006766D01*
X002049Y006864D02*
X001679Y006864D01*
X001580Y006963D02*
X002148Y006963D01*
X002096Y007061D02*
X001604Y007061D01*
X001702Y007160D02*
X001998Y007160D01*
X001899Y007258D02*
X001801Y007258D01*
X001840Y007357D02*
X001860Y007357D01*
X001860Y007455D02*
X001840Y007455D01*
X001840Y007554D02*
X001860Y007554D01*
X001860Y007652D02*
X001840Y007652D01*
X001792Y007751D02*
X001908Y007751D01*
X002006Y007849D02*
X001694Y007849D01*
X001595Y007948D02*
X002105Y007948D01*
X002111Y008046D02*
X001589Y008046D01*
X001687Y008145D02*
X002013Y008145D01*
X001914Y008243D02*
X001786Y008243D01*
X001840Y008342D02*
X001860Y008342D01*
X001860Y008440D02*
X001840Y008440D01*
X001840Y008539D02*
X001860Y008539D01*
X001860Y008637D02*
X001840Y008637D01*
X001807Y008736D02*
X001893Y008736D01*
X001991Y008834D02*
X001709Y008834D01*
X001610Y008933D02*
X002090Y008933D01*
X002126Y009031D02*
X001574Y009031D01*
X002840Y009524D02*
X002956Y009524D01*
X002875Y009622D02*
X002840Y009622D01*
X002834Y009721D02*
X002822Y009721D01*
X003801Y007357D02*
X003850Y007357D01*
X002400Y006963D02*
X002300Y006963D01*
X002300Y006864D02*
X002400Y006864D01*
X002400Y006766D02*
X002300Y006766D01*
X003245Y004894D02*
X001062Y004894D01*
X001317Y004796D02*
X003286Y004796D01*
X003914Y004796D02*
X018183Y004796D01*
X018970Y005781D02*
X019042Y005781D01*
X019049Y005879D02*
X018970Y005879D01*
X019050Y005978D02*
X018887Y005978D01*
X018789Y006076D02*
X019050Y006076D01*
X018745Y013150D02*
X018718Y013150D01*
X018686Y013155D01*
X018668Y013150D01*
X018655Y013150D01*
X018655Y013455D01*
X018745Y013455D01*
X018745Y013545D01*
X019050Y013545D01*
X019050Y013455D01*
X018745Y013455D01*
X018745Y013150D01*
X018745Y013168D02*
X018655Y013168D01*
X018655Y013267D02*
X018745Y013267D01*
X018745Y013365D02*
X018655Y013365D01*
X018655Y013464D02*
X018180Y013464D01*
X018180Y013562D02*
X018244Y013562D01*
X018268Y013661D02*
X018153Y013661D01*
X018112Y013759D02*
X018320Y013759D01*
X018409Y013858D02*
X018021Y013858D01*
X017853Y013956D02*
X018263Y013956D01*
X018655Y013759D02*
X018745Y013759D01*
X018745Y013661D02*
X018655Y013661D01*
X018655Y013562D02*
X018745Y013562D01*
X018745Y013464D02*
X019050Y013464D01*
X018381Y013168D02*
X018047Y013168D01*
X018123Y013267D02*
X018303Y013267D01*
X018260Y013365D02*
X018164Y013365D01*
X019050Y015434D02*
X016344Y015434D01*
X016233Y015532D02*
X019050Y015532D01*
X019050Y015631D02*
X016037Y015631D01*
X013745Y015729D02*
X019050Y015729D01*
X019050Y015828D02*
X013693Y015828D01*
X013575Y015926D02*
X019050Y015926D01*
X019050Y016025D02*
X013245Y016025D01*
X013111Y016123D02*
X019050Y016123D01*
X019013Y017798D02*
X019027Y017798D01*
X007550Y005485D02*
X007450Y005485D01*
X007450Y005387D02*
X007550Y005387D01*
X007550Y005288D02*
X007450Y005288D01*
M02*
