G75*
G70*
%OFA0B0*%
%FSLAX24Y24*%
%IPPOS*%
%LPD*%
%AMOC8*
5,1,8,0,0,1.08239X$1,22.5*
%
%ADD10C,0.0000*%
%ADD11R,0.0433X0.0394*%
%ADD12R,0.0640X0.0640*%
%ADD13OC8,0.0640*%
%ADD14C,0.1033*%
%ADD15R,0.1033X0.1033*%
%ADD16C,0.0860*%
%ADD17R,0.0591X0.0551*%
%ADD18R,0.0591X0.0512*%
%ADD19R,0.0689X0.0276*%
%ADD20R,0.0800X0.0276*%
%ADD21R,0.0591X0.0315*%
%ADD22R,0.0394X0.0551*%
%ADD23R,0.0551X0.0315*%
%ADD24R,0.0610X0.0394*%
%ADD25C,0.1122*%
%ADD26R,0.0551X0.0551*%
%ADD27OC8,0.0560*%
%ADD28C,0.0620*%
%ADD29C,0.0160*%
%ADD30C,0.0396*%
%ADD31C,0.0700*%
%ADD32C,0.0320*%
%ADD33C,0.0100*%
D10*
X001600Y002933D02*
X017900Y002933D01*
X017973Y002935D01*
X018046Y002941D01*
X018119Y002950D01*
X018191Y002964D01*
X018262Y002981D01*
X018333Y003002D01*
X018402Y003026D01*
X018469Y003054D01*
X018536Y003086D01*
X018600Y003121D01*
X018662Y003159D01*
X018723Y003200D01*
X018781Y003245D01*
X018837Y003293D01*
X018890Y003343D01*
X018940Y003396D01*
X018988Y003452D01*
X019033Y003510D01*
X019074Y003571D01*
X019112Y003633D01*
X019147Y003697D01*
X019179Y003764D01*
X019207Y003831D01*
X019231Y003900D01*
X019252Y003971D01*
X019269Y004042D01*
X019283Y004114D01*
X019292Y004187D01*
X019298Y004260D01*
X019300Y004333D01*
X019300Y016033D01*
X017847Y015433D02*
X017849Y015475D01*
X017855Y015517D01*
X017865Y015559D01*
X017878Y015599D01*
X017896Y015638D01*
X017917Y015675D01*
X017941Y015709D01*
X017969Y015742D01*
X017999Y015772D01*
X018032Y015798D01*
X018067Y015822D01*
X018105Y015842D01*
X018144Y015858D01*
X018184Y015871D01*
X018226Y015880D01*
X018268Y015885D01*
X018311Y015886D01*
X018353Y015883D01*
X018395Y015876D01*
X018436Y015865D01*
X018476Y015850D01*
X018514Y015832D01*
X018551Y015810D01*
X018585Y015785D01*
X018617Y015757D01*
X018645Y015726D01*
X018671Y015692D01*
X018694Y015656D01*
X018713Y015619D01*
X018729Y015579D01*
X018741Y015538D01*
X018749Y015497D01*
X018753Y015454D01*
X018753Y015412D01*
X018749Y015369D01*
X018741Y015328D01*
X018729Y015287D01*
X018713Y015247D01*
X018694Y015210D01*
X018671Y015174D01*
X018645Y015140D01*
X018617Y015109D01*
X018585Y015081D01*
X018551Y015056D01*
X018514Y015034D01*
X018476Y015016D01*
X018436Y015001D01*
X018395Y014990D01*
X018353Y014983D01*
X018311Y014980D01*
X018268Y014981D01*
X018226Y014986D01*
X018184Y014995D01*
X018144Y015008D01*
X018105Y015024D01*
X018067Y015044D01*
X018032Y015068D01*
X017999Y015094D01*
X017969Y015124D01*
X017941Y015157D01*
X017917Y015191D01*
X017896Y015228D01*
X017878Y015267D01*
X017865Y015307D01*
X017855Y015349D01*
X017849Y015391D01*
X017847Y015433D01*
X019300Y016033D02*
X019298Y016106D01*
X019292Y016179D01*
X019283Y016252D01*
X019269Y016324D01*
X019252Y016395D01*
X019231Y016466D01*
X019207Y016535D01*
X019179Y016602D01*
X019147Y016669D01*
X019112Y016733D01*
X019074Y016795D01*
X019033Y016856D01*
X018988Y016914D01*
X018940Y016970D01*
X018890Y017023D01*
X018837Y017073D01*
X018781Y017121D01*
X018723Y017166D01*
X018662Y017207D01*
X018600Y017245D01*
X018536Y017280D01*
X018469Y017312D01*
X018402Y017340D01*
X018333Y017364D01*
X018262Y017385D01*
X018191Y017402D01*
X018119Y017416D01*
X018046Y017425D01*
X017973Y017431D01*
X017900Y017433D01*
X001600Y017433D01*
X001527Y017431D01*
X001454Y017425D01*
X001381Y017416D01*
X001309Y017402D01*
X001238Y017385D01*
X001167Y017364D01*
X001098Y017340D01*
X001031Y017312D01*
X000964Y017280D01*
X000900Y017245D01*
X000838Y017207D01*
X000777Y017166D01*
X000719Y017121D01*
X000663Y017073D01*
X000610Y017023D01*
X000560Y016970D01*
X000512Y016914D01*
X000467Y016856D01*
X000426Y016795D01*
X000388Y016733D01*
X000353Y016669D01*
X000321Y016602D01*
X000293Y016535D01*
X000269Y016466D01*
X000248Y016395D01*
X000231Y016324D01*
X000217Y016252D01*
X000208Y016179D01*
X000202Y016106D01*
X000200Y016033D01*
X000200Y004333D01*
X000202Y004260D01*
X000208Y004187D01*
X000217Y004114D01*
X000231Y004042D01*
X000248Y003971D01*
X000269Y003900D01*
X000293Y003831D01*
X000321Y003764D01*
X000353Y003697D01*
X000388Y003633D01*
X000426Y003571D01*
X000467Y003510D01*
X000512Y003452D01*
X000560Y003396D01*
X000610Y003343D01*
X000663Y003293D01*
X000719Y003245D01*
X000777Y003200D01*
X000838Y003159D01*
X000900Y003121D01*
X000964Y003086D01*
X001031Y003054D01*
X001098Y003026D01*
X001167Y003002D01*
X001238Y002981D01*
X001309Y002964D01*
X001381Y002950D01*
X001454Y002941D01*
X001527Y002935D01*
X001600Y002933D01*
X001070Y015933D02*
X001072Y015983D01*
X001078Y016033D01*
X001088Y016082D01*
X001102Y016130D01*
X001119Y016177D01*
X001140Y016222D01*
X001165Y016266D01*
X001193Y016307D01*
X001225Y016346D01*
X001259Y016383D01*
X001296Y016417D01*
X001336Y016447D01*
X001378Y016474D01*
X001422Y016498D01*
X001468Y016519D01*
X001515Y016535D01*
X001563Y016548D01*
X001613Y016557D01*
X001662Y016562D01*
X001713Y016563D01*
X001763Y016560D01*
X001812Y016553D01*
X001861Y016542D01*
X001909Y016527D01*
X001955Y016509D01*
X002000Y016487D01*
X002043Y016461D01*
X002084Y016432D01*
X002123Y016400D01*
X002159Y016365D01*
X002191Y016327D01*
X002221Y016287D01*
X002248Y016244D01*
X002271Y016200D01*
X002290Y016154D01*
X002306Y016106D01*
X002318Y016057D01*
X002326Y016008D01*
X002330Y015958D01*
X002330Y015908D01*
X002326Y015858D01*
X002318Y015809D01*
X002306Y015760D01*
X002290Y015712D01*
X002271Y015666D01*
X002248Y015622D01*
X002221Y015579D01*
X002191Y015539D01*
X002159Y015501D01*
X002123Y015466D01*
X002084Y015434D01*
X002043Y015405D01*
X002000Y015379D01*
X001955Y015357D01*
X001909Y015339D01*
X001861Y015324D01*
X001812Y015313D01*
X001763Y015306D01*
X001713Y015303D01*
X001662Y015304D01*
X001613Y015309D01*
X001563Y015318D01*
X001515Y015331D01*
X001468Y015347D01*
X001422Y015368D01*
X001378Y015392D01*
X001336Y015419D01*
X001296Y015449D01*
X001259Y015483D01*
X001225Y015520D01*
X001193Y015559D01*
X001165Y015600D01*
X001140Y015644D01*
X001119Y015689D01*
X001102Y015736D01*
X001088Y015784D01*
X001078Y015833D01*
X001072Y015883D01*
X001070Y015933D01*
D11*
X012950Y014218D03*
X012950Y013549D03*
D12*
X014000Y016233D03*
X005600Y015033D03*
X003600Y016033D03*
X001350Y011933D03*
X004500Y004133D03*
X010500Y004133D03*
X011500Y004133D03*
D13*
X012500Y004133D03*
X013500Y004133D03*
X014500Y004133D03*
X015500Y004133D03*
X016500Y004133D03*
X017500Y004133D03*
X018500Y004133D03*
X009500Y004133D03*
X008500Y004133D03*
X007500Y004133D03*
X006500Y004133D03*
X005500Y004133D03*
X002350Y004933D03*
X001350Y004933D03*
X001350Y005933D03*
X002350Y005933D03*
X002350Y006933D03*
X001350Y006933D03*
X001350Y007933D03*
X002350Y007933D03*
X002350Y008933D03*
X001350Y008933D03*
X001350Y009933D03*
X002350Y009933D03*
X002350Y010933D03*
X001350Y010933D03*
X002350Y011933D03*
X003600Y015033D03*
X004600Y015033D03*
X004600Y016033D03*
X005600Y016033D03*
X013000Y016233D03*
D14*
X011640Y013483D03*
X010080Y013483D03*
X008520Y013483D03*
D15*
X006960Y013483D03*
D16*
X007216Y015833D03*
X009184Y015833D03*
D17*
X017883Y011170D03*
D18*
X017883Y006721D03*
D19*
X017923Y007213D03*
X017923Y007627D03*
X017923Y008493D03*
X017923Y009359D03*
X017923Y009792D03*
X017923Y010225D03*
D20*
X017923Y008926D03*
X017923Y008060D03*
D21*
X014891Y006603D03*
D22*
X014301Y006721D03*
D23*
X014635Y011288D03*
D24*
X013671Y011150D03*
D25*
X015820Y013386D03*
X018694Y012992D03*
X015820Y015433D03*
X015820Y016772D03*
X018694Y016890D03*
D26*
X013800Y014781D03*
X013800Y013285D03*
D27*
X004300Y012633D03*
X004300Y009633D03*
X004300Y008633D03*
X004300Y005633D03*
D28*
X005700Y005933D03*
X006700Y005933D03*
X007700Y005933D03*
X008700Y005933D03*
X009700Y005933D03*
X010700Y005933D03*
X011700Y005933D03*
X012700Y005933D03*
X013700Y005933D03*
X014700Y005933D03*
X015700Y005933D03*
X016700Y005933D03*
X017700Y005933D03*
X018700Y005933D03*
X012700Y007933D03*
X011700Y007933D03*
X010700Y007933D03*
X009700Y007933D03*
X008700Y007933D03*
X007700Y007933D03*
X006700Y007933D03*
X005700Y007933D03*
X005700Y006933D03*
X005700Y008933D03*
X006700Y008933D03*
X007700Y008933D03*
X008700Y008933D03*
X009700Y008933D03*
X010700Y008933D03*
X011700Y008933D03*
X012700Y008933D03*
X012700Y011933D03*
X013700Y011933D03*
X014700Y011933D03*
X015700Y011933D03*
X016700Y011933D03*
X017700Y011933D03*
X018700Y011933D03*
X011700Y011933D03*
X010700Y011933D03*
X009700Y011933D03*
X008700Y011933D03*
X007700Y011933D03*
X006700Y011933D03*
X005700Y011933D03*
X005700Y010933D03*
X005700Y009933D03*
D29*
X013800Y013285D02*
X014700Y014233D01*
X016300Y014233D01*
X016800Y013733D01*
X016800Y013333D01*
X017200Y013033D02*
X017200Y014333D01*
X016900Y014633D01*
X014000Y014633D01*
X013852Y014781D01*
X013800Y014781D01*
X014000Y014681D01*
X014000Y014633D01*
X014000Y014681D02*
X014000Y016233D01*
X013400Y016833D01*
X009800Y016833D01*
X009200Y016233D01*
X009200Y015833D01*
X009184Y015833D02*
X009184Y015449D01*
X010100Y014533D01*
X010100Y013503D01*
X010080Y013483D01*
X011640Y013483D01*
X011700Y013543D01*
X012950Y014218D02*
X013265Y014183D01*
X013400Y014033D01*
X016600Y012633D02*
X016800Y012633D01*
X017200Y013033D01*
X018700Y011933D02*
X018700Y011133D01*
X018500Y010933D01*
X018300Y010933D01*
X017747Y011033D01*
X017883Y011170D01*
X017923Y008926D02*
X017193Y008926D01*
X016500Y008233D01*
X016500Y006333D01*
X016700Y005933D01*
X015000Y006694D02*
X015000Y006883D01*
X014400Y007833D01*
X015000Y006694D02*
X014891Y006603D01*
X017400Y006733D02*
X017612Y006721D01*
X017883Y006721D01*
X017200Y007833D02*
X017574Y008060D01*
X017923Y008060D01*
X008500Y004133D02*
X007900Y004733D01*
X007100Y004733D01*
X006500Y004133D01*
X004300Y013533D02*
X005100Y014333D01*
X005100Y015633D01*
X005500Y016033D01*
X005600Y016033D01*
D30*
X004300Y013533D03*
X010800Y010233D03*
X010000Y009833D03*
X009100Y009533D03*
X012500Y009833D03*
X013310Y010124D03*
X014400Y010633D03*
X015300Y011333D03*
X015800Y011333D03*
X018300Y010933D03*
X016600Y012633D03*
X016800Y013333D03*
X013400Y014033D03*
X012500Y013133D03*
X012200Y011483D03*
X013500Y009333D03*
X014400Y007833D03*
X013550Y007633D03*
X012950Y006933D03*
X011000Y007083D03*
X010200Y006633D03*
X009200Y006683D03*
X010000Y004733D03*
X014000Y004533D03*
X017400Y006733D03*
X017200Y007833D03*
X015000Y006883D03*
X003700Y008233D03*
X003200Y008233D03*
X003200Y007033D03*
X003100Y005433D03*
X003700Y005433D03*
X003600Y003433D03*
X003700Y009533D03*
D31*
X014539Y016772D02*
X015820Y016772D01*
D32*
X014539Y016772D02*
X014000Y016233D01*
D33*
X014050Y016231D02*
X015357Y016231D01*
X015350Y016236D02*
X015424Y016179D01*
X015504Y016133D01*
X014900Y016133D01*
X014300Y014633D01*
X014300Y014533D01*
X014226Y014533D01*
X014226Y014731D01*
X013850Y014731D01*
X013850Y014831D01*
X014226Y014831D01*
X014226Y015077D01*
X014215Y015115D01*
X014196Y015149D01*
X014168Y015177D01*
X014133Y015197D01*
X014095Y015207D01*
X013850Y015207D01*
X013850Y014831D01*
X013750Y014831D01*
X013750Y014731D01*
X013374Y014731D01*
X013374Y014533D01*
X013288Y014533D01*
X013237Y014585D01*
X012663Y014585D01*
X012612Y014533D01*
X012100Y014533D01*
X012100Y013966D01*
X012081Y013986D01*
X012011Y014039D01*
X011936Y014083D01*
X011855Y014116D01*
X011770Y014139D01*
X011690Y014149D01*
X011690Y013533D01*
X011590Y013533D01*
X011590Y013433D01*
X010130Y013433D01*
X010130Y013533D01*
X010746Y013533D01*
X010735Y013614D01*
X010713Y013698D01*
X010679Y013779D01*
X010636Y013855D01*
X010582Y013924D01*
X010521Y013986D01*
X010451Y014039D01*
X010376Y014083D01*
X010295Y014116D01*
X010210Y014139D01*
X010130Y014149D01*
X010130Y013533D01*
X010030Y013533D01*
X010030Y014149D01*
X009950Y014139D01*
X009865Y014116D01*
X009784Y014083D01*
X009709Y014039D01*
X009640Y013986D01*
X008600Y015233D01*
X008600Y017183D01*
X015239Y017183D01*
X015227Y017168D01*
X015181Y017087D01*
X015145Y017001D01*
X015121Y016911D01*
X015109Y016822D01*
X015770Y016822D01*
X015770Y016722D01*
X015109Y016722D01*
X015121Y016633D01*
X015145Y016543D01*
X015181Y016457D01*
X015227Y016376D01*
X015284Y016302D01*
X015350Y016236D01*
X015263Y016329D02*
X014470Y016329D01*
X014470Y016283D02*
X014470Y016573D01*
X014460Y016611D01*
X014440Y016645D01*
X014412Y016673D01*
X014378Y016693D01*
X014340Y016703D01*
X014050Y016703D01*
X014050Y016283D01*
X014470Y016283D01*
X014470Y016183D02*
X014050Y016183D01*
X014050Y015763D01*
X014340Y015763D01*
X014378Y015774D01*
X014412Y015793D01*
X014440Y015821D01*
X014460Y015855D01*
X014470Y015894D01*
X014470Y016183D01*
X014470Y016132D02*
X014900Y016132D01*
X014860Y016034D02*
X014470Y016034D01*
X014470Y015935D02*
X014821Y015935D01*
X014781Y015837D02*
X014449Y015837D01*
X014742Y015738D02*
X009756Y015738D01*
X009750Y015698D02*
X009764Y015785D01*
X009233Y015785D01*
X009233Y015882D01*
X009764Y015882D01*
X009750Y015969D01*
X009722Y016056D01*
X009680Y016137D01*
X009627Y016211D01*
X009562Y016276D01*
X009488Y016329D01*
X012510Y016329D01*
X012510Y016231D02*
X009607Y016231D01*
X009683Y016132D02*
X012510Y016132D01*
X012510Y016034D02*
X009729Y016034D01*
X009755Y015935D02*
X012605Y015935D01*
X012510Y016030D02*
X012797Y015743D01*
X013203Y015743D01*
X013490Y016030D01*
X013490Y016436D01*
X013203Y016723D01*
X012797Y016723D01*
X012510Y016436D01*
X012510Y016030D01*
X012704Y015837D02*
X009233Y015837D01*
X009233Y015882D02*
X009136Y015882D01*
X009136Y016413D01*
X009048Y016399D01*
X008962Y016371D01*
X008880Y016329D01*
X008600Y016329D01*
X008600Y016231D02*
X008762Y016231D01*
X008742Y016211D02*
X008688Y016137D01*
X008647Y016056D01*
X008619Y015969D01*
X008605Y015882D01*
X009136Y015882D01*
X009136Y015785D01*
X009233Y015785D01*
X009233Y015254D01*
X009320Y015268D01*
X009407Y015296D01*
X009488Y015337D01*
X009562Y015391D01*
X009627Y015455D01*
X009680Y015529D01*
X009722Y015611D01*
X009750Y015698D01*
X009731Y015640D02*
X014703Y015640D01*
X014663Y015541D02*
X009686Y015541D01*
X009614Y015443D02*
X014624Y015443D01*
X014584Y015344D02*
X009498Y015344D01*
X009233Y015344D02*
X009136Y015344D01*
X009136Y015254D02*
X009136Y015785D01*
X008605Y015785D01*
X008619Y015698D01*
X008647Y015611D01*
X008688Y015529D01*
X008742Y015455D01*
X008806Y015391D01*
X008880Y015337D01*
X008962Y015296D01*
X009048Y015268D01*
X009136Y015254D01*
X009136Y015443D02*
X009233Y015443D01*
X009233Y015541D02*
X009136Y015541D01*
X009136Y015640D02*
X009233Y015640D01*
X009233Y015738D02*
X009136Y015738D01*
X009136Y015837D02*
X008600Y015837D01*
X008600Y015935D02*
X008613Y015935D01*
X008600Y016034D02*
X008640Y016034D01*
X008600Y016132D02*
X008686Y016132D01*
X008742Y016211D02*
X008806Y016276D01*
X008880Y016329D01*
X009136Y016329D02*
X009233Y016329D01*
X009233Y016413D02*
X009320Y016399D01*
X009407Y016371D01*
X009488Y016329D01*
X009233Y016413D02*
X009233Y015882D01*
X009233Y015935D02*
X009136Y015935D01*
X009136Y016034D02*
X009233Y016034D01*
X009233Y016132D02*
X009136Y016132D01*
X009136Y016231D02*
X009233Y016231D01*
X008600Y016428D02*
X012510Y016428D01*
X012600Y016526D02*
X008600Y016526D01*
X008600Y016625D02*
X012699Y016625D01*
X013301Y016625D02*
X013548Y016625D01*
X013540Y016611D02*
X013530Y016573D01*
X013530Y016283D01*
X013950Y016283D01*
X013950Y016183D01*
X014050Y016183D01*
X014050Y016283D01*
X013950Y016283D01*
X013950Y016703D01*
X013660Y016703D01*
X013622Y016693D01*
X013588Y016673D01*
X013560Y016645D01*
X013540Y016611D01*
X013530Y016526D02*
X013400Y016526D01*
X013490Y016428D02*
X013530Y016428D01*
X013530Y016329D02*
X013490Y016329D01*
X013490Y016231D02*
X013950Y016231D01*
X013950Y016183D02*
X013530Y016183D01*
X013530Y015894D01*
X013540Y015855D01*
X013560Y015821D01*
X013588Y015793D01*
X013622Y015774D01*
X013660Y015763D01*
X013950Y015763D01*
X013950Y016183D01*
X013950Y016132D02*
X014050Y016132D01*
X014050Y016034D02*
X013950Y016034D01*
X013950Y015935D02*
X014050Y015935D01*
X014050Y015837D02*
X013950Y015837D01*
X013551Y015837D02*
X013296Y015837D01*
X013395Y015935D02*
X013530Y015935D01*
X013530Y016034D02*
X013490Y016034D01*
X013490Y016132D02*
X013530Y016132D01*
X013950Y016329D02*
X014050Y016329D01*
X014050Y016428D02*
X013950Y016428D01*
X013950Y016526D02*
X014050Y016526D01*
X014050Y016625D02*
X013950Y016625D01*
X014452Y016625D02*
X015123Y016625D01*
X015152Y016526D02*
X014470Y016526D01*
X014470Y016428D02*
X015197Y016428D01*
X015770Y016723D02*
X008600Y016723D01*
X008600Y016822D02*
X015770Y016822D01*
X015198Y017117D02*
X008600Y017117D01*
X008600Y017019D02*
X015152Y017019D01*
X015123Y016920D02*
X008600Y016920D01*
X008600Y015738D02*
X008612Y015738D01*
X008600Y015640D02*
X008637Y015640D01*
X008600Y015541D02*
X008682Y015541D01*
X008754Y015443D02*
X008600Y015443D01*
X008600Y015344D02*
X008871Y015344D01*
X008672Y015147D02*
X013403Y015147D01*
X013404Y015149D02*
X013385Y015115D01*
X013374Y015077D01*
X013374Y014831D01*
X013750Y014831D01*
X013750Y015207D01*
X013505Y015207D01*
X013467Y015197D01*
X013432Y015177D01*
X013404Y015149D01*
X013374Y015049D02*
X008754Y015049D01*
X008836Y014950D02*
X013374Y014950D01*
X013374Y014852D02*
X008918Y014852D01*
X009000Y014753D02*
X013750Y014753D01*
X013750Y014852D02*
X013850Y014852D01*
X013850Y014950D02*
X013750Y014950D01*
X013750Y015049D02*
X013850Y015049D01*
X013850Y015147D02*
X013750Y015147D01*
X014197Y015147D02*
X014506Y015147D01*
X014466Y015049D02*
X014226Y015049D01*
X014226Y014950D02*
X014427Y014950D01*
X014387Y014852D02*
X014226Y014852D01*
X014348Y014753D02*
X013850Y014753D01*
X014226Y014655D02*
X014309Y014655D01*
X014300Y014556D02*
X014226Y014556D01*
X013374Y014556D02*
X013265Y014556D01*
X013374Y014655D02*
X009082Y014655D01*
X009164Y014556D02*
X012635Y014556D01*
X012100Y014458D02*
X009246Y014458D01*
X009328Y014359D02*
X012100Y014359D01*
X012100Y014261D02*
X009410Y014261D01*
X009492Y014162D02*
X012100Y014162D01*
X012100Y014064D02*
X011968Y014064D01*
X011690Y014064D02*
X011590Y014064D01*
X011590Y014149D02*
X011510Y014139D01*
X011425Y014116D01*
X011344Y014083D01*
X011269Y014039D01*
X011199Y013986D01*
X011138Y013924D01*
X011084Y013855D01*
X011041Y013779D01*
X011007Y013698D01*
X010985Y013614D01*
X010974Y013533D01*
X011590Y013533D01*
X011590Y014149D01*
X011590Y013965D02*
X011690Y013965D01*
X011690Y013867D02*
X011590Y013867D01*
X011590Y013768D02*
X011690Y013768D01*
X011690Y013670D02*
X011590Y013670D01*
X011590Y013571D02*
X011690Y013571D01*
X011590Y013473D02*
X010130Y013473D01*
X010130Y013571D02*
X010030Y013571D01*
X010030Y013670D02*
X010130Y013670D01*
X010130Y013768D02*
X010030Y013768D01*
X010030Y013867D02*
X010130Y013867D01*
X010130Y013965D02*
X010030Y013965D01*
X010030Y014064D02*
X010130Y014064D01*
X010408Y014064D02*
X011312Y014064D01*
X011179Y013965D02*
X010541Y013965D01*
X010626Y013867D02*
X011094Y013867D01*
X011036Y013768D02*
X010684Y013768D01*
X010720Y013670D02*
X011000Y013670D01*
X010979Y013571D02*
X010741Y013571D01*
X009752Y014064D02*
X009575Y014064D01*
X009300Y013933D02*
X008800Y014433D01*
X006100Y014433D01*
X004800Y013133D01*
X002350Y013133D01*
X001350Y011933D01*
X002350Y011933D02*
X002400Y011883D01*
X004150Y011883D01*
X004700Y012433D01*
X006450Y014233D01*
X007500Y014233D01*
X007800Y013933D01*
X007800Y012983D01*
X008150Y012583D01*
X012100Y012583D01*
X012700Y011933D01*
X012950Y011483D02*
X013200Y011733D01*
X013200Y012133D01*
X013600Y012533D01*
X014300Y012533D01*
X014700Y012133D01*
X014700Y011933D01*
X015500Y012033D02*
X015700Y011933D01*
X015500Y012033D02*
X014750Y012783D01*
X009550Y012783D01*
X009300Y013033D01*
X009300Y013933D01*
X007900Y012383D02*
X007550Y012783D01*
X005500Y012783D01*
X004150Y011433D01*
X002000Y011433D01*
X001500Y010933D01*
X001350Y010933D01*
X001150Y010433D02*
X000850Y010133D01*
X000850Y009783D01*
X001200Y009433D01*
X001600Y009433D01*
X001850Y009183D01*
X001850Y008783D01*
X002350Y008283D01*
X002350Y007933D01*
X001850Y007733D02*
X002100Y007433D01*
X004400Y007433D01*
X005400Y008433D01*
X011900Y008433D01*
X012200Y008133D01*
X012200Y007033D01*
X012700Y006533D01*
X012700Y005933D01*
X012200Y005733D02*
X012200Y006533D01*
X011300Y007433D01*
X005400Y007433D01*
X004600Y006633D01*
X002700Y006633D01*
X002500Y006833D01*
X002450Y006833D01*
X002350Y006933D01*
X002150Y006433D02*
X001650Y006933D01*
X001350Y006933D01*
X000900Y006433D02*
X000600Y006733D01*
X000600Y012933D01*
X002700Y015033D01*
X003600Y015033D01*
X008600Y015246D02*
X014545Y015246D01*
X012950Y013549D02*
X012850Y013183D01*
X012500Y013133D01*
X011300Y012383D02*
X007900Y012383D01*
X007700Y012033D02*
X007150Y012583D01*
X005600Y012583D01*
X003450Y010433D01*
X001150Y010433D01*
X001350Y009933D02*
X001600Y009933D01*
X002100Y009433D01*
X003100Y009433D01*
X004100Y010433D01*
X006300Y010433D01*
X006800Y009933D01*
X009400Y009933D01*
X009800Y009433D01*
X012900Y009433D01*
X013200Y009133D01*
X013200Y007333D01*
X013700Y006833D01*
X013700Y005933D01*
X013500Y005433D02*
X013200Y005733D01*
X013200Y006633D01*
X012950Y006933D01*
X013550Y007633D02*
X013500Y007733D01*
X013500Y009333D01*
X013200Y009733D02*
X014600Y009733D01*
X015200Y010333D01*
X016400Y010333D01*
X017374Y009359D01*
X017400Y009333D01*
X017848Y009333D01*
X017923Y009359D01*
X017374Y009359D02*
X017076Y009259D01*
X016150Y008433D01*
X016150Y005083D01*
X015900Y004833D01*
X015200Y004833D01*
X014500Y004133D01*
X015000Y004333D02*
X015300Y004633D01*
X016000Y004633D01*
X016500Y004133D01*
X016700Y004133D01*
X017200Y004733D01*
X017200Y006233D01*
X016750Y006683D01*
X016750Y007983D01*
X017259Y008493D01*
X017923Y008493D01*
X017863Y008433D01*
X018600Y007833D02*
X018400Y007633D01*
X018330Y007633D01*
X018200Y007631D01*
X018200Y007627D01*
X018207Y007627D01*
X018550Y007433D01*
X018550Y006433D01*
X018200Y006133D01*
X018200Y004533D01*
X018000Y004333D01*
X018000Y003733D01*
X017800Y003533D01*
X015900Y003533D01*
X015500Y004133D01*
X015000Y004333D02*
X015000Y003633D01*
X014700Y003333D01*
X011500Y003333D01*
X011000Y003733D01*
X011000Y004533D01*
X011600Y005133D01*
X011600Y005333D01*
X011200Y005733D01*
X011200Y006233D01*
X010400Y007033D01*
X006800Y007033D01*
X005700Y005933D01*
X006100Y005233D02*
X006500Y005633D01*
X006700Y005933D01*
X007700Y005933D02*
X008450Y006683D01*
X009200Y006683D01*
X009500Y006433D02*
X009900Y006433D01*
X010100Y006633D01*
X010200Y006633D01*
X009500Y006433D02*
X009200Y006133D01*
X009200Y005533D01*
X008700Y005033D01*
X007000Y005033D01*
X006600Y004633D01*
X005300Y004633D01*
X005000Y004333D01*
X005000Y003733D01*
X004700Y003433D01*
X004200Y003433D01*
X003800Y003833D01*
X001700Y003833D01*
X001350Y004183D01*
X001350Y004933D01*
X001850Y004683D02*
X002200Y004333D01*
X003700Y004333D01*
X004600Y005133D01*
X004700Y005233D01*
X006100Y005233D01*
X006500Y004833D02*
X005000Y004833D01*
X004500Y004333D01*
X004500Y004133D01*
X005500Y004133D02*
X006100Y003533D01*
X008700Y003533D01*
X009000Y003833D01*
X009000Y004833D01*
X009700Y005533D01*
X009700Y005933D01*
X010700Y005933D02*
X011200Y005433D01*
X011200Y005033D01*
X010500Y004333D01*
X010500Y004133D01*
X010000Y003833D02*
X010000Y004733D01*
X008700Y005533D02*
X008400Y005233D01*
X006900Y005233D01*
X006500Y004833D01*
X008700Y005533D02*
X008700Y005933D01*
X006700Y007233D02*
X005900Y006433D01*
X002150Y006433D01*
X002350Y006133D02*
X003000Y006133D01*
X003700Y005433D01*
X003100Y005433D02*
X002150Y005433D01*
X001850Y005733D01*
X001850Y006083D01*
X001500Y006433D01*
X000900Y006433D01*
X001350Y005933D02*
X001350Y005683D01*
X001850Y005183D01*
X001850Y004683D01*
X001400Y005933D02*
X001350Y005933D01*
X002350Y005933D02*
X002350Y006133D01*
X003200Y007033D02*
X004500Y007033D01*
X005400Y007933D01*
X005700Y007933D01*
X005100Y008633D02*
X004300Y007833D01*
X003500Y007833D01*
X003200Y008233D01*
X003700Y008233D02*
X003700Y009533D01*
X003300Y009933D02*
X004800Y011433D01*
X006400Y011433D01*
X007600Y010233D01*
X010800Y010233D01*
X010000Y009833D02*
X012500Y009833D01*
X013200Y009733D02*
X012000Y010833D01*
X007700Y010833D01*
X006600Y011933D01*
X006700Y011933D01*
X007200Y011733D02*
X007200Y012183D01*
X007000Y012383D01*
X006150Y012383D01*
X005700Y011933D01*
X007200Y011733D02*
X007800Y011133D01*
X012800Y011133D01*
X013600Y010433D01*
X013900Y010133D01*
X014400Y010133D01*
X015000Y010733D01*
X016700Y010733D01*
X016900Y010533D01*
X018400Y010533D01*
X018600Y010333D01*
X018600Y007833D01*
X018200Y007631D02*
X017923Y007627D01*
X015700Y005933D02*
X015700Y005833D01*
X015300Y005433D01*
X014400Y005433D01*
X014000Y005033D01*
X012900Y005033D01*
X012200Y005733D01*
X011700Y005933D02*
X013500Y004133D01*
X014000Y003833D02*
X013700Y003533D01*
X012100Y003533D01*
X011500Y004133D01*
X010000Y003833D02*
X009400Y003233D01*
X003900Y003233D01*
X003700Y003433D01*
X003600Y003433D01*
X006700Y007233D02*
X010700Y007233D01*
X011000Y007083D01*
X014000Y005433D02*
X014500Y005933D01*
X014700Y005933D01*
X014000Y005433D02*
X013500Y005433D01*
X014000Y004533D02*
X014000Y003833D01*
X005100Y008633D02*
X005100Y009133D01*
X005400Y009433D01*
X009000Y009433D01*
X009100Y009533D01*
X005700Y009933D02*
X005538Y009896D01*
X005339Y009896D01*
X004300Y008857D01*
X004300Y008633D01*
X001850Y008133D02*
X001850Y007733D01*
X001850Y008133D02*
X001350Y008583D01*
X001350Y008933D01*
X002350Y009933D02*
X003300Y009933D01*
X007700Y011933D02*
X007700Y012033D01*
X009700Y011933D02*
X010100Y011483D01*
X012200Y011483D01*
X012950Y011483D01*
X011700Y011933D02*
X011300Y012383D01*
X014635Y011288D02*
X014881Y011233D01*
X015300Y011333D01*
X015800Y011333D02*
X016500Y011933D01*
X016700Y011933D01*
X017500Y011833D02*
X017600Y011833D01*
X017700Y011933D01*
X017500Y011833D02*
X016600Y010933D01*
X014700Y010933D01*
X014400Y010633D01*
X015100Y010533D02*
X014500Y009933D01*
X014212Y009924D01*
X013510Y009924D01*
X013310Y010124D01*
X015100Y010533D02*
X016500Y010533D01*
X017200Y009833D01*
X017881Y009833D01*
X017923Y009792D01*
M02*
