%
M48
M72
T01C0.0236
T02C0.0320
T03C0.0380
T04C0.0394
T05C0.0400
T06C0.0689
T07C0.0748
T08C0.0906
T09C0.1260
%
T01
X3600Y5000
X3700Y7000
X3100Y7000
X3200Y8600
X3200Y9800
X3700Y9800
X3700Y11100
X4300Y15100
X9100Y11100
X10000Y11400
X10800Y11800
X12200Y13050
X13310Y11690
X13500Y10900
X12500Y11400
X14400Y12200
X15300Y12900
X15800Y12900
X16600Y14200
X16800Y14900
X18300Y12500
X17200Y9400
X17400Y8300
X15000Y8450
X14400Y9400
X13550Y9200
X12950Y8500
X11000Y8650
X10200Y8200
X9200Y8250
X10000Y6300
X14000Y6100
X12500Y14700
X13400Y15600
T02
X4300Y14200
X4300Y11200
X4300Y10200
X4300Y7200
T03
X5700Y7500
X5700Y8500
X5700Y9500
X5700Y10500
X5700Y11500
X6700Y10500
X6700Y9500
X7700Y9500
X7700Y10500
X8700Y10500
X8700Y9500
X9700Y9500
X9700Y10500
X10700Y10500
X10700Y9500
X11700Y9500
X11700Y10500
X12700Y10500
X12700Y9500
X12700Y7500
X11700Y7500
X10700Y7500
X9700Y7500
X8700Y7500
X7700Y7500
X6700Y7500
X5700Y12500
X5700Y13500
X6700Y13500
X7700Y13500
X8700Y13500
X9700Y13500
X10700Y13500
X11700Y13500
X12700Y13500
X13700Y13500
X14700Y13500
X15700Y13500
X16700Y13500
X17700Y13500
X18700Y13500
X18700Y7500
X17700Y7500
X16700Y7500
X15700Y7500
X14700Y7500
X13700Y7500
T04
X9184Y17400
X7216Y17400
T05
X5600Y17600
X5600Y16600
X4600Y16600
X4600Y17600
X3600Y17600
X3600Y16600
X2350Y13500
X2350Y12500
X1350Y12500
X1350Y13500
X1350Y11500
X1350Y10500
X1350Y9500
X1350Y8500
X1350Y7500
X2350Y7500
X2350Y8500
X2350Y9500
X2350Y10500
X2350Y11500
X2350Y6500
X1350Y6500
X4500Y5700
X5500Y5700
X6500Y5700
X7500Y5700
X8500Y5700
X9500Y5700
X10500Y5700
X11500Y5700
X12500Y5700
X13500Y5700
X14500Y5700
X15500Y5700
X16500Y5700
X17500Y5700
X18500Y5700
X14000Y17800
X13000Y17800
T06
X11640Y15050
X10080Y15050
X8520Y15050
X6960Y15050
T07
X15820Y14953
X15820Y17000
X15820Y18339
X18694Y18457
X18694Y14559
T08
X18300Y17000
T09
X1700Y17500
M30
