G75*
G70*
%OFA0B0*%
%FSLAX24Y24*%
%IPPOS*%
%LPD*%
%AMOC8*
5,1,8,0,0,1.08239X$1,22.5*
%
%ADD10C,0.0000*%
%ADD11R,0.0433X0.0394*%
%ADD12R,0.0640X0.0640*%
%ADD13OC8,0.0640*%
%ADD14C,0.1033*%
%ADD15R,0.1033X0.1033*%
%ADD16C,0.0860*%
%ADD17R,0.0591X0.0551*%
%ADD18R,0.0591X0.0512*%
%ADD19R,0.0689X0.0276*%
%ADD20R,0.0800X0.0276*%
%ADD21R,0.0591X0.0315*%
%ADD22R,0.0394X0.0551*%
%ADD23R,0.0551X0.0315*%
%ADD24R,0.0610X0.0394*%
%ADD25C,0.1122*%
%ADD26R,0.0551X0.0551*%
%ADD27OC8,0.0560*%
%ADD28C,0.0620*%
%ADD29C,0.0160*%
%ADD30C,0.0396*%
%ADD31C,0.0700*%
%ADD32C,0.0320*%
%ADD33C,0.0100*%
D10*
X001600Y004500D02*
X017900Y004500D01*
X017973Y004502D01*
X018046Y004508D01*
X018119Y004517D01*
X018191Y004531D01*
X018262Y004548D01*
X018333Y004569D01*
X018402Y004593D01*
X018469Y004621D01*
X018536Y004653D01*
X018600Y004688D01*
X018662Y004726D01*
X018723Y004767D01*
X018781Y004812D01*
X018837Y004860D01*
X018890Y004910D01*
X018940Y004963D01*
X018988Y005019D01*
X019033Y005077D01*
X019074Y005138D01*
X019112Y005200D01*
X019147Y005264D01*
X019179Y005331D01*
X019207Y005398D01*
X019231Y005467D01*
X019252Y005538D01*
X019269Y005609D01*
X019283Y005681D01*
X019292Y005754D01*
X019298Y005827D01*
X019300Y005900D01*
X019300Y017600D01*
X017847Y017000D02*
X017849Y017042D01*
X017855Y017084D01*
X017865Y017126D01*
X017878Y017166D01*
X017896Y017205D01*
X017917Y017242D01*
X017941Y017276D01*
X017969Y017309D01*
X017999Y017339D01*
X018032Y017365D01*
X018067Y017389D01*
X018105Y017409D01*
X018144Y017425D01*
X018184Y017438D01*
X018226Y017447D01*
X018268Y017452D01*
X018311Y017453D01*
X018353Y017450D01*
X018395Y017443D01*
X018436Y017432D01*
X018476Y017417D01*
X018514Y017399D01*
X018551Y017377D01*
X018585Y017352D01*
X018617Y017324D01*
X018645Y017293D01*
X018671Y017259D01*
X018694Y017223D01*
X018713Y017186D01*
X018729Y017146D01*
X018741Y017105D01*
X018749Y017064D01*
X018753Y017021D01*
X018753Y016979D01*
X018749Y016936D01*
X018741Y016895D01*
X018729Y016854D01*
X018713Y016814D01*
X018694Y016777D01*
X018671Y016741D01*
X018645Y016707D01*
X018617Y016676D01*
X018585Y016648D01*
X018551Y016623D01*
X018514Y016601D01*
X018476Y016583D01*
X018436Y016568D01*
X018395Y016557D01*
X018353Y016550D01*
X018311Y016547D01*
X018268Y016548D01*
X018226Y016553D01*
X018184Y016562D01*
X018144Y016575D01*
X018105Y016591D01*
X018067Y016611D01*
X018032Y016635D01*
X017999Y016661D01*
X017969Y016691D01*
X017941Y016724D01*
X017917Y016758D01*
X017896Y016795D01*
X017878Y016834D01*
X017865Y016874D01*
X017855Y016916D01*
X017849Y016958D01*
X017847Y017000D01*
X019300Y017600D02*
X019298Y017673D01*
X019292Y017746D01*
X019283Y017819D01*
X019269Y017891D01*
X019252Y017962D01*
X019231Y018033D01*
X019207Y018102D01*
X019179Y018169D01*
X019147Y018236D01*
X019112Y018300D01*
X019074Y018362D01*
X019033Y018423D01*
X018988Y018481D01*
X018940Y018537D01*
X018890Y018590D01*
X018837Y018640D01*
X018781Y018688D01*
X018723Y018733D01*
X018662Y018774D01*
X018600Y018812D01*
X018536Y018847D01*
X018469Y018879D01*
X018402Y018907D01*
X018333Y018931D01*
X018262Y018952D01*
X018191Y018969D01*
X018119Y018983D01*
X018046Y018992D01*
X017973Y018998D01*
X017900Y019000D01*
X001600Y019000D01*
X001527Y018998D01*
X001454Y018992D01*
X001381Y018983D01*
X001309Y018969D01*
X001238Y018952D01*
X001167Y018931D01*
X001098Y018907D01*
X001031Y018879D01*
X000964Y018847D01*
X000900Y018812D01*
X000838Y018774D01*
X000777Y018733D01*
X000719Y018688D01*
X000663Y018640D01*
X000610Y018590D01*
X000560Y018537D01*
X000512Y018481D01*
X000467Y018423D01*
X000426Y018362D01*
X000388Y018300D01*
X000353Y018236D01*
X000321Y018169D01*
X000293Y018102D01*
X000269Y018033D01*
X000248Y017962D01*
X000231Y017891D01*
X000217Y017819D01*
X000208Y017746D01*
X000202Y017673D01*
X000200Y017600D01*
X000200Y005900D01*
X000202Y005827D01*
X000208Y005754D01*
X000217Y005681D01*
X000231Y005609D01*
X000248Y005538D01*
X000269Y005467D01*
X000293Y005398D01*
X000321Y005331D01*
X000353Y005264D01*
X000388Y005200D01*
X000426Y005138D01*
X000467Y005077D01*
X000512Y005019D01*
X000560Y004963D01*
X000610Y004910D01*
X000663Y004860D01*
X000719Y004812D01*
X000777Y004767D01*
X000838Y004726D01*
X000900Y004688D01*
X000964Y004653D01*
X001031Y004621D01*
X001098Y004593D01*
X001167Y004569D01*
X001238Y004548D01*
X001309Y004531D01*
X001381Y004517D01*
X001454Y004508D01*
X001527Y004502D01*
X001600Y004500D01*
X001070Y017500D02*
X001072Y017550D01*
X001078Y017600D01*
X001088Y017649D01*
X001102Y017697D01*
X001119Y017744D01*
X001140Y017789D01*
X001165Y017833D01*
X001193Y017874D01*
X001225Y017913D01*
X001259Y017950D01*
X001296Y017984D01*
X001336Y018014D01*
X001378Y018041D01*
X001422Y018065D01*
X001468Y018086D01*
X001515Y018102D01*
X001563Y018115D01*
X001613Y018124D01*
X001662Y018129D01*
X001713Y018130D01*
X001763Y018127D01*
X001812Y018120D01*
X001861Y018109D01*
X001909Y018094D01*
X001955Y018076D01*
X002000Y018054D01*
X002043Y018028D01*
X002084Y017999D01*
X002123Y017967D01*
X002159Y017932D01*
X002191Y017894D01*
X002221Y017854D01*
X002248Y017811D01*
X002271Y017767D01*
X002290Y017721D01*
X002306Y017673D01*
X002318Y017624D01*
X002326Y017575D01*
X002330Y017525D01*
X002330Y017475D01*
X002326Y017425D01*
X002318Y017376D01*
X002306Y017327D01*
X002290Y017279D01*
X002271Y017233D01*
X002248Y017189D01*
X002221Y017146D01*
X002191Y017106D01*
X002159Y017068D01*
X002123Y017033D01*
X002084Y017001D01*
X002043Y016972D01*
X002000Y016946D01*
X001955Y016924D01*
X001909Y016906D01*
X001861Y016891D01*
X001812Y016880D01*
X001763Y016873D01*
X001713Y016870D01*
X001662Y016871D01*
X001613Y016876D01*
X001563Y016885D01*
X001515Y016898D01*
X001468Y016914D01*
X001422Y016935D01*
X001378Y016959D01*
X001336Y016986D01*
X001296Y017016D01*
X001259Y017050D01*
X001225Y017087D01*
X001193Y017126D01*
X001165Y017167D01*
X001140Y017211D01*
X001119Y017256D01*
X001102Y017303D01*
X001088Y017351D01*
X001078Y017400D01*
X001072Y017450D01*
X001070Y017500D01*
D11*
X012950Y015785D03*
X012950Y015115D03*
D12*
X014000Y017800D03*
X005600Y016600D03*
X003600Y017600D03*
X001350Y013500D03*
X004500Y005700D03*
X010500Y005700D03*
X011500Y005700D03*
D13*
X012500Y005700D03*
X013500Y005700D03*
X014500Y005700D03*
X015500Y005700D03*
X016500Y005700D03*
X017500Y005700D03*
X018500Y005700D03*
X009500Y005700D03*
X008500Y005700D03*
X007500Y005700D03*
X006500Y005700D03*
X005500Y005700D03*
X002350Y006500D03*
X001350Y006500D03*
X001350Y007500D03*
X001350Y008500D03*
X001350Y009500D03*
X001350Y010500D03*
X001350Y011500D03*
X002350Y011500D03*
X002350Y010500D03*
X002350Y009500D03*
X002350Y008500D03*
X002350Y007500D03*
X002350Y012500D03*
X002350Y013500D03*
X001350Y012500D03*
X003600Y016600D03*
X004600Y016600D03*
X004600Y017600D03*
X005600Y017600D03*
X013000Y017800D03*
D14*
X011640Y015050D03*
X010080Y015050D03*
X008520Y015050D03*
D15*
X006960Y015050D03*
D16*
X007216Y017400D03*
X009184Y017400D03*
D17*
X017883Y012737D03*
D18*
X017883Y008288D03*
D19*
X017923Y008780D03*
X017923Y009193D03*
X017923Y010059D03*
X017923Y010926D03*
X017923Y011359D03*
X017923Y011792D03*
D20*
X017923Y010493D03*
X017923Y009626D03*
D21*
X014891Y008170D03*
D22*
X014301Y008288D03*
D23*
X014635Y012855D03*
D24*
X013671Y012717D03*
D25*
X015820Y014953D03*
X015820Y017000D03*
X015820Y018339D03*
X018694Y018457D03*
X018694Y014559D03*
D26*
X013800Y014852D03*
X013800Y016348D03*
D27*
X004300Y014200D03*
X004300Y011200D03*
X004300Y010200D03*
X004300Y007200D03*
D28*
X005700Y007500D03*
X005700Y008500D03*
X005700Y009500D03*
X005700Y010500D03*
X005700Y011500D03*
X006700Y010500D03*
X006700Y009500D03*
X007700Y009500D03*
X007700Y010500D03*
X008700Y010500D03*
X008700Y009500D03*
X009700Y009500D03*
X009700Y010500D03*
X010700Y010500D03*
X010700Y009500D03*
X011700Y009500D03*
X011700Y010500D03*
X012700Y010500D03*
X012700Y009500D03*
X012700Y007500D03*
X011700Y007500D03*
X010700Y007500D03*
X009700Y007500D03*
X008700Y007500D03*
X007700Y007500D03*
X006700Y007500D03*
X005700Y012500D03*
X005700Y013500D03*
X006700Y013500D03*
X007700Y013500D03*
X008700Y013500D03*
X009700Y013500D03*
X010700Y013500D03*
X011700Y013500D03*
X012700Y013500D03*
X013700Y013500D03*
X014700Y013500D03*
X015700Y013500D03*
X016700Y013500D03*
X017700Y013500D03*
X018700Y013500D03*
X018700Y007500D03*
X017700Y007500D03*
X016700Y007500D03*
X015700Y007500D03*
X014700Y007500D03*
X013700Y007500D03*
D29*
X014891Y008170D02*
X015000Y008261D01*
X015000Y008450D01*
X014400Y009400D01*
X016500Y009800D02*
X016500Y007900D01*
X016700Y007500D01*
X017400Y008300D02*
X017612Y008288D01*
X017883Y008288D01*
X017200Y009400D02*
X017574Y009626D01*
X017923Y009626D01*
X017923Y010493D02*
X017193Y010493D01*
X016500Y009800D01*
X017747Y012600D02*
X017883Y012737D01*
X017747Y012600D02*
X018300Y012500D01*
X018500Y012500D01*
X018700Y012700D01*
X018700Y013500D01*
X017200Y014600D02*
X017200Y015900D01*
X016900Y016200D01*
X014000Y016200D01*
X013852Y016348D01*
X013800Y016348D01*
X014000Y016248D01*
X014000Y016200D01*
X014000Y016248D02*
X014000Y017800D01*
X013400Y018400D01*
X009800Y018400D01*
X009200Y017800D01*
X009200Y017400D01*
X009184Y017400D02*
X009184Y017016D01*
X010100Y016100D01*
X010100Y015070D01*
X010080Y015050D01*
X011640Y015050D01*
X011700Y015110D01*
X012950Y015785D02*
X013265Y015750D01*
X013400Y015600D01*
X013800Y014852D02*
X014700Y015800D01*
X016300Y015800D01*
X016800Y015300D01*
X016800Y014900D01*
X017200Y014600D02*
X016800Y014200D01*
X016600Y014200D01*
X008500Y005700D02*
X007900Y006300D01*
X007100Y006300D01*
X006500Y005700D01*
X004300Y015100D02*
X005100Y015900D01*
X005100Y017200D01*
X005500Y017600D01*
X005600Y017600D01*
D30*
X004300Y015100D03*
X003700Y011100D03*
X003700Y009800D03*
X003200Y009800D03*
X003200Y008600D03*
X003100Y007000D03*
X003700Y007000D03*
X003600Y005000D03*
X009200Y008250D03*
X010200Y008200D03*
X011000Y008650D03*
X012950Y008500D03*
X013550Y009200D03*
X014400Y009400D03*
X015000Y008450D03*
X017200Y009400D03*
X017400Y008300D03*
X014000Y006100D03*
X010000Y006300D03*
X013500Y010900D03*
X013310Y011690D03*
X012500Y011400D03*
X012200Y013050D03*
X010800Y011800D03*
X010000Y011400D03*
X009100Y011100D03*
X012500Y014700D03*
X013400Y015600D03*
X015300Y012900D03*
X015800Y012900D03*
X016600Y014200D03*
X016800Y014900D03*
X018300Y012500D03*
X014400Y012200D03*
D31*
X014539Y018339D02*
X015820Y018339D01*
D32*
X014539Y018339D02*
X014000Y017800D01*
D33*
X014050Y017798D02*
X015357Y017798D01*
X015350Y017803D02*
X015424Y017746D01*
X015504Y017700D01*
X014900Y017700D01*
X014300Y016200D01*
X014300Y016100D01*
X014226Y016100D01*
X014226Y016298D01*
X013850Y016298D01*
X013850Y016398D01*
X014226Y016398D01*
X014226Y016643D01*
X014215Y016682D01*
X014196Y016716D01*
X014168Y016744D01*
X014133Y016763D01*
X014095Y016774D01*
X013850Y016774D01*
X013850Y016398D01*
X013750Y016398D01*
X013750Y016298D01*
X013374Y016298D01*
X013374Y016100D01*
X013288Y016100D01*
X013237Y016151D01*
X012663Y016151D01*
X012612Y016100D01*
X012100Y016100D01*
X012100Y015533D01*
X012081Y015552D01*
X012011Y015606D01*
X011936Y015649D01*
X011855Y015683D01*
X011770Y015705D01*
X011690Y015716D01*
X011690Y015100D01*
X011590Y015100D01*
X011590Y015716D01*
X011510Y015705D01*
X011425Y015683D01*
X011344Y015649D01*
X011269Y015606D01*
X011199Y015552D01*
X011138Y015491D01*
X011084Y015421D01*
X011041Y015346D01*
X011007Y015265D01*
X010985Y015180D01*
X010974Y015100D01*
X011590Y015100D01*
X011590Y015000D01*
X010130Y015000D01*
X010130Y015100D01*
X010030Y015100D01*
X010030Y015716D01*
X009950Y015705D01*
X009865Y015683D01*
X009784Y015649D01*
X009709Y015606D01*
X009640Y015552D01*
X008600Y016800D01*
X008600Y018750D01*
X015239Y018750D01*
X015227Y018734D01*
X015181Y018654D01*
X015145Y018568D01*
X015121Y018478D01*
X015109Y018389D01*
X015770Y018389D01*
X015770Y018289D01*
X015109Y018289D01*
X015121Y018200D01*
X015145Y018110D01*
X015181Y018023D01*
X015227Y017943D01*
X015284Y017869D01*
X015350Y017803D01*
X015263Y017896D02*
X014470Y017896D01*
X014470Y017850D02*
X014470Y018140D01*
X014460Y018178D01*
X014440Y018212D01*
X014412Y018240D01*
X014378Y018260D01*
X014340Y018270D01*
X014050Y018270D01*
X014050Y017850D01*
X013950Y017850D01*
X013950Y018270D01*
X013660Y018270D01*
X013622Y018260D01*
X013588Y018240D01*
X013560Y018212D01*
X013540Y018178D01*
X013530Y018140D01*
X013530Y017850D01*
X013950Y017850D01*
X013950Y017750D01*
X013530Y017750D01*
X013530Y017460D01*
X013540Y017422D01*
X013560Y017388D01*
X013588Y017360D01*
X013622Y017340D01*
X013660Y017330D01*
X013950Y017330D01*
X013950Y017750D01*
X014050Y017750D01*
X014050Y017850D01*
X014470Y017850D01*
X014470Y017750D02*
X014050Y017750D01*
X014050Y017330D01*
X014340Y017330D01*
X014378Y017340D01*
X014412Y017360D01*
X014440Y017388D01*
X014460Y017422D01*
X014470Y017460D01*
X014470Y017750D01*
X014470Y017699D02*
X014900Y017699D01*
X014860Y017601D02*
X014470Y017601D01*
X014470Y017502D02*
X014821Y017502D01*
X014781Y017404D02*
X014449Y017404D01*
X014663Y017108D02*
X009686Y017108D01*
X009680Y017096D02*
X009722Y017177D01*
X009750Y017264D01*
X009764Y017352D01*
X009233Y017352D01*
X009233Y017448D01*
X009764Y017448D01*
X009750Y017536D01*
X009722Y017623D01*
X009680Y017704D01*
X009627Y017778D01*
X009562Y017842D01*
X009488Y017896D01*
X009407Y017938D01*
X009320Y017966D01*
X009233Y017980D01*
X009233Y017448D01*
X009136Y017448D01*
X009136Y017352D01*
X008605Y017352D01*
X008619Y017264D01*
X008647Y017177D01*
X008688Y017096D01*
X008742Y017022D01*
X008806Y016958D01*
X008880Y016904D01*
X008962Y016862D01*
X009048Y016834D01*
X009136Y016820D01*
X009136Y017352D01*
X009233Y017352D01*
X009233Y016820D01*
X009320Y016834D01*
X009407Y016862D01*
X009488Y016904D01*
X009562Y016958D01*
X009627Y017022D01*
X009680Y017096D01*
X009614Y017010D02*
X014624Y017010D01*
X014584Y016911D02*
X009498Y016911D01*
X009731Y017207D02*
X014703Y017207D01*
X014742Y017305D02*
X009756Y017305D01*
X009755Y017502D02*
X012605Y017502D01*
X012510Y017597D02*
X012797Y017310D01*
X013203Y017310D01*
X013490Y017597D01*
X013490Y018003D01*
X013203Y018290D01*
X012797Y018290D01*
X012510Y018003D01*
X012510Y017597D01*
X012510Y017601D02*
X009729Y017601D01*
X009683Y017699D02*
X012510Y017699D01*
X012510Y017798D02*
X009607Y017798D01*
X009488Y017896D02*
X012510Y017896D01*
X012510Y017995D02*
X008600Y017995D01*
X008600Y018093D02*
X012600Y018093D01*
X012699Y018192D02*
X008600Y018192D01*
X008600Y018290D02*
X015770Y018290D01*
X015770Y018389D02*
X008600Y018389D01*
X008600Y018487D02*
X015123Y018487D01*
X015152Y018586D02*
X008600Y018586D01*
X008600Y018684D02*
X015198Y018684D01*
X015123Y018192D02*
X014452Y018192D01*
X014470Y018093D02*
X015152Y018093D01*
X015197Y017995D02*
X014470Y017995D01*
X014050Y017995D02*
X013950Y017995D01*
X013950Y018093D02*
X014050Y018093D01*
X014050Y018192D02*
X013950Y018192D01*
X013950Y017896D02*
X014050Y017896D01*
X013950Y017798D02*
X013490Y017798D01*
X013490Y017896D02*
X013530Y017896D01*
X013530Y017995D02*
X013490Y017995D01*
X013530Y018093D02*
X013400Y018093D01*
X013301Y018192D02*
X013548Y018192D01*
X013530Y017699D02*
X013490Y017699D01*
X013490Y017601D02*
X013530Y017601D01*
X013530Y017502D02*
X013395Y017502D01*
X013296Y017404D02*
X013551Y017404D01*
X013950Y017404D02*
X014050Y017404D01*
X014050Y017502D02*
X013950Y017502D01*
X013950Y017601D02*
X014050Y017601D01*
X014050Y017699D02*
X013950Y017699D01*
X013750Y016774D02*
X013505Y016774D01*
X013467Y016763D01*
X013432Y016744D01*
X013404Y016716D01*
X013385Y016682D01*
X013374Y016643D01*
X013374Y016398D01*
X013750Y016398D01*
X013750Y016774D01*
X013750Y016714D02*
X013850Y016714D01*
X013850Y016616D02*
X013750Y016616D01*
X013750Y016517D02*
X013850Y016517D01*
X013850Y016419D02*
X013750Y016419D01*
X013750Y016320D02*
X009000Y016320D01*
X009082Y016222D02*
X013374Y016222D01*
X013374Y016123D02*
X013265Y016123D01*
X013374Y016419D02*
X008918Y016419D01*
X008836Y016517D02*
X013374Y016517D01*
X013374Y016616D02*
X008754Y016616D01*
X008672Y016714D02*
X013403Y016714D01*
X013850Y016320D02*
X014348Y016320D01*
X014309Y016222D02*
X014226Y016222D01*
X014226Y016123D02*
X014300Y016123D01*
X014226Y016419D02*
X014387Y016419D01*
X014427Y016517D02*
X014226Y016517D01*
X014226Y016616D02*
X014466Y016616D01*
X014506Y016714D02*
X014197Y016714D01*
X014545Y016813D02*
X008600Y016813D01*
X008600Y016911D02*
X008871Y016911D01*
X008754Y017010D02*
X008600Y017010D01*
X008600Y017108D02*
X008682Y017108D01*
X008637Y017207D02*
X008600Y017207D01*
X008600Y017305D02*
X008612Y017305D01*
X008600Y017404D02*
X009136Y017404D01*
X009136Y017448D02*
X008605Y017448D01*
X008619Y017536D01*
X008647Y017623D01*
X008688Y017704D01*
X008742Y017778D01*
X008806Y017842D01*
X008880Y017896D01*
X008600Y017896D01*
X008600Y017798D02*
X008762Y017798D01*
X008686Y017699D02*
X008600Y017699D01*
X008600Y017601D02*
X008640Y017601D01*
X008613Y017502D02*
X008600Y017502D01*
X008880Y017896D02*
X008962Y017938D01*
X009048Y017966D01*
X009136Y017980D01*
X009136Y017448D01*
X009136Y017502D02*
X009233Y017502D01*
X009233Y017404D02*
X012704Y017404D01*
X012635Y016123D02*
X009164Y016123D01*
X009246Y016025D02*
X012100Y016025D01*
X012100Y015926D02*
X009328Y015926D01*
X009410Y015828D02*
X012100Y015828D01*
X012100Y015729D02*
X009492Y015729D01*
X009575Y015631D02*
X009752Y015631D01*
X010030Y015631D02*
X010130Y015631D01*
X010130Y015716D02*
X010130Y015100D01*
X010746Y015100D01*
X010735Y015180D01*
X010713Y015265D01*
X010679Y015346D01*
X010636Y015421D01*
X010582Y015491D01*
X010521Y015552D01*
X010451Y015606D01*
X010376Y015649D01*
X010295Y015683D01*
X010210Y015705D01*
X010130Y015716D01*
X010130Y015532D02*
X010030Y015532D01*
X010030Y015434D02*
X010130Y015434D01*
X010130Y015335D02*
X010030Y015335D01*
X010030Y015237D02*
X010130Y015237D01*
X010130Y015138D02*
X010030Y015138D01*
X010130Y015040D02*
X011590Y015040D01*
X011590Y015138D02*
X011690Y015138D01*
X011690Y015237D02*
X011590Y015237D01*
X011590Y015335D02*
X011690Y015335D01*
X011690Y015434D02*
X011590Y015434D01*
X011590Y015532D02*
X011690Y015532D01*
X011690Y015631D02*
X011590Y015631D01*
X011312Y015631D02*
X010408Y015631D01*
X010541Y015532D02*
X011179Y015532D01*
X011094Y015434D02*
X010626Y015434D01*
X010684Y015335D02*
X011036Y015335D01*
X011000Y015237D02*
X010720Y015237D01*
X010741Y015138D02*
X010979Y015138D01*
X011968Y015631D02*
X012100Y015631D01*
X012950Y015115D02*
X012850Y014750D01*
X012500Y014700D01*
X012100Y014150D02*
X008150Y014150D01*
X007800Y014550D01*
X007800Y015500D01*
X007500Y015800D01*
X006450Y015800D01*
X004700Y014000D01*
X004150Y013450D01*
X002400Y013450D01*
X002350Y013500D01*
X002000Y013000D02*
X004150Y013000D01*
X005500Y014350D01*
X007550Y014350D01*
X007900Y013950D01*
X011300Y013950D01*
X011700Y013500D01*
X012200Y013050D02*
X010100Y013050D01*
X009700Y013500D01*
X009550Y014350D02*
X009300Y014600D01*
X009300Y015500D01*
X008800Y016000D01*
X006100Y016000D01*
X004800Y014700D01*
X002350Y014700D01*
X001350Y013500D01*
X002000Y013000D02*
X001500Y012500D01*
X001350Y012500D01*
X001150Y012000D02*
X000850Y011700D01*
X000850Y011350D01*
X001200Y011000D01*
X001600Y011000D01*
X001850Y010750D01*
X001850Y010350D01*
X002350Y009850D01*
X002350Y009500D01*
X001850Y009300D02*
X002100Y009000D01*
X004400Y009000D01*
X005400Y010000D01*
X011900Y010000D01*
X012200Y009700D01*
X012200Y008600D01*
X012700Y008100D01*
X012700Y007500D01*
X013200Y007300D02*
X013200Y008200D01*
X012950Y008500D01*
X013200Y008900D02*
X013200Y010700D01*
X012900Y011000D01*
X009800Y011000D01*
X009400Y011500D01*
X006800Y011500D01*
X006300Y012000D01*
X004100Y012000D01*
X003100Y011000D01*
X002100Y011000D01*
X001600Y011500D01*
X001350Y011500D01*
X001150Y012000D02*
X003450Y012000D01*
X005600Y014150D01*
X007150Y014150D01*
X007700Y013600D01*
X007700Y013500D01*
X007200Y013300D02*
X007200Y013750D01*
X007000Y013950D01*
X006150Y013950D01*
X005700Y013500D01*
X006400Y013000D02*
X004800Y013000D01*
X003300Y011500D01*
X002350Y011500D01*
X001350Y010500D02*
X001350Y010150D01*
X001850Y009700D01*
X001850Y009300D01*
X001650Y008500D02*
X001350Y008500D01*
X001650Y008500D02*
X002150Y008000D01*
X005900Y008000D01*
X006700Y008800D01*
X010700Y008800D01*
X011000Y008650D01*
X011300Y009000D02*
X005400Y009000D01*
X004600Y008200D01*
X002700Y008200D01*
X002500Y008400D01*
X002450Y008400D01*
X002350Y008500D01*
X002350Y007700D02*
X003000Y007700D01*
X003700Y007000D01*
X003100Y007000D02*
X002150Y007000D01*
X001850Y007300D01*
X001850Y007650D01*
X001500Y008000D01*
X000900Y008000D01*
X000600Y008300D01*
X000600Y014500D01*
X002700Y016600D01*
X003600Y016600D01*
X006600Y013500D02*
X006700Y013500D01*
X006600Y013500D02*
X007700Y012400D01*
X012000Y012400D01*
X013200Y011300D01*
X014600Y011300D01*
X015200Y011900D01*
X016400Y011900D01*
X017374Y010926D01*
X017400Y010900D01*
X017848Y010900D01*
X017923Y010926D01*
X017923Y011359D02*
X017881Y011400D01*
X017200Y011400D01*
X016500Y012100D01*
X015100Y012100D01*
X014500Y011500D01*
X014212Y011490D01*
X013510Y011490D01*
X013310Y011690D01*
X013600Y012000D02*
X013900Y011700D01*
X014400Y011700D01*
X015000Y012300D01*
X016700Y012300D01*
X016900Y012100D01*
X018400Y012100D01*
X018600Y011900D01*
X018600Y009400D01*
X018400Y009200D01*
X018330Y009200D01*
X018200Y009198D01*
X018200Y009193D01*
X018207Y009193D01*
X018550Y009000D01*
X018550Y008000D01*
X018200Y007700D01*
X018200Y006100D01*
X018000Y005900D01*
X018000Y005300D01*
X017800Y005100D01*
X015900Y005100D01*
X015500Y005700D01*
X015000Y005900D02*
X015000Y005200D01*
X014700Y004900D01*
X011500Y004900D01*
X011000Y005300D01*
X011000Y006100D01*
X011600Y006700D01*
X011600Y006900D01*
X011200Y007300D01*
X011200Y007800D01*
X010400Y008600D01*
X006800Y008600D01*
X005700Y007500D01*
X006100Y006800D02*
X006500Y007200D01*
X006700Y007500D01*
X006900Y006800D02*
X006500Y006400D01*
X005000Y006400D01*
X004500Y005900D01*
X004500Y005700D01*
X005000Y005900D02*
X005000Y005300D01*
X004700Y005000D01*
X004200Y005000D01*
X003800Y005400D01*
X001700Y005400D01*
X001350Y005750D01*
X001350Y006500D01*
X001850Y006250D02*
X002200Y005900D01*
X003700Y005900D01*
X004600Y006700D01*
X004700Y006800D01*
X006100Y006800D01*
X006600Y006200D02*
X007000Y006600D01*
X008700Y006600D01*
X009200Y007100D01*
X009200Y007700D01*
X009500Y008000D01*
X009900Y008000D01*
X010100Y008200D01*
X010200Y008200D01*
X009700Y007500D02*
X009700Y007100D01*
X009000Y006400D01*
X009000Y005400D01*
X008700Y005100D01*
X006100Y005100D01*
X005500Y005700D01*
X005300Y006200D02*
X006600Y006200D01*
X006900Y006800D02*
X008400Y006800D01*
X008700Y007100D01*
X008700Y007500D01*
X008450Y008250D02*
X009200Y008250D01*
X008450Y008250D02*
X007700Y007500D01*
X005700Y009500D02*
X005400Y009500D01*
X004500Y008600D01*
X003200Y008600D01*
X003500Y009400D02*
X003200Y009800D01*
X003500Y009400D02*
X004300Y009400D01*
X005100Y010200D01*
X005100Y010700D01*
X005400Y011000D01*
X009000Y011000D01*
X009100Y011100D01*
X010000Y011400D02*
X012500Y011400D01*
X013500Y010900D02*
X013500Y009300D01*
X013550Y009200D01*
X013200Y008900D02*
X013700Y008400D01*
X013700Y007500D01*
X013500Y007000D02*
X013200Y007300D01*
X013500Y007000D02*
X014000Y007000D01*
X014500Y007500D01*
X014700Y007500D01*
X014400Y007000D02*
X014000Y006600D01*
X012900Y006600D01*
X012200Y007300D01*
X012200Y008100D01*
X011300Y009000D01*
X011700Y007500D02*
X013500Y005700D01*
X014000Y005400D02*
X014000Y006100D01*
X014500Y005700D02*
X015200Y006400D01*
X015900Y006400D01*
X016150Y006650D01*
X016150Y010000D01*
X017076Y010826D01*
X017374Y010926D01*
X017259Y010059D02*
X017923Y010059D01*
X017863Y010000D01*
X017259Y010059D02*
X016750Y009550D01*
X016750Y008250D01*
X017200Y007800D01*
X017200Y006300D01*
X016700Y005700D01*
X016500Y005700D01*
X016000Y006200D01*
X015300Y006200D01*
X015000Y005900D01*
X014000Y005400D02*
X013700Y005100D01*
X012100Y005100D01*
X011500Y005700D01*
X011200Y006600D02*
X011200Y007000D01*
X010700Y007500D01*
X011200Y006600D02*
X010500Y005900D01*
X010500Y005700D01*
X010000Y005400D02*
X010000Y006300D01*
X010000Y005400D02*
X009400Y004800D01*
X003900Y004800D01*
X003700Y005000D01*
X003600Y005000D01*
X005000Y005900D02*
X005300Y006200D01*
X002350Y007500D02*
X002350Y007700D01*
X001400Y007500D02*
X001350Y007500D01*
X001350Y007250D01*
X001850Y006750D01*
X001850Y006250D01*
X003700Y009800D02*
X003700Y011100D01*
X004300Y010424D02*
X005339Y011462D01*
X005538Y011462D01*
X005700Y011500D01*
X004300Y010424D02*
X004300Y010200D01*
X006400Y013000D02*
X007600Y011800D01*
X010800Y011800D01*
X012200Y013050D02*
X012950Y013050D01*
X013200Y013300D01*
X013200Y013700D01*
X013600Y014100D01*
X014300Y014100D01*
X014700Y013700D01*
X014700Y013500D01*
X014881Y012800D02*
X015300Y012900D01*
X014881Y012800D02*
X014635Y012855D01*
X014700Y012500D02*
X016600Y012500D01*
X017500Y013400D01*
X017600Y013400D01*
X017700Y013500D01*
X016700Y013500D02*
X016500Y013500D01*
X015800Y012900D01*
X015700Y013500D02*
X015500Y013600D01*
X014750Y014350D01*
X009550Y014350D01*
X007800Y012700D02*
X007200Y013300D01*
X007800Y012700D02*
X012800Y012700D01*
X013600Y012000D01*
X014400Y012200D02*
X014700Y012500D01*
X012700Y013500D02*
X012100Y014150D01*
X009233Y016911D02*
X009136Y016911D01*
X009136Y017010D02*
X009233Y017010D01*
X009233Y017108D02*
X009136Y017108D01*
X009136Y017207D02*
X009233Y017207D01*
X009233Y017305D02*
X009136Y017305D01*
X009136Y017601D02*
X009233Y017601D01*
X009233Y017699D02*
X009136Y017699D01*
X009136Y017798D02*
X009233Y017798D01*
X009233Y017896D02*
X009136Y017896D01*
X017923Y009193D02*
X018200Y009198D01*
X015700Y007500D02*
X015700Y007400D01*
X015300Y007000D01*
X014400Y007000D01*
M02*
