%
M48
M72
T01C0.0236
T02C0.0320
T03C0.0380
T04C0.0394
T05C0.0400
T06C0.0689
T07C0.0748
T08C0.0906
T09C0.1260
%
T01
X3600Y3433
X3700Y5433
X3100Y5433
X3200Y7033
X3200Y8233
X3700Y8233
X3700Y9533
X9100Y9533
X10000Y9833
X10800Y10233
X12500Y9833
X13310Y10124
X14400Y10633
X15300Y11333
X15800Y11333
X18300Y10933
X16600Y12633
X16800Y13333
X13400Y14033
X12500Y13133
X12200Y11483
X13500Y9333
X14400Y7833
X13550Y7633
X12950Y6933
X11000Y7083
X10200Y6633
X9200Y6683
X10000Y4733
X14000Y4533
X17400Y6733
X17200Y7833
X15000Y6883
X4300Y13533
T02
X4300Y12633
X4300Y9633
X4300Y8633
X4300Y5633
T03
X5700Y5933
X6700Y5933
X7700Y5933
X8700Y5933
X9700Y5933
X10700Y5933
X11700Y5933
X12700Y5933
X13700Y5933
X14700Y5933
X15700Y5933
X16700Y5933
X17700Y5933
X18700Y5933
X12700Y7933
X11700Y7933
X10700Y7933
X9700Y7933
X8700Y7933
X7700Y7933
X6700Y7933
X5700Y7933
X5700Y6933
X5700Y8933
X6700Y8933
X7700Y8933
X8700Y8933
X9700Y8933
X10700Y8933
X11700Y8933
X12700Y8933
X12700Y11933
X13700Y11933
X14700Y11933
X15700Y11933
X16700Y11933
X17700Y11933
X18700Y11933
X11700Y11933
X10700Y11933
X9700Y11933
X8700Y11933
X7700Y11933
X6700Y11933
X5700Y11933
X5700Y10933
X5700Y9933
T04
X7216Y15833
X9184Y15833
T05
X5600Y16033
X4600Y16033
X3600Y16033
X3600Y15033
X4600Y15033
X5600Y15033
X2350Y11933
X1350Y11933
X1350Y10933
X2350Y10933
X2350Y9933
X1350Y9933
X1350Y8933
X2350Y8933
X2350Y7933
X1350Y7933
X1350Y6933
X2350Y6933
X2350Y5933
X1350Y5933
X1350Y4933
X2350Y4933
X4500Y4133
X5500Y4133
X6500Y4133
X7500Y4133
X8500Y4133
X9500Y4133
X10500Y4133
X11500Y4133
X12500Y4133
X13500Y4133
X14500Y4133
X15500Y4133
X16500Y4133
X17500Y4133
X18500Y4133
X14000Y16233
X13000Y16233
T06
X11640Y13483
X10080Y13483
X8520Y13483
X6960Y13483
T07
X15820Y13386
X18694Y12992
X15820Y15433
X15820Y16772
X18694Y16890
T08
X18300Y15433
T09
X1700Y15933
M30
