G75*
G70*
%OFA0B0*%
%FSLAX24Y24*%
%IPPOS*%
%LPD*%
%AMOC8*
5,1,8,0,0,1.08239X$1,22.5*
%
%ADD10C,0.0000*%
%ADD11C,0.0090*%
%ADD12C,0.0060*%
%ADD13C,0.0070*%
%ADD14C,0.0100*%
%ADD15C,0.0080*%
%ADD16R,0.0250X0.0250*%
D10*
X001600Y002933D02*
X017900Y002933D01*
X017973Y002935D01*
X018046Y002941D01*
X018119Y002950D01*
X018191Y002964D01*
X018262Y002981D01*
X018333Y003002D01*
X018402Y003026D01*
X018469Y003054D01*
X018536Y003086D01*
X018600Y003121D01*
X018662Y003159D01*
X018723Y003200D01*
X018781Y003245D01*
X018837Y003293D01*
X018890Y003343D01*
X018940Y003396D01*
X018988Y003452D01*
X019033Y003510D01*
X019074Y003571D01*
X019112Y003633D01*
X019147Y003697D01*
X019179Y003764D01*
X019207Y003831D01*
X019231Y003900D01*
X019252Y003971D01*
X019269Y004042D01*
X019283Y004114D01*
X019292Y004187D01*
X019298Y004260D01*
X019300Y004333D01*
X019300Y016033D01*
X017847Y015433D02*
X017849Y015475D01*
X017855Y015517D01*
X017865Y015559D01*
X017878Y015599D01*
X017896Y015638D01*
X017917Y015675D01*
X017941Y015709D01*
X017969Y015742D01*
X017999Y015772D01*
X018032Y015798D01*
X018067Y015822D01*
X018105Y015842D01*
X018144Y015858D01*
X018184Y015871D01*
X018226Y015880D01*
X018268Y015885D01*
X018311Y015886D01*
X018353Y015883D01*
X018395Y015876D01*
X018436Y015865D01*
X018476Y015850D01*
X018514Y015832D01*
X018551Y015810D01*
X018585Y015785D01*
X018617Y015757D01*
X018645Y015726D01*
X018671Y015692D01*
X018694Y015656D01*
X018713Y015619D01*
X018729Y015579D01*
X018741Y015538D01*
X018749Y015497D01*
X018753Y015454D01*
X018753Y015412D01*
X018749Y015369D01*
X018741Y015328D01*
X018729Y015287D01*
X018713Y015247D01*
X018694Y015210D01*
X018671Y015174D01*
X018645Y015140D01*
X018617Y015109D01*
X018585Y015081D01*
X018551Y015056D01*
X018514Y015034D01*
X018476Y015016D01*
X018436Y015001D01*
X018395Y014990D01*
X018353Y014983D01*
X018311Y014980D01*
X018268Y014981D01*
X018226Y014986D01*
X018184Y014995D01*
X018144Y015008D01*
X018105Y015024D01*
X018067Y015044D01*
X018032Y015068D01*
X017999Y015094D01*
X017969Y015124D01*
X017941Y015157D01*
X017917Y015191D01*
X017896Y015228D01*
X017878Y015267D01*
X017865Y015307D01*
X017855Y015349D01*
X017849Y015391D01*
X017847Y015433D01*
X019300Y016033D02*
X019298Y016106D01*
X019292Y016179D01*
X019283Y016252D01*
X019269Y016324D01*
X019252Y016395D01*
X019231Y016466D01*
X019207Y016535D01*
X019179Y016602D01*
X019147Y016669D01*
X019112Y016733D01*
X019074Y016795D01*
X019033Y016856D01*
X018988Y016914D01*
X018940Y016970D01*
X018890Y017023D01*
X018837Y017073D01*
X018781Y017121D01*
X018723Y017166D01*
X018662Y017207D01*
X018600Y017245D01*
X018536Y017280D01*
X018469Y017312D01*
X018402Y017340D01*
X018333Y017364D01*
X018262Y017385D01*
X018191Y017402D01*
X018119Y017416D01*
X018046Y017425D01*
X017973Y017431D01*
X017900Y017433D01*
X001600Y017433D01*
X001527Y017431D01*
X001454Y017425D01*
X001381Y017416D01*
X001309Y017402D01*
X001238Y017385D01*
X001167Y017364D01*
X001098Y017340D01*
X001031Y017312D01*
X000964Y017280D01*
X000900Y017245D01*
X000838Y017207D01*
X000777Y017166D01*
X000719Y017121D01*
X000663Y017073D01*
X000610Y017023D01*
X000560Y016970D01*
X000512Y016914D01*
X000467Y016856D01*
X000426Y016795D01*
X000388Y016733D01*
X000353Y016669D01*
X000321Y016602D01*
X000293Y016535D01*
X000269Y016466D01*
X000248Y016395D01*
X000231Y016324D01*
X000217Y016252D01*
X000208Y016179D01*
X000202Y016106D01*
X000200Y016033D01*
X000200Y004333D01*
X000202Y004260D01*
X000208Y004187D01*
X000217Y004114D01*
X000231Y004042D01*
X000248Y003971D01*
X000269Y003900D01*
X000293Y003831D01*
X000321Y003764D01*
X000353Y003697D01*
X000388Y003633D01*
X000426Y003571D01*
X000467Y003510D01*
X000512Y003452D01*
X000560Y003396D01*
X000610Y003343D01*
X000663Y003293D01*
X000719Y003245D01*
X000777Y003200D01*
X000838Y003159D01*
X000900Y003121D01*
X000964Y003086D01*
X001031Y003054D01*
X001098Y003026D01*
X001167Y003002D01*
X001238Y002981D01*
X001309Y002964D01*
X001381Y002950D01*
X001454Y002941D01*
X001527Y002935D01*
X001600Y002933D01*
X001070Y015933D02*
X001072Y015983D01*
X001078Y016033D01*
X001088Y016082D01*
X001102Y016130D01*
X001119Y016177D01*
X001140Y016222D01*
X001165Y016266D01*
X001193Y016307D01*
X001225Y016346D01*
X001259Y016383D01*
X001296Y016417D01*
X001336Y016447D01*
X001378Y016474D01*
X001422Y016498D01*
X001468Y016519D01*
X001515Y016535D01*
X001563Y016548D01*
X001613Y016557D01*
X001662Y016562D01*
X001713Y016563D01*
X001763Y016560D01*
X001812Y016553D01*
X001861Y016542D01*
X001909Y016527D01*
X001955Y016509D01*
X002000Y016487D01*
X002043Y016461D01*
X002084Y016432D01*
X002123Y016400D01*
X002159Y016365D01*
X002191Y016327D01*
X002221Y016287D01*
X002248Y016244D01*
X002271Y016200D01*
X002290Y016154D01*
X002306Y016106D01*
X002318Y016057D01*
X002326Y016008D01*
X002330Y015958D01*
X002330Y015908D01*
X002326Y015858D01*
X002318Y015809D01*
X002306Y015760D01*
X002290Y015712D01*
X002271Y015666D01*
X002248Y015622D01*
X002221Y015579D01*
X002191Y015539D01*
X002159Y015501D01*
X002123Y015466D01*
X002084Y015434D01*
X002043Y015405D01*
X002000Y015379D01*
X001955Y015357D01*
X001909Y015339D01*
X001861Y015324D01*
X001812Y015313D01*
X001763Y015306D01*
X001713Y015303D01*
X001662Y015304D01*
X001613Y015309D01*
X001563Y015318D01*
X001515Y015331D01*
X001468Y015347D01*
X001422Y015368D01*
X001378Y015392D01*
X001336Y015419D01*
X001296Y015449D01*
X001259Y015483D01*
X001225Y015520D01*
X001193Y015559D01*
X001165Y015600D01*
X001140Y015644D01*
X001119Y015689D01*
X001102Y015736D01*
X001088Y015784D01*
X001078Y015833D01*
X001072Y015883D01*
X001070Y015933D01*
D11*
X010639Y011374D02*
X010639Y011239D01*
X010639Y010969D02*
X010639Y010428D01*
X010774Y010428D02*
X010504Y010428D01*
X010221Y010428D02*
X009681Y010969D01*
X010221Y010969D02*
X009681Y010428D01*
X010639Y010969D02*
X010774Y010969D01*
X011059Y010969D02*
X011194Y010969D01*
X011464Y010699D01*
X011464Y010969D02*
X011464Y010428D01*
X011747Y010428D02*
X011882Y010563D01*
X011882Y011104D01*
X012017Y010969D02*
X011747Y010969D01*
X012305Y010834D02*
X012305Y010428D01*
X012710Y010428D01*
X012846Y010563D01*
X012710Y010699D01*
X012305Y010699D01*
X012305Y010834D02*
X012440Y010969D01*
X012710Y010969D01*
X013134Y011239D02*
X013134Y010428D01*
X013674Y010428D02*
X013674Y011239D01*
X013404Y010969D01*
X013134Y011239D01*
X013957Y010969D02*
X014227Y010969D01*
X014092Y011104D02*
X014092Y010563D01*
X013957Y010428D01*
X014647Y010969D02*
X014917Y010699D01*
X014917Y010969D02*
X014917Y010428D01*
X015206Y010428D02*
X015611Y010428D01*
X015746Y010563D01*
X015611Y010699D01*
X015206Y010699D01*
X015206Y010834D02*
X015206Y010428D01*
X015206Y010834D02*
X015341Y010969D01*
X015611Y010969D01*
X016034Y010834D02*
X016034Y010428D01*
X016305Y010428D02*
X016305Y010834D01*
X016169Y010969D01*
X016034Y010834D01*
X016305Y010834D02*
X016440Y010969D01*
X016575Y010969D01*
X016575Y010428D01*
X016863Y010563D02*
X016863Y010699D01*
X016998Y010834D01*
X017268Y010834D01*
X017403Y010969D01*
X017403Y011104D01*
X017268Y011239D01*
X016998Y011239D01*
X016863Y011104D01*
X016863Y010563D02*
X016998Y010428D01*
X017268Y010428D01*
X017403Y010563D01*
X014647Y010969D02*
X014512Y010969D01*
X008564Y010969D02*
X008429Y010834D01*
X008159Y010834D01*
X008023Y010699D01*
X008023Y010563D01*
X008159Y010428D01*
X008429Y010428D01*
X008564Y010563D01*
X007735Y010428D02*
X007330Y010428D01*
X007195Y010563D01*
X007195Y011104D01*
X007330Y011239D01*
X007735Y011239D01*
X007735Y010428D01*
X008023Y011104D02*
X008159Y011239D01*
X008429Y011239D01*
X008564Y011104D01*
X008564Y010969D01*
D12*
X008297Y012363D02*
X008150Y012363D01*
X008076Y012437D01*
X008076Y012584D01*
X008223Y012584D01*
X008076Y012730D02*
X008150Y012804D01*
X008297Y012804D01*
X008370Y012730D01*
X008370Y012437D01*
X008297Y012363D01*
X007910Y012363D02*
X007910Y012804D01*
X007616Y012363D01*
X007616Y012804D01*
X007449Y012804D02*
X007229Y012804D01*
X007156Y012730D01*
X007156Y012437D01*
X007229Y012363D01*
X007449Y012363D01*
X007449Y012804D01*
X010516Y012904D02*
X010516Y012610D01*
X010663Y012463D01*
X010810Y012610D01*
X010810Y012904D01*
X010976Y012904D02*
X011270Y012904D01*
X011270Y012684D01*
X011123Y012757D01*
X011050Y012757D01*
X010976Y012684D01*
X010976Y012537D01*
X011050Y012463D01*
X011197Y012463D01*
X011270Y012537D01*
X011245Y007432D02*
X011172Y007359D01*
X011172Y007285D01*
X011465Y007285D01*
X011465Y007212D02*
X011465Y007359D01*
X011392Y007432D01*
X011245Y007432D01*
X011632Y007432D02*
X011852Y007432D01*
X011925Y007359D01*
X011925Y007212D01*
X011852Y007138D01*
X011632Y007138D01*
X011465Y007212D02*
X011392Y007138D01*
X011245Y007138D01*
X011622Y006902D02*
X011622Y006829D01*
X011622Y006682D02*
X011622Y006388D01*
X011695Y006388D02*
X011549Y006388D01*
X011388Y006388D02*
X011388Y006682D01*
X011168Y006682D01*
X011095Y006609D01*
X011095Y006388D01*
X010928Y006462D02*
X010855Y006388D01*
X010634Y006388D01*
X010634Y006315D02*
X010634Y006682D01*
X010855Y006682D01*
X010928Y006609D01*
X010928Y006462D01*
X010781Y006242D02*
X010708Y006242D01*
X010634Y006315D01*
X010468Y006388D02*
X010468Y006462D01*
X010468Y006609D02*
X010468Y006902D01*
X010471Y007138D02*
X010324Y007138D01*
X010251Y007212D01*
X010251Y007359D01*
X010324Y007432D01*
X010471Y007432D01*
X010544Y007359D01*
X010544Y007212D01*
X010471Y007138D01*
X010084Y007138D02*
X010084Y007432D01*
X009864Y007432D01*
X009790Y007359D01*
X009790Y007138D01*
X009163Y007579D02*
X008870Y007579D01*
X009016Y007579D02*
X009016Y007138D01*
X008703Y007212D02*
X008703Y007359D01*
X008629Y007432D01*
X008483Y007432D01*
X008409Y007359D01*
X008409Y007285D01*
X008703Y007285D01*
X008703Y007212D02*
X008629Y007138D01*
X008483Y007138D01*
X008242Y007212D02*
X008242Y007359D01*
X008169Y007432D01*
X008022Y007432D01*
X007949Y007359D01*
X007949Y007285D01*
X008242Y007285D01*
X008242Y007212D02*
X008169Y007138D01*
X008022Y007138D01*
X007782Y007138D02*
X007782Y007432D01*
X007562Y007432D01*
X007488Y007359D01*
X007488Y007138D01*
X007322Y007138D02*
X007101Y007138D01*
X007028Y007212D01*
X007101Y007285D01*
X007248Y007285D01*
X007322Y007359D01*
X007248Y007432D01*
X007028Y007432D01*
X006861Y007432D02*
X006861Y007212D01*
X006788Y007138D01*
X006568Y007138D01*
X006568Y007065D02*
X006641Y006992D01*
X006714Y006992D01*
X006568Y007065D02*
X006568Y007432D01*
X011622Y006682D02*
X011695Y006682D01*
X011859Y006682D02*
X011932Y006682D01*
X012079Y006535D01*
X012079Y006388D02*
X012079Y006682D01*
X012246Y006609D02*
X012246Y006535D01*
X012539Y006535D01*
X012539Y006462D02*
X012539Y006609D01*
X012466Y006682D01*
X012319Y006682D01*
X012246Y006609D01*
X012319Y006388D02*
X012466Y006388D01*
X012539Y006462D01*
X012706Y006388D02*
X012926Y006388D01*
X013000Y006462D01*
X013000Y006609D01*
X012926Y006682D01*
X012706Y006682D01*
X012706Y006829D02*
X012706Y006388D01*
X013160Y006388D02*
X013307Y006388D01*
X013233Y006388D02*
X013233Y006829D01*
X013307Y006829D01*
X013473Y006609D02*
X013547Y006682D01*
X013694Y006682D01*
X013767Y006609D01*
X013767Y006462D01*
X013694Y006388D01*
X013547Y006388D01*
X013473Y006462D01*
X013473Y006609D01*
X013934Y006535D02*
X013934Y006462D01*
X014007Y006388D01*
X014154Y006388D01*
X014227Y006462D01*
X014154Y006609D02*
X014007Y006609D01*
X013934Y006535D01*
X013934Y006755D02*
X014007Y006829D01*
X014154Y006829D01*
X014227Y006755D01*
X014227Y006682D01*
X014154Y006609D01*
X014855Y006609D02*
X014855Y006535D01*
X015148Y006535D01*
X015148Y006462D02*
X015148Y006609D01*
X015075Y006682D01*
X014928Y006682D01*
X014855Y006609D01*
X014928Y006388D02*
X015075Y006388D01*
X015148Y006462D01*
X015312Y006682D02*
X015385Y006682D01*
X015532Y006535D01*
X015532Y006388D02*
X015532Y006682D01*
X015699Y006609D02*
X015772Y006682D01*
X015919Y006682D01*
X015992Y006609D01*
X015992Y006462D01*
X015919Y006388D01*
X015772Y006388D01*
X015699Y006462D01*
X015699Y006609D01*
X016152Y006609D02*
X016299Y006609D01*
X016226Y006755D02*
X016226Y006388D01*
X016466Y006535D02*
X016760Y006535D01*
X016760Y006462D02*
X016760Y006609D01*
X016686Y006682D01*
X016539Y006682D01*
X016466Y006609D01*
X016466Y006535D01*
X016539Y006388D02*
X016686Y006388D01*
X016760Y006462D01*
X016926Y006462D02*
X017000Y006388D01*
X017220Y006388D01*
X017220Y006829D01*
X017000Y006829D01*
X016926Y006755D01*
X016926Y006682D01*
X017000Y006609D01*
X017220Y006609D01*
X017000Y006609D02*
X016926Y006535D01*
X016926Y006462D01*
X016226Y006755D02*
X016152Y006829D01*
X016152Y007138D02*
X016226Y007212D01*
X016226Y007505D01*
X016299Y007432D02*
X016152Y007432D01*
X016466Y007432D02*
X016466Y007138D01*
X016686Y007138D01*
X016760Y007212D01*
X016760Y007432D01*
X016926Y007505D02*
X017000Y007579D01*
X017147Y007579D01*
X017220Y007505D01*
X017220Y007212D01*
X017147Y007138D01*
X017000Y007138D01*
X016926Y007212D01*
X015532Y007285D02*
X015385Y007138D01*
X015238Y007285D01*
X015238Y007579D01*
X015072Y007579D02*
X015072Y007212D01*
X014998Y007138D01*
X014851Y007138D01*
X014778Y007212D01*
X014778Y007579D01*
X014611Y007505D02*
X014611Y007432D01*
X014538Y007359D01*
X014391Y007359D01*
X014318Y007285D01*
X014318Y007212D01*
X014391Y007138D01*
X014538Y007138D01*
X014611Y007212D01*
X014151Y007138D02*
X013931Y007138D01*
X013857Y007212D01*
X013857Y007285D01*
X013931Y007359D01*
X014151Y007359D01*
X014151Y007579D02*
X014151Y007138D01*
X013931Y007359D02*
X013857Y007432D01*
X013857Y007505D01*
X013931Y007579D01*
X014151Y007579D01*
X014318Y007505D02*
X014391Y007579D01*
X014538Y007579D01*
X014611Y007505D01*
X015532Y007579D02*
X015532Y007285D01*
X013230Y007579D02*
X012936Y007579D01*
X013083Y007579D02*
X013083Y007138D01*
X012770Y007138D02*
X012770Y007432D01*
X012770Y007285D02*
X012623Y007432D01*
X012549Y007432D01*
X012312Y007432D02*
X012166Y007432D01*
X012092Y007359D01*
X012092Y007138D01*
X012312Y007138D01*
X012386Y007212D01*
X012312Y007285D01*
X012092Y007285D01*
X012144Y003504D02*
X012071Y003430D01*
X012071Y003284D01*
X012144Y003210D01*
X012365Y003210D01*
X012365Y003063D02*
X012365Y003504D01*
X012144Y003504D01*
X011904Y003504D02*
X011611Y003504D01*
X011757Y003504D02*
X011757Y003063D01*
X012071Y003063D02*
X012218Y003210D01*
X012531Y003284D02*
X012825Y003284D01*
X012825Y003357D02*
X012825Y003063D01*
X012992Y003137D02*
X012992Y003504D01*
X012825Y003357D02*
X012678Y003504D01*
X012531Y003357D01*
X012531Y003063D01*
X012992Y003137D02*
X013065Y003063D01*
X013212Y003063D01*
X013285Y003137D01*
X013285Y003504D01*
X013452Y003284D02*
X013746Y003284D01*
X013599Y003430D02*
X013599Y003137D01*
X013906Y003063D02*
X014053Y003063D01*
X013979Y003063D02*
X013979Y003504D01*
X013906Y003504D02*
X014053Y003504D01*
X014219Y003430D02*
X014219Y003284D01*
X014293Y003210D01*
X014513Y003210D01*
X014513Y003063D02*
X014513Y003504D01*
X014293Y003504D01*
X014219Y003430D01*
X014680Y003430D02*
X014753Y003504D01*
X014900Y003504D01*
X014973Y003430D01*
X014973Y003357D01*
X014900Y003284D01*
X014753Y003284D01*
X014680Y003210D01*
X014680Y003137D01*
X014753Y003063D01*
X014900Y003063D01*
X014973Y003137D01*
X015140Y003504D02*
X015434Y003063D01*
X015601Y003137D02*
X015674Y003063D01*
X015821Y003063D01*
X015894Y003137D01*
X015601Y003430D01*
X015601Y003137D01*
X015894Y003137D02*
X015894Y003430D01*
X015821Y003504D01*
X015674Y003504D01*
X015601Y003430D01*
X016061Y003430D02*
X016355Y003137D01*
X016281Y003063D01*
X016134Y003063D01*
X016061Y003137D01*
X016061Y003430D01*
X016134Y003504D01*
X016281Y003504D01*
X016355Y003430D01*
X016355Y003137D01*
X016521Y003137D02*
X016595Y003063D01*
X016742Y003063D01*
X016815Y003137D01*
X016521Y003430D01*
X016521Y003137D01*
X016815Y003137D02*
X016815Y003430D01*
X016742Y003504D01*
X016595Y003504D01*
X016521Y003430D01*
X016982Y003430D02*
X016982Y003357D01*
X017055Y003284D01*
X016982Y003210D01*
X016982Y003137D01*
X017055Y003063D01*
X017202Y003063D01*
X017275Y003137D01*
X017442Y003137D02*
X017516Y003063D01*
X017662Y003063D01*
X017736Y003137D01*
X017736Y003430D01*
X017662Y003504D01*
X017516Y003504D01*
X017442Y003430D01*
X017275Y003430D02*
X017202Y003504D01*
X017055Y003504D01*
X016982Y003430D01*
X017055Y003284D02*
X017129Y003284D01*
X017903Y003430D02*
X017976Y003504D01*
X018123Y003504D01*
X018196Y003430D01*
X018196Y003137D01*
X018123Y003063D01*
X017976Y003063D01*
X017903Y003137D01*
X009804Y003063D02*
X009657Y003063D01*
X009730Y003063D02*
X009730Y003504D01*
X009657Y003504D02*
X009804Y003504D01*
X009497Y003504D02*
X009277Y003504D01*
X009203Y003430D01*
X009203Y003284D01*
X009277Y003210D01*
X009497Y003210D01*
X009497Y003063D02*
X009497Y003504D01*
X009350Y003210D02*
X009203Y003063D01*
X006484Y003063D02*
X006337Y003063D01*
X006410Y003063D02*
X006410Y003504D01*
X006337Y003504D02*
X006484Y003504D01*
X006177Y003430D02*
X006104Y003504D01*
X005957Y003504D01*
X005883Y003430D01*
X005883Y003357D01*
X006177Y003063D01*
X005883Y003063D01*
X005717Y003137D02*
X005643Y003063D01*
X005496Y003063D01*
X005423Y003137D01*
X005717Y003137D02*
X005717Y003430D01*
X005643Y003504D01*
X005496Y003504D01*
X005423Y003430D01*
D13*
X014671Y008332D02*
X014734Y008268D01*
X014861Y008268D01*
X014924Y008332D01*
X015085Y008332D02*
X015148Y008268D01*
X015275Y008268D01*
X015339Y008332D01*
X015085Y008585D01*
X015085Y008332D01*
X015085Y008585D02*
X015148Y008649D01*
X015275Y008649D01*
X015339Y008585D01*
X015339Y008332D01*
X015488Y008268D02*
X015551Y008332D01*
X015551Y008585D01*
X015615Y008522D02*
X015488Y008522D01*
X015828Y008522D02*
X015828Y008268D01*
X015891Y008268D02*
X015764Y008268D01*
X016046Y008268D02*
X016236Y008395D01*
X016046Y008522D01*
X015891Y008522D02*
X015828Y008522D01*
X015828Y008649D02*
X015828Y008712D01*
X015833Y008943D02*
X015960Y008943D01*
X015897Y008943D02*
X015897Y009324D01*
X015960Y009324D01*
X016121Y009197D02*
X016374Y008943D01*
X016524Y008943D02*
X016651Y008943D01*
X016587Y008943D02*
X016587Y009197D01*
X016651Y009197D01*
X016587Y009324D02*
X016587Y009387D01*
X016374Y009197D02*
X016121Y008943D01*
X016236Y008649D02*
X016236Y008268D01*
X016397Y008268D02*
X016397Y008458D01*
X016460Y008522D01*
X016524Y008458D01*
X016524Y008268D01*
X016651Y008268D02*
X016651Y008522D01*
X016587Y008522D01*
X016524Y008458D01*
X016811Y008522D02*
X017002Y008522D01*
X017065Y008458D01*
X017002Y008395D01*
X016875Y008395D01*
X016811Y008332D01*
X016875Y008268D01*
X017065Y008268D01*
X017065Y008817D02*
X017065Y009197D01*
X016875Y009197D01*
X016811Y009133D01*
X016811Y009007D01*
X016875Y008943D01*
X017065Y008943D01*
X015684Y008943D02*
X015620Y008943D01*
X015620Y009007D01*
X015684Y009007D01*
X015684Y008943D01*
X015477Y008943D02*
X015477Y009197D01*
X015413Y009197D01*
X015350Y009133D01*
X015286Y009197D01*
X015223Y009133D01*
X015223Y008943D01*
X015350Y008943D02*
X015350Y009133D01*
X015062Y009197D02*
X014809Y008943D01*
X014648Y008943D02*
X014394Y009324D01*
X014809Y009197D02*
X015062Y008943D01*
X014861Y008649D02*
X014734Y008649D01*
X014671Y008585D01*
X014671Y008522D01*
X014734Y008458D01*
X014671Y008395D01*
X014671Y008332D01*
X014734Y008458D02*
X014797Y008458D01*
X014924Y008585D02*
X014861Y008649D01*
D14*
X009800Y012433D02*
X007600Y017133D01*
X006300Y017333D02*
X010200Y017333D01*
X010200Y014133D01*
X006300Y014133D01*
X006300Y017333D01*
X008000Y003633D02*
X008000Y003033D01*
X011000Y003033D02*
X011000Y003633D01*
D15*
X010709Y004707D02*
X010612Y004752D01*
X010660Y004729D02*
X010796Y005020D01*
X010844Y004997D02*
X010747Y005042D01*
X010622Y005101D02*
X010477Y005168D01*
X010406Y005143D01*
X010360Y005046D01*
X010386Y004975D01*
X010531Y004907D01*
X010486Y004811D02*
X010622Y005101D01*
X010435Y004952D02*
X010293Y004901D01*
X010044Y005095D02*
X009954Y004901D01*
X009883Y004876D01*
X009786Y004921D01*
X009760Y004992D01*
X009806Y005088D01*
X009902Y005043D01*
X009851Y005185D02*
X009922Y005211D01*
X010018Y005166D01*
X010044Y005095D01*
X009733Y005299D02*
X009404Y005099D01*
X009539Y005389D01*
X009399Y005455D02*
X009254Y005522D01*
X009183Y005496D01*
X009093Y005303D01*
X009119Y005232D01*
X009264Y005164D01*
X009399Y005455D01*
X009733Y005299D02*
X009598Y005009D01*
X009044Y004945D02*
X009018Y005016D01*
X008922Y005061D01*
X008851Y005035D01*
X008828Y004987D01*
X008854Y004916D01*
X008783Y004890D01*
X008760Y004842D01*
X008786Y004771D01*
X008883Y004726D01*
X008954Y004751D01*
X008902Y004893D02*
X008854Y004916D01*
X008643Y004955D02*
X008501Y004904D01*
X008449Y005046D01*
X008539Y005239D01*
X008377Y005256D02*
X008351Y005327D01*
X008254Y005372D01*
X008183Y005346D01*
X008160Y005298D01*
X008186Y005227D01*
X008115Y005201D01*
X008093Y005153D01*
X008119Y005082D01*
X008215Y005037D01*
X008286Y005063D01*
X008235Y005205D02*
X008186Y005227D01*
X008018Y005016D02*
X007922Y005061D01*
X007851Y005035D01*
X007806Y004938D02*
X007902Y004893D01*
X007806Y004938D02*
X007760Y004842D01*
X007786Y004771D01*
X007883Y004726D01*
X007954Y004751D01*
X008044Y004945D01*
X008018Y005016D01*
X007733Y005149D02*
X007598Y004859D01*
X007404Y004949D02*
X007539Y005239D01*
X007399Y005305D02*
X007264Y005014D01*
X007119Y005082D01*
X007093Y005153D01*
X007183Y005346D01*
X007254Y005372D01*
X007399Y005305D01*
X007404Y004949D02*
X007733Y005149D01*
X007044Y004945D02*
X007018Y005016D01*
X006922Y005061D01*
X006851Y005035D01*
X006828Y004987D01*
X006854Y004916D01*
X006783Y004890D01*
X006760Y004842D01*
X006786Y004771D01*
X006883Y004726D01*
X006954Y004751D01*
X006902Y004893D02*
X006854Y004916D01*
X006643Y004955D02*
X006501Y004904D01*
X006449Y005046D01*
X006539Y005239D01*
X006377Y005256D02*
X006351Y005327D01*
X006254Y005372D01*
X006183Y005346D01*
X006160Y005298D01*
X006186Y005227D01*
X006115Y005201D01*
X006093Y005153D01*
X006119Y005082D01*
X006215Y005037D01*
X006286Y005063D01*
X006235Y005205D02*
X006186Y005227D01*
X006018Y005016D02*
X006044Y004945D01*
X006022Y004897D01*
X005951Y004871D01*
X005854Y004916D01*
X005783Y004890D01*
X005760Y004842D01*
X005786Y004771D01*
X005883Y004726D01*
X005954Y004751D01*
X005598Y004859D02*
X005452Y004926D01*
X005427Y004997D01*
X005517Y005191D01*
X005588Y005217D01*
X005733Y005149D01*
X005598Y004859D01*
X005851Y005035D02*
X005922Y005061D01*
X006018Y005016D01*
X006643Y004955D02*
X006733Y005149D01*
X005354Y005208D02*
X005264Y005014D01*
X005331Y005159D02*
X005138Y005250D01*
X005160Y005298D02*
X005070Y005105D01*
X005018Y005016D02*
X005044Y004945D01*
X005022Y004897D01*
X004951Y004871D01*
X004854Y004916D01*
X004783Y004890D01*
X004760Y004842D01*
X004786Y004771D01*
X004883Y004726D01*
X004954Y004751D01*
X004620Y004907D02*
X004549Y004881D01*
X004452Y004926D01*
X004427Y004997D01*
X004264Y005014D02*
X004070Y005105D01*
X004264Y005014D02*
X004399Y005305D01*
X004517Y005191D02*
X004588Y005217D01*
X004685Y005171D01*
X004710Y005101D01*
X004620Y004907D01*
X004851Y005035D02*
X004922Y005061D01*
X005018Y005016D01*
X005354Y005208D02*
X005302Y005350D01*
X005160Y005298D01*
X008643Y004955D02*
X008733Y005149D01*
X011137Y004927D02*
X011466Y005127D01*
X011606Y005061D02*
X011800Y004971D01*
X011703Y005016D02*
X011568Y004726D01*
X011331Y004836D02*
X011272Y005217D01*
X012137Y004927D02*
X012466Y005127D01*
X012584Y005013D02*
X012539Y004916D01*
X012564Y004845D01*
X012710Y004778D01*
X012613Y004823D02*
X012471Y004771D01*
X012331Y004836D02*
X012272Y005217D01*
X012584Y005013D02*
X012655Y005039D01*
X012800Y004971D01*
X012664Y004681D01*
X013236Y004904D02*
X013332Y004859D01*
X013403Y004885D01*
X013400Y005004D02*
X013303Y005049D01*
X013232Y005023D01*
X013210Y004975D01*
X013236Y004904D01*
X013400Y005004D02*
X013471Y005030D01*
X013493Y005078D01*
X013468Y005149D01*
X013371Y005194D01*
X013300Y005169D01*
X013634Y005013D02*
X013705Y005039D01*
X013801Y004994D01*
X013827Y004923D01*
X013737Y004729D01*
X013666Y004703D01*
X013569Y004749D01*
X013544Y004819D01*
X014167Y004959D02*
X014302Y005250D01*
X014399Y005205D02*
X014206Y005295D01*
X014539Y005139D02*
X014427Y004897D01*
X014452Y004826D01*
X014549Y004781D01*
X014620Y004807D01*
X014733Y005049D01*
X014851Y004935D02*
X014922Y004961D01*
X015018Y004916D01*
X015044Y004845D01*
X014954Y004651D01*
X014883Y004626D01*
X014786Y004671D01*
X014760Y004742D01*
X014851Y004935D01*
X015243Y004901D02*
X015378Y005191D01*
X015572Y005101D02*
X015243Y004901D01*
X015436Y004811D02*
X015572Y005101D01*
X015697Y005042D02*
X015794Y004997D01*
X015746Y005020D02*
X015610Y004729D01*
X015659Y004707D02*
X015562Y004752D01*
X016164Y004914D02*
X016299Y005205D01*
X016183Y005082D02*
X015970Y005005D01*
X016209Y005011D02*
X016106Y005295D01*
X016633Y005049D02*
X016498Y004759D01*
X016304Y004849D01*
X016660Y004742D02*
X016686Y004671D01*
X016783Y004626D01*
X016854Y004651D01*
X016944Y004845D01*
X016918Y004916D01*
X016822Y004961D01*
X016751Y004935D01*
X017282Y005023D02*
X017372Y005217D01*
X017282Y005023D02*
X017334Y004882D01*
X017476Y004933D01*
X017566Y005127D01*
X017706Y005061D02*
X017900Y004971D01*
X017832Y004826D01*
X017758Y004919D01*
X017710Y004942D01*
X017639Y004916D01*
X017594Y004819D01*
X017619Y004749D01*
X017716Y004703D01*
X017787Y004729D01*
X018119Y004982D02*
X018264Y004914D01*
X018399Y005205D01*
X018254Y005272D01*
X018183Y005246D01*
X018093Y005053D01*
X018119Y004982D01*
X018404Y004849D02*
X018539Y005139D01*
X018733Y005049D02*
X018404Y004849D01*
X018598Y004759D02*
X018733Y005049D01*
X018851Y004935D02*
X018922Y004961D01*
X019018Y004916D01*
X019044Y004845D01*
X018954Y004651D01*
X018883Y004626D01*
X018786Y004671D01*
X018760Y004742D01*
X018806Y004838D01*
X018902Y004793D01*
X005981Y013953D02*
X005836Y014021D01*
X005810Y014092D01*
X005833Y014140D01*
X005904Y014166D01*
X006049Y014098D01*
X005981Y013953D02*
X006117Y014243D01*
X005972Y014311D01*
X005901Y014285D01*
X005878Y014237D01*
X005904Y014166D01*
X005715Y014254D02*
X005522Y014344D01*
X005544Y014392D02*
X005454Y014199D01*
X005544Y014392D02*
X005686Y014444D01*
X005738Y014302D01*
X005648Y014109D01*
X005094Y014195D02*
X005004Y014001D01*
X004933Y013976D01*
X004836Y014021D01*
X004810Y014092D01*
X004856Y014188D01*
X004952Y014143D01*
X004901Y014285D02*
X004972Y014311D01*
X005068Y014266D01*
X005094Y014195D01*
X005217Y014309D02*
X005352Y014600D01*
X005449Y014555D02*
X005256Y014645D01*
X004783Y014399D02*
X004454Y014199D01*
X004589Y014489D01*
X004449Y014555D02*
X004304Y014622D01*
X004233Y014596D01*
X004143Y014403D01*
X004169Y014332D01*
X004314Y014264D01*
X004449Y014555D01*
X004783Y014399D02*
X004648Y014109D01*
X004117Y014243D02*
X003972Y014311D01*
X003901Y014285D01*
X003856Y014188D01*
X003881Y014117D01*
X004026Y014050D01*
X003981Y013953D02*
X004117Y014243D01*
X003760Y014351D02*
X003670Y014157D01*
X003599Y014131D01*
X003502Y014176D01*
X003477Y014247D01*
X003522Y014344D01*
X003618Y014299D01*
X003567Y014441D02*
X003638Y014467D01*
X003735Y014421D01*
X003760Y014351D01*
X003449Y014555D02*
X003314Y014264D01*
X003120Y014355D02*
X003256Y014645D01*
X003307Y014503D01*
X003449Y014555D01*
X003981Y016553D02*
X004072Y016747D01*
X004020Y016888D01*
X003878Y016837D01*
X003788Y016643D01*
X003648Y016709D02*
X003454Y016799D01*
X003551Y016754D02*
X003686Y017044D01*
X003738Y016902D01*
X003856Y016788D02*
X004049Y016698D01*
X004169Y016932D02*
X004143Y017003D01*
X004233Y017196D01*
X004304Y017222D01*
X004449Y017155D01*
X004314Y016864D01*
X004169Y016932D01*
X004454Y016799D02*
X004589Y017089D01*
X004783Y016999D02*
X004454Y016799D01*
X004648Y016709D02*
X004783Y016999D01*
X004901Y016885D02*
X004972Y016911D01*
X005068Y016866D01*
X005094Y016795D01*
X005004Y016601D01*
X004933Y016576D01*
X004836Y016621D01*
X004810Y016692D01*
X004856Y016788D01*
X004952Y016743D01*
X005169Y016932D02*
X005265Y016887D01*
X005336Y016913D01*
X005285Y017055D02*
X005236Y017077D01*
X005165Y017051D01*
X005143Y017003D01*
X005169Y016932D01*
X005236Y017077D02*
X005210Y017148D01*
X005233Y017196D01*
X005304Y017222D01*
X005401Y017177D01*
X005427Y017106D01*
X005589Y017089D02*
X005499Y016896D01*
X005551Y016754D01*
X005693Y016805D01*
X005783Y016999D01*
X005901Y016885D02*
X005878Y016837D01*
X005904Y016766D01*
X005833Y016740D01*
X005810Y016692D01*
X005836Y016621D01*
X005933Y016576D01*
X006004Y016601D01*
X005952Y016743D02*
X005904Y016766D01*
X005901Y016885D02*
X005972Y016911D01*
X006068Y016866D01*
X006094Y016795D01*
X003381Y017009D02*
X003188Y017100D01*
X003304Y017222D02*
X003169Y016932D01*
X003381Y017009D02*
X003304Y017222D01*
X012543Y015603D02*
X012633Y015796D01*
X012704Y015822D01*
X012849Y015755D01*
X012714Y015464D01*
X012569Y015532D01*
X012543Y015603D01*
X012854Y015399D02*
X012989Y015689D01*
X013183Y015599D02*
X012854Y015399D01*
X013048Y015309D02*
X013183Y015599D01*
X013301Y015485D02*
X013372Y015511D01*
X013468Y015466D01*
X013494Y015395D01*
X013404Y015201D01*
X013333Y015176D01*
X013236Y015221D01*
X013210Y015292D01*
X013256Y015388D01*
X013352Y015343D01*
X013784Y015432D02*
X013732Y015573D01*
X013822Y015767D01*
X014016Y015677D02*
X013926Y015483D01*
X013784Y015432D01*
X014044Y015369D02*
X014069Y015299D01*
X014166Y015253D01*
X014237Y015279D01*
X014282Y015376D02*
X014208Y015469D01*
X014160Y015492D01*
X014089Y015466D01*
X014044Y015369D01*
X014282Y015376D02*
X014350Y015521D01*
X014156Y015611D01*
D16*
X017475Y009808D03*
X017475Y009808D03*
X017775Y009808D03*
X018075Y009808D03*
X018075Y009808D03*
X018075Y009508D03*
X018075Y009508D03*
X018375Y009508D03*
X018675Y009208D03*
X018675Y008908D03*
X018075Y008908D03*
X017475Y008908D03*
X017475Y008608D03*
X017475Y008608D03*
X017475Y008308D03*
X017475Y008308D03*
X017775Y008308D03*
X018075Y008308D03*
X018075Y008308D03*
X018675Y008308D03*
X018675Y008308D03*
X018675Y008608D03*
X018675Y008608D03*
X018675Y008008D03*
X018075Y008008D03*
X017775Y008008D03*
X018075Y007708D03*
X018375Y007708D03*
X018675Y007708D03*
X017475Y009208D03*
X017475Y009508D03*
X017475Y009508D03*
X017775Y009508D03*
M02*
