G75*
G70*
%OFA0B0*%
%FSLAX24Y24*%
%IPPOS*%
%LPD*%
%AMOC8*
5,1,8,0,0,1.08239X$1,22.5*
%
%ADD10C,0.0000*%
%ADD11R,0.0394X0.0433*%
%ADD12C,0.1033*%
%ADD13R,0.1033X0.1033*%
%ADD14C,0.0860*%
%ADD15R,0.0640X0.0640*%
%ADD16OC8,0.0640*%
%ADD17R,0.0591X0.0551*%
%ADD18R,0.0591X0.0512*%
%ADD19R,0.0689X0.0276*%
%ADD20R,0.0800X0.0276*%
%ADD21R,0.0591X0.0315*%
%ADD22R,0.0394X0.0551*%
%ADD23R,0.0551X0.0315*%
%ADD24R,0.0610X0.0394*%
%ADD25C,0.1122*%
%ADD26R,0.0551X0.0551*%
%ADD27OC8,0.0560*%
%ADD28C,0.0620*%
%ADD29C,0.0160*%
%ADD30C,0.0396*%
%ADD31C,0.0700*%
%ADD32C,0.0100*%
%ADD33C,0.0320*%
D10*
X001600Y004500D02*
X017900Y004500D01*
X017973Y004502D01*
X018046Y004508D01*
X018119Y004517D01*
X018191Y004531D01*
X018262Y004548D01*
X018333Y004569D01*
X018402Y004593D01*
X018469Y004621D01*
X018536Y004653D01*
X018600Y004688D01*
X018662Y004726D01*
X018723Y004767D01*
X018781Y004812D01*
X018837Y004860D01*
X018890Y004910D01*
X018940Y004963D01*
X018988Y005019D01*
X019033Y005077D01*
X019074Y005138D01*
X019112Y005200D01*
X019147Y005264D01*
X019179Y005331D01*
X019207Y005398D01*
X019231Y005467D01*
X019252Y005538D01*
X019269Y005609D01*
X019283Y005681D01*
X019292Y005754D01*
X019298Y005827D01*
X019300Y005900D01*
X019300Y018400D01*
X019301Y018445D01*
X019297Y018491D01*
X019290Y018536D01*
X019280Y018580D01*
X019266Y018623D01*
X019249Y018665D01*
X019228Y018706D01*
X019205Y018745D01*
X019178Y018782D01*
X019148Y018816D01*
X019116Y018848D01*
X019082Y018878D01*
X019045Y018905D01*
X019006Y018928D01*
X018965Y018949D01*
X018923Y018966D01*
X018880Y018980D01*
X018836Y018990D01*
X018791Y018997D01*
X018745Y019001D01*
X018700Y019000D01*
X001600Y019000D01*
X001527Y018998D01*
X001454Y018992D01*
X001381Y018983D01*
X001309Y018969D01*
X001238Y018952D01*
X001167Y018931D01*
X001098Y018907D01*
X001031Y018879D01*
X000964Y018847D01*
X000900Y018812D01*
X000838Y018774D01*
X000777Y018733D01*
X000719Y018688D01*
X000663Y018640D01*
X000610Y018590D01*
X000560Y018537D01*
X000512Y018481D01*
X000467Y018423D01*
X000426Y018362D01*
X000388Y018300D01*
X000353Y018236D01*
X000321Y018169D01*
X000293Y018102D01*
X000269Y018033D01*
X000248Y017962D01*
X000231Y017891D01*
X000217Y017819D01*
X000208Y017746D01*
X000202Y017673D01*
X000200Y017600D01*
X000200Y005900D01*
X000202Y005827D01*
X000208Y005754D01*
X000217Y005681D01*
X000231Y005609D01*
X000248Y005538D01*
X000269Y005467D01*
X000293Y005398D01*
X000321Y005331D01*
X000353Y005264D01*
X000388Y005200D01*
X000426Y005138D01*
X000467Y005077D01*
X000512Y005019D01*
X000560Y004963D01*
X000610Y004910D01*
X000663Y004860D01*
X000719Y004812D01*
X000777Y004767D01*
X000838Y004726D01*
X000900Y004688D01*
X000964Y004653D01*
X001031Y004621D01*
X001098Y004593D01*
X001167Y004569D01*
X001238Y004548D01*
X001309Y004531D01*
X001381Y004517D01*
X001454Y004508D01*
X001527Y004502D01*
X001600Y004500D01*
X001070Y017500D02*
X001072Y017550D01*
X001078Y017600D01*
X001088Y017649D01*
X001102Y017697D01*
X001119Y017744D01*
X001140Y017789D01*
X001165Y017833D01*
X001193Y017874D01*
X001225Y017913D01*
X001259Y017950D01*
X001296Y017984D01*
X001336Y018014D01*
X001378Y018041D01*
X001422Y018065D01*
X001468Y018086D01*
X001515Y018102D01*
X001563Y018115D01*
X001613Y018124D01*
X001662Y018129D01*
X001713Y018130D01*
X001763Y018127D01*
X001812Y018120D01*
X001861Y018109D01*
X001909Y018094D01*
X001955Y018076D01*
X002000Y018054D01*
X002043Y018028D01*
X002084Y017999D01*
X002123Y017967D01*
X002159Y017932D01*
X002191Y017894D01*
X002221Y017854D01*
X002248Y017811D01*
X002271Y017767D01*
X002290Y017721D01*
X002306Y017673D01*
X002318Y017624D01*
X002326Y017575D01*
X002330Y017525D01*
X002330Y017475D01*
X002326Y017425D01*
X002318Y017376D01*
X002306Y017327D01*
X002290Y017279D01*
X002271Y017233D01*
X002248Y017189D01*
X002221Y017146D01*
X002191Y017106D01*
X002159Y017068D01*
X002123Y017033D01*
X002084Y017001D01*
X002043Y016972D01*
X002000Y016946D01*
X001955Y016924D01*
X001909Y016906D01*
X001861Y016891D01*
X001812Y016880D01*
X001763Y016873D01*
X001713Y016870D01*
X001662Y016871D01*
X001613Y016876D01*
X001563Y016885D01*
X001515Y016898D01*
X001468Y016914D01*
X001422Y016935D01*
X001378Y016959D01*
X001336Y016986D01*
X001296Y017016D01*
X001259Y017050D01*
X001225Y017087D01*
X001193Y017126D01*
X001165Y017167D01*
X001140Y017211D01*
X001119Y017256D01*
X001102Y017303D01*
X001088Y017351D01*
X001078Y017400D01*
X001072Y017450D01*
X001070Y017500D01*
X017847Y017000D02*
X017849Y017042D01*
X017855Y017084D01*
X017865Y017126D01*
X017878Y017166D01*
X017896Y017205D01*
X017917Y017242D01*
X017941Y017276D01*
X017969Y017309D01*
X017999Y017339D01*
X018032Y017365D01*
X018067Y017389D01*
X018105Y017409D01*
X018144Y017425D01*
X018184Y017438D01*
X018226Y017447D01*
X018268Y017452D01*
X018311Y017453D01*
X018353Y017450D01*
X018395Y017443D01*
X018436Y017432D01*
X018476Y017417D01*
X018514Y017399D01*
X018551Y017377D01*
X018585Y017352D01*
X018617Y017324D01*
X018645Y017293D01*
X018671Y017259D01*
X018694Y017223D01*
X018713Y017186D01*
X018729Y017146D01*
X018741Y017105D01*
X018749Y017064D01*
X018753Y017021D01*
X018753Y016979D01*
X018749Y016936D01*
X018741Y016895D01*
X018729Y016854D01*
X018713Y016814D01*
X018694Y016777D01*
X018671Y016741D01*
X018645Y016707D01*
X018617Y016676D01*
X018585Y016648D01*
X018551Y016623D01*
X018514Y016601D01*
X018476Y016583D01*
X018436Y016568D01*
X018395Y016557D01*
X018353Y016550D01*
X018311Y016547D01*
X018268Y016548D01*
X018226Y016553D01*
X018184Y016562D01*
X018144Y016575D01*
X018105Y016591D01*
X018067Y016611D01*
X018032Y016635D01*
X017999Y016661D01*
X017969Y016691D01*
X017941Y016724D01*
X017917Y016758D01*
X017896Y016795D01*
X017878Y016834D01*
X017865Y016874D01*
X017855Y016916D01*
X017849Y016958D01*
X017847Y017000D01*
D11*
X013885Y016500D03*
X013215Y016500D03*
D12*
X011540Y015050D03*
X009980Y015050D03*
X008420Y015050D03*
D13*
X006860Y015050D03*
D14*
X007016Y017400D03*
X008984Y017400D03*
D15*
X005500Y016700D03*
X003500Y017700D03*
X001350Y013500D03*
X006500Y005700D03*
X007500Y005700D03*
X010500Y005700D03*
X011500Y005700D03*
X014500Y017700D03*
D16*
X013500Y017700D03*
X005500Y017700D03*
X004500Y017700D03*
X004500Y016700D03*
X003500Y016700D03*
X002350Y013500D03*
X002350Y012500D03*
X002350Y011500D03*
X002350Y010500D03*
X002350Y009500D03*
X002350Y008500D03*
X001350Y008500D03*
X001350Y009500D03*
X001350Y010500D03*
X001350Y011500D03*
X001350Y012500D03*
X001350Y007500D03*
X001350Y006500D03*
X002350Y006500D03*
X002350Y007500D03*
X003500Y005700D03*
X004500Y005700D03*
X005500Y005700D03*
X008500Y005700D03*
X009500Y005700D03*
X012500Y005700D03*
X013500Y005700D03*
X014500Y005700D03*
X015500Y005700D03*
X016500Y005700D03*
X017500Y005700D03*
X018500Y005700D03*
D17*
X018633Y012737D03*
D18*
X018633Y008288D03*
D19*
X018673Y008780D03*
X018673Y009193D03*
X018673Y010059D03*
X018673Y010926D03*
X018673Y011359D03*
X018673Y011792D03*
D20*
X018673Y010493D03*
X018673Y009626D03*
D21*
X015641Y008170D03*
D22*
X015051Y008288D03*
D23*
X015385Y012855D03*
D24*
X014421Y012717D03*
D25*
X015820Y014953D03*
X015820Y017000D03*
X015820Y018339D03*
X018694Y018457D03*
X018694Y014559D03*
D26*
X014750Y014852D03*
X014750Y016348D03*
D27*
X013900Y015850D03*
X012900Y015850D03*
X012900Y014850D03*
X013900Y014850D03*
X004300Y014200D03*
X004300Y011200D03*
X004300Y010200D03*
X004300Y007200D03*
D28*
X005700Y007500D03*
X006700Y007500D03*
X007700Y007500D03*
X008700Y007500D03*
X009700Y007500D03*
X010700Y007500D03*
X011700Y007500D03*
X012700Y007500D03*
X013700Y007500D03*
X014700Y007500D03*
X015700Y007500D03*
X016700Y007500D03*
X017700Y007500D03*
X018700Y007500D03*
X012700Y009500D03*
X012700Y010500D03*
X011700Y010500D03*
X011700Y009500D03*
X010700Y009500D03*
X010700Y010500D03*
X009700Y010500D03*
X008700Y010500D03*
X008700Y009500D03*
X009700Y009500D03*
X007700Y009500D03*
X007700Y010500D03*
X006700Y010500D03*
X006700Y009500D03*
X005700Y009500D03*
X005700Y008500D03*
X005700Y010500D03*
X005700Y011500D03*
X005700Y012500D03*
X005700Y013500D03*
X006700Y013500D03*
X007700Y013500D03*
X008700Y013500D03*
X009700Y013500D03*
X010700Y013500D03*
X011700Y013500D03*
X012700Y013500D03*
X013700Y013500D03*
X014700Y013500D03*
X015700Y013500D03*
X016700Y013500D03*
X017700Y013500D03*
X018700Y013500D03*
D29*
X018700Y013200D01*
X018500Y013000D01*
X018100Y012500D01*
X018247Y012600D01*
X018633Y012737D01*
X016800Y014200D02*
X017200Y014600D01*
X017200Y015900D01*
X016900Y016200D01*
X015300Y016200D01*
X014952Y016448D01*
X014750Y016348D01*
X014102Y015900D01*
X013900Y015850D01*
X013215Y016500D02*
X012900Y016535D01*
X012900Y015850D01*
X012700Y016500D02*
X012665Y016550D01*
X013215Y016500D01*
X014750Y016348D02*
X014750Y017000D01*
X015400Y015800D02*
X016300Y015800D01*
X016800Y015300D01*
X016800Y014900D01*
X016800Y014200D02*
X016600Y014200D01*
X014750Y014852D02*
X015400Y015800D01*
X014750Y014852D02*
X014598Y014900D01*
X013900Y014850D01*
X017693Y010493D02*
X018673Y010493D01*
X018673Y009626D02*
X018024Y009626D01*
X017750Y009600D01*
X017000Y009800D02*
X017693Y010493D01*
X017000Y009800D02*
X017000Y008000D01*
X016700Y007500D01*
X015641Y008170D02*
X015600Y008461D01*
X015650Y008550D01*
X014400Y009400D01*
X017850Y008450D02*
X018062Y008288D01*
X018633Y008288D01*
X008450Y006950D02*
X008080Y006600D01*
X006600Y006600D01*
X006200Y006300D01*
X005200Y006300D01*
X004600Y005700D01*
X004500Y005700D01*
X004300Y015100D02*
X005000Y015800D01*
X005000Y017200D01*
X005500Y017700D01*
D30*
X004300Y015100D03*
X012200Y013050D03*
X015200Y013150D03*
X016600Y014200D03*
X016800Y014900D03*
X018100Y012500D03*
X017650Y009000D03*
X015650Y008550D03*
X014400Y009400D03*
X008450Y006950D03*
D31*
X014939Y018339D02*
X015820Y018339D01*
D32*
X015100Y018290D02*
X008100Y018290D01*
X008100Y018192D02*
X015100Y018192D01*
X015100Y018093D02*
X014951Y018093D01*
X014960Y018078D02*
X014940Y018112D01*
X014912Y018140D01*
X014878Y018160D01*
X014840Y018170D01*
X014550Y018170D01*
X014550Y017750D01*
X014450Y017750D01*
X014450Y018170D01*
X014160Y018170D01*
X014122Y018160D01*
X014088Y018140D01*
X014060Y018112D01*
X014040Y018078D01*
X014030Y018040D01*
X014030Y017750D01*
X014450Y017750D01*
X014450Y017650D01*
X014030Y017650D01*
X014030Y017360D01*
X014040Y017322D01*
X014060Y017288D01*
X014088Y017260D01*
X014122Y017240D01*
X014160Y017230D01*
X014450Y017230D01*
X014450Y017650D01*
X014550Y017650D01*
X014550Y017750D01*
X014970Y017750D01*
X014970Y018040D01*
X014960Y018078D01*
X014970Y017995D02*
X015100Y017995D01*
X015100Y017896D02*
X014970Y017896D01*
X014970Y017798D02*
X015100Y017798D01*
X015100Y017699D02*
X014550Y017699D01*
X014550Y017650D02*
X014970Y017650D01*
X014970Y017360D01*
X014960Y017322D01*
X014940Y017288D01*
X014912Y017260D01*
X014878Y017240D01*
X014840Y017230D01*
X014550Y017230D01*
X014550Y017650D01*
X014550Y017601D02*
X014450Y017601D01*
X014450Y017699D02*
X013990Y017699D01*
X013990Y017601D02*
X014030Y017601D01*
X014030Y017502D02*
X013990Y017502D01*
X013990Y017497D02*
X013703Y017210D01*
X013297Y017210D01*
X013010Y017497D01*
X013010Y017903D01*
X013297Y018190D01*
X013703Y018190D01*
X013990Y017903D01*
X013990Y017497D01*
X014030Y017404D02*
X013896Y017404D01*
X013798Y017305D02*
X014050Y017305D01*
X014450Y017305D02*
X014550Y017305D01*
X014550Y017404D02*
X014450Y017404D01*
X014450Y017502D02*
X014550Y017502D01*
X014550Y017798D02*
X014450Y017798D01*
X014450Y017896D02*
X014550Y017896D01*
X014550Y017995D02*
X014450Y017995D01*
X014450Y018093D02*
X014550Y018093D01*
X015100Y018389D02*
X008100Y018389D01*
X008100Y018487D02*
X015100Y018487D01*
X015100Y018586D02*
X008100Y018586D01*
X008100Y018684D02*
X015100Y018684D01*
X015100Y018750D02*
X015100Y017173D01*
X015089Y017145D01*
X015089Y017000D01*
X012300Y017000D01*
X012300Y014900D01*
X012190Y014900D01*
X012195Y014920D01*
X012206Y015000D01*
X011590Y015000D01*
X011590Y015100D01*
X012206Y015100D01*
X012195Y015180D01*
X012173Y015265D01*
X012139Y015346D01*
X012096Y015421D01*
X012042Y015491D01*
X011981Y015552D01*
X011911Y015606D01*
X011836Y015649D01*
X011755Y015683D01*
X011670Y015705D01*
X011590Y015716D01*
X011590Y015100D01*
X011490Y015100D01*
X011490Y015716D01*
X011410Y015705D01*
X011325Y015683D01*
X011244Y015649D01*
X011169Y015606D01*
X011099Y015552D01*
X011038Y015491D01*
X010984Y015421D01*
X010941Y015346D01*
X010907Y015265D01*
X010885Y015180D01*
X010874Y015100D01*
X011490Y015100D01*
X011490Y015000D01*
X010874Y015000D01*
X010885Y014920D01*
X010890Y014900D01*
X010630Y014900D01*
X010635Y014920D01*
X010646Y015000D01*
X010030Y015000D01*
X010030Y015100D01*
X009930Y015100D01*
X009930Y015716D01*
X009850Y015705D01*
X009765Y015683D01*
X009684Y015649D01*
X009609Y015606D01*
X009539Y015552D01*
X009478Y015491D01*
X009424Y015421D01*
X009381Y015346D01*
X009347Y015265D01*
X009325Y015180D01*
X009314Y015100D01*
X009930Y015100D01*
X009930Y015000D01*
X009314Y015000D01*
X009325Y014920D01*
X009330Y014900D01*
X009200Y014900D01*
X009200Y015900D01*
X008100Y017500D01*
X008100Y018750D01*
X015100Y018750D01*
X014049Y018093D02*
X013800Y018093D01*
X013898Y017995D02*
X014030Y017995D01*
X014030Y017896D02*
X013990Y017896D01*
X013990Y017798D02*
X014030Y017798D01*
X013200Y018093D02*
X008100Y018093D01*
X008100Y017995D02*
X013102Y017995D01*
X013010Y017896D02*
X009288Y017896D01*
X009207Y017938D01*
X009120Y017966D01*
X009033Y017980D01*
X009033Y017448D01*
X009564Y017448D01*
X009550Y017536D01*
X009522Y017623D01*
X009480Y017704D01*
X009427Y017778D01*
X009362Y017842D01*
X009288Y017896D01*
X009407Y017798D02*
X013010Y017798D01*
X013010Y017699D02*
X009483Y017699D01*
X009529Y017601D02*
X013010Y017601D01*
X013010Y017502D02*
X009555Y017502D01*
X009564Y017352D02*
X009033Y017352D01*
X009033Y017448D01*
X008936Y017448D01*
X008936Y017352D01*
X008405Y017352D01*
X008419Y017264D01*
X008447Y017177D01*
X008488Y017096D01*
X008542Y017022D01*
X008606Y016958D01*
X008680Y016904D01*
X008762Y016862D01*
X008848Y016834D01*
X008936Y016820D01*
X008936Y017352D01*
X009033Y017352D01*
X009033Y016820D01*
X009120Y016834D01*
X009207Y016862D01*
X009288Y016904D01*
X009362Y016958D01*
X009427Y017022D01*
X009480Y017096D01*
X009522Y017177D01*
X009550Y017264D01*
X009564Y017352D01*
X009556Y017305D02*
X013202Y017305D01*
X013104Y017404D02*
X009033Y017404D01*
X008936Y017404D02*
X008166Y017404D01*
X008100Y017502D02*
X008413Y017502D01*
X008419Y017536D02*
X008405Y017448D01*
X008936Y017448D01*
X008936Y017980D01*
X008848Y017966D01*
X008762Y017938D01*
X008680Y017896D01*
X008100Y017896D01*
X008100Y017798D02*
X008562Y017798D01*
X008542Y017778D02*
X008488Y017704D01*
X008447Y017623D01*
X008419Y017536D01*
X008440Y017601D02*
X008100Y017601D01*
X008100Y017699D02*
X008486Y017699D01*
X008542Y017778D02*
X008606Y017842D01*
X008680Y017896D01*
X008936Y017896D02*
X009033Y017896D01*
X009033Y017798D02*
X008936Y017798D01*
X008936Y017699D02*
X009033Y017699D01*
X009033Y017601D02*
X008936Y017601D01*
X008936Y017502D02*
X009033Y017502D01*
X009033Y017305D02*
X008936Y017305D01*
X008936Y017207D02*
X009033Y017207D01*
X009033Y017108D02*
X008936Y017108D01*
X008936Y017010D02*
X009033Y017010D01*
X009033Y016911D02*
X008936Y016911D01*
X009298Y016911D02*
X012300Y016911D01*
X012300Y016813D02*
X008573Y016813D01*
X008505Y016911D02*
X008671Y016911D01*
X008554Y017010D02*
X008437Y017010D01*
X008482Y017108D02*
X008369Y017108D01*
X008302Y017207D02*
X008437Y017207D01*
X008412Y017305D02*
X008234Y017305D01*
X008640Y016714D02*
X012300Y016714D01*
X012300Y016616D02*
X008708Y016616D01*
X008776Y016517D02*
X012300Y016517D01*
X012300Y016419D02*
X008844Y016419D01*
X008911Y016320D02*
X012300Y016320D01*
X012300Y016222D02*
X008979Y016222D01*
X009047Y016123D02*
X012300Y016123D01*
X012300Y016025D02*
X009114Y016025D01*
X009182Y015926D02*
X012300Y015926D01*
X012300Y015828D02*
X009200Y015828D01*
X009200Y015729D02*
X012300Y015729D01*
X012300Y015631D02*
X011868Y015631D01*
X012001Y015532D02*
X012300Y015532D01*
X012300Y015434D02*
X012086Y015434D01*
X012144Y015335D02*
X012300Y015335D01*
X012300Y015237D02*
X012180Y015237D01*
X012201Y015138D02*
X012300Y015138D01*
X012300Y015040D02*
X011590Y015040D01*
X011590Y015138D02*
X011490Y015138D01*
X011490Y015040D02*
X010030Y015040D01*
X010030Y015100D02*
X010646Y015100D01*
X010635Y015180D01*
X010613Y015265D01*
X010579Y015346D01*
X010536Y015421D01*
X010482Y015491D01*
X010421Y015552D01*
X010351Y015606D01*
X010276Y015649D01*
X010195Y015683D01*
X010110Y015705D01*
X010030Y015716D01*
X010030Y015100D01*
X010030Y015138D02*
X009930Y015138D01*
X009930Y015040D02*
X009200Y015040D01*
X009200Y015138D02*
X009319Y015138D01*
X009340Y015237D02*
X009200Y015237D01*
X009200Y015335D02*
X009376Y015335D01*
X009434Y015434D02*
X009200Y015434D01*
X009200Y015532D02*
X009519Y015532D01*
X009652Y015631D02*
X009200Y015631D01*
X009200Y014941D02*
X009322Y014941D01*
X009930Y015237D02*
X010030Y015237D01*
X010030Y015335D02*
X009930Y015335D01*
X009930Y015434D02*
X010030Y015434D01*
X010030Y015532D02*
X009930Y015532D01*
X009930Y015631D02*
X010030Y015631D01*
X010308Y015631D02*
X011212Y015631D01*
X011079Y015532D02*
X010441Y015532D01*
X010526Y015434D02*
X010994Y015434D01*
X010936Y015335D02*
X010584Y015335D01*
X010620Y015237D02*
X010900Y015237D01*
X010879Y015138D02*
X010641Y015138D01*
X010638Y014941D02*
X010882Y014941D01*
X011490Y015237D02*
X011590Y015237D01*
X011590Y015335D02*
X011490Y015335D01*
X011490Y015434D02*
X011590Y015434D01*
X011590Y015532D02*
X011490Y015532D01*
X011490Y015631D02*
X011590Y015631D01*
X012198Y014941D02*
X012300Y014941D01*
X012900Y014850D02*
X013400Y015400D01*
X013400Y016050D01*
X013885Y016500D01*
X015089Y017010D02*
X009414Y017010D01*
X009486Y017108D02*
X015089Y017108D01*
X015100Y017207D02*
X009531Y017207D01*
X007750Y015800D02*
X007600Y016000D01*
X006100Y016000D01*
X004800Y014700D01*
X002350Y014700D01*
X001350Y013500D01*
X002000Y013000D02*
X004150Y013000D01*
X005500Y014350D01*
X007350Y014350D01*
X007700Y013950D01*
X011300Y013950D01*
X011700Y013500D01*
X012200Y013050D02*
X010100Y013050D01*
X009700Y013500D01*
X007950Y014350D02*
X007750Y014600D01*
X007750Y015800D01*
X007550Y015650D02*
X007400Y015800D01*
X006350Y015800D01*
X006100Y015600D01*
X006100Y015300D01*
X004250Y013450D01*
X002400Y013450D01*
X002350Y013500D01*
X002000Y013000D02*
X001500Y012500D01*
X001350Y012500D01*
X001150Y012000D02*
X000850Y011700D01*
X000850Y011350D01*
X001200Y011000D01*
X001600Y011000D01*
X001850Y010750D01*
X001850Y010350D01*
X002350Y009850D01*
X002350Y009500D01*
X001850Y009300D02*
X002100Y009000D01*
X004400Y009000D01*
X005400Y010000D01*
X011900Y010000D01*
X012200Y009700D01*
X012200Y008600D01*
X012700Y008100D01*
X012700Y007500D01*
X013200Y007200D02*
X013200Y008200D01*
X012950Y008500D01*
X013200Y008900D02*
X013200Y010700D01*
X012900Y011000D01*
X009800Y011000D01*
X009400Y011500D01*
X006800Y011500D01*
X006300Y012000D01*
X004100Y012000D01*
X003100Y011000D01*
X002100Y011000D01*
X001600Y011500D01*
X001350Y011500D01*
X001150Y012000D02*
X003450Y012000D01*
X005600Y014150D01*
X007150Y014150D01*
X007700Y013600D01*
X007700Y013500D01*
X007200Y013300D02*
X007200Y013750D01*
X007000Y013950D01*
X006150Y013950D01*
X005700Y013500D01*
X006400Y013000D02*
X004800Y013000D01*
X003300Y011500D01*
X002350Y011500D01*
X001350Y010500D02*
X001350Y010150D01*
X001850Y009700D01*
X001850Y009300D01*
X001650Y008500D02*
X001350Y008500D01*
X001650Y008500D02*
X002150Y008000D01*
X005900Y008000D01*
X006700Y008800D01*
X010850Y008800D01*
X011000Y008650D01*
X011300Y009000D02*
X005400Y009000D01*
X004600Y008200D01*
X002700Y008200D01*
X002500Y008400D01*
X002450Y008400D01*
X002350Y008500D01*
X001500Y008000D02*
X000900Y008000D01*
X000600Y008300D01*
X000600Y013900D01*
X003200Y016700D01*
X003500Y016700D01*
X006600Y013500D02*
X006700Y013500D01*
X006600Y013500D02*
X007700Y012400D01*
X012000Y012400D01*
X013200Y011300D01*
X014800Y011300D01*
X015400Y011900D01*
X016900Y011900D01*
X017824Y010926D01*
X018673Y010926D01*
X018298Y010900D01*
X017824Y010926D02*
X017176Y010926D01*
X017076Y010826D01*
X016676Y010376D01*
X016700Y008300D01*
X016150Y007800D01*
X016150Y006650D01*
X015900Y006400D01*
X015200Y006400D01*
X014500Y005700D01*
X015000Y005900D02*
X015300Y006200D01*
X016000Y006200D01*
X016500Y005700D01*
X017200Y006300D01*
X017200Y007800D01*
X017300Y008000D01*
X017300Y009600D01*
X017659Y010059D01*
X018673Y010059D01*
X018313Y010000D01*
X018650Y009198D02*
X018650Y009193D01*
X017843Y009193D01*
X017650Y009000D01*
X017550Y008900D01*
X017550Y008250D01*
X018200Y007750D01*
X018200Y006100D01*
X018000Y005900D01*
X018000Y005300D01*
X017800Y005100D01*
X015900Y005100D01*
X015500Y005700D01*
X015000Y005900D02*
X015000Y005200D01*
X014700Y004900D01*
X011500Y004900D01*
X011000Y005300D01*
X011000Y006100D01*
X011200Y006300D01*
X011200Y007800D01*
X010400Y008600D01*
X006800Y008600D01*
X005700Y007500D01*
X006000Y006800D02*
X005100Y006800D01*
X004600Y006400D01*
X003200Y006400D01*
X002700Y005900D01*
X002100Y005900D01*
X001850Y006150D01*
X001850Y006750D01*
X001350Y007250D01*
X001350Y007500D01*
X001400Y007500D01*
X001850Y007650D02*
X001850Y007300D01*
X002150Y007000D01*
X003100Y007000D01*
X003600Y007100D02*
X003000Y007700D01*
X002550Y007700D01*
X002350Y007500D01*
X001850Y007650D02*
X001500Y008000D01*
X001350Y006500D02*
X001350Y006050D01*
X001700Y005700D01*
X002800Y005700D01*
X003300Y006200D01*
X004700Y006200D01*
X005200Y006600D01*
X006100Y006600D01*
X006600Y007000D01*
X007800Y007000D01*
X008200Y007300D01*
X008200Y007700D01*
X008500Y008000D01*
X009900Y008000D01*
X010100Y008200D01*
X010200Y008200D01*
X009700Y007500D02*
X009700Y006700D01*
X009000Y006000D01*
X009000Y005500D01*
X008700Y005200D01*
X006000Y005200D01*
X005500Y005700D01*
X006500Y005700D02*
X007000Y006200D01*
X008600Y006200D01*
X009000Y006600D01*
X009000Y007300D01*
X008800Y007500D01*
X008700Y007500D01*
X008450Y008300D02*
X009200Y008300D01*
X008450Y008300D02*
X007700Y007500D01*
X006700Y007500D02*
X006700Y007400D01*
X006000Y006800D01*
X004500Y008600D02*
X003500Y008600D01*
X003500Y009400D02*
X003200Y009700D01*
X003200Y010100D01*
X003700Y009800D02*
X003700Y011100D01*
X004300Y010424D02*
X005339Y011462D01*
X005538Y011462D01*
X005700Y011500D01*
X005400Y011000D02*
X009000Y011000D01*
X009100Y011100D01*
X010000Y011400D02*
X012500Y011400D01*
X013310Y011690D02*
X013510Y011490D01*
X014212Y011490D01*
X014700Y011500D01*
X015300Y012100D01*
X017200Y012100D01*
X017900Y011400D01*
X018331Y011400D01*
X018673Y011359D01*
X017600Y012200D02*
X017500Y012300D01*
X015200Y012300D01*
X014600Y011700D01*
X013900Y011700D01*
X013600Y012000D01*
X012800Y012700D01*
X007800Y012700D01*
X007200Y013300D01*
X006400Y013000D02*
X007600Y011800D01*
X010800Y011800D01*
X012200Y013050D02*
X012950Y013050D01*
X013200Y013300D01*
X013200Y013700D01*
X013600Y014100D01*
X014300Y014100D01*
X014700Y013700D01*
X014700Y013500D01*
X015200Y013150D02*
X015181Y012950D01*
X015385Y012855D01*
X014950Y012500D02*
X016600Y012500D01*
X017500Y013400D01*
X017600Y013400D01*
X017700Y013500D01*
X016700Y013500D02*
X016500Y013500D01*
X016000Y012900D01*
X015700Y013500D02*
X015500Y013600D01*
X014750Y014350D01*
X007950Y014350D01*
X007850Y014150D02*
X012100Y014150D01*
X012700Y013500D01*
X014650Y012200D02*
X014950Y012500D01*
X013500Y010900D02*
X013500Y009300D01*
X013550Y009200D01*
X013200Y008900D02*
X013700Y008400D01*
X013700Y007500D01*
X013400Y007000D02*
X013200Y007200D01*
X013400Y007000D02*
X014100Y007000D01*
X014600Y007500D01*
X014700Y007500D01*
X014900Y006600D02*
X012900Y006600D01*
X012200Y007300D01*
X012200Y008100D01*
X011300Y009000D01*
X011700Y007500D02*
X013500Y005700D01*
X014000Y005400D02*
X013700Y005100D01*
X012100Y005100D01*
X011500Y005700D01*
X010700Y006100D02*
X010700Y007500D01*
X010700Y006100D02*
X010500Y005900D01*
X010500Y005700D01*
X010000Y005400D02*
X009950Y006150D01*
X010000Y005400D02*
X009400Y004800D01*
X002500Y004800D01*
X002300Y005000D01*
X002200Y005300D01*
X004500Y008600D02*
X005400Y009500D01*
X005700Y009500D01*
X005100Y010200D02*
X004300Y009400D01*
X003500Y009400D01*
X004300Y010200D02*
X004300Y010424D01*
X005100Y010200D02*
X005100Y010700D01*
X005400Y011000D01*
X007850Y014150D02*
X007550Y014500D01*
X007550Y015650D01*
X014950Y017305D02*
X015100Y017305D01*
X015100Y017404D02*
X014970Y017404D01*
X014970Y017502D02*
X015100Y017502D01*
X015100Y017601D02*
X014970Y017601D01*
X018650Y009198D02*
X018673Y009193D01*
X018657Y009193D02*
X018650Y009193D01*
X018650Y009198D02*
X018780Y009200D01*
X018850Y009200D01*
X015700Y007500D02*
X015700Y007400D01*
X014900Y006600D01*
X013950Y006100D02*
X014000Y006000D01*
X014000Y005400D01*
D33*
X013950Y006100D03*
X012950Y008500D03*
X013550Y009200D03*
X013500Y010900D03*
X013310Y011690D03*
X012500Y011400D03*
X010800Y011800D03*
X010000Y011400D03*
X009100Y011100D03*
X011000Y008650D03*
X010200Y008200D03*
X009200Y008300D03*
X009950Y006150D03*
X003600Y007100D03*
X003100Y007000D03*
X003500Y008600D03*
X003700Y009800D03*
X003200Y010100D03*
X003700Y011100D03*
X002200Y005300D03*
X012700Y016500D03*
X016000Y012900D03*
X014650Y012200D03*
X017600Y012200D03*
X017750Y009600D03*
X017850Y008450D03*
M02*
