%
M48
M72
T01C0.0130
T02C0.0220
T03C0.0236
T04C0.0360
T05C0.0400
T06C0.0472
T07C0.0512
T08C0.0900
T09C0.0906
T10C0.1102
T11C0.1260
T12C0.1614
%
T01
X13723Y9033
X13273Y10033
X14473Y10883
X14473Y11333
X15073Y11433
X15173Y10533
X14773Y10533
X15473Y10233
X16373Y10033
X16623Y10383
X17273Y10383
X16673Y11033
X17373Y11433
X17123Y11733
X17223Y12133
X17173Y12533
X16773Y12633
X17973Y13583
X18473Y13333
X18523Y12183
X18373Y11833
X18373Y11433
X20473Y12933
X20873Y13633
X21773Y14433
X22373Y14733
X20173Y14933
X17973Y15483
X16173Y14583
X14473Y13433
X14273Y12833
X15073Y12533
X13823Y13983
X13523Y15233
X13373Y15633
X14173Y16233
X13623Y17283
X13023Y17333
X12623Y17333
X13673Y18333
X15173Y17333
X15473Y17633
X15873Y17633
X16273Y17533
X16673Y17933
X17023Y17583
X15873Y18333
X15473Y18333
X13873Y19433
X16073Y19733
X16373Y20633
X14373Y21833
X13173Y22333
X12873Y23033
X14873Y23733
X14973Y24333
X15073Y24833
X15173Y22833
X19473Y21533
X20073Y20733
X19373Y19233
X20173Y17533
X21673Y17033
X22473Y17833
X24173Y16133
X26373Y16933
X26173Y18733
X29773Y17833
X26073Y12833
X23873Y12333
X23473Y12033
X23673Y11633
X23073Y11433
X23173Y10633
X22973Y10233
X23773Y10233
X24573Y9733
X24273Y9333
X25173Y8533
X25573Y8683
X25923Y9133
X27673Y9133
X28673Y8133
X24073Y4633
X24373Y4333
X24873Y4133
X23773Y4933
X23323Y5083
X19873Y7133
X18473Y7333
X17473Y7333
X17273Y6933
X16873Y6833
X16373Y6833
X15573Y6833
X15373Y7433
X14873Y8033
X15273Y8533
X14973Y9033
X16623Y8633
X16973Y8833
X17373Y8633
X18673Y5933
X18873Y5133
X19273Y5133
X18873Y4633
X18823Y4233
X18473Y4033
X17373Y3933
X15123Y3833
X21473Y9733
X21823Y10233
X21773Y11033
X22973Y12333
X28473Y12033
X30873Y4433
X26173Y25133
X25673Y28233
X28973Y28833
X18373Y27833
X17973Y28233
X17673Y28533
X16173Y26833
X15073Y27833
X13573Y27733
T02
X20173Y29933
X14073Y18083
X14923Y17933
X18673Y15933
X19673Y15033
X18673Y14733
X21273Y14983
X20473Y12233
X21873Y11833
X14873Y14533
X14473Y8633
T03
X12373Y8133
X14323Y10383
X12673Y11433
X16273Y10833
X16273Y13533
X13823Y14433
X12273Y17933
X24323Y14733
X24473Y13333
X29223Y11683
X20273Y5233
X16473Y3983
X25273Y4433
T04
X29823Y15341
X30603Y15341
X30603Y16325
X29823Y16325
T05
X28983Y19053
X30763Y19053
X30763Y21613
X28983Y21613
X27763Y23853
X25983Y23853
X25983Y26413
X25983Y27353
X27763Y27353
X27763Y26413
X28983Y27353
X30763Y27353
X30763Y29913
X28983Y29913
X27763Y29913
X25983Y29913
T06
X25373Y22802
X24389Y22802
X27342Y20833
X25373Y18865
X24389Y18865
T07
X25373Y20833
X27342Y19849
X27342Y18865
X27342Y21818
X27342Y22802
T08
X28753Y18203
X28753Y13463
T09
X29673Y7133
X29873Y22733
T10
X27767Y11133
X29105Y9244
T11
X30228Y11133
T12
X26523Y6833
X21873Y6833
M30
