G75*
%MOIN*%
%OFA0B0*%
%FSLAX25Y25*%
%IPPOS*%
%LPD*%
%AMOC8*
5,1,8,0,0,1.08239X$1,22.5*
%
%ADD10C,0.00600*%
%ADD11R,0.05512X0.04528*%
%ADD12R,0.05906X0.05118*%
%ADD13R,0.05118X0.05906*%
%ADD14R,0.07480X0.05512*%
%ADD15R,0.05512X0.07087*%
%ADD16R,0.05906X0.02756*%
%ADD17C,0.07400*%
%ADD18R,0.07874X0.03937*%
%ADD19R,0.09843X0.03937*%
%ADD20R,0.01100X0.05800*%
%ADD21R,0.05800X0.01100*%
%ADD22C,0.08600*%
%ADD23C,0.16598*%
%ADD24C,0.15024*%
%ADD25C,0.06600*%
%ADD26C,0.13000*%
%ADD27R,0.08700X0.02400*%
%ADD28R,0.16535X0.12598*%
%ADD29C,0.03937*%
%ADD30R,0.01378X0.05630*%
%ADD31R,0.04331X0.07480*%
%ADD32C,0.31496*%
%ADD33R,0.05512X0.05512*%
%ADD34R,0.05906X0.06299*%
%ADD35R,0.06299X0.05906*%
%ADD36R,0.01122X0.04331*%
%ADD37R,0.04331X0.01122*%
%ADD38R,0.10236X0.03937*%
%ADD39C,0.01600*%
%ADD40C,0.01000*%
%ADD41C,0.03962*%
%ADD42C,0.02900*%
%ADD43C,0.03800*%
%ADD44C,0.01200*%
%ADD45C,0.05000*%
D10*
X0251998Y0289633D02*
X0251431Y0290200D01*
X0251431Y0292469D01*
X0253699Y0290200D01*
X0253132Y0289633D01*
X0251998Y0289633D01*
X0253699Y0290200D02*
X0253699Y0292469D01*
X0253132Y0293036D01*
X0251998Y0293036D01*
X0251431Y0292469D01*
X0255114Y0292469D02*
X0255681Y0293036D01*
X0256815Y0293036D01*
X0257382Y0292469D01*
X0256248Y0291335D02*
X0255681Y0291335D01*
X0255114Y0290768D01*
X0255114Y0290200D01*
X0255681Y0289633D01*
X0256815Y0289633D01*
X0257382Y0290200D01*
X0258797Y0291335D02*
X0261066Y0291335D01*
X0262480Y0291902D02*
X0263047Y0291335D01*
X0262480Y0290768D01*
X0262480Y0290200D01*
X0263047Y0289633D01*
X0264182Y0289633D01*
X0264749Y0290200D01*
X0266163Y0290200D02*
X0266730Y0289633D01*
X0267865Y0289633D01*
X0268432Y0290200D01*
X0266163Y0292469D01*
X0266163Y0290200D01*
X0268432Y0290200D02*
X0268432Y0292469D01*
X0267865Y0293036D01*
X0266730Y0293036D01*
X0266163Y0292469D01*
X0264749Y0292469D02*
X0264182Y0293036D01*
X0263047Y0293036D01*
X0262480Y0292469D01*
X0262480Y0291902D01*
X0263047Y0291335D02*
X0263614Y0291335D01*
X0269846Y0291335D02*
X0272115Y0291335D01*
X0273530Y0291335D02*
X0273530Y0290200D01*
X0274097Y0289633D01*
X0275231Y0289633D01*
X0275798Y0290200D01*
X0275798Y0291335D02*
X0274664Y0291902D01*
X0274097Y0291902D01*
X0273530Y0291335D01*
X0273530Y0293036D02*
X0275798Y0293036D01*
X0275798Y0291335D01*
X0277213Y0289633D02*
X0279481Y0289633D01*
X0278347Y0289633D02*
X0278347Y0293036D01*
X0279481Y0291902D01*
X0280896Y0292469D02*
X0283164Y0290200D01*
X0282597Y0289633D01*
X0281463Y0289633D01*
X0280896Y0290200D01*
X0280896Y0292469D01*
X0281463Y0293036D01*
X0282597Y0293036D01*
X0283164Y0292469D01*
X0283164Y0290200D01*
X0284579Y0289633D02*
X0286848Y0289633D01*
X0284579Y0291902D01*
X0284579Y0292469D01*
X0285146Y0293036D01*
X0286280Y0293036D01*
X0286848Y0292469D01*
X0255681Y0291335D02*
X0255114Y0291902D01*
X0255114Y0292469D01*
D11*
X0195063Y0101483D03*
X0195063Y0095184D03*
X0186401Y0095184D03*
X0186401Y0101483D03*
D12*
X0124732Y0099593D03*
X0124732Y0107073D03*
X0140732Y0150093D03*
X0140732Y0157573D03*
X0151732Y0158073D03*
X0160732Y0158073D03*
X0160732Y0150593D03*
X0151732Y0150593D03*
X0207732Y0159593D03*
X0207732Y0167073D03*
X0218732Y0164073D03*
X0218732Y0156593D03*
X0258732Y0156593D03*
X0258732Y0164073D03*
X0269732Y0164073D03*
X0269732Y0156593D03*
X0279732Y0159593D03*
X0279732Y0167073D03*
X0288732Y0167073D03*
X0288732Y0159593D03*
X0305732Y0145073D03*
X0305732Y0137593D03*
X0275732Y0132073D03*
X0275732Y0124593D03*
X0254732Y0117073D03*
X0254732Y0109593D03*
X0269732Y0172593D03*
X0269732Y0180073D03*
X0258732Y0182073D03*
X0258732Y0174593D03*
X0175732Y0201593D03*
X0175732Y0209073D03*
X0175732Y0226593D03*
X0175732Y0234073D03*
X0175732Y0254593D03*
X0175732Y0262073D03*
D13*
X0147472Y0203333D03*
X0139992Y0203333D03*
X0173992Y0149333D03*
X0181472Y0149333D03*
X0190992Y0122833D03*
X0198472Y0122833D03*
X0197472Y0112333D03*
X0189992Y0112333D03*
X0229992Y0147333D03*
X0237472Y0147333D03*
X0249992Y0148333D03*
X0257472Y0148333D03*
X0281992Y0149833D03*
X0289472Y0149833D03*
X0247472Y0178333D03*
X0239992Y0178333D03*
X0268992Y0253333D03*
X0276472Y0253333D03*
X0262472Y0096833D03*
X0254992Y0096833D03*
D14*
X0127925Y0035408D03*
X0124381Y0087377D03*
D15*
X0179500Y0065329D03*
X0179500Y0041707D03*
D16*
X0140917Y0064936D03*
X0139342Y0060605D03*
X0137767Y0056274D03*
X0139342Y0051944D03*
X0137767Y0047613D03*
X0139342Y0043282D03*
X0139342Y0038951D03*
X0139342Y0069266D03*
D17*
X0289832Y0190533D03*
X0307632Y0190533D03*
X0307632Y0216133D03*
X0289832Y0216133D03*
X0277632Y0238533D03*
X0259832Y0238533D03*
X0259832Y0264133D03*
X0259832Y0273533D03*
X0277632Y0273533D03*
X0277632Y0264133D03*
X0289832Y0273533D03*
X0307632Y0273533D03*
X0307632Y0299133D03*
X0289832Y0299133D03*
X0277632Y0299133D03*
X0259832Y0299133D03*
D18*
X0143043Y0283333D03*
X0143043Y0273333D03*
X0143043Y0263333D03*
X0143043Y0253333D03*
X0143043Y0243333D03*
X0143043Y0233333D03*
X0143043Y0223333D03*
X0143043Y0213333D03*
D19*
X0161783Y0213333D03*
X0161783Y0223333D03*
X0161783Y0233333D03*
X0161783Y0243333D03*
X0161783Y0253333D03*
X0161783Y0263333D03*
X0161783Y0273333D03*
X0161783Y0283333D03*
D20*
X0217932Y0129933D03*
X0219832Y0129933D03*
X0221832Y0129933D03*
X0223832Y0129933D03*
X0225732Y0129933D03*
X0227732Y0129933D03*
X0229732Y0129933D03*
X0231732Y0129933D03*
X0233632Y0129933D03*
X0235632Y0129933D03*
X0237632Y0129933D03*
X0239532Y0129933D03*
X0239532Y0096733D03*
X0237632Y0096733D03*
X0235632Y0096733D03*
X0233632Y0096733D03*
X0231732Y0096733D03*
X0229732Y0096733D03*
X0227732Y0096733D03*
X0225732Y0096733D03*
X0223832Y0096733D03*
X0221832Y0096733D03*
X0219832Y0096733D03*
X0217932Y0096733D03*
D21*
X0212132Y0102533D03*
X0212132Y0104433D03*
X0212132Y0106433D03*
X0212132Y0108433D03*
X0212132Y0110333D03*
X0212132Y0112333D03*
X0212132Y0114333D03*
X0212132Y0116333D03*
X0212132Y0118233D03*
X0212132Y0120233D03*
X0212132Y0122233D03*
X0212132Y0124133D03*
X0245332Y0124133D03*
X0245332Y0122233D03*
X0245332Y0120233D03*
X0245332Y0118233D03*
X0245332Y0116333D03*
X0245332Y0114333D03*
X0245332Y0112333D03*
X0245332Y0110333D03*
X0245332Y0108433D03*
X0245332Y0106433D03*
X0245332Y0104433D03*
X0245332Y0102533D03*
D22*
X0273417Y0188648D03*
X0273417Y0198491D03*
X0253732Y0208333D03*
X0273417Y0218176D03*
X0273417Y0228018D03*
D23*
X0302275Y0111333D03*
D24*
X0291055Y0092436D03*
X0277669Y0111333D03*
D25*
X0298232Y0153412D03*
X0306032Y0153412D03*
X0306032Y0163255D03*
X0298232Y0163255D03*
D26*
X0287532Y0182033D03*
X0287532Y0134633D03*
D27*
X0249032Y0155833D03*
X0249032Y0160833D03*
X0249032Y0165833D03*
X0249032Y0170833D03*
X0228432Y0170833D03*
X0228432Y0165833D03*
X0228432Y0160833D03*
X0228432Y0155833D03*
D28*
X0213732Y0180656D03*
X0213732Y0296010D03*
D29*
X0125732Y0297333D03*
X0304732Y0289333D03*
X0300732Y0043333D03*
D30*
X0173248Y0167703D03*
X0170689Y0167703D03*
X0168129Y0167703D03*
X0165570Y0167703D03*
X0163011Y0167703D03*
X0160452Y0167703D03*
X0157893Y0167703D03*
X0155334Y0167703D03*
X0152775Y0167703D03*
X0150216Y0167703D03*
X0145248Y0167703D03*
X0142689Y0167703D03*
X0140129Y0167703D03*
X0137570Y0167703D03*
X0135011Y0167703D03*
X0132452Y0167703D03*
X0129893Y0167703D03*
X0127334Y0167703D03*
X0124775Y0167703D03*
X0122216Y0167703D03*
X0122216Y0188963D03*
X0124775Y0188963D03*
X0127334Y0188963D03*
X0129893Y0188963D03*
X0132452Y0188963D03*
X0135011Y0188963D03*
X0137570Y0188963D03*
X0140129Y0188963D03*
X0142689Y0188963D03*
X0145248Y0188963D03*
X0150216Y0188963D03*
X0152775Y0188963D03*
X0155334Y0188963D03*
X0157893Y0188963D03*
X0160452Y0188963D03*
X0163011Y0188963D03*
X0165570Y0188963D03*
X0168129Y0188963D03*
X0170689Y0188963D03*
X0173248Y0188963D03*
D31*
X0190007Y0133833D03*
X0199456Y0133833D03*
D32*
X0218732Y0068333D03*
X0265232Y0068333D03*
D33*
X0262732Y0105853D03*
X0262732Y0120814D03*
X0266212Y0132333D03*
X0251252Y0132333D03*
X0195732Y0166853D03*
X0186732Y0166853D03*
X0186732Y0181814D03*
X0195732Y0181814D03*
D34*
X0291645Y0227333D03*
X0305818Y0227333D03*
D35*
X0296732Y0078420D03*
X0296732Y0064247D03*
D36*
X0170933Y0095518D03*
X0168964Y0095518D03*
X0166996Y0095518D03*
X0165027Y0095518D03*
X0163059Y0095518D03*
X0161090Y0095518D03*
X0159122Y0095518D03*
X0157153Y0095518D03*
X0155185Y0095518D03*
X0153216Y0095518D03*
X0151248Y0095518D03*
X0149279Y0095518D03*
X0147311Y0095518D03*
X0145342Y0095518D03*
X0143374Y0095518D03*
X0141405Y0095518D03*
X0141405Y0140400D03*
X0143374Y0140400D03*
X0145342Y0140400D03*
X0147311Y0140400D03*
X0149279Y0140400D03*
X0151248Y0140400D03*
X0153216Y0140400D03*
X0155185Y0140400D03*
X0157153Y0140400D03*
X0159122Y0140400D03*
X0161090Y0140400D03*
X0163059Y0140400D03*
X0165027Y0140400D03*
X0166996Y0140400D03*
X0168964Y0140400D03*
X0170933Y0140400D03*
D37*
X0178610Y0132723D03*
X0178610Y0130755D03*
X0178610Y0128786D03*
X0178610Y0126818D03*
X0178610Y0124849D03*
X0178610Y0122881D03*
X0178610Y0120912D03*
X0178610Y0118944D03*
X0178610Y0116975D03*
X0178610Y0115007D03*
X0178610Y0113038D03*
X0178610Y0111070D03*
X0178610Y0109101D03*
X0178610Y0107133D03*
X0178610Y0105164D03*
X0178610Y0103196D03*
X0133728Y0103196D03*
X0133728Y0105164D03*
X0133728Y0107133D03*
X0133728Y0109101D03*
X0133728Y0111070D03*
X0133728Y0113038D03*
X0133728Y0115007D03*
X0133728Y0116975D03*
X0133728Y0118944D03*
X0133728Y0120912D03*
X0133728Y0122881D03*
X0133728Y0124849D03*
X0133728Y0126818D03*
X0133728Y0128786D03*
X0133728Y0130755D03*
X0133728Y0132723D03*
D38*
X0289078Y0241333D03*
X0289078Y0251333D03*
X0289078Y0261333D03*
D39*
X0122732Y0040333D02*
X0124732Y0038333D01*
X0130000Y0035333D01*
X0127925Y0035408D01*
X0129000Y0035333D01*
X0143732Y0035333D01*
X0147732Y0040333D01*
X0147732Y0044833D01*
X0144952Y0047613D01*
X0137767Y0047613D01*
X0137767Y0056274D02*
X0147173Y0056274D01*
X0147173Y0056292D01*
X0162532Y0040933D01*
X0164732Y0039833D01*
X0155232Y0034833D02*
X0248732Y0034833D01*
X0253732Y0038333D01*
X0302732Y0038333D01*
X0308732Y0044333D01*
X0252732Y0044333D02*
X0240732Y0054333D01*
X0231732Y0054333D01*
X0226732Y0050333D01*
X0202732Y0050333D01*
X0202732Y0052333D01*
X0198732Y0071333D02*
X0197732Y0073333D01*
X0184732Y0073333D01*
X0174732Y0073333D01*
X0150232Y0070333D02*
X0150232Y0061833D01*
X0147173Y0056274D01*
X0150232Y0070333D02*
X0140732Y0079833D01*
X0140732Y0095333D01*
X0140732Y0097987D01*
X0143232Y0102487D01*
X0143232Y0103833D01*
X0124732Y0107073D02*
X0126732Y0114333D01*
X0124732Y0099593D02*
X0124732Y0090026D01*
X0124381Y0087377D01*
X0124381Y0082483D01*
X0123732Y0081333D01*
X0122732Y0080333D01*
X0122732Y0040333D01*
X0151232Y0038333D02*
X0155232Y0034833D01*
X0191732Y0107333D02*
X0189732Y0109333D01*
X0189732Y0112593D01*
X0189992Y0112333D01*
X0197472Y0112333D02*
X0197732Y0112333D01*
X0204732Y0119333D01*
X0204732Y0122333D01*
X0204632Y0122233D01*
X0199572Y0122233D01*
X0198472Y0122833D01*
X0199732Y0123333D01*
X0204732Y0122333D02*
X0204832Y0122233D01*
X0206732Y0113333D02*
X0211732Y0113333D01*
X0214732Y0113333D01*
X0218732Y0114333D01*
X0218732Y0118333D01*
X0228732Y0116333D02*
X0236732Y0116333D01*
X0230732Y0114333D02*
X0228732Y0116333D01*
X0206732Y0113333D02*
X0201732Y0107333D01*
X0191732Y0107333D01*
X0197472Y0112333D02*
X0197732Y0112073D01*
X0190992Y0122833D02*
X0189476Y0124849D01*
X0173539Y0140400D02*
X0173472Y0140333D01*
X0171732Y0140333D01*
X0173539Y0140400D02*
X0181472Y0149333D01*
X0185732Y0149333D01*
X0186732Y0147333D01*
X0193732Y0150333D02*
X0196732Y0150333D01*
X0193732Y0150333D02*
X0186732Y0157333D01*
X0186732Y0159333D01*
X0185732Y0161333D01*
X0168232Y0161333D01*
X0168129Y0164471D01*
X0168129Y0167703D01*
X0165570Y0167703D01*
X0168232Y0161333D02*
X0164862Y0159203D01*
X0160732Y0158073D01*
X0151732Y0158073D01*
X0151216Y0157589D01*
X0151216Y0161849D01*
X0148732Y0164333D01*
X0148732Y0166219D01*
X0150216Y0167703D01*
X0149362Y0167703D01*
X0148232Y0168333D01*
X0148232Y0178333D01*
X0149232Y0179333D01*
X0153732Y0179833D02*
X0149232Y0184333D01*
X0145248Y0184333D01*
X0145248Y0188963D01*
X0145248Y0201109D01*
X0147472Y0203333D01*
X0139992Y0203333D02*
X0139992Y0210282D01*
X0143043Y0213333D01*
X0139992Y0203333D02*
X0139732Y0203073D01*
X0139732Y0199333D01*
X0142689Y0196377D01*
X0142689Y0188963D01*
X0142689Y0182790D01*
X0140732Y0180833D01*
X0145248Y0184333D02*
X0145248Y0167703D01*
X0141732Y0162333D02*
X0140732Y0161333D01*
X0140732Y0157573D01*
X0141992Y0150593D02*
X0151732Y0150593D01*
X0160732Y0150593D02*
X0161732Y0145833D01*
X0160992Y0149593D02*
X0169732Y0158333D01*
X0181732Y0158333D01*
X0194232Y0145833D01*
X0214732Y0145833D01*
X0222732Y0152333D01*
X0234732Y0152333D01*
X0237732Y0149333D01*
X0237732Y0147593D01*
X0237472Y0147333D01*
X0243232Y0147333D01*
X0247732Y0148333D02*
X0249992Y0148333D01*
X0247732Y0148333D02*
X0240232Y0155833D01*
X0228432Y0155833D01*
X0219972Y0155833D01*
X0218732Y0156593D01*
X0217472Y0154593D01*
X0212732Y0149833D01*
X0208232Y0149833D01*
X0200732Y0157333D01*
X0200732Y0170333D01*
X0198732Y0172333D01*
X0191732Y0172333D01*
X0186732Y0177333D01*
X0186732Y0181814D01*
X0186732Y0202333D01*
X0242732Y0258333D01*
X0273472Y0258333D01*
X0276472Y0253333D01*
X0279972Y0253573D01*
X0289078Y0261333D01*
X0289078Y0251333D02*
X0284732Y0247333D01*
X0273732Y0247333D01*
X0268992Y0252073D01*
X0268992Y0253333D01*
X0263732Y0253333D01*
X0261732Y0251333D01*
X0214055Y0296333D02*
X0213732Y0296010D01*
X0205055Y0296010D01*
X0201732Y0299333D01*
X0150732Y0278333D02*
X0145732Y0273333D01*
X0143043Y0273333D01*
X0143043Y0253333D02*
X0145732Y0253333D01*
X0150732Y0248333D01*
X0173472Y0209073D02*
X0168732Y0204333D01*
X0168992Y0197073D01*
X0170732Y0193333D01*
X0170732Y0189007D01*
X0170689Y0188963D01*
X0173248Y0188963D02*
X0173248Y0202558D01*
X0175732Y0201593D01*
X0175732Y0209073D02*
X0173472Y0209073D01*
X0175732Y0209073D02*
X0168732Y0205333D01*
X0160732Y0197333D01*
X0173248Y0188963D02*
X0173248Y0179333D01*
X0166732Y0179333D01*
X0166232Y0179833D01*
X0153732Y0179833D01*
X0173248Y0179333D02*
X0173732Y0178333D01*
X0173732Y0168188D01*
X0173248Y0167703D01*
X0186732Y0166853D02*
X0195732Y0166853D01*
X0186732Y0166853D02*
X0201732Y0151853D01*
X0201732Y0149333D01*
X0207732Y0159593D02*
X0211992Y0159593D01*
X0216732Y0164333D01*
X0218472Y0164333D01*
X0218732Y0164073D01*
X0218732Y0169333D01*
X0216732Y0170333D01*
X0218732Y0164073D02*
X0219992Y0164073D01*
X0222732Y0161333D01*
X0227932Y0161333D01*
X0228432Y0160833D01*
X0229992Y0147333D02*
X0227732Y0144333D01*
X0217732Y0144333D01*
X0207732Y0160333D02*
X0207732Y0167333D01*
X0207732Y0167073D02*
X0208472Y0167073D01*
X0201732Y0175333D01*
X0195732Y0181814D02*
X0212732Y0181853D01*
X0213732Y0180656D01*
X0258732Y0182073D02*
X0258732Y0184333D01*
X0261732Y0187333D01*
X0263732Y0169333D02*
X0258732Y0165333D01*
X0258732Y0164073D01*
X0277732Y0146333D02*
X0265732Y0134333D01*
X0265732Y0132814D01*
X0266212Y0132333D01*
X0275732Y0124593D02*
X0280992Y0124593D01*
X0287732Y0131333D01*
X0287732Y0134433D01*
X0287532Y0134633D01*
X0290492Y0137593D01*
X0305732Y0137593D01*
X0305732Y0138333D02*
X0305732Y0144333D01*
X0305732Y0145073D02*
X0298232Y0152573D01*
X0298232Y0153412D01*
X0295732Y0158333D02*
X0289972Y0152333D01*
X0289472Y0149833D01*
X0281992Y0149833D01*
X0277732Y0146333D01*
X0295732Y0158333D02*
X0301732Y0158333D01*
X0305811Y0154255D01*
X0305811Y0153412D01*
X0306032Y0153412D01*
X0275732Y0124593D02*
X0277669Y0122656D01*
X0277669Y0111333D01*
X0267732Y0115814D02*
X0262732Y0120814D01*
X0262771Y0120814D01*
X0251252Y0132333D01*
X0246732Y0132333D01*
X0244732Y0133333D01*
X0254732Y0117073D02*
X0253992Y0116333D01*
X0262732Y0105853D02*
X0262472Y0105593D01*
X0262472Y0096833D01*
X0281232Y0096833D01*
X0295732Y0111333D01*
X0302275Y0111333D01*
X0292232Y0116833D02*
X0291732Y0116333D01*
X0291732Y0111333D01*
X0279732Y0099333D01*
X0273732Y0099333D01*
X0267732Y0105333D01*
X0267732Y0115814D01*
X0160992Y0149593D02*
X0160732Y0150593D01*
X0141992Y0150593D02*
X0140732Y0150093D01*
X0138472Y0149333D01*
X0138232Y0144333D01*
X0122216Y0167703D02*
X0122216Y0171818D01*
X0122732Y0179333D01*
D40*
X0128732Y0177833D02*
X0138732Y0177833D01*
X0142732Y0173333D01*
X0142732Y0167747D01*
X0142689Y0167703D01*
X0140129Y0167703D02*
X0139732Y0168101D01*
X0139732Y0173333D01*
X0137732Y0175833D01*
X0131732Y0175833D01*
X0130232Y0173333D01*
X0126232Y0173333D02*
X0128732Y0177833D01*
X0136232Y0172833D02*
X0137570Y0171495D01*
X0137570Y0167703D01*
X0135011Y0167703D02*
X0134732Y0167424D01*
X0134732Y0161333D01*
X0129732Y0156333D01*
X0129732Y0127333D01*
X0130248Y0126818D01*
X0133728Y0126818D01*
X0133728Y0128786D02*
X0138185Y0128786D01*
X0139232Y0129833D01*
X0139232Y0136833D01*
X0138232Y0138333D01*
X0138232Y0139833D01*
X0141405Y0140400D02*
X0141405Y0129660D01*
X0143232Y0127833D01*
X0143232Y0128833D01*
X0142732Y0128333D01*
X0137232Y0130833D02*
X0137232Y0134833D01*
X0134732Y0137333D01*
X0134732Y0151333D01*
X0135232Y0152333D01*
X0131732Y0154333D02*
X0133732Y0156333D01*
X0131732Y0154333D02*
X0131732Y0136333D01*
X0133728Y0134337D01*
X0133728Y0132723D01*
X0133728Y0130755D02*
X0137153Y0130755D01*
X0137232Y0130833D01*
X0133728Y0124849D02*
X0129216Y0124849D01*
X0127732Y0126333D01*
X0127732Y0157333D01*
X0132452Y0162054D01*
X0132452Y0167703D01*
X0129893Y0167703D02*
X0129893Y0162495D01*
X0125732Y0158333D01*
X0125732Y0125333D01*
X0128185Y0122881D01*
X0133728Y0122881D01*
X0133728Y0124849D02*
X0145248Y0124849D01*
X0150732Y0125333D01*
X0152732Y0129333D02*
X0149279Y0132786D01*
X0149279Y0140400D01*
X0147311Y0140400D02*
X0147311Y0143912D01*
X0148732Y0145333D01*
X0145342Y0144983D02*
X0140732Y0149593D01*
X0145342Y0144983D02*
X0145342Y0140400D01*
X0143374Y0140400D02*
X0143374Y0135692D01*
X0144732Y0134333D01*
X0151232Y0134833D02*
X0151248Y0135849D01*
X0151248Y0140400D01*
X0153216Y0140400D02*
X0153216Y0136849D01*
X0154732Y0135333D01*
X0162732Y0135333D01*
X0163059Y0140400D02*
X0163059Y0143160D01*
X0167732Y0147333D01*
X0167732Y0152333D01*
X0170732Y0154833D01*
X0179732Y0154833D01*
X0180732Y0143333D02*
X0166732Y0131333D01*
X0154732Y0131333D01*
X0151232Y0134833D01*
X0153216Y0140400D02*
X0153216Y0147109D01*
X0151732Y0150593D01*
X0156732Y0145333D02*
X0160472Y0148333D01*
X0156732Y0145333D02*
X0155185Y0143786D01*
X0155185Y0140400D01*
X0152732Y0129333D02*
X0167732Y0129333D01*
X0181732Y0141333D01*
X0211732Y0141333D01*
X0214732Y0139333D01*
X0263232Y0139333D01*
X0279232Y0155333D01*
X0283232Y0155333D01*
X0288732Y0161333D01*
X0288732Y0159593D01*
X0288732Y0167073D02*
X0293732Y0167593D01*
X0296732Y0164333D01*
X0298732Y0163333D01*
X0298232Y0163255D01*
X0306032Y0163255D02*
X0306532Y0163533D01*
X0296732Y0173333D01*
X0283732Y0173333D01*
X0280732Y0168333D01*
X0280732Y0167593D01*
X0279732Y0167073D01*
X0279732Y0159593D02*
X0279732Y0159333D01*
X0262232Y0141333D01*
X0215732Y0141333D01*
X0212732Y0143333D01*
X0180732Y0143333D01*
X0183732Y0139333D02*
X0210732Y0139333D01*
X0213732Y0137333D01*
X0256732Y0137333D01*
X0260732Y0132333D01*
X0260732Y0128333D01*
X0263732Y0125333D01*
X0267732Y0125333D01*
X0273732Y0131333D01*
X0274992Y0131333D01*
X0275732Y0132073D01*
X0287732Y0124333D02*
X0284732Y0120333D01*
X0287732Y0124333D02*
X0304732Y0124333D01*
X0310732Y0130333D01*
X0310732Y0166333D01*
X0301732Y0175333D01*
X0301732Y0211233D01*
X0306632Y0216133D01*
X0307632Y0216133D01*
X0305818Y0224420D02*
X0298732Y0217333D01*
X0298732Y0179333D01*
X0297732Y0178333D01*
X0279732Y0186333D02*
X0279732Y0226333D01*
X0275732Y0230333D01*
X0273732Y0230333D01*
X0273417Y0228018D01*
X0291645Y0227333D02*
X0291645Y0217947D01*
X0289832Y0216133D01*
X0305818Y0224420D02*
X0305818Y0227333D01*
X0305818Y0232333D01*
X0301732Y0236420D01*
X0301732Y0272333D01*
X0294732Y0279333D01*
X0254732Y0279333D01*
X0252732Y0281333D01*
X0182732Y0281333D01*
X0175732Y0274333D01*
X0175732Y0262073D01*
X0170732Y0265333D02*
X0167732Y0268333D01*
X0161732Y0268333D01*
X0161783Y0263333D02*
X0168732Y0259333D01*
X0168732Y0240333D01*
X0170732Y0237333D01*
X0170732Y0209333D01*
X0163732Y0206333D01*
X0161783Y0213333D02*
X0157732Y0213290D01*
X0157732Y0196333D01*
X0160452Y0193613D01*
X0160452Y0188963D01*
X0157893Y0188963D02*
X0157893Y0183495D01*
X0158732Y0183333D01*
X0155334Y0184936D02*
X0154732Y0183333D01*
X0155334Y0184936D02*
X0155334Y0188963D01*
X0152775Y0188963D02*
X0152775Y0195377D01*
X0155732Y0198333D01*
X0155732Y0206333D01*
X0150732Y0211333D01*
X0150732Y0217333D01*
X0151732Y0218333D01*
X0166732Y0218333D01*
X0168232Y0219833D01*
X0168232Y0236790D01*
X0161783Y0243333D01*
X0170732Y0241073D02*
X0175732Y0234073D01*
X0170732Y0241073D02*
X0170732Y0265333D01*
X0175732Y0254593D02*
X0178472Y0254593D01*
X0183732Y0249333D01*
X0183732Y0226333D01*
X0194732Y0215333D01*
X0200732Y0207333D02*
X0237732Y0244333D01*
X0282732Y0244333D01*
X0289078Y0241333D01*
X0259832Y0264133D02*
X0246632Y0278333D01*
X0183732Y0278333D01*
X0179732Y0282333D02*
X0180732Y0283333D01*
X0254732Y0283333D01*
X0256732Y0282333D01*
X0286732Y0285333D02*
X0289732Y0288333D01*
X0286732Y0285333D02*
X0176732Y0285333D01*
X0161783Y0283333D02*
X0157732Y0283377D01*
X0157732Y0285333D01*
X0154732Y0288333D01*
X0131732Y0288333D01*
X0126732Y0283333D01*
X0126732Y0254333D01*
X0122216Y0249818D01*
X0122216Y0188963D01*
X0124775Y0188963D02*
X0124775Y0226377D01*
X0128732Y0230333D01*
X0132732Y0228333D02*
X0132732Y0261333D01*
X0134732Y0263333D01*
X0143043Y0263333D01*
X0147732Y0259333D02*
X0136732Y0259333D01*
X0134732Y0257333D01*
X0134732Y0221333D01*
X0132452Y0219054D01*
X0132452Y0188963D01*
X0129893Y0188963D02*
X0129893Y0221495D01*
X0131732Y0223333D01*
X0127334Y0222936D02*
X0132732Y0228333D01*
X0127334Y0222936D02*
X0127334Y0188963D01*
X0135011Y0188963D02*
X0135011Y0218613D01*
X0136732Y0220333D01*
X0136732Y0255333D01*
X0138732Y0257333D01*
X0153689Y0257333D01*
X0161783Y0253333D01*
X0148732Y0260333D02*
X0148732Y0269333D01*
X0151732Y0272333D01*
X0156689Y0272333D01*
X0161783Y0273333D01*
X0148732Y0260333D02*
X0147732Y0259333D01*
X0149732Y0243333D02*
X0143043Y0243333D01*
X0146043Y0236333D02*
X0148732Y0237333D01*
X0146043Y0236333D02*
X0143043Y0233333D01*
X0148732Y0231333D02*
X0150732Y0233333D01*
X0161783Y0233333D01*
X0154689Y0227333D02*
X0161783Y0223333D01*
X0154689Y0227333D02*
X0151732Y0228333D01*
X0148732Y0231333D02*
X0148732Y0210333D01*
X0152732Y0206333D01*
X0152732Y0198333D01*
X0150216Y0195818D01*
X0150216Y0188963D01*
X0140129Y0188963D02*
X0140129Y0192936D01*
X0138732Y0194333D01*
X0137570Y0188963D02*
X0137570Y0186172D01*
X0136732Y0183333D01*
X0151732Y0173333D02*
X0152732Y0170333D01*
X0152732Y0167747D01*
X0152775Y0167703D01*
X0155334Y0167703D02*
X0155334Y0174731D01*
X0154732Y0176333D01*
X0157893Y0174495D02*
X0158732Y0176333D01*
X0157893Y0174495D02*
X0157893Y0167703D01*
X0160452Y0167703D02*
X0160452Y0172054D01*
X0162732Y0175333D01*
X0163011Y0171613D02*
X0170232Y0175833D01*
X0163011Y0171613D02*
X0163011Y0167703D01*
X0168129Y0167703D02*
X0170689Y0167703D01*
X0193732Y0192333D02*
X0223732Y0192333D01*
X0230732Y0185333D01*
X0230732Y0177333D01*
X0236732Y0171333D01*
X0236732Y0168333D01*
X0233732Y0165333D01*
X0228932Y0165333D01*
X0228432Y0165833D01*
X0228932Y0170333D02*
X0228432Y0170833D01*
X0228932Y0170333D02*
X0224732Y0178333D01*
X0213732Y0180656D02*
X0211574Y0182814D01*
X0239732Y0181333D02*
X0239732Y0178593D01*
X0239992Y0178333D01*
X0239732Y0181333D02*
X0248732Y0186333D01*
X0248732Y0192333D01*
X0252732Y0196333D01*
X0259732Y0196333D01*
X0264732Y0192333D01*
X0264732Y0177333D01*
X0268472Y0172593D01*
X0269732Y0172593D01*
X0269732Y0164073D01*
X0274732Y0159333D02*
X0271992Y0156593D01*
X0269732Y0156593D01*
X0274732Y0159333D02*
X0274732Y0181333D01*
X0279732Y0186333D01*
X0273417Y0188648D02*
X0269732Y0186963D01*
X0269732Y0180073D01*
X0258732Y0174593D02*
X0258732Y0172333D01*
X0252232Y0165833D01*
X0249032Y0165833D01*
X0248532Y0161333D02*
X0249032Y0160833D01*
X0248532Y0161333D02*
X0241732Y0161333D01*
X0249032Y0155833D02*
X0256972Y0155833D01*
X0258732Y0156593D01*
X0257472Y0156333D01*
X0257472Y0148333D01*
X0249032Y0170833D02*
X0249032Y0176773D01*
X0247472Y0178333D01*
X0223732Y0147333D02*
X0227732Y0144333D01*
X0232732Y0135333D02*
X0209732Y0135333D01*
X0208732Y0136333D01*
X0204732Y0129333D02*
X0203732Y0128333D01*
X0196232Y0128333D01*
X0191232Y0123333D01*
X0190992Y0122833D01*
X0189476Y0124849D02*
X0178610Y0124849D01*
X0178610Y0122881D02*
X0183185Y0122881D01*
X0185232Y0121833D01*
X0182153Y0120912D02*
X0183732Y0118333D01*
X0182153Y0120912D02*
X0178610Y0120912D01*
X0178610Y0118944D02*
X0174122Y0118944D01*
X0171232Y0117333D01*
X0173732Y0114333D02*
X0175374Y0116975D01*
X0178610Y0116975D01*
X0178610Y0113038D02*
X0182437Y0113038D01*
X0183732Y0114333D01*
X0178610Y0111070D02*
X0171996Y0111070D01*
X0168732Y0114333D01*
X0150732Y0114333D01*
X0153732Y0111333D02*
X0146732Y0111333D01*
X0144732Y0113333D01*
X0144732Y0108833D02*
X0153232Y0108833D01*
X0161732Y0100333D01*
X0163732Y0100333D01*
X0161732Y0103333D02*
X0165732Y0103333D01*
X0166232Y0103833D01*
X0169732Y0104205D02*
X0174544Y0104205D01*
X0174544Y0104544D02*
X0174544Y0101848D01*
X0175657Y0100735D01*
X0178012Y0100735D01*
X0179815Y0099597D01*
X0179963Y0099448D01*
X0180215Y0099344D01*
X0180445Y0099199D01*
X0180651Y0099163D01*
X0180845Y0099083D01*
X0181117Y0099083D01*
X0181386Y0099037D01*
X0181590Y0099083D01*
X0181745Y0099083D01*
X0181745Y0098432D01*
X0182227Y0097950D01*
X0182145Y0097645D01*
X0182145Y0095684D01*
X0185901Y0095684D01*
X0185901Y0094684D01*
X0182788Y0094684D01*
X0179539Y0097306D01*
X0179292Y0097553D01*
X0179171Y0097603D01*
X0179069Y0097686D01*
X0178733Y0097785D01*
X0178410Y0097918D01*
X0178279Y0097918D01*
X0178153Y0097955D01*
X0177805Y0097918D01*
X0173394Y0097918D01*
X0173394Y0098471D01*
X0172281Y0099584D01*
X0169732Y0099584D01*
X0169732Y0104633D01*
X0174633Y0104633D01*
X0174544Y0104544D01*
X0173563Y0105164D02*
X0172732Y0103833D01*
X0172732Y0102333D01*
X0177732Y0097333D01*
X0180732Y0097333D01*
X0182732Y0095333D01*
X0186252Y0095333D01*
X0186401Y0095184D01*
X0187582Y0094184D01*
X0187582Y0095684D01*
X0193232Y0101333D01*
X0194913Y0101333D01*
X0195063Y0101483D01*
X0195563Y0101210D02*
X0200732Y0101210D01*
X0200732Y0102208D02*
X0199318Y0102208D01*
X0199318Y0101983D02*
X0199318Y0103944D01*
X0199216Y0104326D01*
X0199039Y0104633D01*
X0200732Y0104633D01*
X0200732Y0088733D01*
X0184254Y0088733D01*
X0183372Y0088368D01*
X0182697Y0087693D01*
X0182697Y0087693D01*
X0181338Y0086333D01*
X0177082Y0086333D01*
X0177082Y0087000D01*
X0176732Y0087845D01*
X0176732Y0091333D01*
X0175126Y0091333D01*
X0175091Y0091368D01*
X0173394Y0093066D01*
X0173394Y0093118D01*
X0177085Y0093118D01*
X0181511Y0089546D01*
X0181758Y0089299D01*
X0181880Y0089248D01*
X0181982Y0089166D01*
X0182317Y0089067D01*
X0182640Y0088933D01*
X0182772Y0088933D01*
X0182898Y0088896D01*
X0183245Y0088933D01*
X0192554Y0088933D01*
X0192850Y0088889D01*
X0193027Y0088933D01*
X0193209Y0088933D01*
X0193486Y0089048D01*
X0193776Y0089120D01*
X0193923Y0089229D01*
X0194091Y0089299D01*
X0194303Y0089510D01*
X0196342Y0091020D01*
X0198605Y0091020D01*
X0199718Y0092133D01*
X0199718Y0098234D01*
X0199237Y0098716D01*
X0199318Y0099022D01*
X0199318Y0100983D01*
X0195563Y0100983D01*
X0195563Y0101983D01*
X0199318Y0101983D01*
X0199318Y0103207D02*
X0200732Y0103207D01*
X0200732Y0104205D02*
X0199248Y0104205D01*
X0199318Y0100211D02*
X0200732Y0100211D01*
X0200732Y0099213D02*
X0199318Y0099213D01*
X0199718Y0098214D02*
X0200732Y0098214D01*
X0200732Y0097216D02*
X0199718Y0097216D01*
X0199718Y0096217D02*
X0200732Y0096217D01*
X0200732Y0095219D02*
X0199718Y0095219D01*
X0199718Y0094220D02*
X0200732Y0094220D01*
X0200732Y0093222D02*
X0199718Y0093222D01*
X0199718Y0092223D02*
X0200732Y0092223D01*
X0200732Y0091225D02*
X0198810Y0091225D01*
X0200732Y0090226D02*
X0195270Y0090226D01*
X0193921Y0089228D02*
X0200732Y0089228D01*
X0201732Y0086333D02*
X0207732Y0092333D01*
X0241732Y0092333D01*
X0242732Y0093333D01*
X0245732Y0090333D02*
X0245732Y0097333D01*
X0239532Y0096733D02*
X0239532Y0100533D01*
X0237732Y0102333D01*
X0231732Y0106333D02*
X0219732Y0106333D01*
X0217732Y0105333D01*
X0215832Y0104433D01*
X0212132Y0104433D01*
X0212132Y0102533D02*
X0211932Y0102533D01*
X0214732Y0097333D01*
X0218232Y0102333D02*
X0221832Y0102233D01*
X0221832Y0096733D01*
X0223832Y0096733D01*
X0225732Y0096733D02*
X0225732Y0100333D01*
X0227732Y0102333D01*
X0229732Y0102333D01*
X0230732Y0114333D02*
X0225909Y0118757D01*
X0225909Y0119010D01*
X0225732Y0122333D01*
X0225732Y0129933D01*
X0231732Y0129933D02*
X0231732Y0125333D01*
X0229732Y0123333D01*
X0233632Y0120433D02*
X0234732Y0120333D01*
X0233632Y0120433D02*
X0233632Y0129933D01*
X0233632Y0134433D01*
X0232732Y0135333D01*
X0235632Y0129933D02*
X0235632Y0126433D01*
X0238732Y0123333D01*
X0236732Y0116333D02*
X0245332Y0116333D01*
X0253992Y0116333D01*
X0249992Y0114333D02*
X0254732Y0109593D01*
X0250232Y0109333D02*
X0250232Y0092833D01*
X0251732Y0091333D01*
X0254732Y0091333D01*
X0259732Y0087333D01*
X0262732Y0088333D01*
X0264732Y0091333D01*
X0276732Y0091333D01*
X0286732Y0081333D02*
X0293818Y0081333D01*
X0296732Y0078420D01*
X0296732Y0064333D02*
X0291732Y0064333D01*
X0291818Y0064247D01*
X0296732Y0064247D01*
X0291732Y0064333D02*
X0269232Y0064333D01*
X0265232Y0068333D01*
X0251732Y0085333D02*
X0242732Y0084333D01*
X0240732Y0086333D01*
X0210732Y0086333D01*
X0204732Y0080333D01*
X0187732Y0080333D01*
X0184732Y0077333D01*
X0160732Y0077333D01*
X0157153Y0080912D01*
X0157153Y0095518D01*
X0155185Y0095518D02*
X0155185Y0091786D01*
X0145732Y0082333D01*
X0145732Y0078333D01*
X0152732Y0071333D01*
X0152732Y0058333D01*
X0155185Y0055881D01*
X0161732Y0050833D01*
X0185232Y0050833D01*
X0188732Y0047333D01*
X0188732Y0046333D01*
X0191732Y0046333D02*
X0194732Y0043333D01*
X0234732Y0043333D01*
X0240732Y0046333D01*
X0243732Y0043333D02*
X0241732Y0041333D01*
X0188732Y0041333D01*
X0188232Y0042333D01*
X0185732Y0044333D01*
X0183732Y0048333D01*
X0175732Y0048333D01*
X0173732Y0046333D01*
X0173732Y0039333D01*
X0184732Y0040333D02*
X0187732Y0039333D01*
X0242732Y0039333D01*
X0248732Y0041333D01*
X0237732Y0049333D02*
X0233732Y0045333D01*
X0198732Y0045333D01*
X0192732Y0051333D01*
X0187732Y0056333D01*
X0167732Y0056333D01*
X0158732Y0064333D01*
X0158732Y0069333D01*
X0153732Y0074333D01*
X0159732Y0075333D02*
X0154732Y0080333D01*
X0154732Y0083333D01*
X0152732Y0085333D01*
X0151732Y0080333D02*
X0148732Y0080333D01*
X0151732Y0080333D02*
X0163732Y0068333D01*
X0168732Y0068333D02*
X0168732Y0061333D01*
X0170732Y0059333D01*
X0186732Y0059333D01*
X0189732Y0059333D01*
X0201732Y0047333D01*
X0230732Y0047333D01*
X0233232Y0050833D01*
X0191732Y0048333D02*
X0191732Y0046333D01*
X0191732Y0048333D02*
X0188732Y0051333D01*
X0186732Y0053333D01*
X0163732Y0053333D01*
X0155732Y0060333D01*
X0155732Y0068333D01*
X0159732Y0075333D02*
X0166732Y0075333D01*
X0172732Y0069333D01*
X0161732Y0079333D02*
X0183732Y0079333D01*
X0186732Y0082333D01*
X0203732Y0082333D01*
X0209732Y0088333D01*
X0254732Y0088333D01*
X0255732Y0086833D01*
X0259232Y0091333D02*
X0255992Y0094593D01*
X0254992Y0096833D01*
X0245732Y0090333D02*
X0208732Y0090333D01*
X0202732Y0084333D01*
X0185732Y0084333D01*
X0182732Y0081333D01*
X0162732Y0081333D01*
X0161090Y0082975D01*
X0161090Y0095518D01*
X0159122Y0095518D02*
X0159122Y0081944D01*
X0161732Y0079333D01*
X0163732Y0083333D02*
X0181732Y0083333D01*
X0184732Y0086333D01*
X0201732Y0086333D01*
X0196582Y0094184D02*
X0192732Y0091333D01*
X0183118Y0091333D01*
X0177933Y0095518D01*
X0170933Y0095518D01*
X0168964Y0095518D02*
X0168964Y0092101D01*
X0169732Y0091333D01*
X0171732Y0091333D01*
X0173732Y0089333D01*
X0173732Y0086333D01*
X0176986Y0087231D02*
X0182235Y0087231D01*
X0183234Y0088229D02*
X0176732Y0088229D01*
X0176732Y0089228D02*
X0181905Y0089228D01*
X0180668Y0090226D02*
X0176732Y0090226D01*
X0176732Y0091225D02*
X0179431Y0091225D01*
X0178194Y0092223D02*
X0174236Y0092223D01*
X0169732Y0088333D02*
X0166996Y0090070D01*
X0166996Y0095518D01*
X0165027Y0095518D02*
X0165027Y0088038D01*
X0166232Y0086333D01*
X0163059Y0085007D02*
X0163732Y0083333D01*
X0163059Y0085007D02*
X0163059Y0095518D01*
X0169732Y0100211D02*
X0178841Y0100211D01*
X0180423Y0099213D02*
X0172652Y0099213D01*
X0173394Y0098214D02*
X0181963Y0098214D01*
X0182145Y0097216D02*
X0179651Y0097216D01*
X0180888Y0096217D02*
X0182145Y0096217D01*
X0182125Y0095219D02*
X0185901Y0095219D01*
X0186401Y0101483D02*
X0181322Y0101483D01*
X0178610Y0103196D01*
X0178610Y0105164D02*
X0173563Y0105164D01*
X0174544Y0103207D02*
X0169732Y0103207D01*
X0169732Y0102208D02*
X0174544Y0102208D01*
X0175182Y0101210D02*
X0169732Y0101210D01*
X0161732Y0103333D02*
X0153732Y0111333D01*
X0151732Y0105333D02*
X0151732Y0104333D01*
X0147311Y0099912D01*
X0147311Y0095518D01*
X0149279Y0095518D02*
X0149279Y0098881D01*
X0152732Y0102333D01*
X0154732Y0102333D01*
X0151248Y0095518D02*
X0151248Y0091849D01*
X0149732Y0090333D01*
X0143374Y0090692D02*
X0144732Y0086333D01*
X0144732Y0084333D01*
X0143374Y0090692D02*
X0143374Y0095518D01*
X0139732Y0101333D02*
X0133732Y0093333D01*
X0133732Y0062833D01*
X0135732Y0060833D01*
X0139342Y0060605D01*
X0140917Y0064936D02*
X0144834Y0064936D01*
X0145732Y0065833D01*
X0145732Y0071333D01*
X0137232Y0080333D01*
X0137232Y0090333D01*
X0131732Y0094333D02*
X0131732Y0055333D01*
X0135122Y0051944D01*
X0139342Y0051944D01*
X0139342Y0043282D02*
X0134283Y0043282D01*
X0129732Y0047833D01*
X0129732Y0107333D01*
X0130964Y0109101D01*
X0133728Y0109101D01*
X0133728Y0107133D02*
X0137933Y0107133D01*
X0139732Y0105333D01*
X0139732Y0101333D01*
X0137732Y0102333D02*
X0131732Y0094333D01*
X0132732Y0100333D02*
X0133728Y0101329D01*
X0133728Y0103196D01*
X0133728Y0105164D02*
X0136563Y0105164D01*
X0137732Y0104333D01*
X0137732Y0102333D01*
X0137468Y0111070D02*
X0133728Y0111070D01*
X0137468Y0111070D02*
X0144732Y0118333D01*
X0167232Y0118333D01*
X0172232Y0121333D01*
X0171732Y0125333D02*
X0166732Y0120333D01*
X0143732Y0120333D01*
X0138405Y0115007D01*
X0133728Y0115007D01*
X0133728Y0116975D02*
X0137374Y0116975D01*
X0142732Y0122333D01*
X0163732Y0122333D01*
X0167732Y0126333D01*
X0178610Y0126818D02*
X0186216Y0126818D01*
X0187732Y0128333D01*
X0193456Y0128333D01*
X0199456Y0133833D01*
X0190007Y0133833D02*
X0185460Y0128786D01*
X0178610Y0128786D01*
X0178610Y0130755D02*
X0182153Y0130755D01*
X0184732Y0133333D01*
X0179732Y0135833D02*
X0183732Y0139333D01*
X0170933Y0140400D02*
X0168964Y0140400D01*
X0204832Y0122233D02*
X0212132Y0122233D01*
X0217732Y0110333D02*
X0245332Y0110333D01*
X0249732Y0110333D01*
X0250232Y0109333D01*
X0249992Y0114333D02*
X0245332Y0114333D01*
X0194562Y0101983D02*
X0194562Y0100983D01*
X0191057Y0100983D01*
X0191057Y0101983D01*
X0194562Y0101983D01*
X0194562Y0101210D02*
X0191057Y0101210D01*
X0195063Y0095184D02*
X0196582Y0094184D01*
X0178610Y0109101D02*
X0167964Y0109101D01*
X0166732Y0110333D01*
X0133728Y0118944D02*
X0124122Y0118944D01*
X0121732Y0121333D01*
X0121732Y0160333D01*
X0124732Y0163333D01*
X0124775Y0164377D01*
X0124775Y0167703D01*
X0124732Y0167660D01*
X0127334Y0167703D02*
X0127334Y0162936D01*
X0123732Y0159333D01*
X0123732Y0123333D01*
X0126153Y0120912D01*
X0133728Y0120912D01*
X0175732Y0201593D02*
X0175992Y0201593D01*
X0181732Y0205333D01*
X0181732Y0221593D01*
X0175732Y0226593D01*
X0143732Y0222644D02*
X0143732Y0218333D01*
X0143732Y0222644D02*
X0143043Y0223333D01*
X0135732Y0277333D02*
X0143043Y0283333D01*
D41*
X0122732Y0179333D03*
X0138232Y0144333D03*
X0162732Y0135333D03*
X0126732Y0114333D03*
X0143232Y0103833D03*
X0162732Y0108333D03*
X0123732Y0081333D03*
X0164732Y0039833D03*
X0202732Y0052333D03*
X0252732Y0044333D03*
X0292232Y0116833D03*
X0244732Y0133333D03*
X0243232Y0147333D03*
D42*
X0241732Y0161333D03*
X0223732Y0147333D03*
X0217732Y0144333D03*
X0208732Y0136333D03*
X0204732Y0129333D03*
X0184732Y0133333D03*
X0179732Y0135833D03*
X0171732Y0125333D03*
X0167732Y0126333D03*
X0172232Y0121333D03*
X0171232Y0117333D03*
X0173732Y0114333D03*
X0166732Y0110333D03*
X0166232Y0103833D03*
X0163732Y0100333D03*
X0154732Y0102333D03*
X0151732Y0105333D03*
X0147732Y0105333D03*
X0144732Y0108833D03*
X0144732Y0113333D03*
X0150732Y0114333D03*
X0150732Y0125333D03*
X0142732Y0128333D03*
X0144732Y0134333D03*
X0138232Y0139833D03*
X0135232Y0152333D03*
X0133732Y0156333D03*
X0141732Y0162333D03*
X0136232Y0172833D03*
X0130232Y0173333D03*
X0126232Y0173333D03*
X0136732Y0183333D03*
X0151732Y0173333D03*
X0154732Y0176333D03*
X0158732Y0176333D03*
X0162732Y0175333D03*
X0166732Y0179333D03*
X0170232Y0175833D03*
X0158732Y0183333D03*
X0154732Y0183333D03*
X0138732Y0194333D03*
X0160732Y0197333D03*
X0163732Y0206333D03*
X0143732Y0218333D03*
X0131732Y0223333D03*
X0128732Y0230333D03*
X0148732Y0237333D03*
X0149732Y0243333D03*
X0150732Y0248333D03*
X0151732Y0228333D03*
X0194732Y0215333D03*
X0200732Y0207333D03*
X0193732Y0192333D03*
X0201732Y0175333D03*
X0216732Y0170333D03*
X0224732Y0178333D03*
X0201732Y0149333D03*
X0179732Y0154833D03*
X0161732Y0145833D03*
X0185232Y0121833D03*
X0183732Y0118333D03*
X0183732Y0114333D03*
X0172732Y0103833D03*
X0169732Y0088333D03*
X0166232Y0086333D03*
X0173732Y0086333D03*
X0174732Y0073333D03*
X0172732Y0069333D03*
X0168732Y0068333D03*
X0163732Y0068333D03*
X0155732Y0068333D03*
X0153732Y0074333D03*
X0148732Y0080333D03*
X0152732Y0085333D03*
X0149732Y0090333D03*
X0137232Y0090333D03*
X0132732Y0100333D03*
X0184732Y0073333D03*
X0198732Y0071333D03*
X0186732Y0059333D03*
X0188732Y0051333D03*
X0192732Y0051333D03*
X0188732Y0046333D03*
X0188232Y0042333D03*
X0184732Y0040333D03*
X0173732Y0039333D03*
X0151232Y0038333D03*
X0233232Y0050833D03*
X0237732Y0049333D03*
X0240732Y0046333D03*
X0243732Y0043333D03*
X0248732Y0041333D03*
X0286732Y0081333D03*
X0276732Y0091333D03*
X0259232Y0091333D03*
X0255732Y0086833D03*
X0251732Y0085333D03*
X0242732Y0093333D03*
X0245732Y0097333D03*
X0237732Y0102333D03*
X0231732Y0106333D03*
X0229732Y0102333D03*
X0218232Y0102333D03*
X0214732Y0097333D03*
X0217732Y0110333D03*
X0230732Y0114333D03*
X0236732Y0116333D03*
X0234732Y0120333D03*
X0238732Y0123333D03*
X0229732Y0123333D03*
X0260732Y0128333D03*
X0284732Y0120333D03*
X0263732Y0169333D03*
X0261732Y0187333D03*
X0297732Y0178333D03*
X0261732Y0251333D03*
X0256732Y0282333D03*
X0289732Y0288333D03*
X0183732Y0278333D03*
X0179732Y0282333D03*
X0176732Y0285333D03*
X0161732Y0268333D03*
X0150732Y0278333D03*
X0135732Y0277333D03*
X0308732Y0044333D03*
D43*
X0218732Y0118333D03*
X0204732Y0122333D03*
X0186732Y0147333D03*
X0196732Y0150333D03*
X0186732Y0159333D03*
X0212732Y0149833D03*
X0148732Y0145333D03*
X0149232Y0179333D03*
X0140732Y0180833D03*
X0144732Y0086333D03*
X0201732Y0299333D03*
D44*
X0173992Y0149333D02*
X0171472Y0148333D01*
X0168732Y0145333D01*
X0166996Y0143597D01*
X0166996Y0140400D01*
X0166996Y0137597D01*
X0165027Y0135629D01*
X0164732Y0135333D01*
X0162732Y0135333D01*
X0165027Y0135629D02*
X0165027Y0140400D01*
X0170933Y0140400D02*
X0171665Y0140400D01*
X0171732Y0140333D01*
X0160472Y0148333D02*
X0160732Y0150593D01*
X0140732Y0150093D02*
X0140732Y0149593D01*
X0184791Y0107133D02*
X0189992Y0112333D01*
X0184791Y0107133D02*
X0178610Y0107133D01*
X0164933Y0107133D01*
X0162732Y0108333D01*
X0147732Y0105333D02*
X0147732Y0103333D01*
X0145342Y0100944D01*
X0145342Y0095518D01*
X0141405Y0095518D02*
X0140917Y0095518D01*
X0140732Y0095333D01*
X0211732Y0113333D02*
X0211732Y0113933D01*
X0212132Y0114333D01*
X0212132Y0112333D01*
D45*
X0218732Y0068333D02*
X0230732Y0068333D01*
X0257732Y0048333D01*
X0295732Y0048333D01*
X0307732Y0062333D01*
X0307732Y0106333D01*
X0302275Y0111333D01*
M02*
