G75*
%MOIN*%
%OFA0B0*%
%FSLAX25Y25*%
%IPPOS*%
%LPD*%
%AMOC8*
5,1,8,0,0,1.08239X$1,22.5*
%
%ADD10R,0.05512X0.04528*%
%ADD11R,0.05906X0.05118*%
%ADD12R,0.05118X0.05906*%
%ADD13R,0.07480X0.05512*%
%ADD14R,0.05512X0.07087*%
%ADD15R,0.05906X0.02756*%
%ADD16R,0.07874X0.03937*%
%ADD17R,0.09843X0.03937*%
%ADD18R,0.01100X0.05800*%
%ADD19R,0.05800X0.01100*%
%ADD20R,0.08700X0.02400*%
%ADD21R,0.16535X0.12598*%
%ADD22R,0.01378X0.05630*%
%ADD23R,0.04331X0.07480*%
%ADD24R,0.05512X0.05512*%
%ADD25R,0.05906X0.06299*%
%ADD26R,0.06299X0.05906*%
%ADD27R,0.01122X0.04331*%
%ADD28R,0.04331X0.01122*%
%ADD29R,0.10236X0.03937*%
D10*
X0186401Y0095184D03*
X0186401Y0101483D03*
X0195063Y0101483D03*
X0195063Y0095184D03*
D11*
X0254732Y0109593D03*
X0254732Y0117073D03*
X0275732Y0124593D03*
X0275732Y0132073D03*
X0269732Y0156593D03*
X0269732Y0164073D03*
X0258732Y0164073D03*
X0258732Y0156593D03*
X0269732Y0172593D03*
X0269732Y0180073D03*
X0258732Y0182073D03*
X0258732Y0174593D03*
X0279732Y0167073D03*
X0279732Y0159593D03*
X0288732Y0159593D03*
X0288732Y0167073D03*
X0305732Y0145073D03*
X0305732Y0137593D03*
X0218732Y0156593D03*
X0218732Y0164073D03*
X0207732Y0167073D03*
X0207732Y0159593D03*
X0160732Y0158073D03*
X0151732Y0158073D03*
X0140732Y0157573D03*
X0140732Y0150093D03*
X0151732Y0150593D03*
X0160732Y0150593D03*
X0124732Y0107073D03*
X0124732Y0099593D03*
X0175732Y0201593D03*
X0175732Y0209073D03*
X0175732Y0226593D03*
X0175732Y0234073D03*
X0175732Y0254593D03*
X0175732Y0262073D03*
D12*
X0147472Y0203333D03*
X0139992Y0203333D03*
X0173992Y0149333D03*
X0181472Y0149333D03*
X0190992Y0122833D03*
X0198472Y0122833D03*
X0197472Y0112333D03*
X0189992Y0112333D03*
X0229992Y0147333D03*
X0237472Y0147333D03*
X0249992Y0148333D03*
X0257472Y0148333D03*
X0281992Y0149833D03*
X0289472Y0149833D03*
X0247472Y0178333D03*
X0239992Y0178333D03*
X0268992Y0253333D03*
X0276472Y0253333D03*
X0262472Y0096833D03*
X0254992Y0096833D03*
D13*
X0124381Y0087377D03*
X0127925Y0035408D03*
D14*
X0179500Y0041707D03*
X0179500Y0065329D03*
D15*
X0140917Y0064936D03*
X0139342Y0060605D03*
X0137767Y0056274D03*
X0139342Y0051944D03*
X0137767Y0047613D03*
X0139342Y0043282D03*
X0139342Y0038951D03*
X0139342Y0069266D03*
D16*
X0143043Y0213333D03*
X0143043Y0223333D03*
X0143043Y0233333D03*
X0143043Y0243333D03*
X0143043Y0253333D03*
X0143043Y0263333D03*
X0143043Y0273333D03*
X0143043Y0283333D03*
D17*
X0161783Y0283333D03*
X0161783Y0273333D03*
X0161783Y0263333D03*
X0161783Y0253333D03*
X0161783Y0243333D03*
X0161783Y0233333D03*
X0161783Y0223333D03*
X0161783Y0213333D03*
D18*
X0217932Y0129933D03*
X0219832Y0129933D03*
X0221832Y0129933D03*
X0223832Y0129933D03*
X0225732Y0129933D03*
X0227732Y0129933D03*
X0229732Y0129933D03*
X0231732Y0129933D03*
X0233632Y0129933D03*
X0235632Y0129933D03*
X0237632Y0129933D03*
X0239532Y0129933D03*
X0239532Y0096733D03*
X0237632Y0096733D03*
X0235632Y0096733D03*
X0233632Y0096733D03*
X0231732Y0096733D03*
X0229732Y0096733D03*
X0227732Y0096733D03*
X0225732Y0096733D03*
X0223832Y0096733D03*
X0221832Y0096733D03*
X0219832Y0096733D03*
X0217932Y0096733D03*
D19*
X0212132Y0102533D03*
X0212132Y0104433D03*
X0212132Y0106433D03*
X0212132Y0108433D03*
X0212132Y0110333D03*
X0212132Y0112333D03*
X0212132Y0114333D03*
X0212132Y0116333D03*
X0212132Y0118233D03*
X0212132Y0120233D03*
X0212132Y0122233D03*
X0212132Y0124133D03*
X0245332Y0124133D03*
X0245332Y0122233D03*
X0245332Y0120233D03*
X0245332Y0118233D03*
X0245332Y0116333D03*
X0245332Y0114333D03*
X0245332Y0112333D03*
X0245332Y0110333D03*
X0245332Y0108433D03*
X0245332Y0106433D03*
X0245332Y0104433D03*
X0245332Y0102533D03*
D20*
X0249032Y0155833D03*
X0249032Y0160833D03*
X0249032Y0165833D03*
X0249032Y0170833D03*
X0228432Y0170833D03*
X0228432Y0165833D03*
X0228432Y0160833D03*
X0228432Y0155833D03*
D21*
X0213732Y0180656D03*
X0213732Y0296010D03*
D22*
X0173248Y0188963D03*
X0170689Y0188963D03*
X0168129Y0188963D03*
X0165570Y0188963D03*
X0163011Y0188963D03*
X0160452Y0188963D03*
X0157893Y0188963D03*
X0155334Y0188963D03*
X0152775Y0188963D03*
X0150216Y0188963D03*
X0145248Y0188963D03*
X0142689Y0188963D03*
X0140129Y0188963D03*
X0137570Y0188963D03*
X0135011Y0188963D03*
X0132452Y0188963D03*
X0129893Y0188963D03*
X0127334Y0188963D03*
X0124775Y0188963D03*
X0122216Y0188963D03*
X0122216Y0167703D03*
X0124775Y0167703D03*
X0127334Y0167703D03*
X0129893Y0167703D03*
X0132452Y0167703D03*
X0135011Y0167703D03*
X0137570Y0167703D03*
X0140129Y0167703D03*
X0142689Y0167703D03*
X0145248Y0167703D03*
X0150216Y0167703D03*
X0152775Y0167703D03*
X0155334Y0167703D03*
X0157893Y0167703D03*
X0160452Y0167703D03*
X0163011Y0167703D03*
X0165570Y0167703D03*
X0168129Y0167703D03*
X0170689Y0167703D03*
X0173248Y0167703D03*
D23*
X0190007Y0133833D03*
X0199456Y0133833D03*
D24*
X0195732Y0166853D03*
X0186732Y0166853D03*
X0186732Y0181814D03*
X0195732Y0181814D03*
X0251252Y0132333D03*
X0266212Y0132333D03*
X0262732Y0120814D03*
X0262732Y0105853D03*
D25*
X0291645Y0227333D03*
X0305818Y0227333D03*
D26*
X0296732Y0078420D03*
X0296732Y0064247D03*
D27*
X0170933Y0095518D03*
X0168964Y0095518D03*
X0166996Y0095518D03*
X0165027Y0095518D03*
X0163059Y0095518D03*
X0161090Y0095518D03*
X0159122Y0095518D03*
X0157153Y0095518D03*
X0155185Y0095518D03*
X0153216Y0095518D03*
X0151248Y0095518D03*
X0149279Y0095518D03*
X0147311Y0095518D03*
X0145342Y0095518D03*
X0143374Y0095518D03*
X0141405Y0095518D03*
X0141405Y0140400D03*
X0143374Y0140400D03*
X0145342Y0140400D03*
X0147311Y0140400D03*
X0149279Y0140400D03*
X0151248Y0140400D03*
X0153216Y0140400D03*
X0155185Y0140400D03*
X0157153Y0140400D03*
X0159122Y0140400D03*
X0161090Y0140400D03*
X0163059Y0140400D03*
X0165027Y0140400D03*
X0166996Y0140400D03*
X0168964Y0140400D03*
X0170933Y0140400D03*
D28*
X0178610Y0132723D03*
X0178610Y0130755D03*
X0178610Y0128786D03*
X0178610Y0126818D03*
X0178610Y0124849D03*
X0178610Y0122881D03*
X0178610Y0120912D03*
X0178610Y0118944D03*
X0178610Y0116975D03*
X0178610Y0115007D03*
X0178610Y0113038D03*
X0178610Y0111070D03*
X0178610Y0109101D03*
X0178610Y0107133D03*
X0178610Y0105164D03*
X0178610Y0103196D03*
X0133728Y0103196D03*
X0133728Y0105164D03*
X0133728Y0107133D03*
X0133728Y0109101D03*
X0133728Y0111070D03*
X0133728Y0113038D03*
X0133728Y0115007D03*
X0133728Y0116975D03*
X0133728Y0118944D03*
X0133728Y0120912D03*
X0133728Y0122881D03*
X0133728Y0124849D03*
X0133728Y0126818D03*
X0133728Y0128786D03*
X0133728Y0130755D03*
X0133728Y0132723D03*
D29*
X0289078Y0241333D03*
X0289078Y0251333D03*
X0289078Y0261333D03*
M02*
