M48
;GenerationSoftware,Autodesk,EAGLE,9.6.1*%
;CreationDate,2020-05-13T22:42:24Z*%
FMAT,2
ICI,OFF
METRIC,TZ,000.000
T5C0.330
T4C0.350
T3C0.508
T2C1.016
T1C3.200
%
G90
M71
T1
X39250Y34500
X39250Y3500
X32250Y-3500
X3250Y-3500
X-3750Y3500
X-3750Y34500
X3250Y41500
X32250Y41500
T2
X13970Y34290
X13970Y31750
X16510Y34290
X16510Y31750
X19050Y34290
X19050Y31750
X21590Y34290
X21590Y31750
X34290Y6350
X34290Y3810
X1270Y6350
X1270Y3810
X3810Y6350
X3810Y3810
X6350Y6350
X6350Y3810
X8890Y6350
X8890Y3810
X11430Y6350
X11430Y3810
X13970Y6350
X13970Y3810
X16510Y6350
X16510Y3810
X19050Y6350
X19050Y3810
X21590Y6350
X21590Y3810
X24130Y6350
X24130Y3810
X26670Y6350
X26670Y3810
X29210Y6350
X29210Y3810
X31750Y6350
X31750Y3810
X34290Y24130
X34290Y21590
X1270Y24130
X1270Y21590
X3810Y24130
X3810Y21590
X6350Y24130
X6350Y21590
X8890Y24130
X8890Y21590
X11430Y24130
X11430Y21590
X13970Y24130
X13970Y21590
X16510Y24130
X16510Y21590
X19050Y24130
X19050Y21590
X21590Y24130
X21590Y21590
X24130Y24130
X24130Y21590
X26670Y24130
X26670Y21590
X11430Y31750
X11430Y34290
X8890Y31750
X8890Y34290
X6350Y31750
X6350Y34290
X3810Y31750
X3810Y34290
X29210Y24130
X29210Y21590
X31750Y24130
X31750Y21590
T3
X35560Y33401
X35560Y32385
X35560Y31369
X29210Y37846
X30226Y37846
X31242Y37846
X32258Y37846
X33274Y37846
X34290Y37846
X35306Y37846
X254Y37846
X1270Y37846
X2286Y37846
X3302Y37846
X4318Y37846
X5334Y37846
X6350Y37846
X0Y31369
X0Y32385
X0Y33401
X0Y34417
X0Y35433
X0Y36449
X0Y37465
X0Y508
X0Y1524
X0Y2540
X0Y3556
X0Y4572
X0Y5588
X0Y6604
X6350Y127
X5334Y127
X4318Y127
X3302Y127
X2286Y127
X1270Y127
X254Y127
X35306Y127
X34290Y127
X33274Y127
X32258Y127
X31242Y127
X30226Y127
X29210Y127
X35560Y6604
X35560Y5588
X35560Y4572
X35560Y3556
X35560Y2540
X35560Y1524
X35560Y508
X35560Y34417
X35560Y35433
X35560Y37465
X35560Y36449
T4
X24035Y18570
X21844Y16510
T5
X25116Y15570
X25116Y14770
X26416Y15570
X26416Y14770
X27716Y15570
X27716Y14770
X25116Y13170
X25116Y12370
X26416Y13170
X26416Y12370
X27716Y13170
X27716Y12370
X25116Y10770
X25116Y9970
X26416Y10770
X26416Y9970
X27716Y10770
X27716Y9970
X26416Y17170
X26416Y17970
X27716Y17970
X27716Y17170
X27622Y26829
X25116Y17170
X25116Y17970
X30639Y27464
X30797Y9049
X9906Y28416
X5080Y14287
X29527Y33814
X32385Y18415
X17304Y13176
X2699Y7620
X12065Y10160
X16986Y11747
X10160Y35084
X19844Y17780
X27305Y33020
X30162Y33020
X29845Y30797
X16034Y15081
X10859Y28257
X17780Y33496
X20638Y29051
X28892Y30797
X17304Y16351
X15716Y17939
X20003Y13970
X4604Y12541
X31274Y36036
X8573Y28734
X13716Y28543
X12065Y17621
X14605Y13176
X11430Y11747
X19209Y18574
X10319Y17463
X10319Y19685
X29369Y36036
X10001Y26035
X7620Y24924
X7144Y15716
X14764Y16034
X17621Y30321
X4128Y18415
X5715Y12541
X17780Y20003
X17780Y27622
X11906Y15875
X6350Y17939
X2699Y17145
X1746Y15081
X18891Y10478
X20955Y10636
X21907Y12065
X22860Y27305
X9843Y13970
X11906Y14287
X17304Y14287
X21273Y27305
X16351Y16034
X10319Y11747
X10795Y13970
X29686Y16192
X29686Y18256
X32067Y12065
X32385Y14764
X25241Y26352
X10954Y10160
X7144Y10478
M30